<?xml version="1.0" encoding="UTF-8"?><svg width="26px" height="26px" viewBox="0 0 26 26" version="1.1" xmlns="http://www.w3.org/2000/svg" xmlns:xlink="http://www.w3.org/1999/xlink">        <title>chat</title>    <desc>Created with Sketch.</desc>    <g id="Page-1" stroke="none" stroke-width="1" fill="none" fill-rule="evenodd">        <g id="Mobile-Copy-2" transform="translate(-147.000000, -623.000000)" fill="#FFFFFF" fill-rule="nonzero">            <g id="chat" transform="translate(160.000000, 636.000000) scale(-1, 1) translate(-160.000000, -636.000000) translate(147.000000, 623.000000)">                <path d="M22.1848964,3.80930233 C19.7276178,1.35221987 16.4677382,0 12.9934652,0 C9.51919217,0 6.25931257,1.35221987 3.80203402,3.80930233 C-0.947605064,8.55856237 -1.27744111,16.1606765 2.98294117,21.2892178 C2.56514884,22.1302326 1.89448221,23.1086681 0.8994768,23.5978858 C0.421214532,23.8342495 0.151848427,24.3454545 0.234307438,24.8731501 C0.31676645,25.4008457 0.723564242,25.8131078 1.25130192,25.8955603 C1.49867895,25.9340381 1.85050407,25.9725159 2.27929093,25.9725159 C3.42821983,25.9725159 5.12137821,25.7031712 6.85301745,24.4553911 C8.78255833,25.4942918 10.893509,26 12.9879679,26 C16.3522956,26 19.6836397,24.6972516 22.1903937,22.1906977 C24.6476722,19.7336152 26,16.4739958 26,13 C26,9.52600423 24.6421749,6.26638478 22.1848964,3.80930233 Z M21.1349183,21.1408034 C17.4242628,24.8511628 11.6796183,25.5877378 7.16086443,22.9327696 C6.86401199,22.756871 6.49569507,22.8118393 6.25931257,23.048203 C6.2373235,23.0591966 6.21533443,23.0756871 6.19884263,23.0921776 C4.70908315,24.2465116 3.24681,24.4883721 2.27929093,24.4883721 L2.27379366,24.4883721 C3.38973896,23.6748414 4.09338919,22.4655391 4.50568425,21.5255814 C4.57165146,21.3661734 4.582646,21.2012685 4.54416512,21.0473573 C4.52767332,20.8989429 4.46720338,20.7505285 4.3627553,20.6295983 C0.33875552,16.0837209 0.547651683,9.1577167 4.84651483,4.85919662 C9.33778234,0.368287526 16.6436508,0.368287526 21.129421,4.85919662 C25.6261858,9.35010571 25.6261858,16.6498943 21.1349183,21.1408034 Z" id="Shape"></path>                <circle id="Oval" cx="12.8470588" cy="13.1529412" r="1"></circle>                <circle id="Oval" cx="17.7411765" cy="13.1529412" r="1"></circle>                <circle id="Oval" cx="8.25882353" cy="13.1529412" r="1"></circle>            </g>        </g>    </g></svg>