<?xml version="1.0" encoding="UTF-8"?>
<svg width="16px" height="8px" viewBox="0 0 16 8" version="1.1" xmlns="http://www.w3.org/2000/svg" xmlns:xlink="http://www.w3.org/1999/xlink">
    <!-- Generator: Sketch 55 (78076) - https://sketchapp.com -->
    <title>fast-delivery</title>
    <desc>Created with Sketch.</desc>
    <g id="Page-1" stroke="none" stroke-width="1" fill="none" fill-rule="evenodd">
        <g id="Desktop-HD-Copy-15" transform="translate(-745.000000, -358.000000)" fill="#0077FF" fill-rule="nonzero">
            <g id="fast-delivery" transform="translate(745.000000, 358.000000)">
                <path d="M5.04009836,5.61342972 L0.548622951,5.61342972 C0.245278689,5.61342972 0,5.85407229 0,6.15093976 C0,6.4477751 0.245278689,6.68848193 0.548622951,6.68848193 L5.04009836,6.68848193 C5.34321311,6.68848193 5.58859016,6.4477751 5.58859016,6.15093976 C5.58859016,5.85407229 5.34321311,5.61342972 5.04009836,5.61342972 Z" id="Path"></path>
                <path d="M5.58859016,3.46313253 L2.19429508,3.46313253 C1.89108197,3.46313253 1.64570492,3.70383936 1.64570492,4.00073896 C1.64570492,4.2975743 1.89108197,4.53828112 2.19429508,4.53828112 L5.58855738,4.53828112 C5.89183607,4.53828112 6.13721311,4.2975743 6.13721311,4.00073896 C6.1372459,3.70380723 5.89186885,3.46313253 5.58859016,3.46313253 Z" id="Path"></path>
                <path d="M6.68586885,1.85040964 C6.68586885,1.55360643 6.44052459,1.31286747 6.13727869,1.31286747 L3.84013115,1.31286747 C3.53678689,1.31286747 3.29147541,1.55360643 3.29147541,1.85040964 C3.29147541,2.14730924 3.53678689,2.38801606 3.84013115,2.38801606 L6.13727869,2.38801606 C6.4404918,2.38804819 6.68586885,2.14734137 6.68586885,1.85040964 Z" id="Path"></path>
                <path d="M15.6871475,0.426698795 C15.4641639,0.171084337 15.1396393,0.0246425703 14.7960656,0.0246425703 L8.50672131,0.0246425703 C7.92544262,0.0246425703 7.43845902,0.433028112 7.34786885,0.996337349 L6.44580328,6.65130924 C6.39337705,6.98303614 6.49085246,7.31958233 6.71357377,7.57471486 C6.93655738,7.83032932 7.26108197,7.97686747 7.60465574,7.97686747 L13.8940328,7.97686747 C14.4753443,7.97686747 14.9622295,7.56838554 15.0528525,7.00507631 L15.9548852,1.3502008 C16.0073115,1.01837751 15.9099344,0.681831325 15.6871475,0.426698795 Z M13.968459,6.83868273 C13.962623,6.87514859 13.9314098,6.90168675 13.8940328,6.90168675 L7.60465574,6.90168675 C7.58262295,6.90168675 7.5617377,6.89201606 7.54727869,6.87588755 C7.53288525,6.85943775 7.52695082,6.83739759 7.53019672,6.81635341 L8.43229508,1.1626988 C8.43819672,1.1262008 8.46931148,1.09969478 8.5067541,1.09969478 L10.534,1.09969478 L10.2703934,2.4906988 C10.250459,2.59566265 10.278918,2.70403213 10.3489508,2.78621687 C10.4186885,2.86865863 10.5221639,2.91611245 10.6313443,2.91611245 L11.9070164,2.91611245 C12.0838361,2.91611245 12.2358689,2.79254618 12.268,2.6222008 L12.5568852,1.09975904 L14.7960656,1.09975904 C14.8180984,1.09975904 14.8390492,1.1095261 14.8534426,1.1255261 C14.8678361,1.14210442 14.8737377,1.16414458 14.8705246,1.18509237 L13.968459,6.83868273 Z" id="Shape"></path>
            </g>
        </g>
    </g>
</svg>