<?xml version="1.0" encoding="utf-8"?>
<!-- Generator: Adobe Illustrator 21.0.0, SVG Export Plug-In . SVG Version: 6.00 Build 0)  -->
<svg version="1.1" id="Layer_1" xmlns="http://www.w3.org/2000/svg" xmlns:xlink="http://www.w3.org/1999/xlink" x="0px" y="0px"
	 viewBox="0 0 16 8" style="enable-background:new 0 0 16 8;" xml:space="preserve">
<style type="text/css">
	.st0{fill:#1CA0A4;}
</style>
<title>fast-delivery</title>
<desc>Created with Sketch.</desc>
<g id="Page-1">
	<g id="Desktop-HD-Copy-15" transform="translate(-745.000000, -358.000000)">
		<g id="fast-delivery" transform="translate(745.000000, 358.000000)">
			<path id="Path" class="st0" d="M5,5.6H0.5C0.2,5.6,0,5.9,0,6.2c0,0.3,0.2,0.5,0.5,0.5H5c0.3,0,0.5-0.2,0.5-0.5
				C5.6,5.9,5.3,5.6,5,5.6z"/>
			<path id="Path_1_" class="st0" d="M5.6,3.5H2.2C1.9,3.5,1.6,3.7,1.6,4c0,0.3,0.2,0.5,0.5,0.5h3.4c0.3,0,0.5-0.2,0.5-0.5
				C6.1,3.7,5.9,3.5,5.6,3.5z"/>
			<path id="Path_2_" class="st0" d="M6.7,1.9c0-0.3-0.2-0.5-0.5-0.5H3.8c-0.3,0-0.5,0.2-0.5,0.5c0,0.3,0.2,0.5,0.5,0.5h2.3
				C6.4,2.4,6.7,2.1,6.7,1.9z"/>
			<path id="Shape" class="st0" d="M15.7,0.4C15.5,0.2,15.1,0,14.8,0H8.5C7.9,0,7.4,0.4,7.3,1L6.4,6.7C6.4,7,6.5,7.3,6.7,7.6
				C6.9,7.8,7.3,8,7.6,8h6.3c0.6,0,1.1-0.4,1.2-1L16,1.4C16,1,15.9,0.7,15.7,0.4z M14,6.8C14,6.9,13.9,6.9,14,6.8L7.6,6.9
				c0,0,0,0-0.1,0c0,0,0,0,0-0.1l0.9-5.7c0,0,0-0.1,0.1-0.1h2l-0.3,1.4c0,0.1,0,0.2,0.1,0.3c0.1,0.1,0.2,0.1,0.3,0.1h1.3
				c0.2,0,0.3-0.1,0.4-0.3l0.3-1.5h2.2c0,0,0,0,0.1,0c0,0,0,0,0,0.1L14,6.8z"/>
		</g>
	</g>
</g>
</svg>
