<?xml version="1.0" encoding="utf-8"?>
<!-- Generator: Adobe Illustrator 21.0.0, SVG Export Plug-In . SVG Version: 6.00 Build 0)  -->
<svg version="1.1" id="Layer_1" xmlns="http://www.w3.org/2000/svg" xmlns:xlink="http://www.w3.org/1999/xlink" x="0px" y="0px"
	 viewBox="0 0 19 11" style="enable-background:new 0 0 19 11;" xml:space="preserve">
<style type="text/css">
	.st0{fill:#1CA0A4;}
</style>
<title>envelope</title>
<desc>Created with Sketch.</desc>
<g id="Page-1">
	<g id="Desktop-Copy-7" transform="translate(-1350.000000, -24.000000)">
		<g id="Group-4">
			<g id="Group" transform="translate(1349.000000, 21.000000)">
				<g id="envelope" transform="translate(0.769231, 3.000000)">
					<path id="Shape" class="st0" d="M19.2,0.9c0-0.5-0.4-0.9-1-0.9c0,0,0,0,0,0l-17,0C0.9,0,0.7,0.1,0.5,0.3C0.3,0.5,0.2,0.7,0.2,1
						l0,9.1c0,0.2,0.1,0.5,0.3,0.7C0.7,10.9,1,11,1.2,11c0,0,0,0,0,0l17,0c0.5,0,1-0.4,1-0.9L19.2,0.9z M17.2,0.9L9.7,5.9L2.3,0.9
						L17.2,0.9z M12.9,6.8l4.4,3.3l-15.1,0l4.4-3.3c0.2-0.2,0.3-0.4,0.1-0.7C6.5,5.9,6.2,5.9,6,6.1L1.2,9.6l0-8.2l8.3,5.4
						c0.1,0.1,0.2,0.1,0.3,0.1c0.1,0,0.2,0,0.3-0.1l8.2-5.5l0,8.2l-4.8-3.5c-0.2-0.2-0.5-0.1-0.7,0.1C12.6,6.3,12.7,6.6,12.9,6.8z"
						/>
				</g>
			</g>
		</g>
	</g>
</g>
</svg>
