<?xml version="1.0" encoding="UTF-8"?>
<svg width="19px" height="11px" viewBox="0 0 19 11" version="1.1" xmlns="http://www.w3.org/2000/svg" xmlns:xlink="http://www.w3.org/1999/xlink">
    <!-- Generator: Sketch 53.2 (72643) - https://sketchapp.com -->
    <title>envelope</title>
    <desc>Created with Sketch.</desc>
    <g id="Page-1" stroke="none" stroke-width="1" fill="none" fill-rule="evenodd">
        <g id="Desktop-Copy-7" transform="translate(-1350.000000, -24.000000)" fill="#0078FD" fill-rule="nonzero">
            <g id="Group-4">
                <g id="Group" transform="translate(1349.000000, 21.000000)">
                    <g id="envelope" transform="translate(0.769231, 3.000000)">
                        <path d="M19.2176689,0.925968545 C19.2168896,0.415093005 18.7804454,0 18.2443995,0 C18.2439542,0 18.2435089,0 18.2431378,0 L1.20266641,0.0223103651 C0.942714751,0.0226285795 0.698423278,0.119401114 0.514842855,0.294772605 C0.331299543,0.470179454 0.230436073,0.703218465 0.230770058,0.950824625 L0.24394391,10.0739961 C0.244277895,10.321673 0.345846445,10.5544291 0.52990929,10.729341 C0.71363815,10.9039346 0.957632748,11 1.21713909,11 C1.21758441,11 1.21806683,11 1.21843792,11 L18.2588722,10.9776896 C18.7954005,10.9769825 19.2313994,10.5605106 19.2307685,10.0491754 L19.2176689,0.925968545 Z M17.1753506,0.928655689 L9.73153005,5.85899888 L2.27327388,0.948172839 L17.1753506,0.928655689 Z M12.8793758,6.78949314 L17.2943235,10.0517211 L2.15470921,10.0715211 L6.59656128,6.78949314 C6.80890152,6.63254273 6.84756956,6.34134119 6.68287785,6.13895684 C6.51814903,5.93664319 6.21251564,5.89980104 6.00010118,6.05671609 L1.21643401,9.59133557 L1.20455899,1.37168085 L9.45562133,6.80455529 C9.53889492,6.85939424 9.63556502,6.88676067 9.73227223,6.88676067 C9.82938765,6.88676067 9.92657729,6.85907602 10.0100364,6.80381279 L18.2450675,1.34947655 L18.2575363,9.59002735 L13.4757617,6.05675145 C13.2635328,5.89987175 12.9577509,5.93667855 12.7930592,6.13899219 C12.6283304,6.34130584 12.6669613,6.63257808 12.8793758,6.78949314 Z" id="Shape"></path>
                    </g>
                </g>
            </g>
        </g>
    </g>
</svg>