<?xml version="1.0" encoding="UTF-8"?>
<svg width="41px" height="43px" viewBox="0 0 41 43" version="1.1" xmlns="http://www.w3.org/2000/svg" xmlns:xlink="http://www.w3.org/1999/xlink">
    <!-- Generator: Sketch 55 (78076) - https://sketchapp.com -->
    <title>Group</title>
    <desc>Created with Sketch.</desc>
    <g id="Page-1" stroke="none" stroke-width="1" fill="none" fill-rule="evenodd">
        <g id="Desktop-HD-Copy-18" transform="translate(-1350.000000, -266.000000)" fill="#FFFFFF">
            <g id="iconfinder_viber_519179" transform="translate(1332.000000, 249.000000)">
                <g id="Group" transform="translate(17.987705, 17.356557)">
                    <path d="M15.1273443,12.6145881 C14.4281906,13.5460041 13.8558975,14.6189549 13.0046373,15.3799611 C11.0447664,17.1323422 10.7825246,17.7696434 11.8177643,20.1487541 C13.9439426,25.0343094 17.255416,28.7274693 22.3746537,30.6264344 C24.0811189,31.2596332 25.3309488,30.9961291 26.4588094,29.4613361 C28.3022336,26.9528402 29.6943873,26.7035369 32.3048135,28.4115799 C34.3180164,29.7284693 36.2427008,31.1936783 38.1228893,32.6975451 C39.6504242,33.9191311 39.9090369,35.379291 38.8281967,37.0104918 C37.9698361,38.3065533 36.9462725,39.5335041 35.8155717,40.6001434 C34.2323381,42.0942275 32.3938053,42.4662889 30.2296004,41.6404324 C15.7909959,36.1316189 5.95172131,26.1110471 0.521170082,11.6765451 C-0.211907787,9.72740369 0.0296639344,7.96239959 1.35791393,6.50003074 C2.54888934,5.18866393 3.93883402,4.01378279 5.39694262,3.00378893 C6.59012705,2.17714344 8.1126127,2.13627664 9.07022131,3.3651209 C10.9592459,5.78904303 12.6726537,8.35150205 14.4119385,10.8887152 C14.6787561,11.2778176 14.6967439,11.8376455 14.8296004,12.3182643 C14.9288484,12.4170389 15.0282541,12.5158135 15.1273443,12.6145881 Z" id="Path"></path>
                    <path d="M40.8161537,19.9876537 C40.8161537,20.4914672 40.968418,21.0648648 40.7778115,21.4812643 C40.5357664,22.0104816 40.015543,22.4125225 39.6152377,22.8693156 C39.2195082,22.4120492 38.5752643,22.0035389 38.4742807,21.488207 C38.1509754,19.8442254 38.140877,18.1382336 37.811418,16.4959877 C36.252168,8.73066393 29.727207,3.16978074 21.836127,2.75606352 C20.7941025,2.70146926 19.216707,3.06374795 19.2364303,1.4208709 C19.2572582,-0.296008197 20.8404918,0.223741803 21.8526947,0.257192623 C31.7071168,0.583653689 39.9219754,8.63252049 40.6675184,18.6425205 C40.7009693,19.0903197 40.7178525,19.5390656 40.7427828,19.9874959 C40.767082,19.9876537 40.7915389,19.9876537 40.8161537,19.9876537 Z" id="Path"></path>
                    <path d="M35.6440574,18.0022213 C35.6440574,18.6972725 35.7597152,19.0966311 35.6197582,19.3582418 C35.3357418,19.8871434 34.9130307,20.3414119 34.5472807,20.8266066 C34.104373,20.3499324 33.4400902,19.940791 33.2690492,19.3808053 C32.9960779,18.4886783 33.146291,17.4763176 32.9520553,16.5494775 C31.9561045,11.795043 28.3844406,8.65981762 23.1752643,7.89786475 C22.9535738,7.86536066 22.6664016,7.94251844 22.5144529,7.8287541 C21.9595164,7.41267008 21.0411967,6.9685 21.003959,6.47825615 C20.9187541,5.3551291 21.9289057,5.24704508 22.8197705,5.35134221 C25.7116885,5.69042623 28.4259385,6.53679508 30.7124283,8.41509016 C33.838502,10.9832295 35.4332541,14.3341496 35.6440574,18.0022213 Z" id="Path"></path>
                    <path d="M30.5819385,18.0434037 C30.3856516,18.237166 29.9741434,18.9615656 29.4685943,19.0347787 C29.1031598,19.0877951 28.273832,18.3062766 28.2321762,17.84475 C27.9726168,14.9604057 26.6019221,13.3318873 23.6287439,13.0467664 C23.1728975,13.0030594 22.789002,12.2109693 22.3718135,11.7649057 C22.9103402,11.4037316 23.4386107,10.7482848 23.9891291,10.728877 C27.5705758,10.6031209 30.6595697,13.855582 30.5819385,18.0434037 Z" id="Path"></path>
                </g>
            </g>
        </g>
    </g>
</svg>