<?xml version="1.0" encoding="utf-8"?>
<!-- Generator: Adobe Illustrator 21.0.0, SVG Export Plug-In . SVG Version: 6.00 Build 0)  -->
<svg version="1.1" id="Layer_1" xmlns="http://www.w3.org/2000/svg" xmlns:xlink="http://www.w3.org/1999/xlink" x="0px" y="0px"
	 viewBox="0 0 20 20" style="enable-background:new 0 0 20 20;" xml:space="preserve">
<style type="text/css">
	.st0{fill:#1CA0A4;}
</style>
<title>юбн</title>
<desc>Created with Sketch.</desc>
<g id="Page-1">
	<g id="Desktop-HD-Copy-21" transform="translate(-696.000000, -257.000000)">
		<path id="_xE86D_" class="st0" d="M700,265.6c0.8,1.6,1.9,3,3.1,4.2s2.7,2.3,4.2,3.1l2.5-2.5c0.1-0.2,0.3-0.3,0.5-0.3
			c0.2-0.1,0.4,0,0.6,0.1c1.2,0.4,2.5,0.6,3.9,0.6c0.3,0,0.6,0.1,0.8,0.3c0.2,0.2,0.3,0.5,0.3,0.8v3.9c0,0.3-0.1,0.6-0.3,0.8
			c-0.2,0.2-0.5,0.3-0.8,0.3c-2.6,0-5-0.5-7.4-1.5c-2.3-1-4.3-2.3-6-4.1c-1.7-1.7-3.1-3.7-4.1-6c-1-2.3-1.5-4.8-1.5-7.4
			c0-0.3,0.1-0.6,0.3-0.8c0.2-0.2,0.5-0.3,0.8-0.3h3.9c0.3,0,0.6,0.1,0.8,0.3c0.2,0.2,0.3,0.5,0.3,0.8c0,1.5,0.2,2.8,0.6,3.9
			c0.1,0.2,0.1,0.4,0,0.6c0,0.2-0.1,0.4-0.3,0.5L700,265.6z"/>
	</g>
</g>
</svg>
