<?xml version="1.0" encoding="UTF-8"?>
<svg width="20px" height="20px" viewBox="0 0 20 20" version="1.1" xmlns="http://www.w3.org/2000/svg" xmlns:xlink="http://www.w3.org/1999/xlink">
    <!-- Generator: Sketch 55 (78076) - https://sketchapp.com -->
    <title>юбн</title>
    <desc>Created with Sketch.</desc>
    <g id="Page-1" stroke="none" stroke-width="1" fill="none" fill-rule="evenodd">
        <g id="Desktop-HD-Copy-21" transform="translate(-696.000000, -257.000000)" fill="#2684FF" fill-rule="nonzero">
            <path d="M700,265.64 C700.817782,267.204452 701.857771,268.617771 703.12,269.88 C704.382229,271.142229 705.795548,272.182218 707.36,273 L709.813333,270.546667 C709.955556,270.386666 710.133332,270.28 710.346667,270.226667 C710.560001,270.173333 710.764443,270.191111 710.96,270.28 C712.133339,270.688891 713.448882,270.893333 714.906667,270.893333 C715.20889,270.893333 715.466666,270.999999 715.68,271.213333 C715.893334,271.426668 716,271.684443 716,271.986667 L716,275.906667 C716,276.20889 715.893334,276.466666 715.68,276.68 C715.466666,276.893334 715.20889,277 714.906667,277 C712.346654,277 709.893345,276.502227 707.546667,275.506667 C705.288878,274.546662 703.288898,273.195564 701.546667,271.453333 C699.804436,269.711102 698.453338,267.711122 697.493333,265.453333 C696.497773,263.106655 696,260.653346 696,258.093333 C696,257.79111 696.106666,257.533334 696.32,257.32 C696.533334,257.106666 696.79111,257 697.093333,257 L701.013333,257 C701.315557,257 701.573332,257.106666 701.786667,257.32 C702.000001,257.533334 702.106667,257.79111 702.106667,258.093333 C702.106667,259.551118 702.311109,260.866661 702.72,262.04 C702.773334,262.235557 702.782222,262.439999 702.746667,262.653333 C702.711111,262.866668 702.613334,263.044444 702.453333,263.186667 L700,265.64 Z" id="юбн"></path>
        </g>
    </g>
</svg>