<?xml version="1.0" encoding="utf-8"?>
<!-- Generator: Adobe Illustrator 21.0.0, SVG Export Plug-In . SVG Version: 6.00 Build 0)  -->
<svg version="1.1" xmlns="http://www.w3.org/2000/svg" xmlns:xlink="http://www.w3.org/1999/xlink" x="0px" y="0px"
	 viewBox="0 0 40 40" style="enable-background:new 0 0 40 40;" xml:space="preserve">
<style type="text/css">
	.st0{fill:#00AEDF;}
</style>
<g id="Layer_1">
	<path class="st0" d="M35.8,9.1H4.2c-2.1,0-3.8-1.7-3.8-3.8v0c0-2.1,1.7-3.8,3.8-3.8h31.6c2.1,0,3.8,1.7,3.8,3.8v0
		C39.6,7.4,37.9,9.1,35.8,9.1z"/>
	<path class="st0" d="M35.8,23.8H4.2c-2.1,0-3.8-1.7-3.8-3.8v0c0-2.1,1.7-3.8,3.8-3.8h31.6c2.1,0,3.8,1.7,3.8,3.8v0
		C39.6,22.1,37.9,23.8,35.8,23.8z"/>
	<path class="st0" d="M35.8,38.6H4.2c-2.1,0-3.8-1.7-3.8-3.8v0c0-2.1,1.7-3.8,3.8-3.8h31.6c2.1,0,3.8,1.7,3.8,3.8v0
		C39.6,36.9,37.9,38.6,35.8,38.6z"/>
</g>
<g id="Layer_2">
</g>
</svg>
