<?xml version="1.0" encoding="utf-8"?>
<!-- Generator: Adobe Illustrator 21.0.0, SVG Export Plug-In . SVG Version: 6.00 Build 0)  -->
<svg version="1.1" xmlns="http://www.w3.org/2000/svg" xmlns:xlink="http://www.w3.org/1999/xlink" x="0px" y="0px"
	 viewBox="0 0 674 451" style="enable-background:new 0 0 674 451;" xml:space="preserve">
<style type="text/css">
	.st0{fill:#FFEB97;}
	.st1{fill:#F9DA58;}
	.st2{fill:#EAD157;}
	.st3{fill:#67D3AA;}
	.st4{fill:#C1B475;}
	.st5{fill:#FFFFE0;}
	.st6{fill:#E5E6D1;}
	.st7{fill:#D8D0C0;}
	.st8{fill:#FFFFFF;}
	.st9{fill:none;stroke:#463633;stroke-width:2.9215;stroke-miterlimit:10;}
	.st10{fill:#72605B;}
	.st11{fill:#5F4F4C;}
	.st12{fill:#AEAEAE;}
	.st13{fill:#FFBFA0;}
	.st14{fill:#E79F89;}
	.st15{fill:#3F6C71;}
	.st16{fill:#305659;}
	.st17{fill:#00303A;}
	.st18{fill:#003B42;}
	.st19{fill:#723E2E;}
	.st20{fill:#1C1C24;}
	.st21{fill:#574745;}
	.st22{fill:none;stroke:#574745;stroke-width:1.0446;stroke-linecap:round;stroke-miterlimit:10;}
	.st23{fill:#DDCAC7;}
	.st24{fill:#F1E1DD;}
	.st25{fill:#CE6363;}
	.st26{clip-path:url(#SVGID_2_);}
	.st27{fill:#954444;}
	.st28{fill:#33435A;}
	.st29{fill:#5BB5DC;}
	.st30{fill:#FAAF40;}
	.st31{fill:#A9EFFF;}
	.st32{fill:#BBBDBF;}
	.st33{fill:#D0D2D3;}
	.st34{fill:#C1B49A;}
	.st35{fill:#594A42;}
	.st36{opacity:0.3;fill:#594A42;}
	.st37{fill:#2E2B36;}
	.st38{fill:#17141D;}
	.st39{fill:#A6A8AB;}
	.st40{fill:#808184;}
	.st41{fill:#382C27;}
	.st42{fill:#726658;}
	.st43{fill:#F05A29;}
	.st44{fill:#BD1E2D;}
	.st45{opacity:0.5;fill:#A6A8AB;}
	.st46{fill:#414042;}
	.st47{fill:#754C29;}
	.st48{fill:#8A5E3C;}
	.st49{fill:#352826;}
	.st50{fill:#E2E7ED;}
	.st51{fill:#4C3A36;}
	.st52{opacity:0.3;fill:#603913;}
	.st53{fill:#F9F7E9;}
	.st54{fill:#5B4A48;}
	.st55{fill:#DC7B6D;}
	.st56{fill:#BCBEC0;}
	.st57{fill:#06529C;}
	.st58{fill:#FFE7DE;}
	.st59{opacity:0.14;}
	.st60{fill:#FFFCEF;}
	.st61{fill:#325E7C;}
	.st62{opacity:0.1;fill:#FFFFFF;}
	.st63{opacity:0.1;}
	.st64{fill:#F6F6F6;}
	.st65{fill:#427CCC;}
	.st66{fill:#FFBFA4;}
	.st67{fill:#F5CEB0;}
	.st68{fill:#DEC0B9;}
	.st69{fill:#BABCBE;}
	.st70{fill:#23AFB7;}
	.st71{fill:#1A8E8E;}
	.st72{opacity:0.5;fill:#726658;}
	.st73{opacity:0.5;fill:#23AFB7;}
</style>
<g id="bg">
</g>
<g id="Layer_5">
	<rect y="0.6" class="st0" width="674" height="336.1"/>
	<path class="st1" d="M470.1,186.5l-34-8.4c-5.1-10.3-15.8-17.4-28.1-17.4c-3.6,0-7,0.6-10.2,1.7c0,0,0,0,0,0
		c0-21.8-17.7-39.4-39.4-39.4c-6.1,0-12,1.4-17.2,3.9c-4.1-13-16.2-22.4-30.5-22.4c-0.8,0-1.5,0-2.3,0.1c0.2-1.5,0.3-3,0.3-4.5
		c0-21.5-17.4-38.9-38.9-38.9S231,78.6,231,100.1c0,1.7,0.1,3.4,0.3,5.1c-2.1-0.4-4.3-0.7-6.5-0.7c-14,0-25.9,9-30.2,21.6
		c-4.7-2-9.9-3.1-15.4-3.1c-21.2,0-38.5,16.8-39.4,37.8c0,0,0,0,0,0c-12.3,0-23,7.1-28.1,17.4l-24.1,8.6c-8.2,2.9-6.1,15.1,2.6,15.1
		h15.6h4.2h59.6h47h42.7h17H319h59.1h59.6h30.4l0,0C477.4,201.8,479,188.7,470.1,186.5z"/>
	<g>
		<rect x="360" y="117.9" class="st2" width="50.9" height="88"/>
		<rect x="369" y="108" class="st2" width="32.9" height="70.4"/>
		<rect x="611.7" y="131.6" class="st2" width="39.2" height="74.3"/>
		<rect x="543" y="165.5" class="st2" width="49.8" height="40.4"/>
		<rect x="592.8" y="143.2" class="st2" width="49.8" height="62.8"/>
		<rect x="577.6" y="143.2" class="st2" width="5.8" height="62.8"/>
		<polygon class="st2" points="567.9,205.9 531.4,205.9 531.4,114.3 567.9,105.3 		"/>
		<polygon class="st2" points="522.2,122.7 522.2,107.2 513,107.2 513,92.7 507.4,92.7 507.4,72.5 500.6,72.5 500.6,92.7 495,92.7 
			495,107.2 485.8,107.2 485.8,122.7 476.5,122.7 476.5,205.9 531.4,205.9 531.4,122.7 		"/>
		<g>
			<rect x="432.8" y="134.8" class="st2" width="43.8" height="71.1"/>
			<rect x="410.9" y="168.3" class="st2" width="43.8" height="37.7"/>
		</g>
		<rect x="343" y="152.4" class="st2" width="20.9" height="53.5"/>
		<rect x="320.9" y="168.3" class="st2" width="25.4" height="37.7"/>
	</g>
	<rect x="1.9" y="201.9" class="st3" width="672.1" height="67.8"/>
	<rect y="269.7" class="st4" width="674" height="181.3"/>
	<rect x="1.9" y="257.5" class="st5" width="672.1" height="12.2"/>
	<rect x="1.9" y="215.6" class="st5" width="672.1" height="12.2"/>
	<rect x="329.4" y="231.8" class="st6" width="17" height="29.7"/>
	<rect x="266.8" y="231.8" class="st6" width="17" height="29.7"/>
	<rect x="204.2" y="230.8" class="st6" width="17" height="29.7"/>
	<rect x="141.6" y="227.8" class="st6" width="17" height="29.7"/>
	<rect x="79" y="227.8" class="st6" width="17" height="29.7"/>
	<rect x="16.4" y="227.8" class="st6" width="17" height="29.7"/>
	
		<rect x="392" y="231.8" transform="matrix(-1 -1.224647e-16 1.224647e-16 -1 801.1152 493.3549)" class="st6" width="17" height="29.7"/>
	
		<rect x="454.7" y="231.8" transform="matrix(-1 -1.224647e-16 1.224647e-16 -1 926.3304 493.3549)" class="st6" width="17" height="29.7"/>
	
		<rect x="517.3" y="231.8" transform="matrix(-1 -1.224647e-16 1.224647e-16 -1 1051.5458 493.3549)" class="st6" width="17" height="29.7"/>
	
		<rect x="579.9" y="231.8" transform="matrix(-1 -1.224647e-16 1.224647e-16 -1 1176.7611 493.3549)" class="st6" width="17" height="29.7"/>
	
		<rect x="642.5" y="231.8" transform="matrix(-1 -1.224647e-16 1.224647e-16 -1 1301.9763 493.3549)" class="st6" width="17" height="29.7"/>
	<rect x="302.1" y="303.5" class="st7" width="74.6" height="9.9"/>
	<g>
		<rect x="18.8" y="352.3" class="st7" width="74.6" height="9.9"/>
		<rect x="155.5" y="355.3" class="st7" width="74.6" height="9.9"/>
		<rect x="428.8" y="356.3" class="st7" width="74.6" height="9.9"/>
		<rect x="565.4" y="356.3" class="st7" width="74.6" height="9.9"/>
	</g>
	<path class="st8" d="M641,124.2l-28.7-4.5c-5.6-0.9-10.3-4.4-12.9-9.4c-4.5-8.4-13.3-14.1-23.5-14.1c-5.3,0-10.3,1.6-14.5,4.3
		c-2.8-8.2-10.6-14.1-19.7-14.1c-2.6,0-5.1,0.5-7.4,1.4c1-3.3,1.3-6.8,0.9-10.4c-1.3-13.1-12.2-23.5-25.4-24.3
		c-15.7-0.9-28.7,11.6-28.7,27.1c0,2.9,0.5,5.7,1.3,8.4c-2.8-1.4-5.9-2.1-9.2-2.1c-9.6,0-17.8,6.6-20.1,15.4c-3.7-1.9-7.9-3-12.4-3
		c-9.1,0-17.2,4.6-22,11.6c-3.7,5.3-9.4,8.9-15.7,10.2l-17.5,3.6c-2.3,0.5-2,3.9,0.4,3.9h28.3h53h18.9h44.1h19.5H602h38.7l0,0
		C643.1,128.1,643.4,124.5,641,124.2z"/>
	<path class="st8" d="M252.4,85.1L207.9,74c-4-4.8-10.1-7.8-16.8-7.8c-4.1,0-8,1.1-11.2,3.1c-3.6-9.8-13.1-16.8-24.2-16.8
		c-0.9,0-1.8,0.1-2.7,0.1c-1.4-12.9-12.4-22.9-25.6-22.9c-14.3,0-25.8,11.6-25.8,25.8c0,0.1,0,0.2,0,0.4
		c-10.4,1.7-18.6,9.6-20.9,19.7c-2.5-1-5.3-1.6-8.1-1.6c-6.5,0-12.3,2.8-16.3,7.2l-1.5,0.1l-21.3,3.6c-4.6,0.8-4,7.6,0.6,7.6
		c5.2,0,10.8,0,16.7,0h175.8v0.2c9.2,0,17.6,0,25-0.1C256,92.6,256.8,86.2,252.4,85.1z"/>
</g>
<g id="man1">
	<g>
		<g>
			<path class="st9" d="M569.5,288.9c0,0-1.2-3.8,4.9-5.6c6.1-1.8,9.5,0.8,10.7,5.4"/>
			<path class="st10" d="M552.1,290.9l47.2-6.6l7.6,33.6c0,0-17,8.7-50.8,7.2L552.1,290.9z"/>
			<path class="st11" d="M562.7,308.2c0,0,26.5-2,40.5-6.3l-0.4-1.8c0,0-12.3,4.6-40.4,6.6L562.7,308.2z"/>
			<polygon class="st12" points="579.6,303.3 580.2,306.8 592.1,304.6 591.6,301.6 			"/>
			<path class="st13" d="M581.3,284.4c0,0,0-0.1,0-0.1c1.1-4.9-1.7-6.2-1.7-6.2l-3.6-31.7l-8.8,6.6l1.2-0.4l3.7,24.9
				c0,0-4.5,2.5-2,7.1l2.4-1.5c0,0,1,0.9,0.2,2c0,0-0.8-0.2-1.3,1c0,0,1.1,1.8,3,0.3h0c0,0,1.5,1.3,2.9,0c0,0,2.5,1,3.9-1.5
				c0,0,0,0,0,0c0,0,0,0,0,0c0,0,0,0,0,0C581.2,284.7,581.2,284.6,581.3,284.4C581.3,284.4,581.3,284.4,581.3,284.4z"/>
			<path class="st11" d="M559,290l-6.9,1l3.9,34.1c3.6,0.2,7,0.2,10.2,0.2L559,290z"/>
			<path class="st13" d="M488.3,228.9l-9.8-27.8c0,0-3.8,0.5-6.4-0.4c0,0-2.7-1.9-1.1-2.8c0,0-2.2-0.7-1.2-2.7c0,0-2.3-2-0.6-3.4
				c0,0-1.8-1.8,1.3-2.9c3.1-1.1,7.7-0.4,7.7-0.4s-2.2-5-0.5-7.4c1.4-1.9,3.8,7.4,3.8,7.4l15.9,42.5L488.3,228.9z"/>
			<path class="st14" d="M568.8,255.3c2.6-1.4,5.1-2.7,7.8-4l-0.6-4.9l-8.8,6.6l1.2-0.4L568.8,255.3z"/>
			<path class="st14" d="M491.3,214.7c-2,1.9-4,3.7-6,5.5l3.1,8.7l9,2L491.3,214.7z"/>
			<polygon class="st15" points="519.1,363.9 521.2,378 526.8,378.1 525.3,362.8 			"/>
			<polygon class="st15" points="552.6,369.6 555,383.7 560.6,383.7 558.7,368.4 			"/>
			<path class="st16" d="M526.2,371.8l-0.9-9l-6.1,1.1l1.2,7.8C522,371.8,524.2,371.9,526.2,371.8z"/>
			<path class="st16" d="M559.5,374.6l-0.8-6.2l-6.1,1.2l1,5.9C555.5,375.2,557.6,375,559.5,374.6z"/>
			<path class="st17" d="M561.9,371.4L550,256.3l-0.6,0.1c-4.8-9.8-23.1-0.9-30.3,3.1l-2.7-0.4c-0.4,2.2-8.9,54,1.3,110.4
				c0,0,5.9,1.9,10.8-1.7c-4.1-24.7-3.8-66-1-86c4.1,0.7,5.9,0.1,10.6-0.2c0,0,10,80.7,12,91C556.4,375.1,561.9,371.4,561.9,371.4z"
				/>
			<polygon class="st18" points="530.3,267.4 530,279.1 533.4,279.3 533.4,282.1 534,282 534.7,268 			"/>
			<polygon class="st14" points="532.7,182.3 532.4,203 546.2,197.9 546.7,176.6 			"/>
			<path class="st13" d="M558.4,155.1c-2.8-0.8-4.7,1.2-5.9,3.1c-0.4-7-0.8-13.2-0.8-13.2s-2.6-7.4-15.1-6.3c-11.3,1-11.3,1-11.3,1
				s-5,34.2-2.6,38.1c2,3.2,7.6,7.7,13.6,7.2c6-0.5,17-3.8,17-9.9c0-1.4-0.1-3.6-0.2-6.3C561.1,170,563.6,156.5,558.4,155.1z"/>
			<path class="st14" d="M557.8,157.3c-3-0.9-4.3,3.6-4.5,4.2c2,1,2.6,3.6,1.5,5C559.5,167,560.9,158.3,557.8,157.3z"/>
			<path class="st19" d="M553.3,157.7l-0.8,4.1h-2.4v-14c0,0-5.1-2.8-4.7-7.8c0,0-5.1,2.3-10,3c-3.8,0.6-18.5,2.5-18.2-11
				c0,0,2.4,4.5,5.7,4.9c0,0-7.9-4.2-2.3-11.9c0,0-0.7,4,2.3,3.7c2.9-0.4,12.4-9.1,20.9-6.2s8.6,8.1,8.6,8.1s8.6-0.1,9.1,4.4
				s-5.3,20-5.3,20S553.3,155.6,553.3,157.7z"/>
			<g>
				<path class="st19" d="M537.4,150.2c0,0,6.6-1.4,8.4,1.5c0,0,1.9-2.9-0.8-4c-2.8-1.2-5.9-0.8-7.2-0.3
					C536.4,147.8,535.7,149.9,537.4,150.2z"/>
				<path class="st19" d="M531.3,150.2c0,0-5.8-1.8-7.6,1c0,0-1.1-3.1,1.5-3.7c2.7-0.7,5.4-0.4,6.5,0
					C533,148,532.7,150.2,531.3,150.2z"/>
				<ellipse class="st20" cx="543" cy="155.3" rx="1.6" ry="2.7"/>
				<ellipse class="st20" cx="530" cy="155.3" rx="1.6" ry="2.7"/>
			</g>
			<polygon class="st14" points="534.3,152.7 529,166.5 536.1,167.9 			"/>
			<path class="st8" d="M530.2,171.2l14.5-1.9c0,0-1.5,5.4-7.2,6.3C531.7,176.5,530.2,171.2,530.2,171.2z"/>
			<path class="st8" d="M512.9,200.3c0,0,1.5,41.7,3.2,60.6c0,0,6.9,3.1,21.3,3c10.1,0,13.1-2.1,13.1-2.1l19-65.2
				c0,0-9.2-2.3-24.6-2.9l-7.4,6.5c0,0-1.7-5.3-5.5-6.5c-5.8,0.2-12.2,0.7-19,1.5V200.3z"/>
			<g>
				<polygon class="st8" points="567.9,251.9 558.7,198.7 569.5,196.6 577,247.9 				"/>
			</g>
			<g>
				<path class="st8" d="M512.9,195.3l-16.4,27.3l-2-3.6c-2.6,2.7-5.1,5.5-7.8,8.2c2.8,7.8,5.8,14.3,7.8,13.6
					c4.8-1.6,20.7-25.7,20.7-25.7L512.9,195.3z"/>
			</g>
			<g>
				<path class="st10" d="M520.9,263.2c-2.9-0.6-4.6-1.3-4.7-1.3c-0.9-0.3-1.1,0.4-1.3,1.3c-0.1,1.1-0.3,1.6,0.5,1.8
					c0.1,0,1.8,0.7,4.7,1.5C520.5,265.4,520.7,264.3,520.9,263.2z"/>
				<path class="st10" d="M541.9,264.5c-3.3,0.2-6.8,0.2-10.7,0.1c-3-0.1-5.6-0.5-7.9-0.9c0,1.1-0.1,2.2-0.4,3.4
					c2.3,0.4,5,0.8,8.1,0.9c1.3,0.1,2.5,0.1,3.7,0.1c2.7,0,5.2-0.1,7.5-0.3C542,266.7,541.9,265.6,541.9,264.5z"/>
				<path class="st10" d="M551.4,264.4c-0.1-0.8-0.2-1.6-1.1-1.3c-1.9,0.6-4,1-6.3,1.2c0.1,1.1,0.2,2.1,0.3,3.2
					c2.4-0.3,4.6-0.8,6.6-1.5C551.6,265.9,551.6,265.2,551.4,264.4z"/>
			</g>
			<path class="st12" d="M529,264v4.1l7.6,0.5v-4.4L529,264z M535.3,267.8l-5-0.3v-2.7l5,0.1V267.8z"/>
			<g>
				<path class="st10" d="M518.8,375.1c0,0-3.2,4-8,5.5c-4.8,1.4-11.3,4.3-11,7.1c0,0,9.3,2.4,21-1.4v1.2l7.7-0.3v-9.9l-6.4,0.4
					l0.5-1L518.8,375.1z"/>
				<path class="st21" d="M514.1,386.8c-8.8,2.2-13.7,0.2-14.3,0c-0.1,0.2-0.1,0.5-0.1,0.7c0,0,9.3,2.4,21-1.4v1.2l7.7-0.3v-2
					C525.8,385.2,521.1,385.1,514.1,386.8z"/>
				<path class="st22" d="M516.4,377.5c0,0,1.9,0.7,3.5,3.1"/>
				<path class="st22" d="M514.6,378.2c0,0,1.9,0.7,3.5,3.1"/>
				<path class="st22" d="M512.8,379c0,0,1.9,0.7,3.5,3.1"/>
			</g>
			<g>
				<path class="st10" d="M562.3,377c0,0,3.2,4,8,5.5c4.8,1.4,11.3,4.3,11,7.1c0,0-9.3,2.4-21-1.4v1.2l-7.7-0.3v-9.9l6.4,0.4l-0.5-1
					L562.3,377z"/>
				<path class="st21" d="M567,388.8c8.8,2.2,13.7,0.2,14.3,0c0.1,0.2,0.1,0.5,0.1,0.7c0,0-9.3,2.4-21-1.4v1.2l-7.7-0.3v-2
					C555.4,387.2,560.1,387,567,388.8z"/>
				<path class="st22" d="M564.8,379.4c0,0-1.9,0.7-3.5,3.1"/>
				<path class="st22" d="M566.5,380.2c0,0-1.9,0.7-3.5,3.1"/>
				<path class="st22" d="M568.3,380.9c0,0-1.9,0.7-3.5,3.1"/>
			</g>
			<polygon class="st23" points="537.4,200.3 539.5,193.7 543.6,195.8 			"/>
			<polygon class="st23" points="537.1,194.2 537.4,200.3 534.2,195.9 			"/>
			<polygon class="st24" points="527.9,193.5 532.6,200.6 537.1,194.2 530.6,189.5 			"/>
			<polygon class="st24" points="549.5,193.4 542.8,200.6 539.5,193.7 547.1,189.2 			"/>
			<path class="st25" d="M540.7,196.1c0,0-2.1,0.4-4.8,0l-1.3,1.9l1.3,3.8l-9.1,46.1l4.9,6.2l6.5-5.1l1.1-46.7l2.2-4.6L540.7,196.1z
				"/>
			<path class="st24" d="M542.7,215.3l17,1.3c0,0-0.8,15.3-10.2,14.2C538,229.6,542.7,215.3,542.7,215.3z"/>
			<path class="st25" d="M555.5,216.3c0,0,0.5-7.1,1.6-7.2s0.4,12.6-0.8,12.8c0,0-0.2-1.9,0.3-5.5L555.5,216.3z"/>
			<g>
				<defs>
					<path id="SVGID_1_" d="M540.7,196.1c0,0-2.1,0.4-4.8,0l-1.3,1.9l1.3,3.8l-9.1,46.1l4.9,6.2l6.5-5.1l1.1-46.7l2.2-4.6
						L540.7,196.1z"/>
				</defs>
				<clipPath id="SVGID_2_">
					<use xlink:href="#SVGID_1_"  style="overflow:visible;"/>
				</clipPath>
				<g class="st26">
					<g>
						<polygon class="st27" points="524.5,205.7 523.4,203.2 546.9,195.1 547.9,197.6 						"/>
					</g>
					<g>
						<polygon class="st27" points="524.5,212.3 523.4,209.8 546.9,201.7 547.9,204.2 						"/>
					</g>
					<g>
						<polygon class="st27" points="524.5,218.9 523.4,216.4 546.9,208.3 547.9,210.8 						"/>
					</g>
					<g>
						<polygon class="st27" points="524.5,225.5 523.4,223 546.9,214.9 547.9,217.4 						"/>
					</g>
					<g>
						<polygon class="st27" points="524.5,232.2 523.4,229.6 546.9,221.5 547.9,224.1 						"/>
					</g>
					<g>
						<polygon class="st27" points="524.5,238.8 523.4,236.3 546.9,228.2 547.9,230.7 						"/>
					</g>
					<g>
						<polygon class="st27" points="524.5,245.4 523.4,242.9 546.9,234.8 547.9,237.3 						"/>
					</g>
					<g>
						<polygon class="st27" points="524.5,252 523.4,249.5 546.9,241.4 547.9,243.9 						"/>
					</g>
				</g>
			</g>
			<polygon class="st24" points="564.7,245.7 577.7,242 578.7,248.7 566.6,253 			"/>
			<path class="st24" d="M493.2,216.6l3.3,5.2c0,0-4.9,10.5-8.7,12.9l-3.8-9L493.2,216.6z"/>
		</g>
		<g>
			<g>
				<g>
					<path class="st28" d="M500.7,153c-20.3,4.5-30.6-5.2-32-6.6c0,0,0-0.1-0.1-0.1c-0.1-0.1-0.1,0.1-0.1,0.1
						c-1.4,1.4-11.7,11.1-32,6.6c0,0-3.1,37.4,8.7,52.7c12.6,16.3,23.3,21.2,23.3,21.2c0.1,0,10.8-4.8,23.3-21.2
						C503.7,190.3,500.7,153,500.7,153z"/>
					<path class="st29" d="M497.7,156.8c-18.4,4-27.7-4.6-29-5.9c0,0,0-0.1-0.1-0.1c0-0.1-0.1,0.1-0.1,0.1c-1.3,1.3-10.6,9.9-29,5.9
						c0,0-2.8,33.3,7.9,46.9c11.5,14.5,21.1,19.8,21.2,19.8c0,0,9.8-5.2,21.2-19.8C500.5,190.1,497.7,156.8,497.7,156.8z"/>
				</g>
			</g>
			<g>
				<path class="st8" d="M477.2,176l0,1.3c0,0.6,0.6,1,1.2,1l1.3,0c0.7,0,1.2-0.5,1.2-1l0-1.3c-0.1,0-0.2,0-0.3,0L477.2,176z"/>
				<path class="st8" d="M456.5,176.2l0,1.5c0,0.6,0.6,1,1.2,1l1.3,0c0.7,0,1.2-0.5,1.2-1l0-1.5l-3.5,0
					C456.6,176.3,456.6,176.3,456.5,176.2z"/>
				<path class="st8" d="M480.3,167.2l1-0.4c0.3-0.1,0.4-0.4,0.4-0.6c-0.1-0.2-0.2-0.3-0.5-0.4l-1-0.2c-0.2,0-0.3,0-0.4,0.1
					l-0.6,0.3l-1.6-4.7c-0.3-0.9-1.2-1.5-2.3-1.5l-13.1,0.2c-1,0-1.9,0.6-2.2,1.5l-1.8,4.9c0,0,0,0,0,0l-0.8-0.3
					c-0.1-0.1-0.3-0.1-0.4,0l-1,0.2c-0.2,0.1-0.4,0.2-0.5,0.4c-0.1,0.3,0.1,0.5,0.4,0.6l1,0.4c0.1,0,0.2,0,0.3,0l0.4,0l-1.9,3
					c-0.1,0.1-0.1,0.3-0.1,0.4l0,3.6c0,0.5,0.4,0.8,0.9,0.9c0.1,0,0.1,0,0.2,0l3.5,0l17-0.2l3.4,0c0.1,0,0.2,0,0.3,0
					c0.5-0.1,0.8-0.5,0.8-0.9l0-3.5c0-0.1,0-0.3-0.1-0.4l-1.8-3.3l0.2,0C480.1,167.3,480.2,167.2,480.3,167.2z M458.6,173.5
					c-0.9,0-1.7-0.6-1.7-1.3c0-0.8,0.7-1.4,1.6-1.4c0.9,0,1.7,0.6,1.7,1.3C460.2,172.9,459.5,173.5,458.6,173.5z M475.7,166.8
					l-14.2,0.3c-0.7,0-1.3-0.5-1-1.1l1.6-3.7c0.1-0.3,0.6-0.6,1-0.6l11.1-0.2c0.5,0,0.9,0.2,1,0.6l1.4,3.7
					C477,166.2,476.4,166.7,475.7,166.8z M480.1,171.4c0,0.8-0.7,1.4-1.6,1.4c-0.9,0-1.7-0.6-1.7-1.3c0-0.8,0.7-1.4,1.6-1.4
					C479.4,170,480.1,170.6,480.1,171.4z"/>
			</g>
			<g>
				<path class="st30" d="M473,185.4h-1.2c0,0-0.5,0.6-0.9,0.8c-0.4,0.2,0.1,0.8,0.1,0.8l0.7,1.3l1.4-0.7l-0.1-0.3l0.9-0.2
					L473,185.4z"/>
				<path class="st31" d="M473,185.4c0,0,0.7,0,1,0.6c0.3,0.6-0.2,1.1-0.2,1.1L473,185.4z"/>
				<path class="st30" d="M471,187l0.7,1.3l1.4-0.7l-0.1-0.3l0.9-0.2l-1-0.3c0,0-0.9-0.9-1.9-0.6C470.5,186.4,471,187,471,187z"/>
				<g>
					<path class="st32" d="M472.5,185.8C472.5,185.8,472.4,185.8,472.5,185.8l-0.2-1.5c0,0,0-0.1,0.1-0.1c0,0,0.1,0,0.1,0.1
						L472.5,185.8C472.6,185.8,472.6,185.8,472.5,185.8C472.5,185.8,472.5,185.8,472.5,185.8z"/>
				</g>
				<path class="st33" d="M472.3,183c0-0.1-0.1,0-0.2,0c-0.1,0.3-0.4,1.2-0.3,1.4c0,0.1,0.1,0.1,0.2,0.1c0.2-0.1,0.7-0.3,0.8-0.6
					C472.8,183.6,472.5,183.2,472.3,183z"/>
				<path class="st33" d="M472.6,183.4c0.1,0.1,0.1,0.3,0.1,0.4c-0.1,0.3-0.5,0.5-0.8,0.6c0,0,0,0-0.1,0c0,0,0,0.1,0,0.1
					c0,0.1,0.1,0.1,0.2,0.1c0.2-0.1,0.7-0.3,0.8-0.6C472.8,183.8,472.7,183.5,472.6,183.4z"/>
				<polygon class="st34" points="470.1,196.2 470.1,196.4 472.3,196.5 472.3,196.3 				"/>
				<path class="st8" d="M470.2,195.7L470.2,195.7l-0.1,0.5l0.6,0C470.7,195.7,470.2,195.7,470.2,195.7z"/>
				<path class="st35" d="M463.9,191.3c2.2,0.3,3.7,1.4,3.7,1.4s0.5,0.3,0.9-0.2c0.4-0.5,0.4-0.8,0.4-1c0-0.2-0.5-1.2-1.4-1.5
					c-0.4-0.1-1,0-1.4,0c-0.4,0-2.2-0.2-2.9-0.5c-0.5-0.2-2.5-0.3-3.4-0.3c-0.3,0-0.5,0.2-0.7,0.4l-0.1,0.1l0.5,1
					C459.6,190.7,461.7,191,463.9,191.3z"/>
				<path class="st36" d="M468.9,191.5C468.9,191.5,468.9,191.5,468.9,191.5C468.9,191.5,468.9,191.5,468.9,191.5
					C468.9,191.5,468.9,191.5,468.9,191.5C468.9,191.5,468.9,191.5,468.9,191.5C468.9,191.5,468.9,191.4,468.9,191.5
					c0-0.1,0-0.1,0-0.1c0,0,0,0,0,0c0,0,0,0,0,0c0,0,0,0,0,0c-0.1-0.3-0.6-1.1-1.4-1.3l0,0l0,0c-0.2,0-0.4-0.1-0.6-0.1
					c0,0-0.1,0-0.1,0c-0.1,0-0.1,0-0.2,0c-0.2,0-0.4,0-0.5,0l0,0c0,0,0,0,0,0c0,0,0,0,0,0c0,0,0,0,0,0c0,0,0,0,0,0c0,0,0,0,0,0
					c0,0,0,0,0,0c0,0,0,0,0,0c0,0,0,0,0,0c0,0,0,0-0.1,0c0,0,0,0,0,0c0,0,0,0-0.1,0c0,0,0,0,0,0c0,0,0,0-0.1,0c0,0,0,0,0,0
					c0,0-0.1,0-0.1,0c0,0,0,0,0,0c-0.3,0-0.6-0.1-0.9-0.1l0,0c-0.5-0.1-1.1-0.2-1.4-0.3c0,0,0.6,0.6,1.5,0.7l0,0c0,0,2,0.4,2.8,0.4
					c0.9,0,1.1,0.6,1.1,0.9c0,0.1-0.1,0.2-0.2,0.3c-0.4,0.5-0.9,0.2-0.9,0.2s-1.6-1-3.8-1.3c-2-0.2-3.9-0.4-4.3-0.4l0.1,0.3
					c0,0,2.2,0.2,4.4,0.5c2.2,0.3,3.7,1.4,3.7,1.4s0.5,0.3,0.9-0.2c0.2-0.2,0.3-0.4,0.3-0.6l0,0l0,0
					C468.9,191.8,468.9,191.6,468.9,191.5z"/>
				<ellipse class="st37" cx="477.2" cy="197.7" rx="3" ry="3"/>
				<ellipse class="st38" cx="477.2" cy="197.7" rx="2.2" ry="2.2"/>
				<ellipse class="st39" cx="477.2" cy="197.7" rx="1.7" ry="1.7"/>
				<ellipse class="st40" cx="477.2" cy="197.7" rx="1" ry="1"/>
				<path class="st41" d="M465.9,197.8c-0.6-0.1-1.1-1.3-1.1-1.3s-2.5-0.7-4.8-1.3l0.1,2.7c0,0,3.2,1.1,3.3,1.1c0,0,1.1-0.1,1.6-0.4
					s0.9-0.1,0.9-0.1c0.3,0.1,1,0.1,1,0.1C466.5,198.6,465.9,197.8,465.9,197.8z"/>
				<ellipse class="st37" cx="459.5" cy="197.7" rx="3" ry="3"/>
				<ellipse class="st38" cx="459.5" cy="197.7" rx="2.2" ry="2.2"/>
				<ellipse class="st39" cx="459.5" cy="197.7" rx="1.7" ry="1.7"/>
				<ellipse class="st40" cx="459.5" cy="197.7" rx="1" ry="1"/>
				<path class="st39" d="M463,196.1c0,0-0.9,0.9-0.3,1.8c0.5,0.7,1.6,0.5,1.8,0.2c0,0,0.3,0,0.4,0.2c0.1,0.2,0.3-0.2,0.2-0.4
					c-0.1-0.1-0.3-0.7-0.3-0.7h-0.2c0,0-0.1-0.6-0.6-0.7l0-0.1L463,196.1z"/>
				<path class="st42" d="M465.9,198.2c0,0-0.1,0.6-0.6,0.6c-0.5,0.1-2.1,0.1-2.1,0.1s-0.9,0-1.1,0.1c-0.2,0.1-1,0.2-1.4,0
					s-2.8-0.9-3-1.1c-0.1-0.2-0.4-0.5-0.3-0.7c0-0.2-0.3-0.3-0.3-0.3l0.1-0.3c0,0,0.2,0,0.3-0.1c0.1-0.1,0.3-0.7,1.2-0.4
					c0.9,0.2,2.8,0.9,3.2,1.1c0.3,0.3,0.4,0.4,0.5,0.6c0.1,0.2,0.6,0.8,1.1,0.8c0.5,0,1.6-0.1,1.7-0.1s0.5-0.2,0.5-0.5
					C465.6,198.2,465.7,198.1,465.9,198.2z"/>
				<ellipse class="st33" cx="463.7" cy="197.3" rx="0.6" ry="0.6"/>
				<path class="st30" d="M476.6,192.6c-0.1-0.3-0.9-2.2-2.6-4c-0.3-0.4-0.7-0.8-0.9-1c-0.1-0.1-0.2-0.1-0.2,0
					c-0.1,0-0.1,0.1-0.1,0.1c-0.1,0-0.9,0.4-1.1,0.5c0,0-0.1,0.1-0.1,0.2c0.1,0.2,1,2.4,1.1,2.8c0.1,0.4,0.4,1.5-0.1,2.6
					c-0.5,1.2-0.5,1.5-1.3,1.8c-0.5,0.2-1.2,0.1-1.8,0c-0.6-0.1-1.4-0.2-1.8-0.7c-0.3-0.3-0.5-0.6-0.5-1.1c0-0.5,0.2-0.9,0.5-1.3
					c0,0-1.5-1.1-3.7-1.4c-2.2-0.3-4.4-0.5-4.4-0.5s-2.8,2.4-3.2,2.9c-0.2,0.2-0.2,0.3,0.1,0.6c0.3,0.2,8.2,2.3,8.2,2.3
					s0.5,1.1,1.1,1.3c0,0,0.6,0.8,0.9,0.8s1.9-0.4,2.1-0.4c0.3,0,2,0,2.5,0.1c0.5,0,1.3-0.4,1.7-0.9c0.5-0.5,1.9-2.6,2.2-3.4
					c0.2-0.6,0.8-1,1-1.1c0,0,0.1,0,0.1,0C476.5,192.9,476.7,192.8,476.6,192.6z"/>
				<g>
					<path class="st32" d="M472.1,185.8C472.1,185.8,472.1,185.7,472.1,185.8l-0.5-1.4c0,0,0-0.1,0-0.1c0,0,0.1,0,0.1,0L472.1,185.8
						C472.2,185.7,472.2,185.7,472.1,185.8C472.2,185.8,472.2,185.8,472.1,185.8z"/>
				</g>
				<path class="st43" d="M472.1,185.7l-0.2,0.1l-0.1,0.4c0,0,0.3,0.2,0.5,0.2l0.1-0.5l-0.2-0.2L472.1,185.7z"/>
				<path class="st31" d="M474.4,190.6c0-0.1,0-0.1,0.2-0.1c0.1,0.1,0.5,0.5,0.7,0.8c0.2,0.3,0.6,1,0.6,1.1s-0.5,0-0.5-0.1
					C475.3,192.3,474.4,190.7,474.4,190.6z"/>
				<path class="st30" d="M476.2,193L476.2,193l-0.5,0.4c-0.2,0.2-0.3,0.4-0.4,0.7c-0.2,0.6-1,1.9-1.6,2.7l0,0c0,0,0.8,0,1.3-0.6
					c0.5-0.6,1.7-1.6,3.5-1.1c0.6,0.2,1,0.1,1.2-0.1C479.6,194.8,478.6,192.9,476.2,193z"/>
				<path class="st44" d="M458.7,191.5l-0.8,0.1c-0.3,0-0.6,0.2-0.8,0.4l-0.8,0.7c-0.1,0.1-0.1,0.2-0.1,0.3l0,0
					c0,0.1,0.1,0.2,0.2,0.2l0.4,0L458.7,191.5z"/>
				<path class="st39" d="M457.7,196.8c0,0,0,0.6,0.2,0.8s1.8,0.8,2,0.9c0.2,0.1,0.3,0.2,0.3,0.3c0,0.1,0.5,0.3,1.2-0.1
					c0.6-0.5,0.7-0.7,0.6-0.8c-0.1-0.1-0.7-0.5-1.1-0.6c-0.4-0.1-1.7-0.6-2.5-0.7C458.2,196.5,457.7,196.4,457.7,196.8z"/>
				<path class="st45" d="M462,197.8C462,197.8,461.9,197.8,462,197.8c-0.2,0.1-0.3,0.2-0.6,0.4c-0.6,0.5-1.1,0.2-1.2,0.1
					c0-0.1-0.2-0.2-0.3-0.3c-0.2-0.1-1.8-0.7-2-0.9c-0.1-0.1-0.2-0.3-0.2-0.5c0,0,0,0.1,0,0.1c0,0,0,0.6,0.2,0.8s1.8,0.8,2,0.9
					c0.2,0.1,0.3,0.2,0.3,0.3c0,0.1,0.5,0.3,1.2-0.1C462,198.2,462.1,198,462,197.8z"/>
				<path class="st46" d="M456.5,194.2c0,0,0.2,0.2,0.2,0.3c0,0.1-0.2,0.4-0.2,0.4l-0.3,0.1l-0.9,1.6c0,0,0.3,0.2,0.7,0
					c0,0,0.1,0.1,0.4-0.4c0.3-0.4,0.5-0.7,0.5-0.7l0.8-0.4l1.1-0.2l0,0C457.6,194.6,456.7,194.3,456.5,194.2z"/>
				<path class="st31" d="M457.3,193.6c0,0,1.4-0.8,1.7-0.8c0.2-0.1-0.1-0.3-0.3-0.2c-0.2,0-1.3,0.7-1.5,0.8
					C456.9,193.6,457,193.7,457.3,193.6z"/>
				<path class="st33" d="M471.4,183c-0.1,0-0.1,0-0.1,0.1c0,0.3-0.1,1.2,0,1.4c0,0.1,0.1,0.1,0.2,0.1c0.2-0.1,0.6-0.4,0.6-0.7
					C472.1,183.5,471.6,183.2,471.4,183z"/>
				<path class="st33" d="M471.8,183.3c0.1,0.1,0.1,0.2,0.1,0.4c0,0.3-0.4,0.6-0.6,0.7c0,0,0,0-0.1,0c0,0,0,0.1,0,0.1
					c0,0.1,0.1,0.1,0.2,0.1c0.2-0.1,0.6-0.4,0.6-0.7C472.1,183.7,471.9,183.5,471.8,183.3z"/>
				<path class="st47" d="M470.7,197.5c0.5,0.1,1.2,0.1,1.7-0.3c0.5-0.4,1.4-1.5,1.9-2.4c0.5-0.9,0.8-2.1,0.8-2.3
					c0-0.2-0.9-1.8-1.1-2.3c-0.3-0.5-0.8-1.2-1-1.5c-0.2-0.4,0-0.7,0-0.9c0.1-0.1,0-0.2,0-0.2c0,0,0,0,0,0c-0.1,0-0.1,0.1-0.1,0.1
					c-0.1,0-0.9,0.4-1.1,0.5c0,0-0.1,0.1-0.1,0.2c0.1,0.2,1,2.4,1.1,2.8c0.1,0.4,0.4,1.5-0.1,2.6c-0.5,1.2-0.5,1.5-1.3,1.8
					c-0.5,0.2-1.2,0.1-1.8,0c-0.4-0.1-0.8-0.1-1.2-0.3c-1,0.4-2.7,0.3-2.7,0.3c-0.4,0.6-1.1,0.7-1.1,0.7l0,0l0.3,0.1l2.5,0.5
					C467.3,197,470.2,197.5,470.7,197.5z"/>
				<g>
					<path class="st48" d="M475,192.5c0-0.2-0.9-1.8-1.1-2.3c-0.3-0.5-0.8-1.2-1-1.5c-0.1-0.2-0.1-0.4-0.1-0.5l0,0l-0.2,0.1
						c-0.2,0.1-0.3,0.4-0.3,0.7c0.3,0.8,0.9,2.4,1,3.2c0.1,1.1-0.3,1.9-0.6,2.7c-0.3,0.7,0.5,1.5,0.5,1.5c0.4-0.5,0.8-1,1.1-1.5
						C474.7,193.9,475.1,192.7,475,192.5z"/>
					<polygon class="st48" points="472.8,188.1 472.8,188.1 472.8,188.1 					"/>
				</g>
				<path class="st30" d="M475.2,195.8c0.5-0.7,0.9-1.9,1.1-2.1c0.1-0.2,1-0.6,1-0.6c-0.3-0.1-0.7-0.1-1.2-0.1l0,0l-0.4,0.4
					c-0.2,0.2-0.3,0.4-0.4,0.7c-0.2,0.6-1,1.9-1.6,2.7l0,0c0,0,0.5,0,1-0.3c0.1-0.1,0.2-0.2,0.3-0.3
					C475.1,196,475.2,195.9,475.2,195.8z"/>
				<path class="st8" d="M477.8,193.5c0.1,0.1,0.3,0.1,0.4,0.2c0.1,0.1,0.3,0.1,0.4,0.2c0.1,0.1,0.2,0.2,0.3,0.3
					c0.1,0.1,0.2,0.2,0.3,0.4c0.1,0.1,0,0.2,0,0.2s-0.2,0-0.2,0c0,0,0,0,0,0l0,0c-0.1-0.1-0.1-0.2-0.2-0.3c-0.1-0.1-0.2-0.2-0.3-0.3
					c-0.1-0.1-0.2-0.2-0.3-0.3C478,193.7,477.9,193.6,477.8,193.5L477.8,193.5C477.7,193.5,477.7,193.5,477.8,193.5
					C477.7,193.5,477.7,193.5,477.8,193.5z"/>
				<path class="st8" d="M459.8,192.8c0.5-0.2,1.1-0.3,1.7-0.4c0.6-0.1,1.1-0.1,1.7,0c0.3,0,0.6,0.1,0.8,0.2
					c0.3,0.1,0.5,0.3,0.7,0.5c0.1,0.1,0.2,0.3,0.3,0.4c0.1,0.1,0.1,0.3,0.1,0.4c0.1,0.3,0,0.6,0,0.9c0,0.1-0.1,0.2-0.2,0.2
					c-0.1,0-0.2-0.1-0.2-0.2c0,0,0,0,0,0l0,0c0.1-0.3,0.1-0.5,0-0.8c0-0.3-0.1-0.5-0.3-0.7c-0.2-0.2-0.4-0.4-0.6-0.5
					c-0.2-0.1-0.5-0.2-0.8-0.3c-0.5-0.1-1.1-0.1-1.7-0.1C460.9,192.6,460.4,192.7,459.8,192.8C459.8,192.8,459.8,192.8,459.8,192.8
					C459.8,192.8,459.8,192.8,459.8,192.8z"/>
				<ellipse class="st49" cx="471.3" cy="186.7" rx="0.3" ry="0.3"/>
				<g>
					<circle class="st50" cx="472.4" cy="187.2" r="0.1"/>
					<path class="st50" d="M472.4,187.1c0,0-0.1-0.1-0.1-0.1c0,0,0.1,0,0.1-0.1s-0.1-0.1-0.2-0.1c-0.1,0-0.1,0.1-0.1,0.1
						c0,0.1,0,0.2,0.1,0.2c0.1,0.1,0.2,0.2,0.3,0.2L472.4,187.1z"/>
				</g>
				<path class="st51" d="M471.2,186.5c0,0-0.1,0-0.1,0l-0.5,0.2v0.5l0.7-0.2c0.1,0,0.3-0.1,0.3-0.3S471.4,186.5,471.2,186.5z"/>
				<path class="st30" d="M467.5,192.9c0-0.1,0.1-0.1,0.1-0.2c0,0-1.5-1.1-3.7-1.4c-2.2-0.3-4.4-0.5-4.4-0.5s-0.1,0.1-0.2,0.1
					c0.8,0.1,3.7,0.4,4.7,0.5C466.2,191.9,467.2,192.6,467.5,192.9z"/>
				<path class="st30" d="M459.5,192.4c0.1,0,0.2-0.1,0.3-0.1c0.1,0,0.2-0.1,0.3-0.1c0.2-0.1,0.4-0.1,0.5-0.2
					c0.4-0.1,0.7-0.2,1.1-0.3c0.4-0.1,0.8-0.1,1.2-0.1c0,0,0.1,0,0.1,0l0.1,0c0.1,0,0.2,0,0.3,0c0.2,0,0.4,0.1,0.6,0.1
					c0.1,0,0.2,0.1,0.3,0.1c0,0,0.1,0,0.1,0.1c0,0,0.1,0,0.1,0.1l0.1,0.1l0.1,0.1c0,0,0,0,0.1,0l0.1,0c0,0,0.1,0.1,0.1,0.1
					c0.2,0.1,0.3,0.3,0.4,0.5c0,0,0.1,0.1,0.1,0.1l0.1,0.1l0.1,0.1c0,0,0,0.1,0.1,0.1c0.2,0.4,0.2,0.8,0.2,1.2
					c0,0.2-0.1,0.4-0.1,0.6c-0.1,0.2-0.1,0.4-0.2,0.5c0.1-0.4,0.2-0.8,0.1-1.1c0-0.4-0.1-0.7-0.3-1c-0.2-0.3-0.4-0.6-0.7-0.8
					c0,0,0,0-0.1,0l-0.1,0l-0.1,0c0,0,0,0-0.1,0l-0.1-0.1l-0.1-0.1c0,0-0.1,0-0.1-0.1c0,0-0.1,0-0.1,0c-0.1,0-0.2-0.1-0.3-0.1
					c-0.3-0.1-0.7-0.1-1.1-0.1c-0.4,0-0.7,0-1.1,0c-0.4,0-0.8,0.1-1.1,0.1C460.2,192.3,459.8,192.3,459.5,192.4z"/>
				<path class="st52" d="M471.4,196.6l-0.3-0.3c0,0-0.1-0.1-0.1-0.1l-2.8-0.3c0,0-0.1,0-0.1,0c-0.6,0.3-1.7,0.2-2,0.2
					c-0.1,0-0.1,0-0.2,0.1c0,0,0,0,0,0c-0.1,0.1,0,0.3,0.1,0.3l5.1,0.8c0.1,0,0.2,0,0.2-0.2l0.1-0.4
					C471.5,196.7,471.5,196.6,471.4,196.6z"/>
				<g>
					<path class="st53" d="M456.9,193.3C456.9,193.3,456.8,193.3,456.9,193.3c-0.1-0.1-0.1-0.2-0.1-0.2l1.8-1.7c0,0,0.1,0,0.2,0
						c0,0,0,0.1,0,0.2L456.9,193.3C457,193.3,456.9,193.3,456.9,193.3z"/>
				</g>
				<circle class="st54" cx="470.5" cy="187" r="0.3"/>
				<ellipse class="st39" cx="461.8" cy="191.5" rx="0.4" ry="0.4"/>
				<circle class="st33" cx="461.8" cy="191.5" r="0.2"/>
				<ellipse class="st39" cx="458.1" cy="192.3" rx="0.4" ry="0.4"/>
				<circle class="st33" cx="458.1" cy="192.3" r="0.2"/>
				<path class="st33" d="M455.5,195.6c0,0,0.1-0.7-0.4-0.7s-0.4,0.5-0.4,0.5s-0.6-0.3-0.8,0.1c-0.2,0.4,0.3,0.7,0.5,0.7
					c-0.3,0-0.4,0.4-0.3,0.6c0.3,0.3,0.8-0.1,1-0.2l1.9,0.2L455.5,195.6z"/>
				<path class="st45" d="M454.6,196c-0.2,0-0.6-0.2-0.5-0.6c0,0,0.1-0.1,0.1-0.1c-0.1,0-0.3,0.1-0.3,0.2c-0.2,0.4,0.3,0.6,0.5,0.7
					C454.4,196.1,454.5,196,454.6,196z"/>
				<path class="st45" d="M456.7,196.5l-1.1-0.1c-0.2,0-0.3,0-0.5,0.1c-0.2,0.1-0.5,0.3-0.7,0.1c-0.1-0.1-0.1-0.3,0-0.4
					c-0.2,0-0.4,0.4-0.2,0.6c0.3,0.3,0.8-0.1,1-0.2l1.9,0.2L456.7,196.5z"/>
				<path class="st39" d="M456.9,196.4l-0.9-0.7c-0.1-0.1-0.2-0.3-0.2-0.4c0-0.1,0.1-0.2,0.2-0.2c0.3-0.1,0.4,0.3,0.3,0.5
					L456.9,196.4z"/>
				<path class="st39" d="M456.6,197l-1.1-0.1c-0.2,0-0.3,0-0.4,0.2c-0.1,0.1-0.1,0.2,0,0.3c0.2,0.3,0.5,0.1,0.5-0.1L456.6,197z"/>
				<path class="st43" d="M472.9,188c0.1-0.1,0.1-0.3,0.1-0.4c-0.1,0-0.1,0-0.2,0c0,0,0,0,0,0c0,0.1,0,0.2-0.1,0.3
					c-0.1,0.2-0.2,0.6,0.4,1.4c0.6,0.8,1.7,3.1,1.8,3.3c0,0.1-0.4,1.6-1.2,2.9c-0.5,0.7-0.9,1.2-1.2,1.4c-0.3,0.3-0.8,0.5-1.3,0.6
					c-0.4,0-0.8,0-1.2-0.1c-0.1,0-0.3-0.1-0.4-0.1c-0.1,0-0.2,0-0.2,0c-0.1,0-0.3,0-0.4-0.1c-0.5-0.1-1.1-0.2-1.6-0.2l0,0
					c-0.1,0-0.1,0-0.1,0.1c0,0.1,0,0.1,0.1,0.1l0,0c0.5,0.1,1.1,0.2,1.6,0.2c0.1,0,0.3,0,0.4,0.1c0.1,0,0.2,0,0.2,0
					c0.1,0,0.3,0,0.4,0.1c0.3,0.1,0.7,0.1,1,0.1c0.1,0,0.1,0,0.2,0c0.6,0,1.1-0.3,1.4-0.6c0.2-0.2,0.7-0.8,1.2-1.5l0,0
					c0.4-0.7,0.8-1.4,0.9-1.9c0.2-0.6,0.3-1,0.3-1.1c0-0.2-1.2-2.6-1.8-3.4C472.7,188.4,472.9,188.1,472.9,188z"/>
				<g>
					<path class="st30" d="M463.4,194.2C463.4,194.2,463.4,194.2,463.4,194.2l-2.9-0.7c-0.1,0-0.1-0.1-0.1-0.1
						c0-0.1,0.1-0.1,0.1-0.1l2.8,0.7c0.1,0,0.1,0.1,0.1,0.1C463.6,194.1,463.5,194.2,463.4,194.2z"/>
				</g>
				<g>
					<path class="st30" d="M463.8,194.8C463.8,194.8,463.7,194.8,463.8,194.8l-3.9-1c-0.1,0-0.1-0.1-0.1-0.1c0-0.1,0.1-0.1,0.1-0.1
						l3.9,1c0.1,0,0.1,0.1,0.1,0.1C463.9,194.8,463.8,194.8,463.8,194.8z"/>
				</g>
				<g>
					<path class="st30" d="M463,195.2C463,195.2,463,195.2,463,195.2l-2.9-0.7c-0.1,0-0.1-0.1-0.1-0.1s0.1-0.1,0.1-0.1l2.8,0.7
						c0.1,0,0.1,0.1,0.1,0.1C463.1,195.1,463.1,195.2,463,195.2z"/>
				</g>
			</g>
		</g>
	</g>
</g>
<g id="Layer_1">
	<g>
		<g>
			<g>
				<g>
					<path class="st55" d="M321.6,206.9c0.1,0,0.3,0,0.4,0c1.2,0.2,1.8,1,2.9,1.6c0.5,0.2,1.7-0.5,1.9,0.6c0.1,0.4,0.1,1.5,0.2,2.4
						c0.2,1.3,1.2,2.9,2.3,4c4.1,4.3,9.3,7.4,14.5,10.3c0.3,0.2,0.6,0.3,1,0.3c0.6,0,1.1-0.5,1.5-0.9c2-2,4.1-3.9,6.4-5.5
						c2.1-1.5,4.3-2.8,6.8-3.2c2.5-0.4,5.3,0.2,7,2c1.3,1.4,1.8,3.4,1.4,5.3c-1,4.6-7.8,5.7-11.5,7.2c-3.5,1.3-7.2,2.4-10.9,3.3
						c-0.5,0.1-0.9,0.2-1.4,0.1c-0.5-0.1-0.9-0.4-1.3-0.7c-5.3-3.7-10.2-7.8-15.1-12c-1.3-1.2-1.9-2.9-3.1-3.9
						c-0.8-0.7-1.9-0.6-2.8-1.1c-0.9-0.5-1.9-1.3-2.6-2.1c-1.3-1.5-0.8-3.5-0.6-5.3c0.1-0.4,0.1-0.7,0.3-1.1c0.4-0.6,1-0.7,1.6-1
						C320.9,207.1,321.3,207,321.6,206.9z"/>
				</g>
				<g>
					<path class="st56" d="M357.3,229.3c-2.4-3-4.7-5.9-7.1-8.9c0.2,0.2,12.8-11.5,13.6-12.2c3-2.6,6-5.2,9.8-6.3
						c8-2.3,14.9,6.3,10,13.4c-5.3,7.8-14,14.2-22.8,17.1c-0.2,0.1-0.4,0.1-0.6,0.1c-0.3-0.1-0.5-0.3-0.6-0.5
						C358.8,231.2,358,230.3,357.3,229.3z"/>
				</g>
			</g>
			<g>
				<g>
					<g>
						<g>
							<g>
								<g>
									<polygon class="st55" points="368.7,345.3 368.8,354.6 363.4,354.7 363.3,344.4 									"/>
								</g>
							</g>
							<g>
								<g>
									<path class="st57" d="M363.9,353.2l4.7,1.6l1.4,1.5l-0.2,3.7l-12.7,1l0,0c-1.1-1.6-0.4-3.8,1.4-4.4l0.6-0.2L363.9,353.2z"
										/>
								</g>
							</g>
						</g>
					</g>
					<g>
						<g>
							<g>
								<g>
									<g>
										<g>
											<polygon class="st55" points="407.5,336.4 411,345 406.1,347.1 402.1,337.6 											"/>
										</g>
									</g>
									<g>
										<g>
											<path class="st57" d="M406.2,347.3c0.2-0.2,0.4-0.4,0.6-0.6c0.6-0.4,5.4-3.1,5.8-1.9c0.1,0.2,0,0.4,0,0.6
												c-0.4,3.4-1.2,6.7-2.3,9.9c-0.5,1.4-1.2,2.9-2.6,3.2c-0.6,0.1-1.2,0-1.8-0.1c-0.9-0.2-1.8-0.5-2.6-0.8
												c-0.3-0.1-0.6-0.3-0.8-0.6c-0.3-0.6,0.2-1.3,0.8-1.6c0.6-0.3,1.3-0.6,1.6-1.2c0.1-0.3,0.1-0.6,0.2-0.9
												C405.2,351.1,404.8,348.9,406.2,347.3z"/>
										</g>
									</g>
								</g>
							</g>
							<g>
								<path class="st29" d="M373.7,302.1c1.8,8.3,6.8,14.2,12.2,20.3c6.2,7,12,14.3,17.4,21.9c2.3-1,4.7-2,7-3
									c-2-11.6-7.3-22.3-11.5-33.4c-2.9-7.7-5.2-15.8-5.4-24c-0.1-4.1,0.9-7.9,1.4-11.9c0.6-5,0.7-10,1.3-15
									c0.2-1.7,0.3-3.6-0.9-4.7c-0.6-0.5-1.3-0.7-2-0.8C366.5,246.2,370.3,286.3,373.7,302.1z"/>
							</g>
						</g>
					</g>
					<path class="st29" d="M395.3,258.6c0-5-0.6-9.9-1.5-13.6c-7.6-0.4-16.1,0.4-23.6,2c-7.3,1.5-11.9,3.2-11.9,11.3
						c-0.1,15-5.8,27.7-8.3,42.1c-1.4,8.4,1,15.8,3.8,23.6c3.1,8.9,5.8,17.9,8,27c2.5,0,5.1,0,7.6,0c2.5-11.5,1.5-23.5,1.7-35.3
						c0.1-8.2,1-16.6,3.9-24.3c3.2-8.5,7.9-5.1,13.2-10C393.4,276.5,395.3,267.3,395.3,258.6z"/>
				</g>
				<g>
					<path class="st56" d="M386.7,201c0.8,0.7,1.6,1.5,2.3,2.3c0.6,0.7,1.3,1.4,1.9,2.1c2.2,2.5,3.4,6.1,4.3,9.3
						c5.1,16.6,6.9,39.3,3.6,56.6c-12.5,1.1-27-2.1-39.4-3.9c-1.2-0.2-2.6-0.4-3.2-1.5c-0.4-0.7-0.4-1.5-0.4-2.2
						c0-11,2.3-22.8,4.4-33.6c0.9-4.6,2-9.1,3.4-13.5c1.5-4.7,3.2-9.8,6.7-13.3c3.7-3.8,10.9-5.7,15.6-2.7
						C386.2,200.7,386.5,200.8,386.7,201z"/>
				</g>
				<g>
					<g>
						<g>
							<path class="st55" d="M385.4,203.3c0.2-1.5,0.5-3,0.7-4.5c0.3-0.1,0.6-0.3,0.9-0.5c5.2-3.4,14-21.8,0.1-25.9
								c-12.6-3.7-12,14.1-9.5,21.5c0.4,1.3,1,2.5,1.8,3.5c0.6,0.7,0.7,0.6,0.6,1.4c-0.1,0.8-0.9,1.7-1,2.5
								c-0.2,0.9-0.1,1.9,0.4,2.7c0.3,0.5,0.8,0.8,1.3,1.1c0.8,0.4,1.7,0.7,2.5,0.5C384,205.5,385.2,204.4,385.4,203.3z"/>
						</g>
					</g>
					<g>
						<g>
							<g>
								<g>
									<path class="st28" d="M374.5,187.3c0.8,2.4,1.9,4.6,3.2,6.7c-0.1-4.4,0.4-8.8,1.5-13c0.1-0.3,0.2-0.7,0-1
										c-0.2-0.3-0.5-0.4-0.8-0.4C373.1,178.4,373.1,183.2,374.5,187.3z"/>
								</g>
							</g>
						</g>
						<g>
							<g>
								<g>
									<g>
										<path class="st28" d="M388.4,193.9c0.9,1.2,2.7,0.9,4,0.2c5.4-2.8,8.6-9.5,7.4-15.6c-1-5.1-7.3-8.9-8.5-2.6
											c-0.4,2.2,0.9,5.3,0.6,7.8C391.5,187.3,389.9,190.7,388.4,193.9z"/>
									</g>
								</g>
							</g>
							<g>
								<g>
									<g>
										<path class="st28" d="M374.5,167.8c-0.6,0.2-1.2,0.5-1.9,0.8c-1.3,0.5-2.3,0.7-3.7-0.1c-0.4-0.2-3-2.8-2.4-3.3
											c-4.2,3.5-0.8,8.7,0.8,12.4c1.1,2.5,1.3,6,3.7,7.6c2.6,1.8,4.5-0.5,6.9-1.5c2.1-0.9,4.4-1.4,6.6-2.2
											c3.6-1.3,8.9-3.6,7.7-8.5c-1.4-5.7-7-7.1-12.1-6.7C378,166.5,376.3,167.1,374.5,167.8z"/>
									</g>
								</g>
							</g>
						</g>
					</g>
				</g>
			</g>
			<g>
				<g>
					<g>
						<path class="st58" d="M390.2,264.3c-0.1-0.1-0.2-0.2-0.3-0.3c-0.6-1.1-0.2-2.1-0.4-3.3c-0.1-0.6-1.4-1.1-0.6-1.9
							c0.3-0.3,1.2-0.9,1.9-1.5c1-0.9,1.7-2.7,2-4.2c0.6-2.8-1.1-11,2.3-12.4c8.1-3.3,2.4,13.5,2.2,15.1c-0.1,1,0.6,1.9,0.7,2.9
							c0.1,1,0,2.3-0.2,3.3c-0.5,1.9-2.4,2.7-4,3.5c-0.4,0.2-0.7,0.3-1.1,0.3c-0.7,0-1.2-0.4-1.7-0.8
							C390.7,264.9,390.4,264.6,390.2,264.3z"/>
					</g>
				</g>
				<path class="st56" d="M390.7,203.9c0.3,0.4,0.7,0.9,1.3,1.6c3,3.4,4.8,8.9,6.3,13.1c3.1,8.9,4.2,18.6,3.1,27.9
					c0,0.3-0.1,0.7-0.4,0.9c-0.3,0.2-0.6,0.2-1,0.2c-2.1-0.1-4.3-0.3-6.4-0.4c-0.5,0-0.9-0.1-1.3-0.3c-0.7-0.5-0.8-1.6-0.8-2.5
					c0.1-5.9-0.6-11.8-2.1-17.5c-0.7-2.7-2.5-5.9-2.7-8.6c-0.2-2.4,0.9-5.2,0.7-7.9c-0.1-1.6-0.2-4,0.7-5.4
					C389.5,203.2,390,203.2,390.7,203.9z"/>
			</g>
		</g>
		<g>
			<g>
				<path class="st28" d="M385.2,367.2l-10.8-3c-2.7-0.7-4.3-3.5-3.5-6.2l7-25.6l20.6,5.7l-7,25.6
					C390.7,366.3,388,367.9,385.2,367.2z"/>
				<path class="st28" d="M272.5,336.1l-13.6-3.7c-1.9-0.5-3.1-2.5-2.5-4.5l7.4-27l20.6,5.7l-7.4,27
					C276.4,335.5,274.4,336.6,272.5,336.1z"/>
				<path class="st28" d="M393.2,240.8l-72.4-20c-5.5-1.5-11.5,0.9-14.9,6l-22.5,34.4l0,0l-18.5,19.2c-0.7,0.8-1.3,1.7-1.6,2.7
					l-6.6,24.1c-0.9,3.4,1,6.9,4.4,7.9l131.6,37.6c3.4,1,7-1,7.9-4.5L407,325c0.2-0.8,0.3-1.7,0.2-2.6l-3.9-28.2l-0.4-0.1l0-40
					C402.9,247.9,398.9,242.4,393.2,240.8z"/>
				<path class="st29" d="M381.8,288.4l-78.3-21.6c-4.1-1.1-5.8-6.2-3.3-10l16.9-25.5c1.5-2.3,4.2-3.4,6.8-2.7l61.3,16.9
					c2.6,0.7,4.4,3.2,4.4,6.1l0.1,30.2C389.8,286.2,385.8,289.5,381.8,288.4z"/>
				<g class="st59">
					<path class="st60" d="M389.6,275c-4.7-4.6-9.6-9-14.4-13.5c-6-5.6-11.9-11.3-18-17c-3.2-2.9-6.3-5.9-9.4-8.9l-24.1-6.6
						c-1-0.3-2.1-0.3-3.1,0c0,0,0.1,0.1,0.1,0.1c3.1,3.1,6.2,6.1,9.4,9.1c5.6,5.4,11.1,10.9,16.4,16.6c5.3,5.7,10.3,11.6,15.7,17.2
						c5,5.3,10.2,10.4,15.2,15.6l4.3,1.2c4,1.1,7.9-2.2,7.9-6.6L389.6,275z"/>
					<path class="st60" d="M356.3,271.5c-5.5-5.8-10.6-11.9-16.1-17.7c-5.5-5.7-11.1-11.2-16.8-16.7c-2-2-4-3.9-6-5.9
						c-0.1,0.2-0.3,0.3-0.4,0.5l-7.8,11.8c1.5,1.7,3.1,3.3,4.6,5c9,10,17.9,20,27.6,29.2l28.5,7.9
						C365.4,281,360.8,276.3,356.3,271.5z"/>
				</g>
				<path class="st28" d="M401.9,287.9l4.8-1c0.9-0.2,1.8,0,2.5,0.4l4.9,2.7c1.2,0.7,2,2,1.9,3.4l0,0c0,1.8-1.4,3.3-3.2,3.6
					l-6.4,0.9c-0.6,0.1-1.2,0-1.7-0.2l-3.3-1.1c-1.6-0.5-2.6-2-2.5-3.6l0-1.6C399,289.7,400.2,288.2,401.9,287.9z"/>
				<path class="st61" d="M286.6,256.1l-3.6-3.3c-0.7-0.6-1.5-0.9-2.4-1l-5.6-0.2c-1.4,0-2.7,0.7-3.4,1.9l0,0
					c-0.9,1.6-0.5,3.6,0.9,4.7l5,4.1c0.5,0.4,1,0.6,1.6,0.8l3.4,0.7c1.6,0.3,3.2-0.4,4.1-1.8l0.8-1.4
					C288.2,259.2,287.9,257.3,286.6,256.1z"/>
				<path class="st62" d="M404.6,333.7l-4,14.6c-0.9,3.4-4.5,5.4-7.9,4.5l-131.6-37.6c-3.4-1-5.4-4.5-4.4-7.9l4-12.8L404.6,333.7z"
					/>
				<polygon class="st63" points="260,314.7 280.5,320.7 278.7,327.1 259.3,317.1 				"/>
				<polygon class="st63" points="373.8,347.5 394.3,353.5 392.5,359.9 373.2,349.9 				"/>
				<g>
					<g>
						
							<ellipse transform="matrix(0.2655 -0.9641 0.9641 0.2655 -25.8176 611.4899)" class="st64" cx="388.4" cy="322.7" rx="9.4" ry="9.4"/>
					</g>
					<path class="st63" d="M390.7,329.1c1.8-0.3,3.5-1.1,4.7-2.5c-0.4,1.7-1.7,3.2-3.3,3.8c-0.6,0.2-1.1,0.3-1.7,0.4
						c-0.6,0.1-1.2,0.2-1.9,0.2c-1.7-0.1-3.3-1-4.3-2.4c0.3,0.4,2.2,0.6,2.7,0.6C388.2,329.3,389.5,329.3,390.7,329.1z"/>
				</g>
				<g>
					<g>
						
							<ellipse transform="matrix(0.2655 -0.9641 0.9641 0.2655 -80.2939 484.5413)" class="st64" cx="277.9" cy="295" rx="9.4" ry="9.4"/>
					</g>
					<path class="st63" d="M280.2,301.3c1.8-0.3,3.5-1.1,4.7-2.5c-0.4,1.7-1.7,3.2-3.3,3.8c-0.6,0.2-1.1,0.3-1.7,0.4
						c-0.6,0.1-1.2,0.2-1.9,0.2c-1.7-0.1-3.3-1-4.3-2.4c0.3,0.4,2.2,0.6,2.7,0.6C277.6,301.6,278.9,301.6,280.2,301.3z"/>
				</g>
			</g>
		</g>
		<polygon id="XMLID_200_" class="st65" points="322.8,135.3 309.9,173.7 324.9,174.5 323.6,208.1 339.3,168 322.5,164.9 		"/>
		<polygon id="XMLID_199_" class="st65" points="363.6,175.3 342.4,189.8 345.8,195.9 329.8,212.4 352.5,198 349.7,190.2 		"/>
	</g>
</g>
<g id="man2">
	<g>
		<g>
			<polygon class="st66" points="207.4,185 209.2,179.7 208,176.4 205,176.1 204.4,179.8 203.7,179.2 202.4,179.6 203.4,183 
				203.8,185.1 			"/>
			<path class="st8" d="M184.4,214c1-0.5,2-1.1,3-1.6c3-1.4,5.9-2.9,8.8-4.4c1.8-0.9,3.6-2,4.8-3.6c0.7-0.9,1.1-2,1.5-3
				c2.2-5.6,4-11.3,5.5-17.1c-1.2-0.6-4.5-2.2-5.6-1.1c-0.4,0.4-0.6,0.9-0.8,1.4c-1,2.3-2,4.6-3,7c-1.1,2.6-2.3,5.2-3.9,7.5
				c-0.2,0.3-0.4,0.6-0.8,0.8c-0.3,0.2-0.7,0.3-1.1,0.3c-5.9,0.9-9.4-1.3-15.3,0.1c-1.3,0.3-4.9,4.3-5.8,5.4c-0.6,0.8-0.8,1.9-0.8,3
				c-0.1,1.4,0,2.9,0.6,4.1c0.7,1.4,2.2,2.4,3.8,2.8c1.6,0.4,3.2,0.3,4.8,0.1C181.7,215.4,183.1,214.8,184.4,214z"/>
		</g>
		<g>
			<g>
				<polygon class="st67" points="197.1,240.4 195.4,243.7 200.6,247.1 203.9,245.1 204,241.8 201.1,241.9 201.4,241.3 202.3,241 
					202,240 				"/>
			</g>
			<g>
				<g>
					<path class="st68" d="M165.9,202.3c0.7-1,1.6-1.9,2.7-2.5c0.6-0.3,1.2-0.5,1.9-0.5c0.7,0,1.4,0.2,2,0.5c7.9,4,8.3,17,8.4,24.6
						c0,4.9,6.8,7.6,10.4,10.1c1.7,1.2,7.1,3.9,7.1,5.8c0,0.4-2.1,4.5-2,4.5c-4.6-1.8-9.3-3.6-13.9-5.4c-3.4-1.3-7-2.1-10.4-3.5
						c-1.3-0.6-2.6-1.2-3.4-2.4c-0.6-0.9-0.9-2-1.1-3c-1.2-5.3-2.2-10.5-2.8-15.9c-0.3-2.7-0.7-5.4-0.2-8.1
						C164.6,205,165.1,203.5,165.9,202.3z"/>
				</g>
			</g>
		</g>
		<g>
			<path class="st8" d="M158.9,199c-0.1,0-0.1,0-0.2,0c-1.8,0.2-3.6,0.8-4.8,2.1c-0.6,0.7-1.1,1.4-1.5,2.2c-1.1,2.2-1.9,4.4-2.8,6.7
				c-2.5,6.6-4.5,13.4-5.9,20.3c-0.7,3.3-4.9,41.2-2.4,41.1c15.1-1,30.2-1.5,45.3-1.5c1-19.6,1.9-39.9-5-58.3
				c-1.1-2.9-2.4-5.7-4.4-8C172.7,198.6,165,198.4,158.9,199z"/>
			<g>
				<g>
					<g id="XMLID_4_">
						<polygon class="st28" points="169.4,346.4 169.4,349 176.1,352.3 179.4,349 176.1,345.7 175.7,345.7 175.5,346.4 						"/>
					</g>
					<g id="XMLID_3_">
						<polygon class="st28" points="153,345.7 152.6,345.7 149.2,349 152.6,352.3 159.2,349 159.2,346.4 153.1,346.4 						"/>
					</g>
					<g>
						<g>
							<path class="st69" d="M183.3,267.1c-3.8-1.1-7.8-2.8-11.7-2.8c-0.4,0-0.8,0-1.2,0c-0.3,0-0.7,0.1-1.1,0.1
								c-2.6,0.2-5.6,0.5-8.7,0.9c-0.2,0-0.3,0-0.5,0.1c-3.9,0.9-6.5,1.2-8.2,1.3c-1.6,0.4-3.2,1-4.6,1.7c-0.7,0.4-1.4,0.7-2.1,1.2
								l0,4.3l7.5,72.7h6.2v0.7h0l6.8-48.8l0-0.3l3.7,49h0v-0.7h6.2l7.8-54.6L183.3,267.1z"/>
						</g>
					</g>
				</g>
				<g>
					<g>
						<path class="st28" d="M170.7,179.8c0.8,1.6,1.1,3.4,1.1,5.2c0,0.5,0,1,0.4,1.3c0.4,0.3,0,1,0.3,0.6c0.3-0.4,1.4-1.7,1.5-2.2
							c0.2-1.2,0.2-2.4,0.2-3.6c0-1-0.2-2.1-0.8-2.9c-0.4-0.5-0.9-0.8-1.4-1.2c-0.7-0.5-1.5-1-2.3-1.2c-1.5-0.4-2.4,0.1-1.1,1.3
							C169.4,177.8,170.1,178.7,170.7,179.8z"/>
					</g>
					<g>
						<g>
							<path class="st66" d="M160.5,199.5c2,0.3,4,0.6,6.1,0.9c0.4-1.8,0.7-3.6,0.8-5.4c1.8-0.2,3.9-0.7,4.6-2.5
								c0.2-0.6,0.3-1.2,0.3-1.9c0.2-2.6,0.3-5.2,0.5-7.8c0.1-0.9,0.1-1.8-0.2-2.7c-0.5-1.5-1.8-2.4-3.1-3.1
								c-3.3-1.6-7.3-1.7-10.5,0.1c-0.9,0.5-1.7,1.1-2.2,2c-0.8,1.4-0.8,3.2-0.8,4.8c0,1.5,0.1,3.1,0.1,4.6c0,1.8,0.2,3.8,1.5,4.8
								c0.7,0.5,1.6,0.7,2.2,1.3C160.7,195.9,160.1,197.9,160.5,199.5z"/>
						</g>
					</g>
					<g>
						<path class="st28" d="M172.9,189.6c0-0.5-0.1-1.9-0.9-1.1c-0.2,0.2-0.3,0.6-0.3,0.9c0,0.3,0,0.6-0.1,0.9
							c-0.3,0.7-1,0.9-1.7,0.9c-0.3,0-0.5-0.1-0.7-0.2c-0.2-0.1-0.4-0.4-0.5-0.6c-0.4-0.5-0.8-1-1.2-1.5c-0.7-0.9-2.1-0.6-3.1-0.5
							c-1.1,0.1-2.3,0.4-3.2,1.1c-0.1,0.1-0.2,0.1-0.3,0.2c-0.2,0.2-0.5,0.4-0.7,0.5c-0.9,0.4-1.9-0.1-2.5-0.9
							c-0.3-0.4-0.5-0.9-0.9-0.9c-0.3-0.1-0.7,0.2-0.9,0.5c-0.2,0.3-0.3,0.7-0.3,1.1c-0.2,1.3,0,2.7,0.5,4c1.1,2.7,3.5,3.1,5.9,3.2
							c1,0,1.9,0.1,2.9,0.1c1.8,0,3.6,0.1,5.1-0.9c1.3-0.8,2.2-2.4,2.6-4C172.8,191.3,172.9,190.4,172.9,189.6z M166.3,192.9
							c-1,0.6-2,0.6-3,0.2c-0.4-0.2-0.2-0.9,0.2-0.7c0.8,0.3,1.6,0.3,2.4-0.1C166.4,192,166.7,192.7,166.3,192.9z"/>
					</g>
					<g>
						<path class="st28" d="M174,175.4c0.2-0.6,0.4-1.3,0.5-1.9c-0.6,0.2-1.3,0.2-1.9,0.1c0-0.4,0-0.8,0.1-1.1
							c0-0.3-4.1-0.7-4.5-0.8c-3.2-0.4-6-0.8-9,0.7c-2.5,1.3-4.2,3.5-4.7,6.3c-0.5,2.7,0.2,6.3,1.6,8.7c0-0.7-0.3-2.5-0.1-3.2
							c0.1-0.7,0.4-1.3,0.8-1.9c0.7-1.2,1.8-2.2,3-2.9c1.9-1.1,4.1-1.6,6.3-1.8c2-0.2,4.4-0.3,6.3,0.3c0.9,0.3,1.1,0.6,1.7-0.4
							c0.1-0.2,1-2.1,0.9-2.1C174.7,175.5,174.3,175.4,174,175.4z"/>
					</g>
				</g>
			</g>
		</g>
		<g>
			<g>
				<polygon class="st66" points="150.5,248.5 147,249.7 148.3,255.7 152,256.7 154.4,254.3 152.3,252.3 152.9,252.1 153.8,252.6 
					154.2,251.7 				"/>
			</g>
			<g>
				<g>
					<path class="st8" d="M154.9,199.5c1.2-0.3,2.4-0.3,3.6,0.1c0.6,0.2,1.2,0.5,1.7,0.9c0.5,0.5,0.8,1.1,1,1.8
						c2.9,8.4-6,17.9-11.2,23.4c-3.4,3.5-0.4,10.2,0.3,14.5c0.4,2,2.3,7.8,1,9.1c-0.3,0.3-4.7,1.7-4.6,1.8c-2-4.5-4.1-9.1-6.1-13.6
						c-1.5-3.4-3.6-6.4-5-9.8c-0.5-1.3-1-2.7-0.8-4.1c0.2-1.1,0.7-2,1.3-3c2.8-4.6,5.8-9,9.2-13.3c1.7-2.1,3.3-4.4,5.5-6
						C152.1,200.5,153.5,199.8,154.9,199.5z"/>
				</g>
			</g>
		</g>
		<g>
			<path class="st57" d="M138.1,184.4c-0.5-2.2,0.7-4.2,2.8-4.7c2.2-0.5,4,0.8,4.6,3c0.5,2.2-0.6,4.2-2.8,4.7
				C140.5,187.9,138.6,186.6,138.1,184.4z M137.7,175.1l-7.6-29.7l6-1.4l5.9,30.1L137.7,175.1z"/>
		</g>
	</g>
	<g>
		<path class="st35" d="M144.4,299.5c16.3,1.6,27.8,9,27.8,9s4,2.2,6.6-1.4c2.6-3.7,2.6-6.2,2.3-7.7c-0.2-1.6-3.8-8.3-11.1-10.2
			c-2.8-0.6-7.1,0-10.3,0.4c-3.2,0.4-16.1-0.6-21.3-2.5c-4-1.4-18.3-1.3-24.9-1.2c-2.1,0-3.9,1.3-4.7,3.2l-0.3,0.8l3.7,7.2
			C112.2,297.1,128.1,298,144.4,299.5z"/>
		<path class="st36" d="M181.3,299.7C181.3,299.7,181.3,299.7,181.3,299.7c0-0.1,0-0.2,0-0.3c0,0,0,0,0-0.1c0-0.1,0-0.1,0-0.2
			c0,0,0,0,0-0.1c0-0.1,0-0.2-0.1-0.3c0,0,0,0,0,0c0-0.1-0.1-0.2-0.1-0.3c0,0,0,0,0,0c-1-2.4-4.5-7.6-10.8-9.3l0,0l0,0
			c-1.2-0.3-2.7-0.3-4.3-0.2c-0.2,0-0.5,0-0.7,0c-0.5,0-0.9,0.1-1.4,0.1c-1.4,0.1-2.7,0.3-3.9,0.5l0,0c-0.1,0-0.2,0-0.3,0
			c0,0-0.1,0-0.1,0c-0.1,0-0.2,0-0.3,0c-0.1,0-0.1,0-0.2,0c-0.1,0-0.2,0-0.3,0c-0.1,0-0.1,0-0.2,0c-0.1,0-0.2,0-0.3,0
			c-0.1,0-0.1,0-0.2,0c-0.1,0-0.2,0-0.4,0c-0.1,0-0.1,0-0.2,0c-0.1,0-0.3,0-0.4,0c-0.1,0-0.1,0-0.2,0c-0.2,0-0.3,0-0.5,0
			c-0.1,0-0.1,0-0.2,0c-0.2,0-0.4,0-0.6,0c0,0-0.1,0-0.1,0c-2-0.1-4.3-0.3-6.6-0.5l0,0c-3.9-0.4-7.9-1.1-10.2-1.9
			c0,0,4.7,4.2,10.9,4.7l0,0c0,0,14.6,2.1,20.9,2.1c6.3,0,8.6,4.2,8.4,6.2c-0.3,0.7-0.8,1.5-1.3,2.4c-2.5,3.8-6.6,1.7-6.6,1.7
			s-11.8-7.1-28.1-8.1c-14.5-0.9-28.6-1.2-31.7-1.3l1.2,2.3c0,0,15.9,0.9,32.2,2.4c16.3,1.6,27.8,9,27.8,9s4,2.2,6.6-1.4
			c1.3-1.8,1.9-3.3,2.2-4.6l0,0l0,0C181.4,301.4,181.3,300.4,181.3,299.7z"/>
		
			<ellipse transform="matrix(0.9989 -4.677439e-02 4.677439e-02 0.9989 -15.7197 11.7962)" class="st37" cx="244.2" cy="341.8" rx="22.1" ry="22.1"/>
		
			<ellipse transform="matrix(0.9989 -4.677439e-02 4.677439e-02 0.9989 -15.7197 11.7962)" class="st38" cx="244.2" cy="341.8" rx="16" ry="16"/>
		
			<ellipse transform="matrix(0.9989 -4.677439e-02 4.677439e-02 0.9989 -15.7197 11.7962)" class="st39" cx="244.2" cy="341.8" rx="12.3" ry="12.3"/>
		
			<ellipse transform="matrix(0.9989 -4.677439e-02 4.677439e-02 0.9989 -15.7197 11.7962)" class="st40" cx="244.2" cy="341.8" rx="7.6" ry="7.6"/>
		<g>
			<path class="st32" d="M205.7,256.8c-0.2,0-0.4-0.2-0.5-0.4l-1.7-10.4c0-0.3,0.2-0.6,0.4-0.6c0.3,0,0.6,0.2,0.6,0.4l1.7,10.4
				c0,0.3-0.2,0.6-0.4,0.6C205.8,256.8,205.8,256.8,205.7,256.8z"/>
		</g>
		<path class="st33" d="M203.3,236.2c-0.4-0.4-1-0.2-1.1,0.3c-0.7,2.5-2.2,8.6-1.8,10.2c0.2,0.6,0.8,1,1.4,0.7
			c1.7-0.7,5-2.2,5.4-4.6C207.5,240.6,204.7,237.6,203.3,236.2z"/>
		<path class="st33" d="M205.5,238.7c0.5,0.9,0.8,1.9,0.7,2.7c-0.3,2.3-3.6,3.9-5.4,4.6c-0.2,0.1-0.3,0.1-0.5,0.1
			c0,0.3,0,0.6,0.1,0.8c0.2,0.6,0.8,1,1.4,0.7c1.7-0.7,5-2.2,5.4-4.6C207.4,241.6,206.6,240,205.5,238.7z"/>
		<polygon class="st34" points="191.6,334.3 191.5,336 207.6,336.1 207.6,334.3 		"/>
		<path class="st8" d="M195.5,334.3c0.3-3.7-3.6-3.3-3.6-3.3l0,0l-0.3,3.3L195.5,334.3L195.5,334.3z"/>
		<path class="st41" d="M161.3,346.4c-4.5-0.8-8.8-8.8-8.8-8.8s-18.8-3.9-35.6-7.6l1.3,19.6c0,0,24,6.6,24.4,6.7
			c0.4,0.1,8.1-0.9,11.5-3.3c3.3-2.5,6.6-1,6.6-1c2.4,1,7.4,0.3,7.4,0.3C165.9,352.3,161.3,346.4,161.3,346.4z"/>
		
			<ellipse transform="matrix(0.9989 -4.677439e-02 4.677439e-02 0.9989 -16.1473 5.7142)" class="st37" cx="114" cy="347.9" rx="22.1" ry="22.1"/>
		
			<ellipse transform="matrix(0.9989 -4.677439e-02 4.677439e-02 0.9989 -16.1473 5.7142)" class="st38" cx="114" cy="347.9" rx="16" ry="16"/>
		
			<ellipse transform="matrix(0.9989 -4.677439e-02 4.677439e-02 0.9989 -16.1473 5.7142)" class="st39" cx="114" cy="347.9" rx="12.3" ry="12.3"/>
		
			<ellipse transform="matrix(0.9989 -4.677439e-02 4.677439e-02 0.9989 -16.1473 5.7142)" class="st40" cx="114" cy="347.9" rx="7.6" ry="7.6"/>
		<path class="st39" d="M139.3,334.8c0,0-6.4,6.6-1.6,13.5c3.6,5.2,11.8,3.4,13.2,0.5c0,0,2.3-0.2,3,1c0.6,1.1,1.9-1.8,1.3-2.6
			c-0.6-0.9-2.6-5.2-2.6-5.2l-1.2,0.1c0,0-0.8-4.1-4.9-4.6l0.1-1.1L139.3,334.8z"/>
		<path class="st35" d="M161.2,349.8c0,0-0.3,4.1-4,4.8c-3.6,0.7-15.4,1.6-15.4,1.6s-7,0.4-8.1,0.8c-1.1,0.5-7,1.6-10.1,0.7
			c-3.1-0.9-21.1-5.8-22.2-7s-2.8-3.3-2.7-4.9c0.1-1.6-2-2.1-2-2.1l0.5-2c0,0,1.8,0.2,2.2-0.5c0.4-0.7,2-4.9,8.7-3.5
			c6.7,1.4,21,5.3,23.6,7c2.5,1.7,3,2.9,3.7,4.6c0.7,1.7,4.7,5.4,8.3,5.4c3.6,0,11.5-1,12.5-1.2c1-0.2,3.3-1.8,3.3-3.6
			C159.6,349.8,160,349,161.2,349.8z"/>
		
			<ellipse transform="matrix(0.9989 -4.677439e-02 4.677439e-02 0.9989 -15.9177 7.1622)" class="st33" cx="145.1" cy="343.7" rx="4.2" ry="4.2"/>
		<path class="st70" d="M206.7,252.8l-3-2c-0.2-0.1-0.4-0.1-0.6,0.1l-1.5,2.5c-0.4,0.7-0.6,1.5-0.6,2.3c0,0-5.9,6-6.7,6.8
			c-0.8,0.8,2.8,7.2,3.6,9.7c0.7,2.5,1,3.4,4.1,1.9c3-1.6,5.5-3.3,6-3.5c0.4-0.2,0.7-1,0.6-1.5c0.2-1.2,4.1-1.5,6.6-2.5l3.1-11.1
			L206.7,252.8z"/>
		<path class="st70" d="M238.6,305c-0.8-1.9-7.6-15.8-20.6-28.4c-2.5-2.6-5.8-5.6-7.3-6.9c-0.5-0.4-1.1-0.4-1.6,0
			c-0.4,0.4-0.8,0.7-1,0.9c-0.6,0.4-6.1,3.5-7.7,4.2c0,0-1,0.5-0.5,1.6s8.1,17.5,9.2,20.2c1.1,2.7,3.6,10.6,0.2,19.3
			c-3.4,8.6-3.2,11.1-9,13.8c-3.8,1.8-9,1.1-13.1,0.5c-4.5-0.6-10.3-1.3-13.7-4.6c-2.1-2.1-3.9-4.5-4.1-7.6
			c-0.3-3.4,1.3-6.8,3.1-9.6c0,0-11.6-7.4-27.9-8.9c-16.3-1.5-32.2-2.3-32.2-2.3S92.5,316.1,90,319.7c-1.2,1.7-1.2,2.5,1.3,4
			c2.5,1.5,61.2,13.8,61.2,13.8s4.3,8,8.8,8.8c0,0,4.5,6,6.7,5.8c2.2-0.2,13.6-3.8,15.5-3.9c1.9-0.2,15-0.5,18.3-0.4
			c3.3,0.1,9.1-3.2,12.5-6.9c3.4-3.7,12.9-19.6,14.7-25.3c1.4-4.6,5.5-7.5,7-8.4c0.3-0.2,0.7-0.3,1.1-0.4
			C237.9,306.7,239.2,306.4,238.6,305z"/>
		<path class="st53" d="M215.2,254.8L215.2,254.8l-2.2,12.5l0,0c0.8-0.2,1.6-0.4,2.3-0.7l3.1-11.1L215.2,254.8z"/>
		<g>
			<path class="st32" d="M203.2,256.4c-0.2,0-0.4-0.1-0.5-0.4l-3.6-9.9c-0.1-0.3,0-0.6,0.3-0.7c0.3-0.1,0.6,0,0.7,0.3l3.6,9.9
				c0.1,0.3,0,0.6-0.3,0.7C203.3,256.3,203.2,256.4,203.2,256.4z"/>
		</g>
		<path class="st71" d="M202.6,256l-1.1,0.8l-0.7,2.6c0,0,2.6,1.6,3.7,1.6l0.4-3.7l-1.3-1.8L202.6,256z"/>
		<path class="st53" d="M221,291.3c-0.2-0.5,0.1-1,1.2-0.5c1,0.5,3.8,3.3,5.5,5.6c1.7,2.3,5,7.2,4.8,7.8c-0.2,0.6-3.4-0.1-3.7-0.7
			C228.5,303,221.2,291.9,221,291.3z"/>
		<path class="st70" d="M235.3,307.8C235.3,307.8,235.3,307.8,235.3,307.8l-3.2,2.8c-1.2,1.3-2.4,3-3,5.1c-1.3,4.2-6.9,14-11.1,20.3
			l0,0c0,0,6.2-0.5,9.7-5c3.5-4.5,12.2-12.4,25-9.5c4.7,1,7.5,0.5,8.4-1.3C261.1,320.1,253.4,306.2,235.3,307.8z"/>
		<path class="st44" d="M106.4,302.9l-5.6,0.9c-2.2,0.4-4.2,1.4-5.8,3l-5.3,5.3c-0.5,0.5-0.7,1.2-0.5,1.9l0,0
			c0.2,0.8,0.9,1.4,1.8,1.5l2.6,0.2L106.4,302.9z"/>
		<path class="st42" d="M100.6,342.3c0,0,0,4.5,1.8,5.6c1.8,1,13.7,5,15,5.7c1.3,0.7,2.2,1.5,2.5,2.1c0.4,0.6,4.1,2.1,8.5-1.4
			c4.4-3.5,5.1-5.3,4-6.1c-1.1-0.8-5.4-3.4-8.1-4.2c-2.7-0.8-12.9-3.7-18.4-4.1C103.9,339.6,100.2,339.4,100.6,342.3z"/>
		<path class="st72" d="M132.5,348.2c-0.1-0.1-0.3-0.2-0.5-0.3c-0.7,0.9-1.9,2.1-3.7,3.5c-4.4,3.5-8.2,2.1-8.5,1.4
			c-0.4-0.6-1.3-1.4-2.5-2.1c-1.3-0.7-13.2-4.7-15-5.7c-1-0.6-1.4-2.2-1.6-3.6c-0.1,0.3-0.1,0.6,0,0.9c0,0,0,4.5,1.8,5.6
			c1.8,1,13.7,5,15,5.7c1.3,0.7,2.2,1.5,2.5,2.1c0.4,0.6,4.1,2.1,8.5-1.4C132.9,350.7,133.6,349,132.5,348.2z"/>
		<path class="st46" d="M91.3,323.8c0,0,1.5,1.3,1.5,2.3c0,0.9-1.3,2.7-1.3,2.7l-1.9,1.1l-5.9,11.8c0,0,2.1,1.3,4.9-0.2
			c0,0,1.1,0.5,2.8-2.9c1.7-3.3,3.1-5.1,3.1-5.1l6.1-3.2l8.1-2.2l0,0C99.4,326,92.1,324.3,91.3,323.8z"/>
		<path class="st53" d="M96.5,318.9c0.2,0,10.4-6,11.9-6.7c1.5-0.7-1.1-1.8-2.5-1.5c-1.4,0.4-9.4,5.3-10.7,6.6
			C93.8,318.8,94.5,319.5,96.5,318.9z"/>
		<path class="st33" d="M197,236.6c-0.4-0.3-1,0-1,0.5c-0.2,2.6-0.6,8.8,0.1,10.4c0.3,0.6,1,0.8,1.5,0.5c1.6-1,4.5-3.1,4.4-5.5
			C201.9,240.1,198.6,237.7,197,236.6z"/>
		<path class="st33" d="M199.6,238.5c0.6,0.8,1.1,1.7,1.2,2.6c0.1,2.4-2.8,4.5-4.4,5.5c-0.1,0.1-0.3,0.1-0.4,0.2
			c0.1,0.3,0.1,0.6,0.2,0.7c0.3,0.6,1,0.8,1.5,0.5c1.6-1,4.5-3.1,4.4-5.5C202,241.1,200.9,239.7,199.6,238.5z"/>
		<path class="st35" d="M196.4,342.9c3.6,0.4,9.1,0.2,12.5-3c3.4-3.3,10.1-11.6,13.1-18.2c3-6.6,5-15.3,4.8-17
			c-0.3-1.7-7.1-12.7-9.2-16.3c-2.1-3.6-6.4-8.2-8.2-10.8c-1.7-2.6-0.3-5.4,0-6.4c0.4-0.9-0.1-1.7-0.1-1.7c-0.1,0.1-0.2,0.1-0.3,0.2
			c-0.4,0.4-0.8,0.7-1,0.9c-0.6,0.4-6.1,3.5-7.7,4.2c0,0-1,0.5-0.5,1.6s8.1,17.5,9.2,20.2c1.1,2.7,3.6,10.6,0.2,19.3
			c-3.4,8.6-3.2,11.1-9,13.8c-3.8,1.8-9,1.1-13.1,0.5c-2.8-0.4-6.1-0.8-9-1.8c-7.2,3.2-19.5,3.3-19.5,3.3c-2.6,4.3-8,5.5-8,5.5
			c0,0,0,0,0,0l1.9,0.4l18.8,2.9C171.3,340.5,192.8,342.5,196.4,342.9z"/>
		<g>
			<path class="st42" d="M226.8,304.7c-0.3-1.7-7.1-12.7-9.2-16.3c-2.1-3.6-6.4-8.2-8.2-10.8c-0.9-1.3-0.9-2.8-0.7-3.9l0,0.1l-1.7,1
				c-1.7,1-2.4,3.1-1.6,4.9c2.5,5.7,7.5,17.5,8.2,23.2c1,7.7-1.5,14.3-3.3,19.8c-1.8,5.5,4.4,10.6,4.4,10.6
				c2.8-3.6,5.6-7.8,7.3-11.5C225.1,315.2,227.1,306.4,226.8,304.7z"/>
			<path class="st42" d="M208.8,273.2L208.8,273.2C208.8,273.2,208.8,273.2,208.8,273.2L208.8,273.2z"/>
		</g>
		<path class="st73" d="M229.4,328.9c3.7-5.2,6.2-14.3,7-15.9c1-1.8,7.4-4.8,7.4-4.8c-2.5-0.5-5.4-0.7-8.5-0.4c0,0,0,0,0,0l-3.2,2.8
			c-1.2,1.3-2.4,3-3,5.1c-1.3,4.2-6.9,14-11.1,20.3l0,0c0,0,4-0.3,7.4-2.8c0.8-0.8,1.6-1.6,2.3-2.2
			C228.2,330.3,228.8,329.6,229.4,328.9z"/>
		<path class="st8" d="M247.1,310.9c1,0.4,2,0.8,3,1.2c1,0.5,1.9,1,2.8,1.6c0.9,0.6,1.8,1.2,2.7,1.9c0.8,0.7,1.6,1.5,2.4,2.5
			c0.4,0.5,0.3,1.3-0.2,1.7c-0.5,0.4-1.3,0.3-1.7-0.2c0-0.1-0.1-0.1-0.1-0.2l0,0c-0.5-0.8-1-1.7-1.7-2.4c-0.7-0.8-1.4-1.5-2.1-2.2
			c-0.8-0.7-1.6-1.3-2.4-1.9c-0.9-0.6-1.7-1.2-2.7-1.7l0,0c-0.1,0-0.1-0.2-0.1-0.2C246.9,310.9,247,310.8,247.1,310.9z"/>
		<path class="st8" d="M114.8,311.8c3.9-1.4,7.9-2.5,12-3.2c4.1-0.7,8.3-0.9,12.5-0.4c2.1,0.2,4.2,0.7,6.2,1.4c2,0.7,4,1.8,5.6,3.5
			c0.8,0.8,1.5,1.8,2,2.8c0.5,1,0.9,2.1,1.1,3.2c0.5,2.2,0.5,4.4,0.2,6.6c-0.1,0.8-0.8,1.3-1.6,1.2c-0.8-0.1-1.3-0.8-1.2-1.6
			c0,0,0,0,0-0.1l0,0c0.4-1.9,0.4-3.8,0.1-5.7c-0.3-1.9-1-3.6-2.3-5c-1.2-1.4-2.9-2.4-4.7-3.2c-1.8-0.8-3.8-1.3-5.8-1.6
			c-4-0.7-8.1-0.6-12.2-0.2c-4.1,0.5-8.1,1.4-12,2.6c-0.1,0-0.2,0-0.2-0.1C114.7,311.9,114.7,311.8,114.8,311.8z"/>
		<path class="st73" d="M198,272.3c0.7,2.5,1,3.4,4.1,1.9c3-1.6,5.5-3.3,6-3.5c0.4-0.2,0.7-1,0.6-1.5c0.2-1.2,4.1-1.5,6.6-2.5
			l-5.6-1c0,0-2.6-3.1-5.3-4.1c-2.7-1.1-7.9-1.5-10,1.1C193.7,263.4,197.3,269.8,198,272.3z"/>
		
			<ellipse transform="matrix(0.9989 -4.677439e-02 4.677439e-02 0.9989 -12.1258 9.5133)" class="st49" cx="197.2" cy="263.9" rx="2.5" ry="2.5"/>
		<g>
			
				<ellipse transform="matrix(0.9989 -4.677439e-02 4.677439e-02 0.9989 -12.2572 9.9216)" class="st50" cx="205.9" cy="266.9" rx="0.7" ry="0.7"/>
			<path class="st50" d="M205.5,266.2c0,0-0.8-0.5-0.9-0.7c-0.1-0.2,0.5-0.4,0.4-0.8c-0.1-0.5-1.1-0.7-1.8-0.6
				c-0.4,0-0.6,0.4-0.6,0.9c0,0.6,0.3,1.2,0.8,1.5c0.6,0.5,1.7,1.1,2.5,1.1L205.5,266.2z"/>
		</g>
		<path class="st51" d="M196.5,262.3c-0.3,0-0.7,0.1-0.9,0.3l-4,1.3l0.2,3.7l4.9-1.6c1,0,1.8-0.9,1.8-1.9
			C198.4,263,197.6,262.2,196.5,262.3z"/>
		<path class="st73" d="M171.5,309.8c0.3-0.5,0.6-1,0.8-1.4c0,0-11.6-7.4-27.9-8.9c-16.3-1.5-32.2-2.3-32.2-2.3s-0.4,0.4-1.1,1.1
			c6.1,0.4,27.5,1.6,34.8,2.3C161.9,303.4,169.1,307.9,171.5,309.8z"/>
		<path class="st73" d="M112.1,309.4c0.6-0.4,1.3-0.7,1.9-1c0.6-0.3,1.3-0.6,1.9-0.9c1.3-0.6,2.6-1.1,4-1.6c2.7-1,5.4-1.8,8.2-2.5
			c2.8-0.7,5.7-1.1,8.6-1.3c0.4,0,0.7-0.1,1.1-0.1l1.1,0c0.7,0,1.5,0,2.2,0c1.5,0.1,3,0.2,4.4,0.5c0.7,0.1,1.5,0.4,2.2,0.5
			c0.4,0.1,0.7,0.2,1.1,0.4c0.4,0.1,0.7,0.3,1.1,0.4l1.1,0.5l1,0.6c0.2,0.1,0.3,0.2,0.5,0.3l0.5,0.3c0.3,0.2,0.7,0.5,0.9,0.7
			c1.2,1,2.3,2,3.2,3.2c0.2,0.3,0.5,0.6,0.7,0.9l0.7,0.9l0.6,1c0.2,0.3,0.4,0.7,0.5,1c1.3,2.7,2,5.8,1.8,8.7
			c-0.1,1.5-0.3,2.9-0.7,4.3c-0.4,1.4-0.9,2.7-1.6,4c0.7-2.7,0.9-5.6,0.6-8.2c-0.3-2.7-1.1-5.2-2.5-7.5c-1.4-2.2-3.2-4.1-5.3-5.7
			c-0.1-0.1-0.3-0.2-0.4-0.3l-0.4-0.3l-0.4-0.3c-0.1-0.1-0.3-0.2-0.4-0.2l-0.8-0.4l-0.9-0.4c-0.3-0.1-0.6-0.2-0.9-0.3
			c-0.3-0.1-0.6-0.2-0.9-0.3c-0.6-0.2-1.2-0.3-1.9-0.5c-2.6-0.5-5.3-0.7-8-0.6c-2.7,0-5.5,0.3-8.2,0.7c-2.7,0.4-5.5,0.9-8.2,1.4
			C117.6,308.1,114.8,308.8,112.1,309.4z"/>
		<path class="st36" d="M201.5,335.5l-2-2.1c-0.3-0.3-0.6-0.4-1-0.4l-20.8-1.6c-0.3,0-0.6,0.1-0.9,0.2c-4.3,2.6-12.1,2.3-14.8,2.2
			c-0.5,0-1,0.2-1.3,0.7c0,0,0,0,0,0.1c-0.6,0.9,0,2.2,1.1,2.3l38,4.1c0.8,0.1,1.5-0.4,1.6-1.2l0.6-2.9
			C202,336.4,201.9,335.9,201.5,335.5z"/>
		<g>
			<path class="st53" d="M93.5,316.7c-0.2,0-0.5-0.1-0.7-0.3c-0.3-0.3-0.3-0.9,0-1.3l12.9-12.9c0.3-0.3,0.9-0.3,1.3,0
				c0.3,0.3,0.3,0.9,0,1.3l-12.9,12.9C93.9,316.6,93.7,316.6,93.5,316.7z"/>
		</g>
		
			<ellipse transform="matrix(0.9989 -4.677439e-02 4.677439e-02 0.9989 -12.2201 9.2589)" class="st54" cx="191.7" cy="265.7" rx="1.9" ry="1.9"/>
		
			<ellipse transform="matrix(0.9989 -4.677439e-02 4.677439e-02 0.9989 -13.9864 6.3818)" class="st39" cx="129.4" cy="302" rx="2.7" ry="2.7"/>
		
			<ellipse transform="matrix(0.9989 -4.677439e-02 4.677439e-02 0.9989 -13.9864 6.3818)" class="st33" cx="129.4" cy="302" rx="1.3" ry="1.3"/>
		
			<ellipse transform="matrix(0.9989 -4.677439e-02 4.677439e-02 0.9989 -14.3506 5.1194)" class="st39" cx="102.2" cy="309.2" rx="2.7" ry="2.7"/>
		
			<ellipse transform="matrix(0.9989 -4.677439e-02 4.677439e-02 0.9989 -14.3506 5.1194)" class="st33" cx="102.2" cy="309.2" rx="1.3" ry="1.3"/>
		<path class="st39" d="M84.1,334.3c0,0,0.2-5-3.4-5.1c-3.6-0.1-2.9,3.9-2.9,3.9s-4.2-2.1-5.6,0.9c-1.4,3.1,2.6,4.8,3.9,4.6
			c-2,0.2-3.1,2.9-1.6,4.3c1.9,2,5.6-0.7,7.2-2l13.9,1.1L84.1,334.3z"/>
		<path class="st45" d="M77.6,337.5c-1.2,0.1-4.8-1.5-3.5-4.3c0.2-0.4,0.4-0.6,0.6-0.9c-1,0.1-1.9,0.5-2.4,1.6
			c-1.3,2.9,2.2,4.6,3.7,4.6C76.3,338,76.9,337.5,77.6,337.5z"/>
		<path class="st45" d="M93.2,340.4l-8.4-0.7c-1.3-0.1-2.5,0.2-3.6,0.9c-1.6,1.1-3.8,2.1-5.1,0.8c-0.7-0.8-0.7-1.9-0.2-2.8
			c-1.8,0.4-2.8,2.9-1.4,4.3c1.9,2,5.6-0.7,7.2-2l13.9,1.1L93.2,340.4z"/>
		<path class="st39" d="M94.9,339.2l-6.5-4.6c-0.9-0.7-1.5-1.8-1.3-2.9c0.1-0.7,0.4-1.3,1.2-1.5c2.2-0.6,3.1,2.1,2.5,3.3L94.9,339.2
			z"/>
		<path class="st39" d="M92.4,343.6l-7.9-0.6c-1.1-0.1-2.3,0.4-2.9,1.4c-0.4,0.6-0.5,1.3,0,2c1.3,1.9,3.7,0.4,4-0.9L92.4,343.6z"/>
		<path class="st33" d="M209.8,272.7c0.5-0.8,0.6-2.2,0.6-3.2c-0.4-0.2-1-0.2-1.3,0.2c0,0-0.1,0.1-0.1,0.1c0,0.9-0.2,1.8-0.4,2.2
			c-1,1.7-1.5,4.3,3.5,9.9c4.7,5.3,13.9,21.8,14.3,23.4c0,1.1-2.3,11.8-7.9,21.3c-3.5,5-6.5,9.2-8,10.9c-2.2,2.6-5.5,4.3-9.2,4.7
			c-2.9,0.4-5.9,0-8.7-0.4c-1.1-0.1-2.2-0.3-3.3-0.4c-0.6-0.1-1.2-0.1-1.8-0.2c-1-0.1-2.1-0.2-3.1-0.3c-3.9-0.4-7.9-0.8-11.8-1.2
			l-0.3,0c-0.4,0-0.7,0.2-0.8,0.6c0,0.4,0.2,0.7,0.6,0.8l0.3,0c3.9,0.4,7.9,0.8,11.8,1.2c1,0.1,2.1,0.2,3.1,0.3
			c0.6,0.1,1.2,0.1,1.8,0.2c1.1,0.1,2.2,0.2,3.2,0.4c2.5,0.3,5,0.6,7.5,0.5c0.5,0,1.1-0.1,1.6-0.1c4.1-0.5,7.6-2.4,10.1-5.2
			c1.5-1.8,4.7-6,8.2-11.1l0,0c3.1-5.1,5.1-10.5,6.2-14.2c1.3-4.1,1.9-7.3,1.9-8c-0.1-1.5-10-18.9-14.7-24.2
			C208.2,275.4,209.4,273.5,209.8,272.7z"/>
	</g>
</g>
</svg>
