<?xml version="1.0" encoding="utf-8"?>
<!-- Generator: Adobe Illustrator 21.0.0, SVG Export Plug-In . SVG Version: 6.00 Build 0)  -->
<svg version="1.1" xmlns="http://www.w3.org/2000/svg" xmlns:xlink="http://www.w3.org/1999/xlink" x="0px" y="0px"
	 viewBox="0 0 1850 550" style="enable-background:new 0 0 1850 550;" xml:space="preserve">
<style type="text/css">
	.st0{fill:#B6F4FD;}
	.st1{fill:#FBFBF6;}
	.st2{fill:#84E3EF;}
	.st3{opacity:0.35;fill:#481118;}
	.st4{fill:#F7F5C1;}
	.st5{fill:#F4EB98;}
	.st6{fill:#3C6081;}
	.st7{fill:#613D3C;}
	.st8{fill:#8CA0B4;}
	.st9{fill:#A6A47E;}
	.st10{fill:#DB5164;}
	.st11{fill:#C3B902;}
	.st12{fill:#F4F1CE;}
	.st13{fill:#006C99;}
	.st14{fill:#EEEDC7;}
	.st15{fill:#E1C85E;}
	.st16{fill:#F8F6E7;}
	.st17{fill:#DED989;}
	.st18{fill:#5D3938;}
	.st19{fill:#0A648E;}
	.st20{fill:#5F2D34;}
	.st21{opacity:0.34;fill:#F8F6E7;}
	.st22{opacity:0.58;fill:#F8F6E7;}
	.st23{fill:#52718D;}
	.st24{fill:#BEABAD;}
	.st25{opacity:0.29;}
	.st26{opacity:0.44;fill:#BFC1C1;}
	.st27{opacity:0.16;fill:#481118;}
	.st28{fill:#D3D331;}
	.st29{fill:#BDC12B;}
	.st30{fill:#9B7B75;}
	.st31{fill:#7F5C57;}
	.st32{fill:#8C6C69;}
	.st33{fill:#BC9695;}
	.st34{fill:#E5CF98;}
	.st35{fill:#F7E8BC;}
	.st36{fill:#F9B44E;}
	.st37{fill:#FFCB64;}
	.st38{fill:#FFE7AB;}
	.st39{opacity:0.23;fill:#481118;}
</style>
<g id="Layer_2">
	<path class="st0" d="M1848.5,333.9c-9.6,8.8-24.5,21.2-44.5,33.2c-14.9,8.9-80.5,46.4-192,40.5c-67.7-3.6-114-21.1-142.5-30
		c-49.5-15.4-81.1-15.8-385,16.5c-171.7,18.2-344,37.7-444.4-18c-5-2.8-14.4-8.3-28.5-13.5c-93.1-34.6-190.5,17.5-223.5,33
		c-71.7,33.8-189,60.2-388,23.5c0,36.3,0,72.6,0,108.9h1814.6h28.6h5.7C1848.8,463.3,1848.7,398.6,1848.5,333.9z"/>
</g>
<g id="Layer_1">
	<ellipse class="st1" cx="1020.9" cy="71.1" rx="3.2" ry="4.6"/>
	<path class="st2" d="M1011.5,231.7c-1.3,0-2.4,0.4-3.4,1c-0.1-3.6-3-6.5-6.6-6.5c-1.5,0-2.8,0.5-3.9,1.3
		c-0.2-6.3-5.3-11.4-11.7-11.4c-5.4,0-10,3.7-11.3,8.7c-1.6-1-3.6-1.6-5.7-1.6c-5.9,0-10.8,4.8-10.8,10.8c0,4.7,3.1,8.8,7.3,10.2
		c0.7,0.4,1.5,0.6,2.3,0.6h42c0.6,0.1,1.1,0.2,1.7,0.2c3.7,0,6.6-3,6.6-6.6C1018.2,234.7,1015.2,231.7,1011.5,231.7z"/>
	<path class="st2" d="M1672,245c-1.3,0-2.4,0.4-3.4,1c-0.1-3.6-3-6.5-6.6-6.5c-1.5,0-2.8,0.5-3.9,1.3c-0.2-6.3-5.3-11.4-11.7-11.4
		c-5.4,0-10,3.7-11.3,8.7c-1.6-1-3.6-1.6-5.7-1.6c-5.9,0-10.8,4.8-10.8,10.8c0,4.7,3.1,8.8,7.3,10.2c0.7,0.4,1.5,0.6,2.3,0.6h42
		c0.6,0.1,1.1,0.2,1.7,0.2c3.7,0,6.6-3,6.6-6.6C1678.6,248,1675.6,245,1672,245z"/>
	<path class="st2" d="M1125.9,289.4c-1.3,0-2.4,0.4-3.4,1c-0.1-3.6-3-6.5-6.6-6.5c-1.5,0-2.8,0.5-3.9,1.3
		c-0.2-6.3-5.3-11.4-11.7-11.4c-5.4,0-10,3.7-11.3,8.7c-1.6-1-3.6-1.6-5.7-1.6c-5.9,0-10.8,4.8-10.8,10.8c0,4.7,3.1,8.8,7.3,10.2
		c0.7,0.4,1.5,0.6,2.3,0.6h42c0.6,0.1,1.1,0.2,1.7,0.2c3.7,0,6.6-3,6.6-6.6C1132.6,292.4,1129.6,289.4,1125.9,289.4z"/>
	<path class="st2" d="M1086.1,147.7c-2,0-3.8,0.5-5.3,1.5c-0.2-5.6-4.7-10-10.3-10c-2.3,0-4.4,0.7-6.1,2
		c-0.3-9.8-8.3-17.6-18.1-17.6c-8.4,0-15.5,5.7-17.5,13.5c-2.6-1.6-5.6-2.5-8.8-2.5c-9.2,0-16.7,7.5-16.7,16.7
		c0,7.3,4.7,13.6,11.3,15.8c1.1,0.6,2.3,0.9,3.6,0.9h65.2c0.9,0.2,1.8,0.4,2.7,0.4c5.7,0,10.3-4.6,10.3-10.3
		C1096.5,152.3,1091.8,147.7,1086.1,147.7z"/>
	<g>
		<ellipse class="st3" cx="860" cy="522.5" rx="115" ry="6.2"/>
		<g>
			<path class="st4" d="M941.2,518.6H794c-9.1,0-17.7-6.8-17.7-14.8v-2.2c0-8,8.6-14.4,17.7-14.4h147.2c0,0-4.1,5.2-4.1,15
				C937.1,513.4,941.2,518.6,941.2,518.6z"/>
		</g>
		<g>
			<path class="st5" d="M942.9,519.3h-92.5v-30.7h92.5c0,0-4.1,4.9-4.1,14.6C938.8,514.4,942.9,519.3,942.9,519.3z"/>
		</g>
		<g>
			<path class="st6" d="M806.7,468.9c-11,0-19.4-7.1-19.4-16.2v-2.4c0-4.5,1.8-8.6,5.7-11.6c3.7-3,8.5-4.6,13.7-4.6
				c0.7,0,1.3,0.5,1.3,1.2c0,0.7-0.3,1.2-1,1.2c-9.6,0-16.7,6.1-16.7,13.9v2.4c0,7.8,7.1,13.8,16.6,13.8c0.7,0,1.3,0.5,1.3,1.2
				C808.1,468.4,807.4,468.9,806.7,468.9z"/>
		</g>
		<g>
			<path class="st7" d="M944,520H793.6c-10.3,0-19.3-7.1-19.3-16.1v-2.2c0-8.8,8.8-15.8,19.3-15.8H944v3.3H793.6
				c-8.1,0-14.6,5.7-14.6,12.4v2.2c0,6.9,6.7,12.8,14.6,12.8H944V520z"/>
		</g>
		<g>
			<path class="st4" d="M908,393.1h-96.2c-6.8,0-12.7-5.6-12.7-11.6v-1.6c0-6,5.9-10.2,12.7-10.2H908c0,0-3.1,3.8-3.1,11.1
				C904.9,389.2,908,393.1,908,393.1z"/>
		</g>
		<g>
			<path class="st5" d="M909.3,393.1h-76.9v-23.4h76.9c0,0-3.1,3.8-3.1,11.1C906.2,389.2,909.3,393.1,909.3,393.1z"/>
		</g>
		<g>
			<path class="st6" d="M813.8,392.9c-7.6,0-13.4-4.9-13.4-11.2v-1.6c0-3.1,1.3-5.9,4-8c2.6-2,5.9-3.2,9.5-3.2
				c0.5,0,0.9,0.4,0.9,0.8s-0.6,0.8-1.1,0.8c-6.6,0-11.9,4.2-11.9,9.6v1.6c0,5.3,5.3,9.5,11.8,9.5c0.5,0,1.1,0.4,1.1,0.8
				C814.6,392.5,814.3,392.9,813.8,392.9z"/>
		</g>
		<g>
			<path class="st8" d="M909.9,393.7h-98.4c-7.7,0-13.8-5.5-13.8-12.3v-1.6c0-6.6,5.9-12.2,13.8-12.2h98.4v2.7h-98.4
				c-6.1,0-11.1,4.5-11.1,9.5v1.6c0,5.2,5.2,10.3,11.1,10.3h98.4V393.7z"/>
		</g>
		<path class="st4" d="M946.1,436.5H797.2c-7.1,0-12.2-5.6-12.2-11.8V423c0-6.2,5.1-11.2,12.2-11.2h148.9c0,0-3.2,4.2-3.2,11.8
			C942.9,432.2,946.1,436.5,946.1,436.5z"/>
		<g>
			<path class="st5" d="M946.1,412.3H837.3v23.9h108.8c0,0-3.2-3.8-3.2-12.5C942.9,416.1,946.1,412.3,946.1,412.3z"/>
		</g>
		<g>
			<path class="st9" d="M792.6,449.3c-8.2,0-14.5-6.1-14.5-13.5V434c0-7.2,6.5-13.1,14.9-13.1c0.7,0,1.1,0.5,1.1,1.2
				c0,0.7-0.9,1.2-1.6,1.2c-7,0-13,4.8-13,10.8v1.8c0,6.1,5.7,11.1,12.4,11.1c0.7,0,1.7,0.5,1.7,1.2
				C793.6,448.8,793.3,449.3,792.6,449.3z"/>
		</g>
		<g>
			<path class="st10" d="M949.3,437.8H796.9c-7.7,0-14.6-6.2-14.6-13.1V423c0-6.7,6.4-11.9,14.6-11.9h152.4v2.7H796.9
				c-4.8,0-11.2,5.7-11.2,9.2v1.7c0,5.6,5,11.1,11.2,11.1h152.4V437.8z"/>
		</g>
		<g>
			<path class="st4" d="M803.4,484.6h39.5c6.3,0,10.9-4.8,10.9-10.3v-1.5c0-5.5-4.6-9.6-10.9-9.6h-39.5c0,0,2.9,3.4,2.9,10.2
				C806.2,481.1,803.4,484.6,803.4,484.6z"/>
		</g>
		<g>
			<path class="st9" d="M843.1,485c-0.3,0-0.6-0.1-0.8-0.4c-0.3-0.4-0.1-0.8,0.3-1.1c2-1.1,6-0.6,6-10.5c0-6.2-5.9-9.5-6-9.5
				c-0.4-0.2-0.5-0.7-0.3-1.1c0.3-0.4,0.8-0.5,1.2-0.3c0.3,0.2,6.8,3.8,6.8,10.9c0,8.1-6.5,11.7-6.8,11.9
				C843.4,485,843.3,485,843.1,485z"/>
		</g>
		<path class="st10" d="M905.2,462.5H801v1.3H846c1.9,2,4.3,4.7,4.3,8.9c0,5.4-3.2,9.2-5.1,10.5H801v2.7h104.2
			c6.9,0,12.7-4.3,12.7-12v-1.5C917.9,466.3,912.5,462.5,905.2,462.5z"/>
		<g>
			<g>
				<path class="st11" d="M872.2,474.3c0-6.7-3.6-11.8-3.6-11.8h-6.7c0,0,3.6,5.1,3.6,11.8c0,7.7-3.6,11.6-3.6,11.6h6.7
					C868.6,485.9,872.2,482.1,872.2,474.3z"/>
			</g>
		</g>
		<g>
			<g>
				<path class="st11" d="M904.1,474.3c0-6.7-3.6-11.8-3.6-11.8h-6.7c0,0,3.6,5.1,3.6,11.8c0,7.7-3.6,11.6-3.6,11.6h6.7
					C900.6,485.9,904.1,482.1,904.1,474.3z"/>
			</g>
		</g>
		<g>
			<path class="st12" d="M902.9,351.6h-40c-4.2,0-8.5-3.5-8.5-7.2v-1c0-3.7,4.2-6.5,8.5-6.5h40c0,0-1.9,2.5-1.9,7
				C901,349.2,902.9,351.6,902.9,351.6z"/>
		</g>
		<g>
			<path class="st7" d="M862.3,351h-41.4c-4.2,0-7.9-3-7.9-6.7v-1c0-3.7,3.6-6.3,7.9-6.3h41.4c0,0-4.3,2.1-4.3,6.7
				C858,348.8,862.3,351,862.3,351z"/>
		</g>
		<g>
			<path class="st6" d="M862.7,351.7c0.2,0,0.4-0.1,0.5-0.2c0.2-0.2,0.1-0.6-0.2-0.7c-0.2-0.1-4-2.3-4-7.1c0-4.2,4-6.4,4-6.4
				c0.3-0.2,0.4-0.5,0.2-0.7c-0.2-0.2-0.6-0.3-0.9-0.1c-0.2,0.1-4.5,2.5-4.5,7.3c0,5.4,4.4,7.9,4.6,8
				C862.5,351.7,862.6,351.7,862.7,351.7z"/>
		</g>
		<g>
			<path class="st7" d="M821,352.3h83.6V351H821c-3.6,0-7.2-3.3-7.2-6.7v-1c0-3.1,3.4-5.6,7.2-5.6h83.6v-1.3H821
				c-4.9,0-8.6,2.9-8.6,7v1C812.4,348.6,816.3,352.3,821,352.3z"/>
		</g>
		<g>
			<g>
				<path class="st4" d="M828.1,336.3h46.2c2.8,0,4.9-3.2,4.9-6.1v-0.8c0-2.9-2.1-5.2-4.9-5.2h-46.2c0,0,1.3,2.2,1.3,5.7
					C829.4,334.1,828.1,336.3,828.1,336.3z"/>
			</g>
			<g>
				<path class="st4" d="M875,336c-0.1,0-0.2-0.1-0.3-0.2c-0.1-0.2-0.3-0.2-0.2-0.3c0.1-0.1,2.5-1.9,2.5-5.6c0-3.1-2.2-4.8-2.2-4.8
					c-0.2-0.1-0.2-0.4-0.1-0.5c0.1-0.2,0.6,0.1,0.8,0.2c0.1,0.1,2.3,1.6,2.3,5.1c0,4.1-2.5,5.9-2.6,6C875.1,336,875.1,336,875,336z"
					/>
			</g>
			<path class="st4" d="M901.9,323.5h-74.7v2h48.6c0.8,0.9,1.8,2.5,1.8,4.7c0,2.5-1,4.3-1.8,5.3h-48.5v1h47.5h27.2h0
				c0,0,0.1,0,0.1,0c3-0.1,5.1-2.7,5.1-6.2v-0.8C907.2,326.1,905.2,323.5,901.9,323.5z"/>
		</g>
		<g>
			<rect x="793" y="437.8" class="st13" width="141.6" height="24.7"/>
			<rect x="801" y="437.8" class="st14" width="4.7" height="24.7"/>
			<rect x="809" y="437.8" class="st14" width="6" height="24.7"/>
		</g>
		<g>
			<rect x="796.3" y="352.3" class="st10" width="131.6" height="15.4"/>
			<rect x="918.6" y="352.3" class="st14" width="5.3" height="15.4"/>
			<rect x="911.9" y="352.3" class="st14" width="5.3" height="15.4"/>
		</g>
		<g>
			<path class="st4" d="M935.3,410.4h-93.9c-6.1,0-10.9-2.4-10.9-7.8v-1.4c0-5.3,4.8-6.2,10.9-6.2h93.9V410.4z"/>
		</g>
		<g>
			<path class="st5" d="M940.7,410.4h-61.5v-15.4h61.5c0,0-1.5,3.1-1.5,7.7C939.1,407.4,940.7,410.4,940.7,410.4z"/>
		</g>
		<g>
			<path class="st15" d="M841.7,411.1h100.9v-1.3H841.7c-7,0-9.9-2.5-9.9-7.1v-1.4c0-4,2.7-5.5,9.9-5.5h100.9v-2H841.7
				c-5.2,0-11.3,1-11.3,7.5v1.4C830.4,406.5,831.6,411.1,841.7,411.1z"/>
		</g>
		<g>
			<path class="st15" d="M997.8,107.1l-23.4,0.9c0,0,0,0,0,0l-0.4-10.2c0,0,0,0,0,0l23.4-0.9c0,0,0,0,0,0L997.8,107.1
				C997.8,107,997.8,107,997.8,107.1z"/>
			<g>
				<g>
					<path class="st16" d="M909.8,106.1c-0.3,0.6-0.7,1.2-1.2,1.7c-0.8,1.1-2.1,2.1-2.8,2.1c-0.1,0-0.3,0-0.4-0.1
						c-0.5,0.1-1.1,0.2-1.7,0.2c-0.3,0-0.5,0-0.7,0c-0.2,0-0.4,0-0.6,0c-0.1,0-0.3,0-0.4,0c0,1.2,0.6,2.9,2.3,5
						c2.7,3.5,4.8,5.9,4.8,5.9s-2.9,13-7.2,18.1c-4.3,5.1,6.6,3.1,8,3.7c0,0,5.3-12.4,6-19.7c0,0,4.4-9.1,4.6-12.9
						C920.5,107.8,913.5,102.9,909.8,106.1z"/>
				</g>
				<path class="st16" d="M920.5,109.9c-0.1-2.1-0.5-4.9-1.2-8.5c-0.6-3-12.9-1.3-14.4,1c0-0.1,1.2,7.1,0.2,9.4
					c-0.7,1.4,6.3,2.2,11.1,2.5C916.6,112.3,918.1,110.4,920.5,109.9z"/>
				<ellipse class="st16" cx="906.8" cy="102.3" rx="1.9" ry="3.6"/>
				<ellipse class="st16" cx="910.1" cy="101.8" rx="1.9" ry="3.6"/>
				<ellipse class="st16" cx="913.7" cy="101.4" rx="1.9" ry="3.6"/>
				<ellipse class="st16" cx="917.4" cy="101.4" rx="1.9" ry="3.6"/>
			</g>
			<path class="st15" d="M911.6,109.5l-43,1.7c0,0,0,0,0,0l-0.3-8.6c0,0,0,0,0,0l43-1.7c0,0,0,0,0,0L911.6,109.5
				C911.7,109.5,911.7,109.5,911.6,109.5z"/>
			<path class="st15" d="M942.1,108.8l-30.6,1.2c0,0,0,0,0,0l-0.4-9.4c0,0,0,0,0,0l30.6-1.2c0,0,0,0,0,0L942.1,108.8
				C942.1,108.8,942.1,108.8,942.1,108.8z"/>
			<path class="st15" d="M973.4,108.9l-30.6,1.2c0,0,0,0,0,0l-0.4-11.2c0,0,0,0,0,0l30.6-1.2c0,0,0.9-0.3,0.9-0.3L973.4,108.9
				C973.5,108.9,973.5,108.9,973.4,108.9z"/>
			<path class="st17" d="M868.5,111.5h-0.4c-0.3,0-0.6-0.3-0.6-0.6v-8.7c0-0.3,0.3-0.6,0.6-0.6h0.4c0.3,0,0.6,0.3,0.6,0.6v8.7
				C869.1,111.2,868.8,111.5,868.5,111.5z"/>
			<path class="st17" d="M911.1,110.9h-0.4c-0.3,0-0.6-0.3-0.6-0.6v-10.1c0-0.3,0.3-0.6,0.6-0.6h0.4c0.3,0,0.6,0.3,0.6,0.6v10.1
				C911.7,110.6,911.4,110.9,911.1,110.9z"/>
			<path class="st17" d="M942.5,110.9h-0.4c-0.3,0-0.6-0.3-0.6-0.6V98.6c0-0.3,0.3-0.6,0.6-0.6h0.4c0.3,0,0.6,0.3,0.6,0.6v11.8
				C943.1,110.6,942.8,110.9,942.5,110.9z"/>
			<path class="st17" d="M973.6,110.7h0.4c0.3,0,0.6-0.3,0.6-0.6V96.4c0-0.3-0.3-0.6-0.6-0.6h-0.4c-0.3,0-0.6,0.3-0.6,0.6v13.7
				C973,110.4,973.2,110.7,973.6,110.7z"/>
			<path class="st17" d="M998.4,109.5H998c-0.3,0-0.6-0.3-0.6-0.6V94.8c0-0.3,0.3-0.6,0.6-0.6h0.4c0.3,0,0.6,0.3,0.6,0.6v14.1
				C999,109.2,998.7,109.5,998.4,109.5z"/>
			<path class="st16" d="M843.1,129.9c0,0-10.7,29.1,0,12.5c0,0,0,0,0,0c0.5,0,0.9,0.1,1.3,0.3c0.5-0.2,1-0.3,1.6-0.2
				c0.1-0.1,3.6,9.1,3.7,9l-3.3-9.5c0.1-0.1,0.1-0.1,0.2-0.2c-0.1-0.3,1.5,9.6,1.3,9.1c0.1-2.2,1.1-19.6,1.1-19.6
				C843.5,130.5,843.1,129.9,843.1,129.9z"/>
			<g>
				<path class="st18" d="M838.3,319.3c0,0-3.6,11.5-3.7,14.3c-0.2,2.9,12.7,2.9,13.9,2.1c1.2-0.8,4.1-14.5,2.9-14.9
					C850.2,320.4,838.7,318,838.3,319.3z"/>
				<path class="st19" d="M837.3,320.2c0,0,2.1,2,5.7,3.4c3.6,1.5,8.3-2.6,8.3-2.6c5-11.6,11.8-84.4,11.8-84.4s-16.7-18.2-18-12.6
					s4.4,31,2.3,46.2L837.3,320.2z"/>
			</g>
			<g>
				<path class="st7" d="M860.5,320.9c0,0,4.6,8.5,5.8,9.2c1.2,0.7,9.6,0,10.4,0.6c0.8,0.7,0.8,5,0.8,5c-2,0.7-12.1,1.4-15.8,1.3
					s-13,0.3-15.2-1.3c-0.3-1,2.9-14.1,3.8-15.5C851.3,318.9,860.1,318.2,860.5,320.9z"/>
				<path class="st13" d="M879.9,220.7c0,0,0.2,46.1-2.9,56.3c-3.1,10.2-11.3,36.1-12,38.3c0,0,0,2.5-0.2,3.7s-2.4,5.8-3.6,6.7
					c-1.3,0.9-10.5,1.6-12.5-2.3c0,0,4-16.4,5.7-23.1c1.6-6.7,5.8-47.6,5.1-62.6c0,0-12.2-6.6-13.7-10.7c-1.3-3.7-2.2-8.1-2.1-8.7
					C843.7,217.9,879.9,220.7,879.9,220.7z"/>
			</g>
			<g>
				<path class="st10" d="M840.7,221.8c0,0,4.3-23.2-0.4-39s-14-34-9.7-41.4c0,0,3.5-0.9,8,0s12.6,0.6,12.6,0.6s8,0.5,10,1
					c2,0.5,15,10.9,23,12.3c8,1.4,18.9-22.8,20.6-25.8c1.7-3,10.5-1.4,10.8,1.5c0.3,2.8-8.3,28.5-17.8,33.4c-9.5,4.9-25,1.4-25,1.4
					s11.9,31.5,9,58.6C881.7,224.3,860,229.6,840.7,221.8z"/>
				<path class="st20" d="M854.2,142.1c0,0-1.2-4.3-1.8-4.6c-0.6-0.3-14.1,1.5-18.1,0c0,0-0.5,2.3,0,4.1
					C834.2,141.7,839,145.8,854.2,142.1z"/>
			</g>
			<g>
				<path class="st16" d="M877.6,110.7c-3.4,0.2-5-2-5.7-1.4s-0.9,3.1,1.8,6.6c2.7,3.5,4.8,5.9,4.8,5.9s-2.9,13-7.2,18.1
					c-4.3,5.1,6.6,3.1,8,3.7c0,0,5.3-12.4,6-19.7c0,0,6-11.4,6.6-13.6C887,110.8,882.3,110.5,877.6,110.7z"/>
			</g>
			<g>
				<path class="st10" d="M884.2,133.6c-0.3-2.8-9.1-4.5-10.8-1.5c-1.7,3-12.7,27.2-20.6,25.8c-5.5-1-13.5-6.3-18.6-9.6
					c1.2,2.6,2.5,5.2,4,7.6c2.5,4.2,4.5,8.5,6.3,12.9c5,0.8,15,1.6,21.9-1.9C876,162.1,884.5,136.4,884.2,133.6z"/>
			</g>
			<path class="st16" d="M857.2,94c0,0,0.2,7.1,3.3,17.2c3.2,10.4,4.5,12.3,5,14.5c2.1,10.6-17.6,10.2-22.9,6.1
				c-5.3-4.1-12.2-27.4-12.9-32.2C828.9,94.9,849.7,78.6,857.2,94z"/>
			<path class="st7" d="M839.2,119.4c0,0,5.4-3.4,2.7-13.2c-0.9-3.4-0.4-6.3-0.4-6.3s-1.2,2.1,5.3-4c2.1-2,10.5,0.9,13.6-1.5
				s8.8-12.6-1.4-15.9C848.5,75,837,72,841.6,75.2c17.8,12.1-11,9-17.2,17.1c0,0,1-3.3-0.6-3.3c-3.2,0-0.2,3.4-0.2,3.4
				s-2.1-2.8-3.4-0.3c-1.3,2.5,2.7,2.5,2.7,2.5s-8.7,11.2,2.5,22.6c0,0,9.5,8.7,9.8,10.7s2.9-1,2.9-1s-1.8,4.8,2.5,2.5
				C847.9,125.5,839.2,119.4,839.2,119.4z"/>
			<g>
				<path class="st16" d="M842.3,113.8c0,0-3.2-2.7-6.5-0.6c-3.3,2.1,1.1,10.6,7.9,5.4C843.7,118.6,845,117.2,842.3,113.8z"/>
				<path class="st21" d="M843.4,115.5C843.4,115.5,843.4,115.5,843.4,115.5c-1.1,0.9-2.4,1.2-3.6,0.4c-1-0.7-1.2-1.8-1.1-2.9
					c0-0.2,0.1-0.4,0.1-0.6c-1-0.1-2,0.1-3.1,0.8c-3.3,2.1,1.1,10.6,7.9,5.4C843.7,118.6,844.6,117.7,843.4,115.5z"/>
				<path class="st22" d="M843,117.7c0,0-4.8,0.8-6.7-2.1C836.3,115.6,837,120.7,843,117.7z"/>
			</g>
			<path class="st7" d="M853.9,97.7c0,0,1,1.4-0.3,3.1c-1.2,1.7-4.2-0.2-5.7,2.9s-2.3-2.8,3.7-4.2C851.6,99.5,852,96.6,853.9,97.7z"
				/>
			<path class="st23" d="M856.7,106.2c0,0-0.1,0.1-0.2,0.1c0,0,0,0,0,0s0,0,0,0c-0.3,0.2-0.8,0.6-1.7,0.9c-1.1,0.4-2.3,0.1-2.3,0.1
				s1.2,0.6,2.3,0.3c0.1,0,0.2-0.1,0.3-0.1c-0.1,0.1-0.2,0.1-0.3,0.1c-1.1,0.6-2.2,0.4-2.2,0.4s1.2,0.4,2.3-0.1
				c0.8-0.4,1.3-1.1,1.5-1.5C856.6,106.4,856.7,106.2,856.7,106.2z"/>
			<g>
				<path class="st24" d="M856.3,118.7c0.8,0.5,1.5,1,2.2,1.2c0.3,0.1,0.6,0.1,1,0c0.4-0.1,0.7-0.3,1.2-0.5
					c-0.1,0.5-0.4,0.9-0.8,1.2c-0.4,0.3-1.1,0.4-1.6,0.2c-0.5-0.2-0.9-0.5-1.3-0.8C856.6,119.7,856.4,119.2,856.3,118.7z"/>
			</g>
			<path class="st7" d="M840.8,105.2c0,0,4,4.8,5.8,9.4c0.3,0.8-0.6,1.6-1.4,1.2c-2-1.1-5.3-3-4.9-4.6
				C840.6,110.5,840.8,105.2,840.8,105.2z"/>
			<path class="st16" d="M859.8,109.4c1.3-2.1,7.4,1.9,1.2,4.8"/>
			<g class="st25">
				<path class="st20" d="M859.4,145.2c-1.3,0.7-2.6,1.6-3.7,2.6c-1.1,1-2,2.1-2.5,3.4c-0.6,1.3-0.8,2.7-0.7,4.2l0,0.5
					c0,0.2,0.1,0.4,0.1,0.5l0.2,1.1c0.2,0.7,0.4,1.4,0.6,2.2c-0.4-0.7-0.8-1.3-1.1-2c-0.2-0.7-0.6-1.5-0.6-2.2
					c-0.3-1.5-0.1-3.2,0.6-4.7c0.7-1.5,1.7-2.7,3-3.6C856.5,146.3,857.9,145.6,859.4,145.2z"/>
			</g>
			<ellipse class="st16" cx="879.6" cy="104.5" rx="1.9" ry="3.6"/>
			<ellipse class="st16" cx="882.9" cy="104.1" rx="1.9" ry="3.6"/>
			<ellipse class="st16" cx="886.5" cy="103.6" rx="1.9" ry="3.6"/>
			<ellipse class="st16" cx="890.2" cy="103.6" rx="1.9" ry="3.6"/>
			<g class="st25">
				<path class="st20" d="M843.2,175.7C843.2,175.7,843.2,175.7,843.2,175.7C843.2,175.7,843.2,175.7,843.2,175.7L843.2,175.7
					l0.1,0.2l0.1,0.3l0.3,0.6l0.5,1.2l0.9,2.4c0.6,1.6,1.1,3.3,1.6,4.9c1,3.3,1.9,6.6,2.5,10c0.7,3.4,1.2,6.8,1.2,10.3
					c0,1.7-0.1,3.5-0.4,5.2c-0.4,1.7-0.9,3.4-2.1,4.7c1.1-1.4,1.5-3.1,1.7-4.7c0.2-1.7,0.2-3.4,0.1-5.1c-0.2-3.4-0.8-6.8-1.4-10.1
					c-0.7-3.4-1.5-6.7-2.3-10c-0.4-1.7-0.9-3.3-1.3-5l-0.7-2.5l-0.4-1.2l-0.2-0.6l-0.1-0.3L843.2,175.7L843.2,175.7L843.2,175.7
					L843.2,175.7z"/>
			</g>
		</g>
		<path class="st2" d="M784.3,279.3c-1.9,0-3.6,0.5-5.1,1.4c-0.1-5.3-4.5-9.6-9.8-9.6c-2.2,0-4.2,0.7-5.8,1.9
			c-0.3-9.3-7.9-16.8-17.3-16.8c-6.7,0-12.5,3.8-15.4,9.4c-2.4-1.3-5.2-2-8.1-2c-8,0-14.8,5.5-16.7,12.9c-2.4-1.5-5.3-2.4-8.4-2.4
			c-8.8,0-15.9,7.1-15.9,15.9c0,7,4.5,12.9,10.8,15.1c1,0.5,2.2,0.8,3.4,0.8h62.2c0.8,0.2,1.7,0.3,2.6,0.3c4.7,0,8.6-3.3,9.6-7.7
			h11.3c0.8,0.2,1.7,0.3,2.6,0.3c5.4,0,9.8-4.4,9.8-9.8C794.2,283.7,789.8,279.3,784.3,279.3z"/>
	</g>
	<path class="st2" d="M584,195.3c-1.3,0-2.5,0.4-3.5,1c-0.1-3.6-3.1-6.5-6.7-6.5c-1.5,0-2.8,0.5-3.9,1.3
		c-0.2-6.4-5.4-11.5-11.8-11.5c-5.5,0-10.1,3.7-11.4,8.8c-1.7-1-3.6-1.6-5.7-1.6c-6,0-10.9,4.9-10.9,10.9c0,4.8,3.1,8.9,7.4,10.3
		c0.7,0.4,1.5,0.6,2.3,0.6h42.5c0.6,0.2,1.1,0.2,1.8,0.2c3.7,0,6.7-3,6.7-6.7C590.7,198.3,587.7,195.3,584,195.3z"/>
	<path class="st26" d="M493.9,224c-3.8,0-7.4,1.1-10.4,2.9c-0.3-10.8-9.2-19.5-20-19.5c-4.4,0-8.5,1.4-11.8,3.8
		c-0.5-19-16.1-34.3-35.3-34.3c-16.4,0-30.1,11.2-34.1,26.3c-5-3.1-10.8-4.8-17.1-4.8c-18,0-32.5,14.6-32.5,32.5
		c0,14.3,9.2,26.4,22.1,30.8c2.1,1.1,4.5,1.7,7,1.7h126.9c1.7,0.4,3.4,0.7,5.2,0.7c11.1,0,20.1-9,20.1-20.1
		C514,233,505,224,493.9,224z"/>
	<path class="st2" d="M1474.1,254.5c-2.3,0-4.4,0.6-6.3,1.8c-0.2-6.5-5.5-11.8-12.1-11.8c-2.7,0-5.1,0.9-7.1,2.3
		c-0.3-11.5-9.7-20.7-21.3-20.7c-9.9,0-18.2,6.7-20.6,15.9c-3-1.9-6.5-2.9-10.3-2.9c-10.8,0-19.6,8.8-19.6,19.6
		c0,8.6,5.6,16,13.3,18.6c1.3,0.7,2.7,1,4.2,1h76.7c1,0.3,2.1,0.4,3.2,0.4c6.7,0,12.1-5.4,12.1-12.1
		C1486.2,259.9,1480.8,254.5,1474.1,254.5z"/>
	<g>
		
			<ellipse transform="matrix(1.128069e-02 -0.9999 0.9999 1.128069e-02 696.9268 1719.6128)" class="st27" cx="1218" cy="507.4" rx="20.4" ry="66.8"/>
		<g>
			<g>
				<path class="st28" d="M1222.1,289.8c4.7-3.8,5.8-10-0.3-10.1c0,0-0.3-5.5-6.8-4.6c-6.5,0.9-3.9,4-3.9,4s-4.4-0.7-3.6,4.3
					C1208.3,288.5,1222.1,289.8,1222.1,289.8z"/>
				<path class="st29" d="M1236.8,303.1l-0.3,0c-5.9-4.9-13.7-9.4-13.2,17l-1.5,0.1C1221.6,320,1220.4,287.1,1236.8,303.1z"/>
				<path class="st29" d="M1222,318.1c-0.6-9.1-10.5-10.5-12.6-10l-0.1-0.5c0,0,10.2-1,13.3,7.7L1222,318.1z"/>
				<path class="st29" d="M1220.1,287.5l0.4-0.3c5.7,4.9,2.1,23.1,2.1,23.1l-0.8,2.1C1221.8,305.1,1225.3,291.6,1220.1,287.5z"/>
				<path class="st29" d="M1209.6,286.2c4.4,2.1,8.6,2.5,9.6,0.9c0.9-1.6-1.1-4.3-5.4-6.4c-1.3-0.6-2.7-1.2-4-1.5
					c0.7-0.1,1.3,0,1.3,0s-0.5-0.6-0.5-1.3c0.9,1.1,2.3,2,4.2,2.5c2.8,0.8,5.6,0.3,7-0.9c0,0.1,0,0.2,0,0.2c0.1,0,0.3,0,0.4,0
					c-0.7,0.7-1.2,1.6-1.6,2.6c-1,2.7-0.3,5.3,1.5,5.8c0.6,0.2,1.3,0.1,1.9-0.2c-0.5,0.7-1.2,1.3-1.9,1.9
					C1222.1,289.8,1213.6,289,1209.6,286.2C1209.6,286.2,1209.6,286.2,1209.6,286.2z"/>
				<path class="st28" d="M1233.3,304c0.8,9.2,11.7,11.9,10.5,7.3c0,0,4.8,2.4,6.2-0.8c1.4-3.1-5-6.6-5-6.6s3.7-0.6,1.3-2.9
					C1244,298.8,1232.7,296.7,1233.3,304z"/>
				<path class="st29" d="M1239.1,298.9c-1.2,0.1-5.9,1.2-4.5,3.3c1.7,2.5,11,1.5,11.5,1.5c-0.5,0.2-1,0.3-1,0.3s1.2,0.7,2.5,1.7
					c-3.7-1.6-7.3-1.9-8.3-0.4c-1.1,1.5,1.2,4.2,5.1,6.1c0.6,0.3,1.2,0.6,1.9,0.8c-1.3-0.2-2.4-0.8-2.4-0.8c0.1,0.5,0.1,0.9,0,1.2
					c0-0.1-0.1-0.1-0.1-0.2c-2.6-3.3-6-5.3-7.7-4.4c-0.5,0.2-0.7,0.7-0.8,1.3c-1-1.4-1.7-3.2-1.9-5.3
					C1233,300.2,1235.9,298.9,1239.1,298.9z"/>
				<path class="st28" d="M1211.7,307.3c0.6-5-0.2-7.5-6-8.1c-2.6-0.3-2.9,1.9-2.9,1.9s-2.6-3.6-5.3-1.5c-2.8,2.2-1.5,5.1,0.3,6.2
					c0,0-5.8,5,2.9,6.1C1209.5,312.9,1211.7,307.3,1211.7,307.3z"/>
				<path class="st29" d="M1210.2,308.3c-0.5-1.8-4.5-2.7-9-1.9c-2,0.3-3.7,0.9-5,1.6c0.5-1.2,1.7-2.2,1.7-2.2
					c-0.4-0.2-0.8-0.6-1.1-1c1.8,1.3,4,1.7,5.3,0.8c1.5-1.1,1.4-3.5-0.2-5.6c0.7,0.6,1.1,1.1,1.1,1.1s0.1-0.7,0.6-1.2
					c-0.3,1.4,0.3,3.1,1.9,4.4c2,1.6,4.8,2,6.6,1c0,0.6-0.1,1.3-0.2,2.1c0,0-0.5,1.2-1.8,2.3
					C1210.2,309.2,1210.3,308.7,1210.2,308.3z"/>
				<polygon class="st30" points="1203.4,320.5 1239.4,319.9 1236.8,352.6 1209.6,352.6 				"/>
				<path class="st31" d="M1208.1,320.4c1.5,13.2,9.6,27.3,16.4,27.3c6.8,0,13.1-14.4,14.1-27.8l0.9,0l-2.6,32.7h-27.2l-6.2-32.1
					L1208.1,320.4z"/>
				<polygon class="st32" points="1206.2,329 1210.7,350.5 1214.5,350.5 				"/>
				
					<rect x="1205.6" y="321.1" transform="matrix(-1 -1.224647e-16 1.224647e-16 -1 2444.4126 644.6096)" class="st31" width="33.2" height="2.4"/>
				<polygon class="st33" points="1240.6,321.9 1241.2,319.4 1201.9,319.4 1202.6,322.4 				"/>
			</g>
			<g>
				<rect x="1201.5" y="353.1" class="st34" width="7.9" height="172.5"/>
				
					<rect x="1223.3" y="326.8" transform="matrix(-1.836970e-16 1 -1 -1.836970e-16 1588.1351 -873.5012)" class="st34" width="15" height="60.9"/>
				
					<rect x="1217.6" y="366.3" transform="matrix(-1.510095e-05 1 -1 -1.510095e-05 1623.9724 -821.8334)" class="st34" width="10.5" height="69.5"/>
				<rect x="1253.4" y="353.1" class="st34" width="7.9" height="172.5"/>
				<rect x="1242.5" y="353.1" class="st34" width="3.9" height="172.5"/>
				<rect x="1189.4" y="353.1" class="st34" width="3.9" height="172.5"/>
				<rect x="1182.3" y="353.1" class="st35" width="7.9" height="172.5"/>
				
					<rect x="1205.3" y="326.8" transform="matrix(-1.836970e-16 1 -1 -1.836970e-16 1570.1125 -855.4786)" class="st35" width="15" height="60.9"/>
				
					<rect x="1207.5" y="358.6" transform="matrix(-1.836970e-16 1 -1 -1.836970e-16 1598.2765 -827.3149)" class="st35" width="10.5" height="53.7"/>
				<rect x="1235.3" y="353.1" class="st35" width="7.9" height="172.5"/>
				<rect x="1182.3" y="355.3" class="st34" width="63.5" height="2.9"/>
			</g>
		</g>
	</g>
	<g>
		<g>
			<path class="st36" d="M1121.6,453.6c-1.7-23-21.4-40.1-44.1-38.2c-22.6,1.9-39.6,22-37.9,45c1.7,23,21.4,40.1,44.1,38.2
				C1106.3,496.8,1123.3,476.6,1121.6,453.6z"/>
			<path class="st37" d="M1117.4,449.5c-1.6-18.2-17.9-32.6-36.5-32c-18.6,0.5-32.4,15.7-30.9,33.9c1.6,18.2,17.9,32.6,36.5,32
				C1105.1,482.9,1118.9,467.7,1117.4,449.5z"/>
			<path class="st38" d="M1108.4,434.1c-0.8-5.7-9.5-12.1-19.4-14.3c-9.9-2.2-17.2,0.6-16.4,6.3c0.8,5.7,9.5,12.1,19.4,14.3
				C1101.9,442.6,1109.2,439.8,1108.4,434.1z"/>
			<path class="st38" d="M1115.2,450.3c1.4-1.3,1.4-4.7,0-7.5c-1.4-2.8-3.6-4-4.9-2.6c-1.4,1.3-1.4,4.7,0,7.5
				C1111.6,450.5,1113.8,451.7,1115.2,450.3z"/>
		</g>
		
			<ellipse transform="matrix(1.128069e-02 -0.9999 0.9999 1.128069e-02 556.9999 1586.1727)" class="st39" cx="1080.6" cy="511.4" rx="6.7" ry="56.5"/>
	</g>
</g>
</svg>
