<?xml version="1.0" encoding="utf-8"?>
<!-- Generator: Adobe Illustrator 21.0.0, SVG Export Plug-In . SVG Version: 6.00 Build 0)  -->
<svg version="1.1" id="Layer_1" xmlns="http://www.w3.org/2000/svg" xmlns:xlink="http://www.w3.org/1999/xlink" x="0px" y="0px"
	 viewBox="0 0 360 200" style="enable-background:new 0 0 360 200;" xml:space="preserve">
<style type="text/css">
	.st0{fill:none;stroke:#1F6666;stroke-width:2;stroke-miterlimit:10;}
	.st1{fill:#1CA0A4;}
	.st2{fill:#1F6666;}
	.st3{fill:#F27221;}
	.st4{fill:#003366;}
	.st5{fill:#F1F0F0;}
	.st6{fill:#077E9E;}
	.st7{fill:#E4E5E0;}
	.st8{opacity:0.61;}
	.st9{clip-path:url(#SVGID_3_);fill:url(#SVGID_4_);}
	.st10{clip-path:url(#SVGID_3_);fill:url(#SVGID_5_);}
	.st11{clip-path:url(#SVGID_3_);fill:url(#SVGID_6_);}
</style>
<line class="st0" x1="237.6" y1="18.8" x2="237.8" y2="120.4"/>
<circle class="st1" cx="214.2" cy="30.9" r="3"/>
<g>
	<path class="st2" d="M144.1,28.6h-1.9v5.1h-0.8v-5.1h-1.9V28h4.5V28.6z"/>
	<path class="st2" d="M145.6,30.1c0.1-0.2,0.3-0.4,0.5-0.5c0.2-0.1,0.5-0.2,0.7-0.2c0.5,0,0.8,0.1,1.1,0.4c0.3,0.3,0.4,0.7,0.4,1.3
		v2.7h-0.8v-2.7c0-0.4-0.1-0.6-0.2-0.8c-0.2-0.2-0.4-0.3-0.7-0.3c-0.2,0-0.4,0-0.6,0.1c-0.2,0.1-0.3,0.2-0.4,0.4v3.2h-0.8v-6.2h0.8
		V30.1z"/>
	<path class="st2" d="M149.2,31.6c0-0.6,0.2-1.2,0.5-1.6c0.3-0.4,0.8-0.6,1.4-0.6c0.6,0,1.1,0.2,1.4,0.6c0.3,0.4,0.5,0.9,0.5,1.6
		v0.1c0,0.6-0.2,1.2-0.5,1.6c-0.3,0.4-0.8,0.6-1.4,0.6c-0.6,0-1.1-0.2-1.4-0.6C149.4,32.8,149.2,32.3,149.2,31.6L149.2,31.6z
		 M152.4,28.6L152.4,28.6l-0.6,0.1l-0.6-0.6l-0.6,0.6H150v-0.1l1-0.9h0.5L152.4,28.6z M150,31.7c0,0.5,0.1,0.8,0.3,1.1
		c0.2,0.3,0.5,0.4,0.9,0.4c0.4,0,0.7-0.1,0.8-0.4c0.2-0.3,0.3-0.7,0.3-1.1v-0.1c0-0.4-0.1-0.8-0.3-1.1c-0.2-0.3-0.5-0.4-0.9-0.4
		c-0.4,0-0.7,0.1-0.8,0.4C150.1,30.8,150,31.1,150,31.7L150,31.7z"/>
	<path class="st2" d="M154.7,29.5l0.1,0.6c0.1-0.2,0.3-0.4,0.5-0.5c0.2-0.1,0.5-0.2,0.7-0.2c0.5,0,0.8,0.1,1.1,0.4
		c0.3,0.3,0.4,0.7,0.4,1.3v2.7h-0.8v-2.7c0-0.4-0.1-0.6-0.2-0.8c-0.1-0.2-0.4-0.2-0.7-0.2c-0.2,0-0.4,0-0.6,0.1
		c-0.2,0.1-0.3,0.2-0.4,0.4v3.2H154v-4.3H154.7z"/>
	<path class="st2" d="M158.5,31.7c0-0.7,0.1-1.2,0.4-1.7c0.3-0.4,0.7-0.6,1.2-0.6c0.3,0,0.5,0.1,0.7,0.2c0.2,0.1,0.4,0.3,0.5,0.5
		l0.1-0.6h0.6v4.3c0,0.5-0.2,1-0.5,1.3c-0.3,0.3-0.8,0.4-1.4,0.4c-0.2,0-0.4,0-0.7-0.1c-0.2-0.1-0.4-0.1-0.6-0.2l0.1-0.6
		c0.2,0.1,0.3,0.1,0.5,0.2c0.2,0,0.4,0.1,0.6,0.1c0.4,0,0.7-0.1,0.8-0.3c0.2-0.2,0.3-0.4,0.3-0.8v-0.5c-0.1,0.2-0.3,0.3-0.5,0.4
		c-0.2,0.1-0.4,0.1-0.7,0.1c-0.5,0-0.9-0.2-1.2-0.6C158.6,32.9,158.5,32.4,158.5,31.7L158.5,31.7z M159.3,31.8c0,0.4,0.1,0.8,0.3,1
		c0.2,0.3,0.4,0.4,0.8,0.4c0.2,0,0.4-0.1,0.6-0.2s0.3-0.3,0.4-0.5v-2c-0.1-0.2-0.2-0.3-0.4-0.4c-0.2-0.1-0.4-0.2-0.6-0.2
		c-0.4,0-0.6,0.2-0.8,0.5C159.4,30.8,159.3,31.2,159.3,31.8L159.3,31.8z"/>
	<path class="st2" d="M166.3,28.5v1h0.8v0.6h-0.8v2.6c0,0.2,0,0.3,0.1,0.4c0.1,0.1,0.2,0.1,0.3,0.1c0,0,0.1,0,0.2,0
		c0.1,0,0.1,0,0.1,0l0.1,0.5c-0.1,0-0.1,0.1-0.3,0.1c-0.1,0-0.2,0-0.3,0c-0.3,0-0.6-0.1-0.8-0.3c-0.2-0.2-0.3-0.5-0.3-0.9v-2.6h-0.7
		v-0.6h0.7v-1H166.3z"/>
	<path class="st2" d="M168.8,28.4H168v-0.8h0.8V28.4z M168.8,33.8H168v-4.3h0.8V33.8z"/>
	<path class="st2" d="M170.7,29.5l0.1,0.6c0.1-0.2,0.3-0.4,0.5-0.5c0.2-0.1,0.5-0.2,0.7-0.2c0.5,0,0.8,0.1,1.1,0.4
		c0.3,0.3,0.4,0.7,0.4,1.3v2.7h-0.8v-2.7c0-0.4-0.1-0.6-0.2-0.8c-0.1-0.2-0.4-0.2-0.7-0.2c-0.2,0-0.4,0-0.6,0.1
		c-0.2,0.1-0.3,0.2-0.4,0.4v3.2H170v-4.3H170.7z"/>
	<path class="st2" d="M178.3,33.2c0.2,0,0.4-0.1,0.6-0.2c0.2-0.2,0.3-0.4,0.3-0.6h0.7l0,0c0,0.4-0.1,0.7-0.5,1
		c-0.3,0.3-0.7,0.4-1.1,0.4c-0.6,0-1.1-0.2-1.4-0.6c-0.3-0.4-0.5-0.9-0.5-1.5v-0.2c0-0.6,0.2-1.1,0.5-1.5c0.3-0.4,0.8-0.6,1.4-0.6
		c0.5,0,0.9,0.1,1.2,0.4c0.3,0.3,0.5,0.7,0.4,1.1l0,0h-0.7c0-0.3-0.1-0.5-0.3-0.7c-0.2-0.2-0.4-0.3-0.6-0.3c-0.4,0-0.7,0.1-0.8,0.4
		c-0.2,0.3-0.3,0.7-0.3,1.1v0.2c0,0.4,0.1,0.8,0.3,1.1C177.6,33.1,177.9,33.2,178.3,33.2z"/>
	<path class="st2" d="M183.5,33.8c0-0.1,0-0.2-0.1-0.3c0-0.1,0-0.2,0-0.3c-0.1,0.2-0.3,0.4-0.6,0.5s-0.5,0.2-0.8,0.2
		c-0.4,0-0.8-0.1-1-0.3c-0.2-0.2-0.3-0.5-0.3-0.9c0-0.4,0.2-0.7,0.5-1c0.3-0.2,0.8-0.3,1.3-0.3h0.8v-0.4c0-0.3-0.1-0.4-0.2-0.6
		c-0.2-0.1-0.4-0.2-0.6-0.2c-0.3,0-0.5,0.1-0.6,0.2c-0.2,0.1-0.2,0.3-0.2,0.5l-0.7,0l0,0c0-0.3,0.1-0.6,0.4-0.9
		c0.3-0.3,0.7-0.4,1.2-0.4c0.5,0,0.9,0.1,1.2,0.4c0.3,0.2,0.4,0.6,0.4,1.1v2.1c0,0.2,0,0.3,0,0.4s0,0.3,0.1,0.4H183.5z M182.2,33.2
		c0.3,0,0.5-0.1,0.8-0.2c0.2-0.1,0.4-0.3,0.4-0.5v-0.7h-0.9c-0.3,0-0.6,0.1-0.8,0.2c-0.2,0.2-0.3,0.3-0.3,0.6c0,0.2,0.1,0.3,0.2,0.5
		C181.8,33.1,182,33.2,182.2,33.2z M182.9,27.7h0.9l0,0l-1.1,1h-0.6L182.9,27.7z"/>
	<path class="st2" d="M188,29.5l0.1,0.6c0.1-0.2,0.3-0.4,0.5-0.5c0.2-0.1,0.5-0.2,0.7-0.2c0.5,0,0.8,0.1,1.1,0.4
		c0.3,0.3,0.4,0.7,0.4,1.3v2.7H190v-2.7c0-0.4-0.1-0.6-0.2-0.8c-0.1-0.2-0.4-0.2-0.7-0.2c-0.2,0-0.4,0-0.6,0.1
		c-0.2,0.1-0.3,0.2-0.4,0.4v3.2h-0.8v-4.3H188z"/>
	<path class="st2" d="M192.7,30.1c0.1-0.2,0.3-0.4,0.5-0.5c0.2-0.1,0.5-0.2,0.7-0.2c0.5,0,0.8,0.1,1.1,0.4c0.3,0.3,0.4,0.7,0.4,1.3
		v2.7h-0.8v-2.7c0-0.4-0.1-0.6-0.2-0.8c-0.2-0.2-0.4-0.3-0.7-0.3c-0.2,0-0.4,0-0.6,0.1c-0.2,0.1-0.3,0.2-0.4,0.4v3.2h-0.8v-6.2h0.8
		V30.1z"/>
	<path class="st2" d="M199.1,33.8c0-0.1,0-0.2-0.1-0.3c0-0.1,0-0.2,0-0.3c-0.1,0.2-0.3,0.4-0.6,0.5s-0.5,0.2-0.8,0.2
		c-0.4,0-0.8-0.1-1-0.3c-0.2-0.2-0.3-0.5-0.3-0.9c0-0.4,0.2-0.7,0.5-1c0.3-0.2,0.8-0.3,1.3-0.3h0.8v-0.4c0-0.3-0.1-0.4-0.2-0.6
		c-0.2-0.1-0.4-0.2-0.6-0.2c-0.3,0-0.5,0.1-0.6,0.2c-0.2,0.1-0.2,0.3-0.2,0.5l-0.7,0l0,0c0-0.3,0.1-0.6,0.4-0.9
		c0.3-0.3,0.7-0.4,1.2-0.4c0.5,0,0.9,0.1,1.2,0.4c0.3,0.2,0.4,0.6,0.4,1.1v2.1c0,0.2,0,0.3,0,0.4s0,0.3,0.1,0.4H199.1z M199.4,28.6
		L199.4,28.6l-0.6,0.1l-0.6-0.6l-0.6,0.6h-0.6v-0.1l1-0.9h0.5L199.4,28.6z M197.8,33.2c0.3,0,0.5-0.1,0.8-0.2
		c0.2-0.1,0.4-0.3,0.4-0.5v-0.7h-0.9c-0.3,0-0.6,0.1-0.8,0.2c-0.2,0.2-0.3,0.3-0.3,0.6c0,0.2,0.1,0.3,0.2,0.5
		C197.4,33.1,197.6,33.2,197.8,33.2z"/>
	<path class="st2" d="M201.7,29.5l0.1,0.6c0.1-0.2,0.3-0.4,0.5-0.5c0.2-0.1,0.5-0.2,0.7-0.2c0.5,0,0.8,0.1,1.1,0.4
		c0.3,0.3,0.4,0.7,0.4,1.3v2.7h-0.8v-2.7c0-0.4-0.1-0.6-0.2-0.8c-0.1-0.2-0.4-0.2-0.7-0.2c-0.2,0-0.4,0-0.6,0.1
		c-0.2,0.1-0.3,0.2-0.4,0.4v3.2H201v-4.3H201.7z"/>
</g>
<circle class="st1" cx="259.8" cy="49.1" r="3"/>
<g>
	<path class="st2" d="M277.4,47.3h-1.8v4.8h-0.7v-4.8h-1.7v-0.6h4.2V47.3z"/>
	<path class="st2" d="M278.7,48.6c0.1-0.2,0.3-0.3,0.5-0.4c0.2-0.1,0.4-0.2,0.7-0.2c0.4,0,0.7,0.1,1,0.4c0.2,0.3,0.4,0.6,0.4,1.2
		v2.5h-0.7v-2.5c0-0.3-0.1-0.6-0.2-0.7c-0.1-0.2-0.3-0.2-0.6-0.2c-0.2,0-0.4,0-0.6,0.1c-0.2,0.1-0.3,0.2-0.4,0.4v3H278v-5.7h0.7
		V48.6z"/>
	<path class="st2" d="M282.1,50.1c0-0.6,0.2-1.1,0.5-1.4c0.3-0.4,0.7-0.6,1.3-0.6c0.5,0,1,0.2,1.3,0.6c0.3,0.4,0.5,0.9,0.5,1.4v0.1
		c0,0.6-0.2,1.1-0.5,1.4c-0.3,0.4-0.7,0.6-1.3,0.6c-0.5,0-1-0.2-1.3-0.6S282.1,50.7,282.1,50.1L282.1,50.1z M285,47.3L285,47.3
		l-0.6,0.1l-0.5-0.5l-0.5,0.5h-0.6v-0.1l0.9-0.9h0.4L285,47.3z M282.8,50.1c0,0.4,0.1,0.8,0.3,1c0.2,0.3,0.4,0.4,0.8,0.4
		c0.3,0,0.6-0.1,0.8-0.4c0.2-0.3,0.3-0.6,0.3-1v-0.1c0-0.4-0.1-0.8-0.3-1c-0.2-0.3-0.4-0.4-0.8-0.4c-0.3,0-0.6,0.1-0.8,0.4
		C282.9,49.3,282.8,49.6,282.8,50.1L282.8,50.1z"/>
	<path class="st2" d="M287.2,48.1l0.1,0.6c0.1-0.2,0.3-0.4,0.5-0.5c0.2-0.1,0.4-0.2,0.7-0.2c0.4,0,0.8,0.1,1,0.4
		c0.2,0.2,0.4,0.6,0.4,1.2v2.5H289v-2.5c0-0.3-0.1-0.6-0.2-0.7s-0.3-0.2-0.6-0.2c-0.2,0-0.4,0-0.6,0.1c-0.2,0.1-0.3,0.2-0.4,0.4v2.9
		h-0.7v-4H287.2z"/>
	<path class="st2" d="M290.7,50.2c0-0.6,0.1-1.1,0.4-1.5c0.3-0.4,0.7-0.6,1.1-0.6c0.3,0,0.5,0.1,0.7,0.2c0.2,0.1,0.3,0.2,0.5,0.4
		l0.1-0.5h0.6v4c0,0.5-0.1,0.9-0.4,1.2c-0.3,0.3-0.7,0.4-1.3,0.4c-0.2,0-0.4,0-0.6-0.1c-0.2-0.1-0.4-0.1-0.6-0.2l0.1-0.6
		c0.1,0.1,0.3,0.1,0.5,0.2c0.2,0,0.4,0.1,0.6,0.1c0.4,0,0.6-0.1,0.8-0.2c0.2-0.2,0.2-0.4,0.2-0.7v-0.4c-0.1,0.2-0.3,0.3-0.5,0.4
		c-0.2,0.1-0.4,0.1-0.6,0.1c-0.5,0-0.9-0.2-1.1-0.5C290.8,51.3,290.7,50.8,290.7,50.2L290.7,50.2z M291.4,50.2c0,0.4,0.1,0.7,0.2,1
		c0.2,0.2,0.4,0.4,0.8,0.4c0.2,0,0.4,0,0.5-0.1c0.1-0.1,0.3-0.2,0.4-0.4v-1.8c-0.1-0.2-0.2-0.3-0.4-0.4c-0.1-0.1-0.3-0.1-0.5-0.1
		c-0.3,0-0.6,0.1-0.8,0.4S291.4,49.7,291.4,50.2L291.4,50.2z"/>
	<path class="st2" d="M297.9,47.2v1h0.7v0.5h-0.7V51c0,0.2,0,0.3,0.1,0.4c0.1,0.1,0.2,0.1,0.3,0.1c0,0,0.1,0,0.1,0
		c0.1,0,0.1,0,0.1,0l0.1,0.5c-0.1,0-0.1,0.1-0.2,0.1c-0.1,0-0.2,0-0.3,0c-0.3,0-0.5-0.1-0.7-0.3c-0.2-0.2-0.3-0.5-0.3-0.8v-2.4h-0.6
		v-0.5h0.6v-1H297.9z"/>
	<path class="st2" d="M300.2,47.1h-0.7v-0.7h0.7V47.1z M300.2,52.1h-0.7v-4h0.7V52.1z"/>
	<path class="st2" d="M301.9,48.1l0.1,0.6c0.1-0.2,0.3-0.4,0.5-0.5c0.2-0.1,0.4-0.2,0.7-0.2c0.4,0,0.8,0.1,1,0.4
		c0.2,0.2,0.4,0.6,0.4,1.2v2.5h-0.7v-2.5c0-0.3-0.1-0.6-0.2-0.7c-0.1-0.1-0.3-0.2-0.6-0.2c-0.2,0-0.4,0-0.6,0.1
		c-0.2,0.1-0.3,0.2-0.4,0.4v2.9h-0.7v-4H301.9z"/>
	<path class="st2" d="M309.7,51c0-0.2-0.1-0.3-0.2-0.4c-0.1-0.1-0.3-0.2-0.7-0.3c-0.5-0.1-0.8-0.2-1.1-0.4c-0.2-0.2-0.4-0.4-0.4-0.7
		c0-0.3,0.1-0.6,0.4-0.8c0.3-0.2,0.6-0.3,1.1-0.3c0.4,0,0.8,0.1,1.1,0.4c0.3,0.2,0.4,0.5,0.4,0.9l0,0h-0.7c0-0.2-0.1-0.3-0.2-0.5
		c-0.1-0.1-0.3-0.2-0.6-0.2c-0.3,0-0.4,0.1-0.6,0.2c-0.1,0.1-0.2,0.3-0.2,0.4c0,0.2,0.1,0.3,0.2,0.4c0.1,0.1,0.3,0.2,0.7,0.2
		c0.5,0.1,0.9,0.2,1.1,0.4c0.3,0.2,0.4,0.4,0.4,0.7c0,0.4-0.1,0.6-0.4,0.9c-0.3,0.2-0.7,0.3-1.1,0.3c-0.5,0-0.9-0.1-1.2-0.4
		c-0.3-0.3-0.4-0.6-0.4-0.9l0,0h0.7c0,0.3,0.1,0.4,0.3,0.6c0.2,0.1,0.4,0.2,0.6,0.2c0.3,0,0.5-0.1,0.6-0.2
		C309.6,51.3,309.7,51.2,309.7,51z"/>
	<path class="st2" d="M315.8,47.6L315.8,47.6c0,0.5-0.1,0.8-0.3,1c-0.2,0.2-0.6,0.4-1,0.4v3.1h-0.6l0-0.6c-0.1,0.2-0.3,0.4-0.5,0.5
		c-0.2,0.1-0.4,0.2-0.7,0.2c-0.4,0-0.8-0.1-1-0.4c-0.2-0.3-0.4-0.7-0.4-1.3v-2.3h0.7v2.3c0,0.4,0.1,0.7,0.2,0.9
		c0.1,0.2,0.3,0.2,0.6,0.2c0.3,0,0.5-0.1,0.6-0.2c0.2-0.1,0.3-0.3,0.4-0.4v-2.8h0.7v0.4l0,0c0.2,0,0.4-0.1,0.5-0.3
		c0.1-0.2,0.2-0.4,0.2-0.7H315.8z M313.3,46.5h0.8l0,0l-1,0.9h-0.5L313.3,46.5z"/>
	<path class="st2" d="M317.3,51.6c0.2,0,0.4-0.1,0.6-0.2c0.2-0.1,0.2-0.3,0.2-0.5h0.6l0,0c0,0.3-0.1,0.6-0.4,0.9
		c-0.3,0.3-0.7,0.4-1.1,0.4c-0.6,0-1-0.2-1.3-0.6c-0.3-0.4-0.5-0.8-0.5-1.4V50c0-0.6,0.2-1,0.5-1.4c0.3-0.4,0.7-0.6,1.3-0.6
		c0.4,0,0.8,0.1,1.1,0.4c0.3,0.3,0.4,0.6,0.4,1l0,0h-0.7c0-0.2-0.1-0.4-0.2-0.6c-0.2-0.2-0.4-0.3-0.6-0.3c-0.4,0-0.6,0.1-0.8,0.4
		c-0.2,0.3-0.2,0.6-0.2,1v0.2c0,0.4,0.1,0.7,0.2,1C316.7,51.4,316.9,51.6,317.3,51.6z"/>
	<path class="st2" d="M322.6,50.2h-0.4v1.8h-0.7v-5.7h0.7v3.3h0.4l1.2-1.6h0.9l-1.4,1.8l1.6,2.1h-0.9L322.6,50.2z"/>
	<path class="st2" d="M326,48.6c0.1-0.2,0.3-0.3,0.5-0.4s0.4-0.2,0.7-0.2c0.4,0,0.7,0.1,1,0.4c0.2,0.3,0.4,0.6,0.4,1.2v2.5h-0.7
		v-2.5c0-0.3-0.1-0.6-0.2-0.7c-0.1-0.2-0.3-0.2-0.6-0.2c-0.2,0-0.4,0-0.6,0.1c-0.2,0.1-0.3,0.2-0.4,0.4v3h-0.7v-5.7h0.7V48.6z"/>
	<path class="st2" d="M329.4,50.1c0-0.6,0.2-1.1,0.5-1.4c0.3-0.4,0.7-0.6,1.3-0.6c0.5,0,1,0.2,1.3,0.6c0.3,0.4,0.5,0.9,0.5,1.4v0.1
		c0,0.6-0.2,1.1-0.5,1.4c-0.3,0.4-0.7,0.6-1.3,0.6c-0.5,0-1-0.2-1.3-0.6C329.6,51.2,329.4,50.7,329.4,50.1L329.4,50.1z M330.1,50.1
		c0,0.4,0.1,0.8,0.3,1c0.2,0.3,0.4,0.4,0.8,0.4c0.3,0,0.6-0.1,0.8-0.4c0.2-0.3,0.3-0.6,0.3-1v-0.1c0-0.4-0.1-0.8-0.3-1
		c-0.2-0.3-0.4-0.4-0.8-0.4c-0.3,0-0.6,0.1-0.8,0.4C330.2,49.3,330.1,49.6,330.1,50.1L330.1,50.1z M330.9,47.5l0-0.6
		c0.2,0,0.3,0,0.4-0.1c0.1,0,0.1-0.1,0.1-0.2c0-0.1-0.1-0.2-0.2-0.2c-0.1,0-0.2-0.1-0.4-0.1l0-0.4c0.4,0,0.6,0.1,0.8,0.2
		c0.2,0.1,0.3,0.3,0.3,0.5c0,0.2-0.1,0.3-0.2,0.4c-0.1,0.1-0.2,0.1-0.4,0.2l0,0.3H330.9z"/>
	<path class="st2" d="M335.5,52.1c-0.6,0-1-0.2-1.3-0.5c-0.3-0.4-0.5-0.8-0.5-1.4V50c0-0.6,0.2-1,0.5-1.4c0.3-0.4,0.7-0.6,1.2-0.6
		c0.5,0,0.9,0.2,1.2,0.5s0.4,0.8,0.4,1.3v0.4h-2.5l0,0c0,0.4,0.1,0.7,0.3,1c0.2,0.2,0.4,0.4,0.8,0.4c0.2,0,0.5,0,0.6-0.1
		c0.2-0.1,0.3-0.2,0.5-0.3l0.3,0.5c-0.1,0.1-0.3,0.3-0.6,0.3C336.1,52.1,335.8,52.1,335.5,52.1z M335.3,48.6c-0.3,0-0.5,0.1-0.6,0.3
		c-0.2,0.2-0.3,0.4-0.3,0.7l0,0h1.8v-0.1c0-0.3-0.1-0.5-0.2-0.7C335.9,48.7,335.6,48.6,335.3,48.6z"/>
</g>
<circle class="st1" cx="214.1" cy="83.2" r="3"/>
<g>
	<path class="st2" d="M143.5,86.2h-0.9l-3.1-4.9l0,0v4.9h-0.9v-6.4h0.9l3.1,4.9l0,0v-4.9h0.9V86.2z"/>
	<path class="st2" d="M145.7,82c0.2-0.2,0.4-0.4,0.6-0.5c0.2-0.1,0.5-0.2,0.8-0.2c0.5,0,0.9,0.2,1.2,0.5c0.3,0.3,0.4,0.8,0.4,1.4v3
		h-0.9v-3c0-0.4-0.1-0.7-0.3-0.9c-0.2-0.2-0.4-0.3-0.8-0.3c-0.3,0-0.5,0.1-0.7,0.2c-0.2,0.1-0.3,0.2-0.5,0.4v3.6h-0.9v-6.9h0.9V82z"
		/>
	<path class="st2" d="M153,85.5c-0.2,0.3-0.3,0.5-0.6,0.6c-0.2,0.1-0.5,0.2-0.8,0.2c-0.5,0-0.9-0.2-1.2-0.5
		c-0.3-0.3-0.4-0.9-0.4-1.6v-2.8h0.9v2.8c0,0.5,0.1,0.9,0.2,1.1c0.2,0.2,0.4,0.3,0.7,0.3c0.3,0,0.6-0.1,0.8-0.2
		c0.2-0.1,0.4-0.3,0.5-0.5v-3.4h0.9v4.8h-0.8L153,85.5z"/>
	<path class="st2" d="M159.3,85.6c0.3,0,0.5-0.1,0.7-0.3c0.2-0.2,0.3-0.4,0.3-0.7h0.8l0,0c0,0.4-0.2,0.8-0.5,1.1
		c-0.4,0.3-0.8,0.5-1.3,0.5c-0.7,0-1.2-0.2-1.6-0.7c-0.4-0.5-0.5-1-0.5-1.7v-0.2c0-0.7,0.2-1.2,0.5-1.7c0.4-0.5,0.9-0.7,1.6-0.7
		c0.5,0,1,0.2,1.3,0.5c0.3,0.3,0.5,0.7,0.5,1.2l0,0h-0.8c0-0.3-0.1-0.5-0.3-0.7c-0.2-0.2-0.4-0.3-0.7-0.3c-0.4,0-0.7,0.2-0.9,0.5
		c-0.2,0.3-0.3,0.7-0.3,1.2v0.2c0,0.5,0.1,0.9,0.3,1.2C158.5,85.4,158.8,85.6,159.3,85.6z"/>
	<path class="st2" d="M162.6,79.8H162l-0.9-1.1h0.9L162.6,79.8z M165,86.2c0-0.1-0.1-0.3-0.1-0.4c0-0.1,0-0.2,0-0.3
		c-0.2,0.2-0.4,0.4-0.6,0.6s-0.5,0.2-0.8,0.2c-0.5,0-0.9-0.1-1.1-0.4c-0.3-0.3-0.4-0.6-0.4-1.1c0-0.5,0.2-0.8,0.6-1.1
		c0.4-0.3,0.9-0.4,1.5-0.4h0.9v-0.5c0-0.3-0.1-0.5-0.3-0.7c-0.2-0.2-0.4-0.2-0.7-0.2c-0.3,0-0.5,0.1-0.7,0.2
		c-0.2,0.1-0.3,0.3-0.3,0.5l-0.8,0l0,0c0-0.3,0.1-0.7,0.5-1c0.3-0.3,0.8-0.4,1.3-0.4c0.5,0,1,0.1,1.3,0.4c0.3,0.3,0.5,0.7,0.5,1.2
		v2.3c0,0.2,0,0.3,0,0.5c0,0.2,0,0.3,0.1,0.5H165z M165.6,80.6L165.6,80.6l-0.9,0l-0.7-0.7l-0.7,0.7h-0.9l0,0l1.3-1.1h0.7
		L165.6,80.6z M163.6,85.5c0.3,0,0.6-0.1,0.9-0.2c0.3-0.2,0.4-0.3,0.5-0.6V84h-1c-0.4,0-0.6,0.1-0.8,0.3c-0.2,0.2-0.3,0.4-0.3,0.6
		c0,0.2,0.1,0.4,0.2,0.5S163.3,85.5,163.6,85.5z"/>
	<path class="st2" d="M170.1,85.5c-0.2,0.3-0.3,0.5-0.6,0.6c-0.2,0.1-0.5,0.2-0.8,0.2c-0.5,0-0.9-0.2-1.2-0.5
		c-0.3-0.3-0.4-0.9-0.4-1.6v-2.8h0.9v2.8c0,0.5,0.1,0.9,0.2,1.1c0.2,0.2,0.4,0.3,0.7,0.3c0.3,0,0.6-0.1,0.8-0.2
		c0.2-0.1,0.4-0.3,0.5-0.5v-3.4h0.9v4.8h-0.8L170.1,85.5z"/>
	<path class="st2" d="M178.6,84c0,0.7-0.2,1.2-0.5,1.7c-0.3,0.4-0.8,0.6-1.4,0.6c-0.3,0-0.6-0.1-0.8-0.2c-0.2-0.1-0.4-0.3-0.6-0.6
		l-0.1,0.6h-0.7v-6.9h0.9V82c0.2-0.2,0.3-0.4,0.6-0.5c0.2-0.1,0.5-0.2,0.8-0.2c0.6,0,1,0.2,1.4,0.7C178.4,82.5,178.6,83.1,178.6,84
		L178.6,84z M177.7,83.9c0-0.5-0.1-1-0.3-1.3c-0.2-0.3-0.5-0.5-0.9-0.5c-0.3,0-0.5,0.1-0.7,0.2c-0.2,0.1-0.3,0.3-0.4,0.5v2.1
		c0.1,0.2,0.3,0.4,0.4,0.6c0.2,0.1,0.4,0.2,0.7,0.2c0.4,0,0.7-0.1,0.9-0.4C177.6,84.8,177.7,84.5,177.7,83.9L177.7,83.9z"/>
	<path class="st2" d="M182.5,86.2c0-0.1-0.1-0.3-0.1-0.4c0-0.1,0-0.2,0-0.3c-0.2,0.2-0.4,0.4-0.6,0.6c-0.3,0.2-0.5,0.2-0.8,0.2
		c-0.5,0-0.9-0.1-1.1-0.4c-0.3-0.3-0.4-0.6-0.4-1.1c0-0.5,0.2-0.8,0.6-1.1c0.4-0.3,0.9-0.4,1.5-0.4h0.9v-0.5c0-0.3-0.1-0.5-0.3-0.7
		c-0.2-0.2-0.4-0.2-0.7-0.2c-0.3,0-0.5,0.1-0.7,0.2c-0.2,0.1-0.3,0.3-0.3,0.5l-0.8,0l0,0c0-0.3,0.1-0.7,0.5-1
		c0.3-0.3,0.8-0.4,1.3-0.4c0.5,0,1,0.1,1.3,0.4c0.3,0.3,0.5,0.7,0.5,1.2v2.3c0,0.2,0,0.3,0,0.5c0,0.2,0,0.3,0.1,0.5H182.5z
		 M181.1,85.5c0.3,0,0.6-0.1,0.9-0.2c0.3-0.2,0.4-0.3,0.5-0.6V84h-1c-0.4,0-0.6,0.1-0.8,0.3c-0.2,0.2-0.3,0.4-0.3,0.6
		c0,0.2,0.1,0.4,0.2,0.5C180.6,85.5,180.8,85.5,181.1,85.5z M181.1,80.6l0-0.7c0.2,0,0.4,0,0.5-0.1c0.1,0,0.1-0.1,0.1-0.2
		c0-0.1-0.1-0.2-0.2-0.3c-0.1-0.1-0.3-0.1-0.5-0.1l0-0.5c0.4,0,0.8,0.1,1,0.2c0.2,0.2,0.3,0.4,0.3,0.6c0,0.2-0.1,0.4-0.2,0.5
		c-0.1,0.1-0.3,0.2-0.5,0.2l0,0.3H181.1z"/>
	<path class="st2" d="M184.4,83.7c0-0.7,0.2-1.3,0.6-1.7c0.4-0.5,0.9-0.7,1.6-0.7c0.7,0,1.2,0.2,1.6,0.7c0.4,0.5,0.6,1,0.6,1.7v0.1
		c0,0.7-0.2,1.3-0.6,1.7c-0.4,0.5-0.9,0.7-1.6,0.7c-0.7,0-1.2-0.2-1.6-0.7C184.6,85.1,184.4,84.6,184.4,83.7L184.4,83.7z
		 M185.2,83.8c0,0.5,0.1,0.9,0.3,1.3c0.2,0.3,0.5,0.5,1,0.5c0.4,0,0.7-0.2,0.9-0.5c0.2-0.3,0.3-0.7,0.3-1.3v-0.1
		c0-0.5-0.1-0.9-0.3-1.2c-0.2-0.3-0.5-0.5-1-0.5c-0.4,0-0.7,0.2-0.9,0.5C185.4,82.8,185.2,83.2,185.2,83.8L185.2,83.8z"/>
	<path class="st2" d="M193.6,84.8l0.1,0.3h0l0.1-0.3l1.1-3.4h0.9l-1.8,4.8h-0.7l-1.8-4.8h0.9L193.6,84.8z"/>
	<path class="st2" d="M198.4,86.3c-0.7,0-1.2-0.2-1.6-0.7c-0.4-0.4-0.6-1-0.6-1.7v-0.2c0-0.7,0.2-1.3,0.6-1.7
		c0.4-0.4,0.9-0.7,1.5-0.7c0.6,0,1.1,0.2,1.4,0.6c0.3,0.4,0.5,0.9,0.5,1.6V84h-3.1l0,0c0,0.5,0.1,0.9,0.3,1.2c0.2,0.3,0.5,0.4,1,0.4
		c0.3,0,0.6,0,0.8-0.1c0.2-0.1,0.4-0.2,0.6-0.3l0.3,0.6c-0.2,0.2-0.4,0.3-0.7,0.4C199.2,86.2,198.8,86.3,198.4,86.3z M199.6,80.4
		v0.1h-0.7l-0.6-0.7l-0.6,0.7h-0.7v-0.1l1.1-1h0.5L199.6,80.4z M198.3,82c-0.3,0-0.6,0.1-0.8,0.4c-0.2,0.2-0.3,0.5-0.4,0.9l0,0h2.2
		v-0.1c0-0.3-0.1-0.6-0.3-0.9C198.9,82.1,198.7,82,198.3,82z M198.8,87.7h-1v-0.9h1V87.7z"/>
</g>
<circle class="st1" cx="261.2" cy="99.9" r="3"/>
<circle class="st1" cx="237.6" cy="122.8" r="3"/>
<g>
	<path class="st2" d="M274.9,100v2.2h-0.7v-5.1h1.8c0.6,0,1,0.1,1.3,0.4c0.3,0.3,0.4,0.6,0.4,1.1c0,0.3-0.1,0.5-0.2,0.7
		c-0.1,0.2-0.3,0.4-0.6,0.5c0.3,0.1,0.5,0.2,0.6,0.4c0.1,0.2,0.2,0.5,0.2,0.8v0.5c0,0.2,0,0.3,0.1,0.4s0.1,0.2,0.2,0.3v0.1h-0.7
		c-0.1-0.1-0.2-0.2-0.2-0.4s0-0.3,0-0.5v-0.5c0-0.3-0.1-0.5-0.2-0.7s-0.4-0.3-0.7-0.3H274.9z M274.9,99.4h1c0.4,0,0.7-0.1,0.9-0.2
		c0.2-0.1,0.3-0.4,0.3-0.7c0-0.3-0.1-0.5-0.3-0.7c-0.2-0.2-0.4-0.2-0.8-0.2h-1.1V99.4z"/>
	<path class="st2" d="M278.6,100.3c0-0.6,0.2-1,0.5-1.4c0.3-0.4,0.7-0.6,1.2-0.6c0.5,0,0.9,0.2,1.3,0.5c0.3,0.4,0.5,0.8,0.5,1.4v0.1
		c0,0.6-0.2,1-0.5,1.4c-0.3,0.4-0.7,0.5-1.3,0.5c-0.5,0-0.9-0.2-1.3-0.5C278.7,101.4,278.6,100.9,278.6,100.3L278.6,100.3z
		 M279.3,100.3c0,0.4,0.1,0.7,0.3,1c0.2,0.3,0.4,0.4,0.8,0.4c0.3,0,0.6-0.1,0.8-0.4c0.2-0.3,0.3-0.6,0.3-1v-0.1c0-0.4-0.1-0.7-0.3-1
		c-0.2-0.3-0.4-0.4-0.8-0.4c-0.3,0-0.6,0.1-0.8,0.4C279.4,99.5,279.3,99.9,279.3,100.3L279.3,100.3z"/>
	<path class="st2" d="M286.1,100.4c0,0.6-0.1,1-0.4,1.3c-0.3,0.3-0.6,0.5-1.1,0.5c-0.3,0-0.5-0.1-0.7-0.2c-0.2-0.1-0.3-0.2-0.5-0.4
		l-0.1,0.5h-0.5v-5.5h0.7v2.1c0.1-0.2,0.3-0.3,0.4-0.4c0.2-0.1,0.4-0.1,0.6-0.1c0.5,0,0.8,0.2,1.1,0.6
		C286,99.3,286.1,99.8,286.1,100.4L286.1,100.4z M285.4,100.4c0-0.4-0.1-0.8-0.2-1.1c-0.2-0.3-0.4-0.4-0.7-0.4
		c-0.2,0-0.4,0.1-0.5,0.2c-0.1,0.1-0.3,0.2-0.4,0.4v1.7c0.1,0.2,0.2,0.3,0.4,0.4c0.1,0.1,0.3,0.2,0.5,0.2c0.3,0,0.6-0.1,0.7-0.4
		C285.4,101.1,285.4,100.8,285.4,100.4L285.4,100.4z"/>
	<path class="st2" d="M286.8,100.3c0-0.6,0.2-1,0.5-1.4c0.3-0.4,0.7-0.6,1.2-0.6c0.5,0,0.9,0.2,1.3,0.5c0.3,0.4,0.5,0.8,0.5,1.4v0.1
		c0,0.6-0.2,1-0.5,1.4c-0.3,0.4-0.7,0.5-1.3,0.5s-0.9-0.2-1.3-0.5C287,101.4,286.8,100.9,286.8,100.3L286.8,100.3z M287.5,100.3
		c0,0.4,0.1,0.7,0.3,1c0.2,0.3,0.4,0.4,0.8,0.4c0.3,0,0.6-0.1,0.8-0.4c0.2-0.3,0.3-0.6,0.3-1v-0.1c0-0.4-0.1-0.7-0.3-1
		c-0.2-0.3-0.4-0.4-0.8-0.4c-0.3,0-0.6,0.1-0.8,0.4C287.6,99.5,287.5,99.9,287.5,100.3L287.5,100.3z"/>
	<path class="st2" d="M292.1,97.5v0.9h0.7v0.5h-0.7v2.3c0,0.2,0,0.3,0.1,0.4c0.1,0.1,0.2,0.1,0.3,0.1c0,0,0.1,0,0.1,0
		c0,0,0.1,0,0.1,0l0.1,0.5c-0.1,0-0.1,0.1-0.2,0.1c-0.1,0-0.2,0-0.3,0c-0.3,0-0.5-0.1-0.7-0.3c-0.2-0.2-0.3-0.4-0.3-0.8v-2.3h-0.6
		v-0.5h0.6v-0.9H292.1z"/>
	<path class="st2" d="M296.9,101.7c0.2,0,0.4-0.1,0.6-0.2c0.2-0.1,0.2-0.3,0.2-0.5h0.6l0,0c0,0.3-0.1,0.6-0.4,0.9
		c-0.3,0.3-0.6,0.4-1,0.4c-0.5,0-1-0.2-1.2-0.5c-0.3-0.4-0.4-0.8-0.4-1.4v-0.1c0-0.5,0.1-1,0.4-1.4c0.3-0.4,0.7-0.6,1.2-0.6
		c0.4,0,0.8,0.1,1,0.4c0.3,0.3,0.4,0.6,0.4,1l0,0h-0.6c0-0.2-0.1-0.4-0.2-0.6c-0.2-0.2-0.3-0.2-0.6-0.2c-0.3,0-0.6,0.1-0.7,0.4
		s-0.2,0.6-0.2,1v0.1c0,0.4,0.1,0.7,0.2,1C296.3,101.6,296.5,101.7,296.9,101.7z"/>
	<path class="st2" d="M299.8,98.9c0.1-0.2,0.3-0.3,0.5-0.4c0.2-0.1,0.4-0.2,0.6-0.2c0.4,0,0.7,0.1,1,0.4c0.2,0.2,0.3,0.6,0.3,1.1
		v2.4h-0.7v-2.4c0-0.3-0.1-0.5-0.2-0.7c-0.1-0.2-0.3-0.2-0.6-0.2c-0.2,0-0.4,0-0.5,0.1c-0.2,0.1-0.3,0.2-0.4,0.3v2.9h-0.7v-5.5h0.7
		V98.9z"/>
	<path class="st2" d="M303.1,100.3c0-0.6,0.2-1,0.5-1.4c0.3-0.4,0.7-0.6,1.2-0.6c0.5,0,0.9,0.2,1.3,0.5c0.3,0.4,0.5,0.8,0.5,1.4v0.1
		c0,0.6-0.2,1-0.5,1.4c-0.3,0.4-0.7,0.5-1.3,0.5c-0.5,0-0.9-0.2-1.3-0.5C303.3,101.4,303.1,100.9,303.1,100.3L303.1,100.3z
		 M303.8,100.3c0,0.4,0.1,0.7,0.3,1c0.2,0.3,0.4,0.4,0.8,0.4c0.3,0,0.6-0.1,0.8-0.4c0.2-0.3,0.3-0.6,0.3-1v-0.1c0-0.4-0.1-0.7-0.3-1
		c-0.2-0.3-0.4-0.4-0.8-0.4c-0.3,0-0.6,0.1-0.8,0.4C303.9,99.5,303.8,99.9,303.8,100.3L303.8,100.3z M305.2,103.4h-0.8v-0.7h0.8
		V103.4z"/>
	<path class="st2" d="M308,98.4l0,0.6c0.1-0.2,0.3-0.4,0.5-0.5c0.2-0.1,0.4-0.2,0.7-0.2c0.4,0,0.7,0.1,1,0.4
		c0.2,0.2,0.3,0.6,0.3,1.1v2.4h-0.7v-2.4c0-0.3-0.1-0.6-0.2-0.7c-0.1-0.1-0.3-0.2-0.6-0.2c-0.2,0-0.4,0-0.5,0.1
		c-0.1,0.1-0.3,0.2-0.4,0.4v2.8h-0.7v-3.8H308z"/>
	<path class="st2" d="M315.5,101.2c0-0.2-0.1-0.3-0.2-0.4c-0.1-0.1-0.3-0.2-0.7-0.3c-0.5-0.1-0.8-0.2-1-0.4
		c-0.2-0.2-0.4-0.4-0.4-0.7c0-0.3,0.1-0.6,0.4-0.8c0.3-0.2,0.6-0.3,1-0.3c0.4,0,0.8,0.1,1.1,0.4c0.3,0.2,0.4,0.5,0.4,0.8l0,0h-0.7
		c0-0.2-0.1-0.3-0.2-0.4c-0.1-0.1-0.3-0.2-0.5-0.2c-0.2,0-0.4,0.1-0.5,0.2c-0.1,0.1-0.2,0.2-0.2,0.4c0,0.2,0.1,0.3,0.2,0.4
		c0.1,0.1,0.3,0.2,0.6,0.2c0.5,0.1,0.8,0.2,1.1,0.4c0.2,0.2,0.4,0.4,0.4,0.7c0,0.3-0.1,0.6-0.4,0.8c-0.3,0.2-0.6,0.3-1.1,0.3
		c-0.5,0-0.9-0.1-1.2-0.4c-0.3-0.2-0.4-0.5-0.4-0.9l0,0h0.7c0,0.2,0.1,0.4,0.3,0.5c0.2,0.1,0.4,0.2,0.6,0.2c0.2,0,0.4-0.1,0.6-0.2
		C315.5,101.5,315.5,101.3,315.5,101.2z"/>
	<path class="st2" d="M319.4,102.2c0-0.1,0-0.2-0.1-0.3c0-0.1,0-0.2,0-0.3c-0.1,0.2-0.3,0.3-0.5,0.5c-0.2,0.1-0.4,0.2-0.7,0.2
		c-0.4,0-0.7-0.1-0.9-0.3c-0.2-0.2-0.3-0.5-0.3-0.8c0-0.4,0.1-0.7,0.4-0.9c0.3-0.2,0.7-0.3,1.2-0.3h0.8v-0.4c0-0.2-0.1-0.4-0.2-0.5
		c-0.1-0.1-0.3-0.2-0.6-0.2c-0.2,0-0.4,0.1-0.5,0.2c-0.1,0.1-0.2,0.2-0.2,0.4l-0.7,0l0,0c0-0.3,0.1-0.5,0.4-0.8
		c0.3-0.2,0.6-0.3,1.1-0.3c0.4,0,0.8,0.1,1,0.3c0.3,0.2,0.4,0.5,0.4,1v1.8c0,0.1,0,0.3,0,0.4c0,0.1,0,0.3,0.1,0.4H319.4z
		 M318.3,101.7c0.3,0,0.5-0.1,0.7-0.2c0.2-0.1,0.3-0.3,0.4-0.4v-0.6h-0.8c-0.3,0-0.5,0.1-0.7,0.2c-0.2,0.1-0.3,0.3-0.3,0.5
		c0,0.2,0.1,0.3,0.2,0.4S318.1,101.7,318.3,101.7z M318.3,97.8l0-0.5c0.2,0,0.3,0,0.4-0.1c0.1,0,0.1-0.1,0.1-0.2
		c0-0.1-0.1-0.2-0.2-0.2c-0.1,0-0.2-0.1-0.4-0.1l0-0.4c0.3,0,0.6,0.1,0.8,0.2c0.2,0.1,0.3,0.3,0.3,0.5c0,0.2-0.1,0.3-0.2,0.4
		c-0.1,0.1-0.2,0.1-0.4,0.2l0,0.3H318.3z"/>
	<path class="st2" d="M321.7,98.4l0,0.6c0.1-0.2,0.3-0.4,0.5-0.5c0.2-0.1,0.4-0.2,0.7-0.2c0.4,0,0.7,0.1,1,0.4
		c0.2,0.2,0.3,0.6,0.3,1.1v2.4h-0.7v-2.4c0-0.3-0.1-0.6-0.2-0.7c-0.1-0.1-0.3-0.2-0.6-0.2c-0.2,0-0.4,0-0.5,0.1
		c-0.1,0.1-0.3,0.2-0.4,0.4v2.8h-0.7v-3.8H321.7z"/>
	<path class="st2" d="M330.2,100.4c0,0.6-0.1,1-0.4,1.3c-0.3,0.3-0.6,0.5-1.1,0.5c-0.2,0-0.4,0-0.6-0.1c-0.2-0.1-0.3-0.2-0.5-0.4
		v1.9H327v-5.3h0.5l0.1,0.5c0.1-0.2,0.3-0.3,0.5-0.4c0.2-0.1,0.4-0.1,0.7-0.1c0.5,0,0.8,0.2,1.1,0.6
		C330.1,99.3,330.2,99.8,330.2,100.4L330.2,100.4z M329.6,100.4c0-0.4-0.1-0.8-0.3-1.1c-0.2-0.3-0.4-0.4-0.8-0.4
		c-0.2,0-0.4,0-0.5,0.1c-0.1,0.1-0.3,0.2-0.3,0.4v1.9c0.1,0.2,0.2,0.3,0.3,0.4s0.3,0.1,0.5,0.1c0.3,0,0.6-0.1,0.7-0.4
		C329.5,101.1,329.6,100.8,329.6,100.4L329.6,100.4z"/>
	<path class="st2" d="M331.8,98.9c0.1-0.2,0.3-0.3,0.5-0.4c0.2-0.1,0.4-0.2,0.6-0.2c0.4,0,0.7,0.1,1,0.4c0.2,0.2,0.3,0.6,0.3,1.1
		v2.4h-0.7v-2.4c0-0.3-0.1-0.5-0.2-0.7c-0.1-0.2-0.3-0.2-0.6-0.2c-0.2,0-0.4,0-0.5,0.1c-0.2,0.1-0.3,0.2-0.4,0.3v2.9h-0.7v-5.5h0.7
		V98.9z"/>
	<path class="st2" d="M337.6,102.2c0-0.1,0-0.2-0.1-0.3c0-0.1,0-0.2,0-0.3c-0.1,0.2-0.3,0.3-0.5,0.5c-0.2,0.1-0.4,0.2-0.7,0.2
		c-0.4,0-0.7-0.1-0.9-0.3c-0.2-0.2-0.3-0.5-0.3-0.8c0-0.4,0.1-0.7,0.4-0.9c0.3-0.2,0.7-0.3,1.2-0.3h0.8v-0.4c0-0.2-0.1-0.4-0.2-0.5
		c-0.1-0.1-0.3-0.2-0.6-0.2c-0.2,0-0.4,0.1-0.5,0.2c-0.1,0.1-0.2,0.2-0.2,0.4l-0.7,0l0,0c0-0.3,0.1-0.5,0.4-0.8
		c0.3-0.2,0.6-0.3,1.1-0.3c0.4,0,0.8,0.1,1,0.3c0.3,0.2,0.4,0.5,0.4,1v1.8c0,0.1,0,0.3,0,0.4s0,0.3,0.1,0.4H337.6z M337,96.9h-0.7
		l-0.9,0.9l0,0h0.6l0.7-0.7l0.7,0.7h0.6l0,0L337,96.9z M336.4,101.7c0.3,0,0.5-0.1,0.7-0.2c0.2-0.1,0.3-0.3,0.4-0.4v-0.6h-0.8
		c-0.3,0-0.5,0.1-0.7,0.2c-0.2,0.1-0.3,0.3-0.3,0.5c0,0.2,0.1,0.3,0.2,0.4C336.1,101.7,336.2,101.7,336.4,101.7z M337.9,97.3l0-0.5
		c0.2,0,0.3,0,0.3-0.1c0.1,0,0.1-0.1,0.1-0.2c0-0.1,0-0.1-0.1-0.2c-0.1,0-0.2-0.1-0.4-0.1l0-0.3c0.3,0,0.5,0.1,0.7,0.2
		c0.2,0.1,0.2,0.2,0.2,0.4c0,0.1,0,0.3-0.1,0.3c-0.1,0.1-0.2,0.1-0.3,0.1l0,0.2H337.9z"/>
	<path class="st2" d="M339.8,98.4l0,0.5c0.1-0.2,0.3-0.3,0.5-0.4c0.2-0.1,0.4-0.2,0.7-0.2c0.3,0,0.5,0.1,0.7,0.2
		c0.2,0.1,0.3,0.3,0.4,0.5c0.1-0.2,0.3-0.4,0.5-0.5c0.2-0.1,0.4-0.2,0.7-0.2c0.4,0,0.7,0.1,0.9,0.4c0.2,0.3,0.3,0.7,0.3,1.2v2.3
		h-0.7v-2.3c0-0.4-0.1-0.6-0.2-0.8c-0.1-0.2-0.3-0.2-0.6-0.2c-0.2,0-0.4,0.1-0.6,0.2c-0.1,0.2-0.2,0.4-0.3,0.6v0v2.4h-0.7v-2.3
		c0-0.4-0.1-0.6-0.2-0.8c-0.1-0.2-0.3-0.2-0.6-0.2c-0.2,0-0.4,0-0.5,0.1c-0.1,0.1-0.2,0.2-0.3,0.4v2.8h-0.7v-3.8H339.8z"/>
</g>
<g>
	<path class="st3" d="M159.9,150.9v4.3h-1.7v-10.5h3.6c1.2,0,2.1,0.3,2.7,0.8s1,1.3,1,2.3c0,0.5-0.1,1-0.4,1.4
		c-0.3,0.4-0.7,0.7-1.2,0.9c0.6,0.2,1,0.5,1.3,0.9c0.3,0.4,0.4,0.9,0.4,1.6v0.9c0,0.3,0,0.6,0.1,0.9c0.1,0.3,0.2,0.5,0.4,0.7v0.2
		h-1.8c-0.2-0.2-0.3-0.4-0.4-0.7c-0.1-0.3-0.1-0.7-0.1-1v-0.8c0-0.5-0.2-1-0.5-1.3c-0.3-0.3-0.7-0.5-1.3-0.5H159.9z M159.9,149.5
		h1.8c0.7,0,1.2-0.1,1.5-0.4c0.3-0.3,0.5-0.7,0.5-1.2c0-0.5-0.2-0.9-0.5-1.2c-0.3-0.3-0.8-0.4-1.4-0.4h-1.9V149.5z"/>
	<path class="st3" d="M167,151.3c0-1.2,0.3-2.1,1-2.8c0.6-0.7,1.5-1.1,2.6-1.1c1.1,0,2,0.4,2.6,1.1c0.6,0.7,1,1.7,1,2.8v0.2
		c0,1.2-0.3,2.1-1,2.9c-0.6,0.7-1.5,1.1-2.6,1.1c-1.1,0-2-0.4-2.6-1.1s-1-1.7-1-2.9V151.3z M168.8,151.4c0,0.8,0.1,1.4,0.4,1.9
		c0.3,0.5,0.8,0.7,1.4,0.7c0.6,0,1.1-0.2,1.4-0.7s0.5-1.1,0.5-1.8v-0.2c0-0.7-0.2-1.4-0.5-1.8c-0.3-0.5-0.8-0.7-1.4-0.7
		c-0.6,0-1.1,0.2-1.4,0.7c-0.3,0.5-0.4,1.1-0.4,1.8V151.4z"/>
	<path class="st3" d="M182.5,151.6c0,1.1-0.3,2-0.8,2.7s-1.3,1-2.2,1c-0.5,0-0.9-0.1-1.3-0.3c-0.4-0.2-0.7-0.5-0.9-0.9l-0.2,1h-1.4
		V144h1.7v4.3c0.2-0.3,0.5-0.6,0.9-0.8c0.3-0.2,0.7-0.3,1.2-0.3c1,0,1.7,0.4,2.3,1.1c0.5,0.8,0.8,1.8,0.8,3V151.6z M180.7,151.5
		c0-0.8-0.1-1.5-0.4-2c-0.3-0.5-0.7-0.7-1.3-0.7c-0.4,0-0.7,0.1-1,0.3c-0.3,0.2-0.5,0.4-0.6,0.7v3.3c0.1,0.3,0.4,0.6,0.6,0.7
		s0.6,0.3,1,0.3c0.6,0,1-0.2,1.3-0.6c0.3-0.4,0.4-1,0.4-1.7V151.5z"/>
	<path class="st3" d="M183.7,151.3c0-1.2,0.3-2.1,1-2.8c0.6-0.7,1.5-1.1,2.6-1.1c1.1,0,2,0.4,2.6,1.1c0.6,0.7,1,1.7,1,2.8v0.2
		c0,1.2-0.3,2.1-1,2.9c-0.6,0.7-1.5,1.1-2.6,1.1c-1.1,0-2-0.4-2.6-1.1s-1-1.7-1-2.9V151.3z M185.4,151.4c0,0.8,0.1,1.4,0.4,1.9
		c0.3,0.5,0.8,0.7,1.4,0.7c0.6,0,1.1-0.2,1.4-0.7s0.5-1.1,0.5-1.8v-0.2c0-0.7-0.2-1.4-0.5-1.8c-0.3-0.5-0.8-0.7-1.4-0.7
		c-0.6,0-1.1,0.2-1.4,0.7c-0.3,0.5-0.4,1.1-0.4,1.8V151.4z"/>
	<path class="st3" d="M194.6,145.6v1.9h1.4v1.3h-1.4v4.3c0,0.3,0.1,0.5,0.2,0.7c0.1,0.1,0.3,0.2,0.6,0.2c0.1,0,0.2,0,0.3,0
		c0.1,0,0.2,0,0.3-0.1l0.2,1.3c-0.1,0.1-0.3,0.1-0.5,0.2c-0.2,0-0.4,0.1-0.6,0.1c-0.6,0-1.1-0.2-1.5-0.6c-0.4-0.4-0.5-1-0.5-1.8
		v-4.3h-1.2v-1.3h1.2v-1.9H194.6z"/>
	<path class="st3" d="M203.3,145.6v1.9h1.4v1.3h-1.4v4.3c0,0.3,0.1,0.5,0.2,0.7c0.1,0.1,0.3,0.2,0.6,0.2c0.1,0,0.2,0,0.3,0
		c0.1,0,0.2,0,0.3-0.1l0.2,1.3c-0.1,0.1-0.3,0.1-0.5,0.2c-0.2,0-0.4,0.1-0.6,0.1c-0.6,0-1.1-0.2-1.5-0.6c-0.4-0.4-0.5-1-0.5-1.8
		v-4.3h-1.2v-1.3h1.2v-1.9H203.3z"/>
	<path class="st3" d="M215.1,146.6L215.1,146.6c0,0.9-0.2,1.5-0.6,2c-0.4,0.5-1.1,0.7-2,0.8v5.8h-1.5l-0.2-1.1
		c-0.2,0.4-0.5,0.7-0.9,1c-0.4,0.2-0.8,0.3-1.3,0.3c-0.8,0-1.5-0.3-2-0.8c-0.5-0.5-0.7-1.4-0.7-2.6v-4.5h1.7v4.6
		c0,0.7,0.1,1.3,0.3,1.5c0.2,0.3,0.6,0.4,1,0.4c0.4,0,0.8-0.1,1.1-0.2c0.3-0.2,0.5-0.4,0.7-0.7v-5.6h1.7v0.9l0,0
		c0.4,0,0.8-0.2,0.9-0.5c0.2-0.3,0.3-0.7,0.3-1.3H215.1z"/>
	<path class="st3" d="M221,152.6l0.1,0.6h0l0.1-0.6l1.5-5.1h1.8l-2.8,7.8h-1.5l-2.8-7.8h1.8L221,152.6z"/>
	<path class="st3" d="M230.3,155.2c-0.1-0.2-0.1-0.4-0.2-0.6c0-0.2-0.1-0.4-0.1-0.6c-0.2,0.4-0.5,0.7-0.9,0.9
		c-0.4,0.2-0.8,0.4-1.3,0.4c-0.8,0-1.4-0.2-1.9-0.6c-0.4-0.4-0.6-1-0.6-1.7c0-0.8,0.3-1.3,0.9-1.8c0.6-0.4,1.4-0.6,2.5-0.6h1.4V150
		c0-0.4-0.1-0.7-0.4-1c-0.2-0.2-0.6-0.3-1-0.3c-0.4,0-0.7,0.1-0.9,0.3c-0.2,0.2-0.4,0.4-0.4,0.7l-1.7,0l0,0c0-0.6,0.2-1.2,0.8-1.6
		c0.6-0.5,1.3-0.7,2.3-0.7c0.9,0,1.6,0.2,2.2,0.7c0.6,0.5,0.8,1.1,0.8,2v3.5c0,0.3,0,0.6,0.1,0.9c0,0.3,0.1,0.6,0.2,0.9H230.3z
		 M227.9,144.3h1.4l2.1,1.8l0,0h-1.6l-1.1-1.1l-1.1,1.1h-1.6l0,0L227.9,144.3z M228.1,154c0.4,0,0.8-0.1,1.2-0.3
		c0.4-0.2,0.6-0.5,0.7-0.8v-1.1h-1.4c-0.5,0-0.9,0.1-1.2,0.4c-0.3,0.3-0.4,0.5-0.4,0.9c0,0.3,0.1,0.5,0.3,0.7
		C227.5,153.9,227.8,154,228.1,154z M231.9,143h1.7l-1.5,1.9h-1.3L231.9,143z"/>
	<path class="st3" d="M235.2,147.5l0.1,1.1c0.3-0.4,0.6-0.7,1-0.9s0.8-0.3,1.3-0.3c0.8,0,1.4,0.2,1.9,0.7c0.5,0.5,0.7,1.3,0.7,2.3
		v4.8h-1.7v-4.8c0-0.6-0.1-1-0.4-1.3c-0.2-0.3-0.6-0.4-1.1-0.4c-0.4,0-0.7,0.1-1,0.2c-0.3,0.1-0.5,0.3-0.7,0.6v5.7h-1.7v-7.8H235.2z
		"/>
	<path class="st3" d="M247.8,145.6v1.9h1.4v1.3h-1.4v4.3c0,0.3,0.1,0.5,0.2,0.7c0.1,0.1,0.3,0.2,0.6,0.2c0.1,0,0.2,0,0.3,0
		c0.1,0,0.2,0,0.3-0.1l0.2,1.3c-0.1,0.1-0.3,0.1-0.5,0.2c-0.2,0-0.4,0.1-0.6,0.1c-0.6,0-1.1-0.2-1.5-0.6c-0.4-0.4-0.5-1-0.5-1.8
		v-4.3h-1.2v-1.3h1.2v-1.9H247.8z"/>
	<path class="st3" d="M252.4,148.5c0.3-0.4,0.6-0.6,0.9-0.8s0.8-0.3,1.2-0.3c0.8,0,1.5,0.3,1.9,0.8c0.5,0.5,0.7,1.3,0.7,2.4v4.7
		h-1.7v-4.7c0-0.6-0.1-1-0.4-1.3c-0.2-0.3-0.6-0.4-1.1-0.4c-0.4,0-0.7,0.1-1,0.2c-0.3,0.1-0.5,0.3-0.7,0.5v5.7h-1.7V144h1.7V148.5z"
		/>
	<path class="st3" d="M258.6,151.3c0-1.2,0.3-2.1,1-2.8c0.6-0.7,1.5-1.1,2.6-1.1c1.1,0,2,0.4,2.6,1.1c0.6,0.7,1,1.7,1,2.8v0.2
		c0,1.2-0.3,2.1-1,2.9c-0.6,0.7-1.5,1.1-2.6,1.1c-1.1,0-2-0.4-2.6-1.1c-0.6-0.7-1-1.7-1-2.9V151.3z M264.6,145.9v0.2h-1.4l-1-1l-1,1
		h-1.4v-0.2l1.9-1.7h1L264.6,145.9z M260.4,151.4c0,0.8,0.1,1.4,0.4,1.9c0.3,0.5,0.8,0.7,1.4,0.7c0.6,0,1.1-0.2,1.4-0.7
		c0.3-0.5,0.5-1.1,0.5-1.8v-0.2c0-0.7-0.2-1.4-0.5-1.8c-0.3-0.5-0.8-0.7-1.4-0.7c-0.6,0-1.1,0.2-1.4,0.7c-0.3,0.5-0.4,1.1-0.4,1.8
		V151.4z"/>
	<path class="st3" d="M268.9,147.5l0.1,1.1c0.3-0.4,0.6-0.7,1-0.9s0.8-0.3,1.3-0.3c0.8,0,1.4,0.2,1.9,0.7c0.5,0.5,0.7,1.3,0.7,2.3
		v4.8h-1.7v-4.8c0-0.6-0.1-1-0.4-1.3c-0.2-0.3-0.6-0.4-1.1-0.4c-0.4,0-0.7,0.1-1,0.2c-0.3,0.1-0.5,0.3-0.7,0.6v5.7h-1.7v-7.8H268.9z
		"/>
	<path class="st3" d="M275.3,151.5c0-1.2,0.3-2.2,0.8-3c0.5-0.8,1.3-1.1,2.2-1.1c0.5,0,0.9,0.1,1.2,0.3c0.4,0.2,0.7,0.5,0.9,0.9
		l0.2-1h1.5v7.8c0,1-0.3,1.8-0.9,2.3c-0.6,0.5-1.5,0.8-2.6,0.8c-0.4,0-0.8-0.1-1.2-0.2c-0.4-0.1-0.8-0.3-1.2-0.4l0.3-1.4
		c0.3,0.1,0.6,0.3,1,0.3c0.4,0.1,0.7,0.1,1.1,0.1c0.6,0,1.1-0.1,1.4-0.4c0.3-0.3,0.4-0.7,0.4-1.2v-0.8c-0.2,0.3-0.5,0.5-0.9,0.7
		c-0.3,0.2-0.7,0.2-1.1,0.2c-1,0-1.7-0.3-2.2-1c-0.5-0.7-0.8-1.6-0.8-2.7V151.5z M277.1,151.6c0,0.7,0.1,1.3,0.4,1.7
		c0.3,0.4,0.7,0.6,1.3,0.6c0.4,0,0.7-0.1,0.9-0.2c0.3-0.2,0.5-0.4,0.6-0.7v-3.4c-0.2-0.3-0.4-0.5-0.6-0.7c-0.3-0.2-0.6-0.2-0.9-0.2
		c-0.6,0-1,0.3-1.3,0.8c-0.3,0.5-0.4,1.2-0.4,2V151.6z"/>
	<path class="st3" d="M289.2,147.5l0.1,1c0.3-0.4,0.6-0.7,1-0.9c0.4-0.2,0.8-0.3,1.3-0.3c0.5,0,0.9,0.1,1.3,0.3
		c0.4,0.2,0.6,0.6,0.8,1c0.2-0.4,0.6-0.8,0.9-1c0.4-0.2,0.9-0.4,1.4-0.4c0.8,0,1.4,0.3,1.8,0.8c0.5,0.5,0.7,1.4,0.7,2.5v4.6h-1.7
		v-4.6c0-0.7-0.1-1.2-0.3-1.4c-0.2-0.3-0.6-0.4-1-0.4c-0.4,0-0.7,0.1-0.9,0.3c-0.3,0.2-0.4,0.5-0.6,0.8c0,0.1,0,0.1,0,0.2
		c0,0.1,0,0.1,0,0.2v5h-1.7v-4.6c0-0.7-0.1-1.1-0.3-1.4c-0.2-0.3-0.6-0.4-1-0.4c-0.4,0-0.7,0.1-0.9,0.2c-0.2,0.1-0.4,0.3-0.6,0.6
		v5.7h-1.7v-7.8H289.2z"/>
	<path class="st3" d="M302.3,145.6h-1.7V144h1.7V145.6z M302.3,155.2h-1.7v-7.8h1.7V155.2z"/>
	<path class="st3" d="M305.8,147.5l0.1,1.1c0.3-0.4,0.6-0.7,1-0.9c0.4-0.2,0.8-0.3,1.3-0.3c0.8,0,1.4,0.2,1.9,0.7
		c0.5,0.5,0.7,1.3,0.7,2.3v4.8H309v-4.8c0-0.6-0.1-1-0.4-1.3c-0.2-0.3-0.6-0.4-1.1-0.4c-0.4,0-0.7,0.1-1,0.2
		c-0.3,0.1-0.5,0.3-0.7,0.6v5.7h-1.7v-7.8H305.8z"/>
	<path class="st3" d="M314.3,148.5c0.3-0.4,0.6-0.6,0.9-0.8s0.8-0.3,1.2-0.3c0.8,0,1.5,0.3,1.9,0.8c0.5,0.5,0.7,1.3,0.7,2.4v4.7
		h-1.7v-4.7c0-0.6-0.1-1-0.4-1.3c-0.2-0.3-0.6-0.4-1.1-0.4c-0.4,0-0.7,0.1-1,0.2c-0.3,0.1-0.5,0.3-0.7,0.5v5.7h-1.7V144h1.7V148.5z"
		/>
</g>
<g>
	<g>
		<path class="st1" d="M191.9,175.1L191.9,175.1l2.3-5.7h1.2v7h-0.9v-5.2l0,0l-2.1,5.2h-0.7l-2.2-5.4l0,0v5.4h-0.9v-7h1.2
			L191.9,175.1z"/>
		<path class="st1" d="M200.1,176.4c0-0.2-0.1-0.3-0.1-0.4s0-0.2,0-0.4c-0.2,0.2-0.4,0.5-0.7,0.6s-0.6,0.3-0.9,0.3
			c-0.5,0-1-0.1-1.2-0.4s-0.4-0.7-0.4-1.1c0-0.5,0.2-0.9,0.6-1.2c0.4-0.3,0.9-0.4,1.6-0.4h1v-0.5c0-0.3-0.1-0.5-0.3-0.7
			c-0.2-0.2-0.4-0.3-0.8-0.3c-0.3,0-0.6,0.1-0.7,0.2s-0.3,0.3-0.3,0.6l-0.9,0l0,0c0-0.4,0.2-0.7,0.5-1s0.9-0.5,1.5-0.5
			c0.6,0,1.1,0.1,1.4,0.4c0.4,0.3,0.5,0.7,0.5,1.3v2.5c0,0.2,0,0.4,0,0.5s0.1,0.3,0.1,0.5H200.1z M198.5,175.7
			c0.3,0,0.7-0.1,0.9-0.3s0.5-0.4,0.5-0.6V174h-1.1c-0.4,0-0.7,0.1-0.9,0.3c-0.2,0.2-0.3,0.4-0.3,0.7c0,0.2,0.1,0.4,0.2,0.5
			S198.2,175.7,198.5,175.7z"/>
		<path class="st1" d="M203.1,171.2l0.1,0.8c0.2-0.3,0.4-0.5,0.7-0.6s0.6-0.2,0.9-0.2c0.6,0,1,0.2,1.3,0.5c0.3,0.3,0.5,0.8,0.5,1.5
			v3.3h-0.9v-3.3c0-0.5-0.1-0.8-0.3-1c-0.2-0.2-0.5-0.3-0.8-0.3c-0.3,0-0.5,0.1-0.7,0.2c-0.2,0.1-0.4,0.3-0.5,0.5v3.9h-0.9v-5.2
			H203.1z"/>
		<path class="st1" d="M207.7,173.9c0-0.8,0.2-1.5,0.5-2c0.4-0.5,0.9-0.8,1.5-0.8c0.3,0,0.6,0.1,0.9,0.2s0.5,0.3,0.6,0.6l0.1-0.7
			h0.8v5.2c0,0.7-0.2,1.2-0.6,1.5s-0.9,0.5-1.7,0.5c-0.2,0-0.5,0-0.8-0.1c-0.3-0.1-0.5-0.2-0.8-0.3l0.1-0.7c0.2,0.1,0.4,0.2,0.7,0.2
			c0.3,0.1,0.5,0.1,0.8,0.1c0.5,0,0.8-0.1,1-0.3s0.3-0.5,0.3-1v-0.6c-0.2,0.2-0.4,0.4-0.6,0.5c-0.2,0.1-0.5,0.2-0.8,0.2
			c-0.6,0-1.1-0.2-1.5-0.7c-0.4-0.5-0.5-1.1-0.5-1.8V173.9z M208.6,174c0,0.5,0.1,0.9,0.3,1.3c0.2,0.3,0.5,0.5,1,0.5
			c0.3,0,0.5-0.1,0.7-0.2s0.4-0.3,0.5-0.5v-2.4c-0.1-0.2-0.3-0.4-0.5-0.5c-0.2-0.1-0.4-0.2-0.7-0.2c-0.5,0-0.8,0.2-1,0.6
			c-0.2,0.4-0.3,0.9-0.3,1.5V174z"/>
		<path class="st1" d="M221,170.5h-0.9v5.9h-0.7l-0.1-0.7c-0.2,0.2-0.4,0.4-0.6,0.6c-0.2,0.1-0.5,0.2-0.9,0.2
			c-0.6,0-1.1-0.2-1.5-0.7c-0.4-0.5-0.5-1.1-0.5-1.8v-0.1c0-0.8,0.2-1.5,0.5-2c0.4-0.5,0.9-0.8,1.5-0.8c0.3,0,0.6,0.1,0.8,0.2
			s0.4,0.3,0.6,0.5v-1.3h-1.2v-0.7h1.2v-0.8h0.9v0.8h0.9V170.5z M216.6,174c0,0.5,0.1,0.9,0.3,1.3s0.5,0.5,1,0.5
			c0.3,0,0.5-0.1,0.7-0.2c0.2-0.1,0.3-0.3,0.5-0.5v-2.4c-0.1-0.2-0.3-0.4-0.5-0.5c-0.2-0.1-0.4-0.2-0.7-0.2c-0.5,0-0.8,0.2-1,0.6
			c-0.2,0.4-0.3,0.9-0.3,1.5V174z"/>
		<path class="st1" d="M223.6,176.5c-0.7,0-1.3-0.2-1.7-0.7c-0.4-0.5-0.6-1.1-0.6-1.9v-0.2c0-0.7,0.2-1.4,0.6-1.9
			c0.4-0.5,1-0.7,1.6-0.7c0.7,0,1.2,0.2,1.6,0.6s0.5,1,0.5,1.7v0.5h-3.3l0,0c0,0.5,0.1,0.9,0.3,1.3c0.2,0.3,0.6,0.5,1.1,0.5
			c0.3,0,0.6,0,0.8-0.1s0.4-0.2,0.6-0.4l0.4,0.6c-0.2,0.2-0.4,0.3-0.7,0.5S224.1,176.5,223.6,176.5z M223,169h0.8l1.4,1.2l0,0h-1
			l-0.8-0.8l-0.8,0.8h-1l0,0L223,169z M223.5,171.8c-0.3,0-0.6,0.1-0.8,0.4c-0.2,0.3-0.3,0.6-0.4,1l0,0h2.3v-0.1
			c0-0.4-0.1-0.7-0.3-0.9C224.2,171.9,223.9,171.8,223.5,171.8z M225.5,168.1h1l-1,1.2h-0.7L225.5,168.1z"/>
		<path class="st1" d="M227.5,171.2l0.1,0.8c0.2-0.3,0.4-0.5,0.7-0.6c0.3-0.2,0.6-0.2,0.9-0.2c0.6,0,1,0.2,1.3,0.5
			c0.3,0.3,0.5,0.8,0.5,1.5v3.3h-0.9v-3.3c0-0.5-0.1-0.8-0.3-1s-0.5-0.3-0.8-0.3c-0.3,0-0.5,0.1-0.7,0.2c-0.2,0.1-0.4,0.3-0.5,0.5
			v3.9h-0.9v-5.2H227.5z"/>
		<path class="st1" d="M237.7,175c0-0.2-0.1-0.4-0.2-0.5c-0.2-0.1-0.5-0.2-0.9-0.3c-0.6-0.1-1.1-0.3-1.4-0.6c-0.3-0.2-0.5-0.6-0.5-1
			c0-0.4,0.2-0.8,0.5-1.1c0.4-0.3,0.8-0.5,1.4-0.5c0.6,0,1.1,0.2,1.4,0.5c0.4,0.3,0.5,0.7,0.5,1.1l0,0h-0.9c0-0.2-0.1-0.4-0.3-0.6
			c-0.2-0.2-0.4-0.3-0.7-0.3c-0.3,0-0.6,0.1-0.7,0.2c-0.2,0.2-0.2,0.3-0.2,0.5c0,0.2,0.1,0.4,0.2,0.5s0.4,0.2,0.9,0.3
			c0.6,0.1,1.1,0.3,1.4,0.6c0.3,0.2,0.5,0.6,0.5,1c0,0.5-0.2,0.8-0.6,1.1c-0.4,0.3-0.9,0.4-1.5,0.4c-0.7,0-1.2-0.2-1.6-0.5
			c-0.4-0.3-0.6-0.7-0.5-1.2l0,0h0.9c0,0.3,0.1,0.6,0.4,0.7c0.2,0.2,0.5,0.2,0.8,0.2c0.3,0,0.6-0.1,0.8-0.2S237.7,175.2,237.7,175z"
			/>
		<path class="st1" d="M245.7,170.5L245.7,170.5c0,0.6-0.1,1-0.4,1.3c-0.3,0.3-0.7,0.5-1.3,0.5v4h-0.8l-0.1-0.8
			c-0.2,0.3-0.4,0.5-0.6,0.6c-0.3,0.2-0.6,0.2-0.9,0.2c-0.6,0-1-0.2-1.3-0.5s-0.5-0.9-0.5-1.7v-3.1h0.9v3.1c0,0.6,0.1,0.9,0.2,1.1
			c0.2,0.2,0.4,0.3,0.8,0.3c0.3,0,0.6-0.1,0.8-0.2c0.2-0.1,0.4-0.3,0.5-0.6v-3.7h0.9v0.5l0,0c0.3,0,0.5-0.1,0.7-0.3
			c0.1-0.2,0.2-0.5,0.2-0.9H245.7z M242.1,178h-1v-1h1V178z"/>
		<path class="st1" d="M249.5,174H249v2.4H248v-7.5h0.9v4.3h0.5l1.6-2h1.1l-1.9,2.4l2,2.8h-1.1L249.5,174z"/>
		<path class="st1" d="M254,171.9c0.2-0.2,0.4-0.4,0.7-0.6s0.5-0.2,0.9-0.2c0.6,0,1,0.2,1.3,0.5s0.5,0.8,0.5,1.5v3.3h-0.9v-3.3
			c0-0.4-0.1-0.7-0.3-1c-0.2-0.2-0.5-0.3-0.8-0.3c-0.3,0-0.5,0.1-0.7,0.2c-0.2,0.1-0.4,0.3-0.5,0.5v3.9h-0.9v-7.5h0.9V171.9z"/>
		<path class="st1" d="M261.8,176.4c0-0.2-0.1-0.3-0.1-0.4c0-0.1,0-0.2,0-0.4c-0.2,0.2-0.4,0.5-0.7,0.6c-0.3,0.2-0.6,0.3-0.9,0.3
			c-0.5,0-1-0.1-1.2-0.4c-0.3-0.3-0.4-0.7-0.4-1.1c0-0.5,0.2-0.9,0.6-1.2c0.4-0.3,0.9-0.4,1.6-0.4h1v-0.5c0-0.3-0.1-0.5-0.3-0.7
			c-0.2-0.2-0.4-0.3-0.8-0.3c-0.3,0-0.6,0.1-0.7,0.2c-0.2,0.2-0.3,0.3-0.3,0.6l-0.9,0l0,0c0-0.4,0.2-0.7,0.5-1s0.9-0.5,1.5-0.5
			c0.6,0,1.1,0.1,1.4,0.4c0.4,0.3,0.5,0.7,0.5,1.3v2.5c0,0.2,0,0.4,0,0.5s0.1,0.3,0.1,0.5H261.8z M260.3,175.7
			c0.3,0,0.7-0.1,0.9-0.3c0.3-0.2,0.5-0.4,0.5-0.6V174h-1.1c-0.4,0-0.7,0.1-0.9,0.3s-0.3,0.4-0.3,0.7c0,0.2,0.1,0.4,0.2,0.5
			S260,175.7,260.3,175.7z M261.1,169h1.1l0,0l-1.3,1.2h-0.7L261.1,169z"/>
		<path class="st1" d="M266.1,175.7c0.3,0,0.5-0.1,0.8-0.3c0.2-0.2,0.3-0.4,0.3-0.7h0.9l0,0c0,0.4-0.2,0.8-0.6,1.2
			c-0.4,0.3-0.9,0.5-1.4,0.5c-0.7,0-1.3-0.2-1.7-0.7c-0.4-0.5-0.6-1.1-0.6-1.9v-0.2c0-0.7,0.2-1.3,0.6-1.8c0.4-0.5,1-0.7,1.7-0.7
			c0.6,0,1.1,0.2,1.4,0.5c0.4,0.4,0.5,0.8,0.5,1.3l0,0h-0.9c0-0.3-0.1-0.6-0.3-0.8s-0.5-0.3-0.8-0.3c-0.5,0-0.8,0.2-1,0.5
			c-0.2,0.4-0.3,0.8-0.3,1.3v0.2c0,0.5,0.1,1,0.3,1.3C265.3,175.5,265.6,175.7,266.1,175.7z"/>
		<path class="st1" d="M276.1,174c0,0.7-0.2,1.4-0.5,1.8c-0.4,0.5-0.9,0.7-1.5,0.7c-0.3,0-0.6-0.1-0.9-0.2c-0.3-0.1-0.5-0.3-0.6-0.6
			l-0.2,0.7h-0.7v-7.5h0.9v2.9c0.2-0.2,0.4-0.4,0.6-0.5c0.2-0.1,0.5-0.2,0.8-0.2c0.6,0,1.1,0.3,1.5,0.8c0.4,0.5,0.5,1.2,0.5,2V174z
			 M275.1,173.9c0-0.6-0.1-1.1-0.3-1.5s-0.6-0.6-1-0.6c-0.3,0-0.5,0.1-0.7,0.2c-0.2,0.1-0.4,0.3-0.5,0.6v2.3
			c0.1,0.3,0.3,0.5,0.5,0.6s0.4,0.2,0.7,0.2c0.4,0,0.8-0.2,1-0.5c0.2-0.3,0.3-0.7,0.3-1.3V173.9z"/>
		<path class="st1" d="M278.2,169.8h-0.9v-1h0.9V169.8z M278.2,176.4h-0.9v-5.2h0.9V176.4z"/>
		<path class="st1" d="M281.8,176.5c-0.7,0-1.3-0.2-1.7-0.7s-0.6-1.1-0.6-1.9v-0.2c0-0.7,0.2-1.4,0.6-1.9c0.4-0.5,1-0.7,1.6-0.7
			c0.7,0,1.2,0.2,1.6,0.6c0.3,0.4,0.5,1,0.5,1.7v0.5h-3.3l0,0c0,0.5,0.1,0.9,0.3,1.3c0.2,0.3,0.6,0.5,1.1,0.5c0.3,0,0.6,0,0.8-0.1
			c0.2-0.1,0.4-0.2,0.6-0.4l0.4,0.6c-0.2,0.2-0.4,0.3-0.7,0.5S282.3,176.5,281.8,176.5z M283.1,170.1v0.1h-0.8l-0.7-0.7l-0.7,0.7
			h-0.8v-0.1l1.2-1.1h0.6L283.1,170.1z M281.7,171.8c-0.3,0-0.6,0.1-0.8,0.4c-0.2,0.3-0.3,0.6-0.4,1l0,0h2.3v-0.1
			c0-0.4-0.1-0.7-0.3-0.9S282.1,171.8,281.7,171.8z M282.3,178h-1v-1h1V178z"/>
		<path class="st1" d="M286.2,169.9v1.3h1v0.7h-1v3.2c0,0.2,0.1,0.4,0.2,0.5c0.1,0.1,0.2,0.1,0.4,0.1c0.1,0,0.1,0,0.2,0
			c0.1,0,0.1,0,0.2,0l0.1,0.6c-0.1,0.1-0.2,0.1-0.3,0.1c-0.1,0-0.3,0.1-0.4,0.1c-0.4,0-0.7-0.1-0.9-0.3c-0.2-0.2-0.3-0.6-0.3-1.1
			v-3.2h-0.8v-0.7h0.8v-1.3H286.2z"/>
	</g>
</g>
<g>
	<g>
		<path class="st4" d="M87.1,101.5c0,0,2.8-4.6,8.8,2.8l-2.6,5.6C93.4,109.9,84.8,106.8,87.1,101.5z"/>
	</g>
	<g>
		<path class="st4" d="M102.5,114.5c0,0-0.2-3.8,0.6-5.3c0.1-0.2,0-0.5-0.2-0.6l-5.8-3.4c-0.5-0.3-1.3-0.1-1.4,0.5
			c-0.3,1-1,2.7-2.5,5.4L102.5,114.5z"/>
	</g>
	<g>
		<path class="st4" d="M106.7,115.9c-0.9-2.2-0.8-1.7-1.2-4.2c-0.4-2.7,6.4-7.6,7.9-8.6l-1.8-1.4c0,0-8.6,4.4-7.4,9.8l0.8-1.6
			C104.1,111.8,106.2,114.5,106.7,115.9"/>
	</g>
	<g>
		<path class="st4" d="M118.8,99.4l2,0.2c0.4,0,0.8-0.2,1-0.5l4.3-7.3c0.3-0.5,3.1,0.7,3.6,0.9l-4.2-2.6c-0.5-0.3-1.1-0.1-1.4,0.4
			l-4.4,7.5c0,0.1-0.1,0.2-0.2,0.2c-0.6,0.5-1.4,0.5-2.1,0.3l-1.6-0.6C115.8,98.3,118.2,99.4,118.8,99.4z"/>
	</g>
	<g>
		<path class="st4" d="M113,101.9l-1.1-3.2c0.2,0.5,0-4.8,0.3-5.5c0.2-0.4,3.3,0.8,4.6,1c-0.1-0.4-0.3-1.3-0.7-1.4
			c0,0-5.8-1.3-6-0.8c-0.8,1.7-0.9,3.7-0.3,5.5l1.1,3.2c0.1,0.2,0.2,0.4,0.4,0.6l4.7,3.5c0.2,0.2,0.5,0.3,0.8,0.2l-3.4-2.5
			C113.2,102.4,113,102.2,113,101.9z"/>
	</g>
	<path class="st5" d="M92.1,95.8l-24.5,7.9c-13.2,4.2-27.3-3-31.5-16.2l0,0c-4.2-13.2,3-27.3,16.2-31.5l24.5-7.9
		c13.2-4.2,27.3,3,31.5,16.2l0,0C112.5,77.5,105.3,91.6,92.1,95.8z"/>
	<path class="st6" d="M52.4,109.1c-2.3,0-4.5-0.5-6.6-1.6c-3.4-1.8-6-4.8-7.2-8.5l-7.2-22.3c-2.4-7.6,1.8-15.8,9.4-18.2l46.8-15
		c3.7-1.2,7.6-0.9,11.1,0.9c3.4,1.8,6,4.8,7.2,8.5l7.2,22.3c2.4,7.6-1.8,15.8-9.4,18.2l-46.8,15C55.4,108.8,53.9,109.1,52.4,109.1z
		 M92,45c-1.3,0-2.5,0.2-3.7,0.6l-46.8,15c-6.4,2.1-9.9,8.9-7.9,15.3l7.2,22.3c1,3.1,3.1,5.6,6,7.1c2.9,1.5,6.2,1.8,9.3,0.8l46.8-15
		c6.4-2.1,9.9-8.9,7.9-15.3l-7.2-22.3c-1-3.1-3.1-5.6-6-7.1C95.8,45.5,93.9,45,92,45z"/>
	<g>
		<path class="st1" d="M86.7,102.2c0,0,2.8-4.6,8.8,2.8l-2.6,5.6C92.9,110.6,84.3,107.5,86.7,102.2z"/>
	</g>
	<g>
		<path class="st6" d="M116.2,93.3c0.5,0.2,0.8,0.7,0.8,1.2l-0.3,3.1c-0.1,0.7,0.4,1.2,1.1,1.3l1.9,0.2c0.5,0,0.9-0.2,1.1-0.6
			l4.3-7.2c0.3-0.6,1-0.7,1.6-0.4l3.4,1.9c0.6,0.3,0.8,1,0.5,1.6l-4.1,7.5c-0.9,1.7-2.6,2.9-4.4,3.2l-3.8,0.7
			c-0.3,0.1-0.7,0-0.9-0.2l-4.7-3.5c-0.2-0.1-0.3-0.3-0.4-0.6l-1.1-3.2c-0.6-1.8-0.5-3.8,0.3-5.5v0
			C111.8,92.2,116.2,93.3,116.2,93.3z"/>
	</g>
	<g>
		<path class="st4" d="M41.1,127.8c0.2,0.4,1.1,0.8,1.6,0.7l2.5-1.2c0.6-0.2,1.2,0.1,1.4,0.6l0.4,1.5c0.1,0.4,0,0.8-0.4,1l-6,4.9
			c-0.5,0.4-0.5,1-0.1,1.4l2.3,2.3c0.4,0.4,1.1,0.4,1.6,0l6.2-4.9c1.4-1.1,2.2-2.7,2.2-4.2l0-3.2c0-0.3-0.1-0.5-0.3-0.7l-4-3
			c-0.2-0.1-0.4-0.2-0.6-0.2l-3.1-0.2c-1.8-0.1-3.6,0.4-5,1.4l0,0C39.4,124.5,41.1,127.8,41.1,127.8z"/>
	</g>
	<g>
		<path class="st6" d="M41.8,128.3c0.2,0.4,0.8,0.5,1.3,0.4l2.8-0.9c0.6-0.2,1.2,0.1,1.4,0.6l0.4,1.5c0.1,0.4,0,0.8-0.4,1l-6,4.9
			c-0.5,0.4-0.5,1-0.1,1.4l2.3,2.3c0.4,0.4,1.1,0.4,1.6,0l6.2-4.9c1.4-1.1,2.2-2.7,2.2-4.2l0-3.2c0-0.3-0.1-0.5-0.3-0.7l-4-3
			c-0.2-0.1-0.4-0.2-0.6-0.2l-3.1-0.2c-1.8-0.1-3.6,0.4-5,1.4l0,0C40.1,124.9,41.8,128.3,41.8,128.3z"/>
	</g>
	<g>
		<path class="st6" d="M96.2,105.7l-3.1,5.3c0,0,9.1,6.6,10.7,5.3c0,0-1.7-4.1-0.5-7L96.2,105.7z"/>
	</g>
	<g>
		<path class="st6" d="M105.7,116.8c0,0,8.4-1.6,10.9-11.2l-4.6-3.5c0,0-8.6,5.8-8.1,8.8C104.3,114,104.1,112.6,105.7,116.8z"/>
	</g>
	<g>
		<path class="st4" d="M62.7,109.1c-1.7,0.3-4.5,1.3-5.5,4.1c-0.2,0.6,0,1.3,0.5,1.7l4.3,3.4c0,0,5.1-3.3,1.9-8.1v0
			C63.9,109.4,63.3,109,62.7,109.1z"/>
	</g>
	<g>
		<path class="st1" d="M63.1,109.6c-1.8,0.3-5,1.4-5.7,4.8c0,0.2,0,0.4,0.2,0.6l4.8,3.7c0,0,5.1-3.3,1.9-8.1l0,0
			C64.3,109.9,63.8,109.4,63.1,109.6z"/>
	</g>
	<g>
		<path class="st4" d="M61.3,118.9l-4.2-3.2c-0.4-0.3-1-0.3-1.4,0c-3.6,2.4-5.3,4.2-6,5.4c-0.5,0.8-0.3,1.8,0.4,2.3l2.7,2.1l0.4-0.3
			c0.1,0.2,0.1,0.3,0.1,0.3L61.3,118.9z"/>
	</g>
	<g>
		<path class="st6" d="M62,119.4l-4.5-3.4c-0.2-0.2-0.5-0.2-0.8,0c-7.3,4.7-6.8,7.2-6.8,7.2l2.6,2l1.1,0.8h0.5L62,119.4z"/>
	</g>
	<g>
		<path class="st6" d="M88,91.8l-19.4,6.2c-10.5,3.4-21.7-2.4-25-12.8l0,0c-3.4-10.5,2.4-21.7,12.8-25l19.4-6.2
			c10.5-3.4,21.7,2.4,25,12.8l0,0C104.2,77.2,98.4,88.4,88,91.8z"/>
	</g>
	<g>
		<path class="st1" d="M102.8,73l-4-12.5c-1.7-5.2-6.2-8.6-11.3-9.2c3.3,1.5,5.9,4.3,7.1,8l4,12.5c2.3,7-1.6,14.5-8.6,16.8
			L58.1,98.9c-1.8,0.6-3.7,0.8-5.5,0.6c2.9,1.4,6.4,1.7,9.7,0.6l31.9-10.3C101.2,87.5,105.1,80,102.8,73z"/>
	</g>
	<g>
		<path class="st6" d="M67.2,41.8l-6.1,2l-3.6-11.3c1.6-1,2.6-2.8,2.6-4.8c0-3.2-2.6-5.8-5.8-5.8s-5.8,2.6-5.8,5.8s2.6,5.8,5.8,5.8
			c0,0,0.1,0,0.1,0L58,44.8l-6.4,2.1c-1.9,0.6-2.9,2.6-2.3,4.5l0.1,0.4l22.8-7.3C71.5,42.3,69.3,41.2,67.2,41.8z"/>
	</g>
	<g>
		<path class="st4" d="M59.6,27.9c0,2-1,3.8-2.6,4.8L60.6,44l1.7-0.5l-3.4-10.7c1.6-1,2.6-2.8,2.6-4.8c0-3.2-2.6-5.8-5.8-5.8
			c-0.3,0-0.6,0-0.9,0.1C57.5,22.6,59.6,25,59.6,27.9z"/>
	</g>
	<g>
		<ellipse transform="matrix(0.952 -0.3061 0.3061 0.952 -16.7649 29.5823)" class="st5" cx="86" cy="68.3" rx="6.2" ry="7.6"/>
	</g>
	<g>
		<ellipse transform="matrix(0.952 -0.3061 0.3061 0.952 -20.6684 21.8855)" class="st5" cx="59.5" cy="76.9" rx="6.2" ry="7.6"/>
	</g>
	<g>
		<path class="st6" d="M115.7,71l-2.5,0.8L105.9,49l3.1-1c6.1-2,12.7,1.4,14.7,7.5v0C125.7,62,122.1,68.9,115.7,71z"/>
	</g>
	<g>
		<path class="st4" d="M124.1,56.6l-0.1-0.5c-1.4-4.5-5.2-7.5-9.6-8.2c2.4,1.4,4.2,3.7,5.2,6.6l0.1,0.5c1.9,5.9-1.3,12.3-7.1,14.3
			l0.9,2.8l3.3-1.1C122.7,69.1,126,62.6,124.1,56.6z"/>
	</g>
	<g>
		<path class="st6" d="M36,100.1l-1.5,0.5c-6.5,2.1-13.4-1.5-15.5-8l0,0c-2-6.1,1.4-12.6,7.5-14.6l2.2-0.7c0.5-0.2,1.1,0.1,1.3,0.6
			l6.7,20.9C36.8,99.4,36.5,99.9,36,100.1z"/>
	</g>
	<g>
		<path class="st4" d="M35.5,96.1c-0.2,0.1-0.4,0.3-0.6,0.3l-0.9,0.3c-6.3,2-13-1.4-15-7.7l0,0c-0.2-0.5-0.3-1.1-0.4-1.6
			c-0.3,1.9-0.2,3.8,0.4,5.8l0,0c2,6.3,8.7,9.7,15,7.7l0.9-0.3c1-0.3,1.6-1.5,1.3-2.5L35.5,96.1z"/>
	</g>
	<g>
		<path class="st6" d="M86,126.7l-9.1,2.9c-5.1,1.6-10.5-1.2-12.1-6.2l-1.4-4.3c-1.6-5.1,1.2-10.5,6.2-12.1l9.1-2.9
			c5.1-1.6,10.5,1.2,12.1,6.2l1.4,4.3C93.9,119.6,91.1,125,86,126.7z"/>
	</g>
	<g>
		<path class="st4" d="M95.4,121.3L89.5,103c-0.4-1.2-1.6-1.8-2.8-1.4l-0.4,0.1c0.5,0.3,0.9,0.7,1.1,1.3l5.9,18.3
			c0.4,1.2-0.3,2.4-1.4,2.8l-22.8,7.3c0.5,0.3,1.1,0.3,1.7,0.1l23.2-7.5C95.1,123.8,95.8,122.5,95.4,121.3z"/>
	</g>
	<g>
		<path class="st5" d="M85,118.8l-11.9,3.8c-3.3,1.1-6.8-0.7-7.8-4v0c-1.1-3.3,0.7-6.8,4-7.8l11.9-3.8c3.3-1.1,6.8,0.7,7.8,4v0
			C90.1,114.3,88.3,117.8,85,118.8z"/>
	</g>
	<g>
		<polygon class="st1" points="77.3,121.3 71.5,115.4 70.7,118.8 67.3,114.4 67.6,119.4 65.8,120 65.5,119.4 66.9,118.9 66.5,112.3 
			70.4,117.2 71.1,114 76.9,119.8 77.8,115 79.9,114.4 79.7,109.2 83.8,115.4 84.3,110.4 86.3,112.1 89.2,111.5 89.4,112.1 
			86.1,112.9 84.8,111.8 84.4,117.4 80.5,111.7 80.6,114.9 78.4,115.6 		"/>
	</g>
	<g>
		<circle class="st7" cx="71.4" cy="127.2" r="2.2"/>
	</g>
	<g>
		<circle class="st7" cx="89.3" cy="120.9" r="2.2"/>
	</g>
	<g>
		<g>
			<path class="st7" d="M83.9,122.6l-6.2,2c-0.2,0.1-0.5-0.1-0.6-0.3l0,0c-0.1-0.2,0.1-0.5,0.3-0.6l6.2-2c0.2-0.1,0.5,0.1,0.6,0.3
				l0,0C84.2,122.2,84.1,122.5,83.9,122.6z"/>
		</g>
		<g>
			<path class="st7" d="M84.3,123.7l-6.2,2c-0.2,0.1-0.5-0.1-0.6-0.3l0,0c-0.1-0.2,0.1-0.5,0.3-0.6l6.2-2c0.2-0.1,0.5,0.1,0.6,0.3h0
				C84.7,123.4,84.6,123.6,84.3,123.7z"/>
		</g>
		<g>
			<path class="st7" d="M84.8,124.9l-6.2,2c-0.2,0.1-0.5-0.1-0.6-0.3l0,0c-0.1-0.2,0.1-0.5,0.3-0.6l6.2-2c0.2-0.1,0.5,0.1,0.6,0.3
				l0,0C85.2,124.5,85,124.8,84.8,124.9z"/>
		</g>
	</g>
	<g>
		<path class="st4" d="M65.5,134.7l-8.4,20.5l0,0l1.4,3.5l0,0l7.7,3.6l5.5-0.4c0.6-0.1,1.1-0.5,1.3-1l6-21.4"/>
	</g>
	<g>
		<polygon class="st6" points="65.5,135 56,155.3 56,155.3 57.4,158.8 57.4,158.8 66.3,162.4 71.5,161.9 77.8,139.4 		"/>
	</g>
	<g>
		<polyline class="st4" points="82,131.9 82,138.4 89,138.4 89,131.9 89,126.6 82,129 		"/>
	</g>
	<g>
		<polyline class="st6" points="81.1,132.2 81.1,138.4 88,138.4 88,132.2 88,127.1 81.1,129.4 		"/>
	</g>
	<g>
		<path class="st4" d="M76.2,138.2l-4.3-2c-1-0.4-1.4-1.6-0.9-2.5l0.5-1.1l7-3L76.2,138.2z"/>
	</g>
	<g>
		<polygon class="st6" points="77.1,131.5 75.3,137.8 69.2,135 70.6,132.6 77.6,130.1 		"/>
	</g>
	<g class="st8">
		<path class="st5" d="M47.3,69.5L47.3,69.5L47.3,69.5c0.6-0.9,1.3-1.6,2.1-2c0.5-0.3,0.9-0.6,1.4-1l1.4-1.2l-3.8,1.9
			c-3.2,1.7-4.8,6.6-3.4,11l1.6,5.1L45.9,76c-0.1-0.8-0.1-1.6,0-2.3C46.1,72.1,46.6,70.6,47.3,69.5z"/>
	</g>
	<g>
		<path class="st4" d="M77.6,139.1h14.7l1.3,18.3c0,0.5-0.1,1-0.4,1.4l-1.1,1.6c-0.3,0.4-0.8,0.7-1.3,0.7l-8.7-0.2l-3.8-2
			L77.6,139.1z"/>
	</g>
	<g>
		<polygon class="st6" points="77.8,139.4 91.5,139.4 93,160.5 90.9,163.7 81.5,164.5 77.2,161.4 		"/>
	</g>
	<g>
		<polygon class="st1" points="65.5,135 63.9,138.4 76.7,143.2 77.8,139.4 		"/>
	</g>
	<g>
		<g>
			<defs>
				<ellipse id="SVGID_1_" cx="75.5" cy="178.3" rx="20.9" ry="1.5"/>
			</defs>
			<linearGradient id="SVGID_2_" gradientUnits="userSpaceOnUse" x1="66.1179" y1="191.8302" x2="83.3178" y2="167.0376">
				<stop  offset="0" style="stop-color:#00A99D"/>
				<stop  offset="0.216" style="stop-color:#3DBDB4;stop-opacity:0.784"/>
				<stop  offset="0.6041" style="stop-color:#A4E0DC;stop-opacity:0.3959"/>
				<stop  offset="0.8737" style="stop-color:#E6F6F5;stop-opacity:0.1263"/>
				<stop  offset="1" style="stop-color:#FFFFFF;stop-opacity:0"/>
			</linearGradient>
			<use xlink:href="#SVGID_1_"  style="overflow:visible;fill:url(#SVGID_2_);"/>
			<clipPath id="SVGID_3_">
				<use xlink:href="#SVGID_1_"  style="overflow:visible;"/>
			</clipPath>
			<linearGradient id="SVGID_4_" gradientUnits="userSpaceOnUse" x1="66.1179" y1="191.8302" x2="83.3178" y2="167.0376">
				<stop  offset="0" style="stop-color:#00A99D"/>
				<stop  offset="0.216" style="stop-color:#3DBDB4;stop-opacity:0.784"/>
				<stop  offset="0.6041" style="stop-color:#A4E0DC;stop-opacity:0.3959"/>
				<stop  offset="0.8737" style="stop-color:#E6F6F5;stop-opacity:0.1263"/>
				<stop  offset="1" style="stop-color:#FFFFFF;stop-opacity:0"/>
			</linearGradient>
			<rect x="54.6" y="176.8" class="st9" width="41.8" height="3"/>
			<linearGradient id="SVGID_5_" gradientUnits="userSpaceOnUse" x1="66.1179" y1="191.8302" x2="83.3178" y2="167.0376">
				<stop  offset="0" style="stop-color:#00A99D"/>
				<stop  offset="0.216" style="stop-color:#3DBDB4;stop-opacity:0.784"/>
				<stop  offset="0.6041" style="stop-color:#A4E0DC;stop-opacity:0.3959"/>
				<stop  offset="0.8737" style="stop-color:#E6F6F5;stop-opacity:0.1263"/>
				<stop  offset="1" style="stop-color:#FFFFFF;stop-opacity:0"/>
			</linearGradient>
			<ellipse class="st10" cx="75.5" cy="178.3" rx="17.9" ry="1.9"/>
			<linearGradient id="SVGID_6_" gradientUnits="userSpaceOnUse" x1="67.9277" y1="193.0859" x2="85.1276" y2="168.2932">
				<stop  offset="0" style="stop-color:#00A99D"/>
				<stop  offset="0.216" style="stop-color:#3DBDB4;stop-opacity:0.784"/>
				<stop  offset="0.6041" style="stop-color:#A4E0DC;stop-opacity:0.3959"/>
				<stop  offset="0.8737" style="stop-color:#E6F6F5;stop-opacity:0.1263"/>
				<stop  offset="1" style="stop-color:#FFFFFF;stop-opacity:0"/>
			</linearGradient>
			<path class="st11" d="M85.8,180.1h-8.9H68v0.2c0-0.5,4-1,8.9-1s8.9,0.4,8.9,1V180.1z"/>
		</g>
	</g>
	<polygon class="st1" points="77.8,139.4 91.5,139.4 91.8,142.9 77.8,143.2 	"/>
</g>
</svg>
