<?xml version="1.0" encoding="utf-8"?>
<!-- Generator: Adobe Illustrator 21.0.0, SVG Export Plug-In . SVG Version: 6.00 Build 0)  -->
<svg version="1.1" id="Layer_1" xmlns="http://www.w3.org/2000/svg" xmlns:xlink="http://www.w3.org/1999/xlink" x="0px" y="0px"
	 viewBox="0 0 600 400" style="enable-background:new 0 0 600 400;" xml:space="preserve">
<style type="text/css">
	.st0{fill:none;stroke:#1F6666;stroke-width:2;stroke-miterlimit:10;}
	.st1{fill:#1CA0A4;}
	.st2{fill:#1F6666;}
	.st3{fill:#F27221;}
	.st4{fill:#003366;}
	.st5{fill:#F1F0F0;}
	.st6{fill:#077E9E;}
	.st7{fill:#E4E5E0;}
	.st8{opacity:0.61;}
	.st9{clip-path:url(#SVGID_3_);fill:url(#SVGID_4_);}
	.st10{clip-path:url(#SVGID_3_);fill:url(#SVGID_5_);}
	.st11{clip-path:url(#SVGID_3_);fill:url(#SVGID_6_);}
</style>
<line class="st0" x1="377.4" y1="65.7" x2="377.6" y2="215.5"/>
<circle class="st1" cx="342.9" cy="83.5" r="4.5"/>
<g>
	<path class="st2" d="M239.5,80.1h-2.8v7.6h-1.1v-7.6h-2.8v-0.9h6.7V80.1z"/>
	<path class="st2" d="M241.7,82.2c0.2-0.3,0.5-0.5,0.8-0.7c0.3-0.2,0.7-0.3,1.1-0.3c0.7,0,1.2,0.2,1.6,0.6c0.4,0.4,0.6,1,0.6,1.9
		v3.9h-1.1v-4c0-0.5-0.1-0.9-0.3-1.2c-0.2-0.2-0.6-0.4-1-0.4c-0.3,0-0.6,0.1-0.9,0.2c-0.3,0.1-0.5,0.3-0.6,0.6v4.7h-1.1v-9.1h1.1
		V82.2z"/>
	<path class="st2" d="M247.1,84.5c0-0.9,0.3-1.7,0.8-2.3c0.5-0.6,1.2-0.9,2.1-0.9c0.9,0,1.6,0.3,2.1,0.9c0.5,0.6,0.8,1.4,0.8,2.3
		v0.1c0,0.9-0.3,1.7-0.8,2.3c-0.5,0.6-1.2,0.9-2.1,0.9c-0.9,0-1.6-0.3-2.1-0.9s-0.8-1.4-0.8-2.3V84.5z M251.7,80.1v0.1h-0.9
		l-0.9-0.9l-0.9,0.9h-0.9v-0.2l1.4-1.4h0.7L251.7,80.1z M248.2,84.6c0,0.7,0.1,1.2,0.4,1.7c0.3,0.4,0.7,0.7,1.3,0.7
		c0.5,0,1-0.2,1.2-0.7c0.3-0.4,0.4-1,0.4-1.7v-0.1c0-0.7-0.1-1.2-0.4-1.6c-0.3-0.4-0.7-0.7-1.3-0.7c-0.5,0-1,0.2-1.2,0.7
		c-0.3,0.4-0.4,1-0.4,1.6V84.6z"/>
	<path class="st2" d="M255.2,81.4l0.1,0.9c0.2-0.3,0.5-0.6,0.8-0.8c0.3-0.2,0.7-0.3,1.1-0.3c0.7,0,1.2,0.2,1.6,0.6
		c0.4,0.4,0.6,1,0.6,1.8v4h-1.1v-4c0-0.6-0.1-0.9-0.3-1.2c-0.2-0.2-0.6-0.3-1-0.3c-0.4,0-0.7,0.1-0.9,0.2c-0.2,0.1-0.4,0.3-0.6,0.6
		v4.7h-1.1v-6.3H255.2z"/>
	<path class="st2" d="M260.7,84.6c0-1,0.2-1.8,0.6-2.5c0.4-0.6,1-0.9,1.8-0.9c0.4,0,0.8,0.1,1.1,0.2c0.3,0.2,0.6,0.4,0.8,0.7
		l0.1-0.8h0.9v6.3c0,0.8-0.2,1.4-0.7,1.9c-0.5,0.4-1.1,0.6-2,0.6c-0.3,0-0.6,0-1-0.1c-0.4-0.1-0.7-0.2-0.9-0.3l0.2-0.9
		c0.2,0.1,0.5,0.2,0.8,0.3c0.3,0.1,0.6,0.1,0.9,0.1c0.6,0,1-0.1,1.2-0.4c0.3-0.3,0.4-0.6,0.4-1.2V87c-0.2,0.3-0.5,0.5-0.7,0.6
		c-0.3,0.1-0.6,0.2-1,0.2c-0.8,0-1.4-0.3-1.8-0.8c-0.4-0.6-0.6-1.3-0.6-2.2V84.6z M261.9,84.7c0,0.6,0.1,1.1,0.4,1.5
		c0.3,0.4,0.7,0.6,1.2,0.6c0.3,0,0.6-0.1,0.9-0.2c0.2-0.2,0.4-0.4,0.6-0.7V83c-0.1-0.3-0.3-0.5-0.6-0.6c-0.2-0.2-0.5-0.2-0.9-0.2
		c-0.5,0-1,0.2-1.2,0.7s-0.4,1-0.4,1.8V84.7z"/>
	<path class="st2" d="M272.3,79.8v1.5h1.2v0.9h-1.2V86c0,0.3,0.1,0.5,0.2,0.6c0.1,0.1,0.3,0.2,0.5,0.2c0.1,0,0.1,0,0.2,0
		c0.1,0,0.1,0,0.2-0.1l0.2,0.8c-0.1,0.1-0.2,0.1-0.4,0.2c-0.2,0-0.3,0.1-0.5,0.1c-0.5,0-0.8-0.1-1.1-0.4c-0.3-0.3-0.4-0.7-0.4-1.3
		v-3.8h-1v-0.9h1v-1.5H272.3z"/>
	<path class="st2" d="M275.9,79.7h-1.1v-1.2h1.1V79.7z M275.9,87.7h-1.1v-6.3h1.1V87.7z"/>
	<path class="st2" d="M278.7,81.4l0.1,0.9c0.2-0.3,0.5-0.6,0.8-0.8c0.3-0.2,0.7-0.3,1.1-0.3c0.7,0,1.2,0.2,1.6,0.6
		c0.4,0.4,0.6,1,0.6,1.8v4h-1.1v-4c0-0.6-0.1-0.9-0.3-1.2c-0.2-0.2-0.6-0.3-1-0.3c-0.4,0-0.7,0.1-0.9,0.2c-0.2,0.1-0.4,0.3-0.6,0.6
		v4.7h-1.1v-6.3H278.7z"/>
	<path class="st2" d="M290,86.9c0.4,0,0.7-0.1,0.9-0.4c0.3-0.2,0.4-0.5,0.4-0.9h1l0,0c0,0.5-0.2,1-0.7,1.4c-0.5,0.4-1,0.6-1.7,0.6
		c-0.9,0-1.6-0.3-2.1-0.9c-0.5-0.6-0.7-1.4-0.7-2.2v-0.2c0-0.9,0.2-1.6,0.7-2.2c0.5-0.6,1.2-0.9,2-0.9c0.7,0,1.3,0.2,1.7,0.7
		c0.4,0.4,0.7,1,0.6,1.6l0,0h-1c0-0.4-0.1-0.7-0.4-1c-0.3-0.3-0.6-0.4-0.9-0.4c-0.6,0-1,0.2-1.2,0.7c-0.3,0.4-0.4,1-0.4,1.6v0.2
		c0,0.6,0.1,1.2,0.4,1.6C289,86.7,289.4,86.9,290,86.9z"/>
	<path class="st2" d="M297.6,87.7c0-0.2-0.1-0.4-0.1-0.5c0-0.1,0-0.3,0-0.4c-0.2,0.3-0.5,0.6-0.8,0.8c-0.3,0.2-0.7,0.3-1.1,0.3
		c-0.7,0-1.2-0.2-1.5-0.5c-0.3-0.3-0.5-0.8-0.5-1.4c0-0.6,0.2-1.1,0.7-1.4c0.5-0.3,1.1-0.5,2-0.5h1.2v-0.6c0-0.4-0.1-0.7-0.3-0.9
		c-0.2-0.2-0.5-0.3-1-0.3c-0.4,0-0.7,0.1-0.9,0.3c-0.2,0.2-0.3,0.4-0.3,0.7l-1.1,0l0,0c0-0.5,0.2-0.9,0.6-1.3c0.5-0.4,1-0.6,1.8-0.6
		c0.7,0,1.3,0.2,1.7,0.5c0.4,0.4,0.7,0.9,0.7,1.6v3c0,0.2,0,0.4,0,0.7c0,0.2,0.1,0.4,0.1,0.6H297.6z M295.7,86.8
		c0.4,0,0.8-0.1,1.1-0.3c0.3-0.2,0.6-0.5,0.7-0.7v-1h-1.3c-0.5,0-0.8,0.1-1.1,0.3c-0.3,0.2-0.4,0.5-0.4,0.8c0,0.3,0.1,0.5,0.3,0.7
		C295.1,86.7,295.3,86.8,295.7,86.8z M296.6,78.7h1.3l0,0l-1.6,1.5h-0.9L296.6,78.7z"/>
	<path class="st2" d="M304.2,81.4l0.1,0.9c0.2-0.3,0.5-0.6,0.8-0.8c0.3-0.2,0.7-0.3,1.1-0.3c0.7,0,1.2,0.2,1.6,0.6
		c0.4,0.4,0.6,1,0.6,1.8v4h-1.1v-4c0-0.6-0.1-0.9-0.3-1.2c-0.2-0.2-0.6-0.3-1-0.3c-0.4,0-0.7,0.1-0.9,0.2c-0.2,0.1-0.4,0.3-0.6,0.6
		v4.7h-1.1v-6.3H304.2z"/>
	<path class="st2" d="M311.1,82.2c0.2-0.3,0.5-0.5,0.8-0.7c0.3-0.2,0.7-0.3,1.1-0.3c0.7,0,1.2,0.2,1.6,0.6c0.4,0.4,0.6,1,0.6,1.9
		v3.9H314v-4c0-0.5-0.1-0.9-0.3-1.2c-0.2-0.2-0.6-0.4-1-0.4c-0.3,0-0.6,0.1-0.9,0.2c-0.3,0.1-0.5,0.3-0.6,0.6v4.7H310v-9.1h1.1V82.2
		z"/>
	<path class="st2" d="M320.7,87.7c0-0.2-0.1-0.4-0.1-0.5c0-0.1,0-0.3,0-0.4c-0.2,0.3-0.5,0.6-0.8,0.8c-0.3,0.2-0.7,0.3-1.1,0.3
		c-0.7,0-1.2-0.2-1.5-0.5c-0.3-0.3-0.5-0.8-0.5-1.4c0-0.6,0.2-1.1,0.7-1.4c0.5-0.3,1.1-0.5,2-0.5h1.2v-0.6c0-0.4-0.1-0.7-0.3-0.9
		c-0.2-0.2-0.5-0.3-1-0.3c-0.4,0-0.7,0.1-0.9,0.3c-0.2,0.2-0.3,0.4-0.3,0.7l-1.1,0l0,0c0-0.5,0.2-0.9,0.6-1.3c0.5-0.4,1-0.6,1.8-0.6
		c0.7,0,1.3,0.2,1.7,0.5c0.4,0.4,0.7,0.9,0.7,1.6v3c0,0.2,0,0.4,0,0.7c0,0.2,0.1,0.4,0.1,0.6H320.7z M321,80.1v0.1H320l-0.9-0.9
		l-0.9,0.9h-0.9v-0.2l1.4-1.4h0.7L321,80.1z M318.7,86.8c0.4,0,0.8-0.1,1.1-0.3c0.3-0.2,0.6-0.5,0.7-0.7v-1h-1.3
		c-0.5,0-0.8,0.1-1.1,0.3c-0.3,0.2-0.4,0.5-0.4,0.8c0,0.3,0.1,0.5,0.3,0.7C318.1,86.7,318.4,86.8,318.7,86.8z"/>
	<path class="st2" d="M324.4,81.4l0.1,0.9c0.2-0.3,0.5-0.6,0.8-0.8c0.3-0.2,0.7-0.3,1.1-0.3c0.7,0,1.2,0.2,1.6,0.6
		c0.4,0.4,0.6,1,0.6,1.8v4h-1.1v-4c0-0.6-0.1-0.9-0.3-1.2c-0.2-0.2-0.6-0.3-1-0.3c-0.4,0-0.7,0.1-0.9,0.2c-0.2,0.1-0.4,0.3-0.6,0.6
		v4.7h-1.1v-6.3H324.4z"/>
</g>
<circle class="st1" cx="410.2" cy="110.2" r="4.5"/>
<g>
	<path class="st2" d="M436,107.6h-2.6v7h-1.1v-7h-2.6v-0.8h6.2V107.6z"/>
	<path class="st2" d="M438,109.6c0.2-0.3,0.4-0.5,0.7-0.7c0.3-0.2,0.6-0.2,1-0.2c0.6,0,1.1,0.2,1.5,0.6c0.3,0.4,0.5,0.9,0.5,1.7v3.6
		h-1.1V111c0-0.5-0.1-0.8-0.3-1.1c-0.2-0.2-0.5-0.3-0.9-0.3c-0.3,0-0.6,0.1-0.8,0.2c-0.2,0.1-0.4,0.3-0.6,0.5v4.4H437v-8.4h1.1
		V109.6z"/>
	<path class="st2" d="M443,111.7c0-0.9,0.2-1.6,0.7-2.1c0.5-0.6,1.1-0.8,1.9-0.8c0.8,0,1.4,0.3,1.9,0.8c0.5,0.6,0.7,1.3,0.7,2.1v0.1
		c0,0.9-0.2,1.6-0.7,2.1c-0.5,0.6-1.1,0.8-1.9,0.8c-0.8,0-1.4-0.3-1.9-0.8c-0.5-0.6-0.7-1.3-0.7-2.1V111.7z M447.3,107.6v0.1h-0.9
		l-0.8-0.8l-0.8,0.8h-0.9v-0.1l1.3-1.3h0.6L447.3,107.6z M444,111.8c0,0.6,0.1,1.1,0.4,1.5c0.3,0.4,0.6,0.6,1.2,0.6
		c0.5,0,0.9-0.2,1.2-0.6c0.3-0.4,0.4-0.9,0.4-1.5v-0.1c0-0.6-0.1-1.1-0.4-1.5c-0.3-0.4-0.7-0.6-1.2-0.6c-0.5,0-0.9,0.2-1.1,0.6
		c-0.3,0.4-0.4,0.9-0.4,1.5V111.8z"/>
	<path class="st2" d="M450.4,108.8l0.1,0.9c0.2-0.3,0.4-0.5,0.7-0.7c0.3-0.2,0.6-0.3,1-0.3c0.6,0,1.1,0.2,1.5,0.6
		c0.3,0.4,0.5,0.9,0.5,1.7v3.7h-1.1V111c0-0.5-0.1-0.9-0.3-1.1c-0.2-0.2-0.5-0.3-0.9-0.3c-0.3,0-0.6,0.1-0.8,0.2
		c-0.2,0.1-0.4,0.3-0.5,0.6v4.3h-1.1v-5.8H450.4z"/>
	<path class="st2" d="M455.6,111.8c0-0.9,0.2-1.7,0.6-2.3c0.4-0.6,1-0.9,1.7-0.9c0.4,0,0.7,0.1,1,0.2c0.3,0.1,0.5,0.4,0.7,0.6
		l0.1-0.8h0.8v5.9c0,0.7-0.2,1.3-0.7,1.7c-0.4,0.4-1.1,0.6-1.9,0.6c-0.3,0-0.6,0-0.9-0.1c-0.3-0.1-0.6-0.2-0.9-0.3l0.2-0.8
		c0.2,0.1,0.5,0.2,0.7,0.3c0.3,0.1,0.6,0.1,0.9,0.1c0.5,0,0.9-0.1,1.1-0.4c0.2-0.2,0.4-0.6,0.4-1.1V114c-0.2,0.2-0.4,0.4-0.7,0.6
		c-0.3,0.1-0.6,0.2-0.9,0.2c-0.7,0-1.3-0.3-1.7-0.8c-0.4-0.5-0.6-1.2-0.6-2V111.8z M456.6,112c0,0.6,0.1,1.1,0.4,1.4
		c0.2,0.4,0.6,0.5,1.1,0.5c0.3,0,0.6-0.1,0.8-0.2c0.2-0.1,0.4-0.4,0.5-0.6v-2.7c-0.1-0.2-0.3-0.4-0.5-0.6c-0.2-0.1-0.5-0.2-0.8-0.2
		c-0.5,0-0.9,0.2-1.1,0.6c-0.2,0.4-0.4,1-0.4,1.6V112z"/>
	<path class="st2" d="M466.2,107.4v1.4h1.1v0.8h-1.1v3.5c0,0.3,0.1,0.5,0.2,0.6c0.1,0.1,0.3,0.2,0.4,0.2c0.1,0,0.1,0,0.2,0
		c0.1,0,0.1,0,0.2-0.1l0.1,0.7c-0.1,0.1-0.2,0.1-0.3,0.2c-0.2,0-0.3,0.1-0.5,0.1c-0.4,0-0.8-0.1-1-0.4c-0.3-0.3-0.4-0.7-0.4-1.2
		v-3.5h-0.9v-0.8h0.9v-1.4H466.2z"/>
	<path class="st2" d="M469.6,107.3h-1.1v-1.1h1.1V107.3z M469.6,114.6h-1.1v-5.8h1.1V114.6z"/>
	<path class="st2" d="M472.2,108.8l0.1,0.9c0.2-0.3,0.4-0.5,0.7-0.7c0.3-0.2,0.6-0.3,1-0.3c0.6,0,1.1,0.2,1.5,0.6
		c0.3,0.4,0.5,0.9,0.5,1.7v3.7h-1.1V111c0-0.5-0.1-0.9-0.3-1.1c-0.2-0.2-0.5-0.3-0.9-0.3c-0.3,0-0.6,0.1-0.8,0.2
		c-0.2,0.1-0.4,0.3-0.5,0.6v4.3h-1.1v-5.8H472.2z"/>
	<path class="st2" d="M483.7,113.1c0-0.2-0.1-0.4-0.3-0.6c-0.2-0.1-0.5-0.3-1-0.4c-0.7-0.1-1.2-0.4-1.6-0.6
		c-0.4-0.3-0.6-0.6-0.6-1.1c0-0.5,0.2-0.9,0.6-1.2c0.4-0.3,0.9-0.5,1.6-0.5c0.7,0,1.2,0.2,1.6,0.5c0.4,0.4,0.6,0.8,0.6,1.3l0,0h-1
		c0-0.3-0.1-0.5-0.3-0.7c-0.2-0.2-0.5-0.3-0.8-0.3c-0.4,0-0.7,0.1-0.8,0.3c-0.2,0.2-0.3,0.4-0.3,0.6c0,0.2,0.1,0.4,0.2,0.5
		c0.2,0.1,0.5,0.2,1,0.3c0.7,0.2,1.3,0.4,1.6,0.6c0.4,0.3,0.6,0.6,0.6,1.1c0,0.5-0.2,0.9-0.6,1.3c-0.4,0.3-1,0.5-1.6,0.5
		c-0.7,0-1.3-0.2-1.8-0.6c-0.4-0.4-0.6-0.8-0.6-1.3l0,0h1c0,0.4,0.2,0.7,0.4,0.8c0.3,0.2,0.6,0.3,0.9,0.3c0.4,0,0.7-0.1,0.9-0.2
		C483.5,113.5,483.7,113.3,483.7,113.1z"/>
	<path class="st2" d="M492.7,108L492.7,108c0,0.7-0.1,1.2-0.4,1.5c-0.3,0.3-0.8,0.5-1.5,0.6v4.5h-1l-0.1-0.9
		c-0.2,0.3-0.4,0.6-0.7,0.7c-0.3,0.2-0.6,0.3-1,0.3c-0.6,0-1.1-0.2-1.5-0.6c-0.4-0.4-0.5-1-0.5-1.9v-3.4h1.1v3.4
		c0,0.6,0.1,1,0.3,1.3c0.2,0.2,0.5,0.3,0.9,0.3c0.4,0,0.7-0.1,0.9-0.2c0.2-0.2,0.4-0.4,0.6-0.6v-4.2h1.1v0.6l0,0
		c0.4,0,0.6-0.2,0.8-0.4c0.2-0.2,0.2-0.6,0.2-1H492.7z M488.9,106.5h1.2l0,0l-1.4,1.4h-0.8L488.9,106.5z"/>
	<path class="st2" d="M494.8,113.9c0.3,0,0.6-0.1,0.9-0.3c0.2-0.2,0.4-0.5,0.4-0.8h1l0,0c0,0.5-0.2,0.9-0.6,1.3
		c-0.4,0.4-1,0.6-1.6,0.6c-0.8,0-1.5-0.3-1.9-0.8c-0.4-0.6-0.7-1.2-0.7-2.1v-0.2c0-0.8,0.2-1.5,0.7-2.1c0.4-0.6,1.1-0.8,1.9-0.8
		c0.6,0,1.2,0.2,1.6,0.6c0.4,0.4,0.6,0.9,0.6,1.5l0,0h-1c0-0.4-0.1-0.7-0.3-0.9c-0.2-0.2-0.5-0.4-0.9-0.4c-0.5,0-0.9,0.2-1.1,0.6
		c-0.2,0.4-0.4,0.9-0.4,1.5v0.2c0,0.6,0.1,1.1,0.4,1.5C493.9,113.7,494.3,113.9,494.8,113.9z"/>
	<path class="st2" d="M502.6,112h-0.5v2.7H501v-8.4h1.1v4.9h0.5l1.7-2.3h1.3l-2.1,2.7l2.3,3.1h-1.3L502.6,112z"/>
	<path class="st2" d="M507.7,109.6c0.2-0.3,0.4-0.5,0.7-0.7c0.3-0.2,0.6-0.2,1-0.2c0.6,0,1.1,0.2,1.5,0.6c0.3,0.4,0.5,0.9,0.5,1.7
		v3.6h-1.1V111c0-0.5-0.1-0.8-0.3-1.1c-0.2-0.2-0.5-0.3-0.9-0.3c-0.3,0-0.6,0.1-0.8,0.2c-0.2,0.1-0.4,0.3-0.6,0.5v4.4h-1.1v-8.4h1.1
		V109.6z"/>
	<path class="st2" d="M512.7,111.7c0-0.9,0.2-1.6,0.7-2.1c0.5-0.6,1.1-0.8,1.9-0.8c0.8,0,1.4,0.3,1.9,0.8c0.5,0.6,0.7,1.3,0.7,2.1
		v0.1c0,0.9-0.2,1.6-0.7,2.1c-0.5,0.6-1.1,0.8-1.9,0.8c-0.8,0-1.4-0.3-1.9-0.8c-0.5-0.6-0.7-1.3-0.7-2.1V111.7z M513.8,111.8
		c0,0.6,0.1,1.1,0.4,1.5c0.3,0.4,0.6,0.6,1.2,0.6c0.5,0,0.9-0.2,1.2-0.6c0.3-0.4,0.4-0.9,0.4-1.5v-0.1c0-0.6-0.1-1.1-0.4-1.5
		c-0.3-0.4-0.7-0.6-1.2-0.6c-0.5,0-0.9,0.2-1.1,0.6c-0.3,0.4-0.4,0.9-0.4,1.5V111.8z M515,107.9l0-0.8c0.3,0,0.5-0.1,0.6-0.1
		c0.1-0.1,0.2-0.2,0.2-0.3c0-0.1-0.1-0.2-0.2-0.3c-0.2-0.1-0.4-0.1-0.6-0.1l0-0.6c0.5,0,0.9,0.1,1.2,0.3c0.3,0.2,0.4,0.4,0.4,0.7
		c0,0.3-0.1,0.4-0.2,0.6c-0.2,0.1-0.3,0.2-0.6,0.2l0,0.4H515z"/>
	<path class="st2" d="M521.6,114.8c-0.8,0-1.5-0.3-2-0.8c-0.5-0.5-0.7-1.2-0.7-2.1v-0.2c0-0.8,0.2-1.5,0.7-2.1
		c0.5-0.5,1.1-0.8,1.8-0.8c0.8,0,1.4,0.2,1.8,0.7c0.4,0.5,0.6,1.1,0.6,1.9v0.6h-3.7l0,0c0,0.6,0.1,1.1,0.4,1.4
		c0.3,0.4,0.7,0.5,1.2,0.5c0.4,0,0.7-0.1,0.9-0.2c0.3-0.1,0.5-0.2,0.7-0.4l0.4,0.7c-0.2,0.2-0.5,0.4-0.8,0.5
		C522.5,114.7,522.1,114.8,521.6,114.8z M521.5,109.5c-0.4,0-0.7,0.1-0.9,0.4c-0.2,0.3-0.4,0.7-0.4,1.1l0,0h2.6V111
		c0-0.4-0.1-0.8-0.3-1C522.2,109.7,521.9,109.5,521.5,109.5z"/>
</g>
<circle class="st1" cx="342.7" cy="160.5" r="4.5"/>
<g>
	<path class="st2" d="M238.6,164.9h-1.3l-4.6-7.2l0,0v7.2h-1.3v-9.5h1.3l4.6,7.2l0,0v-7.2h1.3V164.9z"/>
	<path class="st2" d="M241.9,158.8c0.2-0.3,0.5-0.6,0.9-0.8c0.4-0.2,0.7-0.3,1.2-0.3c0.8,0,1.3,0.2,1.8,0.7c0.4,0.5,0.6,1.1,0.6,2.1
		v4.4h-1.3v-4.4c0-0.6-0.1-1-0.4-1.3c-0.2-0.3-0.6-0.4-1.1-0.4c-0.4,0-0.7,0.1-1,0.2c-0.3,0.1-0.5,0.4-0.7,0.6v5.3h-1.3v-10.2h1.3
		V158.8z"/>
	<path class="st2" d="M252.7,163.9c-0.2,0.4-0.5,0.7-0.9,0.9c-0.3,0.2-0.7,0.3-1.2,0.3c-0.8,0-1.4-0.2-1.8-0.7
		c-0.4-0.5-0.6-1.3-0.6-2.3v-4.2h1.3v4.2c0,0.8,0.1,1.3,0.3,1.5c0.2,0.3,0.6,0.4,1,0.4c0.5,0,0.8-0.1,1.1-0.3
		c0.3-0.2,0.5-0.4,0.7-0.8v-5.1h1.3v7h-1.2L252.7,163.9z"/>
	<path class="st2" d="M261.9,164.1c0.4,0,0.7-0.1,1-0.4c0.3-0.3,0.4-0.6,0.4-1h1.2l0,0c0,0.6-0.2,1.1-0.8,1.6
		c-0.5,0.5-1.2,0.7-1.9,0.7c-1,0-1.8-0.3-2.3-1c-0.5-0.7-0.8-1.5-0.8-2.5v-0.3c0-1,0.3-1.8,0.8-2.5c0.5-0.7,1.3-1,2.3-1
		c0.8,0,1.4,0.2,1.9,0.7c0.5,0.5,0.7,1.1,0.7,1.8l0,0h-1.2c0-0.4-0.1-0.8-0.4-1.1c-0.3-0.3-0.6-0.5-1.1-0.5c-0.6,0-1.1,0.2-1.4,0.7
		c-0.3,0.5-0.4,1.1-0.4,1.8v0.3c0,0.7,0.1,1.3,0.4,1.8C260.8,163.8,261.2,164.1,261.9,164.1z"/>
	<path class="st2" d="M266.8,155.6h-1l-1.3-1.7h1.4L266.8,155.6z M270.4,164.9c0-0.2-0.1-0.4-0.1-0.6c0-0.2,0-0.3,0-0.5
		c-0.2,0.3-0.6,0.6-0.9,0.8c-0.4,0.2-0.8,0.3-1.2,0.3c-0.7,0-1.3-0.2-1.7-0.6c-0.4-0.4-0.6-0.9-0.6-1.6c0-0.7,0.3-1.2,0.8-1.6
		c0.5-0.4,1.3-0.6,2.2-0.6h1.4v-0.7c0-0.4-0.1-0.7-0.4-1c-0.3-0.2-0.6-0.4-1.1-0.4c-0.4,0-0.8,0.1-1,0.3c-0.3,0.2-0.4,0.5-0.4,0.7
		l-1.2,0l0,0c0-0.5,0.2-1,0.7-1.4c0.5-0.4,1.2-0.6,2-0.6c0.8,0,1.4,0.2,1.9,0.6c0.5,0.4,0.7,1,0.7,1.8v3.4c0,0.3,0,0.5,0,0.7
		s0.1,0.5,0.1,0.7H270.4z M271.1,156.7L271.1,156.7l-1.3,0l-1.1-1l-1.1,1h-1.3l0,0l1.9-1.7h1L271.1,156.7z M268.3,164
		c0.5,0,0.9-0.1,1.3-0.4c0.4-0.2,0.6-0.5,0.7-0.8v-1.1h-1.4c-0.5,0-0.9,0.1-1.2,0.4c-0.3,0.3-0.5,0.6-0.5,0.9c0,0.3,0.1,0.6,0.3,0.7
		C267.6,163.9,267.9,164,268.3,164z"/>
	<path class="st2" d="M277.9,163.9c-0.2,0.4-0.5,0.7-0.9,0.9c-0.3,0.2-0.7,0.3-1.2,0.3c-0.8,0-1.4-0.2-1.8-0.7
		c-0.4-0.5-0.6-1.3-0.6-2.3v-4.2h1.3v4.2c0,0.8,0.1,1.3,0.3,1.5c0.2,0.3,0.6,0.4,1,0.4c0.5,0,0.8-0.1,1.1-0.3
		c0.3-0.2,0.5-0.4,0.7-0.8v-5.1h1.3v7H278L277.9,163.9z"/>
	<path class="st2" d="M290.3,161.7c0,1-0.2,1.8-0.7,2.5c-0.5,0.6-1.2,0.9-2,0.9c-0.5,0-0.9-0.1-1.2-0.3c-0.3-0.2-0.6-0.5-0.9-0.8
		l-0.2,1h-1v-10.2h1.3v3.9c0.2-0.3,0.5-0.6,0.8-0.7c0.3-0.2,0.7-0.2,1.1-0.2c0.9,0,1.5,0.3,2,1c0.5,0.7,0.7,1.6,0.7,2.7V161.7z
		 M289,161.5c0-0.8-0.1-1.5-0.4-2c-0.3-0.5-0.7-0.8-1.4-0.8c-0.4,0-0.7,0.1-1,0.3c-0.3,0.2-0.5,0.5-0.6,0.8v3.1
		c0.2,0.3,0.4,0.6,0.6,0.8s0.6,0.3,1,0.3c0.6,0,1.1-0.2,1.3-0.6c0.3-0.4,0.4-1,0.4-1.7V161.5z"/>
	<path class="st2" d="M296.2,164.9c0-0.2-0.1-0.4-0.1-0.6c0-0.2,0-0.3,0-0.5c-0.2,0.3-0.6,0.6-0.9,0.8c-0.4,0.2-0.8,0.3-1.2,0.3
		c-0.7,0-1.3-0.2-1.7-0.6c-0.4-0.4-0.6-0.9-0.6-1.6c0-0.7,0.3-1.2,0.8-1.6c0.5-0.4,1.3-0.6,2.2-0.6h1.4v-0.7c0-0.4-0.1-0.7-0.4-1
		c-0.3-0.2-0.6-0.4-1.1-0.4c-0.4,0-0.8,0.1-1,0.3c-0.3,0.2-0.4,0.5-0.4,0.7l-1.2,0l0,0c0-0.5,0.2-1,0.7-1.4c0.5-0.4,1.2-0.6,2-0.6
		c0.8,0,1.4,0.2,1.9,0.6c0.5,0.4,0.7,1,0.7,1.8v3.4c0,0.3,0,0.5,0,0.7s0.1,0.5,0.1,0.7H296.2z M294.1,164c0.5,0,0.9-0.1,1.3-0.4
		c0.4-0.2,0.6-0.5,0.7-0.8v-1.1h-1.4c-0.5,0-0.9,0.1-1.2,0.4c-0.3,0.3-0.5,0.6-0.5,0.9c0,0.3,0.1,0.6,0.3,0.7
		C293.4,163.9,293.7,164,294.1,164z M294.1,156.8l0-1c0.3,0,0.6-0.1,0.7-0.1c0.1-0.1,0.2-0.2,0.2-0.3c0-0.2-0.1-0.3-0.3-0.4
		c-0.2-0.1-0.4-0.1-0.8-0.1l0-0.7c0.6,0,1.1,0.1,1.5,0.3c0.3,0.2,0.5,0.5,0.5,0.9c0,0.3-0.1,0.5-0.3,0.7c-0.2,0.2-0.4,0.3-0.7,0.3
		l0,0.5H294.1z"/>
	<path class="st2" d="M298.9,161.4c0-1,0.3-1.9,0.8-2.6c0.6-0.7,1.3-1,2.3-1c1,0,1.7,0.3,2.3,1c0.6,0.7,0.8,1.5,0.8,2.6v0.1
		c0,1.1-0.3,1.9-0.8,2.6c-0.6,0.7-1.3,1-2.3,1c-1,0-1.7-0.3-2.3-1c-0.6-0.7-0.8-1.5-0.8-2.6V161.4z M300.2,161.5
		c0,0.7,0.2,1.4,0.5,1.8c0.3,0.5,0.8,0.7,1.4,0.7c0.6,0,1.1-0.2,1.4-0.7c0.3-0.5,0.5-1.1,0.5-1.8v-0.1c0-0.7-0.2-1.4-0.5-1.8
		c-0.3-0.5-0.8-0.7-1.4-0.7c-0.6,0-1.1,0.2-1.4,0.7c-0.3,0.5-0.5,1.1-0.5,1.8V161.5z"/>
	<path class="st2" d="M312.4,162.9l0.1,0.5h0l0.1-0.5l1.6-5h1.3l-2.6,7h-1l-2.6-7h1.3L312.4,162.9z"/>
	<path class="st2" d="M319.6,165.1c-1,0-1.8-0.3-2.4-1c-0.6-0.6-0.8-1.5-0.8-2.6v-0.3c0-1,0.3-1.8,0.9-2.5c0.6-0.7,1.3-1,2.1-1
		c0.9,0,1.6,0.3,2.1,0.9c0.5,0.6,0.7,1.4,0.7,2.3v0.7h-4.5l0,0c0,0.7,0.2,1.3,0.5,1.7c0.3,0.4,0.8,0.7,1.4,0.7
		c0.4,0,0.8-0.1,1.1-0.2c0.3-0.1,0.6-0.3,0.8-0.5l0.5,0.8c-0.3,0.2-0.6,0.4-1,0.6C320.7,165,320.2,165.1,319.6,165.1z M321.3,156.4
		v0.2h-1l-1-1l-1,1h-1v-0.2l1.6-1.5h0.8L321.3,156.4z M319.4,158.8c-0.4,0-0.8,0.2-1.1,0.5c-0.3,0.3-0.5,0.8-0.5,1.3l0,0h3.2v-0.1
		c0-0.5-0.1-0.9-0.4-1.3C320.3,158.9,319.9,158.8,319.4,158.8z M320.2,167.1h-1.4v-1.3h1.4V167.1z"/>
</g>
<circle class="st1" cx="412.2" cy="185.2" r="4.5"/>
<circle class="st1" cx="377.4" cy="218.9" r="4.5"/>
<g>
	<path class="st2" d="M432.4,185.3v3.3h-1V181h2.6c0.8,0,1.5,0.2,1.9,0.6c0.4,0.4,0.7,0.9,0.7,1.6c0,0.4-0.1,0.7-0.3,1
		c-0.2,0.3-0.5,0.5-0.9,0.7c0.4,0.1,0.7,0.4,0.9,0.7c0.2,0.3,0.3,0.7,0.3,1.1v0.7c0,0.2,0,0.4,0.1,0.6s0.1,0.3,0.3,0.5v0.1h-1.1
		c-0.1-0.1-0.2-0.3-0.3-0.5c0-0.2-0.1-0.5-0.1-0.7v-0.7c0-0.4-0.1-0.7-0.4-1c-0.2-0.3-0.6-0.4-1-0.4H432.4z M432.4,184.5h1.5
		c0.6,0,1-0.1,1.3-0.3c0.3-0.2,0.4-0.6,0.4-1c0-0.4-0.1-0.8-0.4-1c-0.2-0.2-0.6-0.4-1.2-0.4h-1.6V184.5z"/>
	<path class="st2" d="M437.8,185.7c0-0.8,0.2-1.5,0.7-2.1c0.5-0.5,1.1-0.8,1.8-0.8c0.8,0,1.4,0.3,1.9,0.8c0.5,0.5,0.7,1.2,0.7,2.1
		v0.1c0,0.8-0.2,1.5-0.7,2.1c-0.5,0.5-1.1,0.8-1.8,0.8s-1.4-0.3-1.8-0.8c-0.5-0.5-0.7-1.2-0.7-2.1V185.7z M438.8,185.8
		c0,0.6,0.1,1.1,0.4,1.5c0.3,0.4,0.6,0.6,1.1,0.6c0.5,0,0.9-0.2,1.1-0.6c0.3-0.4,0.4-0.9,0.4-1.5v-0.1c0-0.6-0.1-1.1-0.4-1.5
		c-0.3-0.4-0.6-0.6-1.1-0.6c-0.5,0-0.9,0.2-1.1,0.6c-0.3,0.4-0.4,0.9-0.4,1.5V185.8z"/>
	<path class="st2" d="M448.9,186c0,0.8-0.2,1.5-0.6,2c-0.4,0.5-0.9,0.7-1.6,0.7c-0.4,0-0.7-0.1-1-0.2c-0.3-0.1-0.5-0.4-0.7-0.7
		l-0.2,0.8h-0.8v-8.1h1v3.2c0.2-0.3,0.4-0.4,0.7-0.6c0.3-0.1,0.6-0.2,0.9-0.2c0.7,0,1.2,0.3,1.6,0.8c0.4,0.6,0.6,1.3,0.6,2.2V186z
		 M447.9,185.9c0-0.6-0.1-1.2-0.4-1.6c-0.2-0.4-0.6-0.6-1.1-0.6c-0.3,0-0.6,0.1-0.8,0.2c-0.2,0.2-0.4,0.4-0.5,0.6v2.4
		c0.1,0.3,0.3,0.5,0.5,0.7c0.2,0.2,0.5,0.2,0.8,0.2c0.5,0,0.8-0.2,1.1-0.5c0.2-0.3,0.4-0.8,0.4-1.4V185.9z"/>
	<path class="st2" d="M449.9,185.7c0-0.8,0.2-1.5,0.7-2.1c0.5-0.5,1.1-0.8,1.8-0.8c0.8,0,1.4,0.3,1.9,0.8c0.5,0.5,0.7,1.2,0.7,2.1
		v0.1c0,0.8-0.2,1.5-0.7,2.1c-0.5,0.5-1.1,0.8-1.8,0.8s-1.4-0.3-1.8-0.8c-0.5-0.5-0.7-1.2-0.7-2.1V185.7z M451,185.8
		c0,0.6,0.1,1.1,0.4,1.5c0.3,0.4,0.6,0.6,1.1,0.6c0.5,0,0.9-0.2,1.1-0.6c0.3-0.4,0.4-0.9,0.4-1.5v-0.1c0-0.6-0.1-1.1-0.4-1.5
		c-0.3-0.4-0.6-0.6-1.1-0.6c-0.5,0-0.9,0.2-1.1,0.6c-0.3,0.4-0.4,0.9-0.4,1.5V185.8z"/>
	<path class="st2" d="M457.7,181.6v1.4h1.1v0.8h-1.1v3.4c0,0.3,0.1,0.5,0.2,0.6c0.1,0.1,0.3,0.2,0.4,0.2c0.1,0,0.1,0,0.2,0
		c0.1,0,0.1,0,0.2,0l0.1,0.7c-0.1,0.1-0.2,0.1-0.3,0.2c-0.1,0-0.3,0.1-0.4,0.1c-0.4,0-0.7-0.1-1-0.4c-0.2-0.3-0.4-0.6-0.4-1.2v-3.4
		h-0.9v-0.8h0.9v-1.4H457.7z"/>
	<path class="st2" d="M464.7,187.9c0.3,0,0.6-0.1,0.8-0.3c0.2-0.2,0.4-0.5,0.4-0.8h0.9l0,0c0,0.5-0.2,0.9-0.6,1.3
		c-0.4,0.4-0.9,0.6-1.5,0.6c-0.8,0-1.4-0.3-1.8-0.8c-0.4-0.5-0.6-1.2-0.6-2v-0.2c0-0.8,0.2-1.5,0.6-2c0.4-0.5,1-0.8,1.8-0.8
		c0.6,0,1.1,0.2,1.5,0.6c0.4,0.4,0.6,0.9,0.6,1.4l0,0h-0.9c0-0.3-0.1-0.6-0.3-0.9c-0.2-0.2-0.5-0.4-0.8-0.4c-0.5,0-0.9,0.2-1.1,0.6
		c-0.2,0.4-0.3,0.9-0.3,1.4v0.2c0,0.6,0.1,1,0.3,1.4C463.9,187.7,464.2,187.9,464.7,187.9z"/>
	<path class="st2" d="M469.1,183.7c0.2-0.3,0.4-0.5,0.7-0.6c0.3-0.2,0.6-0.2,0.9-0.2c0.6,0,1.1,0.2,1.4,0.5c0.3,0.4,0.5,0.9,0.5,1.7
		v3.5h-1V185c0-0.5-0.1-0.8-0.3-1c-0.2-0.2-0.5-0.3-0.9-0.3c-0.3,0-0.6,0.1-0.8,0.2c-0.2,0.1-0.4,0.3-0.5,0.5v4.2h-1v-8.1h1V183.7z"
		/>
	<path class="st2" d="M473.9,185.7c0-0.8,0.2-1.5,0.7-2.1c0.5-0.5,1.1-0.8,1.8-0.8c0.8,0,1.4,0.3,1.9,0.8c0.5,0.5,0.7,1.2,0.7,2.1
		v0.1c0,0.8-0.2,1.5-0.7,2.1c-0.5,0.5-1.1,0.8-1.8,0.8c-0.8,0-1.4-0.3-1.8-0.8c-0.5-0.5-0.7-1.2-0.7-2.1V185.7z M475,185.8
		c0,0.6,0.1,1.1,0.4,1.5c0.3,0.4,0.6,0.6,1.1,0.6c0.5,0,0.9-0.2,1.1-0.6c0.3-0.4,0.4-0.9,0.4-1.5v-0.1c0-0.6-0.1-1.1-0.4-1.5
		c-0.3-0.4-0.6-0.6-1.1-0.6c-0.5,0-0.9,0.2-1.1,0.6c-0.3,0.4-0.4,0.9-0.4,1.5V185.8z M477,190.4h-1.1v-1h1.1V190.4z"/>
	<path class="st2" d="M481.2,182.9l0.1,0.8c0.2-0.3,0.4-0.5,0.7-0.7c0.3-0.2,0.6-0.2,1-0.2c0.6,0,1.1,0.2,1.4,0.5
		c0.3,0.4,0.5,0.9,0.5,1.7v3.6h-1V185c0-0.5-0.1-0.9-0.3-1.1s-0.5-0.3-0.9-0.3c-0.3,0-0.6,0.1-0.8,0.2c-0.2,0.1-0.4,0.3-0.5,0.5v4.2
		h-1v-5.6H481.2z"/>
	<path class="st2" d="M492.2,187.1c0-0.2-0.1-0.4-0.3-0.6c-0.2-0.1-0.5-0.3-1-0.4c-0.7-0.1-1.2-0.3-1.5-0.6c-0.4-0.3-0.5-0.6-0.5-1
		c0-0.5,0.2-0.9,0.6-1.2c0.4-0.3,0.9-0.5,1.5-0.5c0.6,0,1.2,0.2,1.6,0.5c0.4,0.3,0.6,0.8,0.6,1.2l0,0h-1c0-0.2-0.1-0.5-0.3-0.7
		c-0.2-0.2-0.5-0.3-0.8-0.3c-0.4,0-0.6,0.1-0.8,0.2c-0.2,0.2-0.3,0.4-0.3,0.6c0,0.2,0.1,0.4,0.2,0.5c0.2,0.1,0.5,0.2,1,0.3
		c0.7,0.1,1.2,0.4,1.6,0.6c0.4,0.3,0.5,0.6,0.5,1c0,0.5-0.2,0.9-0.6,1.2c-0.4,0.3-0.9,0.5-1.6,0.5c-0.7,0-1.3-0.2-1.7-0.5
		c-0.4-0.4-0.6-0.8-0.6-1.3l0,0h1c0,0.4,0.2,0.6,0.4,0.8c0.3,0.2,0.6,0.3,0.9,0.3c0.4,0,0.7-0.1,0.9-0.2
		C492.1,187.5,492.2,187.3,492.2,187.1z"/>
	<path class="st2" d="M498,188.6c0-0.2-0.1-0.3-0.1-0.5c0-0.1,0-0.3,0-0.4c-0.2,0.3-0.4,0.5-0.7,0.7c-0.3,0.2-0.6,0.3-1,0.3
		c-0.6,0-1-0.2-1.3-0.5c-0.3-0.3-0.5-0.7-0.5-1.2c0-0.5,0.2-1,0.7-1.3c0.4-0.3,1-0.5,1.8-0.5h1.1v-0.6c0-0.3-0.1-0.6-0.3-0.8
		c-0.2-0.2-0.5-0.3-0.9-0.3c-0.3,0-0.6,0.1-0.8,0.3c-0.2,0.2-0.3,0.4-0.3,0.6l-1,0l0,0c0-0.4,0.2-0.8,0.6-1.1
		c0.4-0.3,0.9-0.5,1.6-0.5c0.6,0,1.2,0.2,1.5,0.5c0.4,0.3,0.6,0.8,0.6,1.4v2.7c0,0.2,0,0.4,0,0.6c0,0.2,0.1,0.4,0.1,0.6H498z
		 M496.3,187.8c0.4,0,0.7-0.1,1-0.3c0.3-0.2,0.5-0.4,0.6-0.7V186h-1.2c-0.4,0-0.7,0.1-1,0.3c-0.2,0.2-0.4,0.5-0.4,0.7
		c0,0.3,0.1,0.4,0.2,0.6S496,187.8,496.3,187.8z M496.4,182l0-0.8c0.3,0,0.5,0,0.6-0.1c0.1-0.1,0.2-0.1,0.2-0.3
		c0-0.1-0.1-0.2-0.2-0.3c-0.2-0.1-0.4-0.1-0.6-0.1l0-0.6c0.5,0,0.9,0.1,1.2,0.3c0.3,0.2,0.4,0.4,0.4,0.7c0,0.2-0.1,0.4-0.2,0.6
		c-0.1,0.1-0.3,0.2-0.6,0.2l0,0.4H496.4z"/>
	<path class="st2" d="M501.3,182.9l0.1,0.8c0.2-0.3,0.4-0.5,0.7-0.7c0.3-0.2,0.6-0.2,1-0.2c0.6,0,1.1,0.2,1.4,0.5
		c0.3,0.4,0.5,0.9,0.5,1.7v3.6h-1V185c0-0.5-0.1-0.9-0.3-1.1s-0.5-0.3-0.9-0.3c-0.3,0-0.6,0.1-0.8,0.2c-0.2,0.1-0.4,0.3-0.5,0.5v4.2
		h-1v-5.6H501.3z"/>
	<path class="st2" d="M514,186c0,0.8-0.2,1.5-0.6,2c-0.4,0.5-0.9,0.7-1.6,0.7c-0.3,0-0.7-0.1-0.9-0.2c-0.3-0.1-0.5-0.3-0.7-0.5v2.8
		h-1v-7.8h0.8l0.2,0.7c0.2-0.3,0.4-0.5,0.7-0.6c0.3-0.1,0.6-0.2,1-0.2c0.7,0,1.2,0.3,1.6,0.8c0.4,0.6,0.6,1.3,0.6,2.2V186z
		 M512.9,185.9c0-0.6-0.1-1.2-0.4-1.6c-0.3-0.4-0.6-0.6-1.1-0.6c-0.3,0-0.5,0.1-0.8,0.2c-0.2,0.1-0.4,0.3-0.5,0.6v2.7
		c0.1,0.2,0.3,0.4,0.5,0.5c0.2,0.1,0.5,0.2,0.8,0.2c0.5,0,0.9-0.2,1.1-0.5c0.3-0.4,0.4-0.8,0.4-1.4V185.9z"/>
	<path class="st2" d="M516.2,183.7c0.2-0.3,0.4-0.5,0.7-0.6c0.3-0.2,0.6-0.2,0.9-0.2c0.6,0,1.1,0.2,1.4,0.5c0.3,0.4,0.5,0.9,0.5,1.7
		v3.5h-1V185c0-0.5-0.1-0.8-0.3-1c-0.2-0.2-0.5-0.3-0.9-0.3c-0.3,0-0.6,0.1-0.8,0.2c-0.2,0.1-0.4,0.3-0.5,0.5v4.2h-1v-8.1h1V183.7z"
		/>
	<path class="st2" d="M524.8,188.6c0-0.2-0.1-0.3-0.1-0.5c0-0.1,0-0.3,0-0.4c-0.2,0.3-0.4,0.5-0.7,0.7c-0.3,0.2-0.6,0.3-1,0.3
		c-0.6,0-1-0.2-1.3-0.5c-0.3-0.3-0.5-0.7-0.5-1.2c0-0.5,0.2-1,0.7-1.3c0.4-0.3,1-0.5,1.8-0.5h1.1v-0.6c0-0.3-0.1-0.6-0.3-0.8
		c-0.2-0.2-0.5-0.3-0.9-0.3c-0.3,0-0.6,0.1-0.8,0.3c-0.2,0.2-0.3,0.4-0.3,0.6l-1,0l0,0c0-0.4,0.2-0.8,0.6-1.1
		c0.4-0.3,0.9-0.5,1.6-0.5c0.6,0,1.2,0.2,1.5,0.5c0.4,0.3,0.6,0.8,0.6,1.4v2.7c0,0.2,0,0.4,0,0.6c0,0.2,0.1,0.4,0.1,0.6H524.8z
		 M523.9,180.7h-1l-1.4,1.3l0,0h0.9l1-1l1,1h0.9l0,0L523.9,180.7z M523,187.8c0.4,0,0.7-0.1,1-0.3c0.3-0.2,0.5-0.4,0.6-0.7V186h-1.2
		c-0.4,0-0.7,0.1-1,0.3c-0.2,0.2-0.4,0.5-0.4,0.7c0,0.3,0.1,0.4,0.2,0.6C522.5,187.8,522.7,187.8,523,187.8z M525.2,181.4l0-0.7
		c0.2,0,0.4,0,0.5-0.1c0.1,0,0.1-0.1,0.1-0.2c0-0.1-0.1-0.2-0.2-0.3c-0.1-0.1-0.3-0.1-0.5-0.1l0-0.5c0.4,0,0.8,0.1,1,0.2
		c0.2,0.2,0.4,0.4,0.4,0.6c0,0.2-0.1,0.4-0.2,0.5c-0.1,0.1-0.3,0.2-0.5,0.2l0,0.3H525.2z"/>
	<path class="st2" d="M528.1,182.9l0.1,0.7c0.2-0.3,0.4-0.5,0.7-0.6c0.3-0.1,0.6-0.2,1-0.2s0.7,0.1,1,0.3c0.3,0.2,0.5,0.4,0.6,0.8
		c0.2-0.3,0.4-0.6,0.7-0.8c0.3-0.2,0.6-0.3,1-0.3c0.6,0,1,0.2,1.4,0.6c0.3,0.4,0.5,1,0.5,1.8v3.4h-1v-3.4c0-0.6-0.1-0.9-0.3-1.2
		c-0.2-0.2-0.5-0.3-0.9-0.3c-0.4,0-0.6,0.1-0.9,0.4c-0.2,0.2-0.3,0.6-0.4,0.9v0v3.6h-1v-3.4c0-0.5-0.1-0.9-0.3-1.2
		c-0.2-0.2-0.5-0.4-0.8-0.4c-0.3,0-0.6,0.1-0.8,0.2c-0.2,0.1-0.4,0.3-0.5,0.5v4.2h-1v-5.6H528.1z"/>
</g>
<g>
	<path class="st3" d="M262.8,260.4v6.4h-2.6v-15.4h5.3c1.7,0,3,0.4,4,1.2c0.9,0.8,1.4,1.9,1.4,3.3c0,0.8-0.2,1.5-0.6,2.1
		c-0.4,0.6-1,1-1.8,1.4c0.9,0.3,1.5,0.7,1.9,1.3c0.4,0.6,0.6,1.4,0.6,2.3v1.3c0,0.5,0.1,0.9,0.2,1.3c0.1,0.4,0.3,0.8,0.6,1v0.2H269
		c-0.3-0.2-0.5-0.6-0.5-1.1c-0.1-0.5-0.1-1-0.1-1.5V263c0-0.8-0.2-1.4-0.7-1.9c-0.5-0.5-1.1-0.7-1.9-0.7H262.8z M262.8,258.3h2.6
		c1,0,1.8-0.2,2.3-0.6c0.5-0.4,0.7-1,0.7-1.8c0-0.8-0.2-1.4-0.7-1.8c-0.5-0.4-1.2-0.7-2.1-0.7h-2.7V258.3z"/>
	<path class="st3" d="M273.3,260.9c0-1.7,0.5-3.1,1.4-4.2c0.9-1.1,2.2-1.6,3.8-1.6c1.6,0,2.9,0.5,3.9,1.6c0.9,1.1,1.4,2.5,1.4,4.2
		v0.2c0,1.7-0.5,3.1-1.4,4.2c-0.9,1.1-2.2,1.6-3.8,1.6c-1.6,0-2.9-0.5-3.9-1.6c-0.9-1.1-1.4-2.5-1.4-4.2V260.9z M275.9,261.1
		c0,1.1,0.2,2,0.7,2.7c0.4,0.7,1.1,1,2,1c0.9,0,1.6-0.4,2-1.1s0.7-1.6,0.7-2.7v-0.2c0-1.1-0.2-2-0.7-2.7c-0.4-0.7-1.1-1.1-2-1.1
		c-0.9,0-1.6,0.4-2,1.1c-0.4,0.7-0.7,1.6-0.7,2.7V261.1z"/>
	<path class="st3" d="M296.1,261.4c0,1.7-0.4,3-1.2,4c-0.8,1-1.9,1.5-3.3,1.5c-0.7,0-1.3-0.1-1.9-0.4c-0.5-0.3-1-0.7-1.3-1.3
		l-0.3,1.5h-2.1v-16.5h2.6v6.4c0.4-0.5,0.8-0.9,1.3-1.1c0.5-0.3,1.1-0.4,1.7-0.4c1.4,0,2.5,0.6,3.3,1.7c0.8,1.1,1.2,2.6,1.2,4.4
		V261.4z M293.5,261.2c0-1.2-0.2-2.2-0.6-2.9c-0.4-0.7-1.1-1.1-1.9-1.1c-0.6,0-1,0.1-1.4,0.4c-0.4,0.3-0.7,0.6-0.9,1.1v4.8
		c0.2,0.5,0.5,0.8,0.9,1.1s0.9,0.4,1.5,0.4c0.9,0,1.5-0.3,1.9-0.9c0.4-0.6,0.6-1.5,0.6-2.5V261.2z"/>
	<path class="st3" d="M297.9,260.9c0-1.7,0.5-3.1,1.4-4.2c0.9-1.1,2.2-1.6,3.8-1.6c1.6,0,2.9,0.5,3.9,1.6c0.9,1.1,1.4,2.5,1.4,4.2
		v0.2c0,1.7-0.5,3.1-1.4,4.2c-0.9,1.1-2.2,1.6-3.8,1.6c-1.6,0-2.9-0.5-3.9-1.6c-0.9-1.1-1.4-2.5-1.4-4.2V260.9z M300.4,261.1
		c0,1.1,0.2,2,0.7,2.7c0.4,0.7,1.1,1,2,1c0.9,0,1.6-0.4,2-1.1s0.7-1.6,0.7-2.7v-0.2c0-1.1-0.2-2-0.7-2.7c-0.4-0.7-1.1-1.1-2-1.1
		c-0.9,0-1.6,0.4-2,1.1c-0.4,0.7-0.7,1.6-0.7,2.7V261.1z"/>
	<path class="st3" d="M313.9,252.5v2.8h2.1v1.9h-2.1v6.3c0,0.5,0.1,0.8,0.3,1c0.2,0.2,0.5,0.3,0.8,0.3c0.1,0,0.3,0,0.4,0
		c0.1,0,0.3-0.1,0.4-0.1l0.3,1.9c-0.2,0.1-0.5,0.2-0.8,0.3c-0.3,0.1-0.6,0.1-0.9,0.1c-0.9,0-1.7-0.3-2.2-0.8
		c-0.5-0.6-0.8-1.4-0.8-2.6v-6.3h-1.7v-1.9h1.7v-2.8H313.9z"/>
	<path class="st3" d="M326.7,252.5v2.8h2.1v1.9h-2.1v6.3c0,0.5,0.1,0.8,0.3,1c0.2,0.2,0.5,0.3,0.8,0.3c0.1,0,0.3,0,0.4,0
		c0.1,0,0.3-0.1,0.4-0.1l0.3,1.9c-0.2,0.1-0.5,0.2-0.8,0.3c-0.3,0.1-0.6,0.1-0.9,0.1c-0.9,0-1.7-0.3-2.2-0.8
		c-0.5-0.6-0.8-1.4-0.8-2.6v-6.3h-1.7v-1.9h1.7v-2.8H326.7z"/>
	<path class="st3" d="M344.2,253.9L344.2,253.9c0,1.3-0.3,2.3-0.9,3c-0.6,0.7-1.6,1.1-2.9,1.2v8.6h-2.2l-0.2-1.7
		c-0.4,0.6-0.8,1.1-1.4,1.4c-0.6,0.3-1.2,0.5-1.9,0.5c-1.2,0-2.2-0.4-2.9-1.2c-0.7-0.8-1-2.1-1-3.8v-6.7h2.6v6.7
		c0,1.1,0.2,1.8,0.5,2.3c0.3,0.4,0.8,0.6,1.5,0.6c0.6,0,1.1-0.1,1.6-0.3c0.4-0.2,0.8-0.5,1-1v-8.3h2.6v1.3l0.1,0
		c0.6-0.1,1.1-0.3,1.4-0.8c0.3-0.4,0.4-1.1,0.4-1.9H344.2z"/>
	<path class="st3" d="M352.8,262.9l0.2,0.9h0.1l0.2-0.9l2.3-7.6h2.7l-4.1,11.5h-2.2l-4.1-11.5h2.7L352.8,262.9z"/>
	<path class="st3" d="M366.6,266.8c-0.1-0.3-0.2-0.6-0.2-0.8c-0.1-0.3-0.1-0.6-0.1-0.8c-0.3,0.5-0.8,1-1.4,1.3
		c-0.6,0.4-1.2,0.5-1.9,0.5c-1.2,0-2.1-0.3-2.7-0.9c-0.6-0.6-1-1.5-1-2.5c0-1.1,0.4-2,1.3-2.6c0.9-0.6,2.1-0.9,3.7-0.9h2v-1
		c0-0.6-0.2-1.1-0.5-1.4c-0.3-0.3-0.9-0.5-1.5-0.5c-0.6,0-1.1,0.1-1.4,0.4c-0.3,0.3-0.5,0.6-0.5,1.1l-2.5,0l0-0.1
		c0-0.9,0.4-1.7,1.2-2.4c0.9-0.7,2-1,3.4-1c1.3,0,2.4,0.3,3.2,1c0.8,0.7,1.2,1.7,1.2,2.9v5.1c0,0.5,0,0.9,0.1,1.4
		c0.1,0.4,0.2,0.9,0.3,1.3H366.6z M363.1,250.6h2.1l3.1,2.7l0,0.1h-2.4l-1.7-1.6l-1.7,1.6H360l0-0.1L363.1,250.6z M363.4,264.9
		c0.6,0,1.2-0.2,1.7-0.5c0.5-0.3,0.9-0.7,1-1.1v-1.7h-2c-0.7,0-1.3,0.2-1.8,0.6c-0.4,0.4-0.6,0.8-0.6,1.3c0,0.4,0.1,0.8,0.4,1
		C362.5,264.8,362.9,264.9,363.4,264.9z M369,248.7h2.5l-2.2,2.8h-1.9L369,248.7z"/>
	<path class="st3" d="M373.8,255.3l0.1,1.7c0.4-0.6,0.8-1,1.4-1.4c0.6-0.3,1.2-0.5,1.9-0.5c1.2,0,2.1,0.4,2.8,1.1
		c0.7,0.7,1,1.9,1,3.4v7.1h-2.6v-7.1c0-0.9-0.2-1.5-0.5-1.9c-0.3-0.4-0.9-0.6-1.6-0.6c-0.6,0-1,0.1-1.4,0.3c-0.4,0.2-0.7,0.5-1,0.9
		v8.4h-2.6v-11.5H373.8z"/>
	<path class="st3" d="M392.4,252.5v2.8h2.1v1.9h-2.1v6.3c0,0.5,0.1,0.8,0.3,1c0.2,0.2,0.5,0.3,0.8,0.3c0.1,0,0.3,0,0.4,0
		c0.1,0,0.3-0.1,0.4-0.1l0.3,1.9c-0.2,0.1-0.5,0.2-0.8,0.3c-0.3,0.1-0.6,0.1-0.9,0.1c-0.9,0-1.7-0.3-2.2-0.8
		c-0.5-0.6-0.8-1.4-0.8-2.6v-6.3h-1.7v-1.9h1.7v-2.8H392.4z"/>
	<path class="st3" d="M399.1,256.8c0.4-0.5,0.8-1,1.4-1.2s1.2-0.4,1.8-0.4c1.2,0,2.2,0.4,2.8,1.1c0.7,0.8,1,1.9,1,3.5v7h-2.6v-7
		c0-0.9-0.2-1.5-0.5-2c-0.3-0.4-0.9-0.6-1.6-0.6c-0.6,0-1,0.1-1.4,0.3c-0.4,0.2-0.7,0.5-1,0.8v8.5h-2.6v-16.5h2.6V256.8z"/>
	<path class="st3" d="M408.4,260.9c0-1.7,0.5-3.1,1.4-4.2c0.9-1.1,2.2-1.6,3.8-1.6c1.6,0,2.9,0.5,3.9,1.6c0.9,1.1,1.4,2.5,1.4,4.2
		v0.2c0,1.7-0.5,3.1-1.4,4.2c-0.9,1.1-2.2,1.6-3.8,1.6c-1.6,0-2.9-0.5-3.9-1.6c-0.9-1.1-1.4-2.5-1.4-4.2V260.9z M417.2,253v0.3h-2.1
		l-1.5-1.5l-1.5,1.5h-2V253l2.8-2.5h1.5L417.2,253z M410.9,261.1c0,1.1,0.2,2,0.7,2.7c0.4,0.7,1.1,1,2,1c0.9,0,1.6-0.4,2-1.1
		s0.7-1.6,0.7-2.7v-0.2c0-1.1-0.2-2-0.7-2.7c-0.4-0.7-1.1-1.1-2-1.1c-0.9,0-1.6,0.4-2,1.1c-0.4,0.7-0.7,1.6-0.7,2.7V261.1z"/>
	<path class="st3" d="M423.5,255.3l0.1,1.7c0.4-0.6,0.8-1,1.4-1.4c0.6-0.3,1.2-0.5,1.9-0.5c1.2,0,2.1,0.4,2.8,1.1
		c0.7,0.7,1,1.9,1,3.4v7.1h-2.6v-7.1c0-0.9-0.2-1.5-0.5-1.9c-0.3-0.4-0.9-0.6-1.6-0.6c-0.6,0-1,0.1-1.4,0.3c-0.4,0.2-0.7,0.5-1,0.9
		v8.4h-2.6v-11.5H423.5z"/>
	<path class="st3" d="M433,261.2c0-1.8,0.4-3.3,1.2-4.4c0.8-1.1,1.9-1.7,3.3-1.7c0.7,0,1.3,0.1,1.8,0.4c0.5,0.3,1,0.7,1.3,1.3
		l0.3-1.5h2.1v11.5c0,1.5-0.5,2.6-1.4,3.4c-0.9,0.8-2.2,1.2-3.9,1.2c-0.6,0-1.2-0.1-1.8-0.2c-0.6-0.2-1.2-0.4-1.8-0.6l0.4-2
		c0.4,0.2,0.9,0.4,1.5,0.5c0.5,0.1,1.1,0.2,1.7,0.2c0.9,0,1.6-0.2,2-0.6c0.4-0.4,0.6-1,0.6-1.8v-1.2c-0.4,0.5-0.8,0.8-1.3,1
		c-0.5,0.2-1.1,0.4-1.7,0.4c-1.4,0-2.5-0.5-3.3-1.5c-0.8-1-1.2-2.4-1.2-4V261.2z M435.6,261.4c0,1.1,0.2,1.9,0.6,2.5
		c0.4,0.6,1.1,0.9,1.9,0.9c0.6,0,1-0.1,1.4-0.3c0.4-0.2,0.7-0.6,0.9-1v-5c-0.2-0.4-0.5-0.7-0.9-1c-0.4-0.2-0.8-0.4-1.4-0.4
		c-0.9,0-1.5,0.4-1.9,1.1c-0.4,0.7-0.6,1.7-0.6,2.9V261.4z"/>
	<path class="st3" d="M453.5,255.3l0.1,1.5c0.4-0.5,0.8-1,1.4-1.3c0.6-0.3,1.2-0.4,2-0.4c0.7,0,1.4,0.2,1.9,0.5
		c0.5,0.3,0.9,0.8,1.2,1.5c0.4-0.6,0.8-1.1,1.4-1.5c0.6-0.4,1.3-0.5,2-0.5c1.2,0,2.1,0.4,2.7,1.2c0.7,0.8,1,2,1,3.6v6.8h-2.6v-6.8
		c0-1-0.2-1.7-0.5-2.1c-0.3-0.4-0.8-0.6-1.5-0.6c-0.6,0-1,0.1-1.4,0.4c-0.4,0.3-0.7,0.7-0.8,1.2c0,0.1,0,0.2,0,0.3
		c0,0.1,0,0.2,0,0.2v7.4h-2.6v-6.8c0-1-0.2-1.7-0.5-2.1c-0.3-0.4-0.8-0.6-1.5-0.6c-0.5,0-1,0.1-1.3,0.3c-0.4,0.2-0.7,0.5-0.9,0.9
		v8.4h-2.6v-11.5H453.5z"/>
	<path class="st3" d="M472.7,252.5h-2.6v-2.3h2.6V252.5z M472.7,266.8h-2.6v-11.5h2.6V266.8z"/>
	<path class="st3" d="M477.9,255.3l0.1,1.7c0.4-0.6,0.8-1,1.4-1.4c0.6-0.3,1.2-0.5,1.9-0.5c1.2,0,2.1,0.4,2.8,1.1
		c0.7,0.7,1,1.9,1,3.4v7.1h-2.6v-7.1c0-0.9-0.2-1.5-0.5-1.9c-0.3-0.4-0.9-0.6-1.6-0.6c-0.6,0-1,0.1-1.4,0.3c-0.4,0.2-0.7,0.5-1,0.9
		v8.4h-2.6v-11.5H477.9z"/>
	<path class="st3" d="M490.4,256.8c0.4-0.5,0.8-1,1.4-1.2s1.2-0.4,1.8-0.4c1.2,0,2.2,0.4,2.8,1.1c0.7,0.8,1,1.9,1,3.5v7h-2.6v-7
		c0-0.9-0.2-1.5-0.5-2c-0.3-0.4-0.9-0.6-1.6-0.6c-0.6,0-1,0.1-1.4,0.3c-0.4,0.2-0.7,0.5-1,0.8v8.5h-2.6v-16.5h2.6V256.8z"/>
</g>
<g>
	<g>
		<path class="st1" d="M310,296L310,296l3.3-8.4h1.7v10.3h-1.4v-7.7l0,0l-3.1,7.7h-1l-3.2-8l0,0v8h-1.4v-10.3h1.8L310,296z"/>
		<path class="st1" d="M322,297.9c0-0.2-0.1-0.4-0.1-0.6c0-0.2,0-0.4,0-0.5c-0.3,0.4-0.6,0.7-1,0.9c-0.4,0.2-0.9,0.4-1.3,0.4
			c-0.8,0-1.4-0.2-1.8-0.6c-0.4-0.4-0.6-1-0.6-1.7c0-0.7,0.3-1.3,0.9-1.7s1.4-0.6,2.4-0.6h1.5v-0.8c0-0.4-0.1-0.8-0.4-1.1
			c-0.3-0.3-0.7-0.4-1.2-0.4c-0.5,0-0.8,0.1-1.1,0.3c-0.3,0.2-0.4,0.5-0.4,0.8l-1.3,0l0,0c0-0.6,0.2-1.1,0.8-1.5s1.3-0.7,2.1-0.7
			c0.9,0,1.6,0.2,2.1,0.7c0.5,0.4,0.8,1.1,0.8,1.9v3.7c0,0.3,0,0.5,0,0.8c0,0.3,0.1,0.5,0.2,0.8H322z M319.7,296.9
			c0.5,0,1-0.1,1.4-0.4c0.4-0.3,0.7-0.6,0.8-0.9v-1.2h-1.6c-0.6,0-1,0.1-1.3,0.4c-0.3,0.3-0.5,0.6-0.5,1c0,0.3,0.1,0.6,0.3,0.8
			C319,296.8,319.3,296.9,319.7,296.9z"/>
		<path class="st1" d="M326.5,290.2l0.1,1.1c0.3-0.4,0.6-0.7,1-0.9c0.4-0.2,0.8-0.3,1.3-0.3c0.8,0,1.5,0.2,1.9,0.7
			c0.5,0.5,0.7,1.2,0.7,2.2v4.8h-1.4v-4.8c0-0.7-0.1-1.2-0.4-1.4c-0.3-0.3-0.7-0.4-1.2-0.4c-0.4,0-0.8,0.1-1.1,0.3
			c-0.3,0.2-0.5,0.4-0.7,0.7v5.7h-1.4v-7.7H326.5z"/>
		<path class="st1" d="M333.3,294.2c0-1.2,0.3-2.2,0.8-3c0.5-0.8,1.3-1.1,2.2-1.1c0.5,0,0.9,0.1,1.3,0.3c0.4,0.2,0.7,0.5,0.9,0.8
			l0.2-1h1.1v7.7c0,1-0.3,1.7-0.9,2.3s-1.4,0.8-2.5,0.8c-0.4,0-0.8-0.1-1.2-0.2c-0.4-0.1-0.8-0.2-1.1-0.4l0.2-1.1
			c0.3,0.1,0.6,0.3,1,0.3c0.4,0.1,0.8,0.1,1.1,0.1c0.7,0,1.2-0.2,1.5-0.5c0.3-0.3,0.5-0.8,0.5-1.4v-0.9c-0.3,0.3-0.5,0.6-0.9,0.7
			c-0.3,0.2-0.8,0.2-1.2,0.2c-0.9,0-1.7-0.3-2.2-1c-0.5-0.7-0.8-1.6-0.8-2.7V294.2z M334.7,294.4c0,0.8,0.2,1.4,0.5,1.9
			c0.3,0.5,0.8,0.7,1.5,0.7c0.4,0,0.8-0.1,1.1-0.3c0.3-0.2,0.5-0.5,0.7-0.8v-3.5c-0.2-0.3-0.4-0.6-0.7-0.8s-0.6-0.3-1-0.3
			c-0.7,0-1.2,0.3-1.5,0.8c-0.3,0.6-0.5,1.3-0.5,2.2V294.4z"/>
		<path class="st1" d="M352.9,289.2h-1.4v8.7h-1.1l-0.2-1c-0.3,0.4-0.6,0.6-0.9,0.8c-0.4,0.2-0.8,0.3-1.3,0.3c-0.9,0-1.7-0.3-2.2-1
			s-0.8-1.6-0.8-2.7v-0.1c0-1.2,0.3-2.2,0.8-3c0.5-0.8,1.3-1.1,2.2-1.1c0.4,0,0.8,0.1,1.2,0.2s0.6,0.4,0.9,0.7v-1.9h-1.7v-1.1h1.7
			v-1.2h1.4v1.2h1.4V289.2z M346.4,294.4c0,0.8,0.2,1.4,0.5,1.9s0.8,0.7,1.5,0.7c0.4,0,0.8-0.1,1-0.3c0.3-0.2,0.5-0.5,0.7-0.8v-3.6
			c-0.2-0.3-0.4-0.6-0.7-0.8c-0.3-0.2-0.6-0.3-1-0.3c-0.7,0-1.2,0.3-1.5,0.8c-0.3,0.6-0.5,1.3-0.5,2.2V294.4z"/>
		<path class="st1" d="M356.8,298.1c-1.1,0-2-0.4-2.6-1.1c-0.6-0.7-0.9-1.6-0.9-2.8v-0.3c0-1.1,0.3-2,1-2.7c0.6-0.7,1.4-1.1,2.3-1.1
			c1,0,1.8,0.3,2.3,1c0.5,0.6,0.8,1.5,0.8,2.5v0.7h-4.9l0,0c0,0.8,0.2,1.4,0.5,1.9c0.3,0.5,0.9,0.7,1.6,0.7c0.5,0,0.9-0.1,1.2-0.2
			s0.7-0.3,0.9-0.6l0.5,0.9c-0.3,0.3-0.6,0.5-1.1,0.7S357.4,298.1,356.8,298.1z M355.8,287h1.1l2,1.8l0,0h-1.4l-1.2-1.1l-1.2,1.1
			h-1.4l0,0L355.8,287z M356.5,291.2c-0.5,0-0.9,0.2-1.2,0.6c-0.3,0.4-0.5,0.9-0.6,1.4l0,0h3.5v-0.1c0-0.6-0.1-1-0.4-1.4
			S357.1,291.2,356.5,291.2z M359.5,285.8h1.5l-1.4,1.8h-1L359.5,285.8z"/>
		<path class="st1" d="M362.4,290.2l0.1,1.1c0.3-0.4,0.6-0.7,1-0.9c0.4-0.2,0.8-0.3,1.3-0.3c0.8,0,1.5,0.2,1.9,0.7
			c0.5,0.5,0.7,1.2,0.7,2.2v4.8H366v-4.8c0-0.7-0.1-1.2-0.4-1.4c-0.3-0.3-0.7-0.4-1.2-0.4c-0.4,0-0.8,0.1-1.1,0.3s-0.5,0.4-0.7,0.7
			v5.7h-1.4v-7.7H362.4z"/>
		<path class="st1" d="M377.5,295.8c0-0.3-0.1-0.6-0.4-0.8c-0.2-0.2-0.7-0.4-1.3-0.5c-0.9-0.2-1.6-0.5-2.1-0.8
			c-0.5-0.3-0.7-0.8-0.7-1.4c0-0.6,0.3-1.2,0.8-1.6c0.5-0.4,1.2-0.7,2.1-0.7c0.9,0,1.6,0.2,2.1,0.7c0.5,0.5,0.8,1,0.8,1.6l0,0h-1.3
			c0-0.3-0.1-0.6-0.4-0.9c-0.3-0.3-0.7-0.4-1.1-0.4c-0.5,0-0.9,0.1-1.1,0.3c-0.2,0.2-0.4,0.5-0.4,0.8c0,0.3,0.1,0.5,0.3,0.7
			c0.2,0.2,0.6,0.3,1.3,0.5c0.9,0.2,1.7,0.5,2.1,0.8s0.7,0.8,0.7,1.4c0,0.7-0.3,1.2-0.8,1.7c-0.5,0.4-1.3,0.6-2.2,0.6
			c-1,0-1.7-0.2-2.3-0.7s-0.8-1.1-0.8-1.7l0,0h1.3c0,0.5,0.2,0.9,0.6,1.1s0.7,0.3,1.2,0.3c0.5,0,0.9-0.1,1.2-0.3
			C377.3,296.4,377.5,296.2,377.5,295.8z"/>
		<path class="st1" d="M389.3,289.2L389.3,289.2c0,0.9-0.2,1.5-0.6,2c-0.4,0.5-1.1,0.7-2,0.8v5.9h-1.3l-0.1-1.1
			c-0.2,0.4-0.5,0.7-0.9,0.9c-0.4,0.2-0.8,0.3-1.3,0.3c-0.8,0-1.5-0.3-2-0.8c-0.5-0.5-0.7-1.4-0.7-2.5v-4.5h1.4v4.5
			c0,0.8,0.1,1.4,0.4,1.7s0.6,0.5,1.1,0.5c0.5,0,0.9-0.1,1.2-0.3s0.6-0.5,0.7-0.9v-5.5h1.4v0.8l0,0c0.5,0,0.8-0.2,1-0.5
			c0.2-0.3,0.3-0.8,0.3-1.3H389.3z M384,300.3h-1.5v-1.4h1.5V300.3z"/>
		<path class="st1" d="M394.8,294.4h-0.7v3.5h-1.4v-11h1.4v6.4h0.7l2.3-3h1.7l-2.8,3.5l3,4.1h-1.6L394.8,294.4z"/>
		<path class="st1" d="M401.5,291.3c0.3-0.4,0.6-0.7,1-0.9c0.4-0.2,0.8-0.3,1.3-0.3c0.8,0,1.5,0.2,1.9,0.7s0.7,1.2,0.7,2.3v4.8H405
			v-4.8c0-0.6-0.1-1.1-0.4-1.4c-0.3-0.3-0.7-0.5-1.2-0.5c-0.4,0-0.8,0.1-1.1,0.2c-0.3,0.2-0.6,0.4-0.7,0.7v5.7h-1.4v-11h1.4V291.3z"
			/>
		<path class="st1" d="M413.1,297.9c0-0.2-0.1-0.4-0.1-0.6c0-0.2,0-0.4,0-0.5c-0.3,0.4-0.6,0.7-1,0.9c-0.4,0.2-0.9,0.4-1.3,0.4
			c-0.8,0-1.4-0.2-1.8-0.6c-0.4-0.4-0.6-1-0.6-1.7c0-0.7,0.3-1.3,0.9-1.7s1.4-0.6,2.4-0.6h1.5v-0.8c0-0.4-0.1-0.8-0.4-1.1
			c-0.3-0.3-0.7-0.4-1.2-0.4c-0.5,0-0.8,0.1-1.1,0.3c-0.3,0.2-0.4,0.5-0.4,0.8l-1.3,0l0,0c0-0.6,0.2-1.1,0.8-1.5s1.3-0.7,2.1-0.7
			c0.9,0,1.6,0.2,2.1,0.7c0.5,0.4,0.8,1.1,0.8,1.9v3.7c0,0.3,0,0.5,0,0.8c0,0.3,0.1,0.5,0.2,0.8H413.1z M410.8,296.9
			c0.5,0,1-0.1,1.4-0.4c0.4-0.3,0.7-0.6,0.8-0.9v-1.2h-1.6c-0.6,0-1,0.1-1.3,0.4c-0.3,0.3-0.5,0.6-0.5,1c0,0.3,0.1,0.6,0.3,0.8
			C410,296.8,410.4,296.9,410.8,296.9z M412,287h1.6l0,0l-1.9,1.8h-1L412,287z"/>
		<path class="st1" d="M419.4,297c0.4,0,0.8-0.1,1.1-0.4c0.3-0.3,0.5-0.6,0.5-1.1h1.3l0,0c0,0.7-0.3,1.2-0.8,1.8
			c-0.6,0.5-1.3,0.8-2,0.8c-1.1,0-1.9-0.4-2.5-1.1c-0.6-0.7-0.9-1.6-0.9-2.7v-0.3c0-1.1,0.3-2,0.9-2.7c0.6-0.7,1.4-1.1,2.5-1.1
			c0.9,0,1.6,0.3,2.1,0.8s0.8,1.2,0.8,1.9l0,0H421c0-0.5-0.2-0.9-0.5-1.2c-0.3-0.3-0.7-0.5-1.1-0.5c-0.7,0-1.2,0.3-1.5,0.8
			c-0.3,0.5-0.5,1.2-0.5,1.9v0.3c0,0.8,0.2,1.4,0.5,1.9C418.2,296.7,418.7,297,419.4,297z"/>
		<path class="st1" d="M434.1,294.4c0,1.1-0.3,2-0.8,2.7s-1.3,1-2.2,1c-0.5,0-1-0.1-1.3-0.3c-0.4-0.2-0.7-0.5-0.9-0.9l-0.2,1h-1.1
			v-11h1.4v4.3c0.2-0.3,0.5-0.6,0.9-0.8c0.4-0.2,0.8-0.3,1.2-0.3c0.9,0,1.7,0.4,2.2,1.1s0.8,1.7,0.8,3V294.4z M432.7,294.2
			c0-0.9-0.2-1.6-0.5-2.1s-0.8-0.8-1.5-0.8c-0.4,0-0.8,0.1-1.1,0.3c-0.3,0.2-0.5,0.5-0.7,0.8v3.3c0.2,0.4,0.4,0.7,0.7,0.9
			c0.3,0.2,0.7,0.3,1.1,0.3c0.7,0,1.1-0.2,1.5-0.7s0.5-1.1,0.5-1.9V294.2z"/>
		<path class="st1" d="M437.3,288.3h-1.4v-1.4h1.4V288.3z M437.3,297.9h-1.4v-7.7h1.4V297.9z"/>
		<path class="st1" d="M442.6,298.1c-1.1,0-2-0.4-2.6-1.1c-0.6-0.7-0.9-1.6-0.9-2.8v-0.3c0-1.1,0.3-2,1-2.7s1.4-1.1,2.3-1.1
			c1,0,1.8,0.3,2.3,1c0.5,0.6,0.8,1.5,0.8,2.5v0.7h-4.9l0,0c0,0.8,0.2,1.4,0.5,1.9c0.3,0.5,0.9,0.7,1.6,0.7c0.5,0,0.9-0.1,1.2-0.2
			s0.7-0.3,0.9-0.6l0.5,0.9c-0.3,0.3-0.6,0.5-1.1,0.7C443.8,298,443.2,298.1,442.6,298.1z M444.4,288.7v0.2h-1.1l-1-1l-1,1h-1.1
			v-0.2l1.7-1.7h0.8L444.4,288.7z M442.4,291.2c-0.5,0-0.9,0.2-1.2,0.6c-0.3,0.4-0.5,0.9-0.6,1.4l0,0h3.5v-0.1c0-0.6-0.1-1-0.4-1.4
			S442.9,291.2,442.4,291.2z M443.2,300.3h-1.5v-1.4h1.5V300.3z"/>
		<path class="st1" d="M448.9,288.4v1.8h1.5v1h-1.5v4.6c0,0.4,0.1,0.6,0.2,0.8c0.1,0.1,0.3,0.2,0.6,0.2c0.1,0,0.2,0,0.3,0
			c0.1,0,0.2,0,0.2-0.1l0.2,1c-0.1,0.1-0.3,0.2-0.5,0.2c-0.2,0.1-0.4,0.1-0.6,0.1c-0.6,0-1-0.2-1.4-0.5c-0.3-0.3-0.5-0.9-0.5-1.6
			v-4.6h-1.2v-1h1.2v-1.8H448.9z"/>
	</g>
</g>
<g>
	<g>
		<path class="st4" d="M155.5,187.5c0,0,4.1-6.9,13,4.1l-3.8,8.2C164.8,199.9,152.1,195.4,155.5,187.5z"/>
	</g>
	<g>
		<path class="st4" d="M178.1,206.7c0,0-0.3-5.6,0.9-7.8c0.2-0.3,0.1-0.8-0.3-0.9l-8.6-5c-0.8-0.5-1.8-0.1-2.1,0.8
			c-0.5,1.5-1.5,4-3.7,8L178.1,206.7z"/>
	</g>
	<g>
		<path class="st4" d="M184.4,208.8c-1.4-3.3-1.2-2.5-1.8-6.2c-0.6-4,9.4-11.2,11.6-12.7l-2.7-2c0,0-12.7,6.5-11,14.4l1.2-2.3
			C180.5,202.7,183.7,206.6,184.4,208.8"/>
	</g>
	<g>
		<path class="st4" d="M202.2,184.4l2.9,0.2c0.6,0,1.1-0.2,1.4-0.7l6.4-10.8c0.4-0.7,4.5,1,5.3,1.3l-6.2-3.8c-0.7-0.4-1.6-0.2-2,0.5
			l-6.5,11c-0.1,0.1-0.2,0.2-0.3,0.4c-0.9,0.7-2.1,0.8-3.1,0.4l-2.3-0.9C197.7,182.9,201.3,184.4,202.2,184.4z"/>
	</g>
	<g>
		<path class="st4" d="M193.6,188.2l-1.6-4.7c0.2,0.7,0-7.1,0.5-8.1c0.2-0.5,4.9,1.1,6.8,1.5c-0.1-0.6-0.4-1.8-1-2.1
			c0,0-8.5-2-8.9-1.2c-1.2,2.5-1.4,5.4-0.5,8.1l1.6,4.7c0.1,0.3,0.3,0.6,0.6,0.9l6.9,5.1c0.4,0.3,0.8,0.4,1.2,0.3l-5-3.7
			C193.9,188.8,193.7,188.5,193.6,188.2z"/>
	</g>
	<path class="st5" d="M171.7,176.3l-53.8,17.3c-14.5,4.7-30.1-3.3-34.8-17.8L77.5,158c-4.7-14.5,3.3-30.1,17.8-34.8l53.8-17.3
		c14.5-4.7,30.1,3.3,34.8,17.8l5.7,17.7C194.2,156.1,186.2,171.6,171.7,176.3z"/>
	<path class="st6" d="M104.3,198.7c-3.3,0-6.7-0.8-9.7-2.4c-5.1-2.6-8.8-7-10.6-12.5L73.4,151c-3.6-11.2,2.6-23.3,13.8-26.9l69-22.2
		c5.4-1.7,11.2-1.3,16.3,1.3c5.1,2.6,8.8,7,10.6,12.5l10.6,32.9c3.6,11.2-2.6,23.3-13.8,26.9l-69,22.2
		C108.7,198.3,106.5,198.7,104.3,198.7z M162.7,104.3c-1.8,0-3.7,0.3-5.5,0.9l-69,22.2c-9.4,3-14.6,13.2-11.6,22.6l10.6,32.9
		c1.5,4.6,4.6,8.3,8.9,10.5c4.3,2.2,9.1,2.6,13.7,1.1l69-22.2c9.4-3,14.6-13.2,11.6-22.6l-10.6-32.9c-1.5-4.6-4.6-8.3-8.9-10.5
		C168.3,105,165.5,104.3,162.7,104.3z"/>
	<g>
		<path class="st1" d="M154.8,188.5c0,0,4.1-6.9,13,4.1l-3.8,8.2C164.1,200.9,151.4,196.4,154.8,188.5z"/>
	</g>
	<g>
		<path class="st6" d="M198.4,175.5c0.7,0.3,1.2,1,1.2,1.8l-0.4,4.6c-0.1,1,0.6,1.8,1.6,1.9l2.7,0.2c0.7,0.1,1.3-0.3,1.7-0.9
			l6.3-10.6c0.5-0.8,1.5-1.1,2.4-0.6l5,2.9c0.8,0.5,1.1,1.5,0.7,2.4l-6.1,11c-1.4,2.5-3.8,4.2-6.6,4.7l-5.5,1c-0.5,0.1-1,0-1.4-0.3
			l-6.9-5.1c-0.3-0.2-0.5-0.5-0.6-0.9l-1.6-4.7c-0.9-2.7-0.7-5.5,0.5-8.1v0C191.9,173.9,198.4,175.5,198.4,175.5z"/>
	</g>
	<g>
		<path class="st4" d="M87.7,226.3c0.4,0.5,1.6,1.2,2.3,1l3.7-1.7c0.9-0.3,1.8,0.1,2,0.9l0.6,2.1c0.2,0.5,0,1.1-0.5,1.5l-8.8,7.3
			c-0.7,0.6-0.8,1.5-0.2,2l3.5,3.4c0.6,0.6,1.6,0.6,2.3,0l9.2-7.2c2.1-1.6,3.3-3.9,3.3-6.2l0-4.6c0-0.4-0.2-0.8-0.5-1l-5.9-4.4
			c-0.2-0.2-0.6-0.3-0.9-0.3l-4.6-0.3c-2.6-0.1-5.2,0.6-7.4,2.1v0C85.2,221.4,87.7,226.3,87.7,226.3z"/>
	</g>
	<g>
		<path class="st6" d="M88.7,227c0.4,0.5,1.1,0.8,1.9,0.6l4.2-1.3c0.9-0.3,1.8,0.1,2,0.9l0.6,2.1c0.2,0.5,0,1.1-0.5,1.5l-8.8,7.3
			c-0.7,0.6-0.8,1.5-0.2,2l3.5,3.4c0.6,0.6,1.6,0.6,2.3,0l9.2-7.2c2.1-1.6,3.3-3.9,3.3-6.2l0-4.6c0-0.4-0.2-0.8-0.5-1l-5.9-4.4
			c-0.2-0.2-0.6-0.3-0.9-0.3l-4.6-0.3c-2.6-0.1-5.2,0.6-7.4,2.1h0C86.2,222.1,88.7,227,88.7,227z"/>
	</g>
	<g>
		<path class="st6" d="M168.9,193.7l-4.5,7.8c0,0,13.4,9.8,15.7,7.8c0,0-2.5-6.1-0.8-10.3L168.9,193.7z"/>
	</g>
	<g>
		<path class="st6" d="M182.9,210.1c0,0,12.3-2.4,16.1-16.4l-6.9-5.1c0,0-12.7,8.6-12,13C180.9,206,180.5,204,182.9,210.1z"/>
	</g>
	<g>
		<path class="st4" d="M119.4,198.7c-2.4,0.5-6.7,1.9-8.1,6c-0.3,0.9,0,1.9,0.7,2.5l6.4,5c0,0,7.5-4.8,2.7-12v0
			C121.2,199.2,120.4,198.5,119.4,198.7z"/>
	</g>
	<g>
		<path class="st1" d="M120.1,199.4c-2.7,0.5-7.4,2.1-8.4,7.1c-0.1,0.3,0.1,0.6,0.3,0.8l7.1,5.5c0,0,7.5-4.8,2.7-12l0,0
			C121.9,199.9,121.1,199.2,120.1,199.4z"/>
	</g>
	<g>
		<path class="st4" d="M117.5,213.2l-6.2-4.7c-0.6-0.5-1.4-0.5-2-0.1c-5.4,3.6-7.7,6.2-8.8,7.9c-0.7,1.1-0.4,2.6,0.7,3.4l4,3
			l0.5-0.5c0.1,0.3,0.1,0.5,0.1,0.5L117.5,213.2z"/>
	</g>
	<g>
		<path class="st6" d="M118.5,213.9l-6.6-5.1c-0.3-0.3-0.8-0.3-1.1,0c-10.7,7-10,10.6-10,10.6l3.8,2.9l1.6,1.2h0.7L118.5,213.9z"/>
	</g>
	<g>
		<path class="st6" d="M163.1,171.2l-41.3,13.3c-11.9,3.8-24.7-2.7-28.5-14.6l-4.1-12.7c-3.8-11.9,2.7-24.7,14.6-28.5l41.3-13.3
			c11.9-3.8,24.7,2.7,28.5,14.6l4.1,12.7C181.6,154.6,175,167.4,163.1,171.2z"/>
	</g>
	<g>
		<path class="st1" d="M178.6,145.5l-5.9-18.4c-2.5-7.6-9.1-12.7-16.6-13.5c4.8,2.2,8.7,6.4,10.5,11.8l5.9,18.4
			c3.3,10.3-2.4,21.4-12.7,24.7l-47.1,15.1c-2.7,0.9-5.5,1.1-8.1,0.8c4.3,2,9.4,2.5,14.3,0.9l47.1-15.1
			C176.3,166.9,182,155.9,178.6,145.5z"/>
	</g>
	<g>
		<path class="st6" d="M126.1,99.6l-9,2.9l-5.3-16.6c2.3-1.5,3.8-4.2,3.8-7.1c0-4.7-3.8-8.6-8.6-8.6s-8.6,3.8-8.6,8.6
			s3.8,8.6,8.6,8.6c0,0,0.1,0,0.1,0l5.4,16.7l-9.4,3c-2.8,0.9-4.3,3.9-3.4,6.6l0.2,0.5l33.6-10.8C132.5,100.3,129.2,98.6,126.1,99.6
			z"/>
	</g>
	<g>
		<path class="st4" d="M114.9,79.1c0,3-1.5,5.6-3.8,7.1l5.3,16.6l2.5-0.8l-5.1-15.8c2.3-1.5,3.8-4.2,3.8-7.1c0-4.7-3.8-8.6-8.6-8.6
			c-0.5,0-0.9,0-1.4,0.1C111.8,71.3,114.9,74.8,114.9,79.1z"/>
	</g>
	<g>
		<ellipse transform="matrix(0.952 -0.3061 0.3061 0.952 -35.0129 53.713)" class="st5" cx="153.8" cy="138.5" rx="9.1" ry="11.1"/>
	</g>
	<g>
		
			<ellipse transform="matrix(0.952 -0.3061 0.3061 0.952 -40.7679 42.3653)" class="st5" cx="114.7" cy="151.2" rx="9.1" ry="11.1"/>
	</g>
	<g>
		<path class="st6" d="M201.5,141.3l-7.6,2.4l-10.8-33.6l8.2-2.6c7-2.2,14.5,1.6,16.7,8.6l2.5,7.6
			C212.9,131.1,208.9,139,201.5,141.3z"/>
	</g>
	<g>
		<path class="st4" d="M210,121.3l-0.2-0.7c-2.1-6.6-7.7-11.1-14.1-12.1c3.5,2.1,6.3,5.5,7.6,9.7l0.2,0.7
			c2.8,8.7-1.9,18.1-10.5,21.1l1.3,4.1l4.8-1.5C208,139.7,212.9,130.2,210,121.3z"/>
	</g>
	<g>
		<path class="st6" d="M80.5,185.4l-6.4,2.1c-7.4,2.4-15.3-1.7-17.7-9.1l-2.5-7.6c-2.2-7,1.6-14.4,8.5-16.7l7.2-2.3
			c0.6-0.2,1.2,0.1,1.4,0.7l10.1,31.4C81.4,184.5,81.1,185.2,80.5,185.4z"/>
	</g>
	<g>
		<path class="st4" d="M79.4,179.6c-0.3,0.2-0.6,0.4-0.9,0.5l-1.4,0.4c-9.2,3-19.1-2.1-22.1-11.3l0,0c-0.3-0.8-0.4-1.6-0.6-2.3
			c-0.5,2.8-0.3,5.7,0.6,8.5l0,0c3,9.2,12.9,14.3,22.1,11.3l1.4-0.4c1.5-0.5,2.4-2.1,1.9-3.7L79.4,179.6z"/>
	</g>
	<g>
		<path class="st6" d="M158.2,223.2l-22.1,7.1c-5.1,1.6-10.5-1.2-12.1-6.2l-4.8-15c-1.6-5.1,1.2-10.5,6.2-12.1l22.1-7.1
			c5.1-1.6,10.5,1.2,12.1,6.2l4.8,15C166,216.2,163.3,221.6,158.2,223.2z"/>
	</g>
	<g>
		<path class="st4" d="M167.7,216.8l-8.7-27c-0.6-1.7-2.4-2.7-4.1-2.1l-0.6,0.2c0.8,0.4,1.4,1.1,1.7,1.9l8.7,27
			c0.6,1.7-0.4,3.6-2.1,4.1l-33.6,10.8c0.7,0.4,1.6,0.5,2.5,0.2l34.2-11C167.3,220.4,168.3,218.5,167.7,216.8z"/>
	</g>
	<g>
		<path class="st5" d="M154.4,212.5l-21.5,6.9c-3.7,1.2-7.7-0.9-8.9-4.6l-1.3-4c-1.2-3.7,0.9-7.7,4.6-8.9l21.5-6.9
			c3.7-1.2,7.7,0.9,8.9,4.6l1.3,4C160.2,207.3,158.1,211.3,154.4,212.5z"/>
	</g>
	<g>
		<polygon class="st1" points="141.1,216.7 132.5,208.1 131.4,213.1 126.3,206.6 126.7,213.9 124,214.8 123.7,213.8 125.6,213.2 
			125.1,203.4 130.8,210.7 131.9,206 140.4,214.6 141.8,207.5 144.9,206.5 144.6,198.9 150.7,207.9 151.3,200.6 154.3,203.1 
			158.6,202.2 158.8,203.2 154,204.3 152.1,202.7 151.4,210.9 145.8,202.5 145.9,207.3 142.7,208.3 		"/>
	</g>
	<g>
		<circle class="st7" cx="132.4" cy="225.4" r="3.3"/>
	</g>
	<g>
		<circle class="st7" cx="158.8" cy="216.1" r="3.3"/>
	</g>
	<g>
		<g>
			<path class="st7" d="M150.8,218.5l-9.4,3c-0.3,0.1-0.6-0.1-0.7-0.3l-0.1-0.3c-0.1-0.3,0.1-0.6,0.3-0.7l9.4-3
				c0.3-0.1,0.6,0.1,0.7,0.3l0.1,0.3C151.3,218.1,151.1,218.4,150.8,218.5z"/>
		</g>
		<g>
			<path class="st7" d="M151.5,220.2l-9.4,3c-0.3,0.1-0.6-0.1-0.7-0.3l-0.1-0.3c-0.1-0.3,0.1-0.6,0.3-0.7l9.4-3
				c0.3-0.1,0.6,0.1,0.7,0.3l0.1,0.3C151.9,219.8,151.8,220.1,151.5,220.2z"/>
		</g>
		<g>
			<path class="st7" d="M152.2,221.9l-9.4,3c-0.3,0.1-0.6-0.1-0.7-0.3l-0.1-0.3c-0.1-0.3,0.1-0.6,0.3-0.7l9.4-3
				c0.3-0.1,0.6,0.1,0.7,0.3l0.1,0.3C152.6,221.6,152.5,221.9,152.2,221.9z"/>
		</g>
	</g>
	<g>
		<path class="st4" d="M123.6,236.5l-12.3,30.3l0,0l2.1,5.2l0,0l11.3,5.3l8.1-0.6c0.9-0.1,1.6-0.7,1.9-1.5l8.9-31.5"/>
	</g>
	<g>
		<polygon class="st6" points="123.6,236.9 109.6,266.8 109.6,266.8 111.6,272 111.6,272 124.8,277.3 132.5,276.6 141.8,243.4 		"/>
	</g>
	<g>
		<polyline class="st4" points="148,232.4 148,242 158.2,242 158.2,232.4 158.2,224.5 148,228.1 		"/>
	</g>
	<g>
		<polyline class="st6" points="146.6,232.8 146.6,242 156.9,242 156.9,232.8 156.9,225.2 146.6,228.6 		"/>
	</g>
	<g>
		<path class="st4" d="M139.4,241.7l-6.3-2.9c-1.4-0.7-2-2.3-1.3-3.7l0.8-1.6l10.3-4.5L139.4,241.7z"/>
	</g>
	<g>
		<polygon class="st6" points="140.8,231.7 138,241 129.1,236.9 131.2,233.4 141.4,229.7 		"/>
	</g>
	<g class="st8">
		<path class="st5" d="M96.9,140.3L96.9,140.3L96.9,140.3c0.8-1.3,1.9-2.3,3-3c0.7-0.4,1.4-0.9,2-1.5l2-1.8l-5.6,2.8
			c-4.8,2.4-7,9.7-5,16.2l2.3,7.6l-1-10.8c-0.1-1.2-0.1-2.3,0-3.4C95,144.2,95.7,142,96.9,140.3z"/>
	</g>
	<g>
		<path class="st4" d="M141.4,243h21.7l2,27c0.1,0.8-0.2,1.5-0.6,2.1l-1.6,2.3c-0.4,0.6-1.2,1-2,1.1l-12.8-0.3l-5.6-2.9L141.4,243z"
			/>
	</g>
	<g>
		<polygon class="st6" points="141.8,243.4 162,243.4 164.1,274.5 161,279.3 147.3,280.4 140.9,275.8 		"/>
	</g>
	<g>
		<polygon class="st1" points="123.6,236.9 121.2,242 140.2,249 141.8,243.4 		"/>
	</g>
	<g>
		<g>
			<defs>
				<ellipse id="SVGID_1_" cx="138.4" cy="300.8" rx="30.8" ry="2.2"/>
			</defs>
			<linearGradient id="SVGID_2_" gradientUnits="userSpaceOnUse" x1="124.5374" y1="320.7044" x2="149.8958" y2="284.1518">
				<stop  offset="0" style="stop-color:#00A99D"/>
				<stop  offset="0.216" style="stop-color:#3DBDB4;stop-opacity:0.784"/>
				<stop  offset="0.6041" style="stop-color:#A4E0DC;stop-opacity:0.3959"/>
				<stop  offset="0.8737" style="stop-color:#E6F6F5;stop-opacity:0.1263"/>
				<stop  offset="1" style="stop-color:#FFFFFF;stop-opacity:0"/>
			</linearGradient>
			<use xlink:href="#SVGID_1_"  style="overflow:visible;fill:url(#SVGID_2_);"/>
			<clipPath id="SVGID_3_">
				<use xlink:href="#SVGID_1_"  style="overflow:visible;"/>
			</clipPath>
			<linearGradient id="SVGID_4_" gradientUnits="userSpaceOnUse" x1="124.5374" y1="320.7044" x2="149.8958" y2="284.1518">
				<stop  offset="0" style="stop-color:#00A99D"/>
				<stop  offset="0.216" style="stop-color:#3DBDB4;stop-opacity:0.784"/>
				<stop  offset="0.6041" style="stop-color:#A4E0DC;stop-opacity:0.3959"/>
				<stop  offset="0.8737" style="stop-color:#E6F6F5;stop-opacity:0.1263"/>
				<stop  offset="1" style="stop-color:#FFFFFF;stop-opacity:0"/>
			</linearGradient>
			<rect x="107.5" y="298.5" class="st9" width="61.7" height="4.5"/>
			<linearGradient id="SVGID_5_" gradientUnits="userSpaceOnUse" x1="124.5374" y1="320.7044" x2="149.8958" y2="284.1518">
				<stop  offset="0" style="stop-color:#00A99D"/>
				<stop  offset="0.216" style="stop-color:#3DBDB4;stop-opacity:0.784"/>
				<stop  offset="0.6041" style="stop-color:#A4E0DC;stop-opacity:0.3959"/>
				<stop  offset="0.8737" style="stop-color:#E6F6F5;stop-opacity:0.1263"/>
				<stop  offset="1" style="stop-color:#FFFFFF;stop-opacity:0"/>
			</linearGradient>
			<ellipse class="st10" cx="138.4" cy="300.8" rx="26.3" ry="2.8"/>
			<linearGradient id="SVGID_6_" gradientUnits="userSpaceOnUse" x1="127.2058" y1="322.5556" x2="152.5641" y2="286.003">
				<stop  offset="0" style="stop-color:#00A99D"/>
				<stop  offset="0.216" style="stop-color:#3DBDB4;stop-opacity:0.784"/>
				<stop  offset="0.6041" style="stop-color:#A4E0DC;stop-opacity:0.3959"/>
				<stop  offset="0.8737" style="stop-color:#E6F6F5;stop-opacity:0.1263"/>
				<stop  offset="1" style="stop-color:#FFFFFF;stop-opacity:0"/>
			</linearGradient>
			<path class="st11" d="M153.6,303.3h-13.2h-13.2v0.2c0-0.8,5.9-1.4,13.2-1.4s13.2,0.6,13.2,1.4V303.3z"/>
		</g>
	</g>
	<polygon class="st1" points="141.8,243.4 162,243.4 162.4,248.5 141.8,249 	"/>
</g>
</svg>
