<?xml version="1.0" encoding="utf-8"?>
<!-- Generator: Adobe Illustrator 21.0.0, SVG Export Plug-In . SVG Version: 6.00 Build 0)  -->
<svg version="1.1" id="Layer_1" xmlns="http://www.w3.org/2000/svg" xmlns:xlink="http://www.w3.org/1999/xlink" x="0px" y="0px"
	 viewBox="0 0 360 180" style="enable-background:new 0 0 360 180;" xml:space="preserve">
<style type="text/css">
	.st0{fill:none;stroke:#1F6666;stroke-width:2;stroke-miterlimit:10;}
	.st1{fill:#1CA0A4;}
	.st2{fill:#1F6666;}
	.st3{fill:#F27221;}
	.st4{fill:#003366;}
	.st5{fill:#F1F0F0;}
	.st6{fill:#077E9E;}
	.st7{fill:#E4E5E0;}
	.st8{opacity:0.61;}
	.st9{fill:url(#SVGID_2_);}
	.st10{clip-path:url(#SVGID_4_);fill:url(#SVGID_5_);}
	.st11{clip-path:url(#SVGID_7_);fill:url(#SVGID_8_);}
	.st12{clip-path:url(#SVGID_10_);fill:url(#SVGID_11_);}
</style>
<line class="st0" x1="231.8" y1="11.4" x2="232" y2="113"/>
<circle class="st1" cx="211.9" cy="23.5" r="3"/>
<g>
	<path class="st2" d="M141.8,21.2h-1.9v5.1h-0.8v-5.1h-1.9v-0.6h4.5L141.8,21.2L141.8,21.2z"/>
	<path class="st2" d="M143.3,22.7c0.1-0.2,0.3-0.4,0.5-0.5s0.5-0.2,0.7-0.2c0.5,0,0.8,0.1,1.1,0.4s0.4,0.7,0.4,1.3v2.7h-0.8v-2.7
		c0-0.4-0.1-0.6-0.2-0.8c-0.2-0.2-0.4-0.3-0.7-0.3c-0.2,0-0.4,0-0.6,0.1c-0.2,0.1-0.3,0.2-0.4,0.4v3.2h-0.8v-6.2h0.8V22.7z"/>
	<path class="st2" d="M146.9,24.2c0-0.6,0.2-1.2,0.5-1.6s0.8-0.6,1.4-0.6c0.6,0,1.1,0.2,1.4,0.6c0.3,0.4,0.5,0.9,0.5,1.6v0.1
		c0,0.6-0.2,1.2-0.5,1.6c-0.3,0.4-0.8,0.6-1.4,0.6c-0.6,0-1.1-0.2-1.4-0.6C147.1,25.4,146.9,24.9,146.9,24.2L146.9,24.2z
		 M150.1,21.2L150.1,21.2l-0.6,0.1l-0.6-0.6l-0.6,0.6h-0.6v-0.1l1-0.9h0.5L150.1,21.2z M147.7,24.3c0,0.5,0.1,0.8,0.3,1.1
		s0.5,0.4,0.9,0.4s0.7-0.1,0.8-0.4c0.2-0.3,0.3-0.7,0.3-1.1v-0.1c0-0.4-0.1-0.8-0.3-1.1c-0.2-0.3-0.5-0.4-0.9-0.4s-0.7,0.1-0.8,0.4
		C147.8,23.4,147.7,23.7,147.7,24.3L147.7,24.3z"/>
	<path class="st2" d="M152.4,22.1l0.1,0.6c0.1-0.2,0.3-0.4,0.5-0.5s0.5-0.2,0.7-0.2c0.5,0,0.8,0.1,1.1,0.4s0.4,0.7,0.4,1.3v2.7h-0.8
		v-2.7c0-0.4-0.1-0.6-0.2-0.8c-0.1-0.2-0.4-0.2-0.7-0.2c-0.2,0-0.4,0-0.6,0.1c-0.2,0.1-0.3,0.2-0.4,0.4v3.2h-0.8v-4.3H152.4z"/>
	<path class="st2" d="M156.2,24.3c0-0.7,0.1-1.2,0.4-1.7c0.3-0.4,0.7-0.6,1.2-0.6c0.3,0,0.5,0.1,0.7,0.2s0.4,0.3,0.5,0.5l0.1-0.6
		h0.6v4.3c0,0.5-0.2,1-0.5,1.3s-0.8,0.4-1.4,0.4c-0.2,0-0.4,0-0.7-0.1c-0.2-0.1-0.4-0.1-0.6-0.2l0.1-0.6c0.2,0.1,0.3,0.1,0.5,0.2
		c0.2,0,0.4,0.1,0.6,0.1c0.4,0,0.7-0.1,0.8-0.3c0.2-0.2,0.3-0.4,0.3-0.8v-0.5c-0.1,0.2-0.3,0.3-0.5,0.4c-0.2,0.1-0.4,0.1-0.7,0.1
		c-0.5,0-0.9-0.2-1.2-0.6C156.3,25.5,156.2,25,156.2,24.3L156.2,24.3z M157,24.4c0,0.4,0.1,0.8,0.3,1c0.2,0.3,0.4,0.4,0.8,0.4
		c0.2,0,0.4-0.1,0.6-0.2s0.3-0.3,0.4-0.5v-2c-0.1-0.2-0.2-0.3-0.4-0.4s-0.4-0.2-0.6-0.2c-0.4,0-0.6,0.2-0.8,0.5
		C157.1,23.4,157,23.8,157,24.4L157,24.4z"/>
	<path class="st2" d="M164,21.1v1h0.8v0.6H164v2.6c0,0.2,0,0.3,0.1,0.4c0.1,0.1,0.2,0.1,0.3,0.1c0,0,0.1,0,0.2,0c0.1,0,0.1,0,0.1,0
		l0.1,0.5c-0.1,0-0.1,0.1-0.3,0.1c-0.1,0-0.2,0-0.3,0c-0.3,0-0.6-0.1-0.8-0.3s-0.3-0.5-0.3-0.9v-2.6h-0.7V22h0.7v-1h0.9V21.1z"/>
	<path class="st2" d="M166.5,21h-0.8v-0.8h0.8V21z M166.5,26.4h-0.8v-4.3h0.8V26.4z"/>
	<path class="st2" d="M168.4,22.1l0.1,0.6c0.1-0.2,0.3-0.4,0.5-0.5s0.5-0.2,0.7-0.2c0.5,0,0.8,0.1,1.1,0.4s0.4,0.7,0.4,1.3v2.7h-0.8
		v-2.7c0-0.4-0.1-0.6-0.2-0.8c-0.1-0.2-0.4-0.2-0.7-0.2c-0.2,0-0.4,0-0.6,0.1c-0.2,0.1-0.3,0.2-0.4,0.4v3.2h-0.8v-4.3H168.4z"/>
	<path class="st2" d="M176,25.8c0.2,0,0.4-0.1,0.6-0.2c0.2-0.2,0.3-0.4,0.3-0.6h0.7l0,0c0,0.4-0.1,0.7-0.5,1
		c-0.3,0.3-0.7,0.4-1.1,0.4c-0.6,0-1.1-0.2-1.4-0.6c-0.3-0.4-0.5-0.9-0.5-1.5v-0.2c0-0.6,0.2-1.1,0.5-1.5s0.8-0.6,1.4-0.6
		c0.5,0,0.9,0.1,1.2,0.4s0.5,0.7,0.4,1.1l0,0h-0.7c0-0.3-0.1-0.5-0.3-0.7s-0.4-0.3-0.6-0.3c-0.4,0-0.7,0.1-0.8,0.4
		c-0.2,0.3-0.3,0.7-0.3,1.1v0.2c0,0.4,0.1,0.8,0.3,1.1C175.3,25.7,175.6,25.8,176,25.8z"/>
	<path class="st2" d="M181.2,26.4c0-0.1,0-0.2-0.1-0.3c0-0.1,0-0.2,0-0.3c-0.1,0.2-0.3,0.4-0.6,0.5s-0.5,0.2-0.8,0.2
		c-0.4,0-0.8-0.1-1-0.3s-0.3-0.5-0.3-0.9s0.2-0.7,0.5-1c0.3-0.2,0.8-0.3,1.3-0.3h0.8v-0.4c0-0.3-0.1-0.4-0.2-0.6
		c-0.2-0.1-0.4-0.2-0.6-0.2c-0.3,0-0.5,0.1-0.6,0.2c-0.2,0.1-0.2,0.3-0.2,0.5h-0.7l0,0c0-0.3,0.1-0.6,0.4-0.9
		c0.3-0.3,0.7-0.4,1.2-0.4s0.9,0.1,1.2,0.4c0.3,0.2,0.4,0.6,0.4,1.1v2.1c0,0.2,0,0.3,0,0.4s0,0.3,0.1,0.4h-0.8V26.4z M179.9,25.8
		c0.3,0,0.5-0.1,0.8-0.2c0.2-0.1,0.4-0.3,0.4-0.5v-0.7h-0.9c-0.3,0-0.6,0.1-0.8,0.2c-0.2,0.2-0.3,0.3-0.3,0.6c0,0.2,0.1,0.3,0.2,0.5
		C179.5,25.7,179.7,25.8,179.9,25.8z M180.6,20.3h0.9l0,0l-1.1,1h-0.6L180.6,20.3z"/>
	<path class="st2" d="M185.7,22.1l0.1,0.6c0.1-0.2,0.3-0.4,0.5-0.5s0.5-0.2,0.7-0.2c0.5,0,0.8,0.1,1.1,0.4s0.4,0.7,0.4,1.3v2.7h-0.8
		v-2.7c0-0.4-0.1-0.6-0.2-0.8c-0.1-0.2-0.4-0.2-0.7-0.2c-0.2,0-0.4,0-0.6,0.1c-0.2,0.1-0.3,0.2-0.4,0.4v3.2H185v-4.3H185.7z"/>
	<path class="st2" d="M190.4,22.7c0.1-0.2,0.3-0.4,0.5-0.5s0.5-0.2,0.7-0.2c0.5,0,0.8,0.1,1.1,0.4s0.4,0.7,0.4,1.3v2.7h-0.8v-2.7
		c0-0.4-0.1-0.6-0.2-0.8c-0.2-0.2-0.4-0.3-0.7-0.3c-0.2,0-0.4,0-0.6,0.1c-0.2,0.1-0.3,0.2-0.4,0.4v3.2h-0.8v-6.2h0.8V22.7z"/>
	<path class="st2" d="M196.8,26.4c0-0.1,0-0.2-0.1-0.3c0-0.1,0-0.2,0-0.3c-0.1,0.2-0.3,0.4-0.6,0.5s-0.5,0.2-0.8,0.2
		c-0.4,0-0.8-0.1-1-0.3s-0.3-0.5-0.3-0.9s0.2-0.7,0.5-1c0.3-0.2,0.8-0.3,1.3-0.3h0.8v-0.4c0-0.3-0.1-0.4-0.2-0.6
		c-0.2-0.1-0.4-0.2-0.6-0.2c-0.3,0-0.5,0.1-0.6,0.2c-0.2,0.1-0.2,0.3-0.2,0.5h-0.7l0,0c0-0.3,0.1-0.6,0.4-0.9
		c0.3-0.3,0.7-0.4,1.2-0.4s0.9,0.1,1.2,0.4c0.3,0.2,0.4,0.6,0.4,1.1v2.1c0,0.2,0,0.3,0,0.4s0,0.3,0.1,0.4h-0.8V26.4z M197.1,21.2
		L197.1,21.2l-0.6,0.1l-0.6-0.6l-0.6,0.6h-0.6v-0.1l1-0.9h0.5L197.1,21.2z M195.5,25.8c0.3,0,0.5-0.1,0.8-0.2
		c0.2-0.1,0.4-0.3,0.4-0.5v-0.7h-0.9c-0.3,0-0.6,0.1-0.8,0.2c-0.2,0.2-0.3,0.3-0.3,0.6c0,0.2,0.1,0.3,0.2,0.5
		C195.1,25.7,195.3,25.8,195.5,25.8z"/>
	<path class="st2" d="M199.4,22.1l0.1,0.6c0.1-0.2,0.3-0.4,0.5-0.5s0.5-0.2,0.7-0.2c0.5,0,0.8,0.1,1.1,0.4s0.4,0.7,0.4,1.3v2.7h-0.8
		v-2.7c0-0.4-0.1-0.6-0.2-0.8c-0.1-0.2-0.4-0.2-0.7-0.2c-0.2,0-0.4,0-0.6,0.1c-0.2,0.1-0.3,0.2-0.4,0.4v3.2h-0.8v-4.3H199.4z"/>
</g>
<circle class="st1" cx="252.5" cy="41.7" r="3"/>
<g>
	<path class="st2" d="M270.1,39.9h-1.8v4.8h-0.7v-4.8h-1.7v-0.6h4.2V39.9z"/>
	<path class="st2" d="M271.4,41.2c0.1-0.2,0.3-0.3,0.5-0.4s0.4-0.2,0.7-0.2c0.4,0,0.7,0.1,1,0.4c0.2,0.3,0.4,0.6,0.4,1.2v2.5h-0.7
		v-2.5c0-0.3-0.1-0.6-0.2-0.7c-0.1-0.2-0.3-0.2-0.6-0.2c-0.2,0-0.4,0-0.6,0.1s-0.3,0.2-0.4,0.4v3h-0.8v-5.7h0.7V41.2z"/>
	<path class="st2" d="M274.8,42.7c0-0.6,0.2-1.1,0.5-1.4c0.3-0.4,0.7-0.6,1.3-0.6c0.5,0,1,0.2,1.3,0.6s0.5,0.9,0.5,1.4v0.1
		c0,0.6-0.2,1.1-0.5,1.4c-0.3,0.4-0.7,0.6-1.3,0.6c-0.5,0-1-0.2-1.3-0.6C275,43.8,274.8,43.3,274.8,42.7L274.8,42.7z M277.7,39.9
		L277.7,39.9l-0.6,0.1l-0.5-0.5l-0.5,0.5h-0.6v-0.1l0.9-0.9h0.4L277.7,39.9z M275.5,42.7c0,0.4,0.1,0.8,0.3,1
		c0.2,0.3,0.4,0.4,0.8,0.4c0.3,0,0.6-0.1,0.8-0.4c0.2-0.3,0.3-0.6,0.3-1v-0.1c0-0.4-0.1-0.8-0.3-1c-0.2-0.3-0.4-0.4-0.8-0.4
		c-0.3,0-0.6,0.1-0.8,0.4C275.6,41.9,275.5,42.2,275.5,42.7L275.5,42.7z"/>
	<path class="st2" d="M279.9,40.7l0.1,0.6c0.1-0.2,0.3-0.4,0.5-0.5s0.4-0.2,0.7-0.2c0.4,0,0.8,0.1,1,0.4c0.2,0.2,0.4,0.6,0.4,1.2
		v2.5h-0.9v-2.5c0-0.3-0.1-0.6-0.2-0.7c-0.1-0.1-0.3-0.2-0.6-0.2c-0.2,0-0.4,0-0.6,0.1s-0.3,0.2-0.4,0.4v2.9h-0.7v-4H279.9z"/>
	<path class="st2" d="M283.4,42.8c0-0.6,0.1-1.1,0.4-1.5s0.7-0.6,1.1-0.6c0.3,0,0.5,0.1,0.7,0.2c0.2,0.1,0.3,0.2,0.5,0.4l0.1-0.5
		h0.6v4c0,0.5-0.1,0.9-0.4,1.2c-0.3,0.3-0.7,0.4-1.3,0.4c-0.2,0-0.4,0-0.6-0.1s-0.4-0.1-0.6-0.2l0.1-0.6c0.1,0.1,0.3,0.1,0.5,0.2
		c0.2,0,0.4,0.1,0.6,0.1c0.4,0,0.6-0.1,0.8-0.2c0.2-0.2,0.2-0.4,0.2-0.7v-0.4c-0.1,0.2-0.3,0.3-0.5,0.4S285.2,45,285,45
		c-0.5,0-0.9-0.2-1.1-0.5C283.5,43.9,283.4,43.4,283.4,42.8L283.4,42.8z M284.1,42.8c0,0.4,0.1,0.7,0.2,1c0.2,0.2,0.4,0.4,0.8,0.4
		c0.2,0,0.4,0,0.5-0.1s0.3-0.2,0.4-0.4v-1.8c-0.1-0.2-0.2-0.3-0.4-0.4c-0.1-0.1-0.3-0.1-0.5-0.1c-0.3,0-0.6,0.1-0.8,0.4
		S284.1,42.3,284.1,42.8L284.1,42.8z"/>
	<path class="st2" d="M290.6,39.8v1h0.7v0.5h-0.7v2.3c0,0.2,0,0.3,0.1,0.4c0.1,0.1,0.2,0.1,0.3,0.1h0.1c0.1,0,0.1,0,0.1,0l0.1,0.5
		c-0.1,0-0.1,0.1-0.2,0.1s-0.2,0-0.3,0c-0.3,0-0.5-0.1-0.7-0.3c-0.2-0.2-0.3-0.5-0.3-0.8v-2.4h-0.6v-0.5h0.6v-1L290.6,39.8
		L290.6,39.8z"/>
	<path class="st2" d="M292.9,39.7h-0.7V39h0.7V39.7z M292.9,44.7h-0.7v-4h0.7V44.7z"/>
	<path class="st2" d="M294.6,40.7l0.1,0.6c0.1-0.2,0.3-0.4,0.5-0.5s0.4-0.2,0.7-0.2c0.4,0,0.8,0.1,1,0.4c0.2,0.2,0.4,0.6,0.4,1.2
		v2.5h-0.7v-2.5c0-0.3-0.1-0.6-0.2-0.7c-0.1-0.1-0.3-0.2-0.6-0.2c-0.2,0-0.4,0-0.6,0.1s-0.3,0.2-0.4,0.4v2.9h-0.7v-4H294.6z"/>
	<path class="st2" d="M302.4,43.6c0-0.2-0.1-0.3-0.2-0.4s-0.3-0.2-0.7-0.3c-0.5-0.1-0.8-0.2-1.1-0.4c-0.2-0.2-0.4-0.4-0.4-0.7
		c0-0.3,0.1-0.6,0.4-0.8c0.3-0.2,0.6-0.3,1.1-0.3c0.4,0,0.8,0.1,1.1,0.4c0.3,0.2,0.4,0.5,0.4,0.9l0,0h-0.7c0-0.2-0.1-0.3-0.2-0.5
		c-0.1-0.1-0.3-0.2-0.6-0.2c-0.3,0-0.4,0.1-0.6,0.2c-0.1,0.1-0.2,0.3-0.2,0.4c0,0.2,0.1,0.3,0.2,0.4c0.1,0.1,0.3,0.2,0.7,0.2
		c0.5,0.1,0.9,0.2,1.1,0.4c0.3,0.2,0.4,0.4,0.4,0.7c0,0.4-0.1,0.6-0.4,0.9c-0.3,0.2-0.7,0.3-1.1,0.3c-0.5,0-0.9-0.1-1.2-0.4
		c-0.3-0.3-0.4-0.6-0.4-0.9l0,0h0.7c0,0.3,0.1,0.4,0.3,0.6c0.2,0.1,0.4,0.2,0.6,0.2c0.3,0,0.5-0.1,0.6-0.2
		C302.3,43.9,302.4,43.8,302.4,43.6z"/>
	<path class="st2" d="M308.5,40.2L308.5,40.2c0,0.5-0.1,0.8-0.3,1c-0.2,0.2-0.6,0.4-1,0.4v3.1h-0.6v-0.6c-0.1,0.2-0.3,0.4-0.5,0.5
		s-0.4,0.2-0.7,0.2c-0.4,0-0.8-0.1-1-0.4c-0.2-0.3-0.4-0.7-0.4-1.3v-2.3h0.7v2.3c0,0.4,0.1,0.7,0.2,0.9c0.1,0.2,0.3,0.2,0.6,0.2
		c0.3,0,0.5-0.1,0.6-0.2c0.2-0.1,0.3-0.3,0.4-0.4v-2.8h0.7v0.4l0,0c0.2,0,0.4-0.1,0.5-0.3c0.1-0.2,0.2-0.4,0.2-0.7
		C307.9,40.2,308.5,40.2,308.5,40.2z M306,39.1h0.8l0,0l-1,0.9h-0.5L306,39.1z"/>
	<path class="st2" d="M310,44.2c0.2,0,0.4-0.1,0.6-0.2c0.2-0.1,0.2-0.3,0.2-0.5h0.6l0,0c0,0.3-0.1,0.6-0.4,0.9s-0.7,0.4-1.1,0.4
		c-0.6,0-1-0.2-1.3-0.6s-0.5-0.8-0.5-1.4v-0.2c0-0.6,0.2-1,0.5-1.4s0.7-0.6,1.3-0.6c0.4,0,0.8,0.1,1.1,0.4c0.3,0.3,0.4,0.6,0.4,1
		l0,0h-0.7c0-0.2-0.1-0.4-0.2-0.6c-0.2-0.2-0.4-0.3-0.6-0.3c-0.4,0-0.6,0.1-0.8,0.4c-0.2,0.3-0.2,0.6-0.2,1v0.2c0,0.4,0.1,0.7,0.2,1
		C309.4,44,309.6,44.2,310,44.2z"/>
	<path class="st2" d="M315.3,42.8h-0.4v1.8h-0.7v-5.7h0.7v3.3h0.4l1.2-1.6h0.9l-1.4,1.8l1.6,2.1h-0.9L315.3,42.8z"/>
	<path class="st2" d="M318.7,41.2c0.1-0.2,0.3-0.3,0.5-0.4c0.2-0.1,0.4-0.2,0.7-0.2c0.4,0,0.7,0.1,1,0.4c0.2,0.3,0.4,0.6,0.4,1.2
		v2.5h-0.7v-2.5c0-0.3-0.1-0.6-0.2-0.7c-0.1-0.2-0.3-0.2-0.6-0.2c-0.2,0-0.4,0-0.6,0.1s-0.3,0.2-0.4,0.4v3h-0.7v-5.7h0.7L318.7,41.2
		L318.7,41.2z"/>
	<path class="st2" d="M322.1,42.7c0-0.6,0.2-1.1,0.5-1.4c0.3-0.4,0.7-0.6,1.3-0.6c0.5,0,1,0.2,1.3,0.6s0.5,0.9,0.5,1.4v0.1
		c0,0.6-0.2,1.1-0.5,1.4c-0.3,0.4-0.7,0.6-1.3,0.6c-0.5,0-1-0.2-1.3-0.6C322.3,43.8,322.1,43.3,322.1,42.7L322.1,42.7z M322.8,42.7
		c0,0.4,0.1,0.8,0.3,1c0.2,0.3,0.4,0.4,0.8,0.4c0.3,0,0.6-0.1,0.8-0.4c0.2-0.3,0.3-0.6,0.3-1v-0.1c0-0.4-0.1-0.8-0.3-1
		c-0.2-0.3-0.4-0.4-0.8-0.4c-0.3,0-0.6,0.1-0.8,0.4C322.9,41.9,322.8,42.2,322.8,42.7L322.8,42.7z M323.6,40.1v-0.6
		c0.2,0,0.3,0,0.4-0.1c0.1,0,0.1-0.1,0.1-0.2c0-0.1-0.1-0.2-0.2-0.2s-0.2-0.1-0.4-0.1v-0.4c0.4,0,0.6,0.1,0.8,0.2
		c0.2,0.1,0.3,0.3,0.3,0.5c0,0.2-0.1,0.3-0.2,0.4s-0.2,0.1-0.4,0.2v0.3C324,40.1,323.6,40.1,323.6,40.1z"/>
	<path class="st2" d="M328.2,44.7c-0.6,0-1-0.2-1.3-0.5c-0.3-0.4-0.5-0.8-0.5-1.4v-0.2c0-0.6,0.2-1,0.5-1.4s0.7-0.6,1.2-0.6
		s0.9,0.2,1.2,0.5c0.3,0.3,0.4,0.8,0.4,1.3v0.4h-2.5l0,0c0,0.4,0.1,0.7,0.3,1c0.2,0.2,0.4,0.4,0.8,0.4c0.2,0,0.5,0,0.6-0.1
		c0.2-0.1,0.3-0.2,0.5-0.3l0.3,0.5c-0.1,0.1-0.3,0.3-0.6,0.3C328.8,44.7,328.5,44.7,328.2,44.7z M328,41.2c-0.3,0-0.5,0.1-0.6,0.3
		c-0.2,0.2-0.3,0.4-0.3,0.7l0,0h1.8v-0.1c0-0.3-0.1-0.5-0.2-0.7C328.6,41.3,328.3,41.2,328,41.2z"/>
</g>
<circle class="st1" cx="211.8" cy="75.8" r="3"/>
<g>
	<path class="st2" d="M141.2,78.8h-0.9l-3.1-4.9l0,0v4.9h-0.9v-6.4h0.9l3.1,4.9l0,0v-4.9h0.9V78.8z"/>
	<path class="st2" d="M143.4,74.6c0.2-0.2,0.4-0.4,0.6-0.5c0.2-0.1,0.5-0.2,0.8-0.2c0.5,0,0.9,0.2,1.2,0.5s0.4,0.8,0.4,1.4v3h-0.9
		v-3c0-0.4-0.1-0.7-0.3-0.9c-0.2-0.2-0.4-0.3-0.8-0.3c-0.3,0-0.5,0.1-0.7,0.2s-0.3,0.2-0.5,0.4v3.6h-0.9v-6.9h0.9v2.7H143.4z"/>
	<path class="st2" d="M150.7,78.1c-0.2,0.3-0.3,0.5-0.6,0.6c-0.2,0.1-0.5,0.2-0.8,0.2c-0.5,0-0.9-0.2-1.2-0.5s-0.4-0.9-0.4-1.6V74
		h0.9v2.8c0,0.5,0.1,0.9,0.2,1.1c0.2,0.2,0.4,0.3,0.7,0.3s0.6-0.1,0.8-0.2s0.4-0.3,0.5-0.5v-3.4h0.9v4.8h-0.8L150.7,78.1z"/>
	<path class="st2" d="M157,78.2c0.3,0,0.5-0.1,0.7-0.3c0.2-0.2,0.3-0.4,0.3-0.7h0.8l0,0c0,0.4-0.2,0.8-0.5,1.1
		c-0.4,0.3-0.8,0.5-1.3,0.5c-0.7,0-1.2-0.2-1.6-0.7c-0.4-0.5-0.5-1-0.5-1.7v-0.2c0-0.7,0.2-1.2,0.5-1.7c0.4-0.5,0.9-0.7,1.6-0.7
		c0.5,0,1,0.2,1.3,0.5s0.5,0.7,0.5,1.2l0,0H158c0-0.3-0.1-0.5-0.3-0.7s-0.4-0.3-0.7-0.3c-0.4,0-0.7,0.2-0.9,0.5s-0.3,0.7-0.3,1.2
		v0.2c0,0.5,0.1,0.9,0.3,1.2C156.2,78,156.5,78.2,157,78.2z"/>
	<path class="st2" d="M160.3,72.4h-0.6l-0.9-1.1h0.9L160.3,72.4z M162.7,78.8c0-0.1-0.1-0.3-0.1-0.4s0-0.2,0-0.3
		c-0.2,0.2-0.4,0.4-0.6,0.6s-0.5,0.2-0.8,0.2c-0.5,0-0.9-0.1-1.1-0.4c-0.3-0.3-0.4-0.6-0.4-1.1s0.2-0.8,0.6-1.1
		c0.4-0.3,0.9-0.4,1.5-0.4h0.9v-0.5c0-0.3-0.1-0.5-0.3-0.7s-0.4-0.2-0.7-0.2s-0.5,0.1-0.7,0.2s-0.3,0.3-0.3,0.5h-0.8l0,0
		c0-0.3,0.1-0.7,0.5-1c0.3-0.3,0.8-0.4,1.3-0.4s1,0.1,1.3,0.4s0.5,0.7,0.5,1.2v2.3c0,0.2,0,0.3,0,0.5s0,0.3,0.1,0.5h-0.9V78.8z
		 M163.3,73.2L163.3,73.2h-0.9l-0.7-0.7l-0.7,0.7h-0.9l0,0l1.3-1.1h0.7L163.3,73.2z M161.3,78.1c0.3,0,0.6-0.1,0.9-0.2
		c0.3-0.2,0.4-0.3,0.5-0.6v-0.7h-1c-0.4,0-0.6,0.1-0.8,0.3c-0.2,0.2-0.3,0.4-0.3,0.6s0.1,0.4,0.2,0.5S161,78.1,161.3,78.1z"/>
	<path class="st2" d="M167.8,78.1c-0.2,0.3-0.3,0.5-0.6,0.6c-0.2,0.1-0.5,0.2-0.8,0.2c-0.5,0-0.9-0.2-1.2-0.5s-0.4-0.9-0.4-1.6V74
		h0.9v2.8c0,0.5,0.1,0.9,0.2,1.1c0.2,0.2,0.4,0.3,0.7,0.3s0.6-0.1,0.8-0.2s0.4-0.3,0.5-0.5v-3.4h0.9v4.8H168L167.8,78.1z"/>
	<path class="st2" d="M176.3,76.6c0,0.7-0.2,1.2-0.5,1.7c-0.3,0.4-0.8,0.6-1.4,0.6c-0.3,0-0.6-0.1-0.8-0.2s-0.4-0.3-0.6-0.6
		l-0.1,0.6h-0.7v-6.9h0.9v2.8c0.2-0.2,0.3-0.4,0.6-0.5c0.2-0.1,0.5-0.2,0.8-0.2c0.6,0,1,0.2,1.4,0.7
		C176.1,75.1,176.3,75.7,176.3,76.6L176.3,76.6z M175.4,76.5c0-0.5-0.1-1-0.3-1.3s-0.5-0.5-0.9-0.5c-0.3,0-0.5,0.1-0.7,0.2
		s-0.3,0.3-0.4,0.5v2.1c0.1,0.2,0.3,0.4,0.4,0.6c0.2,0.1,0.4,0.2,0.7,0.2c0.4,0,0.7-0.1,0.9-0.4C175.3,77.4,175.4,77.1,175.4,76.5
		L175.4,76.5z"/>
	<path class="st2" d="M180.2,78.8c0-0.1-0.1-0.3-0.1-0.4s0-0.2,0-0.3c-0.2,0.2-0.4,0.4-0.6,0.6c-0.3,0.2-0.5,0.2-0.8,0.2
		c-0.5,0-0.9-0.1-1.1-0.4c-0.3-0.3-0.4-0.6-0.4-1.1s0.2-0.8,0.6-1.1c0.4-0.3,0.9-0.4,1.5-0.4h0.9v-0.5c0-0.3-0.1-0.5-0.3-0.7
		s-0.4-0.2-0.7-0.2s-0.5,0.1-0.7,0.2s-0.3,0.3-0.3,0.5h-0.8l0,0c0-0.3,0.1-0.7,0.5-1c0.3-0.3,0.8-0.4,1.3-0.4s1,0.1,1.3,0.4
		s0.5,0.7,0.5,1.2v2.3c0,0.2,0,0.3,0,0.5s0,0.3,0.1,0.5h-0.9V78.8z M178.8,78.1c0.3,0,0.6-0.1,0.9-0.2c0.3-0.2,0.4-0.3,0.5-0.6v-0.7
		h-1c-0.4,0-0.6,0.1-0.8,0.3c-0.2,0.2-0.3,0.4-0.3,0.6s0.1,0.4,0.2,0.5C178.3,78.1,178.5,78.1,178.8,78.1z M178.8,73.2v-0.7
		c0.2,0,0.4,0,0.5-0.1c0.1,0,0.1-0.1,0.1-0.2s-0.1-0.2-0.2-0.3c-0.1-0.1-0.3-0.1-0.5-0.1v-0.5c0.4,0,0.8,0.1,1,0.2
		c0.2,0.2,0.3,0.4,0.3,0.6s-0.1,0.4-0.2,0.5c-0.1,0.1-0.3,0.2-0.5,0.2v0.3L178.8,73.2L178.8,73.2z"/>
	<path class="st2" d="M182.1,76.3c0-0.7,0.2-1.3,0.6-1.7c0.4-0.5,0.9-0.7,1.6-0.7c0.7,0,1.2,0.2,1.6,0.7c0.4,0.5,0.6,1,0.6,1.7v0.1
		c0,0.7-0.2,1.3-0.6,1.7c-0.4,0.5-0.9,0.7-1.6,0.7c-0.7,0-1.2-0.2-1.6-0.7C182.3,77.7,182.1,77.2,182.1,76.3L182.1,76.3z
		 M182.9,76.4c0,0.5,0.1,0.9,0.3,1.3c0.2,0.3,0.5,0.5,1,0.5c0.4,0,0.7-0.2,0.9-0.5s0.3-0.7,0.3-1.3v-0.1c0-0.5-0.1-0.9-0.3-1.2
		c-0.2-0.3-0.5-0.5-1-0.5c-0.4,0-0.7,0.2-0.9,0.5C183.1,75.4,182.9,75.8,182.9,76.4L182.9,76.4z"/>
	<path class="st2" d="M191.3,77.4l0.1,0.3l0,0l0.1-0.3l1.1-3.4h0.9l-1.8,4.8H191l-1.8-4.8h0.9L191.3,77.4z"/>
	<path class="st2" d="M196.1,78.9c-0.7,0-1.2-0.2-1.6-0.7c-0.4-0.4-0.6-1-0.6-1.7v-0.2c0-0.7,0.2-1.3,0.6-1.7
		c0.4-0.4,0.9-0.7,1.5-0.7s1.1,0.2,1.4,0.6c0.3,0.4,0.5,0.9,0.5,1.6v0.5h-3.1l0,0c0,0.5,0.1,0.9,0.3,1.2c0.2,0.3,0.5,0.4,1,0.4
		c0.3,0,0.6,0,0.8-0.1s0.4-0.2,0.6-0.3l0.3,0.6c-0.2,0.2-0.4,0.3-0.7,0.4C196.9,78.8,196.5,78.9,196.1,78.9z M197.3,73L197.3,73
		l-0.7,0.1l-0.6-0.7l-0.6,0.7h-0.7V73l1.1-1h0.5L197.3,73z M196,74.6c-0.3,0-0.6,0.1-0.8,0.4c-0.2,0.2-0.3,0.5-0.4,0.9l0,0h2.2v-0.1
		c0-0.3-0.1-0.6-0.3-0.9C196.6,74.7,196.4,74.6,196,74.6z M196.5,80.3h-1v-0.9h1V80.3z"/>
</g>
<circle class="st1" cx="253.9" cy="92.5" r="3"/>
<circle class="st1" cx="232" cy="115.4" r="3"/>
<g>
	<path class="st2" d="M267.6,92.6v2.2h-0.7v-5.1h1.8c0.6,0,1,0.1,1.3,0.4s0.4,0.6,0.4,1.1c0,0.3-0.1,0.5-0.2,0.7s-0.3,0.4-0.6,0.5
		c0.3,0.1,0.5,0.2,0.6,0.4c0.1,0.2,0.2,0.5,0.2,0.8v0.5c0,0.2,0,0.3,0.1,0.4s0.1,0.2,0.2,0.3v0.1H270c-0.1-0.1-0.2-0.2-0.2-0.4
		s0-0.3,0-0.5v-0.5c0-0.3-0.1-0.5-0.2-0.7s-0.4-0.3-0.7-0.3L267.6,92.6L267.6,92.6z M267.6,92h1c0.4,0,0.7-0.1,0.9-0.2
		c0.2-0.1,0.3-0.4,0.3-0.7c0-0.3-0.1-0.5-0.3-0.7c-0.2-0.2-0.4-0.2-0.8-0.2h-1.1V92z"/>
	<path class="st2" d="M271.3,92.9c0-0.6,0.2-1,0.5-1.4s0.7-0.6,1.2-0.6s0.9,0.2,1.3,0.5c0.3,0.4,0.5,0.8,0.5,1.4v0.1
		c0,0.6-0.2,1-0.5,1.4s-0.7,0.5-1.3,0.5c-0.5,0-0.9-0.2-1.3-0.5C271.4,94,271.3,93.5,271.3,92.9L271.3,92.9z M272,92.9
		c0,0.4,0.1,0.7,0.3,1c0.2,0.3,0.4,0.4,0.8,0.4c0.3,0,0.6-0.1,0.8-0.4c0.2-0.3,0.3-0.6,0.3-1v-0.1c0-0.4-0.1-0.7-0.3-1
		c-0.2-0.3-0.4-0.4-0.8-0.4c-0.3,0-0.6,0.1-0.8,0.4C272.1,92.1,272,92.5,272,92.9L272,92.9z"/>
	<path class="st2" d="M278.8,93c0,0.6-0.1,1-0.4,1.3s-0.6,0.5-1.1,0.5c-0.3,0-0.5-0.1-0.7-0.2s-0.3-0.2-0.5-0.4l-0.1,0.5h-0.5v-5.5
		h0.7v2.1c0.1-0.2,0.3-0.3,0.4-0.4c0.2-0.1,0.4-0.1,0.6-0.1c0.5,0,0.8,0.2,1.1,0.6C278.7,91.9,278.8,92.4,278.8,93L278.8,93z
		 M278.1,93c0-0.4-0.1-0.8-0.2-1.1c-0.2-0.3-0.4-0.4-0.7-0.4c-0.2,0-0.4,0.1-0.5,0.2s-0.3,0.2-0.4,0.4v1.7c0.1,0.2,0.2,0.3,0.4,0.4
		c0.1,0.1,0.3,0.2,0.5,0.2c0.3,0,0.6-0.1,0.7-0.4C278.1,93.7,278.1,93.4,278.1,93L278.1,93z"/>
	<path class="st2" d="M279.5,92.9c0-0.6,0.2-1,0.5-1.4s0.7-0.6,1.2-0.6s0.9,0.2,1.3,0.5c0.3,0.4,0.5,0.8,0.5,1.4v0.1
		c0,0.6-0.2,1-0.5,1.4s-0.7,0.5-1.3,0.5s-0.9-0.2-1.3-0.5C279.7,94,279.5,93.5,279.5,92.9L279.5,92.9z M280.2,92.9
		c0,0.4,0.1,0.7,0.3,1c0.2,0.3,0.4,0.4,0.8,0.4c0.3,0,0.6-0.1,0.8-0.4c0.2-0.3,0.3-0.6,0.3-1v-0.1c0-0.4-0.1-0.7-0.3-1
		c-0.2-0.3-0.4-0.4-0.8-0.4c-0.3,0-0.6,0.1-0.8,0.4C280.3,92.1,280.2,92.5,280.2,92.9L280.2,92.9z"/>
	<path class="st2" d="M284.8,90.1V91h0.7v0.5h-0.7v2.3c0,0.2,0,0.3,0.1,0.4s0.2,0.1,0.3,0.1h0.1h0.1l0.1,0.5c-0.1,0-0.1,0.1-0.2,0.1
		s-0.2,0-0.3,0c-0.3,0-0.5-0.1-0.7-0.3c-0.2-0.2-0.3-0.4-0.3-0.8v-2.3h-0.6V91h0.6v-0.9C284,90.1,284.8,90.1,284.8,90.1z"/>
	<path class="st2" d="M289.6,94.3c0.2,0,0.4-0.1,0.6-0.2s0.2-0.3,0.2-0.5h0.6l0,0c0,0.3-0.1,0.6-0.4,0.9s-0.6,0.4-1,0.4
		c-0.5,0-1-0.2-1.2-0.5c-0.3-0.4-0.4-0.8-0.4-1.4v-0.1c0-0.5,0.1-1,0.4-1.4s0.7-0.6,1.2-0.6c0.4,0,0.8,0.1,1,0.4
		c0.3,0.3,0.4,0.6,0.4,1l0,0h-0.6c0-0.2-0.1-0.4-0.2-0.6c-0.2-0.2-0.3-0.2-0.6-0.2c-0.3,0-0.6,0.1-0.7,0.4s-0.2,0.6-0.2,1V93
		c0,0.4,0.1,0.7,0.2,1C289,94.2,289.2,94.3,289.6,94.3z"/>
	<path class="st2" d="M292.5,91.5c0.1-0.2,0.3-0.3,0.5-0.4s0.4-0.2,0.6-0.2c0.4,0,0.7,0.1,1,0.4c0.2,0.2,0.3,0.6,0.3,1.1v2.4h-0.7
		v-2.4c0-0.3-0.1-0.5-0.2-0.7s-0.3-0.2-0.6-0.2c-0.2,0-0.4,0-0.5,0.1c-0.2,0.1-0.3,0.2-0.4,0.3v2.9h-0.7v-5.5h0.7L292.5,91.5
		L292.5,91.5z"/>
	<path class="st2" d="M295.8,92.9c0-0.6,0.2-1,0.5-1.4s0.7-0.6,1.2-0.6s0.9,0.2,1.3,0.5c0.3,0.4,0.5,0.8,0.5,1.4v0.1
		c0,0.6-0.2,1-0.5,1.4s-0.7,0.5-1.3,0.5c-0.5,0-0.9-0.2-1.3-0.5C296,94,295.8,93.5,295.8,92.9L295.8,92.9z M296.5,92.9
		c0,0.4,0.1,0.7,0.3,1c0.2,0.3,0.4,0.4,0.8,0.4c0.3,0,0.6-0.1,0.8-0.4c0.2-0.3,0.3-0.6,0.3-1v-0.1c0-0.4-0.1-0.7-0.3-1
		c-0.2-0.3-0.4-0.4-0.8-0.4c-0.3,0-0.6,0.1-0.8,0.4C296.6,92.1,296.5,92.5,296.5,92.9L296.5,92.9z M297.9,96h-0.8v-0.7h0.8V96z"/>
	<path class="st2" d="M300.7,91v0.6c0.1-0.2,0.3-0.4,0.5-0.5s0.4-0.2,0.7-0.2c0.4,0,0.7,0.1,1,0.4c0.2,0.2,0.3,0.6,0.3,1.1v2.4h-0.7
		v-2.4c0-0.3-0.1-0.6-0.2-0.7s-0.3-0.2-0.6-0.2c-0.2,0-0.4,0-0.5,0.1s-0.3,0.2-0.4,0.4v2.8h-0.7V91C300.1,91,300.7,91,300.7,91z"/>
	<path class="st2" d="M308.2,93.8c0-0.2-0.1-0.3-0.2-0.4s-0.3-0.2-0.7-0.3c-0.5-0.1-0.8-0.2-1-0.4c-0.2-0.2-0.4-0.4-0.4-0.7
		c0-0.3,0.1-0.6,0.4-0.8c0.3-0.2,0.6-0.3,1-0.3s0.8,0.1,1.1,0.4c0.3,0.2,0.4,0.5,0.4,0.8l0,0h-0.7c0-0.2-0.1-0.3-0.2-0.4
		s-0.3-0.2-0.5-0.2s-0.4,0.1-0.5,0.2s-0.2,0.2-0.2,0.4c0,0.2,0.1,0.3,0.2,0.4s0.3,0.2,0.6,0.2c0.5,0.1,0.8,0.2,1.1,0.4
		c0.2,0.2,0.4,0.4,0.4,0.7c0,0.3-0.1,0.6-0.4,0.8c-0.3,0.2-0.6,0.3-1.1,0.3s-0.9-0.1-1.2-0.4c-0.3-0.2-0.4-0.5-0.4-0.9l0,0h0.7
		c0,0.2,0.1,0.4,0.3,0.5c0.2,0.1,0.4,0.2,0.6,0.2s0.4-0.1,0.6-0.2C308.2,94.1,308.2,93.9,308.2,93.8z"/>
	<path class="st2" d="M312.1,94.8c0-0.1,0-0.2-0.1-0.3c0-0.1,0-0.2,0-0.3c-0.1,0.2-0.3,0.3-0.5,0.5c-0.2,0.1-0.4,0.2-0.7,0.2
		c-0.4,0-0.7-0.1-0.9-0.3c-0.2-0.2-0.3-0.5-0.3-0.8c0-0.4,0.1-0.7,0.4-0.9c0.3-0.2,0.7-0.3,1.2-0.3h0.8v-0.4c0-0.2-0.1-0.4-0.2-0.5
		s-0.3-0.2-0.6-0.2c-0.2,0-0.4,0.1-0.5,0.2s-0.2,0.2-0.2,0.4h-0.7l0,0c0-0.3,0.1-0.5,0.4-0.8c0.3-0.2,0.6-0.3,1.1-0.3
		c0.4,0,0.8,0.1,1,0.3c0.3,0.2,0.4,0.5,0.4,1v1.8c0,0.1,0,0.3,0,0.4s0,0.3,0.1,0.4L312.1,94.8L312.1,94.8z M311,94.3
		c0.3,0,0.5-0.1,0.7-0.2s0.3-0.3,0.4-0.4v-0.6h-0.8c-0.3,0-0.5,0.1-0.7,0.2s-0.3,0.3-0.3,0.5s0.1,0.3,0.2,0.4S310.8,94.3,311,94.3z
		 M311,90.4v-0.5c0.2,0,0.3,0,0.4-0.1c0.1,0,0.1-0.1,0.1-0.2s-0.1-0.2-0.2-0.2s-0.2-0.1-0.4-0.1v-0.4c0.3,0,0.6,0.1,0.8,0.2
		c0.2,0.1,0.3,0.3,0.3,0.5s-0.1,0.3-0.2,0.4s-0.2,0.1-0.4,0.2v0.3H311V90.4z"/>
	<path class="st2" d="M314.4,91v0.6c0.1-0.2,0.3-0.4,0.5-0.5s0.4-0.2,0.7-0.2c0.4,0,0.7,0.1,1,0.4c0.2,0.2,0.3,0.6,0.3,1.1v2.4h-0.7
		v-2.4c0-0.3-0.1-0.6-0.2-0.7s-0.3-0.2-0.6-0.2c-0.2,0-0.4,0-0.5,0.1s-0.3,0.2-0.4,0.4v2.8h-0.7V91C313.8,91,314.4,91,314.4,91z"/>
	<path class="st2" d="M322.9,93c0,0.6-0.1,1-0.4,1.3s-0.6,0.5-1.1,0.5c-0.2,0-0.4,0-0.6-0.1s-0.3-0.2-0.5-0.4v1.9h-0.6v-5.3h0.5
		l0.1,0.5c0.1-0.2,0.3-0.3,0.5-0.4s0.4-0.1,0.7-0.1c0.5,0,0.8,0.2,1.1,0.6C322.8,91.9,322.9,92.4,322.9,93L322.9,93z M322.3,93
		c0-0.4-0.1-0.8-0.3-1.1c-0.2-0.3-0.4-0.4-0.8-0.4c-0.2,0-0.4,0-0.5,0.1s-0.3,0.2-0.3,0.4v1.9c0.1,0.2,0.2,0.3,0.3,0.4
		s0.3,0.1,0.5,0.1c0.3,0,0.6-0.1,0.7-0.4C322.2,93.7,322.3,93.4,322.3,93L322.3,93z"/>
	<path class="st2" d="M324.5,91.5c0.1-0.2,0.3-0.3,0.5-0.4s0.4-0.2,0.6-0.2c0.4,0,0.7,0.1,1,0.4c0.2,0.2,0.3,0.6,0.3,1.1v2.4h-0.7
		v-2.4c0-0.3-0.1-0.5-0.2-0.7s-0.3-0.2-0.6-0.2c-0.2,0-0.4,0-0.5,0.1c-0.2,0.1-0.3,0.2-0.4,0.3v2.9h-0.7v-5.5h0.7L324.5,91.5
		L324.5,91.5z"/>
	<path class="st2" d="M330.3,94.8c0-0.1,0-0.2-0.1-0.3c0-0.1,0-0.2,0-0.3c-0.1,0.2-0.3,0.3-0.5,0.5c-0.2,0.1-0.4,0.2-0.7,0.2
		c-0.4,0-0.7-0.1-0.9-0.3c-0.2-0.2-0.3-0.5-0.3-0.8c0-0.4,0.1-0.7,0.4-0.9c0.3-0.2,0.7-0.3,1.2-0.3h0.8v-0.4c0-0.2-0.1-0.4-0.2-0.5
		s-0.3-0.2-0.6-0.2c-0.2,0-0.4,0.1-0.5,0.2s-0.2,0.2-0.2,0.4H328l0,0c0-0.3,0.1-0.5,0.4-0.8c0.3-0.2,0.6-0.3,1.1-0.3
		c0.4,0,0.8,0.1,1,0.3c0.3,0.2,0.4,0.5,0.4,1v1.8c0,0.1,0,0.3,0,0.4s0,0.3,0.1,0.4L330.3,94.8L330.3,94.8z M329.7,89.5H329l-0.9,0.9
		l0,0h0.6l0.7-0.7l0.7,0.7h0.6l0,0L329.7,89.5z M329.1,94.3c0.3,0,0.5-0.1,0.7-0.2s0.3-0.3,0.4-0.4v-0.6h-0.8
		c-0.3,0-0.5,0.1-0.7,0.2s-0.3,0.3-0.3,0.5s0.1,0.3,0.2,0.4C328.8,94.3,328.9,94.3,329.1,94.3z M330.6,89.9v-0.5
		c0.2,0,0.3,0,0.3-0.1c0.1,0,0.1-0.1,0.1-0.2s0-0.1-0.1-0.2c-0.1,0-0.2-0.1-0.4-0.1v-0.3c0.3,0,0.5,0.1,0.7,0.2s0.2,0.2,0.2,0.4
		c0,0.1,0,0.3-0.1,0.3c-0.1,0.1-0.2,0.1-0.3,0.1v0.2h-0.4V89.9z"/>
	<path class="st2" d="M332.5,91v0.5c0.1-0.2,0.3-0.3,0.5-0.4s0.4-0.2,0.7-0.2c0.3,0,0.5,0.1,0.7,0.2s0.3,0.3,0.4,0.5
		c0.1-0.2,0.3-0.4,0.5-0.5s0.4-0.2,0.7-0.2c0.4,0,0.7,0.1,0.9,0.4c0.2,0.3,0.3,0.7,0.3,1.2v2.3h-0.7v-2.3c0-0.4-0.1-0.6-0.2-0.8
		c-0.1-0.2-0.3-0.2-0.6-0.2c-0.2,0-0.4,0.1-0.6,0.2c-0.1,0.2-0.2,0.4-0.3,0.6l0,0v2.4h-0.7v-2.3c0-0.4-0.1-0.6-0.2-0.8
		c-0.1-0.2-0.3-0.2-0.6-0.2c-0.2,0-0.4,0-0.5,0.1s-0.2,0.2-0.3,0.4v2.8h-0.7v-3.8h0.7V91z"/>
</g>
<g>
	<path class="st3" d="M143.5,142.8v4.3h-1.7v-10.5h3.6c1.2,0,2.1,0.3,2.7,0.8s1,1.3,1,2.3c0,0.5-0.1,1-0.4,1.4
		c-0.3,0.4-0.7,0.7-1.2,0.9c0.6,0.2,1,0.5,1.3,0.9s0.4,0.9,0.4,1.6v0.9c0,0.3,0,0.6,0.1,0.9c0.1,0.3,0.2,0.5,0.4,0.7v0.2h-1.8
		c-0.2-0.2-0.3-0.4-0.4-0.7c-0.1-0.3-0.1-0.7-0.1-1v-0.8c0-0.5-0.2-1-0.5-1.3s-0.7-0.5-1.3-0.5L143.5,142.8L143.5,142.8z
		 M143.5,141.4h1.8c0.7,0,1.2-0.1,1.5-0.4c0.3-0.3,0.5-0.7,0.5-1.2s-0.2-0.9-0.5-1.2s-0.8-0.4-1.4-0.4h-1.9L143.5,141.4L143.5,141.4
		z"/>
	<path class="st3" d="M150.6,143.2c0-1.2,0.3-2.1,1-2.8c0.6-0.7,1.5-1.1,2.6-1.1s2,0.4,2.6,1.1c0.6,0.7,1,1.7,1,2.8v0.2
		c0,1.2-0.3,2.1-1,2.9c-0.6,0.7-1.5,1.1-2.6,1.1s-2-0.4-2.6-1.1s-1-1.7-1-2.9V143.2z M152.4,143.3c0,0.8,0.1,1.4,0.4,1.9
		c0.3,0.5,0.8,0.7,1.4,0.7c0.6,0,1.1-0.2,1.4-0.7s0.5-1.1,0.5-1.8v-0.2c0-0.7-0.2-1.4-0.5-1.8c-0.3-0.5-0.8-0.7-1.4-0.7
		c-0.6,0-1.1,0.2-1.4,0.7c-0.3,0.5-0.4,1.1-0.4,1.8V143.3z"/>
	<path class="st3" d="M166.1,143.5c0,1.1-0.3,2-0.8,2.7s-1.3,1-2.2,1c-0.5,0-0.9-0.1-1.3-0.3c-0.4-0.2-0.7-0.5-0.9-0.9l-0.2,1h-1.4
		v-11.1h1.7v4.3c0.2-0.3,0.5-0.6,0.9-0.8c0.3-0.2,0.7-0.3,1.2-0.3c1,0,1.7,0.4,2.3,1.1c0.5,0.8,0.8,1.8,0.8,3v0.3H166.1z
		 M164.3,143.4c0-0.8-0.1-1.5-0.4-2c-0.3-0.5-0.7-0.7-1.3-0.7c-0.4,0-0.7,0.1-1,0.3s-0.5,0.4-0.6,0.7v3.3c0.1,0.3,0.4,0.6,0.6,0.7
		s0.6,0.3,1,0.3c0.6,0,1-0.2,1.3-0.6c0.3-0.4,0.4-1,0.4-1.7V143.4z"/>
	<path class="st3" d="M167.3,143.2c0-1.2,0.3-2.1,1-2.8c0.6-0.7,1.5-1.1,2.6-1.1s2,0.4,2.6,1.1c0.6,0.7,1,1.7,1,2.8v0.2
		c0,1.2-0.3,2.1-1,2.9c-0.6,0.7-1.5,1.1-2.6,1.1s-2-0.4-2.6-1.1s-1-1.7-1-2.9V143.2z M169,143.3c0,0.8,0.1,1.4,0.4,1.9
		c0.3,0.5,0.8,0.7,1.4,0.7c0.6,0,1.1-0.2,1.4-0.7s0.5-1.1,0.5-1.8v-0.2c0-0.7-0.2-1.4-0.5-1.8c-0.3-0.5-0.8-0.7-1.4-0.7
		c-0.6,0-1.1,0.2-1.4,0.7c-0.3,0.5-0.4,1.1-0.4,1.8V143.3z"/>
	<path class="st3" d="M178.2,137.5v1.9h1.4v1.3h-1.4v4.3c0,0.3,0.1,0.5,0.2,0.7c0.1,0.1,0.3,0.2,0.6,0.2c0.1,0,0.2,0,0.3,0
		s0.2,0,0.3-0.1l0.2,1.3c-0.1,0.1-0.3,0.1-0.5,0.2c-0.2,0-0.4,0.1-0.6,0.1c-0.6,0-1.1-0.2-1.5-0.6c-0.4-0.4-0.5-1-0.5-1.8v-4.3h-1.2
		v-1.3h1.2v-1.9L178.2,137.5L178.2,137.5z"/>
	<path class="st3" d="M186.9,137.5v1.9h1.4v1.3h-1.4v4.3c0,0.3,0.1,0.5,0.2,0.7c0.1,0.1,0.3,0.2,0.6,0.2c0.1,0,0.2,0,0.3,0
		s0.2,0,0.3-0.1l0.2,1.3c-0.1,0.1-0.3,0.1-0.5,0.2c-0.2,0-0.4,0.1-0.6,0.1c-0.6,0-1.1-0.2-1.5-0.6c-0.4-0.4-0.5-1-0.5-1.8v-4.3h-1.2
		v-1.3h1.2v-1.9L186.9,137.5L186.9,137.5z"/>
	<path class="st3" d="M198.7,138.5L198.7,138.5c0,0.9-0.2,1.5-0.6,2c-0.4,0.5-1.1,0.7-2,0.8v5.8h-1.5l-0.2-1.1
		c-0.2,0.4-0.5,0.7-0.9,1c-0.4,0.2-0.8,0.3-1.3,0.3c-0.8,0-1.5-0.3-2-0.8s-0.7-1.4-0.7-2.6v-4.5h1.7v4.6c0,0.7,0.1,1.3,0.3,1.5
		c0.2,0.3,0.6,0.4,1,0.4s0.8-0.1,1.1-0.2c0.3-0.2,0.5-0.4,0.7-0.7v-5.6h1.7v0.9l0,0c0.4,0,0.8-0.2,0.9-0.5c0.2-0.3,0.3-0.7,0.3-1.3
		L198.7,138.5L198.7,138.5z"/>
	<path class="st3" d="M204.6,144.5l0.1,0.6l0,0l0.1-0.6l1.5-5.1h1.8l-2.8,7.8h-1.5l-2.8-7.8h1.8L204.6,144.5z"/>
	<path class="st3" d="M213.9,147.1c-0.1-0.2-0.1-0.4-0.2-0.6c0-0.2-0.1-0.4-0.1-0.6c-0.2,0.4-0.5,0.7-0.9,0.9s-0.8,0.4-1.3,0.4
		c-0.8,0-1.4-0.2-1.9-0.6c-0.4-0.4-0.6-1-0.6-1.7c0-0.8,0.3-1.3,0.9-1.8c0.6-0.4,1.4-0.6,2.5-0.6h1.4v-0.6c0-0.4-0.1-0.7-0.4-1
		c-0.2-0.2-0.6-0.3-1-0.3s-0.7,0.1-0.9,0.3s-0.4,0.4-0.4,0.7h-1.7l0,0c0-0.6,0.2-1.2,0.8-1.6c0.6-0.5,1.3-0.7,2.3-0.7
		c0.9,0,1.6,0.2,2.2,0.7c0.6,0.5,0.8,1.1,0.8,2v3.5c0,0.3,0,0.6,0.1,0.9c0,0.3,0.1,0.6,0.2,0.9h-1.8V147.1z M211.5,136.2h1.4
		l2.1,1.8l0,0h-1.6l-1.1-1.1l-1.1,1.1h-1.6l0,0L211.5,136.2z M211.7,145.9c0.4,0,0.8-0.1,1.2-0.3s0.6-0.5,0.7-0.8v-1.1h-1.4
		c-0.5,0-0.9,0.1-1.2,0.4c-0.3,0.3-0.4,0.5-0.4,0.9c0,0.3,0.1,0.5,0.3,0.7C211.1,145.8,211.4,145.9,211.7,145.9z M215.5,134.9h1.7
		l-1.5,1.9h-1.3L215.5,134.9z"/>
	<path class="st3" d="M218.8,139.4l0.1,1.1c0.3-0.4,0.6-0.7,1-0.9s0.8-0.3,1.3-0.3c0.8,0,1.4,0.2,1.9,0.7s0.7,1.3,0.7,2.3v4.8h-1.7
		v-4.8c0-0.6-0.1-1-0.4-1.3c-0.2-0.3-0.6-0.4-1.1-0.4c-0.4,0-0.7,0.1-1,0.2c-0.3,0.1-0.5,0.3-0.7,0.6v5.7h-1.7v-7.8L218.8,139.4
		L218.8,139.4z"/>
	<path class="st3" d="M231.4,137.5v1.9h1.4v1.3h-1.4v4.3c0,0.3,0.1,0.5,0.2,0.7c0.1,0.1,0.3,0.2,0.6,0.2c0.1,0,0.2,0,0.3,0
		s0.2,0,0.3-0.1l0.2,1.3c-0.1,0.1-0.3,0.1-0.5,0.2c-0.2,0-0.4,0.1-0.6,0.1c-0.6,0-1.1-0.2-1.5-0.6c-0.4-0.4-0.5-1-0.5-1.8v-4.3h-1.2
		v-1.3h1.2v-1.9L231.4,137.5L231.4,137.5z"/>
	<path class="st3" d="M236,140.4c0.3-0.4,0.6-0.6,0.9-0.8s0.8-0.3,1.2-0.3c0.8,0,1.5,0.3,1.9,0.8c0.5,0.5,0.7,1.3,0.7,2.4v4.7H239
		v-4.7c0-0.6-0.1-1-0.4-1.3c-0.2-0.3-0.6-0.4-1.1-0.4c-0.4,0-0.7,0.1-1,0.2c-0.3,0.1-0.5,0.3-0.7,0.5v5.7h-1.7v-11.3h1.7v4.5H236z"
		/>
	<path class="st3" d="M242.2,143.2c0-1.2,0.3-2.1,1-2.8c0.6-0.7,1.5-1.1,2.6-1.1s2,0.4,2.6,1.1c0.6,0.7,1,1.7,1,2.8v0.2
		c0,1.2-0.3,2.1-1,2.9c-0.6,0.7-1.5,1.1-2.6,1.1s-2-0.4-2.6-1.1c-0.6-0.7-1-1.7-1-2.9V143.2z M248.2,137.8v0.2h-1.4l-1-1l-1,1h-1.4
		v-0.2l1.9-1.7h1L248.2,137.8z M244,143.3c0,0.8,0.1,1.4,0.4,1.9s0.8,0.7,1.4,0.7s1.1-0.2,1.4-0.7s0.5-1.1,0.5-1.8v-0.2
		c0-0.7-0.2-1.4-0.5-1.8c-0.3-0.5-0.8-0.7-1.4-0.7s-1.1,0.2-1.4,0.7s-0.4,1.1-0.4,1.8V143.3z"/>
	<path class="st3" d="M252.5,139.4l0.1,1.1c0.3-0.4,0.6-0.7,1-0.9s0.8-0.3,1.3-0.3c0.8,0,1.4,0.2,1.9,0.7s0.7,1.3,0.7,2.3v4.8h-1.7
		v-4.8c0-0.6-0.1-1-0.4-1.3c-0.2-0.3-0.6-0.4-1.1-0.4c-0.4,0-0.7,0.1-1,0.2c-0.3,0.1-0.5,0.3-0.7,0.6v5.7h-1.7v-7.8L252.5,139.4
		L252.5,139.4z"/>
	<path class="st3" d="M258.9,143.4c0-1.2,0.3-2.2,0.8-3s1.3-1.1,2.2-1.1c0.5,0,0.9,0.1,1.2,0.3c0.4,0.2,0.7,0.5,0.9,0.9l0.2-1h1.5
		v7.8c0,1-0.3,1.8-0.9,2.3s-1.5,0.8-2.6,0.8c-0.4,0-0.8-0.1-1.2-0.2c-0.4-0.1-0.8-0.3-1.2-0.4l0.3-1.4c0.3,0.1,0.6,0.3,1,0.3
		c0.4,0.1,0.7,0.1,1.1,0.1c0.6,0,1.1-0.1,1.4-0.4c0.3-0.3,0.4-0.7,0.4-1.2v-0.8c-0.2,0.3-0.5,0.5-0.9,0.7c-0.3,0.2-0.7,0.2-1.1,0.2
		c-1,0-1.7-0.3-2.2-1s-0.8-1.6-0.8-2.7L258.9,143.4L258.9,143.4z M260.7,143.5c0,0.7,0.1,1.3,0.4,1.7s0.7,0.6,1.3,0.6
		c0.4,0,0.7-0.1,0.9-0.2c0.3-0.2,0.5-0.4,0.6-0.7v-3.4c-0.2-0.3-0.4-0.5-0.6-0.7c-0.3-0.2-0.6-0.2-0.9-0.2c-0.6,0-1,0.3-1.3,0.8
		S260.7,142.6,260.7,143.5L260.7,143.5z"/>
	<path class="st3" d="M272.8,139.4l0.1,1c0.3-0.4,0.6-0.7,1-0.9s0.8-0.3,1.3-0.3s0.9,0.1,1.3,0.3s0.6,0.6,0.8,1
		c0.2-0.4,0.6-0.8,0.9-1c0.4-0.2,0.9-0.4,1.4-0.4c0.8,0,1.4,0.3,1.8,0.8c0.5,0.5,0.7,1.4,0.7,2.5v4.6h-1.7v-4.6
		c0-0.7-0.1-1.2-0.3-1.4c-0.2-0.3-0.6-0.4-1-0.4s-0.7,0.1-0.9,0.3c-0.3,0.2-0.4,0.5-0.6,0.8c0,0.1,0,0.1,0,0.2c0,0.1,0,0.1,0,0.2v5
		h-1.7v-4.6c0-0.7-0.1-1.1-0.3-1.4c-0.2-0.3-0.6-0.4-1-0.4s-0.7,0.1-0.9,0.2c-0.2,0.1-0.4,0.3-0.6,0.6v5.7h-1.7v-7.8L272.8,139.4
		L272.8,139.4z"/>
	<path class="st3" d="M285.9,137.5h-1.7v-1.6h1.7V137.5z M285.9,147.1h-1.7v-7.8h1.7V147.1z"/>
	<path class="st3" d="M289.4,139.4l0.1,1.1c0.3-0.4,0.6-0.7,1-0.9s0.8-0.3,1.3-0.3c0.8,0,1.4,0.2,1.9,0.7s0.7,1.3,0.7,2.3v4.8h-1.8
		v-4.8c0-0.6-0.1-1-0.4-1.3c-0.2-0.3-0.6-0.4-1.1-0.4c-0.4,0-0.7,0.1-1,0.2c-0.3,0.1-0.5,0.3-0.7,0.6v5.7h-1.7v-7.8L289.4,139.4
		L289.4,139.4z"/>
	<path class="st3" d="M297.9,140.4c0.3-0.4,0.6-0.6,0.9-0.8s0.8-0.3,1.2-0.3c0.8,0,1.5,0.3,1.9,0.8c0.5,0.5,0.7,1.3,0.7,2.4v4.7
		h-1.7v-4.7c0-0.6-0.1-1-0.4-1.3c-0.2-0.3-0.6-0.4-1.1-0.4c-0.4,0-0.7,0.1-1,0.2c-0.3,0.1-0.5,0.3-0.7,0.5v5.7H296v-11.3h1.7v4.5
		H297.9z"/>
</g>
<g>
	<g>
		<path class="st1" d="M178,167L178,167l2.3-5.7h1.2v7h-0.9v-5.2l0,0l-2.1,5.2h-0.7l-2.2-5.4l0,0v5.4h-0.9v-7h1.2L178,167z"/>
		<path class="st1" d="M186.2,168.3c0-0.2-0.1-0.3-0.1-0.4s0-0.2,0-0.4c-0.2,0.2-0.4,0.5-0.7,0.6s-0.6,0.3-0.9,0.3
			c-0.5,0-1-0.1-1.2-0.4s-0.4-0.7-0.4-1.1c0-0.5,0.2-0.9,0.6-1.2c0.4-0.3,0.9-0.4,1.6-0.4h1v-0.5c0-0.3-0.1-0.5-0.3-0.7
			s-0.4-0.3-0.8-0.3c-0.3,0-0.6,0.1-0.7,0.2s-0.3,0.3-0.3,0.6h-0.9l0,0c0-0.4,0.2-0.7,0.5-1s0.9-0.5,1.5-0.5s1.1,0.1,1.4,0.4
			c0.4,0.3,0.5,0.7,0.5,1.3v2.5c0,0.2,0,0.4,0,0.5s0.1,0.3,0.1,0.5L186.2,168.3L186.2,168.3z M184.6,167.6c0.3,0,0.7-0.1,0.9-0.3
			s0.5-0.4,0.5-0.6v-0.8h-1.1c-0.4,0-0.7,0.1-0.9,0.3s-0.3,0.4-0.3,0.7c0,0.2,0.1,0.4,0.2,0.5S184.3,167.6,184.6,167.6z"/>
		<path class="st1" d="M189.2,163.1l0.1,0.8c0.2-0.3,0.4-0.5,0.7-0.6s0.6-0.2,0.9-0.2c0.6,0,1,0.2,1.3,0.5s0.5,0.8,0.5,1.5v3.3h-0.9
			v-3.3c0-0.5-0.1-0.8-0.3-1s-0.5-0.3-0.8-0.3s-0.5,0.1-0.7,0.2c-0.2,0.1-0.4,0.3-0.5,0.5v3.9h-0.9v-5.2L189.2,163.1L189.2,163.1z"
			/>
		<path class="st1" d="M193.8,165.8c0-0.8,0.2-1.5,0.5-2c0.4-0.5,0.9-0.8,1.5-0.8c0.3,0,0.6,0.1,0.9,0.2s0.5,0.3,0.6,0.6l0.1-0.7
			h0.8v5.2c0,0.7-0.2,1.2-0.6,1.5s-0.9,0.5-1.7,0.5c-0.2,0-0.5,0-0.8-0.1s-0.5-0.2-0.8-0.3l0.1-0.7c0.2,0.1,0.4,0.2,0.7,0.2
			c0.3,0.1,0.5,0.1,0.8,0.1c0.5,0,0.8-0.1,1-0.3s0.3-0.5,0.3-1v-0.6c-0.2,0.2-0.4,0.4-0.6,0.5c-0.2,0.1-0.5,0.2-0.8,0.2
			c-0.6,0-1.1-0.2-1.5-0.7S193.8,166.5,193.8,165.8L193.8,165.8z M194.7,165.9c0,0.5,0.1,0.9,0.3,1.3c0.2,0.3,0.5,0.5,1,0.5
			c0.3,0,0.5-0.1,0.7-0.2s0.4-0.3,0.5-0.5v-2.4c-0.1-0.2-0.3-0.4-0.5-0.5s-0.4-0.2-0.7-0.2c-0.5,0-0.8,0.2-1,0.6
			c-0.2,0.4-0.3,0.9-0.3,1.5V165.9z"/>
		<path class="st1" d="M207.1,162.4h-0.9v5.9h-0.7l-0.1-0.7c-0.2,0.2-0.4,0.4-0.6,0.6c-0.2,0.1-0.5,0.2-0.9,0.2
			c-0.6,0-1.1-0.2-1.5-0.7s-0.5-1.1-0.5-1.8v-0.1c0-0.8,0.2-1.5,0.5-2c0.4-0.5,0.9-0.8,1.5-0.8c0.3,0,0.6,0.1,0.8,0.2
			s0.4,0.3,0.6,0.5v-1.3h-1.2v-0.7h1.2v-0.8h0.9v0.8h0.9V162.4z M202.7,165.9c0,0.5,0.1,0.9,0.3,1.3s0.5,0.5,1,0.5
			c0.3,0,0.5-0.1,0.7-0.2c0.2-0.1,0.3-0.3,0.5-0.5v-2.4c-0.1-0.2-0.3-0.4-0.5-0.5s-0.4-0.2-0.7-0.2c-0.5,0-0.8,0.2-1,0.6
			c-0.2,0.4-0.3,0.9-0.3,1.5V165.9z"/>
		<path class="st1" d="M209.7,168.4c-0.7,0-1.3-0.2-1.7-0.7s-0.6-1.1-0.6-1.9v-0.2c0-0.7,0.2-1.4,0.6-1.9c0.4-0.5,1-0.7,1.6-0.7
			c0.7,0,1.2,0.2,1.6,0.6s0.5,1,0.5,1.7v0.5h-3.3l0,0c0,0.5,0.1,0.9,0.3,1.3c0.2,0.3,0.6,0.5,1.1,0.5c0.3,0,0.6,0,0.8-0.1
			s0.4-0.2,0.6-0.4l0.4,0.6c-0.2,0.2-0.4,0.3-0.7,0.5S210.2,168.4,209.7,168.4z M209.1,160.9h0.8l1.4,1.2l0,0h-1l-0.8-0.8l-0.8,0.8
			h-1l0,0L209.1,160.9z M209.6,163.7c-0.3,0-0.6,0.1-0.8,0.4c-0.2,0.3-0.3,0.6-0.4,1l0,0h2.3V165c0-0.4-0.1-0.7-0.3-0.9
			C210.3,163.8,210,163.7,209.6,163.7z M211.6,160h1l-1,1.2h-0.7L211.6,160z"/>
		<path class="st1" d="M213.6,163.1l0.1,0.8c0.2-0.3,0.4-0.5,0.7-0.6c0.3-0.2,0.6-0.2,0.9-0.2c0.6,0,1,0.2,1.3,0.5s0.5,0.8,0.5,1.5
			v3.3h-0.9v-3.3c0-0.5-0.1-0.8-0.3-1s-0.5-0.3-0.8-0.3s-0.5,0.1-0.7,0.2c-0.2,0.1-0.4,0.3-0.5,0.5v3.9H213v-5.2L213.6,163.1
			L213.6,163.1z"/>
		<path class="st1" d="M223.8,166.9c0-0.2-0.1-0.4-0.2-0.5c-0.2-0.1-0.5-0.2-0.9-0.3c-0.6-0.1-1.1-0.3-1.4-0.6
			c-0.3-0.2-0.5-0.6-0.5-1s0.2-0.8,0.5-1.1c0.4-0.3,0.8-0.5,1.4-0.5c0.6,0,1.1,0.2,1.4,0.5c0.4,0.3,0.5,0.7,0.5,1.1l0,0h-0.9
			c0-0.2-0.1-0.4-0.3-0.6c-0.2-0.2-0.4-0.3-0.7-0.3s-0.6,0.1-0.7,0.2c-0.2,0.2-0.2,0.3-0.2,0.5s0.1,0.4,0.2,0.5s0.4,0.2,0.9,0.3
			c0.6,0.1,1.1,0.3,1.4,0.6c0.3,0.2,0.5,0.6,0.5,1c0,0.5-0.2,0.8-0.6,1.1c-0.4,0.3-0.9,0.4-1.5,0.4c-0.7,0-1.2-0.2-1.6-0.5
			c-0.4-0.3-0.6-0.7-0.5-1.2l0,0h0.9c0,0.3,0.1,0.6,0.4,0.7c0.2,0.2,0.5,0.2,0.8,0.2s0.6-0.1,0.8-0.2S223.8,167.1,223.8,166.9z"/>
		<path class="st1" d="M231.8,162.4L231.8,162.4c0,0.6-0.1,1-0.4,1.3c-0.3,0.3-0.7,0.5-1.3,0.5v4h-0.8l-0.1-0.8
			c-0.2,0.3-0.4,0.5-0.6,0.6c-0.3,0.2-0.6,0.2-0.9,0.2c-0.6,0-1-0.2-1.3-0.5s-0.5-0.9-0.5-1.7v-3.1h0.9v3.1c0,0.6,0.1,0.9,0.2,1.1
			c0.2,0.2,0.4,0.3,0.8,0.3c0.3,0,0.6-0.1,0.8-0.2c0.2-0.1,0.4-0.3,0.5-0.6v-3.7h0.9v0.5l0,0c0.3,0,0.5-0.1,0.7-0.3
			c0.1-0.2,0.2-0.5,0.2-0.9h0.9V162.4z M228.2,169.9h-1v-1h1V169.9z"/>
		<path class="st1" d="M235.6,165.9h-0.5v2.4h-1v-7.5h0.9v4.3h0.5l1.6-2h1.1l-1.9,2.4l2,2.8h-1.1L235.6,165.9z"/>
		<path class="st1" d="M240.1,163.8c0.2-0.2,0.4-0.4,0.7-0.6s0.5-0.2,0.9-0.2c0.6,0,1,0.2,1.3,0.5s0.5,0.8,0.5,1.5v3.3h-0.9V165
			c0-0.4-0.1-0.7-0.3-1c-0.2-0.2-0.5-0.3-0.8-0.3s-0.5,0.1-0.7,0.2c-0.2,0.1-0.4,0.3-0.5,0.5v3.9h-0.9v-7.5h0.9v3H240.1z"/>
		<path class="st1" d="M247.9,168.3c0-0.2-0.1-0.3-0.1-0.4c0-0.1,0-0.2,0-0.4c-0.2,0.2-0.4,0.5-0.7,0.6c-0.3,0.2-0.6,0.3-0.9,0.3
			c-0.5,0-1-0.1-1.2-0.4c-0.3-0.3-0.4-0.7-0.4-1.1c0-0.5,0.2-0.9,0.6-1.2s0.9-0.4,1.6-0.4h1v-0.5c0-0.3-0.1-0.5-0.3-0.7
			c-0.2-0.2-0.4-0.3-0.8-0.3c-0.3,0-0.6,0.1-0.7,0.2c-0.2,0.2-0.3,0.3-0.3,0.6h-0.9l0,0c0-0.4,0.2-0.7,0.5-1s0.9-0.5,1.5-0.5
			s1.1,0.1,1.4,0.4c0.4,0.3,0.5,0.7,0.5,1.3v2.5c0,0.2,0,0.4,0,0.5s0.1,0.3,0.1,0.5L247.9,168.3L247.9,168.3z M246.4,167.6
			c0.3,0,0.7-0.1,0.9-0.3c0.3-0.2,0.5-0.4,0.5-0.6v-0.8h-1.1c-0.4,0-0.7,0.1-0.9,0.3s-0.3,0.4-0.3,0.7c0,0.2,0.1,0.4,0.2,0.5
			S246.1,167.6,246.4,167.6z M247.2,160.9h1.1l0,0l-1.3,1.2h-0.7L247.2,160.9z"/>
		<path class="st1" d="M252.2,167.6c0.3,0,0.5-0.1,0.8-0.3c0.2-0.2,0.3-0.4,0.3-0.7h0.9l0,0c0,0.4-0.2,0.8-0.6,1.2
			c-0.4,0.3-0.9,0.5-1.4,0.5c-0.7,0-1.3-0.2-1.7-0.7c-0.4-0.5-0.6-1.1-0.6-1.9v-0.2c0-0.7,0.2-1.3,0.6-1.8s1-0.7,1.7-0.7
			c0.6,0,1.1,0.2,1.4,0.5c0.4,0.4,0.5,0.8,0.5,1.3l0,0h-0.9c0-0.3-0.1-0.6-0.3-0.8s-0.5-0.3-0.8-0.3c-0.5,0-0.8,0.2-1,0.5
			c-0.2,0.4-0.3,0.8-0.3,1.3v0.2c0,0.5,0.1,1,0.3,1.3C251.4,167.4,251.7,167.6,252.2,167.6z"/>
		<path class="st1" d="M262.2,165.9c0,0.7-0.2,1.4-0.5,1.8c-0.4,0.5-0.9,0.7-1.5,0.7c-0.3,0-0.6-0.1-0.9-0.2
			c-0.3-0.1-0.5-0.3-0.6-0.6l-0.2,0.7h-0.7v-7.5h0.9v2.9c0.2-0.2,0.4-0.4,0.6-0.5s0.5-0.2,0.8-0.2c0.6,0,1.1,0.3,1.5,0.8
			s0.5,1.2,0.5,2v0.1H262.2z M261.2,165.8c0-0.6-0.1-1.1-0.3-1.5s-0.6-0.6-1-0.6c-0.3,0-0.5,0.1-0.7,0.2c-0.2,0.1-0.4,0.3-0.5,0.6
			v2.3c0.1,0.3,0.3,0.5,0.5,0.6s0.4,0.2,0.7,0.2c0.4,0,0.8-0.2,1-0.5S261.2,166.4,261.2,165.8L261.2,165.8z"/>
		<path class="st1" d="M264.3,161.7h-0.9v-1h0.9V161.7z M264.3,168.3h-0.9v-5.2h0.9V168.3z"/>
		<path class="st1" d="M267.9,168.4c-0.7,0-1.3-0.2-1.7-0.7s-0.6-1.1-0.6-1.9v-0.2c0-0.7,0.2-1.4,0.6-1.9s1-0.7,1.6-0.7
			c0.7,0,1.2,0.2,1.6,0.6c0.3,0.4,0.5,1,0.5,1.7v0.5h-3.3l0,0c0,0.5,0.1,0.9,0.3,1.3c0.2,0.3,0.6,0.5,1.1,0.5c0.3,0,0.6,0,0.8-0.1
			c0.2-0.1,0.4-0.2,0.6-0.4l0.4,0.6c-0.2,0.2-0.4,0.3-0.7,0.5S268.4,168.4,267.9,168.4z M269.2,162v0.1h-0.8l-0.7-0.7l-0.7,0.7h-0.8
			V162l1.2-1.1h0.6L269.2,162z M267.8,163.7c-0.3,0-0.6,0.1-0.8,0.4c-0.2,0.3-0.3,0.6-0.4,1l0,0h2.3V165c0-0.4-0.1-0.7-0.3-0.9
			S268.2,163.7,267.8,163.7z M268.4,169.9h-1v-1h1V169.9z"/>
		<path class="st1" d="M272.3,161.8v1.3h1v0.7h-1v3.2c0,0.2,0.1,0.4,0.2,0.5s0.2,0.1,0.4,0.1c0.1,0,0.1,0,0.2,0s0.1,0,0.2,0l0.1,0.6
			c-0.1,0.1-0.2,0.1-0.3,0.1c-0.1,0-0.3,0.1-0.4,0.1c-0.4,0-0.7-0.1-0.9-0.3c-0.2-0.2-0.3-0.6-0.3-1.1v-3.2h-0.8v-0.7h0.8v-1.3
			L272.3,161.8L272.3,161.8z"/>
	</g>
</g>
<g>
	<g>
		<path class="st4" d="M82.9,94.1c0,0,2.6-4.3,8.2,2.6l-2.4,5.2C88.8,101.9,80.8,99,82.9,94.1z"/>
	</g>
	<g>
		<path class="st4" d="M97.2,106.1c0,0-0.2-3.5,0.6-4.9c0.1-0.2,0-0.5-0.2-0.6l-5.4-3.2c-0.5-0.3-1.2-0.1-1.3,0.5
			c-0.3,0.9-0.9,2.5-2.3,5L97.2,106.1z"/>
	</g>
	<g>
		<path class="st4" d="M101.1,107.4c-0.8-2-0.7-1.6-1.1-3.9c-0.4-2.5,5.9-7.1,7.3-8l-1.7-1.3c0,0-8,4.1-6.9,9.1l0.7-1.5
			C98.7,103.6,100.7,106.1,101.1,107.4"/>
	</g>
	<g>
		<path class="st4" d="M112.4,92.1l1.9,0.2c0.4,0,0.7-0.2,0.9-0.5l4-6.8c0.3-0.5,2.9,0.7,3.3,0.8l-3.9-2.4c-0.5-0.3-1-0.1-1.3,0.4
			l-4.1,7c0,0.1-0.1,0.2-0.2,0.2c-0.6,0.5-1.3,0.5-2,0.3l-1.5-0.6C109.6,91.1,111.8,92.1,112.4,92.1z"/>
	</g>
	<g>
		<path class="st4" d="M107,94.4l-1-3c0.2,0.5,0-4.5,0.3-5.1c0.2-0.4,3.1,0.7,4.3,0.9c-0.1-0.4-0.3-1.2-0.7-1.3c0,0-5.4-1.2-5.6-0.7
			c-0.7,1.6-0.8,3.4-0.3,5.1l1,3c0.1,0.2,0.2,0.4,0.4,0.6l4.4,3.3c0.2,0.2,0.5,0.3,0.7,0.2l-3.2-2.3C107.2,94.9,107,94.7,107,94.4z"
			/>
	</g>
	<path class="st5" d="M87.6,88.8l-22.8,7.3C52.5,100,39.4,93.3,35.5,81l0,0c-3.9-12.3,2.8-25.4,15.1-29.3l22.8-7.3
		c12.3-3.9,25.4,2.8,29.3,15.1l0,0C106.5,71.8,99.8,84.9,87.6,88.8z"/>
	<path class="st6" d="M50.7,101.1c-2.1,0-4.2-0.5-6.1-1.5c-3.2-1.7-5.6-4.5-6.7-7.9L31.2,71c-2.2-7.1,1.7-14.7,8.7-16.9l43.5-13.9
		c3.4-1.1,7.1-0.8,10.3,0.8c3.2,1.7,5.6,4.5,6.7,7.9l6.7,20.7c2.2,7.1-1.7,14.7-8.7,16.9l-43.5,13.9
		C53.5,100.8,52.1,101.1,50.7,101.1z M87.5,41.6c-1.2,0-2.3,0.2-3.4,0.6L40.6,56.1c-5.9,2-9.2,8.3-7.3,14.2L39.9,91
		c0.9,2.9,2.9,5.2,5.6,6.6c2.7,1.4,5.8,1.7,8.6,0.7l43.5-13.9c5.9-2,9.2-8.3,7.3-14.2l-6.7-20.7c-0.9-2.9-2.9-5.2-5.6-6.6
		C91,42,89.2,41.6,87.5,41.6z"/>
	<g>
		<path class="st1" d="M82.5,94.7c0,0,2.6-4.3,8.2,2.6l-2.4,5.2C88.3,102.5,80.3,99.6,82.5,94.7z"/>
	</g>
	<g>
		<path class="st6" d="M110,86.4c0.5,0.2,0.7,0.7,0.7,1.1l-0.3,2.9c-0.1,0.7,0.4,1.1,1,1.2l1.8,0.2c0.5,0,0.8-0.2,1-0.6l4-6.7
			c0.3-0.6,0.9-0.7,1.5-0.4l3.2,1.8c0.6,0.3,0.7,0.9,0.5,1.5l-3.8,7c-0.8,1.6-2.4,2.7-4.1,3l-3.5,0.7c-0.3,0.1-0.7,0-0.8-0.2
			l-4.4-3.3c-0.2-0.1-0.3-0.3-0.4-0.6l-1-3c-0.6-1.7-0.5-3.5,0.3-5.1l0,0C105.9,85.4,110,86.4,110,86.4z"/>
	</g>
	<g>
		<path class="st4" d="M40.2,118.5c0.2,0.4,1,0.7,1.5,0.7L44,118c0.6-0.2,1.1,0.1,1.3,0.6l0.4,1.4c0.1,0.4,0,0.7-0.4,0.9l-5.6,4.6
			c-0.5,0.4-0.5,0.9-0.1,1.3l2.1,2.1c0.4,0.4,1,0.4,1.5,0l5.8-4.6c1.3-1,2-2.5,2-3.9v-3c0-0.3-0.1-0.5-0.3-0.7l-3.7-2.8
			c-0.2-0.1-0.4-0.2-0.6-0.2l-2.9-0.2c-1.7-0.1-3.3,0.4-4.6,1.3l0,0C38.6,115.4,40.2,118.5,40.2,118.5z"/>
	</g>
	<g>
		<path class="st6" d="M40.8,119c0.2,0.4,0.7,0.5,1.2,0.4l2.6-0.8c0.6-0.2,1.1,0.1,1.3,0.6l0.4,1.4c0.1,0.4,0,0.7-0.4,0.9l-5.6,4.6
			c-0.5,0.4-0.5,0.9-0.1,1.3l2.1,2.1c0.4,0.4,1,0.4,1.5,0l5.8-4.6c1.3-1,2-2.5,2-3.9v-3c0-0.3-0.1-0.5-0.3-0.7l-3.7-2.8
			c-0.2-0.1-0.4-0.2-0.6-0.2l-2.9-0.2c-1.7-0.1-3.3,0.4-4.6,1.3l0,0C39.3,115.8,40.8,119,40.8,119z"/>
	</g>
	<g>
		<path class="st6" d="M91.4,98l-2.9,4.9c0,0,8.5,6.1,9.9,4.9c0,0-1.6-3.8-0.5-6.5L91.4,98z"/>
	</g>
	<g>
		<path class="st6" d="M100.2,108.3c0,0,7.8-1.5,10.1-10.4l-4.3-3.3c0,0-8,5.4-7.5,8.2C98.9,105.7,98.7,104.4,100.2,108.3z"/>
	</g>
	<g>
		<path class="st4" d="M60.3,101.1c-1.6,0.3-4.2,1.2-5.1,3.8c-0.2,0.6,0,1.2,0.5,1.6l4,3.2c0,0,4.7-3.1,1.8-7.5l0,0
			C61.4,101.4,60.8,101,60.3,101.1z"/>
	</g>
	<g>
		<path class="st1" d="M60.6,101.6c-1.7,0.3-4.6,1.3-5.3,4.5c0,0.2,0,0.4,0.2,0.6L60,110c0,0,4.7-3.1,1.8-7.5l0,0
			C61.7,101.9,61.3,101.4,60.6,101.6z"/>
	</g>
	<g>
		<path class="st4" d="M59,110.2l-3.9-3c-0.4-0.3-0.9-0.3-1.3,0c-3.3,2.2-4.9,3.9-5.6,5c-0.5,0.7-0.3,1.7,0.4,2.1l2.5,2l0.4-0.3
			c0.1,0.2,0.1,0.3,0.1,0.3L59,110.2z"/>
	</g>
	<g>
		<path class="st6" d="M59.6,110.7l-4.2-3.2c-0.2-0.2-0.5-0.2-0.7,0c-6.8,4.4-6.3,6.7-6.3,6.7l2.4,1.9l1,0.7h0.5L59.6,110.7z"/>
	</g>
	<g>
		<path class="st6" d="M83.8,85l-18,5.8C56,94,45.6,88.6,42.5,78.9l0,0c-3.2-9.8,2.2-20.2,11.9-23.2l18-5.8
			c9.8-3.2,20.2,2.2,23.2,11.9l0,0C98.8,71.5,93.4,81.9,83.8,85z"/>
	</g>
	<g>
		<path class="st1" d="M97.5,67.6L93.8,56c-1.6-4.8-5.8-8-10.5-8.5c3.1,1.4,5.5,4,6.6,7.4l3.7,11.6c2.1,6.5-1.5,13.5-8,15.6L56,91.6
			c-1.7,0.6-3.4,0.7-5.1,0.6c2.7,1.3,5.9,1.6,9,0.6l29.6-9.6C96,81,99.6,74.1,97.5,67.6z"/>
	</g>
	<g>
		<path class="st6" d="M64.4,38.6l-5.7,1.9l-3.3-10.5c1.5-0.9,2.4-2.6,2.4-4.5c0-3-2.4-5.4-5.4-5.4c-3,0-5.4,2.4-5.4,5.4
			s2.4,5.4,5.4,5.4h0.1l3.3,10.5l-5.9,2c-1.8,0.6-2.7,2.4-2.1,4.2l0.1,0.4l21.2-6.8C68.4,39.1,66.4,38,64.4,38.6z"/>
	</g>
	<g>
		<path class="st4" d="M57.4,25.7c0,1.9-0.9,3.5-2.4,4.5l3.3,10.5l1.6-0.5l-3.2-9.9c1.5-0.9,2.4-2.6,2.4-4.5c0-3-2.4-5.4-5.4-5.4
			c-0.3,0-0.6,0-0.8,0.1C55.4,20.8,57.4,23,57.4,25.7z"/>
	</g>
	<g>
		<ellipse transform="matrix(0.952 -0.3061 0.3061 0.952 -15.4105 28.1062)" class="st5" cx="81.9" cy="63.2" rx="5.8" ry="7.1"/>
	</g>
	<g>
		<ellipse transform="matrix(0.952 -0.3061 0.3061 0.952 -19.0386 20.9538)" class="st5" cx="57.3" cy="71.2" rx="5.8" ry="7.1"/>
	</g>
	<g>
		<path class="st6" d="M109.5,65.7l-2.3,0.7l-6.8-21.2l2.9-0.9c5.7-1.9,11.8,1.3,13.7,7l0,0C118.8,57.4,115.4,63.8,109.5,65.7z"/>
	</g>
	<g>
		<path class="st4" d="M117.3,52.3l-0.1-0.5c-1.3-4.2-4.8-7-8.9-7.6c2.2,1.3,3.9,3.4,4.8,6.1l0.1,0.5c1.8,5.5-1.2,11.4-6.6,13.3
			l0.8,2.6l3.1-1C116,64,119.1,57.9,117.3,52.3z"/>
	</g>
	<g>
		<path class="st6" d="M35.4,92.8l-1.4,0.5c-6,2-12.4-1.4-14.4-7.4l0,0c-1.9-5.7,1.3-11.7,7-13.6l2-0.7c0.5-0.2,1,0.1,1.2,0.6
			l6.2,19.4C36.2,92.1,35.9,92.6,35.4,92.8z"/>
	</g>
	<g>
		<path class="st4" d="M35,89c-0.2,0.1-0.4,0.3-0.6,0.3l-0.8,0.3c-5.9,1.9-12.1-1.3-13.9-7.2l0,0c-0.2-0.5-0.3-1-0.4-1.5
			c-0.3,1.8-0.2,3.5,0.4,5.4l0,0c1.9,5.9,8.1,9,13.9,7.2l0.8-0.3c0.9-0.3,1.5-1.4,1.2-2.3L35,89z"/>
	</g>
	<g>
		<path class="st6" d="M81.9,117.5l-8.5,2.7c-4.7,1.5-9.8-1.1-11.2-5.8l-1.3-4c-1.5-4.7,1.1-9.8,5.8-11.2l8.5-2.7
			c4.7-1.5,9.8,1.1,11.2,5.8l1.3,4C89.2,110.9,86.6,115.9,81.9,117.5z"/>
	</g>
	<g>
		<path class="st4" d="M90.6,112.4l-5.5-17c-0.4-1.1-1.5-1.7-2.6-1.3l-0.4,0.1c0.5,0.3,0.8,0.7,1,1.2l5.5,17
			c0.4,1.1-0.3,2.2-1.3,2.6l-21.2,6.8c0.5,0.3,1,0.3,1.6,0.1l21.6-7C90.4,114.8,91,113.6,90.6,112.4z"/>
	</g>
	<g>
		<path class="st5" d="M81,110.1l-11.1,3.5c-3.1,1-6.3-0.7-7.2-3.7l0,0c-1-3.1,0.7-6.3,3.7-7.2l11.1-3.5c3.1-1,6.3,0.7,7.2,3.7l0,0
			C85.7,105.9,84,109.2,81,110.1z"/>
	</g>
	<g>
		<polygon class="st1" points="73.8,112.4 68.4,107 67.7,110.1 64.5,106 64.8,110.7 63.1,111.2 62.9,110.7 64.2,110.2 63.8,104.1 
			67.4,108.6 68.1,105.7 73.4,111.1 74.3,106.6 76.2,106 76,101.2 79.9,107 80.3,102.3 82.2,103.9 84.9,103.3 85.1,103.9 82,104.6 
			80.8,103.6 80.4,108.8 76.8,103.5 76.9,106.5 74.8,107.2 		"/>
	</g>
	<g>
		<circle class="st7" cx="68.3" cy="117.9" r="2"/>
	</g>
	<g>
		<circle class="st7" cx="85" cy="112.1" r="2"/>
	</g>
	<g>
		<g>
			<path class="st7" d="M79.9,113.7l-5.8,1.9c-0.2,0.1-0.5-0.1-0.6-0.3l0,0c-0.1-0.2,0.1-0.5,0.3-0.6l5.8-1.9
				c0.2-0.1,0.5,0.1,0.6,0.3l0,0C80.2,113.3,80.1,113.6,79.9,113.7z"/>
		</g>
		<g>
			<path class="st7" d="M80.3,114.7l-5.8,1.9c-0.2,0.1-0.5-0.1-0.6-0.3l0,0c-0.1-0.2,0.1-0.5,0.3-0.6l5.8-1.9
				c0.2-0.1,0.5,0.1,0.6,0.3l0,0C80.7,114.4,80.6,114.6,80.3,114.7z"/>
		</g>
		<g>
			<path class="st7" d="M80.8,115.8l-5.8,1.9c-0.2,0.1-0.5-0.1-0.6-0.3l0,0c-0.1-0.2,0.1-0.5,0.3-0.6l5.8-1.9
				c0.2-0.1,0.5,0.1,0.6,0.3l0,0C81.2,115.4,81,115.7,80.8,115.8z"/>
		</g>
	</g>
	<g>
		<path class="st4" d="M62.9,124.9l-7.8,19l0,0l1.3,3.3l0,0l7.2,3.3l5.1-0.4c0.6-0.1,1-0.5,1.2-0.9l5.6-19.9"/>
	</g>
	<g>
		<polygon class="st6" points="62.9,125.2 54,144 54,144 55.3,147.3 55.3,147.3 63.6,150.6 68.4,150.2 74.3,129.3 		"/>
	</g>
	<g>
		<polyline class="st4" points="78.2,122.3 78.2,128.3 84.7,128.3 84.7,122.3 84.7,117.4 78.2,119.6 		"/>
	</g>
	<g>
		<polyline class="st6" points="77.3,122.6 77.3,128.3 83.8,128.3 83.8,122.6 83.8,117.8 77.3,120 		"/>
	</g>
	<g>
		<path class="st4" d="M72.8,128.2l-4-1.9c-0.9-0.4-1.3-1.5-0.8-2.3l0.5-1l6.5-2.8L72.8,128.2z"/>
	</g>
	<g>
		<polygon class="st6" points="73.6,121.9 72,127.8 66.3,125.2 67.6,122.9 74.1,120.6 		"/>
	</g>
	<g class="st8">
		<path class="st5" d="M45.9,64.3L45.9,64.3L45.9,64.3c0.6-0.8,1.2-1.5,2-1.9c0.5-0.3,0.8-0.6,1.3-0.9l1.3-1.1L47,62.2
			c-3,1.6-4.5,6.1-3.2,10.2l1.5,4.7l-0.7-6.8c-0.1-0.7-0.1-1.5,0-2.1C44.8,66.7,45.3,65.3,45.9,64.3z"/>
	</g>
	<g>
		<path class="st4" d="M74.1,129h13.7l1.2,17c0,0.5-0.1,0.9-0.4,1.3l-1,1.5c-0.3,0.4-0.7,0.7-1.2,0.7l-8.1-0.2l-3.5-1.9L74.1,129z"
			/>
	</g>
	<g>
		<polygon class="st6" points="74.3,129.3 87,129.3 88.4,148.9 86.5,151.8 77.7,152.6 73.7,149.7 		"/>
	</g>
	<g>
		<polygon class="st1" points="62.9,125.2 61.4,128.3 73.3,132.8 74.3,129.3 		"/>
	</g>
	<g>
		<g>
			<g>
				
					<linearGradient id="SVGID_2_" gradientUnits="userSpaceOnUse" x1="63.4239" y1="3.0251" x2="79.4038" y2="26.0591" gradientTransform="matrix(1 0 0 -1 0 181)">
					<stop  offset="0" style="stop-color:#00A99D"/>
					<stop  offset="0.216" style="stop-color:#3DBDB4;stop-opacity:0.784"/>
					<stop  offset="0.6041" style="stop-color:#A4E0DC;stop-opacity:0.3959"/>
					<stop  offset="0.8737" style="stop-color:#E6F6F5;stop-opacity:0.1263"/>
					<stop  offset="1" style="stop-color:#FFFFFF;stop-opacity:0"/>
				</linearGradient>
				<ellipse id="SVGID_1_" class="st9" cx="72.1" cy="165.4" rx="19.4" ry="1.4"/>
			</g>
			<g>
				<defs>
					<ellipse id="SVGID_3_" cx="72.1" cy="165.4" rx="19.4" ry="1.4"/>
				</defs>
				<clipPath id="SVGID_4_">
					<use xlink:href="#SVGID_3_"  style="overflow:visible;"/>
				</clipPath>
				
					<linearGradient id="SVGID_5_" gradientUnits="userSpaceOnUse" x1="63.4239" y1="3.0251" x2="79.4038" y2="26.0591" gradientTransform="matrix(1 0 0 -1 0 181)">
					<stop  offset="0" style="stop-color:#00A99D"/>
					<stop  offset="0.216" style="stop-color:#3DBDB4;stop-opacity:0.784"/>
					<stop  offset="0.6041" style="stop-color:#A4E0DC;stop-opacity:0.3959"/>
					<stop  offset="0.8737" style="stop-color:#E6F6F5;stop-opacity:0.1263"/>
					<stop  offset="1" style="stop-color:#FFFFFF;stop-opacity:0"/>
				</linearGradient>
				<rect x="52.7" y="164" class="st10" width="38.8" height="2.8"/>
			</g>
			<g>
				<defs>
					<ellipse id="SVGID_6_" cx="72.1" cy="165.4" rx="19.4" ry="1.4"/>
				</defs>
				<clipPath id="SVGID_7_">
					<use xlink:href="#SVGID_6_"  style="overflow:visible;"/>
				</clipPath>
				
					<linearGradient id="SVGID_8_" gradientUnits="userSpaceOnUse" x1="63.4239" y1="3.0251" x2="79.4038" y2="26.0591" gradientTransform="matrix(1 0 0 -1 0 181)">
					<stop  offset="0" style="stop-color:#00A99D"/>
					<stop  offset="0.216" style="stop-color:#3DBDB4;stop-opacity:0.784"/>
					<stop  offset="0.6041" style="stop-color:#A4E0DC;stop-opacity:0.3959"/>
					<stop  offset="0.8737" style="stop-color:#E6F6F5;stop-opacity:0.1263"/>
					<stop  offset="1" style="stop-color:#FFFFFF;stop-opacity:0"/>
				</linearGradient>
				<ellipse class="st11" cx="72.1" cy="165.4" rx="16.6" ry="1.8"/>
			</g>
			<g>
				<defs>
					<ellipse id="SVGID_9_" cx="72.1" cy="165.4" rx="19.4" ry="1.4"/>
				</defs>
				<clipPath id="SVGID_10_">
					<use xlink:href="#SVGID_9_"  style="overflow:visible;"/>
				</clipPath>
				
					<linearGradient id="SVGID_11_" gradientUnits="userSpaceOnUse" x1="65.1286" y1="1.8422" x2="81.1085" y2="24.8764" gradientTransform="matrix(1 0 0 -1 0 181)">
					<stop  offset="0" style="stop-color:#00A99D"/>
					<stop  offset="0.216" style="stop-color:#3DBDB4;stop-opacity:0.784"/>
					<stop  offset="0.6041" style="stop-color:#A4E0DC;stop-opacity:0.3959"/>
					<stop  offset="0.8737" style="stop-color:#E6F6F5;stop-opacity:0.1263"/>
					<stop  offset="1" style="stop-color:#FFFFFF;stop-opacity:0"/>
				</linearGradient>
				<path class="st12" d="M81.7,167.1h-8.3h-8.3v0.2c0-0.5,3.7-0.9,8.3-0.9c4.6,0,8.3,0.4,8.3,0.9V167.1z"/>
			</g>
		</g>
	</g>
	<polygon class="st1" points="74.3,129.3 87,129.3 87.3,132.5 74.3,132.8 	"/>
</g>
</svg>
