<svg id="Layer_17" data-name="Layer 17" xmlns="http://www.w3.org/2000/svg" viewBox="0 0 29 25.73"><defs><style>.cls-1{fill:#69059e;}</style></defs><title>icon_the tin dung</title><path class="cls-1" d="M22.9,4.63l-22,6.21L.57,9.74a1.88,1.88,0,0,1,1.3-2.32L20.37,2.2a1.78,1.78,0,0,1,2.19,1.23Z" transform="translate(-0.5 -2.14)"/><path class="cls-1" d="M25.22,12.85H8.87A2.88,2.88,0,0,0,6,15.73v5.55l-.2.06A1.88,1.88,0,0,1,3.47,20L1.66,13.43l22-6.21Z" transform="translate(-0.5 -2.14)"/><path class="cls-1" d="M27,13.41H9.11a2.48,2.48,0,0,0-2.48,2.48v9.48a2.49,2.49,0,0,0,2.48,2.49H27a2.49,2.49,0,0,0,2.49-2.49V15.89A2.48,2.48,0,0,0,27,13.41ZM12.19,25.16h-4v-1h4Zm5.24,0h-4v-1h4Zm5.24,0h-4v-1h4Zm5.24,0h-4v-1h4Zm0-3.81a1,1,0,0,1-1,1H23.13a1,1,0,0,1-.94-1V19.76a1,1,0,0,1,.94-1H27a1,1,0,0,1,1,1Z" transform="translate(-0.5 -2.14)"/></svg>