<svg id="Layer_12" data-name="Layer 12" xmlns="http://www.w3.org/2000/svg" viewBox="0 0 28.82 26.68"><defs><style>.cls-1{fill:#bf001a;}</style></defs><title>icon_TN dan su</title><path class="cls-1" d="M28.89,16.77a5.55,5.55,0,0,1-5.08-1C22.11,17.5,18.6,17,18.6,17c-.91,8.93,5.49,11.36,5.49,11.36C30.48,24.81,28.89,16.77,28.89,16.77ZM23.66,24.1,21.52,22l.42-.8,1.72,1.72,2.71-2.71.47.76Z" transform="translate(-0.24 -1.66)"/><circle class="cls-1" cx="10.83" cy="5.97" r="5.97"/><path class="cls-1" d="M17.51,18.43A11.27,11.27,0,0,0,.24,27.74H20.75C19.08,26.22,17.15,23.36,17.51,18.43Z" transform="translate(-0.24 -1.66)"/></svg>