<svg id="Layer_9" data-name="Layer 9" xmlns="http://www.w3.org/2000/svg" viewBox="0 0 28.63 26.33"><defs><style>.cls-1{fill:#e5e1e2;}.cls-2{fill:#379578;}.cls-3{fill:#dbdbdb;}.cls-4{fill:#ededed;}.cls-5{fill:#bf1925;}.cls-6{fill:#29b7c5;}.cls-7{fill:#f34605;}.cls-8{fill:#f99918;}.cls-9{fill:#cc4217;}.cls-10{fill:#ffbd2d;}.cls-11{fill:#f37402;}.cls-12{fill:#ba7404;}</style></defs><title>icon_Tro Cap Y Te</title><path class="cls-1" d="M5,26.9V7A.31.31,0,0,1,5,7a.91.91,0,0,1,.91-.85H18.55a.91.91,0,0,1,.91.83.52.52,0,0,1,0,.08v5.74c-.44.3-.66.59-.64.88s.23.53.64.76v2.26a8.45,8.45,0,0,0-1.37,1,.87.87,0,0,1-.54.52l-.17.17a7.88,7.88,0,0,0-1,1.47,8.84,8.84,0,0,0-.49,1.06,9.85,9.85,0,0,0-.57,2.42,4.14,4.14,0,0,0,0,.69l.08.08a4.87,4.87,0,0,0,.31.93,4.3,4.3,0,0,1-.29-.77h-.06a4.1,4.1,0,0,0,1.9,2.68Z" transform="translate(-0.77 -1.74)"/><path class="cls-2" d="M15.4,24.21h0Zm2.15-6.09h0l-.07.08h0l-.07.08a8.52,8.52,0,0,0-1.05,1.47l0,0a8.65,8.65,0,0,0-.47,1v0a9.94,9.94,0,0,0-.56,2.41,4.53,4.53,0,0,0,0,.69v0l0,0,.06.06,0,.15h0c0,.09.06.18.09.28a1.85,1.85,0,0,0,.09.24c0-.13-.08-.25-.12-.37s-.06-.22-.08-.31L15.33,24a2.93,2.93,0,0,1,0-.68,9.54,9.54,0,0,1,.57-2.41h0a8,8,0,0,1,.47-1h0l0-.06a2,2,0,0,1,.19-.33,7.4,7.4,0,0,1,1-1.24h0l0-.06h0L17.7,18A.49.49,0,0,1,17.55,18.12Zm0,0h0l-.07.08h0l-.07.08a8.52,8.52,0,0,0-1.05,1.47l0,0h0v0a8.11,8.11,0,0,1,1.05-1.46l.12-.13h0l0,0,.07,0h0L17.7,18A.49.49,0,0,1,17.55,18.12Zm1-12H5.94A.94.94,0,0,0,5,7H5A0,0,0,0,0,5,7V26.94H17.4a3.62,3.62,0,0,1-1.18-1c-.06-.07-.11-.15-.17-.22a4.4,4.4,0,0,1-.37-.65l-.07-.17a3.75,3.75,0,0,1-.19-.63l0,.07c0,.13.08.25.13.37a3.69,3.69,0,0,0,.5.88l.09.11.13.16a.23.23,0,0,1,0-.06l-.08-.1L16,25.47a4.69,4.69,0,0,1-.53-1.24l-.06-.2L15.36,24a5.77,5.77,0,0,1,0-.64v0a9.09,9.09,0,0,1,.39-1.86c.06-.19.12-.38.18-.55s.14-.35.21-.51a5,5,0,0,1,.28-.54l0-.06a2,2,0,0,1,.19-.33,7.4,7.4,0,0,1,1-1.24h0a.86.86,0,0,0,.53-.51h0a8.73,8.73,0,0,1,.69-.53c.11-.07.22-.16.34-.22l.34-.2V14.4a2.36,2.36,0,0,1-.37-.26A1.05,1.05,0,0,1,19,14a.51.51,0,0,1-.09-.53.5.5,0,0,1,0-.1.66.66,0,0,1,.15-.2l.11-.11.14-.11a.7.7,0,0,1,.16-.12V7A.94.94,0,0,0,18.55,6.1Zm.88,6.67c-.43.3-.65.6-.64.89s.23.54.64.77v2.22a8.48,8.48,0,0,0-1.27.89l-.08.06h0v0a.51.51,0,0,1-.07.14h0s0,0,0,0a.81.81,0,0,1-.26.24h0a.49.49,0,0,1-.16.07h0l-.07.08h0l-.07.08a8.52,8.52,0,0,0-1.05,1.47l0,0a8.65,8.65,0,0,0-.47,1v0a9.94,9.94,0,0,0-.56,2.41,4.53,4.53,0,0,0,0,.69v0l0,0,.06.06,0,.15h0l-.06,0a4.12,4.12,0,0,0,1.81,2.63H5.05V7a.12.12,0,0,1,0-.06V7a.88.88,0,0,1,.88-.79H18.55a.88.88,0,0,1,.88.81Z" transform="translate(-0.77 -1.74)"/><rect class="cls-3" x="8.75" y="0.1" width="5.42" height="4.3"/><path class="cls-2" d="M15,6.24H9.42V1.74H15ZM9.61,6h5.22V1.94H9.61Z" transform="translate(-0.77 -1.74)"/><circle class="cls-4" cx="11.62" cy="2.19" r="1.41"/><polygon class="cls-5" points="12.79 1.78 11.92 1.78 11.92 0.91 11.21 0.91 11.21 1.78 10.33 1.78 10.33 2.49 11.21 2.49 11.21 3.37 11.92 3.37 11.92 2.49 12.79 2.49 12.79 1.78"/><rect class="cls-4" x="11.68" y="19.01" width="2.53" height="6.03"/><rect class="cls-4" x="8.78" y="19.01" width="2.53" height="6.03"/><path class="cls-1" d="M19.53,11.14h2.58l-.08.1H21.9c-1.67,0-1.91,1.09-1.94,1.25l-.44.25Z" transform="translate(-0.77 -1.74)"/><path class="cls-2" d="M22,11.17l0,0H21.9c-1.64,0-1.93,1-2,1.26l-.37.21V11.17Zm.14-.07H19.49V12.8a4.74,4.74,0,0,1,.5-.29s.13-1.24,1.91-1.24H22l.13-.17Z" transform="translate(-0.77 -1.74)"/><path class="cls-1" d="M19.53,14.45a5.12,5.12,0,0,0,1,.38l.16.5h0l.09.23-.1,0c-.1,0-.17.2-.21.47v.08l-.11,0a8.7,8.7,0,0,0-.9.44Z" transform="translate(-0.77 -1.74)"/><path class="cls-2" d="M20.83,15.46l-.06-.12v0l0-.11,0,0a.86.86,0,0,0,0,.13l-.16-.48h0l-.31-.08-.08,0-.26-.1-.13-.06-.18-.07-.07,0v2.3a5,5,0,0,1,.49-.26l.47-.21.12-.06a.62.62,0,0,1,0-.09l0-.17,0-.08a.29.29,0,0,1,.06-.12.19.19,0,0,1,.07-.07l.13-.06Zm-.32.62a.33.33,0,0,1,0,.06l-.08,0a9.12,9.12,0,0,0-.86.41V14.51a4.53,4.53,0,0,0,1,.35l.16.49h0c0,.08.06.15.08.21l-.06,0C20.62,15.63,20.55,15.8,20.51,16.08Z" transform="translate(-0.77 -1.74)"/><rect class="cls-1" x="0.03" y="9.4" width="4.15" height="15.76"/><path class="cls-2" d="M4.92,11.17V26.87H.83V11.17ZM5,11.11H.77V26.93H5V11.11Z" transform="translate(-0.77 -1.74)"/><rect class="cls-6" x="6.07" y="7.26" width="2.37" height="2.37" rx="0.88" ry="0.88"/><rect class="cls-6" x="10.55" y="7.26" width="2.37" height="2.37" rx="0.88" ry="0.88"/><rect class="cls-6" x="15.03" y="7.26" width="2.37" height="2.37" rx="0.88" ry="0.88"/><rect class="cls-6" x="6.07" y="10.69" width="2.37" height="2.37" rx="0.88" ry="0.88"/><rect class="cls-6" x="10.55" y="10.69" width="2.37" height="2.37" rx="0.88" ry="0.88"/><rect class="cls-6" x="15.03" y="10.69" width="2.37" height="2.37" rx="0.88" ry="0.88"/><rect class="cls-6" x="6.07" y="14.12" width="2.37" height="2.37" rx="0.88" ry="0.88"/><rect class="cls-6" x="1.05" y="10.69" width="2.37" height="2.37" rx="0.88" ry="0.88"/><rect class="cls-6" x="1.05" y="14.12" width="2.37" height="2.37" rx="0.88" ry="0.88"/><rect class="cls-6" x="1.05" y="17.54" width="2.37" height="2.37" rx="0.88" ry="0.88"/><path class="cls-6" d="M20.58,16.08a.62.62,0,0,0,0,.09l-.12.06,0,0h0l.06-.06Z" transform="translate(-0.77 -1.74)"/><rect class="cls-6" x="10.55" y="14.12" width="2.37" height="2.37" rx="0.88" ry="0.88"/><path class="cls-6" d="M18.17,16.74v.62a1.15,1.15,0,0,1,0,.19s0,0,0,.06h0l0,0h0a.86.86,0,0,1-.53.51h0l0,0h0l-.06,0h-.76a.87.87,0,0,1-.88-.88v-.62a.88.88,0,0,1,.88-.88h.62A.88.88,0,0,1,18.17,16.74Z" transform="translate(-0.77 -1.74)"/><rect class="cls-2" x="4.22" y="4.36" width="14.51" height="1.58" rx="0.77" ry="0.77"/><path class="cls-2" d="M16.38,19.82a5,5,0,0,0-.28.54c-.07.16-.15.33-.21.51H8.16a.53.53,0,0,1-.53-.53A.56.56,0,0,1,7.78,20a.54.54,0,0,1,.38-.15Z" transform="translate(-0.77 -1.74)"/><path class="cls-2" d="M23.31,10.28a3,3,0,0,0-1.13.83H19.49V10.05h3.16A1,1,0,0,1,23.31,10.28Z" transform="translate(-0.77 -1.74)"/><path class="cls-2" d="M1,8.31h3.2a0,0,0,0,1,0,0V9.37a0,0,0,0,1,0,0H0a0,0,0,0,1,0,0v0A1,1,0,0,1,1,8.31Z"/><path class="cls-7" d="M18.07,17.71h0l-.08.07s0,0,0,0l-.09.07-.17.17h0l-.06.07h0l0,.06a.86.86,0,0,0,.53-.51h0Z" transform="translate(-0.77 -1.74)"/><path class="cls-8" d="M24.1,15.25s3.77-1.47,3-2.5a2.09,2.09,0,0,0-1.56-1L23.49,15Z" transform="translate(-0.77 -1.74)"/><path class="cls-9" d="M24.46,16.21h0l-.1,0h-.77l-.19,0a14,14,0,0,1-1.46-.29h-.07l-.27-.06-.62-.17a.38.38,0,0,1,0-.08h0l-.06-.13c0-.06,0-.12-.06-.18s0,0,0,0l0-.07s0,0,0,0v0a1.38,1.38,0,0,1,0-1.13.72.72,0,0,1,.32-.27,1.16,1.16,0,0,1,.82.08h0a6.34,6.34,0,0,1,1.63.95l0,0h0a5.54,5.54,0,0,1,.48.41l0,0h0C24.57,15.72,24.77,16.11,24.46,16.21Z" transform="translate(-0.77 -1.74)"/><path class="cls-10" d="M20.78,15.46l-.21-.65S17.11,14,20,12.51c0,0,.14-1.3,2.06-1.23,1.55-2.16,6.11-1.73,1.59,3.49a.69.69,0,0,1-.48.21,1.2,1.2,0,0,1-.94-.37c-.12-.15,0,0-.27.1S20.4,14.43,20.78,15.46Z" transform="translate(-0.77 -1.74)"/><path class="cls-11" d="M20.16,12.12a1.18,1.18,0,0,0-.14.39c-2.88,1.47.58,2.3.58,2.3l.17.53c-.23-.88,1-.57,1.2-.63a.34.34,0,0,0,.19-.12C19.57,14.11,20.16,12.12,20.16,12.12Z" transform="translate(-0.77 -1.74)"/><path class="cls-11" d="M20.78,15.33l0,.12Z" transform="translate(-0.77 -1.74)"/><path class="cls-11" d="M20.34,11.86a1.39,1.39,0,0,0-.18.25Z" transform="translate(-0.77 -1.74)"/><path class="cls-8" d="M18.12,17.67a.86.86,0,0,1-.53.51l0-.06h0L17.7,18h0l.17-.17.1-.09h0l.08-.06h0Z" transform="translate(-0.77 -1.74)"/><path class="cls-8" d="M24.1,22.59a.49.49,0,0,1,0,.13s0,0,0,.06a.39.39,0,0,0,0,.1l0,.1-.06.2a1,1,0,0,1-.09.18l0,.06-.06.06-.08.09-.08.08-.26.18A2.33,2.33,0,0,1,23,24l-.11,0-.11,0-.08,0h-.07a.2.2,0,0,0-.11.14.37.37,0,0,0,0,.18.36.36,0,0,1,0,.18.11.11,0,0,1-.06.06l-.09,0a.11.11,0,0,1-.09,0s-.07,0-.08-.06a.15.15,0,0,1,0-.11v-.25a.2.2,0,0,0-.08-.13.16.16,0,0,0-.09,0l-.12,0-.16,0-.16,0a1.76,1.76,0,0,1-.5-.34,1.4,1.4,0,0,1-.34-.51.72.72,0,0,0,0-.13s0-.08,0-.13a.23.23,0,0,1,0-.06v-.06a.33.33,0,0,1,0-.1.15.15,0,0,1,0-.09.14.14,0,0,1,.07-.07H21a.15.15,0,0,1,.13,0,.12.12,0,0,1,.06.06l0,.1a.85.85,0,0,0,.08.26.82.82,0,0,0,.15.23,1.83,1.83,0,0,0,.2.18l.06,0,.06,0,.08,0,.12,0a.23.23,0,0,0,.11,0,.13.13,0,0,0,.09-.06.19.19,0,0,0,0-.1V21.83a.31.31,0,0,0,0-.15.16.16,0,0,0-.08-.07l-.12,0-.13,0-.12,0-.19-.08a.63.63,0,0,1-.19-.09l-.17-.1,0,0,0,0-.06,0-.06-.06a2.48,2.48,0,0,1-.18-.35s0-.08,0-.13a.63.63,0,0,0,0-.12.38.38,0,0,0,0-.11.3.3,0,0,1,0-.13.29.29,0,0,0,0-.1.28.28,0,0,0,0-.09.27.27,0,0,1,0-.08l0-.09a.33.33,0,0,1,0-.09,1.81,1.81,0,0,1,.24-.41,1.39,1.39,0,0,1,.35-.3l.19-.1.22-.08.16,0a.32.32,0,0,0,.13-.06.15.15,0,0,0,.06-.16.41.41,0,0,1,0-.18.16.16,0,0,1,.09-.08h.06a.2.2,0,0,1,.2.1.08.08,0,0,1,0,0v.13l0,.1a.14.14,0,0,0,.06.07.18.18,0,0,0,.08,0l.1,0,.12,0,.12,0a1.25,1.25,0,0,1,.41.29,2.14,2.14,0,0,1,.29.41c0,.06,0,.1.06.16l.06.16a.17.17,0,0,1,0,.06.1.1,0,0,1,0,.07s0,.06-.06.07a.12.12,0,0,1-.09,0H23.6l-.13,0-.08,0a.22.22,0,0,1-.09-.14,1.24,1.24,0,0,0-.06-.17,1.7,1.7,0,0,0-.16-.2.8.8,0,0,0-.19-.16l-.18-.06c-.06,0-.11,0-.15.08a.41.41,0,0,0,0,.17v1.22a.31.31,0,0,0,0,.18.21.21,0,0,0,.15.1l.2.06.28.1a1.23,1.23,0,0,1,.25.12,1.35,1.35,0,0,1,.35.29,1.11,1.11,0,0,1,.23.42l0,.11,0,.11v.06A.61.61,0,0,1,24.1,22.59Z" transform="translate(-0.77 -1.74)"/><path class="cls-8" d="M27.58,24.82A3.2,3.2,0,0,1,27,26.25a3.44,3.44,0,0,1-.6.63h-.28a5.54,5.54,0,0,1-2.09,1l-.28.06-.22,0-.38,0h-.25a4.68,4.68,0,0,1-2.48-.7h-.32A4.25,4.25,0,0,1,16.36,26a5.47,5.47,0,0,0,3.9,1.41A3.69,3.69,0,0,1,18.88,25c2,3,4.35,2.63,4.35,2.63A5,5,0,0,0,27.58,24.82Z" transform="translate(-0.77 -1.74)"/><path class="cls-8" d="M27.09,26.76c1.23-.31,3-1.36,2-4.88a8.7,8.7,0,0,0-4.47-5.56h0l-.06,0-.08-.06h0l-.1,0a4.4,4.4,0,0,1,.41.41,10.08,10.08,0,0,1,.75.82.24.24,0,0,1,.06.14.46.46,0,0,1,0,.11v0a.12.12,0,0,1,0,.06.34.34,0,0,1-.16.25.07.07,0,0,1-.11,0,11.84,11.84,0,0,0-1.46-1.77h-.08a10.93,10.93,0,0,1,1.31,2.53c0,.07,0,.15.06.2s0,.12,0,.19l0,.06a.38.38,0,0,1-.07.38l-.45.49s-.12,0-.11,0c.13-1.09-.76-3-1.19-3.85a14,14,0,0,1-1.46-.29l-.54.08-.1,0-.64.16h0a8.3,8.3,0,0,1,.95-.32,6.15,6.15,0,0,1,.76-.17l.81.08h.32l.13,0h0L24,16h0l.06,0h0l.34.18h0l.11.06,0,0a8.72,8.72,0,0,1,4.5,5.56C30.13,25.44,28.32,26.47,27.09,26.76Z" transform="translate(-0.77 -1.74)"/><path class="cls-11" d="M24.32,16.25a4.4,4.4,0,0,1,.41.41l-.07,0L24,16.27c-.09-.06-.19-.11-.29-.17h0l-.07,0-.06,0h0l0,0-.09-.06-.06,0,0,0-.15-.09h.37l.37.18L24,16h0l.1,0,.18.09.09,0Z" transform="translate(-0.77 -1.74)"/><path class="cls-11" d="M24.57,16.33l-.06,0,.07,0Z" transform="translate(-0.77 -1.74)"/><path class="cls-11" d="M27,26.25a3.44,3.44,0,0,1-.6.63h-.1A1.51,1.51,0,0,1,27,26.25Z" transform="translate(-0.77 -1.74)"/><path class="cls-11" d="M27.58,24.82A3.2,3.2,0,0,1,27,26.25a3.44,3.44,0,0,1-.6.63A4.84,4.84,0,0,1,24,27.92l-.28.06-.22,0-.38,0h-.25a4,4,0,0,1-2.6-.69h0A3.69,3.69,0,0,1,18.88,25c2,3,4.35,2.63,4.35,2.63A5,5,0,0,0,27.58,24.82Z" transform="translate(-0.77 -1.74)"/><path class="cls-11" d="M20.25,27.36l-.18,0h0a4.74,4.74,0,0,1-2.66-.44,3.62,3.62,0,0,1-1.18-1c-.06-.07-.11-.15-.17-.22a4.4,4.4,0,0,1-.37-.65l-.07-.17a3.75,3.75,0,0,1-.19-.63l0,.07c0,.13.08.25.13.37a3.69,3.69,0,0,0,.5.88l.09.11.09.09a.23.23,0,0,0,0,.06l0,0,0,0A5.47,5.47,0,0,0,20.25,27.36Z" transform="translate(-0.77 -1.74)"/><path class="cls-10" d="M29.05,21.88a8.7,8.7,0,0,0-4.47-5.56h0l-.06,0-.08-.06h0l-.1,0a4.4,4.4,0,0,1,.41.41,10.08,10.08,0,0,1,.75.82.24.24,0,0,1,.06.14.46.46,0,0,1,0,.11v0a.12.12,0,0,1,0,.06.34.34,0,0,1-.16.25.07.07,0,0,1-.11,0,11.84,11.84,0,0,0-1.46-1.77h-.08a10.93,10.93,0,0,1,1.31,2.53c0,.07,0,.15.06.2s0,.12,0,.19l0,.06a.38.38,0,0,1-.07.38l-.45.49s-.12,0-.11,0c.13-1.09-.76-3-1.19-3.85a14,14,0,0,1-1.46-.29l-.54.08-.1,0-.64.16h0l-.12.06-.47.21a5,5,0,0,0-.49.26l-.34.2c-.12.06-.23.15-.34.22a8.73,8.73,0,0,0-.69.53h0a.86.86,0,0,1-.53.51h0a7.4,7.4,0,0,0-1,1.24,2,2,0,0,0-.19.33l0,.06a5,5,0,0,0-.28.54c-.07.16-.15.33-.21.51s-.13.36-.18.55a9.09,9.09,0,0,0-.39,1.86v0a4.87,4.87,0,0,0,.12.7,1.61,1.61,0,0,0,0,.2A4.69,4.69,0,0,0,16,25.47l.16.25.08.1a.23.23,0,0,0,0,.06l0,0,0,0a5.47,5.47,0,0,0,3.9,1.41A3.69,3.69,0,0,1,18.88,25c2,3,4.35,2.63,4.35,2.63a5,5,0,0,0,4.35-2.85A3.2,3.2,0,0,1,27,26.25a3.44,3.44,0,0,1-.6.63,4.47,4.47,0,0,0,.74-.11C28.32,26.45,30.09,25.4,29.05,21.88Zm-5,.84s0,0,0,.06a.39.39,0,0,0,0,.1l0,.1-.06.2a1,1,0,0,1-.09.18l0,.06-.06.06-.08.09-.08.08-.26.18A2.33,2.33,0,0,1,23,24l-.11,0-.11,0-.08,0h-.07a.2.2,0,0,0-.11.14.37.37,0,0,0,0,.18.36.36,0,0,1,0,.18.11.11,0,0,1-.06.06l-.09,0a.11.11,0,0,1-.09,0s-.07,0-.08-.06a.15.15,0,0,1,0-.11v-.25a.2.2,0,0,0-.08-.13.16.16,0,0,0-.09,0l-.12,0-.16,0-.16,0a1.76,1.76,0,0,1-.5-.34,1.4,1.4,0,0,1-.34-.51.72.72,0,0,0,0-.13s0-.08,0-.13a.23.23,0,0,1,0-.06v-.06a.33.33,0,0,1,0-.1.15.15,0,0,1,0-.09.14.14,0,0,1,.07-.07H21a.15.15,0,0,1,.13,0,.12.12,0,0,1,.06.06l0,.1a.85.85,0,0,0,.08.26.82.82,0,0,0,.15.23,1.83,1.83,0,0,0,.2.18l.06,0,.06,0,.08,0,.12,0a.23.23,0,0,0,.11,0,.13.13,0,0,0,.09-.06.19.19,0,0,0,0-.1V21.83a.31.31,0,0,0,0-.15.16.16,0,0,0-.08-.07l-.12,0-.13,0-.12,0-.19-.08a.63.63,0,0,1-.19-.09l-.17-.1,0,0,0,0-.06,0-.06-.06a2.48,2.48,0,0,1-.18-.35s0-.08,0-.13a.63.63,0,0,0,0-.12.38.38,0,0,0,0-.11.3.3,0,0,1,0-.13.29.29,0,0,0,0-.1.28.28,0,0,0,0-.09.27.27,0,0,1,0-.08l0-.09a.33.33,0,0,1,0-.09,1.81,1.81,0,0,1,.24-.41,1.39,1.39,0,0,1,.35-.3l.19-.1.22-.08.16,0a.32.32,0,0,0,.13-.06.15.15,0,0,0,.06-.16.41.41,0,0,1,0-.18.16.16,0,0,1,.09-.08h.06a.2.2,0,0,1,.2.1.08.08,0,0,1,0,0v.13l0,.1a.14.14,0,0,0,.06.07.18.18,0,0,0,.08,0l.1,0,.12,0,.12,0a1.25,1.25,0,0,1,.41.29,2.14,2.14,0,0,1,.29.41c0,.06,0,.1.06.16l.06.16a.17.17,0,0,1,0,.06.1.1,0,0,1,0,.07s0,.06-.06.07a.12.12,0,0,1-.09,0H23.6l-.13,0-.08,0a.22.22,0,0,1-.09-.14,1.24,1.24,0,0,0-.06-.17,1.7,1.7,0,0,0-.16-.2.8.8,0,0,0-.19-.16l-.18-.06c-.06,0-.11,0-.15.08a.41.41,0,0,0,0,.17v1.22a.31.31,0,0,0,0,.18.21.21,0,0,0,.15.1l.2.06.28.1a1.23,1.23,0,0,1,.25.12,1.35,1.35,0,0,1,.35.29,1.11,1.11,0,0,1,.23.42l0,.11,0,.11v.06a.61.61,0,0,1,0,.14A.49.49,0,0,1,24.09,22.72Z" transform="translate(-0.77 -1.74)"/><path class="cls-10" d="M15.44,24h0L15.36,24a5.77,5.77,0,0,1,0-.64A4.87,4.87,0,0,0,15.44,24Z" transform="translate(-0.77 -1.74)"/><path class="cls-10" d="M18.12,17.67a.86.86,0,0,1-.53.51l0-.06h0L17.7,18h0l.17-.17.1-.09h0l.08-.06h0Z" transform="translate(-0.77 -1.74)"/><path class="cls-10" d="M24.1,22.59a.49.49,0,0,1,0,.13s0,0,0,.06a.39.39,0,0,0,0,.1l0,.1-.06.2a1,1,0,0,1-.09.18l0,.06-.06.06-.08.09-.08.08-.26.18A2.33,2.33,0,0,1,23,24l-.11,0-.11,0-.08,0h-.07a.2.2,0,0,0-.11.14.37.37,0,0,0,0,.18.36.36,0,0,1,0,.18.11.11,0,0,1-.06.06l-.09,0a.11.11,0,0,1-.09,0s-.07,0-.08-.06a.15.15,0,0,1,0-.11v-.25a.2.2,0,0,0-.08-.13.16.16,0,0,0-.09,0l-.12,0-.16,0-.16,0a1.76,1.76,0,0,1-.5-.34,1.4,1.4,0,0,1-.34-.51.72.72,0,0,0,0-.13s0-.08,0-.13a.23.23,0,0,1,0-.06v-.06a.33.33,0,0,1,0-.1.15.15,0,0,1,0-.09.14.14,0,0,1,.07-.07H21a.15.15,0,0,1,.13,0,.12.12,0,0,1,.06.06l0,.1a.85.85,0,0,0,.08.26.82.82,0,0,0,.15.23,1.83,1.83,0,0,0,.2.18l.06,0,.06,0,.08,0,.12,0a.23.23,0,0,0,.11,0,.13.13,0,0,0,.09-.06.19.19,0,0,0,0-.1V21.83a.31.31,0,0,0,0-.15.16.16,0,0,0-.08-.07l-.12,0-.13,0-.12,0-.19-.08a.63.63,0,0,1-.19-.09l-.17-.1,0,0,0,0-.06,0-.06-.06a2.48,2.48,0,0,1-.18-.35s0-.08,0-.13a.63.63,0,0,0,0-.12.38.38,0,0,0,0-.11.3.3,0,0,1,0-.13.29.29,0,0,0,0-.1.28.28,0,0,0,0-.09.27.27,0,0,1,0-.08l0-.09a.33.33,0,0,1,0-.09,1.81,1.81,0,0,1,.24-.41,1.39,1.39,0,0,1,.35-.3l.19-.1.22-.08.16,0a.32.32,0,0,0,.13-.06.15.15,0,0,0,.06-.16.41.41,0,0,1,0-.18.16.16,0,0,1,.09-.08h.06a.2.2,0,0,1,.2.1.08.08,0,0,1,0,0v.13l0,.1a.14.14,0,0,0,.06.07.18.18,0,0,0,.08,0l.1,0,.12,0,.12,0a1.25,1.25,0,0,1,.41.29,2.14,2.14,0,0,1,.29.41c0,.06,0,.1.06.16l.06.16a.17.17,0,0,1,0,.06.1.1,0,0,1,0,.07s0,.06-.06.07a.12.12,0,0,1-.09,0H23.6l-.13,0-.08,0a.22.22,0,0,1-.09-.14,1.24,1.24,0,0,0-.06-.17,1.7,1.7,0,0,0-.16-.2.8.8,0,0,0-.19-.16l-.18-.06c-.06,0-.11,0-.15.08a.41.41,0,0,0,0,.17v1.22a.31.31,0,0,0,0,.18.21.21,0,0,0,.15.1l.2.06.28.1a1.23,1.23,0,0,1,.25.12,1.35,1.35,0,0,1,.35.29,1.11,1.11,0,0,1,.23.42l0,.11,0,.11v.06A.61.61,0,0,1,24.1,22.59Z" transform="translate(-0.77 -1.74)"/><path class="cls-10" d="M25.1,19.61l-.45.49s-.12,0-.11,0c.13-1.09-.76-3-1.19-3.85a14,14,0,0,1-1.46-.29l-.54.08-.1,0-.64.16h0a8.3,8.3,0,0,1,.95-.32,6.15,6.15,0,0,1,.76-.17l.81.09h.19l.06.08,0,0,0,0c.06.1.14.2.2.31.36.54.74,1.17,1.08,1.81a.15.15,0,0,1,0,.06q.18.33.33.66c0,.07,0,.15.06.2s0,.12,0,.19l0,.06A.38.38,0,0,1,25.1,19.61Z" transform="translate(-0.77 -1.74)"/><path class="cls-12" d="M22,13.08a2.17,2.17,0,0,0,0,.91A3,3,0,0,1,22,13.08Z" transform="translate(-0.77 -1.74)"/><path class="cls-12" d="M22,13.08h0Z" transform="translate(-0.77 -1.74)"/><path class="cls-12" d="M23,14.9a1.17,1.17,0,0,1-1.1-.91A1,1,0,0,0,23,15h.11c.16,0,.4,0,.78-.51a2.14,2.14,0,0,1-.39.32A.73.73,0,0,1,23,14.9Z" transform="translate(-0.77 -1.74)"/><path class="cls-7" d="M25.11,19.55l-.3.31a.46.46,0,0,1-.19,0l.31-.34a.35.35,0,0,0,.07-.36,14.86,14.86,0,0,0-1.46-2.92,3.27,3.27,0,0,0-.25-.32l0,0-.06-.06,0,0a.63.63,0,0,0-.12-.11l0,0-.15-.15c-.11-.16-.2-.32,0-.16l0,0,.36.34.09.09h0l.07.08h0l0,0h0l.06.06h0l.16.23a10.93,10.93,0,0,1,1.31,2.53c0,.07,0,.15.06.2s0,.12,0,.19A.62.62,0,0,1,25.11,19.55Z" transform="translate(-0.77 -1.74)"/><path class="cls-7" d="M25.1,19.61l-.45.49s-.12,0-.11,0c.13-1.09-.76-3-1.19-3.85l-.16-.3,0,0a.28.28,0,0,1,0-.07h0l-.07-.1,0,0c-.08-.13-.19-.3-.15-.3l0,0a2.91,2.91,0,0,1,.36.34l.09.09h0l.07.08h0l0,0h0l0,0,.19.26a12,12,0,0,1,.95,1.81.15.15,0,0,1,0,.06c.18.43.34.82.43,1.06l0,.06A.38.38,0,0,1,25.1,19.61Z" transform="translate(-0.77 -1.74)"/><path class="cls-7" d="M25.56,17.73v0a.12.12,0,0,1,0,.06.37.37,0,0,1-.16.22.08.08,0,0,1-.11,0,12.87,12.87,0,0,0-1.42-1.73l-.14-.16h0L23.59,16l-.06-.06-.09-.09h0l-.27-.29-.06-.06a2.65,2.65,0,0,1,1,.59h0l0,0,0,0,.14.13a4.4,4.4,0,0,1,.41.41,10.08,10.08,0,0,1,.75.82.24.24,0,0,1,.06.14A.46.46,0,0,1,25.56,17.73Z" transform="translate(-0.77 -1.74)"/><path class="cls-7" d="M25.56,17.73v0a.12.12,0,0,1,0,.06.34.34,0,0,1-.16.25.07.07,0,0,1-.11,0,11.84,11.84,0,0,0-1.46-1.77,1.93,1.93,0,0,0-.18-.2l-.1-.11-.06-.06h0l-.07-.08-.29-.3.06,0A2.34,2.34,0,0,1,24,16h0v0h0a.17.17,0,0,1,.06,0l.18.17a4.52,4.52,0,0,1,.37.36,10.57,10.57,0,0,1,.82.9.38.38,0,0,1,.06.1A.46.46,0,0,1,25.56,17.73Z" transform="translate(-0.77 -1.74)"/><path class="cls-7" d="M24.67,16.27a.05.05,0,0,1,0,0h0l0,0-.1-.07A2.28,2.28,0,0,0,24.1,16h0L24,16h-.08a2.21,2.21,0,0,0-.41-.09h-.36a6.35,6.35,0,0,0-1.35.06h0l-.47.09-.1,0-.64.16h0c0-.07,0-.46.19-.53l.1,0a8.26,8.26,0,0,1,1.45-.44,3.4,3.4,0,0,1,1.25-.06l.23,0s0,0,.06,0l.06,0,.13,0,0,0a1.21,1.21,0,0,1,.52.47S24.78,16.1,24.67,16.27Z" transform="translate(-0.77 -1.74)"/><path class="cls-7" d="M24.62,16.3h0l0,0h0l-.06,0-.08-.06h0l-.09,0-.15-.06-.07,0a3.37,3.37,0,0,0-.52-.14h-.18l-.11,0h-.1a5.17,5.17,0,0,0-1.3,0l-.54.08-.1,0c-.2,0-.41.08-.64.15h0a.62.62,0,0,1,0-.09l0-.17,0-.08a.29.29,0,0,1,.06-.12.19.19,0,0,1,.07-.07l.13-.06a7.14,7.14,0,0,1,1.46-.43,3.4,3.4,0,0,1,1.25-.06l.29.07.06,0,.16.07h0a1.15,1.15,0,0,1,.49.45S24.76,16.14,24.62,16.3Z" transform="translate(-0.77 -1.74)"/><path class="cls-7" d="M24.09,22.45v-.06l0-.11,0-.11a1.11,1.11,0,0,0-.23-.42,1.35,1.35,0,0,0-.35-.29,1.23,1.23,0,0,0-.25-.12l-.28-.1-.2-.06a.21.21,0,0,1-.15-.1.31.31,0,0,1,0-.18V19.68a.41.41,0,0,1,0-.17c0-.07.08-.1.15-.08l.18.06a.8.8,0,0,1,.19.16,1.7,1.7,0,0,1,.16.2,1.24,1.24,0,0,1,.06.17.22.22,0,0,0,.09.14l.08,0,.13,0h.14a.12.12,0,0,0,.09,0s.06,0,.06-.07a.1.1,0,0,0,0-.07.17.17,0,0,0,0-.06l-.06-.16c0-.06,0-.1-.06-.16a2.14,2.14,0,0,0-.29-.41,1.25,1.25,0,0,0-.41-.29l-.12,0-.12,0-.1,0a.18.18,0,0,1-.08,0,.14.14,0,0,1-.06-.07l0-.1v-.13a.08.08,0,0,0,0,0,.2.2,0,0,0-.2-.1h-.06a.16.16,0,0,0-.09.08.41.41,0,0,0,0,.18.15.15,0,0,1-.06.16.32.32,0,0,1-.13.06l-.16,0-.22.08-.19.1a1.39,1.39,0,0,0-.35.3,1.81,1.81,0,0,0-.24.41.33.33,0,0,0,0,.09l0,.09a.27.27,0,0,0,0,.08.28.28,0,0,1,0,.09.29.29,0,0,1,0,.1.3.3,0,0,0,0,.13.38.38,0,0,1,0,.11.63.63,0,0,1,0,.12s0,.08,0,.13a2.48,2.48,0,0,0,.18.35l.06.06.06,0,0,0,0,0,.17.1a.63.63,0,0,0,.19.09l.19.08.12,0,.13,0,.12,0a.16.16,0,0,1,.08.07.31.31,0,0,1,0,.15v1.49a.19.19,0,0,1,0,.1.13.13,0,0,1-.09.06.23.23,0,0,1-.11,0l-.12,0-.08,0-.06,0-.06,0a1.83,1.83,0,0,1-.2-.18.82.82,0,0,1-.15-.23.85.85,0,0,1-.08-.26l0-.1a.12.12,0,0,0-.06-.06.15.15,0,0,0-.13,0h-.29a.14.14,0,0,0-.07.07.15.15,0,0,0,0,.09.33.33,0,0,0,0,.1v.06a.23.23,0,0,0,0,.06s0,.08,0,.13a.72.72,0,0,1,0,.13,1.4,1.4,0,0,0,.34.51,1.76,1.76,0,0,0,.5.34l.16,0,.16,0,.12,0a.16.16,0,0,1,.09,0,.2.2,0,0,1,.08.13v.25a.15.15,0,0,0,0,.11s0,0,.08.06a.11.11,0,0,0,.09,0l.09,0a.11.11,0,0,0,.06-.06.36.36,0,0,0,0-.18.37.37,0,0,1,0-.18.2.2,0,0,1,.11-.14h.07l.08,0,.11,0L23,24a2.33,2.33,0,0,0,.3-.13l.26-.18.08-.08.08-.09.06-.06,0-.06a1,1,0,0,0,.09-.18L24,23l0-.1a.39.39,0,0,1,0-.1s0-.06,0-.06a.49.49,0,0,0,0-.13A.61.61,0,0,0,24.09,22.45Zm-1.93-1.64a.14.14,0,0,1-.1.15H22l0,0a.57.57,0,0,1-.2-.09.87.87,0,0,1-.21-.15.55.55,0,0,1-.15-.22,1,1,0,0,1,0-.13.47.47,0,0,1,0-.12.3.3,0,0,1,0-.13.27.27,0,0,0,0-.08s0-.06,0-.08a1,1,0,0,1,.15-.28.62.62,0,0,1,.22-.18l.08,0,.09,0H22c.1,0,.15,0,.16.1a2,2,0,0,1,0,.25Zm1.29,2a.39.39,0,0,0,0,.1s0,.06,0,.09a.8.8,0,0,1-.23.33,1,1,0,0,1-.36.19h-.18l0,0a.18.18,0,0,1-.06-.16,1.77,1.77,0,0,1,0-.22V22a.38.38,0,0,1,0-.19.08.08,0,0,1,.06,0h0a.41.41,0,0,1,.18,0l.15.07a.84.84,0,0,1,.25.17.6.6,0,0,1,.18.24s0,.06,0,.08a.55.55,0,0,0,0,.11.36.36,0,0,1,0,.12A.56.56,0,0,1,23.45,22.76Z" transform="translate(-0.77 -1.74)"/></svg>