<svg id="Layer_7" data-name="Layer 7" xmlns="http://www.w3.org/2000/svg" viewBox="0 0 28.8 27.28"><defs><style>.cls-1{fill:#acafb7;}.cls-2{fill:#940014;}</style></defs><title>icon_Sk GD</title><circle class="cls-1" cx="10.68" cy="3.24" r="1.59"/><path class="cls-2" d="M15.18,14.28a2.09,2.09,0,1,0-1-1.93A2.66,2.66,0,0,1,15.18,14.28Z" transform="translate(-0.62 -1.36)"/><path class="cls-2" d="M11,16.64A2.67,2.67,0,0,1,10,15.2a3.71,3.71,0,0,0-1-.14H8.56a3.72,3.72,0,0,0-3.72,3.72v1.47c0,.12.14.23.38.33a9.73,9.73,0,0,0,2.9.43A4.72,4.72,0,0,1,11,16.64Z" transform="translate(-0.62 -1.36)"/><path class="cls-2" d="M16.62,15.06H16.2a3.7,3.7,0,0,0-1.14.18,2.68,2.68,0,0,1-1,1.36,4.71,4.71,0,0,1,3,4.41,9.73,9.73,0,0,0,2.9-.43c.24-.1.38-.21.38-.33V18.78A3.72,3.72,0,0,0,16.62,15.06Z" transform="translate(-0.62 -1.36)"/><path class="cls-2" d="M8.63,14.59a2.08,2.08,0,0,0,1.23-.41,2.66,2.66,0,0,1,.85-1.72,2.09,2.09,0,1,0-2.09,2.12Z" transform="translate(-0.62 -1.36)"/><circle class="cls-2" cx="11.93" cy="13.1" r="2.09"/><path class="cls-2" d="M12.9,17h-.42a3.72,3.72,0,0,0-3.72,3.72v1.47c0,.12.14.23.38.33A11.16,11.16,0,0,0,12.7,23a11.16,11.16,0,0,0,3.55-.44c.24-.1.38-.21.38-.33V20.75A3.72,3.72,0,0,0,12.9,17Z" transform="translate(-0.62 -1.36)"/><path d="M22.64,3.38a.26.26,0,0,1-.13.09v.08l-.25,0-.13,0h0a.26.26,0,0,1-.16-.05l0,0-.29,0a.64.64,0,0,1-.37-.19l-.18,0a5,5,0,0,1,0-.91l.11,0a.64.64,0,0,1,.28-.26L21.7,2l0,0a.26.26,0,0,1,.17-.1l.13,0,.23-.11v.08a.27.27,0,0,1,.15.05.26.26,0,0,1,.11.17l.18,1.18A.27.27,0,0,1,22.64,3.38Z" transform="translate(-0.62 -1.36)"/><path class="cls-1" d="M19.53,8.27c.3,1.15.58,2.24.9,3.22l-.9.16c-.3-1-.57-2-.87-3.15h0l-.25-.95a4.38,4.38,0,0,1,.44-3.95A3.58,3.58,0,0,1,21,2.36a5,5,0,0,0,0,.91,2.64,2.64,0,0,0-1.53.88,3.56,3.56,0,0,0-.27,3.16Z" transform="translate(-0.62 -1.36)"/><path d="M26,2.78h0a.64.64,0,0,1-.36.24l-.29.07,0,0a.26.26,0,0,1-.18.07H25l-.24.06V3.15a.27.27,0,0,1-.2-.27l.07-1.19a.26.26,0,0,1,.23-.25V1.36l.24.08h.13a.26.26,0,0,1,.18.09l0,0,.28.1a.64.64,0,0,1,.28.2h0A2.46,2.46,0,0,1,26,2.78Z" transform="translate(-0.62 -1.36)"/><path class="cls-1" d="M29.23,6.58a5.12,5.12,0,0,0-.13.59c-.26,1.64-.55,3.09-.87,4.35l-.9-.11c.3-1.16.6-2.6.88-4.37a5.88,5.88,0,0,1,.15-.69,3,3,0,0,0-.24-2.46A3.06,3.06,0,0,0,26,2.78a2.46,2.46,0,0,0,0-.91,4,4,0,0,1,2.82,1.48A3.89,3.89,0,0,1,29.23,6.58Z" transform="translate(-0.62 -1.36)"/><path d="M28.23,11.52c-.76,3-1.67,4.85-2.7,5.52a1.76,1.76,0,0,1-.48.22,12,12,0,0,1-.22,1.62A12.23,12.23,0,1,1,9,4.81l.29.87A11.31,11.31,0,1,0,23.75,19.4a11,11,0,0,0,.38-2.19,5.29,5.29,0,0,1-3.29-2.52l-.05-.08c-.09-.15-.17-.3-.26-.45s-.3-.6-.44-.93c-.21-.49-.39-1-.57-1.57l.9-.16c.83,2.56,1.89,4.41,4.12,4.9l.11,0a.55.55,0,0,0,.37-.13C25.46,16,26.4,15,27.33,11.4Z" transform="translate(-0.62 -1.36)"/></svg>