<svg id="Layer_19" data-name="Layer 19" xmlns="http://www.w3.org/2000/svg" viewBox="0 0 24.46 29.5"><defs><style>.cls-1{fill:#f15a24;}</style></defs><title>icon-man hinh dt</title><path class="cls-1" d="M20.08,26.73A24.52,24.52,0,0,0,15.4,24.8c-.85-.25-1.74-.4-2.58-.67a3.35,3.35,0,0,1-1.43-.78.32.32,0,0,0-.25-.1H5.08c-.16,0-.19,0-.19-.19q0-9.9,0-19.79c0-.15,0-.19.19-.19H19c.1,0,.12,0,.12.12,0,.4,0,.8,0,1.2,0,2,0,4.07,0,6.11,0,.22,0,.44,0,.66,0,.07,0,.11.11.09a4.18,4.18,0,0,1,.81-.08c.16,0,.18-.06.18-.2,0-1.34,0-2.68,0-4s0-2.76,0-4.14a2.47,2.47,0,0,0-.7-1.72A2.57,2.57,0,0,0,17.61.24l-1,0a1.36,1.36,0,0,1-.38,0H9.46s-.08,0-.12,0L6.56.25a3.43,3.43,0,0,0-.73.05,2.6,2.6,0,0,0-1.32.77A2.34,2.34,0,0,0,3.83,2.7c0,.51,0,1,0,1.52q0,7.74,0,15.49c0,2.47,0,4.94,0,7.4a2.41,2.41,0,0,0,.06.64,2.7,2.7,0,0,0,2.34,1.89c.83,0,1.66,0,2.5.05,2.9,0,5.81,0,8.71,0a2.71,2.71,0,0,0,2.73-2.77A.16.16,0,0,0,20.08,26.73ZM10.9,1.52l.18,0a18.63,18.63,0,0,1,1.92,0,.3.3,0,0,1,.31.27c0,.2,0,.32-.24.34a9.36,9.36,0,0,1-1.1,0H11a.35.35,0,0,1-.28-.09A.31.31,0,0,1,10.9,1.52ZM12,27.59a1.39,1.39,0,0,1-1.46-1.43A1.44,1.44,0,0,1,12,24.77a1.38,1.38,0,0,1,1.4,1.41A1.42,1.42,0,0,1,12,27.59Z" transform="translate(-3.79 -0.19)"/><path class="cls-1" d="M28.24,22.65a25.86,25.86,0,0,0-.48-2.94A9.27,9.27,0,0,0,27,17.39c-.31-.59-.63-1.17-1-1.75-.64-1.14-1.28-2.28-2-3.38a1.25,1.25,0,0,0-.36-.38,1.39,1.39,0,0,0-2.18,1,4.33,4.33,0,0,0,0,.58.8.8,0,0,1-.11-.15,4.28,4.28,0,0,0-.55-.78,1.38,1.38,0,0,0-1.75-.17,1.34,1.34,0,0,0-.59,1.05c0,.17,0,.34,0,.51-.59-.79-1.1-1.06-1.78-.84a1.42,1.42,0,0,0-1,1.81c-.21-.35-.42-.69-.62-1-.67-1.14-1.33-2.3-2-3.42a1.38,1.38,0,0,0-2-.3,1.3,1.3,0,0,0-.35,1.62c.1.17.18.35.28.53,1.15,2.1,2.36,4.16,3.55,6.23l1.26,2.2-.11,0c-.7-.16-1.39-.39-2.1-.51a1.55,1.55,0,0,0-2,1.72,1.48,1.48,0,0,0,1.08,1.33l1.59.46a32.74,32.74,0,0,1,3.55,1.1,25.12,25.12,0,0,1,3.78,2,.2.2,0,0,0,.24,0c2-1.17,4-2.34,6.07-3.5A.46.46,0,0,0,28.24,22.65Z" transform="translate(-3.79 -0.19)"/><path class="cls-1" d="M9.86,10.46a.52.52,0,0,0-.4-.56c-.9-.28-1.8-.54-2.72-.76a.57.57,0,0,0-.28,0A.6.6,0,0,0,6,9.69a.64.64,0,0,0,.49.65c.89.24,1.78.5,2.68.71A.58.58,0,0,0,9.86,10.46Z" transform="translate(-3.79 -0.19)"/><path class="cls-1" d="M13.67,5.14a.55.55,0,0,0-.68.27,1.81,1.81,0,0,0-.13.3c-.27.85-.49,1.72-.69,2.6a.57.57,0,0,0,.6.72.52.52,0,0,0,.54-.38c.11-.36.22-.72.31-1.08.16-.6.35-1.19.45-1.81A.6.6,0,0,0,13.67,5.14Z" transform="translate(-3.79 -0.19)"/><path class="cls-1" d="M7.38,14.54c.47-.24.93-.49,1.38-.75a12.8,12.8,0,0,0,1.12-.69.58.58,0,0,0,.27-.45A.6.6,0,0,0,9.4,12a2.55,2.55,0,0,0-.34.15c-.5.25-1,.54-1.46.83a8.61,8.61,0,0,0-.88.57.49.49,0,0,0-.19.55C6.68,14.48,6.93,14.77,7.38,14.54Z" transform="translate(-3.79 -0.19)"/><path class="cls-1" d="M10.86,9.26a.59.59,0,0,0,.28-.8Q10.47,7.19,9.7,6a.59.59,0,0,0-1,.54c.37.71.77,1.4,1.18,2.09a4.72,4.72,0,0,0,.33.49A.53.53,0,0,0,10.86,9.26Z" transform="translate(-3.79 -0.19)"/><path class="cls-1" d="M14.76,10.28l.24-.11q1.14-.61,2.22-1.31a.59.59,0,0,0,.28-.54A.43.43,0,0,0,17.37,8a.52.52,0,0,0-.7-.13,22.76,22.76,0,0,0-2.58,1.47.61.61,0,0,0-.14.72A.55.55,0,0,0,14.76,10.28Z" transform="translate(-3.79 -0.19)"/></svg>