<svg id="Layer_10" data-name="Layer 10" xmlns="http://www.w3.org/2000/svg" viewBox="0 0 22.8 29.11"><defs><style>.cls-1{fill:#753806;}.cls-2{fill:#ffbd2d;}</style></defs><title>icon_BH Ngheof</title><path class="cls-1" d="M17.4,29.26a1.11,1.11,0,0,1-1.2-1l-1.09-12h-.8L12.94,28.57a1.11,1.11,0,0,1-1.1,1h-.12a1.11,1.11,0,0,1-1-1.22L12.21,15a1.08,1.08,0,0,1,.13-.4,1.42,1.42,0,0,0,.78.23h3.05a1.42,1.42,0,0,0,.88-.31,1.1,1.1,0,0,1,.17.5l1.18,13A1.11,1.11,0,0,1,17.4,29.26Z" transform="translate(-3.63 -0.44)"/><path class="cls-1" d="M17.6,9.57v.61l-2-.24.16-.11a1.23,1.23,0,1,0-1.38-2l-2.1,1.42.52-2.33A1.11,1.11,0,0,0,12.68,6h0l0,0h0a3,3,0,0,0,3.79,0h0a1.31,1.31,0,0,1,.26.09l0,.07a1.35,1.35,0,0,0-.06,1.15l.84,2.05Z" transform="translate(-3.63 -0.44)"/><path class="cls-1" d="M17.6,12.76v.67a1.43,1.43,0,0,1-1.43,1.43H13.12a1.43,1.43,0,0,1-1.43-1.43v-.8l1.37-.93s.62.57,1.09.63l3.34.39Z" transform="translate(-3.63 -0.44)"/><path class="cls-1" d="M15.64,9.78l-.2.14L15,9.87l-.6-.07a1.2,1.2,0,0,0-1.3,1.12,1.31,1.31,0,0,0,0,.32,1.26,1.26,0,0,0,0,.21l-1.47,1-.63.43a1.11,1.11,0,0,1-1.7-1.16l1.18-5.32a1.11,1.11,0,0,1,2-.38h0a1.11,1.11,0,0,1,.16.86l-.58,2.6,2.27-1.54a1.11,1.11,0,0,1,1.24,1.84Z" transform="translate(-3.63 -0.44)"/><path class="cls-1" d="M15.64,9.78l-.2.14L15,9.87l-.6-.07a1.2,1.2,0,0,0-1.3,1.12,1.31,1.31,0,0,0,0,.32,1.26,1.26,0,0,0,0,.21l-1.47,1-.63.43a1.11,1.11,0,0,1-1.7-1.16l1.18-5.32a1.11,1.11,0,0,1,2-.38h0a1.11,1.11,0,0,1,.16.86l-.58,2.6,2.27-1.54a1.11,1.11,0,0,1,1.24,1.84Z" transform="translate(-3.63 -0.44)"/><path class="cls-1" d="M20.93,12.33a1.11,1.11,0,0,1-.89.45h-.12l-2.32-.25-3.15-.34a1.11,1.11,0,0,1-1-.94,1.07,1.07,0,0,1,0-.28,1.11,1.11,0,0,1,1.22-1l.56.06,2.35.25.65.07L17.6,8.89l-.79-1.8a1.11,1.11,0,0,1,.06-1,1.09,1.09,0,0,1,.51-.46,1.11,1.11,0,0,1,1.46.57l2.22,5A1.11,1.11,0,0,1,20.93,12.33Z" transform="translate(-3.63 -0.44)"/><path class="cls-1" d="M14.57.44a3,3,0,0,0-1.88,5.24h0a3,3,0,0,0,3.79,0h0A3,3,0,0,0,14.57.44Zm-1.3,5.17a1.3,1.3,0,0,1,1.3-.89,1.3,1.3,0,0,1,1.3.89Z" transform="translate(-3.63 -0.44)"/><polygon class="cls-2" points="16.55 6.06 18.18 5.03 18.47 5.91 20.98 4.73 18.03 6.8 17.73 5.91 16.55 6.06"/><polygon class="cls-2" points="17.57 8.7 19.61 7.91 19.74 8.97 22.8 8.21 18.6 10.3 18.92 8.8 17.57 8.7"/><polygon class="cls-2" points="6.24 5.62 4.62 4.58 4.32 5.47 1.81 4.29 4.77 6.36 5.06 5.47 6.24 5.62"/><polygon class="cls-2" points="5.23 8.26 3.19 7.46 3.06 8.52 0 7.76 4.2 9.86 3.88 8.36 5.23 8.26"/></svg>