<svg id="Layer_1" data-name="Layer 1" xmlns="http://www.w3.org/2000/svg" viewBox="0 0 29.65 29.65"><defs><style>.cls-1{fill:none;stroke:#036;stroke-miterlimit:10;}.cls-2{fill:#4a4a4a;}.cls-3{fill:#17a2b8;}.cls-4{fill:#fefefe;}.cls-5{fill:#010101;}.cls-6{fill:#077e9e;}</style></defs><title>robot6</title><circle class="cls-1" cx="14.83" cy="14.83" r="14.33"/><path class="cls-2" d="M5.51,18.86c0-.07-.09,0-.14,0H4.76c-.14,0-.2-.06-.2-.2q0-2,0-4c0-.13.06-.19.19-.19H6.11c.06,0,.12,0,.17,0s0-.08,0-.12q0-1.08,0-2.15a.17.17,0,0,0,0-.12c0-.09.08-.1.15-.11H13.2c.14,0,.18,0,.21-.18.24-1.14.5-2.29.75-3.43a1.22,1.22,0,0,0,0-.16l.28.1s0,.08,0,.13l-.74,3.38c0,.1,0,.17.12.17.63,0,1.27,0,1.9,0,.1,0,.13,0,.11-.13-.1-.46-.19-.93-.29-1.39l-.43-2.11a.71.71,0,0,1,.27-.06c.25,1.19.5,2.37.74,3.56,0,.14.1.13.2.13h7.36c.15,0,.21.06.21.21s0,.57,0,.85c0,.44,0,.89,0,1.33,0,.13,0,.16.16.16h1.39c.18,0,.23,0,.23.22q0,2,0,3.9c0,.17-.05.22-.22.22s-.35,0-.53,0-.17,0-.17.16c0,1,0,1.92,0,2.88,0,.36,0,.36-.36.36H18.25c-.17,0-.22,0-.19.2s0,0,0,0,0,.27,0,.36.22,0,.33,0,.1.1.1.16,0,.42,0,.62,0,.11.11.11h1c.08,0,.12,0,.17-.1a2.55,2.55,0,0,1,3.81,0,2.09,2.09,0,0,1,.55,1h-.29l0,0a2.25,2.25,0,0,0-3.53-1,.55.55,0,0,0-.17.19H21.7c.18,0,.22,0,.22.22s0,.44,0,.66h-.29c0-.12,0-.25,0-.37s0-.21-.21-.21H9.18c-.18,0-.42-.08-.52,0s0,.36,0,.54H8.35c0-.22,0-.44,0-.65s0-.22.21-.22H9.69s.1,0,.13,0a2.18,2.18,0,0,0-1.92-.6,2.2,2.2,0,0,0-1.79,1.52H5.82a2.09,2.09,0,0,1,.55-1,2.54,2.54,0,0,1,3.81,0,.24.24,0,0,0,.2.1H12c.1,0,.14,0,.14-.13s0-.42,0-.62,0-.17.15-.14.27,0,.27-.24.06-.29,0-.37-.24,0-.37,0H5.74c-.1,0-.21,0-.23-.13s0-.08,0-.12q0-1.49,0-3S5.54,18.9,5.51,18.86ZM4.84,17.6c0,.27,0,.53,0,.8,0,.08,0,.11.11.11h.43c.11,0,.13,0,.13-.14,0-.25,0-.51,0-.76,0-.1,0-.2,0-.3s.05-.22.23-.23h.43c.06,0,.1,0,.1-.08,0-.44,0-.87,0-1.31,0-.28,0-.56,0-.84,0-.08,0-.1-.1-.1H4.92c-.08,0-.11,0-.11.11s0,.36,0,.54,0,.2,0,.29Zm20.53-1.92c0-.28,0-.55,0-.83,0-.09,0-.1-.11-.1H24c-.08,0-.12,0-.12.11,0,.27,0,.54,0,.81,0,.44,0,.87,0,1.31,0,.09.05.09.12.09h.56a.19.19,0,0,1,.21.2c0,.1,0,.2,0,.3,0,.28,0,.55,0,.83,0,.09,0,.14.13.13h.35c.11,0,.14,0,.14-.14,0-.28,0-.55,0-.83ZM21,21.93h3.34c.13,0,.15,0,.15-.16q0-2.12,0-4.24c0-.12,0-.16-.15-.16H22.41a.28.28,0,0,0-.21.09c-.18.17-.38.32-.56.5a7.47,7.47,0,0,0-.65.63l-1.09,1a.35.35,0,0,1-.25.11H10.31a.3.3,0,0,1-.24-.11L8,17.45a.27.27,0,0,0-.22-.09H6c-.14,0-.17,0-.17.17q0,2.11,0,4.22c0,.15,0,.18.19.18H21Zm.32-9.69a.28.28,0,0,0-.17,0H6.72c-.13,0-.17,0-.17.17q0,2.27,0,4.54c0,.13,0,.18.17.17H7.88a.41.41,0,0,1,.33.15l2,2.09a.31.31,0,0,0,.25.11h9.09a.32.32,0,0,0,.24-.1c.41-.39.84-.77,1.25-1.17s.63-.56.91-.87a.32.32,0,0,0,.09-.06.47.47,0,0,1,.44-.17h.94c.14,0,.19,0,.19-.18,0-.85,0-1.69,0-2.54q0-1,0-2c0-.09,0-.15-.12-.15Zm-6,10.87H12.55c-.13,0-.17,0-.16.16a1.35,1.35,0,0,1,0,.29c0,.15,0,.2.19.2h5.55c.08,0,.11,0,.11-.11a3.14,3.14,0,0,1,0-.37c0-.13,0-.16-.16-.16Zm0-.89H13.22c-.39,0-.39,0-.4.4,0,.15,0,.18.19.18h4.33c.43,0,.43,0,.43-.43,0-.12,0-.15-.16-.15Z" transform="translate(-0.17 -0.17)"/><path class="cls-3" d="M8.64,24.62c0-.19-.08-.42,0-.54s.34,0,.52,0H21.42c.24,0,.21,0,.21.21s0,.25,0,.37Z" transform="translate(-0.17 -0.17)"/><path class="cls-2" d="M15.38,8.23a.71.71,0,0,0-.27.06,3.25,3.25,0,0,1-.64,0l-.28-.1A1.78,1.78,0,0,1,13.1,6.5,1.79,1.79,0,0,1,14,4.87a2.59,2.59,0,0,1,.65-.25h.45l.38.12a1.81,1.81,0,0,1,1.12,1.64A1.81,1.81,0,0,1,15.41,8.2ZM13.48,7V7a.21.21,0,0,0,0,0,1.43,1.43,0,0,0,2.72-.15,1.34,1.34,0,0,0,.07-.6,1.5,1.5,0,0,0-1-1.35,1.35,1.35,0,0,0-1.5.35A1.56,1.56,0,0,0,13.47,7,0,0,0,0,0,13.48,7Z" transform="translate(-0.17 -0.17)"/><path class="cls-3" d="M6.11,24.62A2.2,2.2,0,0,1,7.9,23.1a2.18,2.18,0,0,1,1.92.6c0,.07-.09,0-.13,0H8.55c-.18,0-.21,0-.21.22s0,.44,0,.65H6.78c0-.08,0-.12.06-.17a2.62,2.62,0,0,1,.74-.64A4.08,4.08,0,0,1,9,23.36a1.76,1.76,0,0,0-.59-.11,2.22,2.22,0,0,0-1.51.54,1.52,1.52,0,0,0-.57.82Z" transform="translate(-0.17 -0.17)"/><path class="cls-3" d="M21.92,24.62c0-.22,0-.44,0-.66s0-.22-.22-.22H20.11a.55.55,0,0,1,.17-.19,2.25,2.25,0,0,1,3.53,1l0,0h-.19a.57.57,0,0,0-.1-.27,2,2,0,0,0-.61-.67,2.2,2.2,0,0,0-2-.33l.4.08a3,3,0,0,1,1.68.94c.06.07.15.13.12.24Z" transform="translate(-0.17 -0.17)"/><path class="cls-4" d="M23.17,24.62c0-.11-.07-.17-.12-.24a3,3,0,0,0-1.68-.94l-.4-.08a2.2,2.2,0,0,1,2,.33,2,2,0,0,1,.61.67.57.57,0,0,1,.1.27Z" transform="translate(-0.17 -0.17)"/><path class="cls-4" d="M6.3,24.62a1.52,1.52,0,0,1,.57-.82,2.22,2.22,0,0,1,1.51-.54,1.76,1.76,0,0,1,.59.11,4.08,4.08,0,0,0-1.38.45,2.62,2.62,0,0,0-.74.64s-.1.09-.06.17Z" transform="translate(-0.17 -0.17)"/><path class="cls-5" d="M6.27,12a.17.17,0,0,1,0,.12q0,1.08,0,2.15s0,.09,0,.12Z" transform="translate(-0.17 -0.17)"/><path class="cls-3" d="M21.93,17.29c-.28.32-.61.58-.91.87s-.84.78-1.25,1.17a.32.32,0,0,1-.24.1H10.44a.31.31,0,0,1-.25-.11l-2-2.09a.41.41,0,0,0-.33-.15H6.72c-.14,0-.17,0-.17-.17q0-2.27,0-4.54c0-.13,0-.17.17-.17H21.14a.28.28,0,0,1,.17,0c0,.05,0,.1,0,.15.11.39.22.77.31,1.17a14.29,14.29,0,0,1,.3,3.1C21.94,16.87,21.91,17.08,21.93,17.29Zm-5.54-1a.06.06,0,0,0,.06.07,1,1,0,0,0,.24.24.25.25,0,0,0,0,.06,2.06,2.06,0,0,0,1.74.43A2.11,2.11,0,1,0,16,15.4a1.57,1.57,0,0,0,.41.9Zm-9.68.48a.88.88,0,0,0,0-.1l.36-1.75c.12-.58.24-1.16.36-1.73,0-.06,0-.15.11-.16l1.76-.16,1.51-.14,1.89-.18,1.45-.14c-.38,0-.76,0-1.14,0-.7,0-1.41,0-2.11,0-1,0-2,0-3,0H7c-.1,0-.14,0-.16.14,0,.37,0,.73,0,1.1C6.75,14.74,6.73,15.76,6.7,16.78Zm5.3.48a2.11,2.11,0,1,0-2.11-2.11A2.11,2.11,0,0,0,12,17.26Z" transform="translate(-0.17 -0.17)"/><path class="cls-3" d="M21,21.93H6c-.14,0-.19,0-.19-.18q0-2.11,0-4.22c0-.13,0-.17.17-.17H7.81a.27.27,0,0,1,.22.09l2,2.17a.3.3,0,0,0,.24.11h9.34a.35.35,0,0,0,.25-.11l1.09-1a.44.44,0,0,0,0,.22,4.63,4.63,0,0,1,.24,1.31A5.52,5.52,0,0,1,21,21.93Zm-8.85-.11h0l-1.36-.13L8.9,21.51,6.66,21.3a.16.16,0,0,1-.17-.16c-.11-.58-.23-1.17-.35-1.75L6,18.57c0,1,0,2.09,0,3.14,0,.12.06.11.14.11Z" transform="translate(-0.17 -0.17)"/><path class="cls-6" d="M21,21.93a5.52,5.52,0,0,0,.29-1.8A4.63,4.63,0,0,0,21,18.82a.44.44,0,0,1,0-.22,7.47,7.47,0,0,1,.65-.63c.17-.18.37-.33.56-.5a.28.28,0,0,1,.21-.09h1.92c.12,0,.15,0,.15.16q0,2.12,0,4.24c0,.11,0,.16-.15.16Z" transform="translate(-0.17 -0.17)"/><path class="cls-6" d="M21.93,17.29c0-.21,0-.42,0-.64a14.29,14.29,0,0,0-.3-3.1c-.09-.39-.2-.78-.31-1.17,0-.05,0-.1,0-.15h2.16c.12,0,.12.06.12.15q0,1,0,2c0,.85,0,1.69,0,2.54,0,.15,0,.19-.19.18h-.94a.47.47,0,0,0-.44.17A.32.32,0,0,1,21.93,17.29Z" transform="translate(-0.17 -0.17)"/><path class="cls-3" d="M14.46,8.27a3.25,3.25,0,0,0,.64,0l.43,2.11c.09.46.19.93.29,1.39,0,.1,0,.13-.11.13-.63,0-1.27,0-1.9,0-.14,0-.14-.06-.12-.17l.74-3.38S14.46,8.31,14.46,8.27Z" transform="translate(-0.17 -0.17)"/><path class="cls-3" d="M15.33,23.11h2.75c.13,0,.17,0,.16.16a3.14,3.14,0,0,0,0,.37c0,.08,0,.12-.11.11H12.58c-.16,0-.21,0-.19-.2a1.35,1.35,0,0,0,0-.29c0-.13,0-.16.16-.16Z" transform="translate(-0.17 -0.17)"/><path class="cls-3" d="M15.31,22.22h2.3c.12,0,.16,0,.16.15,0,.43,0,.43-.43.43H13c-.14,0-.19,0-.19-.18,0-.4,0-.4.4-.4Z" transform="translate(-0.17 -0.17)"/><path class="cls-3" d="M24.76,17.58c0-.1,0-.2,0-.3a.19.19,0,0,0-.21-.2H24c-.06,0-.12,0-.12-.09,0-.44,0-.87,0-1.31h1.48v1.89Z" transform="translate(-0.17 -0.17)"/><path class="cls-3" d="M6.25,15.68c0,.44,0,.87,0,1.31,0,.08,0,.08-.1.08H5.73c-.18,0-.23.06-.23.23s0,.2,0,.3H4.84V15.68Z" transform="translate(-0.17 -0.17)"/><path class="cls-4" d="M6.25,15.68H4.84c-.07-.09,0-.2,0-.29s0-.36,0-.54,0-.11.11-.11H6.16c.07,0,.1,0,.1.1C6.26,15.12,6.25,15.4,6.25,15.68Z" transform="translate(-0.17 -0.17)"/><path class="cls-4" d="M25.37,15.68H23.89c0-.27,0-.54,0-.81,0-.1,0-.11.12-.11h1.26c.08,0,.11,0,.11.1C25.37,15.13,25.37,15.41,25.37,15.68Z" transform="translate(-0.17 -0.17)"/><path class="cls-6" d="M4.84,17.6H5.5c0,.25,0,.51,0,.76,0,.1,0,.15-.13.14H4.94c-.08,0-.11,0-.11-.11C4.83,18.13,4.83,17.87,4.84,17.6Z" transform="translate(-0.17 -0.17)"/><path class="cls-6" d="M24.76,17.58h.61c0,.28,0,.55,0,.83,0,.1,0,.14-.14.14h-.35c-.1,0-.13,0-.13-.13C24.77,18.13,24.77,17.86,24.76,17.58Z" transform="translate(-0.17 -0.17)"/><path class="cls-3" d="M13.47,7a1.56,1.56,0,0,1,.35-1.66A1.35,1.35,0,0,1,15.32,5a1.5,1.5,0,0,1,1,1.35,1.34,1.34,0,0,1-.07.6c-.08,0-.11.06-.15.1a1.65,1.65,0,0,1-1.29.46,2.63,2.63,0,0,1-1.09-.39c-.06,0-.11-.11-.2-.07V7h0Zm2.46-1.26v0h0a2.6,2.6,0,0,0-.59-.53.94.94,0,0,0-1.13,0,2.29,2.29,0,0,0-.49.5h0a.13.13,0,0,0,.09,0,2.12,2.12,0,0,1,1.44-.18C15.49,5.58,15.7,5.68,15.94,5.73Z" transform="translate(-0.17 -0.17)"/><path class="cls-6" d="M13.49,7c.09,0,.14,0,.2.07a2.63,2.63,0,0,0,1.09.39A1.65,1.65,0,0,0,16.07,7s.07-.11.15-.1a1.43,1.43,0,0,1-2.72.15A.21.21,0,0,1,13.49,7Z" transform="translate(-0.17 -0.17)"/><path class="cls-2" d="M13.47,7h0A0,0,0,0,1,13.47,7Z" transform="translate(-0.17 -0.17)"/><path class="cls-5" d="M16.68,16.61a1,1,0,0,1-.24-.24s0-.07-.06-.07h0a.8.8,0,0,0,0-.12,1.16,1.16,0,0,1-.13-.72,1.26,1.26,0,0,1,1.55-1.11,1.29,1.29,0,0,1,1,1.34,1.26,1.26,0,0,1-1.21,1.16,1.29,1.29,0,0,1-.6-.11A.94.94,0,0,0,16.68,16.61Z" transform="translate(-0.17 -0.17)"/><path class="cls-4" d="M6.7,16.78c0-1,0-2,.1-3,0-.37,0-.73,0-1.1,0-.12.05-.14.16-.14H8c1,0,2,0,3,0,.7,0,1.41,0,2.11,0,.38,0,.76,0,1.14,0l-1.45.14-1.89.18-1.51.14L7.57,13c-.12,0-.1.1-.11.16-.12.58-.24,1.16-.36,1.73l-.36,1.75A.88.88,0,0,1,6.7,16.78Z" transform="translate(-0.17 -0.17)"/><path class="cls-2" d="M12,17.26a2.11,2.11,0,1,1,2.11-2.12A2.11,2.11,0,0,1,12,17.26Zm-1.86-1.64a1.31,1.31,0,0,0,.11.54,1.24,1.24,0,0,0,1.07.76s0,0,.06.05a1.85,1.85,0,0,0,.85.08A1.93,1.93,0,1,0,11,13.52,1.9,1.9,0,0,0,10.14,15.62Z" transform="translate(-0.17 -0.17)"/><path class="cls-2" d="M16.68,16.61a.94.94,0,0,1,.25.13,1.29,1.29,0,0,0,.6.11c0,.08,0,.06.07.06a1.93,1.93,0,1,0,.09-3.77,2,2,0,0,0-1.53,2.28s0,0,.05,0a1.16,1.16,0,0,0,.13.72.8.8,0,0,1,0,.12,1.57,1.57,0,0,1-.41-.9,2.11,2.11,0,1,1,2.49,1.71,2.06,2.06,0,0,1-1.74-.43A.25.25,0,0,1,16.68,16.61Z" transform="translate(-0.17 -0.17)"/><path class="cls-2" d="M16.39,16.29s.05,0,.06.07A.06.06,0,0,1,16.39,16.29Z" transform="translate(-0.17 -0.17)"/><path class="cls-4" d="M12.14,21.82h-6c-.08,0-.14,0-.14-.11,0-1,0-2.09,0-3.14l.17.82c.12.58.24,1.17.35,1.75a.16.16,0,0,0,.17.16l2.24.21,1.88.17,1.36.13Z" transform="translate(-0.17 -0.17)"/><path class="cls-4" d="M13.72,5.73a2.3,2.3,0,0,1,.49-.5.94.94,0,0,1,1.13,0,2.6,2.6,0,0,1,.59.53h0c-.23,0-.45-.16-.68-.21a2.12,2.12,0,0,0-1.44.18.13.13,0,0,1-.09,0Z" transform="translate(-0.17 -0.17)"/><polygon class="cls-4" points="13.55 5.56 13.55 5.57 13.55 5.56 13.55 5.56"/><path class="cls-4" d="M15.93,5.74h0v0Z" transform="translate(-0.17 -0.17)"/><path class="cls-4" d="M16.21,15.45s0,0-.05,0A1.93,1.93,0,1,1,20,14.69a1.92,1.92,0,0,1-2.35,2.22s-.1,0-.07-.06a1.26,1.26,0,0,0,1.21-1.16,1.29,1.29,0,0,0-1-1.34A1.26,1.26,0,0,0,16.21,15.45Z" transform="translate(-0.17 -0.17)"/><path class="cls-4" d="M10.14,15.62a1.9,1.9,0,0,1,.83-2.1,1.93,1.93,0,1,1,1.27,3.54,1.85,1.85,0,0,1-.85-.08s-.07,0-.06-.05a1.27,1.27,0,1,0,0-2.54A1.28,1.28,0,0,0,10.14,15.62Z" transform="translate(-0.17 -0.17)"/><path class="cls-5" d="M10.14,15.62a1.27,1.27,0,0,1,2.52-.24,1.27,1.27,0,0,1-1.33,1.55,1.24,1.24,0,0,1-1.07-.76A1.31,1.31,0,0,1,10.14,15.62Z" transform="translate(-0.17 -0.17)"/></svg>