<svg xmlns="http://www.w3.org/2000/svg" viewBox="0 0 28.39 13.63"><defs><style>.cls-1{isolation:isolate;}.cls-2,.cls-6{fill:#361f3b;}.cls-3{fill:#a0a0a0;}.cls-4{fill:#c9c9c9;}.cls-5{fill:#0ba7a7;}.cls-6{mix-blend-mode:overlay;}.cls-7{fill:#c5e8db;}.cls-8{fill:#fff;}.cls-9{fill:#077774;}</style></defs><title>icon_vat chat xe</title><g class="cls-1"><g id="Layer_13" data-name="Layer 13"><path class="cls-2" d="M23.38,17.3A2.59,2.59,0,1,0,26,20a.5.5,0,0,0,0-.05.24.24,0,0,0,0,0v0h0A2.59,2.59,0,0,0,23.38,17.3ZM21.26,21a2.3,2.3,0,0,1-.32-1.46H21A2.29,2.29,0,0,0,21.31,21Zm1.12,1a2.33,2.33,0,0,1-.91-.66l0,0a2.29,2.29,0,0,0,.88.64Zm3.11-1.37a2.23,2.23,0,0,1-.31.57l0,0a2.34,2.34,0,0,0,.29-.55A2.3,2.3,0,0,0,25,18.25l0,0A2.3,2.3,0,0,1,25.49,20.58Z" transform="translate(-1.09 -8.86)"/><path class="cls-2" d="M10.23,19.74h0q0-.08,0-.15a.22.22,0,0,0,0,0,2.56,2.56,0,0,0-.53-1.28h0l0,0a2.6,2.6,0,0,0-2-.93,2.59,2.59,0,1,0,2.62,2.56S10.23,19.78,10.23,19.74Zm-4.9.12H5.27a2.3,2.3,0,0,1,.3-1.08l0,0A2.28,2.28,0,0,0,5.34,19.86Zm.48-1.35,0,0A2.3,2.3,0,0,1,7,17.65l0,.05A2.3,2.3,0,0,0,5.82,18.51Zm1.84,3.78A2.25,2.25,0,0,1,7,22.2l0-.06a2.34,2.34,0,0,0,.62.08,2.3,2.3,0,0,0,2-1.22l0,0A2.3,2.3,0,0,1,7.66,22.28Z" transform="translate(-1.09 -8.86)"/><circle class="cls-3" cx="7.66" cy="19.86" r="1.33" transform="translate(-1.3 -8.77) rotate(-0.61)"/><circle class="cls-3" cx="23.41" cy="19.89" r="1.33" transform="translate(-1.3 -8.61) rotate(-0.61)"/><path class="cls-4" d="M7.64,18.53a1.33,1.33,0,0,0-.39.06A1.33,1.33,0,0,0,9,20.15a1.33,1.33,0,0,0-1.31-1.62Z" transform="translate(-1.09 -8.86)"/><path class="cls-4" d="M23.4,18.56a1.33,1.33,0,0,0-.39.06,1.33,1.33,0,0,0,1.7,1.56,1.33,1.33,0,0,0-1.31-1.62Z" transform="translate(-1.09 -8.86)"/><path class="cls-5" d="M29.46,17.52a.57.57,0,0,0-.57-.56l0-2a.84.84,0,0,0-.69-.82l-4.3-.8h-.11l-1.59-2.78a3.85,3.85,0,0,0-3.41-1.71L13,8.92a2.58,2.58,0,0,0-2,.86L8,13.51H7.65l-3.47.53a3.64,3.64,0,0,0-3.09,3.63v.07L6,17.7a2.6,2.6,0,0,1,3.11,0l12.32-.13a2.9,2.9,0,0,0-.64,1A2.59,2.59,0,0,1,23.27,17a2.62,2.62,0,0,1,2.53,1.43,2.9,2.9,0,0,0-.63-.94l4.27,0a.6.6,0,0,1,0,.11l0,1.62a.47.47,0,0,0,0,0ZM9.29,13.33l1.58-1.81,1-1.15,0,0,0,0,.15-.13.07-.06.18-.11.09,0,.1,0,0,0,0,0,.12,0,.16,0h0a2.45,2.45,0,0,1,.47-.05l1.81,0,0,3.54Zm12.55-.13-5.64.06,0-3.54,1.68,0h.34l.17,0,.17,0,.24,0,.13,0,.34.11.16.07h0l.17.09a2.46,2.46,0,0,1,.31.2,2.28,2.28,0,0,1,.27.23l.06.06.06.06a2,2,0,0,1,.2.28l.72,1.18.65,1.08Z" transform="translate(-1.09 -8.86)"/><path class="cls-5" d="M11.86,10.37l0,0,0,0-1,1.15Z" transform="translate(-1.09 -8.86)"/><path class="cls-5" d="M12.61,9.88l-.09,0,0,0Z" transform="translate(-1.09 -8.86)"/><path class="cls-5" d="M19.56,10.11a2.46,2.46,0,0,1,.31.2Z" transform="translate(-1.09 -8.86)"/><polygon class="cls-5" points="20.75 4.34 20.75 4.34 20.1 3.26 20.75 4.34"/><path class="cls-6" d="M19.56,10.11a2.46,2.46,0,0,1,.31.2Z" transform="translate(-1.09 -8.86)"/><polygon class="cls-6" points="20.75 4.34 20.75 4.34 20.1 3.26 20.75 4.34"/><path class="cls-7" d="M15.23,13.27l-5.94.06,1.58-1.81,1-1.15,0,0,0,0,.15-.13.07-.06.18-.11.09,0,.1,0,.09,0,.12,0,.16,0h0a2.45,2.45,0,0,1,.47-.05l1.81,0Z" transform="translate(-1.09 -8.86)"/><path class="cls-7" d="M11.86,10.37l0,0,0,0-1,1.15Z" transform="translate(-1.09 -8.86)"/><path class="cls-7" d="M12.61,9.88l-.09,0,0,0Z" transform="translate(-1.09 -8.86)"/><path class="cls-7" d="M21.84,13.2l-5.64.06,0-3.54,1.68,0h.34l.17,0,.17,0,.24,0,.13,0,.34.11.16.07h0l.17.09.31.2a2.28,2.28,0,0,1,.27.23l.06.06.06.06a2,2,0,0,1,.2.28l.72,1.18Z" transform="translate(-1.09 -8.86)"/><path class="cls-8" d="M21,11" transform="translate(-1.09 -8.86)"/><path class="cls-5" d="M4.82,20.16h0s0,0,0,0a.45.45,0,0,1,0,0S4.82,20.13,4.82,20.16Z" transform="translate(-1.09 -8.86)"/><path class="cls-5" d="M9.68,18.28a2.56,2.56,0,0,1,.53,1.28A2.92,2.92,0,0,0,9.68,18.28Z" transform="translate(-1.09 -8.86)"/><path class="cls-5" d="M20.62,20h0a2.84,2.84,0,0,1,0-.39.45.45,0,0,1,0,0A3,3,0,0,0,20.62,20Z" transform="translate(-1.09 -8.86)"/><path class="cls-5" d="M26,19.73c0,.06,0,.11,0,.17h0a.24.24,0,0,1,0,0h0v-.07h0S26,19.78,26,19.73Z" transform="translate(-1.09 -8.86)"/><path class="cls-9" d="M29.48,19.18a.26.26,0,0,1,0,0,.77.77,0,0,1-.75.69H26a.24.24,0,0,0,0,0h0c0-.06,0-.11,0-.17s0,0,0-.08,0-.07,0-.11a.47.47,0,0,0,0,0,2.57,2.57,0,0,0-.22-1h0a2.9,2.9,0,0,0-.63-.94l4.27,0a.6.6,0,0,1,0,.11Z" transform="translate(-1.09 -8.86)"/><path class="cls-9" d="M26,19.54a3,3,0,0,0-.22-1.1,2.57,2.57,0,0,1,.22,1A.47.47,0,0,1,26,19.54Z" transform="translate(-1.09 -8.86)"/><path class="cls-9" d="M29.48,19.22a.76.76,0,0,1-.76.74H26v-.05a.24.24,0,0,1,0,0,.24.24,0,0,1,0,0h2.72A.77.77,0,0,0,29.48,19.22Z" transform="translate(-1.09 -8.86)"/><path class="cls-9" d="M6,17.7A2.9,2.9,0,0,0,4.82,19.9s0,.09,0,.13a.19.19,0,0,0,0,0,.45.45,0,0,0,0,0s0,0,0,0L2,20.19a.84.84,0,0,1-.85-.84l0-1.6Z" transform="translate(-1.09 -8.86)"/><path class="cls-9" d="M4.82,20.16a.45.45,0,0,1,0,0L2,20.24a.84.84,0,0,1-.85-.84v0a.84.84,0,0,0,.85.84Z" transform="translate(-1.09 -8.86)"/><path class="cls-9" d="M6,17.7a2.9,2.9,0,0,0-1.2,2.19A2.9,2.9,0,0,1,6,17.7Z" transform="translate(-1.09 -8.86)"/><path class="cls-9" d="M21.39,17.54a2.9,2.9,0,0,0-.64,1v0a2.5,2.5,0,0,0-.15.8.76.76,0,0,0,0,.11.21.21,0,0,0,0,0,.45.45,0,0,0,0,0,2.84,2.84,0,0,0,0,.39l-10.36.11v0a.48.48,0,0,0,0-.05,2.9,2.9,0,0,0,0-.42.22.22,0,0,0,0,0,2.56,2.56,0,0,0-.53-1.28h0l0,0a2.66,2.66,0,0,0-.57-.55Z" transform="translate(-1.09 -8.86)"/><path class="cls-9" d="M10.25,20.05a3,3,0,0,0,0-.31h0A2.89,2.89,0,0,0,9,17.67h.07a2.66,2.66,0,0,1,.57.55l0,0h0a2.56,2.56,0,0,1,.53,1.28.22.22,0,0,1,0,0,2.9,2.9,0,0,1,0,.42A.48.48,0,0,1,10.25,20.05Z" transform="translate(-1.09 -8.86)"/><path class="cls-9" d="M20.74,18.6a2.92,2.92,0,0,0-.15.8A2.5,2.5,0,0,1,20.74,18.6Z" transform="translate(-1.09 -8.86)"/><path class="cls-9" d="M20.62,20V20l-10.37.11a.47.47,0,0,0,0,0Z" transform="translate(-1.09 -8.86)"/></g></g></svg>