<svg id="Layer_15" data-name="Layer 15" xmlns="http://www.w3.org/2000/svg" viewBox="0 0 29.57 24.91"><defs><style>.cls-1{fill:#ededed;}.cls-2{fill:#eb5d47;}.cls-3{fill:#e5aa5c;}.cls-4{fill:#cb0814;}.cls-5{fill:#fbb03b;}</style></defs><title>icon_chay no</title><path class="cls-1" d="M4.61,19l-.08,0-.11-.08V18.8a.44.44,0,0,0,.12.11Z" transform="translate(-0.22 -2.55)"/><path class="cls-2" d="M4.61,19l-.08,0-.11-.08V18.8a.44.44,0,0,0,.12.11Z" transform="translate(-0.22 -2.55)"/><path class="cls-1" d="M5.44,27.13A4,4,0,0,0,7,27.45H5.39V27.1Z" transform="translate(-0.22 -2.55)"/><path class="cls-1" d="M5.43,21.39l0,0v0A.5.5,0,0,1,5.43,21.39Z" transform="translate(-0.22 -2.55)"/><path class="cls-3" d="M25.3,15.36v12.1H7a4.77,4.77,0,0,0,.51,0,13.17,13.17,0,0,0,4.19-1.15c3.36-1.62,3.87-4.56,3.29-7.6a33.14,33.14,0,0,0-3.07-7.83s-.66.62,0,5.35A18.53,18.53,0,0,1,10,11.35l4.91-4a.49.49,0,0,1,.61,0Z" transform="translate(-0.22 -2.55)"/><path class="cls-4" d="M4.19,11.48A9.73,9.73,0,0,1,3.46,13a8.58,8.58,0,0,0-1.08,2.85c-.05.3-.1.61-.13.92l-.65-.79-.31-.37a9.21,9.21,0,0,1,.11-1.8Z" transform="translate(-0.22 -2.55)"/><path class="cls-4" d="M1.4,13.78a9.21,9.21,0,0,0-.11,1.8l-.42-.51-.12-.14a.48.48,0,0,1,.07-.68l.45-.37Z" transform="translate(-0.22 -2.55)"/><path class="cls-4" d="M29.67,14.92,28,17a.48.48,0,0,1-.68.06L25.47,15.5l-.17-.14-9.78-8a.49.49,0,0,0-.61,0l-4.91,4a6.79,6.79,0,0,1-.15-2.27L8.2,12.59a5.89,5.89,0,0,0-.88-3.67s0-.06-.05-.1l7.48-6.16A.51.51,0,0,1,15,2.55a.16.16,0,0,1,.09,0,.13.13,0,0,1,.08,0,.55.55,0,0,1,.31.11L20.68,6.9v-2h4.51V9.32a1.12,1.12,0,0,0,0,.38l-.43-.92a2.86,2.86,0,0,1-.3,1.36L24.25,10c0-.63-.06-.73-.06-.73L24,9.73c-.67,1.39-1.43,3.48,1.34,3.86h0a1,1,0,0,0,.55-.08,2.12,2.12,0,0,0,1.26-1.29l2.45,2A.48.48,0,0,1,29.67,14.92Z" transform="translate(-0.22 -2.55)"/><path class="cls-4" d="M19,18.67v8.78H11.73V26.27c3.36-1.62,3.87-4.56,3.29-7.6Z" transform="translate(-0.22 -2.55)"/><path class="cls-2" d="M15,18.67a33.14,33.14,0,0,0-3.07-7.83s-.66.62,0,5.35A18.53,18.53,0,0,1,10,11.35a6.79,6.79,0,0,1-.15-2.27L8.2,12.59a5.89,5.89,0,0,0-.88-3.67s0-.06-.05-.1A11.85,11.85,0,0,0,3.78,5.17a6.55,6.55,0,0,1,.41,6.32A9.73,9.73,0,0,1,3.46,13a8.58,8.58,0,0,0-1.08,2.85c-.05.3-.1.61-.13.92A2.52,2.52,0,0,0,2.87,19c-.48-.31-1.5-1.22-1.58-3.47l-.42-.51C0,18-1,24.37,5.39,27.1l.05,0A4,4,0,0,0,7,27.45a4.77,4.77,0,0,0,.51,0,13.17,13.17,0,0,0,4.19-1.15C15.08,24.65,15.6,21.71,15,18.67ZM11.73,25.5a9.37,9.37,0,0,1-3.06.79,3.16,3.16,0,0,1-1.39-.17,6.29,6.29,0,0,1-1.89-1c-3-2.5-.77-6.79-.77-6.79a4,4,0,0,0-.08.61l.07.07-.08,0a2.51,2.51,0,0,0,.86,2.43v0a2,2,0,0,1-.15-1.69,3.48,3.48,0,0,1,.15-.52A4.61,4.61,0,0,1,6,18a3.78,3.78,0,0,0,.6-3.81,2.53,2.53,0,0,0-.38-.66,7.39,7.39,0,0,1,.65.43c2.52,1.84,2.3,3.6,2.27,3.8l1.09-2c-.25,1.71,1.39,4.09,1.39,4.09-.43-2.72,0-3.07,0-3.07.32.55.69,1.2,1,1.9C13.85,21.07,14.75,24,11.73,25.5Z" transform="translate(-0.22 -2.55)"/><path class="cls-2" d="M1.43,13.52c0,.09,0,.18,0,.26a9.21,9.21,0,0,0-.11,1.8l-.42-.51c.15-.51.3-.92.41-1.19A3.16,3.16,0,0,1,1.43,13.52Z" transform="translate(-0.22 -2.55)"/><path class="cls-2" d="M4.61,19l-.08,0-.11-.08V18.8a.44.44,0,0,0,.12.11Z" transform="translate(-0.22 -2.55)"/><path class="cls-2" d="M5.43,21.39l0,0v0A.5.5,0,0,1,5.43,21.39Z" transform="translate(-0.22 -2.55)"/><path class="cls-2" d="M4.54,18.9a0,0,0,0,0,0,0l-.11-.08V18.8A.44.44,0,0,0,4.54,18.9Z" transform="translate(-0.22 -2.55)"/><path class="cls-5" d="M11.73,25.5a9.37,9.37,0,0,1-3.06.79,3.16,3.16,0,0,1-1.39-.17,6.29,6.29,0,0,1-1.89-1c-3-2.5-.77-6.79-.77-6.79a4,4,0,0,0-.08.61.44.44,0,0,1-.12-.11v.05l.11.08a2.51,2.51,0,0,0,.86,2.43l0,0a.5.5,0,0,0,0-.07,2,2,0,0,1-.15-1.69,3.48,3.48,0,0,1,.15-.52A4.61,4.61,0,0,1,6,18a3.78,3.78,0,0,0,.6-3.81,2.53,2.53,0,0,0-.38-.66,7.39,7.39,0,0,1,.65.43c2.52,1.84,2.3,3.6,2.27,3.8l1.09-2c-.25,1.71,1.39,4.09,1.39,4.09-.43-2.72,0-3.07,0-3.07.32.55.69,1.2,1,1.9C13.85,21.07,14.75,24,11.73,25.5Z" transform="translate(-0.22 -2.55)"/><path class="cls-2" d="M27,9.94c.15.9-.14,1.28-.32,1.42a1,1,0,0,0,.08-.8,2.49,2.49,0,0,0-.29-.76,1.82,1.82,0,0,1-.08-2,2.59,2.59,0,0,0-1.15,1.57,1.12,1.12,0,0,0,0,.38l-.43-.92a2.86,2.86,0,0,1-.3,1.36L24.25,10c0-.63-.06-.73-.06-.73L24,9.73c-.67,1.39-1.43,3.48,1.34,3.86h0a1,1,0,0,0,.55-.08,2.12,2.12,0,0,0,1.26-1.29A3.6,3.6,0,0,0,27,9.94Zm-1.53,3.32-.12,0a.59.59,0,0,1-.25,0c-2.11-.23-1.2-1.74-.77-2.5,0,0,.12.09,0,.8a2,2,0,0,0,.37-1.07l.29.53a.68.68,0,0,1,.09-.44,1,1,0,0,1,.16-.24A2.11,2.11,0,0,1,25.7,10a.92.92,0,0,0,0,1.08h0l0,.07a1.1,1.1,0,0,1,.19.43c0,.16.05.36-.05.46a.62.62,0,0,0,.23-.63,1.36,1.36,0,0,0,0-.18,1.9,1.9,0,0,1,.11.25h0A1.29,1.29,0,0,1,25.42,13.26Z" transform="translate(-0.22 -2.55)"/><path class="cls-5" d="M25.42,13.26l-.12,0a.59.59,0,0,1-.25,0c-2.11-.23-1.2-1.74-.77-2.5,0,0,.12.09,0,.8a2,2,0,0,0,.37-1.07l.29.53a.68.68,0,0,1,.09-.44,1,1,0,0,1,.16-.24A2.11,2.11,0,0,1,25.7,10a.92.92,0,0,0,0,1.08h0l0,.07a1.1,1.1,0,0,1,.19.43c0,.16.05.36-.05.46a.62.62,0,0,0,.23-.63l.09.07h0A1.29,1.29,0,0,1,25.42,13.26Z" transform="translate(-0.22 -2.55)"/></svg>