<svg id="Layer_4" data-name="Layer 4" xmlns="http://www.w3.org/2000/svg" viewBox="0 0 22.82 30.08"><defs><style>.cls-1{fill:#4b2810;}.cls-2{fill:#f2b809;}.cls-3{fill:#03275a;}.cls-4{fill:#f37402;}.cls-5{fill:#f34605;}.cls-6{fill:#f9c3b9;}</style></defs><title>icon_Giao Duc</title><path class="cls-1" d="M13.87,15.38" transform="translate(-3.14 -0.15)"/><path class="cls-2" d="M23.84,2.84,23,3.19l-.16.06V3.1l-7.07-.88c-.08.26-.5.44-1,.44s-1.06-.23-1.06-.53.46-.53,1.06-.53,1,.19,1.05.46l7.06.88v-.2l.15,0h0Z" transform="translate(-3.14 -0.15)"/><polygon class="cls-2" points="19.86 2.54 19.86 4.91 19.69 4.91 19.69 2.59 19.84 2.55 19.86 2.54"/><path class="cls-3" d="M23.84,2.84,23,2.7h0l-.15,0v.2L23,3v.23Zm-1,.42h0l-.09,0Zm-11.27,1c0-.09,0-.15,0-.18A1.33,1.33,0,0,0,11.57,4.28Z" transform="translate(-3.14 -0.15)"/><path class="cls-3" d="M23,3.23l3-.74L14.91.15,3.14,2.67,14.91,5.24l7.84-2,.09,0V3.1l-7.07-.88c-.08.26-.5.44-1,.44s-1.06-.23-1.06-.53.46-.53,1.06-.53,1,.19,1.05.46l7.06.88v-.2l.15,0h0l.84.14L23,3.19ZM16.33,4.51l-1.42.25h0l-3.35-.65s0,.08,0,.18a1.33,1.33,0,0,1,0-.18L6.14,3a0,0,0,0,1,0,0,0,0,0,0,1,0,0l8.75,1.71,1.42-.25h0A0,0,0,0,1,16.33,4.51Z" transform="translate(-3.14 -0.15)"/><path class="cls-3" d="M14.72,1.76c-.53,0-.9.19-.9.37s.37.37.9.37.9-.19.9-.37S15.25,1.76,14.72,1.76Z" transform="translate(-3.14 -0.15)"/><circle class="cls-4" cx="19.82" cy="4.77" r="0.62"/><circle class="cls-2" cx="19.78" cy="4.73" r="0.62"/><path class="cls-2" d="M22.7,7.51" transform="translate(-3.14 -0.15)"/><path class="cls-4" d="M23.79,7.57l.11,0Z" transform="translate(-3.14 -0.15)"/><path class="cls-4" d="M22.37,7.62l0,0Z" transform="translate(-3.14 -0.15)"/><path class="cls-2" d="M23.44,7V6a.39.39,0,1,0-.77,0V7a1,1,0,0,1-.3.64,1.32,1.32,0,0,1,.75-.12V6.61a2.35,2.35,0,0,0,.3.91l.37.05C23.49,7.47,23.44,7,23.44,7Z" transform="translate(-3.14 -0.15)"/><path class="cls-5" d="M23.11,7.5l.3,0a2.35,2.35,0,0,1-.3-.91Z" transform="translate(-3.14 -0.15)"/><path class="cls-1" d="M11.43,9.07a7.6,7.6,0,0,0-.53,2.72s0,.06,0,.09,0,.17,0,.26c0,.38,0,.66,0,.75v0a.65.65,0,0,1-.63-.54c0-.08,0-.16,0-.24a10.23,10.23,0,0,1-.38-3.79c.36.2.72.37,1.07.52h0Z" transform="translate(-3.14 -0.15)"/><path class="cls-6" d="M18.87,11.94v1a4,4,0,0,1-8,0V11.87s0-.06,0-.09a7.6,7.6,0,0,1,.53-2.72,9.77,9.77,0,0,0,6.86,0A6.79,6.79,0,0,1,18.87,11.94Z" transform="translate(-3.14 -0.15)"/><path class="cls-1" d="M11.57,4.28a1.33,1.33,0,0,1,0-.18S11.56,4.19,11.57,4.28Z" transform="translate(-3.14 -0.15)"/><path class="cls-1" d="M10.9,12.91h0v0S10.9,12.91,10.9,12.91Z" transform="translate(-3.14 -0.15)"/><path class="cls-1" d="M20,11.85a1,1,0,0,1-.09.36,1.15,1.15,0,0,1-.28.4,1.16,1.16,0,0,1-.79.3c0-.28,0-.54,0-.78,0-.07,0-.13,0-.19a6.79,6.79,0,0,0-.58-2.83l.58-.24A7.54,7.54,0,0,0,20,8.26,14,14,0,0,1,20,11.85Z" transform="translate(-3.14 -0.15)"/><path class="cls-3" d="M20,8.23l0,0a7.54,7.54,0,0,1-1.13.61l-.58.24a9.77,9.77,0,0,1-6.86,0l-.53-.21h0c-.35-.15-.7-.32-1.07-.52l-.18-.1L9.7,4.51l1.83.42L13,5.34l1.24.21a3.2,3.2,0,0,0,1.47,0l.41-.1,3.77-.93Z" transform="translate(-3.14 -0.15)"/><path class="cls-2" d="M14.74,18.35V30.07l-.12,0L7,28.07V22.59h.12a1.86,1.86,0,0,0,1.17-1.95,1.86,1.86,0,0,0-1.17-1.95H7V16.35l7.61,2Z" transform="translate(-3.14 -0.15)"/><path class="cls-5" d="M14.74,18.22l-7.85-2v2.47h.25V16.52l7.48,1.93V29.91L7.14,28v-5.4H6.89v5.59l7.73,2,.12,0,.12,0v-12Z" transform="translate(-3.14 -0.15)"/><path class="cls-2" d="M21.3,20.62a2,2,0,0,0,1,1.92l.12,0v5.5l-7.61,2-.12,0V18.35l.12,0,7.61-2v2.32l-.12,0A2,2,0,0,0,21.3,20.62Z" transform="translate(-3.14 -0.15)"/><path class="cls-5" d="M22.47,18.67h.12V16.19l-7.85,2-.12,0v12l.12,0,.12,0,7.73-2V22.59h-.12l-.12,0V28l-7.48,1.93V18.45l7.48-1.93v2.19Z" transform="translate(-3.14 -0.15)"/><path class="cls-6" d="M24,20.62c0,1.08-.6,2-1.33,2h-.16l-.12,0a2,2,0,0,1-1-1.92,2,2,0,0,1,1-1.92l.12,0h.16C23.37,18.66,24,19.54,24,20.62Z" transform="translate(-3.14 -0.15)"/><path class="cls-6" d="M8.31,20.62a1.86,1.86,0,0,1-1.17,1.95H6.89c-.7-.06-1.25-.92-1.25-2s.55-1.9,1.25-2h.25A1.86,1.86,0,0,1,8.31,20.62Z" transform="translate(-3.14 -0.15)"/></svg>