<svg id="Layer_1" data-name="Layer 1" xmlns="http://www.w3.org/2000/svg" viewBox="0 0 25.73 29.28"><defs><style>.cls-1{fill:#fff;}.cls-2{fill:#a06817;}.cls-3{fill:#492303;}</style></defs><title>icon Tu Ky</title><path class="cls-1" d="M25.11,24.27V10.12a9.76,9.76,0,0,0-19.52,0V23.63l-3.28,6H28ZM6.52,10.12a8.83,8.83,0,0,1,17.66,0V23.6H6.52ZM6.16,24.53h18l1.43,2.62H4.73ZM4.22,28.08H26.13l.35.63H3.88Z" transform="translate(-2.31 -0.36)"/><path class="cls-2" d="M25.11,24.27V10.12a9.76,9.76,0,0,0-19.52,0V23.63l-3.28,6H28ZM6.52,10.12a8.83,8.83,0,0,1,17.66,0V23.6H6.52ZM6.16,24.53h18l1.43,2.62H4.73ZM4.22,28.08H26.13l.35.63H3.88Z" transform="translate(-2.31 -0.36)"/><path class="cls-2" d="M17,8.69V5.6H14.19V8.69H10.42v2.78h3.78v6.79H17V11.46h4.24V8.69Zm3.31,1.85H16v6.79h-.93V10.54H11.34V9.61h3.78V6.53H16V9.61h4.24Z" transform="translate(-2.31 -0.36)"/><polygon class="cls-3" points="24.17 28.35 1.57 28.35 1.91 27.72 23.82 27.72 24.17 28.35"/><polygon class="cls-3" points="23.32 26.79 2.42 26.79 3.85 24.17 21.89 24.17 23.32 26.79"/><path class="cls-3" d="M15.35,1.29a8.84,8.84,0,0,0-8.84,8.83V23.6H24.18V10.12A8.84,8.84,0,0,0,15.35,1.29Zm5.86,10.17H17v6.79H14.19V11.46H10.42V8.69h3.78V5.6H17V8.69h4.24Z" transform="translate(-2.31 -0.36)"/><polygon class="cls-3" points="17.98 9.25 17.98 10.17 13.74 10.17 13.74 16.97 12.81 16.97 12.81 10.17 9.04 10.17 9.04 9.25 12.81 9.25 12.81 6.17 13.74 6.17 13.74 9.25 17.98 9.25"/></svg>