<svg id="Layer_5" data-name="Layer 5" xmlns="http://www.w3.org/2000/svg" viewBox="0 0 12.61 29.42"><defs><style>.cls-1{fill:#69059e;}</style></defs><title>icon_Huu Tri</title><circle class="cls-1" cx="9.9" cy="2.71" r="2.71"/><path class="cls-1" d="M19.14,16.87l0,0a1.31,1.31,0,0,0,.15-1.67,16.87,16.87,0,0,1-2.86-9.46s-.75-2.49-4,.35-4.63,6-3.18,10.44A21.53,21.53,0,0,1,9.6,28a1.1,1.1,0,0,0,1.05,1.39h0a1.94,1.94,0,0,0,1.91-1.61c.41-2.37.94-6.84-.12-9.72a2.13,2.13,0,0,1,0-1.56c.64-1.53,2-4.73,2.39-5.78,0,0,1.16,4.16,2.63,5.94a1.9,1.9,0,0,0-1.23,1.46.32.32,0,1,0,.64.09,1.29,1.29,0,0,1,1.17-1c.91-.13,1.19,1.16,1.22,1.36V29.39a.32.32,0,1,0,.65,0V18.44A2.82,2.82,0,0,0,19.14,16.87Z" transform="translate(-8.69 -0.29)"/></svg>