<svg id="Layer_14" data-name="Layer 14" xmlns="http://www.w3.org/2000/svg" viewBox="0 0 22.87 29.5"><defs><style>.cls-1{fill:#753806;}.cls-2{fill:#f37402;}</style></defs><title>icon_tai nan xe</title><path class="cls-1" d="M9.13,14.11c0,.06,0,.11,0,.17l-3.88-.92a.88.88,0,0,1,.41-1.71l4,1A2.33,2.33,0,0,0,9.13,14.11Z" transform="translate(-4.59 -0.25)"/><path class="cls-1" d="M18.64,15.63a.88.88,0,0,1-.86.67l-.21,0-4.08-1a2.33,2.33,0,0,0,.33-1.2,2.2,2.2,0,0,0-.06-.54l4.23,1A.88.88,0,0,1,18.64,15.63Z" transform="translate(-4.59 -0.25)"/><path class="cls-2" d="M13.76,13.56a2.35,2.35,0,0,0-4.63.54c0,.06,0,.11,0,.17a2.35,2.35,0,0,0,4.69-.17A2.2,2.2,0,0,0,13.76,13.56ZM12.23,15a1.18,1.18,0,0,1-.75.27,1.17,1.17,0,0,1-1.07-.7,1.14,1.14,0,0,1-.1-.47A1.17,1.17,0,0,1,11.23,13l.25,0a1.19,1.19,0,0,1,.74.26,1.18,1.18,0,0,1,0,1.81Z" transform="translate(-4.59 -0.25)"/><circle class="cls-2" cx="14.95" cy="5.21" r="2.05"/><path class="cls-2" d="M27.46,11.51a1,1,0,0,1-1,1l-2.77.15a5.73,5.73,0,0,1-2.89-.6l-1-.52a.69.69,0,0,0-.86.21l-1.13,1.58-3.23-.88A3.24,3.24,0,0,0,13.09,11L14,9.48a1,1,0,0,0,0-1L12.59,6.13a2.91,2.91,0,0,1,.66-3.72L15.59.49A1,1,0,0,1,17,.55l0,0a1,1,0,0,1,0,1.5L15,3.92a1.12,1.12,0,0,0-.16,1.46l.6.87a1.34,1.34,0,0,0,.4.38l5.63,3.43a3.43,3.43,0,0,0,1.88.5l3-.09h0A1,1,0,0,1,27.46,11.51Z" transform="translate(-4.59 -0.25)"/><path class="cls-1" d="M12.65,14.11a1.17,1.17,0,0,1-1.17,1.17,1.17,1.17,0,0,1-1.07-.7,1.14,1.14,0,0,1-.1-.47A1.17,1.17,0,0,1,11.23,13l.25,0a1.19,1.19,0,0,1,.74.26A1.17,1.17,0,0,1,12.65,14.11Z" transform="translate(-4.59 -0.25)"/><rect class="cls-1" x="7.52" y="21.58" width="2.93" height="8.21" rx="1.38" ry="1.38" transform="translate(0.85 -1.54) rotate(11.78)"/><path class="cls-1" d="M14.55,20h0a4.3,4.3,0,0,1-.13,1l-.74,3-.32,1.3a1.11,1.11,0,0,1-1.35.82L11.44,26l.49-2.35a2.63,2.63,0,0,0-2.2-3.14,2.68,2.68,0,0,0-3,2.15l-.44,2.09-.57-.14a1.11,1.11,0,0,1-.82-1.35L6,19A4.34,4.34,0,0,1,9.76,15.7a2.35,2.35,0,0,0,2.63.56A4.34,4.34,0,0,1,14.55,20Z" transform="translate(-4.59 -0.25)"/><path class="cls-2" d="M20.42,18.5a.9.9,0,0,1-.35.72l-6.38,4.85.74-3a4.3,4.3,0,0,0,.13-1l2.06-1.37-1.17-.59-.59-1.76a4.42,4.42,0,0,0,4.1.59l1.13.9A.9.9,0,0,1,20.42,18.5Z" transform="translate(-4.59 -0.25)"/></svg>