<svg id="Layer_2" data-name="Layer 2" xmlns="http://www.w3.org/2000/svg" viewBox="0 0 23.09 29.53"><defs><style>.cls-1{fill:#f99918;}.cls-2{fill:#cc4217;}.cls-3{fill:#ffbd2d;}.cls-4{fill:#f37402;}.cls-5{fill:#ba7404;}.cls-6{fill:#f34605;}</style></defs><title>icon_Dau Tu</title><path class="cls-1" d="M16.76,8.76s6.18-2.41,4.94-4.1A3.42,3.42,0,0,0,19.14,3l-3.4,5.31Z" transform="translate(-2.35 -0.24)"/><path class="cls-2" d="M17.33,10.34h-.07l-.15,0s0,0,0,0a2.86,2.86,0,0,1-.43,0h-.48l-.2,0-.11,0-.32,0c-.79-.11-1.68-.3-2.41-.47l0,0-.5-.11h0l-1-.27a.88.88,0,0,0-.07-.12v0c0-.11-.11-.28-.19-.48v0l-.09-.27h0a2.24,2.24,0,0,1,.06-1.86,1.14,1.14,0,0,1,.53-.43,2,2,0,0,1,1.35.13l0,0A10.75,10.75,0,0,1,15.84,8l.08.07h0a9.58,9.58,0,0,1,.78.69l0,0,0,0C17.51,9.51,17.87,10.16,17.33,10.34Z" transform="translate(-2.35 -0.24)"/><path class="cls-3" d="M11.31,9.09,11,8S5.3,6.68,10,4.26c0,0,.22-2.13,3.37-2C15.94-1.3,23.41-.58,16,8a1.13,1.13,0,0,1-.79.34,2,2,0,0,1-1.53-.61c-.2-.25-.06.06-.45.17S10.69,7.41,11.31,9.09Z" transform="translate(-2.35 -0.24)"/><path class="cls-4" d="M10.3,3.62a1.93,1.93,0,0,0-.22.65C5.36,6.68,11,8,11,8l.27.87c-.38-1.44,1.6-.93,2-1a.55.55,0,0,0,.31-.2C9.33,6.88,10.3,3.62,10.3,3.62Z" transform="translate(-2.35 -0.24)"/><path class="cls-4" d="M11.3,8.89c0,.06,0,.13.06.2Z" transform="translate(-2.35 -0.24)"/><path class="cls-4" d="M10.59,3.2a2.28,2.28,0,0,0-.29.41Z" transform="translate(-2.35 -0.24)"/><path class="cls-1" d="M13.57,19.54a.48.48,0,0,0-.06-.25.56.56,0,0,0-.14-.11l-.2-.07-.2-.06L12.78,19l-.33-.12a1.31,1.31,0,0,1-.31-.15l-.29-.17,0,0a.1.1,0,0,1,0,0l-.11-.08-.09-.11a2.56,2.56,0,0,1-.3-.58,1.07,1.07,0,0,1,0-.2l0-.19a.84.84,0,0,0,0-.19.71.71,0,0,1,0-.2.74.74,0,0,0,0-.18.58.58,0,0,0,0-.14.57.57,0,0,1,0-.13c0-.06,0-.11,0-.16a1,1,0,0,1,0-.13,2.81,2.81,0,0,1,.39-.69,2.24,2.24,0,0,1,.57-.5,2.43,2.43,0,0,1,.32-.16,2,2,0,0,1,.36-.13l.25-.06a.44.44,0,0,0,.22-.09.27.27,0,0,0,.11-.26.62.62,0,0,1,0-.3.37.37,0,0,1,.15-.14h.1a.32.32,0,0,1,.33.16.18.18,0,0,1,0,.08.13.13,0,0,0,0,.09v.12c0,.07,0,.11,0,.16a.53.53,0,0,0,.09.13.32.32,0,0,0,.14.06l.17.06a.73.73,0,0,1,.19.06l.19.08a1.94,1.94,0,0,1,.68.48,3.35,3.35,0,0,1,.47.67l.11.25c0,.09.07.17.1.27s0,.07,0,.11a.18.18,0,0,1,0,.12.15.15,0,0,1-.09.11.41.41,0,0,1-.15,0h-.22l-.21,0-.13,0a.34.34,0,0,1-.16-.23,1,1,0,0,0-.11-.27,3.18,3.18,0,0,0-.25-.34,1.4,1.4,0,0,0-.33-.25,1.29,1.29,0,0,0-.29-.11c-.11,0-.18,0-.23.13a.57.57,0,0,0,0,.28v2a.59.59,0,0,0,.06.29.34.34,0,0,0,.25.17,2.45,2.45,0,0,1,.33.1l.45.15a1.64,1.64,0,0,1,.41.2,2.6,2.6,0,0,1,.58.49,1.91,1.91,0,0,1,.37.69,1.23,1.23,0,0,1,0,.18c0,.06,0,.11,0,.17v.11a.75.75,0,0,1,0,.23.56.56,0,0,1,0,.2s0,.06,0,.11a1.6,1.6,0,0,0,0,.17.81.81,0,0,1,0,.16c0,.12-.08.23-.11.33a1.74,1.74,0,0,1-.15.3.42.42,0,0,1-.08.11l-.09.11-.12.14-.14.14a3.2,3.2,0,0,1-.42.28,2.61,2.61,0,0,1-.5.22.67.67,0,0,1-.18.06l-.18,0a.35.35,0,0,1-.13,0,.26.26,0,0,0-.12,0,.31.31,0,0,0-.18.22.48.48,0,0,0,0,.29.6.6,0,0,1,0,.3s-.06.09-.11.1l-.15,0a.28.28,0,0,1-.15,0,.21.21,0,0,1-.13-.1.32.32,0,0,1-.06-.19v-.39a.4.4,0,0,0-.13-.22.31.31,0,0,0-.16-.07l-.18,0-.26-.08a1.09,1.09,0,0,1-.25-.09,2.88,2.88,0,0,1-.83-.55,2.63,2.63,0,0,1-.55-.84c0-.06,0-.12-.07-.2l-.07-.21a.25.25,0,0,1,0-.11.4.4,0,0,0,0-.1s0-.1,0-.16a.37.37,0,0,1,0-.15.24.24,0,0,1,.12-.11l.1,0h.11a.94.94,0,0,1,.29,0,.36.36,0,0,1,.21.08.19.19,0,0,1,.08.11.81.81,0,0,1,0,.16,1.88,1.88,0,0,0,.14.43,1.11,1.11,0,0,0,.25.37,1.62,1.62,0,0,0,.33.3l.09.06a.19.19,0,0,0,.09,0,.55.55,0,0,0,.13.08l.19.07a.45.45,0,0,0,.19,0,.18.18,0,0,0,.14-.08.33.33,0,0,0,0-.17Z" transform="translate(-2.35 -0.24)"/><path class="cls-1" d="M21.59,27.63a4.51,4.51,0,0,1-.55.11l-.58.07H20a8.92,8.92,0,0,1-3.75,1.78l-.11,0-.38.06-.58.06a7.67,7.67,0,0,1-4.5-1.12h-.19l-.6,0H9.66a6.85,6.85,0,0,1-5.6-2.35c2.43,2.54,6.38,2.31,6.38,2.31A6.08,6.08,0,0,1,8.2,24.78c3.19,5,7.13,4.32,7.13,4.32,5,.06,7.15-4.72,7.15-4.72a5.19,5.19,0,0,1-1,2.37c.67-.27,1.33-.16,2-.88A3,3,0,0,0,24.33,24c.67-8.27-3.16-11-6.5-12.94.48.5.9,1,1.19,1.34a.6.6,0,0,1,.14.39v.06a.6.6,0,0,1-.27.5.14.14,0,0,1-.19,0,21.48,21.48,0,0,0-2.36-2.9h-.15a18.78,18.78,0,0,1,2.14,4.11l.11.35c0,.08,0,.2.06.33l0,.09a.6.6,0,0,1-.11.61l-.75.8a.1.1,0,0,1-.18-.08c.21-1.78-1.23-4.92-1.93-6.3-.79-.11-1.68-.3-2.41-.47-.22,0-.45.06-.69.1l-.35.07-.52.11-.09,0-.46.12h0a14.46,14.46,0,0,1,1.55-.54h0a11.59,11.59,0,0,1,1.23-.27l1.33.13h.09l.24,0h.2l.28,0,.59.28.17.08,0,0h0l.06,0,.52.27.12.07.06,0,0,0,0,0c6.16,3.44,7.18,8.5,7.37,9.13C26.66,25.52,23.62,27.18,21.59,27.63Z" transform="translate(-2.35 -0.24)"/><path class="cls-4" d="M21.59,27.63l-.55.11-.58.07h-.18a2.48,2.48,0,0,1,1.17-1c.67-.27,1.33-.16,2-.88A3,3,0,0,0,24.33,24c.67-8.27-3.16-11-6.5-12.94L17.7,11h0l-1.05-.58-.51-.29h0L16,10.06a.91.91,0,0,1-.16-.1l-.18-.11-.07,0-.07,0h0l-.24-.15.2,0h.2l.21,0c.23.1.44.2.66.31l0,0,0,0,.18.1.3.16.16.08.26.15C23.67,14,24.69,19,24.87,19.62,26.59,25.46,23.62,27.15,21.59,27.63Z" transform="translate(-2.35 -0.24)"/><path class="cls-4" d="M22.47,24.39a5.19,5.19,0,0,1-1,2.37,6.58,6.58,0,0,1-1,1,8.67,8.67,0,0,1-4.23,1.79l-.11,0-.38.06-.58.06a6.71,6.71,0,0,1-4.69-1.11h0A6.08,6.08,0,0,1,8.2,24.78c3.19,5,7.13,4.32,7.13,4.32C20.33,29.17,22.47,24.39,22.47,24.39Z" transform="translate(-2.35 -0.24)"/><path class="cls-4" d="M10.45,28.61l-.57,0H9.66c-6.3.29-7.17-5.22-7.17-5.22A6.47,6.47,0,0,0,4,26.23l.07.08C6.5,28.85,10.45,28.61,10.45,28.61Z" transform="translate(-2.35 -0.24)"/><path class="cls-3" d="M17.82,11.08c.48.5.9,1,1.19,1.34a.6.6,0,0,1,.14.39v.06a.6.6,0,0,1-.27.5.14.14,0,0,1-.19,0,21.48,21.48,0,0,0-2.36-2.9h-.15a18.78,18.78,0,0,1,2.14,4.11l.11.35c0,.08,0,.2.06.33l0,.09a.6.6,0,0,1-.11.61l-.75.8a.1.1,0,0,1-.18-.08c.21-1.78-1.23-4.92-1.93-6.3-.79-.11-1.68-.3-2.41-.47-.22,0-.45.06-.69.1l-.35.07-.52.11-.09,0-.46.12H11A13.5,13.5,0,0,0,2.35,21.92a7.06,7.06,0,0,0,.19,1.22A7.85,7.85,0,0,0,4,26.23l.07.08c2.43,2.54,6.38,2.31,6.38,2.31A6.08,6.08,0,0,1,8.2,24.78c3.19,5,7.13,4.32,7.13,4.32,5,.06,7.15-4.72,7.15-4.72a5.19,5.19,0,0,1-1,2.37c.67-.27,1.33-.16,2-.88A3,3,0,0,0,24.33,24C25,15.74,21.17,13,17.82,11.08ZM11,20.66a.24.24,0,0,1,.12-.11l.1,0h.11a.94.94,0,0,1,.29,0,.36.36,0,0,1,.21.08.19.19,0,0,1,.08.11.81.81,0,0,1,0,.16,1.88,1.88,0,0,0,.14.43,1.11,1.11,0,0,0,.25.37,1.62,1.62,0,0,0,.33.3l.09.06a.19.19,0,0,0,.09,0,.55.55,0,0,0,.13.08l.19.07a.45.45,0,0,0,.19,0,.18.18,0,0,0,.14-.08.33.33,0,0,0,0-.17V19.54a.48.48,0,0,0-.06-.25.56.56,0,0,0-.14-.11l-.2-.07-.2-.06L12.78,19l-.33-.12a1.31,1.31,0,0,1-.31-.15l-.29-.17,0,0a.1.1,0,0,1,0,0l-.11-.08-.09-.11a2.56,2.56,0,0,1-.3-.58,1.07,1.07,0,0,1,0-.2l0-.19a.84.84,0,0,0,0-.19.71.71,0,0,1,0-.2.74.74,0,0,0,0-.18.58.58,0,0,0,0-.14.57.57,0,0,1,0-.13c0-.06,0-.11,0-.16a1,1,0,0,1,0-.13,2.81,2.81,0,0,1,.39-.69,2.24,2.24,0,0,1,.57-.5,2.43,2.43,0,0,1,.32-.16,2,2,0,0,1,.36-.13l.25-.06a.44.44,0,0,0,.22-.09.27.27,0,0,0,.11-.26.62.62,0,0,1,0-.3.37.37,0,0,1,.15-.14h.1a.32.32,0,0,1,.33.16.18.18,0,0,1,0,.08.13.13,0,0,0,0,.09v.12c0,.07,0,.11,0,.16a.53.53,0,0,0,.09.13.32.32,0,0,0,.14.06l.17.06a.73.73,0,0,1,.19.06l.19.08a1.94,1.94,0,0,1,.68.48,3.35,3.35,0,0,1,.47.67l.11.25c0,.09.07.17.1.27s0,.07,0,.11a.18.18,0,0,1,0,.12.15.15,0,0,1-.09.11.41.41,0,0,1-.15,0h-.22l-.21,0-.13,0a.34.34,0,0,1-.16-.23,1,1,0,0,0-.11-.27,3.18,3.18,0,0,0-.25-.34,1.4,1.4,0,0,0-.33-.25,1.29,1.29,0,0,0-.29-.11c-.11,0-.18,0-.23.13a.57.57,0,0,0,0,.28v2a.59.59,0,0,0,.06.29.34.34,0,0,0,.25.17,2.45,2.45,0,0,1,.33.1l.45.15a1.64,1.64,0,0,1,.41.2,2.6,2.6,0,0,1,.58.49,1.91,1.91,0,0,1,.37.69,1.23,1.23,0,0,1,0,.18c0,.06,0,.11,0,.17v.11a.75.75,0,0,1,0,.23.56.56,0,0,1,0,.2s0,.06,0,.11a1.6,1.6,0,0,0,0,.17.81.81,0,0,1,0,.16c0,.12-.08.23-.11.33a1.74,1.74,0,0,1-.15.3.42.42,0,0,1-.08.11l-.09.11-.12.14-.14.14a3.2,3.2,0,0,1-.42.28,2.61,2.61,0,0,1-.5.22.67.67,0,0,1-.18.06l-.18,0a.35.35,0,0,1-.13,0,.26.26,0,0,0-.12,0,.31.31,0,0,0-.18.22.48.48,0,0,0,0,.29.6.6,0,0,1,0,.3s-.06.09-.11.1l-.15,0a.28.28,0,0,1-.15,0,.21.21,0,0,1-.13-.1.32.32,0,0,1-.06-.19v-.39a.4.4,0,0,0-.13-.22.31.31,0,0,0-.16-.07l-.18,0-.26-.08a1.09,1.09,0,0,1-.25-.09,2.88,2.88,0,0,1-.83-.55,2.63,2.63,0,0,1-.55-.84c0-.06,0-.12-.07-.2l-.07-.21a.25.25,0,0,1,0-.11.4.4,0,0,0,0-.1s0-.1,0-.16A.37.37,0,0,1,11,20.66Z" transform="translate(-2.35 -0.24)"/><path class="cls-3" d="M2.35,21.92a7.06,7.06,0,0,0,.19,1.22L2.42,23A7.15,7.15,0,0,1,2.35,21.92Z" transform="translate(-2.35 -0.24)"/><path class="cls-3" d="M16.72,20.56a.75.75,0,0,1,0,.23.56.56,0,0,1,0,.2s0,.06,0,.11a1.6,1.6,0,0,0,0,.17.81.81,0,0,1,0,.16c0,.12-.08.23-.11.33a1.74,1.74,0,0,1-.15.3.42.42,0,0,1-.08.11l-.09.11-.12.14-.14.14a3.2,3.2,0,0,1-.42.28,2.61,2.61,0,0,1-.5.22.67.67,0,0,1-.18.06l-.18,0a.35.35,0,0,1-.13,0,.26.26,0,0,0-.12,0,.31.31,0,0,0-.18.22.48.48,0,0,0,0,.29.6.6,0,0,1,0,.3s-.06.09-.11.1l-.15,0a.28.28,0,0,1-.15,0,.21.21,0,0,1-.13-.1.32.32,0,0,1-.06-.19v-.39a.4.4,0,0,0-.13-.22.31.31,0,0,0-.16-.07l-.18,0-.26-.08a1.09,1.09,0,0,1-.25-.09,2.88,2.88,0,0,1-.83-.55,2.63,2.63,0,0,1-.55-.84c0-.06,0-.12-.07-.2l-.07-.21a.25.25,0,0,1,0-.11.4.4,0,0,0,0-.1s0-.1,0-.16a.37.37,0,0,1,0-.15.24.24,0,0,1,.12-.11l.1,0h.11a.94.94,0,0,1,.29,0,.36.36,0,0,1,.21.08.19.19,0,0,1,.08.11.81.81,0,0,1,0,.16,1.88,1.88,0,0,0,.14.43,1.11,1.11,0,0,0,.25.37,1.62,1.62,0,0,0,.33.3l.09.06a.19.19,0,0,0,.09,0,.55.55,0,0,0,.13.08l.19.07a.45.45,0,0,0,.19,0,.18.18,0,0,0,.14-.08.33.33,0,0,0,0-.17V19.54a.48.48,0,0,0-.06-.25.56.56,0,0,0-.14-.11l-.2-.07-.2-.06L12.78,19l-.33-.12a1.31,1.31,0,0,1-.31-.15l-.29-.17,0,0a.1.1,0,0,1,0,0l-.11-.08-.09-.11a2.56,2.56,0,0,1-.3-.58,1.07,1.07,0,0,1,0-.2l0-.19a.84.84,0,0,0,0-.19.71.71,0,0,1,0-.2.74.74,0,0,0,0-.18.58.58,0,0,0,0-.14.57.57,0,0,1,0-.13c0-.06,0-.11,0-.16a1,1,0,0,1,0-.13,2.81,2.81,0,0,1,.39-.69,2.24,2.24,0,0,1,.57-.5,2.43,2.43,0,0,1,.32-.16,2,2,0,0,1,.36-.13l.25-.06a.44.44,0,0,0,.22-.09.27.27,0,0,0,.11-.26.62.62,0,0,1,0-.3.37.37,0,0,1,.15-.14h.1a.32.32,0,0,1,.33.16.18.18,0,0,1,0,.08.13.13,0,0,0,0,.09v.12c0,.07,0,.11,0,.16a.53.53,0,0,0,.09.13.32.32,0,0,0,.14.06l.17.06a.73.73,0,0,1,.19.06l.19.08a1.94,1.94,0,0,1,.68.48,3.35,3.35,0,0,1,.47.67l.11.25c0,.09.07.17.1.27s0,.07,0,.11a.18.18,0,0,1,0,.12.15.15,0,0,1-.09.11.41.41,0,0,1-.15,0h-.22l-.21,0-.13,0a.34.34,0,0,1-.16-.23,1,1,0,0,0-.11-.27,3.18,3.18,0,0,0-.25-.34,1.4,1.4,0,0,0-.33-.25,1.29,1.29,0,0,0-.29-.11c-.11,0-.18,0-.23.13a.57.57,0,0,0,0,.28v2a.59.59,0,0,0,.06.29.34.34,0,0,0,.25.17,2.45,2.45,0,0,1,.33.1l.45.15a1.64,1.64,0,0,1,.41.2,2.6,2.6,0,0,1,.58.49,1.91,1.91,0,0,1,.37.69,1.23,1.23,0,0,1,0,.18c0,.06,0,.11,0,.17Z" transform="translate(-2.35 -0.24)"/><path class="cls-3" d="M18.4,15.91l-.75.8a.1.1,0,0,1-.18-.08c.21-1.78-1.23-4.92-1.93-6.3-.79-.11-1.68-.3-2.41-.47-.22,0-.45.06-.69.1l-.35.07-.52.11-.09,0-.46.12h0a14.46,14.46,0,0,1,1.55-.54h0a11.59,11.59,0,0,1,1.23-.27l1.33.13h.09l.24,0h0l.09.14,0,0,0,0c.11.17.23.34.34.54.59.9,1.22,1.93,1.78,3v0q.3.56.57,1.12l.11.35c0,.08,0,.2.06.33l0,.09A.6.6,0,0,1,18.4,15.91Z" transform="translate(-2.35 -0.24)"/><path class="cls-5" d="M13.25,5.2a3.56,3.56,0,0,0-.07,1.49A5,5,0,0,1,13.25,5.2Z" transform="translate(-2.35 -0.24)"/><path class="cls-5" d="M13.25,5.2h0Z" transform="translate(-2.35 -0.24)"/><path class="cls-5" d="M15,8.18a1.91,1.91,0,0,1-1.8-1.49,1.61,1.61,0,0,0,1.75,1.63h.19c.27.05.66,0,1.28-.84a3.51,3.51,0,0,1-.64.52A1.19,1.19,0,0,1,15,8.18Z" transform="translate(-2.35 -0.24)"/><path class="cls-6" d="M18.41,15.8l-.51.51s-.28,0-.33,0l.53-.56a.55.55,0,0,0,.12-.58,24.84,24.84,0,0,0-2.38-4.78,5,5,0,0,0-.42-.54l-.07-.08-.1-.11,0,0h0L15,9.36l0,0-.22-.21c-.18-.25-.33-.52,0-.25a5.65,5.65,0,0,1,.65.58,1.24,1.24,0,0,1,.15.17s0,0,0,0a.72.72,0,0,1,.14.15h0a.2.2,0,0,1,.06.08.31.31,0,0,1,.08.09,3,3,0,0,1,.21.28l.12.16a18.78,18.78,0,0,1,2.14,4.11l.11.35c0,.08,0,.2.06.33A1,1,0,0,1,18.41,15.8Z" transform="translate(-2.35 -0.24)"/><path class="cls-6" d="M18.4,15.91l-.75.8a.1.1,0,0,1-.18-.08c.21-1.78-1.23-4.92-1.93-6.3-.11-.22-.2-.39-.28-.52l0-.07-.07-.12,0,0L15,9.36l0,0c-.12-.19-.26-.43-.23-.46s.24.12.81.74l0,0h0a.62.62,0,0,1,.12.15h0a.2.2,0,0,1,.06.08.31.31,0,0,1,.08.09,3,3,0,0,1,.21.28.94.94,0,0,1,.11.16,19.63,19.63,0,0,1,1.58,3v0c.33.75.58,1.41.74,1.81l0,.09A.6.6,0,0,1,18.4,15.91Z" transform="translate(-2.35 -0.24)"/><path class="cls-6" d="M19.15,12.81v0a.6.6,0,0,1-.27.47.14.14,0,0,1-.19,0,20.6,20.6,0,0,0-2.31-2.84l-.25-.28h0l-.21-.23-.08-.08-.15-.16h0l-.44-.47-.09-.09a4.27,4.27,0,0,1,1.57.94l0,0h0l.08.07.07.07.23.2c.24.22.48.46.71.69.48.5.9,1,1.19,1.34A.6.6,0,0,1,19.15,12.81Z" transform="translate(-2.35 -0.24)"/><path class="cls-6" d="M19.15,12.84v0a.6.6,0,0,1-.27.5.14.14,0,0,1-.19,0,21.48,21.48,0,0,0-2.36-2.9c-.11-.12-.23-.24-.33-.35l-.16-.17-.08-.08-.15-.16h0l-.46-.49.09,0a4,4,0,0,1,1.31.77l.07,0,0,0,.13.11.3.26c.21.19.42.4.62.61h0c.53.55,1,1.08,1.31,1.46A.64.64,0,0,1,19.15,12.84Z" transform="translate(-2.35 -0.24)"/><path class="cls-6" d="M17.69,10.43a.12.12,0,0,1-.11.06h0l0,0-.06,0-.11-.08a2.82,2.82,0,0,0-.54-.26l-.06,0h0l-.12,0h0l0,0a6.84,6.84,0,0,0-.72-.16H15.7l-.13,0h0l-.15,0h-.13a9.62,9.62,0,0,0-2.15.1l-.64.11-.35.07-.52.11-.09,0-.46.12h0c0-.12.07-.76.32-.86l.16-.07a12.16,12.16,0,0,1,3.08-.86,5.9,5.9,0,0,1,1,0,3.77,3.77,0,0,1,.55.09l.18,0,0,0a1.36,1.36,0,0,1,.34.13.09.09,0,0,1,.07,0,2,2,0,0,1,.85.77S17.86,10.15,17.69,10.43Z" transform="translate(-2.35 -0.24)"/><path class="cls-6" d="M17.58,10.48h0l0,0h0a1.28,1.28,0,0,0-.25-.15l-.15-.09-.23-.1-.11,0a5.38,5.38,0,0,0-.86-.24h-.14l-.11,0h0l-.18,0-.17,0a9.63,9.63,0,0,0-2.13,0c-.22,0-.45.06-.69.1l-.35.07-.52.11-.09,0-.46.11H11s0-.77.33-.88l.2-.09a11.67,11.67,0,0,1,3.09-.84,5.9,5.9,0,0,1,1,0,3,3,0,0,1,1,.23.63.63,0,0,1,.18.09,2,2,0,0,1,.81.76S17.84,10.25,17.58,10.48Z" transform="translate(-2.35 -0.24)"/><path class="cls-6" d="M16.72,20.56v-.11c0-.06,0-.11,0-.17a1.23,1.23,0,0,0,0-.18,1.91,1.91,0,0,0-.37-.69,2.6,2.6,0,0,0-.58-.49,1.64,1.64,0,0,0-.41-.2l-.45-.15a2.45,2.45,0,0,0-.33-.1.34.34,0,0,1-.25-.17A.59.59,0,0,1,14.2,18V16a.57.57,0,0,1,0-.28c0-.11.12-.16.23-.13a1.29,1.29,0,0,1,.29.11,1.4,1.4,0,0,1,.33.25,3.18,3.18,0,0,1,.25.34,1,1,0,0,1,.11.27.34.34,0,0,0,.16.23l.13,0,.21,0h.22a.41.41,0,0,0,.15,0,.15.15,0,0,0,.09-.11.18.18,0,0,0,0-.12s0-.08,0-.11-.07-.18-.1-.27L16.17,16a3.35,3.35,0,0,0-.47-.67,1.94,1.94,0,0,0-.68-.48l-.19-.08a.73.73,0,0,0-.19-.06l-.17-.06a.32.32,0,0,1-.14-.06.53.53,0,0,1-.09-.13s0-.1,0-.16v-.12a.13.13,0,0,1,0-.09.18.18,0,0,0,0-.08.32.32,0,0,0-.33-.16h-.1a.37.37,0,0,0-.15.14.62.62,0,0,0,0,.3.27.27,0,0,1-.11.26.44.44,0,0,1-.22.09l-.25.06a2,2,0,0,0-.36.13,2.43,2.43,0,0,0-.32.16,2.24,2.24,0,0,0-.57.5,2.81,2.81,0,0,0-.39.69,1,1,0,0,0,0,.13s0,.11,0,.16a.57.57,0,0,0,0,.13.58.58,0,0,1,0,.14.74.74,0,0,1,0,.18.71.71,0,0,0,0,.2.84.84,0,0,1,0,.19l0,.19a1.07,1.07,0,0,0,0,.2,2.56,2.56,0,0,0,.3.58l.09.11.11.08a.1.1,0,0,0,0,0l0,0,.29.17a1.31,1.31,0,0,0,.31.15l.33.12.19.07.2.06.2.07a.56.56,0,0,1,.14.11.48.48,0,0,1,.06.25V22a.33.33,0,0,1,0,.17.18.18,0,0,1-.14.08.45.45,0,0,1-.19,0L13,22.15a.55.55,0,0,1-.13-.08.19.19,0,0,1-.09,0L12.69,22a1.62,1.62,0,0,1-.33-.3,1.11,1.11,0,0,1-.25-.37,1.88,1.88,0,0,1-.14-.43.81.81,0,0,0,0-.16.19.19,0,0,0-.08-.11.36.36,0,0,0-.21-.08.94.94,0,0,0-.29,0h-.11l-.1,0a.24.24,0,0,0-.12.11.37.37,0,0,0,0,.15c0,.07,0,.11,0,.16a.4.4,0,0,1,0,.1.25.25,0,0,0,0,.11l.07.21c0,.08,0,.14.07.2a2.63,2.63,0,0,0,.55.84,2.88,2.88,0,0,0,.83.55,1.09,1.09,0,0,0,.25.09l.26.08.18,0a.31.31,0,0,1,.16.07.4.4,0,0,1,.13.22v.39a.32.32,0,0,0,.06.19.21.21,0,0,0,.13.1.28.28,0,0,0,.15,0l.15,0s.08,0,.11-.1a.6.6,0,0,0,0-.3.48.48,0,0,1,0-.29.31.31,0,0,1,.18-.22.26.26,0,0,1,.12,0,.35.35,0,0,0,.13,0l.18,0a.67.67,0,0,0,.18-.06,2.61,2.61,0,0,0,.5-.22,3.2,3.2,0,0,0,.42-.28l.14-.14.12-.14.09-.11a.42.42,0,0,0,.08-.11,1.74,1.74,0,0,0,.15-.3c0-.11.08-.21.11-.33a.81.81,0,0,0,0-.16,1.6,1.6,0,0,1,0-.17s0-.08,0-.11a.56.56,0,0,0,0-.2A.75.75,0,0,0,16.72,20.56Zm-3.15-2.69a.24.24,0,0,1-.16.25.13.13,0,0,1-.11,0l-.09,0A1.8,1.8,0,0,1,12.9,18a1.87,1.87,0,0,1-.34-.25.86.86,0,0,1-.24-.35,1.08,1.08,0,0,1,0-.22,1.07,1.07,0,0,1,0-.2.76.76,0,0,1,0-.21.34.34,0,0,0,0-.13l0-.13a1.35,1.35,0,0,1,.24-.45,1.29,1.29,0,0,1,.36-.32l.13-.08.16,0h0a.06.06,0,0,0,.06,0c.15,0,.24.06.25.17a2.47,2.47,0,0,1,0,.4Zm2.11,3.2,0,.16a1.3,1.3,0,0,1,0,.16,1.27,1.27,0,0,1-.36.54,1.59,1.59,0,0,1-.59.31l-.09,0h-.1a.11.11,0,0,1-.1,0l-.08,0a.31.31,0,0,1-.11-.26c0-.11,0-.23,0-.35V19.87a.49.49,0,0,1,.06-.31.19.19,0,0,1,.1-.07h0a.78.78,0,0,1,.3.06l.25.12a2.1,2.1,0,0,1,.4.27,1.08,1.08,0,0,1,.28.39.8.8,0,0,1,0,.14l0,.17a.56.56,0,0,1,0,.2A.84.84,0,0,1,15.69,21.07Z" transform="translate(-2.35 -0.24)"/></svg>