<svg id="Layer_11" data-name="Layer 11" xmlns="http://www.w3.org/2000/svg" viewBox="0 0 18.86 29.34"><defs><style>.cls-1{fill:#c10683;}</style></defs><title>icon_Ung Thu</title><path class="cls-1" d="M19.76,4.18a4.86,4.86,0,0,0-.17-1.25s4.62,4.64,1,9.53c-.67.9-1.52,2.06-2.46,3.34-.7-.9-1.38-1.84-2-2.77,2-3,3.59-6.09,3.67-8.57" transform="translate(-6.39 -0.33)"/><path class="cls-1" d="M7.93,29.67s.42-5-1.54-5.46a87.55,87.55,0,0,0,7.5-8.41l2,2.77C12.11,23.82,7.93,29.67,7.93,29.67Z" transform="translate(-6.39 -0.33)"/><path class="cls-1" d="M23.71,29.3s-4.19-5.85-8-11.09l-2-2.78c-.94-1.28-1.79-2.44-2.46-3.34-3.62-4.86.92-9.47,1-9.53a5.1,5.1,0,0,0-.16,1.69c.14,2.45,1.68,5.47,3.66,8.4.64.94,1.32,1.87,2,2.77a87.88,87.88,0,0,0,7.51,8.41C23.29,24.26,23.71,29.3,23.71,29.3Z" transform="translate(-6.39 -0.33)"/><path class="cls-1" d="M19.58,3.82c0,.09,0,.18,0,.28L19.44,4l0-.21c0,.06,0,.12,0,.18-3.74-1.9-6.34-.34-7.14.26,0-.12,0-.24,0-.36a4.87,4.87,0,0,1,.18-1.33A3.65,3.65,0,0,1,15.29.37a4.14,4.14,0,0,1,2.43.41,3,3,0,0,1,1.65,2.08Z" transform="translate(-6.39 -0.33)"/><path class="cls-1" d="M19.44,4l0,0c0-.06,0-.12,0-.18Z" transform="translate(-6.39 -0.33)"/></svg>