<svg xmlns="http://www.w3.org/2000/svg" viewBox="0 0 29.3 16.1"><defs><style>.cls-1{isolation:isolate;}.cls-2{fill:#361f3b;}.cls-3{fill:#a0a0a0;}.cls-4{fill:#c9c9c9;}.cls-5{fill:#077774;}.cls-6{fill:#f37402;}.cls-7{mix-blend-mode:color-burn;}.cls-8{fill:#0ba7a7;}.cls-9{mix-blend-mode:overlay;}.cls-10{fill:#c5e8db;}.cls-11{fill:#fff;}.cls-12{fill:#ffb516;}.cls-13{fill:#f4daab;}.cls-14{fill:#f0f0f2;}</style></defs><title>icon_Tai Nan</title><g class="cls-1"><g id="Layer_8" data-name="Layer 8"><path class="cls-2" d="M27.54,16.5a1.64,1.64,0,1,0-1,2.09A1.64,1.64,0,0,0,27.54,16.5Zm-2.62,1.63a1.45,1.45,0,0,1-.49-.81h0a1.45,1.45,0,0,0,.48.79Zm.87.35a1.46,1.46,0,0,1-.68-.21l0,0a1.44,1.44,0,0,0,.66.21Zm1.52-1,0,0a1.45,1.45,0,0,0-.66-1.68l0,0A1.45,1.45,0,0,1,27.38,17,1.39,1.39,0,0,1,27.31,17.43Z" transform="translate(-0.31 -6.63)"/><circle class="cls-3" cx="25.99" cy="17.04" r="0.84" transform="translate(-4.47 2.88) rotate(-19.24)"/><path class="cls-4" d="M25.72,16.24a.84.84,0,0,0-.22.11.84.84,0,0,0,1.33.59.84.84,0,0,0-1.11-.71Z" transform="translate(-0.31 -6.63)"/><path class="cls-5" d="M27.56,16.51a1.92,1.92,0,0,1,.07.27l.8-.28.44-.16.39-.13a.48.48,0,0,0,.3-.62l-.34-1,0-.07-2.55.89A1.85,1.85,0,0,1,27.56,16.51Z" transform="translate(-0.31 -6.63)"/><path class="cls-2" d="M11.72,20.92a1,1,0,0,0-1.89,0V21l-.1.57a1,1,0,1,0,1.9.33l.11-.63v-.1s0-.05,0-.08A1,1,0,0,0,11.72,20.92Zm-.46,1.32a.7.7,0,0,1-.55.29.77.77,0,0,1-.44-.15,0,0,0,0,1,0,0h0a.64.64,0,0,0,.94-.14h0A0,0,0,0,1,11.26,22.25Zm.27-.58,0,0h0a0,0,0,0,1,0,0,.75.75,0,0,0-.26-.56,0,0,0,0,1,0,0h0A.77.77,0,0,1,11.53,21.67Z" transform="translate(-0.31 -6.63)"/><path class="cls-2" d="M2.45,18.94l-.35-.07a.79.79,0,0,0-.93.6l-.21,1a.79.79,0,0,0,.6.93l.35.07a.79.79,0,0,0,.93-.6l.21-1A.79.79,0,0,0,2.45,18.94Zm-.71,2.32h0a.69.69,0,0,1-.63-.78h0a0,0,0,0,1,0,0,.64.64,0,0,0,.6.73,0,0,0,0,1,0,0Zm.63-.07h0a0,0,0,0,1,0,0,.75.75,0,0,0,.34-.51l0,0a0,0,0,0,1,0,0A.77.77,0,0,1,2.37,21.2Z" transform="translate(-0.31 -6.63)"/><path class="cls-2" d="M18.2,20a1.64,1.64,0,1,0-1,2.09A1.64,1.64,0,0,0,18.2,20Zm-3,1a1.46,1.46,0,0,1,0-.71h0a1.44,1.44,0,0,0,0,.69Zm.05-.92h0a1.45,1.45,0,0,1,.58-.74l0,0A1.45,1.45,0,0,0,15.29,20.08ZM17.15,22a1.39,1.39,0,0,1-.4.08v0a1.45,1.45,0,0,0,1.34-1.22h0A1.45,1.45,0,0,1,17.15,22Z" transform="translate(-0.31 -6.63)"/><polygon class="cls-6" points="19.24 5.4 18.59 6.71 16.53 7.82 19.24 5.4"/><polygon class="cls-6" points="17.76 6.18 16.6 5.74 16.9 4.25 15.29 5.08 14.75 1.91 14.26 2.8 13.23 5.08 11.45 3.55 11.79 5.91 9.57 5.09 10.18 6.89 7.93 4.06 7.71 3.97 10.52 7.51 9.91 5.71 12.13 6.53 11.79 4.18 13.57 5.71 14.44 3.78 14.8 5.7 16.3 5.13 15.98 6.48 17.76 6.18"/><g class="cls-7"><polygon class="cls-5" points="10.25 7.08 7.44 3.53 11.13 5.02 10.33 1.57 13.06 4.21 15.01 0 15.48 4.56 17.43 3.78 17.01 5.62 19.24 5.4 16.12 8.65 17.27 6.32 16.12 6.42 16.46 4.91 14.8 5.7 14.54 2.54 13.3 5.27 11.53 3.74 11.86 6.1 9.65 5.27 10.25 7.08"/></g><circle class="cls-3" cx="16.66" cy="20.52" r="0.84" transform="translate(-6.14 0) rotate(-19.24)"/><path class="cls-4" d="M16.38,19.73a.84.84,0,0,0-.22.11.84.84,0,0,0,1.33.59.84.84,0,0,0-1.11-.71Z" transform="translate(-0.31 -6.63)"/><path class="cls-8" d="M25.17,13.52,15.48,16.9l1.17-3.11a1.63,1.63,0,0,1,1-.91l3.44-1.2a2.43,2.43,0,0,1,2.39.33Z" transform="translate(-0.31 -6.63)"/><g class="cls-9"><path class="cls-2" d="M23.81,13.66l-7.49,2.61L17.27,14A1.3,1.3,0,0,1,18,13.3l2.66-.93a1.92,1.92,0,0,1,1.83.21Z" transform="translate(-0.31 -6.63)"/></g><path class="cls-10" d="M23.81,13.66l-7.49,2.61.58-1.4.37-.89a1.11,1.11,0,0,1,.32-.42l.19-.13a1.53,1.53,0,0,1,.27-.13l2.66-.93.08,0a2.27,2.27,0,0,1,.92-.09,1.54,1.54,0,0,1,.83.33l.67.56Z" transform="translate(-0.31 -6.63)"/><path class="cls-11" d="M22.86,12.53" transform="translate(-0.31 -6.63)"/><path class="cls-8" d="M29.28,16.29l-.39.13-.44.16-.8.28,0-.08a1.9,1.9,0,0,0-.06-.19l0,0h0a1.74,1.74,0,0,0-.1-.21h0a1.85,1.85,0,0,0-.66-.71h0a1.68,1.68,0,0,0-1.44-.17,1.76,1.76,0,0,0-1,2.23h0v0l.08.18,0,.07-6.19,2.16,0-.06v0h0a1.85,1.85,0,0,0-.1-.22h0a1.85,1.85,0,0,0-.58-.66h0A1.68,1.68,0,0,0,16,18.94a1.76,1.76,0,0,0-1,2.23h0v0l0,.06-1.56.54.06-.11.79-1.4-1.25-.11v-.88l.45-1-.28-.45.15-.08,2-1,.07,0,.13,0h0l4.32-1.51,0-.1h0l-.49-1.39h0l-.25-.72,0-.14.58-.2,0,.14.74,2.11h0l0,.1L25,13.37h.1L27.8,13a.53.53,0,0,1,.58.35l.41,1.18a.36.36,0,0,1,.37.09.35.35,0,0,1,.08.13l.31.89,0,.08A.48.48,0,0,1,29.28,16.29Z" transform="translate(-0.31 -6.63)"/><path class="cls-5" d="M12.27,20.47l0,.07,0-.07Z" transform="translate(-0.31 -6.63)"/><path class="cls-5" d="M15,21.17v0h0l-1.47.51.79-1.4-1.25-.11,2.13-.74A1.83,1.83,0,0,0,15,21.13v0Z" transform="translate(-0.31 -6.63)"/><path class="cls-5" d="M18.22,20l0,.06,6.19-2.16a1.92,1.92,0,0,1-.11-.26,1.85,1.85,0,0,1,.06-1.4L17,18.83A1.83,1.83,0,0,1,18.22,20Z" transform="translate(-0.31 -6.63)"/><polygon class="cls-12" points="3.78 6.97 9.22 7.63 10.79 11.17 2.71 10.46 2.04 10.33 3.78 6.97"/><path class="cls-13" d="M10.78,17.54l-.57-.07L9,17.32l-.45-.05-.29,0L6.64,17l-.29,0-.86-.1-1.23-.15-1-.12-.58-.07,1.16-1.82.08-.13L4,14.52a1.45,1.45,0,0,1,1-.62,1.83,1.83,0,0,1,.47,0l2.27.27.29,0,.45.05.28,0a1.66,1.66,0,0,1,1,.49,1.22,1.22,0,0,1,.28.47Z" transform="translate(-0.31 -6.63)"/><path class="cls-12" d="M12.37,18.51l-.2-.7-.11-.37-.19-.68-.54-1.88a2.06,2.06,0,0,0-1.77-1.42L5,12.91a2.12,2.12,0,0,0-2.09,1L2,15.41l-.6,1-.53.89L.71,19l-.11,1,.46.06L3,20.2,9.82,21l1.54.19.38,0V21.2s0-.05,0-.08a1,1,0,0,0,0-.2l.35-.22-.33-.36-.24-.23-.37-.35.07-.52,1.14,0,0-.2-.29-.34Zm-2.32-3.23.18.56h0l.53,1.7v0l-8.1-1v0h0l1.15-1.8h0l.09-.14,0-.07a1.45,1.45,0,0,1,1-.62,1.84,1.84,0,0,1,.46,0l2.28.28.29,0,.45.05.26,0a1.67,1.67,0,0,1,1,.49h0A1.21,1.21,0,0,1,10.05,15.28Z" transform="translate(-0.31 -6.63)"/><path class="cls-12" d="M12.37,18.51l-.2-.7-.11-.37-.19-.68-.54-1.88a2.06,2.06,0,0,0-1.77-1.42L5,12.91a2.12,2.12,0,0,0-2.09,1L2,15.41l-.6,1-.53.89L.71,19l-.11,1,.46.06L3,20.2,9.82,21l1.54.19.38,0V21.2s0-.05,0-.08a1,1,0,0,0,0-.2l.35-.22-.33-.36-.24-.23-.37-.35.07-.52,1.14,0,0-.2-.29-.34Zm-2.32-3.23.18.56h0l.53,1.7v0l-8.1-1v0h0l1.15-1.8h0l.09-.14,0-.07a1.45,1.45,0,0,1,1-.62,1.84,1.84,0,0,1,.46,0l2.28.28.29,0,.45.05.26,0a1.67,1.67,0,0,1,1,.49h0A1.21,1.21,0,0,1,10.05,15.28Z" transform="translate(-0.31 -6.63)"/><path class="cls-6" d="M8.36,18.16h0l-3.11-.44a.07.07,0,0,1,0-.14L8.37,18a.07.07,0,0,1,0,.14Z" transform="translate(-0.31 -6.63)"/><path class="cls-6" d="M8.35,18.62h0l-3.11-.44a.07.07,0,1,1,0-.14l3.11.44a.07.07,0,0,1,0,.14Z" transform="translate(-0.31 -6.63)"/><path class="cls-6" d="M8.36,19.1h0l-3.11-.44a.07.07,0,0,1,0-.14L8.37,19a.07.07,0,0,1,0,.14Z" transform="translate(-0.31 -6.63)"/><path class="cls-6" d="M11.72,20.92a1,1,0,0,1,0,.2s0,.05,0,.08v.06l-.38,0L9.82,21,3,20.2,1.06,20,.6,19.92l.11-1,.83.09h0l1.11.12h.12l1.07.12,5.34.58,1.18.13,1.14.12.24.23.33.36Z" transform="translate(-0.31 -6.63)"/><circle class="cls-14" cx="3.31" cy="18.57" r="0.89" transform="translate(-15.71 9.64) rotate(-72.91)"/><circle class="cls-14" cx="9.84" cy="19.27" r="0.89" transform="translate(-11.78 16.38) rotate(-72.91)"/><circle class="cls-13" cx="3.31" cy="18.57" r="0.89" transform="translate(-15.71 9.64) rotate(-72.91)"/><circle class="cls-13" cx="9.84" cy="19.27" r="0.89" transform="translate(-11.78 16.38) rotate(-72.91)"/><path class="cls-6" d="M12.06,17.44l.44.22v.18l-.34,0-.78,0,0-.64h0l.43-.36.07-.06a.71.71,0,0,1,.5-.16h.24l-.23.4.5.37Z" transform="translate(-0.31 -6.63)"/><path class="cls-6" d="M2.14,16.69.56,16.1a.39.39,0,0,1-.23-.5l.14-.37a.51.51,0,0,1,.65-.3l.56.21a.71.71,0,0,1,.39.35l.29.59h0Z" transform="translate(-0.31 -6.63)"/><path class="cls-11" d="M12.75,20s0,.05,0,.08L12.51,20l.22-.14A1,1,0,0,1,12.75,20Z" transform="translate(-0.31 -6.63)"/><path class="cls-11" d="M15.13,19.37l0,.07,0-.07Z" transform="translate(-0.31 -6.63)"/><g class="cls-7"><path class="cls-5" d="M14.57,13.81A1.47,1.47,0,0,1,15,12.72s.3.53.39.53l.34,0v.41l-.16.21h-.26l-.35.26-.07-.56Z" transform="translate(-0.31 -6.63)"/></g><path class="cls-6" d="M13.31,15.67l.78-.27.23,0,.25.29,0,.26h.25a1.81,1.81,0,0,1-.19.47,2.51,2.51,0,0,1-.53,0l.12-.5-.32-.06.12-.14h-.36l-.3.15Z" transform="translate(-0.31 -6.63)"/><path class="cls-6" d="M13.37,12.37l.25.19h.25l-.12-.19.46-.13s-.12-.29-.19-.28h-.48Z" transform="translate(-0.31 -6.63)"/></g></g></svg>