<svg id="Layer_20" data-name="Layer 20" xmlns="http://www.w3.org/2000/svg" viewBox="0 0 28.27 29.25"><defs><style>.cls-1{fill:#bf001a;}</style></defs><title>icon_hoan hang ship</title><circle class="cls-1" cx="21.34" cy="20.54" r="0.64"/><path class="cls-1" d="M17.72,19.37H4.7a.45.45,0,0,0,0,.9h13a.45.45,0,0,0,0-.9Z" transform="translate(-1.73 -0.38)"/><path class="cls-1" d="M7.84,8.9a.75.75,0,0,0-.47.15.52.52,0,0,0-.19.44q0,.49.65.58Z" transform="translate(-1.73 -0.38)"/><path class="cls-1" d="M9,11.63q0-.51-.71-.65v1.34a.73.73,0,0,0,.51-.19A.64.64,0,0,0,9,11.63Z" transform="translate(-1.73 -0.38)"/><path class="cls-1" d="M27.3,19.93l-.41-.5-.15-.11V18.4a2.83,2.83,0,0,0-2.84-2.83H14.32v-9H3.6v9.13l-.13,0A2.83,2.83,0,0,0,1.73,18.4v5.83h.65V18.4a2.2,2.2,0,0,1,1.35-2,2.23,2.23,0,0,1,.84-.17H23.91A2.2,2.2,0,0,1,26.1,18.4v.67H22.77a1.7,1.7,0,0,0-1.7,1.7v.34a1.7,1.7,0,0,0,1.7,1.69H26.1v1.47h.65V22.52a1.69,1.69,0,0,0,.77-1.42v-.34A1.69,1.69,0,0,0,27.3,19.93Zm-18-7.43a1.56,1.56,0,0,1-1,.45v.65H7.84V13A1.62,1.62,0,0,1,6.31,11.7L7,11.52a.92.92,0,0,0,.84.79V10.93a2,2,0,0,1-1.11-.54,1.17,1.17,0,0,1-.25-.77c0-.78.45-1.24,1.36-1.36v-.5h.43v.5A1.41,1.41,0,0,1,9.53,9.33l-.66.16c-.11-.36-.31-.56-.61-.58v1.21a5,5,0,0,1,.84.3,1,1,0,0,1,.4.4,1.51,1.51,0,0,1,.17.71A1.33,1.33,0,0,1,9.32,12.5Zm17.55,8.6a1,1,0,0,1-.59.94,1,1,0,0,1-.47.11h-3a1.06,1.06,0,0,1-1.06-1v-.34a1.06,1.06,0,0,1,1.06-1.06h3a1.1,1.1,0,0,1,.47.11,1,1,0,0,1,.59.95Z" transform="translate(-1.73 -0.38)"/><path class="cls-1" d="M26.74,24.24v2.55a2.84,2.84,0,0,1-2.84,2.84H4.57a2.84,2.84,0,0,1-2.84-2.84V24.24Z" transform="translate(-1.73 -0.38)"/><path class="cls-1" d="M20.82.38a9.14,9.14,0,0,0-6.27,2.48l.27-1.57a.37.37,0,0,0-.72-.12l-.57,3.36,3-1a.37.37,0,1,0-.23-.7l-1,.32A8.44,8.44,0,0,1,27.24,15a.37.37,0,0,0,.56.48,9.18,9.18,0,0,0-7-15.14Z" transform="translate(-1.73 -0.38)"/></svg>