<svg id="Layer_16" data-name="Layer 16" xmlns="http://www.w3.org/2000/svg" viewBox="0 0 29.13 18.29"><defs><style>.cls-1{fill:#fcee21;}.cls-2{fill:#082fbc;}</style></defs><title>icon-du lich</title><path class="cls-1" d="M29.56,8.15a.94.94,0,0,1-.47.82c-1.16.65-4.75,2.68-9,4.77-1.89.93-3.91,1.87-5.91,2.71-4.72,2-9.32,3.41-11.74,2.76a.49.49,0,0,1-.25-.79c.27-.32.67-.77,1.22-1.32L.5,14.38a.19.19,0,0,1,0-.3l1.22-.68a1,1,0,0,1,.85-.05l3.68,1.47,5.29-2.52,5.55-2.65h0l5.94-2.83A6.65,6.65,0,0,1,27,6.23a4.68,4.68,0,0,1-1.7,1.13.39.39,0,0,0,0,.71,1.8,1.8,0,0,0,.91,0s1.68-.46,2-1.5a3.16,3.16,0,0,1,1.17,1A1,1,0,0,1,29.56,8.15Z" transform="translate(-0.44 -6.15)"/><path class="cls-1" d="M16.94,9.24h0l-5.55,2.65L5.94,8.26A.51.51,0,0,1,6,7.4l1.77-1Z" transform="translate(-0.44 -6.15)"/><path class="cls-2" d="M20.08,13.74,15.94,23.1a1,1,0,0,1-.55.53l-1.93.77a.47.47,0,0,1-.63-.52l1.34-7.44h0C16.17,15.61,18.19,14.67,20.08,13.74Z" transform="translate(-0.44 -6.15)"/><path class="cls-2" d="M28.2,6.62c-.34,1-2,1.5-2,1.5a1.8,1.8,0,0,1-.91,0,.39.39,0,0,1,0-.71A4.68,4.68,0,0,0,27,6.23,4.35,4.35,0,0,1,28.2,6.62Z" transform="translate(-0.44 -6.15)"/></svg>