<svg id="Layer_18" data-name="Layer 18" xmlns="http://www.w3.org/2000/svg" viewBox="0 0 29.2 29.5"><defs><style>.cls-1{fill:#082fbc;}.cls-2{fill:#ffbd2d;}</style></defs><title>icon_nha tu nhan</title><ellipse class="cls-1" cx="12.12" cy="6.94" rx="5.55" ry="6.94"/><path class="cls-1" d="M23.14,29.75v-8H20.52v8H18.33V25.08H15.7v4.67H.4l.11-7a3.53,3.53,0,0,1,1.69-3L8,16.26,10.4,23,11.9,19A1.09,1.09,0,0,0,13,19l1.2,4,2.53-6.72,5.59,3.21a4.41,4.41,0,0,1,2.22,3.76l.1,6.47Z" transform="translate(-0.4 -0.25)"/><path class="cls-1" d="M13.95,17.12l-.42,1.29A1,1,0,0,1,13,19,1.09,1.09,0,0,1,11.9,19a1,1,0,0,1-.39-.54l-.41-1.29a1.06,1.06,0,0,1,1-1.39h.83A1.07,1.07,0,0,1,13.95,17.12Z" transform="translate(-0.4 -0.25)"/><polygon class="cls-2" points="29.2 17.96 27.57 17.96 27.57 29.5 24.94 29.5 24.94 17.96 23.36 17.96 26.13 14.02 29.2 17.96"/></svg>