<?xml version="1.0" encoding="utf-8"?>
<!-- Generator: Adobe Illustrator 21.0.0, SVG Export Plug-In . SVG Version: 6.00 Build 0)  -->
<svg version="1.1" xmlns="http://www.w3.org/2000/svg" xmlns:xlink="http://www.w3.org/1999/xlink" x="0px" y="0px"
	 viewBox="0 0 1060.5 260.2" style="enable-background:new 0 0 1060.5 260.2;" xml:space="preserve">
<style type="text/css">
	.st0{display:none;}
	.st1{display:inline;}
	.st2{fill:url(#SVGID_1_);}
	.st3{fill:url(#SVGID_2_);}
	.st4{display:inline;fill:#FFFFFF;}
	.st5{clip-path:url(#SVGID_4_);}
	.st6{fill:url(#Path_195_1_);}
	.st7{fill:url(#Path_196_1_);}
	.st8{fill:url(#Path_197_1_);}
	.st9{fill:url(#Path_198_1_);}
	.st10{display:inline;fill:url(#SVGID_5_);}
	.st11{display:inline;fill:url(#SVGID_6_);}
	.st12{fill:url(#SVGID_7_);}
	.st13{fill:url(#SVGID_8_);}
</style>
<g id="Layer_3_1_" class="st0">
	<g id="Layer_4" class="st1">
		
			<linearGradient id="SVGID_1_" gradientUnits="userSpaceOnUse" x1="601.1822" y1="449.7641" x2="675.1822" y2="-345.2359" gradientTransform="matrix(1 0 0 -1 0 262)">
			<stop  offset="0" style="stop-color:#FFFFFF"/>
			<stop  offset="9.400000e-02" style="stop-color:#F7FCFB"/>
			<stop  offset="0.233" style="stop-color:#E3F4F0"/>
			<stop  offset="0.4" style="stop-color:#C2E6DF"/>
			<stop  offset="0.589" style="stop-color:#94D4C7"/>
			<stop  offset="0.794" style="stop-color:#5ABDA9"/>
			<stop  offset="1" style="stop-color:#19A387"/>
		</linearGradient>
		<path class="st2" d="M617.8,51c-51.5,3.9-97.7,27.3-130.9,62.9s-53.5,83.4-53.5,136c0,3.1,0.1,6.1,0.2,9.1h79.1
			c-0.1-1.7-0.1-3.4-0.1-5c0-66.5,53.9-120.3,120.4-120.3c2.6,0,5.2,0.1,7.7,0.3v-0.3h112.6V254c0,1.7,0,3.4-0.1,5H831l1.5-208.8
			L617.8,51z"/>
		
			<linearGradient id="SVGID_2_" gradientUnits="userSpaceOnUse" x1="400.5488" y1="431.0888" x2="474.5488" y2="-363.9112" gradientTransform="matrix(1 0 0 -1 0 262)">
			<stop  offset="0" style="stop-color:#FFFFFF"/>
			<stop  offset="9.400000e-02" style="stop-color:#F7FCFB"/>
			<stop  offset="0.233" style="stop-color:#E3F4F0"/>
			<stop  offset="0.4" style="stop-color:#C2E6DF"/>
			<stop  offset="0.589" style="stop-color:#94D4C7"/>
			<stop  offset="0.794" style="stop-color:#5ABDA9"/>
			<stop  offset="1" style="stop-color:#19A387"/>
		</linearGradient>
		<path class="st3" d="M464.4,51.7L239.5,50l0.8,209h83c-0.3-3.1-0.4-6.2-0.4-9.5c0-2.6,0.1-5.2,0.3-7.8h-0.3V129.1h120.4
			c66.4,0,120.3,53.9,120.3,120.4c0,3.2-0.1,6.4-0.4,9.5h74.9v-25.5C630.6,139.1,557.5,63.3,464.4,51.7z"/>
	</g>
</g>
<g id="Layer_2_1_" class="st0">
	<rect x="51" y="370" class="st4" width="924" height="440"/>
</g>
<g id="Layer_1">
	<g id="Layer_1_1_" class="st0">
		<g class="st1">
			<g>
				<defs>
					<rect id="SVGID_3_" x="-186.1" y="-483.8" width="1060.5" height="260.2"/>
				</defs>
				<clipPath id="SVGID_4_">
					<use xlink:href="#SVGID_3_"  style="overflow:visible;"/>
				</clipPath>
				<g id="Group_165" transform="translate(-186.127 -483.781)" class="st5">
					<g id="Group_164">
						
							<linearGradient id="Path_195_1_" gradientUnits="userSpaceOnUse" x1="402.6689" y1="-322.146" x2="402.6689" y2="-321.058" gradientTransform="matrix(351.731 0 0 366.905 -140726.2344 118621.2656)">
							<stop  offset="0" style="stop-color:#FFFFFF"/>
							<stop  offset="9.400000e-02" style="stop-color:#F7FCFB"/>
							<stop  offset="0.233" style="stop-color:#E3F4F0"/>
							<stop  offset="0.4" style="stop-color:#C2E6DF"/>
							<stop  offset="0.589" style="stop-color:#94D4C7"/>
							<stop  offset="0.794" style="stop-color:#5ABDA9"/>
							<stop  offset="1" style="stop-color:#19A387"/>
						</linearGradient>
						<path id="Path_195" class="st6" d="M882.6,660.8l99.7,136.7l0.2,77.3h98.3l-0.2-109.4L943.2,577.1L729,507.9v103.3
							L882.6,660.8z"/>
						
							<linearGradient id="Path_196_1_" gradientUnits="userSpaceOnUse" x1="402.6687" y1="-322.1461" x2="402.6687" y2="-321.0591" gradientTransform="matrix(351.994 0 0 367.278 -141197.9063 118741.3359)">
							<stop  offset="0" style="stop-color:#FFFFFF"/>
							<stop  offset="9.400000e-02" style="stop-color:#F7FCFB"/>
							<stop  offset="0.233" style="stop-color:#E3F4F0"/>
							<stop  offset="0.4" style="stop-color:#C2E6DF"/>
							<stop  offset="0.589" style="stop-color:#94D4C7"/>
							<stop  offset="0.794" style="stop-color:#5ABDA9"/>
							<stop  offset="1" style="stop-color:#19A387"/>
						</linearGradient>
						<path id="Path_196" class="st7" d="M500,577.8L363.1,766.6l0.2,108.3h98.3l-0.2-76.5l99.4-137L715,611V507.5L500,577.8z"/>
						
							<linearGradient id="Path_197_1_" gradientUnits="userSpaceOnUse" x1="402.6685" y1="-323.1881" x2="402.6685" y2="-322.1001" gradientTransform="matrix(351.74 0 0 366.936 -141095.4844 119013.4688)">
							<stop  offset="0" style="stop-color:#FFFFFF"/>
							<stop  offset="9.400000e-02" style="stop-color:#F7FCFB"/>
							<stop  offset="0.233" style="stop-color:#E3F4F0"/>
							<stop  offset="0.4" style="stop-color:#C2E6DF"/>
							<stop  offset="0.589" style="stop-color:#94D4C7"/>
							<stop  offset="0.794" style="stop-color:#5ABDA9"/>
							<stop  offset="1" style="stop-color:#19A387"/>
						</linearGradient>
						<path id="Path_197" class="st8" d="M561.4,1104.2l-99.7-136.7l-0.1-77.4h-98.3l0.2,109.4l137.3,188.3L715,1257v-103.3
							L561.4,1104.2z"/>
						
							<linearGradient id="Path_198_1_" gradientUnits="userSpaceOnUse" x1="402.6689" y1="-323.1873" x2="402.6689" y2="-322.1013" gradientTransform="matrix(351.9891 0 0 367.348 -140830.0625 119146.5938)">
							<stop  offset="0" style="stop-color:#FFFFFF"/>
							<stop  offset="9.400000e-02" style="stop-color:#F7FCFB"/>
							<stop  offset="0.233" style="stop-color:#E3F4F0"/>
							<stop  offset="0.4" style="stop-color:#C2E6DF"/>
							<stop  offset="0.589" style="stop-color:#94D4C7"/>
							<stop  offset="0.794" style="stop-color:#5ABDA9"/>
							<stop  offset="1" style="stop-color:#19A387"/>
						</linearGradient>
						<path id="Path_198" class="st9" d="M944.2,1187.2L1081,998.5l-0.2-108.3h-98.3l0.2,76.6l-99.3,136.9L729,1154.1v103.4
							L944.2,1187.2z"/>
					</g>
				</g>
			</g>
		</g>
	</g>
	<g id="Layer_3">
	</g>
	<g id="Layer_2" class="st0">
		
			<linearGradient id="SVGID_5_" gradientUnits="userSpaceOnUse" x1="433.4" y1="107.4" x2="832.5001" y2="107.4" gradientTransform="matrix(1 0 0 -1 0 262)">
			<stop  offset="0" style="stop-color:#FFFFFF"/>
			<stop  offset="9.400000e-02" style="stop-color:#F7FCFB"/>
			<stop  offset="0.233" style="stop-color:#E3F4F0"/>
			<stop  offset="0.4" style="stop-color:#C2E6DF"/>
			<stop  offset="0.589" style="stop-color:#94D4C7"/>
			<stop  offset="0.794" style="stop-color:#5ABDA9"/>
			<stop  offset="1" style="stop-color:#19A387"/>
		</linearGradient>
		<path class="st10" d="M617.8,51c-51.5,3.9-97.7,27.3-130.9,62.9s-53.5,83.4-53.5,136c0,3.1,0.1,6.1,0.2,9.1h79.1
			c-0.1-1.7-0.1-3.4-0.1-5c0-66.5,53.9-120.3,120.4-120.3c2.6,0,5.2,0.1,7.7,0.3v-0.3h112.6V254c0,1.7,0,3.4-0.1,5H831l1.5-208.8
			L617.8,51z"/>
		
			<linearGradient id="SVGID_6_" gradientUnits="userSpaceOnUse" x1="239.5" y1="107.5" x2="638.1" y2="107.5" gradientTransform="matrix(1 0 0 -1 0 262)">
			<stop  offset="0" style="stop-color:#FFFFFF"/>
			<stop  offset="9.400000e-02" style="stop-color:#F7FCFB"/>
			<stop  offset="0.233" style="stop-color:#E3F4F0"/>
			<stop  offset="0.4" style="stop-color:#C2E6DF"/>
			<stop  offset="0.589" style="stop-color:#94D4C7"/>
			<stop  offset="0.794" style="stop-color:#5ABDA9"/>
			<stop  offset="1" style="stop-color:#19A387"/>
		</linearGradient>
		<path class="st11" d="M464.4,51.7L239.5,50l0.8,209h83c-0.3-3.1-0.4-6.2-0.4-9.5c0-2.6,0.1-5.2,0.3-7.8h-0.3V129.1h120.4
			c66.4,0,120.3,53.9,120.3,120.4c0,3.2-0.1,6.4-0.4,9.5h74.9v-25.5C630.6,139.1,557.5,63.3,464.4,51.7z"/>
	</g>
	
		<linearGradient id="SVGID_7_" gradientUnits="userSpaceOnUse" x1="602.8786" y1="484.1555" x2="678.2222" y2="-325.2798" gradientTransform="matrix(1 0 0 -1 0 262)">
		<stop  offset="0" style="stop-color:#FFFFFF"/>
		<stop  offset="0.1696" style="stop-color:#F7FCFB"/>
		<stop  offset="0.2004" style="stop-color:#EDF8F6"/>
		<stop  offset="0.2512" style="stop-color:#E5F5F1"/>
		<stop  offset="0.3436" style="stop-color:#E3F4F0"/>
		<stop  offset="0.4039" style="stop-color:#E1F3EF"/>
		<stop  offset="0.4256" style="stop-color:#DAF0EC"/>
		<stop  offset="0.441" style="stop-color:#CFEBE5"/>
		<stop  offset="0.4508" style="stop-color:#C2E6DF"/>
		<stop  offset="0.4793" style="stop-color:#BAE3DB"/>
		<stop  offset="0.5228" style="stop-color:#A5DAD0"/>
		<stop  offset="0.5757" style="stop-color:#82CDBE"/>
		<stop  offset="0.6136" style="stop-color:#65C1AF"/>
		<stop  offset="0.6806" style="stop-color:#5ABDA9"/>
		<stop  offset="0.7064" style="stop-color:#5EBFAB"/>
		<stop  offset="0.7322" style="stop-color:#6AC3B1"/>
		<stop  offset="0.7577" style="stop-color:#7ECBBB"/>
		<stop  offset="0.7787" style="stop-color:#94D4C7"/>
		<stop  offset="0.798" style="stop-color:#80CCBD"/>
		<stop  offset="0.8391" style="stop-color:#5BBDA9"/>
		<stop  offset="0.8802" style="stop-color:#3EB29A"/>
		<stop  offset="0.9209" style="stop-color:#2AAA90"/>
		<stop  offset="0.9611" style="stop-color:#1DA589"/>
		<stop  offset="1" style="stop-color:#19A387"/>
	</linearGradient>
	<path class="st12" d="M622.8,52.1C571.3,56,525.1,79.4,491.9,115s-53.5,83.4-53.5,136c0,3.1,0.1,6.1,0.2,9.1h79.1
		c-0.1-1.7-0.1-3.4-0.1-5c0-66.5,53.9-120.3,120.4-120.3c2.6,0,5.2,0.1,7.7,0.3v-0.3h112.6v120.3c0,1.7,0,3.4-0.1,5H836l1.5-208.8
		L622.8,52.1z"/>
	<linearGradient id="SVGID_8_" gradientUnits="userSpaceOnUse" x1="451.19" y1="-23.9355" x2="428.19" y2="416.0645">
		<stop  offset="0" style="stop-color:#FFFFFF"/>
		<stop  offset="0.1696" style="stop-color:#F7FCFB"/>
		<stop  offset="0.233" style="stop-color:#E3F4F0"/>
		<stop  offset="0.4" style="stop-color:#C2E6DF"/>
		<stop  offset="0.4583" style="stop-color:#ACDDD4"/>
		<stop  offset="0.5786" style="stop-color:#75C8B7"/>
		<stop  offset="0.6328" style="stop-color:#5ABDA9"/>
		<stop  offset="0.6713" style="stop-color:#5EBFAB"/>
		<stop  offset="0.7095" style="stop-color:#6AC3B1"/>
		<stop  offset="0.7475" style="stop-color:#7ECBBB"/>
		<stop  offset="0.7787" style="stop-color:#94D4C7"/>
		<stop  offset="0.8121" style="stop-color:#8ED2C4"/>
		<stop  offset="0.855" style="stop-color:#7ECBBC"/>
		<stop  offset="0.903" style="stop-color:#64C1AE"/>
		<stop  offset="0.9544" style="stop-color:#40B29B"/>
		<stop  offset="1" style="stop-color:#19A387"/>
	</linearGradient>
	<path class="st13" d="M467.4,52.9l-224.9-1.7l0.8,209h83c-0.3-3.1-0.4-6.2-0.4-9.5c0-2.6,0.1-5.2,0.3-7.8h-0.3V130.3h120.4
		c66.4,0,120.3,53.9,120.3,120.4c0,3.2-0.1,6.4-0.4,9.5h74.9v-25.5C633.6,140.3,560.5,64.5,467.4,52.9z"/>
</g>
</svg>
