<?xml version="1.0" encoding="utf-8"?>
<!-- Generator: Adobe Illustrator 21.0.0, SVG Export Plug-In . SVG Version: 6.00 Build 0)  -->
<svg version="1.1" xmlns="http://www.w3.org/2000/svg" xmlns:xlink="http://www.w3.org/1999/xlink" x="0px" y="0px"
	 viewBox="0 0 1060.5 260.2" style="enable-background:new 0 0 1060.5 260.2;" xml:space="preserve">
<style type="text/css">
	.st0{display:none;}
	.st1{display:inline;}
	.st2{clip-path:url(#SVGID_2_);}
	.st3{fill:url(#Path_195_1_);}
	.st4{fill:url(#Path_196_1_);}
	.st5{fill:url(#Path_197_1_);}
	.st6{fill:url(#Path_198_1_);}
	.st7{display:inline;fill:url(#SVGID_3_);}
	.st8{display:inline;fill:url(#SVGID_4_);}
	.st9{fill:url(#SVGID_5_);}
	.st10{fill:url(#SVGID_6_);}
</style>
<g id="Layer_1" class="st0">
	<g class="st1">
		<defs>
			<rect id="SVGID_1_" width="1060.5" height="260.2"/>
		</defs>
		<clipPath id="SVGID_2_">
			<use xlink:href="#SVGID_1_"  style="overflow:visible;"/>
		</clipPath>
		<g id="Group_165" transform="translate(-186.127 -483.781)" class="st2">
			<g id="Group_164">
				
					<linearGradient id="Path_195_1_" gradientUnits="userSpaceOnUse" x1="-73.631" y1="1105.0278" x2="-73.631" y2="1103.9398" gradientTransform="matrix(351.731 0 0 -366.905 26803.1133 405864.5313)">
					<stop  offset="0" style="stop-color:#FFFFFF"/>
					<stop  offset="9.400000e-02" style="stop-color:#F7FCFB"/>
					<stop  offset="0.233" style="stop-color:#E3F4F0"/>
					<stop  offset="0.4" style="stop-color:#C2E6DF"/>
					<stop  offset="0.589" style="stop-color:#94D4C7"/>
					<stop  offset="0.794" style="stop-color:#5ABDA9"/>
					<stop  offset="1" style="stop-color:#19A387"/>
				</linearGradient>
				<path id="Path_195" class="st3" d="M882.6,660.8l99.7,136.7l0.2,77.3h98.3l-0.2-109.4L943.2,577.1L729,507.9v103.3L882.6,660.8z
					"/>
				
					<linearGradient id="Path_196_1_" gradientUnits="userSpaceOnUse" x1="-73.6315" y1="1105.0278" x2="-73.6315" y2="1103.9408" gradientTransform="matrix(351.994 0 0 -367.278 26456.9297 406276.5938)">
					<stop  offset="0" style="stop-color:#FFFFFF"/>
					<stop  offset="9.400000e-02" style="stop-color:#F7FCFB"/>
					<stop  offset="0.233" style="stop-color:#E3F4F0"/>
					<stop  offset="0.4" style="stop-color:#C2E6DF"/>
					<stop  offset="0.589" style="stop-color:#94D4C7"/>
					<stop  offset="0.794" style="stop-color:#5ABDA9"/>
					<stop  offset="1" style="stop-color:#19A387"/>
				</linearGradient>
				<path id="Path_196" class="st4" d="M500,577.8L363.1,766.6l0.2,108.3h98.3l-0.2-76.5l99.4-137l154.2-50.4V507.5L500,577.8z"/>
				
					<linearGradient id="Path_197_1_" gradientUnits="userSpaceOnUse" x1="-73.631" y1="1106.0699" x2="-73.631" y2="1104.9819" gradientTransform="matrix(351.74 0 0 -366.936 26438.166 406281)">
					<stop  offset="0" style="stop-color:#FFFFFF"/>
					<stop  offset="9.400000e-02" style="stop-color:#F7FCFB"/>
					<stop  offset="0.233" style="stop-color:#E3F4F0"/>
					<stop  offset="0.4" style="stop-color:#C2E6DF"/>
					<stop  offset="0.589" style="stop-color:#94D4C7"/>
					<stop  offset="0.794" style="stop-color:#5ABDA9"/>
					<stop  offset="1" style="stop-color:#19A387"/>
				</linearGradient>
				<path id="Path_197" class="st5" d="M561.4,1104.2l-99.7-136.7l-0.1-77.4h-98.3l0.2,109.4l137.3,188.3l214.2,69.2v-103.3
					L561.4,1104.2z"/>
				
					<linearGradient id="Path_198_1_" gradientUnits="userSpaceOnUse" x1="-73.6315" y1="1106.069" x2="-73.6315" y2="1104.983" gradientTransform="matrix(351.9891 0 0 -367.348 26822.4355 406736.625)">
					<stop  offset="0" style="stop-color:#FFFFFF"/>
					<stop  offset="9.400000e-02" style="stop-color:#F7FCFB"/>
					<stop  offset="0.233" style="stop-color:#E3F4F0"/>
					<stop  offset="0.4" style="stop-color:#C2E6DF"/>
					<stop  offset="0.589" style="stop-color:#94D4C7"/>
					<stop  offset="0.794" style="stop-color:#5ABDA9"/>
					<stop  offset="1" style="stop-color:#19A387"/>
				</linearGradient>
				<path id="Path_198" class="st6" d="M944.2,1187.2l136.8-188.7l-0.2-108.3h-98.3l0.2,76.6l-99.3,136.9L729,1154.1v103.4
					L944.2,1187.2z"/>
			</g>
		</g>
	</g>
</g>
<g id="Layer_3" class="st0">
</g>
<g id="Layer_2" class="st0">
	<linearGradient id="SVGID_3_" gradientUnits="userSpaceOnUse" x1="433.4" y1="154.61" x2="832.4" y2="154.61">
		<stop  offset="0" style="stop-color:#FFFFFF"/>
		<stop  offset="9.400000e-02" style="stop-color:#F7FCFB"/>
		<stop  offset="0.233" style="stop-color:#E3F4F0"/>
		<stop  offset="0.4" style="stop-color:#C2E6DF"/>
		<stop  offset="0.589" style="stop-color:#94D4C7"/>
		<stop  offset="0.794" style="stop-color:#5ABDA9"/>
		<stop  offset="1" style="stop-color:#19A387"/>
	</linearGradient>
	<path class="st7" d="M617.8,51c-51.5,3.9-97.7,27.3-130.9,62.9c-33.2,35.6-53.5,83.4-53.5,136c0,3.1,0.1,6.1,0.2,9.1h79.1
		c-0.1-1.7-0.1-3.4-0.1-5c0-66.5,53.9-120.3,120.4-120.3c2.6,0,5.2,0.1,7.7,0.3v-0.3h112.6V254c0,1.7,0,3.4-0.1,5h77.8l1.5-208.8
		L617.8,51z"/>
	<linearGradient id="SVGID_4_" gradientUnits="userSpaceOnUse" x1="239.5343" y1="154.5045" x2="638.1191" y2="154.5045">
		<stop  offset="0" style="stop-color:#FFFFFF"/>
		<stop  offset="9.400000e-02" style="stop-color:#F7FCFB"/>
		<stop  offset="0.233" style="stop-color:#E3F4F0"/>
		<stop  offset="0.4" style="stop-color:#C2E6DF"/>
		<stop  offset="0.589" style="stop-color:#94D4C7"/>
		<stop  offset="0.794" style="stop-color:#5ABDA9"/>
		<stop  offset="1" style="stop-color:#19A387"/>
	</linearGradient>
	<path class="st8" d="M464.4,51.7L239.5,50l0.8,209h83c-0.3-3.1-0.4-6.2-0.4-9.5c0-2.6,0.1-5.2,0.3-7.8h-0.3V129.1h120.4
		c66.4,0,120.3,53.9,120.3,120.4c0,3.2-0.1,6.4-0.4,9.5h74.9v-25.5C630.6,139.1,557.5,63.3,464.4,51.7z"/>
</g>
<g id="Layer_4">
	<linearGradient id="SVGID_5_" gradientUnits="userSpaceOnUse" x1="941.053" y1="135.2843" x2="342.5327" y2="189.7599">
		<stop  offset="0" style="stop-color:#FFFFFF"/>
		<stop  offset="9.400000e-02" style="stop-color:#F7FCFB"/>
		<stop  offset="0.233" style="stop-color:#E3F4F0"/>
		<stop  offset="0.4" style="stop-color:#C2E6DF"/>
		<stop  offset="0.589" style="stop-color:#94D4C7"/>
		<stop  offset="0.794" style="stop-color:#5ABDA9"/>
		<stop  offset="1" style="stop-color:#19A387"/>
	</linearGradient>
	<path class="st9" d="M617.8,51c-51.5,3.9-97.7,27.3-130.9,62.9c-33.2,35.6-53.5,83.4-53.5,136c0,3.1,0.1,6.1,0.2,9.1h79.1
		c-0.1-1.7-0.1-3.4-0.1-5c0-66.5,53.9-120.3,120.4-120.3c2.6,0,5.2,0.1,7.7,0.3v-0.3h112.6V254c0,1.7,0,3.4-0.1,5h77.8l1.5-208.8
		L617.8,51z"/>
	<linearGradient id="SVGID_6_" gradientUnits="userSpaceOnUse" x1="113.5343" y1="154.5045" x2="754.0049" y2="154.5045">
		<stop  offset="0" style="stop-color:#FFFFFF"/>
		<stop  offset="9.400000e-02" style="stop-color:#F7FCFB"/>
		<stop  offset="0.233" style="stop-color:#E3F4F0"/>
		<stop  offset="0.4" style="stop-color:#C2E6DF"/>
		<stop  offset="0.589" style="stop-color:#94D4C7"/>
		<stop  offset="0.794" style="stop-color:#5ABDA9"/>
		<stop  offset="1" style="stop-color:#19A387"/>
	</linearGradient>
	<path class="st10" d="M464.4,51.7L239.5,50l0.8,209h83c-0.3-3.1-0.4-6.2-0.4-9.5c0-2.6,0.1-5.2,0.3-7.8h-0.3V129.1h120.4
		c66.4,0,120.3,53.9,120.3,120.4c0,3.2-0.1,6.4-0.4,9.5h74.9v-25.5C630.6,139.1,557.5,63.3,464.4,51.7z"/>
</g>
</svg>
