<?xml version="1.0" encoding="utf-8"?>
<!-- Generator: Adobe Illustrator 21.0.0, SVG Export Plug-In . SVG Version: 6.00 Build 0)  -->
<svg version="1.1" xmlns="http://www.w3.org/2000/svg" xmlns:xlink="http://www.w3.org/1999/xlink" x="0px" y="0px"
	 viewBox="0 0 30 30" style="enable-background:new 0 0 30 30;" xml:space="preserve">
<style type="text/css">
	.st0{display:none;}
	.st1{display:inline;fill:#FFFFFF;stroke:#4C84AD;stroke-width:5;stroke-miterlimit:10;}
	.st2{display:inline;fill:#9ED9F1;stroke:#4C84AD;stroke-width:5;stroke-miterlimit:10;}
	.st3{display:inline;fill:none;stroke:#4C84AD;stroke-width:5;stroke-miterlimit:10;}
	.st4{display:inline;fill:#4C84AD;}
	.st5{fill:#FFFFFF;stroke:#00AEDF;stroke-width:0.7;stroke-miterlimit:10;}
	.st6{fill:#1CA0A4;stroke:#00AEDF;stroke-width:0.7;stroke-miterlimit:10;}
	.st7{fill:#00AEDF;}
</style>
<g id="Layer_1" class="st0">
	<circle class="st1" cx="14.7" cy="16.7" r="13.8"/>
	<path class="st2" d="M21.8,20.2H8.1c-2.7,0-4.9-2.2-4.9-4.9v0c0-2.7,2.2-4.9,4.9-4.9h13.6c2.7,0,4.9,2.2,4.9,4.9v0
		C26.6,18,24.4,20.2,21.8,20.2z"/>
	<path class="st3" d="M14.9,25.7c2,0,3.7-1.6,3.7-3.5h-7.4C11.2,24.2,12.9,25.7,14.9,25.7z"/>
	<circle class="st1" cx="8.5" cy="15.2" r="2.4"/>
	<circle class="st1" cx="21.4" cy="15.3" r="2.4"/>
	<path class="st1" d="M6.7,5.3c-1.6,1.2-3,2.6-4,4.4C2.3,9.2,2.1,8.6,2.1,8c0-1.7,1.4-3,3-3C5.7,4.9,6.3,5.1,6.7,5.3z"/>
	<path class="st1" d="M28,8c0,0.9-0.4,1.7-1,2.3c-1-1.8-2.3-3.4-3.9-4.7c0.5-0.4,1.2-0.7,1.9-0.7C26.6,4.9,28,6.3,28,8z"/>
	<polygon class="st4" points="26.7,5.6 26.2,5.2 29.6,1.4 30,1.7 	"/>
	<polygon class="st4" points="3.5,5.3 3,5.7 -0.1,1.6 0.3,1.3 	"/>
	<path class="st2" d="M31.1,2.1c-0.8,0.2-1.7-0.3-1.9-1.2s0.3-1.7,1.2-1.9c0.8-0.2,1.7,0.3,1.9,1.2C32.5,1,32,1.9,31.1,2.1z"/>
	<path class="st2" d="M-0.1,2.1C-0.9,2.2-1.8,1.7-2,0.9S-1.6-0.8-0.8-1s1.7,0.3,1.9,1.2S0.8,1.9-0.1,2.1z"/>
</g>
<g id="Layer_2">
	<circle class="st5" cx="15.1" cy="16.9" r="10.6"/>
	<path class="st6" d="M20.5,19.6H10.1c-2,0-3.7-1.7-3.7-3.7v0c0-2,1.7-3.7,3.7-3.7h10.4c2,0,3.7,1.7,3.7,3.7v0
		C24.2,17.9,22.5,19.6,20.5,19.6z"/>
	<path class="st5" d="M15.3,23.9c1.6,0,2.8-1.2,2.8-2.7h-5.6C12.5,22.7,13.7,23.9,15.3,23.9z"/>
	<circle class="st5" cx="10.3" cy="15.8" r="1.8"/>
	<circle class="st5" cx="20.2" cy="15.9" r="1.8"/>
	<path class="st6" d="M9,8.3c-1.2,0.9-2.3,2-3.1,3.3c-0.3-0.4-0.4-0.8-0.4-1.3C5.5,9,6.5,8,7.8,8C8.3,8,8.6,8.1,9,8.3z"/>
	<path class="st6" d="M25.2,10.3c0,0.7-0.3,1.3-0.8,1.7c-0.7-1.4-1.8-2.6-3-3.5C21.8,8.2,22.3,8,22.9,8C24.2,8,25.2,9,25.2,10.3z"/>
	<polygon class="st7" points="24.2,8.5 23.9,8.2 26.5,5.3 26.8,5.5 	"/>
	<polygon class="st7" points="6.5,8.3 6.2,8.6 3.8,5.5 4.1,5.2 	"/>
	<path class="st6" d="M27.6,5.8c-0.6,0.1-1.3-0.3-1.4-0.9c-0.1-0.6,0.3-1.3,0.9-1.4c0.6-0.1,1.3,0.3,1.4,0.9
		C28.7,5,28.3,5.6,27.6,5.8z"/>
	<path class="st6" d="M3.8,5.8C3.2,5.9,2.5,5.5,2.4,4.9s0.3-1.3,0.9-1.4c0.6-0.1,1.3,0.3,1.4,0.9S4.4,5.6,3.8,5.8z"/>
</g>
</svg>
