<?xml version="1.0" encoding="utf-8"?>
<!-- Generator: Adobe Illustrator 21.0.0, SVG Export Plug-In . SVG Version: 6.00 Build 0)  -->
<svg version="1.1" xmlns="http://www.w3.org/2000/svg" xmlns:xlink="http://www.w3.org/1999/xlink" x="0px" y="0px"
	 viewBox="0 0 30 30" style="enable-background:new 0 0 30 30;" xml:space="preserve">
<style type="text/css">
	.st0{fill:#1CA0A4;}
	.st1{fill:none;stroke:#EBF2F2;stroke-miterlimit:10;}
	.st2{fill:#077E9E;}
	.st3{fill:#FFFFFF;}
	.st4{fill:#222323;}
	.st5{fill:#AFB2B2;}
	.st6{fill:#0173D0;}
	.st7{fill:url(#SVGID_1_);}
	.st8{fill:url(#SVGID_2_);}
	.st9{fill:url(#SVGID_3_);}
	.st10{fill:url(#SVGID_4_);}
</style>
<g id="Layer_2">
	<path class="st0" d="M29.4,15.1c0,7.9-6.4,14.4-14.4,14.4S0.6,23.1,0.6,15.1C0.6,7.2,7.1,0.8,15,0.8S29.4,7.2,29.4,15.1z"/>
	<path class="st1" d="M29.4,15.1c0,7.9-6.4,14.4-14.4,14.4S0.6,23.1,0.6,15.1C0.6,7.2,7.1,0.8,15,0.8S29.4,7.2,29.4,15.1z"/>
</g>
<g id="Layer_1">
	<path class="st2" d="M19.4,22.4l-8,0.1c-4.3,0-7.8-3.1-7.9-7.1l0,0c0-4,3.4-7.2,7.7-7.2l8-0.1c4.3,0,7.8,3.1,7.9,7.1v0
		C27.1,19.1,23.7,22.3,19.4,22.4z"/>
	<path class="st3" d="M18.6,22.3l-6.8,0.1c-4.3,0-7.8-3.1-7.9-7.1v0c0-4,3.4-7.2,7.7-7.2L18.5,8c4.3,0,7.8,3.1,7.9,7.1v0
		C26.4,19,22.9,22.2,18.6,22.3z"/>
	<path class="st4" d="M6.2,22.5c-0.7-0.2-1.3-0.5-1.8-1c-0.9-0.8-1.3-1.8-1.3-2.9L3,11.9c0-2.3,2-4.2,4.5-4.2l15.3-0.1
		c1.2,0,2.3,0.4,3.2,1.2c0.9,0.8,1.3,1.8,1.3,2.9l0.1,6.7c0,2.3-2,4.2-4.5,4.2L7.6,22.7C7.1,22.7,6.6,22.6,6.2,22.5z M23.9,8.4
		c-0.4-0.1-0.8-0.2-1.2-0.2L7.5,8.4c-2.1,0-3.8,1.6-3.8,3.5l0.1,6.7c0,0.9,0.4,1.8,1.1,2.5c0.7,0.7,1.7,1,2.7,1l15.3-0.1
		c2.1,0,3.8-1.6,3.8-3.5l-0.1-6.7c0-0.9-0.4-1.8-1.1-2.5C25,8.9,24.5,8.6,23.9,8.4z"/>
	<g>
		<path class="st5" d="M18.6,21.2l-6.8,0.1c-3.7,0-6.6-2.7-6.7-6v0c0-3.4,2.9-6.1,6.6-6.1l6.8-0.1c3.7,0,6.6,2.7,6.7,6v0
			C25.2,18.5,22.2,21.2,18.6,21.2z"/>
	</g>
	<g>
		<path class="st6" d="M18.4,20.8L12,20.9c-3.4,0-6.2-2.5-6.2-5.6v0c0-3.1,2.7-5.7,6.1-5.7l6.3-0.1c3.4,0,6.2,2.5,6.2,5.6v0
			C24.5,18.2,21.8,20.8,18.4,20.8z"/>
	</g>
	<g>
		
			<radialGradient id="SVGID_1_" cx="22.3038" cy="11.2618" r="2.3806" gradientTransform="matrix(0.9 0 0 0.8275 -0.1021 4.3369)" gradientUnits="userSpaceOnUse">
			<stop  offset="0" style="stop-color:#FFFFFF"/>
			<stop  offset="1" style="stop-color:#45AFE8"/>
		</radialGradient>
		<path class="st7" d="M21.9,13.6c0,1.2-0.8,2.2-1.9,2.2c-1.1,0-1.9-1-1.9-2.1s0.8-2.2,1.9-2.2C21,11.5,21.9,12.4,21.9,13.6z"/>
	</g>
	<g>
		
			<radialGradient id="SVGID_2_" cx="11.9062" cy="11.4632" r="2.3806" gradientTransform="matrix(0.9 0 0 0.8275 -0.1021 4.3369)" gradientUnits="userSpaceOnUse">
			<stop  offset="0" style="stop-color:#FFFFFF"/>
			<stop  offset="1" style="stop-color:#45AFE8"/>
		</radialGradient>
		<path class="st8" d="M12.5,13.8c0,1.2-0.8,2.2-1.9,2.2s-1.9-1-1.9-2.1s0.8-2.2,1.9-2.2S12.5,12.6,12.5,13.8z"/>
	</g>
	<g>
		
			<radialGradient id="SVGID_3_" cx="8.625" cy="9.0015" r="1.1415" gradientTransform="matrix(0.9 0 0 0.8275 -0.1021 4.3369)" gradientUnits="userSpaceOnUse">
			<stop  offset="0" style="stop-color:#FFFFFF"/>
			<stop  offset="1" style="stop-color:#01DEBF"/>
		</radialGradient>
		<path class="st9" d="M8.4,11.3L8.4,11.3L8.4,11.3c0.2-0.2,0.5-0.3,0.8-0.4c0.2,0,0.3-0.1,0.5-0.2l0.5-0.2l-1.3,0.2
			c-1.1,0.2-2,1.4-2,2.7l0,1.5l0.5-2.1c0.1-0.2,0.1-0.4,0.2-0.6C7.8,11.9,8,11.5,8.4,11.3z"/>
	</g>
	
		<radialGradient id="SVGID_4_" cx="17.4805" cy="15.8816" r="2.6261" gradientTransform="matrix(0.9 0 0 0.8275 -0.1021 4.3369)" gradientUnits="userSpaceOnUse">
		<stop  offset="0" style="stop-color:#FFFFFF"/>
		<stop  offset="1" style="stop-color:#01DEBF"/>
	</radialGradient>
	<path class="st10" d="M18,16.5c0,1.3-1.1,2.3-2.5,2.3c-1.4,0-2.5-1-2.5-2.3H18z"/>
</g>
</svg>
