<?xml version="1.0" encoding="utf-8"?>
<!-- Generator: Adobe Illustrator 21.0.0, SVG Export Plug-In . SVG Version: 6.00 Build 0)  -->
<svg version="1.1" xmlns="http://www.w3.org/2000/svg" xmlns:xlink="http://www.w3.org/1999/xlink" x="0px" y="0px"
	 viewBox="0 0 20 20" style="enable-background:new 0 0 20 20;" xml:space="preserve">
<style type="text/css">
	.st0{fill:#1CA0A4;}
	.st1{fill:#58CADD;}
	.st2{opacity:0.5;fill:#70706D;}
	.st3{fill:#FFFFFF;}
	.st4{fill:#E5E5E5;}
	.st5{fill:#0F090D;}
	.st6{fill:#232830;}
	.st7{opacity:0.4;fill:#70706D;}
	.st8{fill:#3862C1;}
	.st9{fill:#3BB0D6;}
	.st10{fill:url(#SVGID_1_);}
	.st11{fill:url(#SVGID_2_);}
</style>
<g id="Layer_1">
</g>
<g id="Layer_2">
	<rect y="0" class="st0" width="20" height="20"/>
	<g>
		<g>
			<path class="st1" d="M16,8.4c-0.9,0.4-1.5,1.3-1.5,2.3v0.9c0,0.4,0.1,0.7,0.2,1.1c0,0,0.1-0.1,0.1-0.1C15.7,11.2,16,9.8,16,8.4z"
				/>
			<path class="st1" d="M17.1,8.1c-0.4,0-0.8,0.1-1.1,0.3c0.1,1.4-0.2,2.8-1.1,4.1c0,0-0.1,0.1-0.1,0.1c0.4,0.9,1.3,1.5,2.4,1.5
				c1.4,0,2.6-1.2,2.6-2.6v-0.9C19.7,9.3,18.5,8.1,17.1,8.1z"/>
			<path class="st2" d="M18.6,8.6c0.4,0.5,0.7,1.1,0.7,1.8v0.9c0,1.4-1.2,2.6-2.6,2.6c-0.6,0-1.1-0.2-1.5-0.5
				c0.5,0.5,1.1,0.8,1.9,0.8c1.4,0,2.6-1.2,2.6-2.6v-0.9C19.7,9.9,19.2,9.1,18.6,8.6z"/>
		</g>
		<g>
			<path class="st1" d="M5.7,11.6v-0.9c0-1.4-1.2-2.6-2.6-2.6c-1.4,0-2.6,1.2-2.6,2.6v0.9c0,1.4,1.2,2.6,2.6,2.6
				C4.6,14.2,5.7,13,5.7,11.6z"/>
			<path class="st2" d="M5.7,11.6v-0.9c0-0.9-0.4-1.6-1.1-2.1c0.4,0.5,0.7,1.1,0.7,1.8v0.9c0,1.4-1.2,2.6-2.6,2.6
				c-0.6,0-1.1-0.2-1.5-0.5c0.5,0.5,1.1,0.8,1.9,0.8C4.6,14.2,5.7,13,5.7,11.6z"/>
		</g>
	</g>
	<path class="st3" d="M14.8,12.5c1.7-2.6,1.2-5.2,0.4-7.8c-1.3-1.2-3.1-2-5.1-2c-4.2,0-7.6,3.4-7.6,7.6c0,0.1,0,0.2,0,0.3
		c0,0.1,0,0.2,0,0.3v1.1c0,2,3.1,3.7,5.1,3.7h2.3C11.9,15.4,13.6,14.4,14.8,12.5z"/>
	<path class="st3" d="M17.7,10.4c0-2.2-1-4.3-2.5-5.7c0.8,2.6,1.3,5.2-0.4,7.8c-1.2,1.9-2.9,2.9-4.9,3.4h2.9c2,0,4.9-1.7,4.9-3.7
		v-1.1c0-0.1,0-0.2,0-0.3C17.7,10.6,17.7,10.5,17.7,10.4z"/>
	<path class="st4" d="M17.7,10.4c0-2.2-1-4.3-2.5-5.7c0.8,2.6,1.3,5.2-0.4,7.8c-1.2,1.9-2.9,2.9-4.9,3.4h2.9c2,0,4.9-1.7,4.9-3.7
		v-1.1c0-0.1,0-0.2,0-0.3C17.7,10.6,17.7,10.5,17.7,10.4z"/>
	<path class="st5" d="M14.8,12.5c-0.4,0.6-0.8,1.1-1.3,1.6c0.7-0.3,1.2-0.7,1.6-1.2c0.3-0.4,0.9-1.6,0.8-2.8
		C15.7,10.9,15.4,11.7,14.8,12.5z"/>
	<path class="st6" d="M15.1,12.9c0.8-1.2,0.6-2,0.8-2.8c-0.1-0.5-0.2-1-0.6-1.3c-1.3-1.3-3.3-1-5-1c-2.5,0-4-0.3-5.2,1
		c-1.3,1.4-0.2,3.7,0.2,4.2c0.8,1,2,1.7,4.9,1.7c1.5,0,2.6-0.2,3.4-0.5C13.9,13.8,14.7,13.5,15.1,12.9z"/>
	<path class="st7" d="M10.1,14.6c0.8,0,1.4,0,1.9-0.1C3.7,15.1,5,8.4,7.6,7.8C6.5,7.8,5.7,8,5,8.8c-1.3,1.4-0.2,3.7,0.2,4.2
		C6,13.9,7.2,14.6,10.1,14.6z"/>
	<path class="st4" d="M15.2,8.8c-1.3-1.3-3.3-1-5-1c-2.5,0-4-0.3-5.2,1C4.5,9.3,4.3,10,4.4,10.6C4.4,10,4.6,9.5,5,9
		c1.2-1.3,2.6-1,5.2-1c1.7,0,3.7-0.3,5,1c0.4,0.3,0.5,0.8,0.6,1.2c0,0,0-0.1,0-0.1C15.8,9.6,15.6,9.1,15.2,8.8z"/>
	<path class="st4" d="M15.8,10.2c0,0.1,0,0.3,0,0.4C15.9,10.4,15.9,10.3,15.8,10.2C15.8,10.1,15.8,10.2,15.8,10.2z"/>
	<path class="st8" d="M7.8,9.6c0.5,0,0.8,0.7,0.8,0.5c0-0.2-0.4-0.9-0.8-0.9c-0.5,0-0.8,0.6-0.8,0.9C6.9,10.3,7.3,9.6,7.8,9.6z"/>
	<path class="st9" d="M11.8,12c0,0.6-0.7,1.1-1.5,1.1c-0.8,0-1.5-0.5-1.5-1.1H11.8z"/>
	<g>
		
			<radialGradient id="SVGID_1_" cx="33.6949" cy="-17.0159" r="1.0326" gradientTransform="matrix(0.8998 1.819776e-02 1.673183e-02 -0.8273 -22.2565 -4.6292)" gradientUnits="userSpaceOnUse">
			<stop  offset="0" style="stop-color:#FFFFFF"/>
			<stop  offset="1" style="stop-color:#45AFE8"/>
		</radialGradient>
		<path class="st10" d="M8.6,10.1c0,0.5-0.4,0.9-0.8,0.9s-0.8-0.5-0.8-0.9c0-0.5,0.4-0.9,0.8-0.9C8.3,9.2,8.6,9.5,8.6,10.1z"/>
	</g>
	<g>
		
			<radialGradient id="SVGID_2_" cx="38.0548" cy="-10.6837" r="1.0326" gradientTransform="matrix(0.8998 -2.093242e-02 -1.924619e-02 -0.8273 -21.8414 2.0197)" gradientUnits="userSpaceOnUse">
			<stop  offset="0" style="stop-color:#FFFFFF"/>
			<stop  offset="1" style="stop-color:#45AFE8"/>
		</radialGradient>
		<path class="st11" d="M13.4,10c0,0.5-0.3,1-0.8,1c-0.5,0-0.8-0.4-0.8-0.9c0-0.5,0.3-1,0.8-1C13.1,9.1,13.4,9.5,13.4,10z"/>
	</g>
</g>
</svg>
