<?xml version="1.0" encoding="utf-8"?>
<!-- Generator: Adobe Illustrator 21.0.0, SVG Export Plug-In . SVG Version: 6.00 Build 0)  -->
<svg version="1.1" xmlns="http://www.w3.org/2000/svg" xmlns:xlink="http://www.w3.org/1999/xlink" x="0px" y="0px"
	 viewBox="0 0 30 30" style="enable-background:new 0 0 30 30;" xml:space="preserve">
<style type="text/css">
	.st0{display:none;}
	.st1{display:inline;fill:#FFFFFF;stroke:#4C84AD;stroke-width:5;stroke-miterlimit:10;}
	.st2{display:inline;fill:#9ED9F1;stroke:#4C84AD;stroke-width:5;stroke-miterlimit:10;}
	.st3{display:inline;fill:none;stroke:#4C84AD;stroke-width:5;stroke-miterlimit:10;}
	.st4{display:inline;fill:#4C84AD;}
	.st5{display:inline;fill:#FFFFFF;stroke:#00AEDF;stroke-width:0.7;stroke-miterlimit:10;}
	.st6{display:inline;fill:#1CA0A4;stroke:#00AEDF;stroke-width:0.7;stroke-miterlimit:10;}
	.st7{display:inline;fill:#00AEDF;}
	.st8{fill:#FFFFFF;stroke:#43403B;stroke-width:0.75;stroke-miterlimit:10;}
	.st9{fill:#D9EBF5;}
	.st10{fill:#44413C;}
	.st11{fill:#43403B;}
	.st12{fill:#FE6142;}
	.st13{fill:#42413C;}
	.st14{fill:#1CA0A4;}
	.st15{fill:#607A8B;}
	.st16{fill:none;}
	.st17{fill:#BFDBE9;}
	.st18{fill:#ADC3D8;}
</style>
<g id="Layer_1" class="st0">
	<circle class="st1" cx="14.7" cy="16.7" r="13.8"/>
	<path class="st2" d="M21.8,20.2H8.1c-2.7,0-4.9-2.2-4.9-4.9v0c0-2.7,2.2-4.9,4.9-4.9h13.6c2.7,0,4.9,2.2,4.9,4.9v0
		C26.6,18,24.4,20.2,21.8,20.2z"/>
	<path class="st3" d="M14.9,25.7c2,0,3.7-1.6,3.7-3.5h-7.4C11.2,24.2,12.9,25.7,14.9,25.7z"/>
	<circle class="st1" cx="8.5" cy="15.2" r="2.4"/>
	<circle class="st1" cx="21.4" cy="15.3" r="2.4"/>
	<path class="st1" d="M6.7,5.3c-1.6,1.2-3,2.6-4,4.4C2.3,9.2,2.1,8.6,2.1,8c0-1.7,1.4-3,3-3C5.7,4.9,6.3,5.1,6.7,5.3z"/>
	<path class="st1" d="M28,8c0,0.9-0.4,1.7-1,2.3c-1-1.8-2.3-3.4-3.9-4.7c0.5-0.4,1.2-0.7,1.9-0.7C26.6,4.9,28,6.3,28,8z"/>
	<polygon class="st4" points="26.7,5.6 26.2,5.2 29.6,1.4 30,1.7 	"/>
	<polygon class="st4" points="3.5,5.3 3,5.7 -0.1,1.6 0.3,1.3 	"/>
	<path class="st2" d="M31.1,2.1c-0.8,0.2-1.7-0.3-1.9-1.2s0.3-1.7,1.2-1.9c0.8-0.2,1.7,0.3,1.9,1.2C32.5,1,32,1.9,31.1,2.1z"/>
	<path class="st2" d="M-0.1,2.1C-0.9,2.2-1.8,1.7-2,0.9S-1.6-0.8-0.8-1s1.7,0.3,1.9,1.2S0.8,1.9-0.1,2.1z"/>
</g>
<g id="Layer_2" class="st0">
	<circle class="st5" cx="15.1" cy="16.9" r="10.6"/>
	<path class="st6" d="M20.5,19.6H10.1c-2,0-3.7-1.7-3.7-3.7v0c0-2,1.7-3.7,3.7-3.7h10.4c2,0,3.7,1.7,3.7,3.7v0
		C24.2,17.9,22.5,19.6,20.5,19.6z"/>
	<path class="st5" d="M15.3,23.9c1.6,0,2.8-1.2,2.8-2.7h-5.6C12.5,22.7,13.7,23.9,15.3,23.9z"/>
	<circle class="st5" cx="10.3" cy="15.8" r="1.8"/>
	<circle class="st5" cx="20.2" cy="15.9" r="1.8"/>
	<path class="st6" d="M9,8.3c-1.2,0.9-2.3,2-3.1,3.3c-0.3-0.4-0.4-0.8-0.4-1.3C5.5,9,6.5,8,7.8,8C8.3,8,8.6,8.1,9,8.3z"/>
	<path class="st6" d="M25.2,10.3c0,0.7-0.3,1.3-0.8,1.7c-0.7-1.4-1.8-2.6-3-3.5C21.8,8.2,22.3,8,22.9,8C24.2,8,25.2,9,25.2,10.3z"/>
	<polygon class="st7" points="24.2,8.5 23.9,8.2 26.5,5.3 26.8,5.5 	"/>
	<polygon class="st7" points="6.5,8.3 6.2,8.6 3.8,5.5 4.1,5.2 	"/>
	<path class="st6" d="M27.6,5.8c-0.6,0.1-1.3-0.3-1.4-0.9c-0.1-0.6,0.3-1.3,0.9-1.4c0.6-0.1,1.3,0.3,1.4,0.9
		C28.7,5,28.3,5.6,27.6,5.8z"/>
	<path class="st6" d="M3.8,5.8C3.2,5.9,2.5,5.5,2.4,4.9s0.3-1.3,0.9-1.4c0.6-0.1,1.3,0.3,1.4,0.9S4.4,5.6,3.8,5.8z"/>
</g>
<g id="Layer_3">
	<path class="st8" d="M25.2,17c0,0.1,0,0.1,0,0.2V25c0,0.7-0.3,1.3-0.7,1.7c-0.4,0.5-1.1,0.7-1.8,0.7H6.5c-0.9,0-1.7-0.5-2.2-1.3
		c-0.1-0.3-0.2-0.6-0.3-0.9C4,25.1,4,25,4,25v-7.7c0-0.1,0-0.1,0-0.2c0-0.1,0-0.3,0-0.4c0-6,4.8-10.8,10.6-10.8s10.6,4.8,10.6,10.8
		C25.2,16.7,25.2,16.9,25.2,17z"/>
	<path class="st9" d="M24.9,18.7v5.7c0,0.5,0,0.8-0.1,1.1c-0.1,0.4-0.2,0.9-0.5,1.2c-0.4,0.5-1.1,0.7-1.8,0.7H6.8
		c-0.9,0-1.7-0.5-2.1-1.3c-0.1-0.3-0.2-0.6-0.3-0.9c0-0.1,0-0.2,0-0.3v-7c1.3-5,5.4-8.6,10.2-8.6C19.6,9.3,23.8,13.3,24.9,18.7z"/>
	<path class="st10" d="M4.2,17.8v4.5c0,0.3-0.2,0.5-0.5,0.5H2c-0.3,0-0.5-0.2-0.5-0.5v-4.5c0-0.2,0.1-0.3,0.2-0.4c0,0,0.1,0,0.1,0h0
		c0.1,0,0.1,0,0.2,0h1.7C3.9,17.3,4.2,17.5,4.2,17.8z"/>
	<path class="st9" d="M3.6,16.7v6.5l-1.3-0.8c0,0-0.2-0.1-0.1-0.9l0-3.7c0,0-0.1-0.4,0.5-0.6L3.6,16.7z"/>
	<path class="st10" d="M2.8,22.8H2c-0.3,0-0.5-0.2-0.5-0.5V22L2.8,22.8z"/>
	<path class="st10" d="M25.2,22.2l0-4.6c0-0.3,0.2-0.5,0.5-0.5l1.5,0c0.3,0,0.5,0.2,0.5,0.5l0,4.6c0,0.2-0.1,0.3-0.2,0.4
		c0,0-0.1,0-0.1,0.1l0,0c-0.1,0-0.1,0-0.2,0l-1.5,0C25.4,22.8,25.2,22.5,25.2,22.2z"/>
	<path class="st9" d="M25.6,23.2l0-6.6l1.3,0.8c0,0,0.2,0.1,0.1,0.9l0,3.7c0,0,0.1,0.4-0.5,0.6L25.6,23.2z"/>
	<path class="st10" d="M26.3,17.1l0.8,0c0.3,0,0.5,0.2,0.5,0.5l0,0.3L26.3,17.1z"/>
	<path class="st11" d="M14.4,5.8c0,0,1.4-4.5,6.1-4l-0.2,0.6c0,0-3.9-0.6-5.2,3.4h-0.6"/>
	
		<ellipse transform="matrix(0.9812 -0.1928 0.1928 0.9812 -6.235589e-02 4.2239)" class="st11" cx="21.7" cy="2.4" rx="1.8" ry="1.8"/>
	
		<ellipse transform="matrix(0.9812 -0.1928 0.1928 0.9812 -6.235589e-02 4.2239)" class="st12" cx="21.7" cy="2.4" rx="1.2" ry="1.2"/>
	<rect x="12.5" y="14.6" class="st13" width="4.3" height="0.8"/>
	<path class="st10" d="M4.1,16.4L3.8,16l-2.1,1.1h0l-0.1,0.1c-0.1,0.1-0.2,0.3-0.2,0.4v0.2l1.4-0.8l0.7-0.4v0.8h0.5V16.4L4.1,16.4
		L4.1,16.4z"/>
	<path class="st10" d="M4,23.4v-0.8H3.6v0.6l-1.7-1l-0.2,0.4c0,0,0,0.1,0,0.1L3.9,24l0.3-0.4L4,23.4z"/>
	<path class="st10" d="M27.7,22l-1.4,0.8l-0.7,0.4v-0.9h-0.4v1.2l-0.1,0.1l0.2,0.4l2.1-1.1l0,0l0.1-0.1c0.1-0.1,0.2-0.3,0.2-0.4
		L27.7,22z"/>
	<path class="st10" d="M27.4,17.1l-2-1.1l-0.3,0.4l0,0v1.1h0.3v-0.9l1.7,0.9L27.4,17.1C27.4,17.2,27.4,17.1,27.4,17.1z"/>
	<circle class="st13" cx="19.7" cy="15.6" r="3.3"/>
	<circle class="st14" cx="19.7" cy="15.6" r="2.8"/>
	<circle class="st10" cx="19.7" cy="15.6" r="1.5"/>
	<circle class="st15" cx="19.7" cy="15.6" r="0.9"/>
	<circle class="st13" cx="9.5" cy="15.6" r="3.3"/>
	<circle class="st14" cx="9.5" cy="15.6" r="2.8"/>
	<circle class="st10" cx="9.5" cy="15.6" r="1.5"/>
	<circle class="st15" cx="9.5" cy="15.6" r="0.9"/>
	<circle class="st16" cx="28" cy="15.3" r="1.5"/>
	<path class="st11" d="M9.2,12.6H8.6V8.1c0-0.3,0.3-0.6,0.6-0.6h0V12.6z"/>
	<path class="st11" d="M20.5,12.6h-0.6V7.4h0c0.3,0,0.6,0.3,0.6,0.6V12.6z"/>
	<path class="st10" d="M17.5,28.4h-5.8c-0.7,0-1.3-0.6-1.3-1.3v-5c0-0.7,0.6-1.3,1.3-1.3h5.8c0.7,0,1.3,0.6,1.3,1.3v5
		C18.8,27.8,18.2,28.4,17.5,28.4z"/>
	<path class="st12" d="M18,23.5h-6.9c0,0-0.1,0-0.1-0.1v-1.4c0-0.3,0.3-0.6,0.6-0.6h5.8c0.3,0,0.6,0.3,0.6,0.6L18,23.5
		C18.1,23.5,18,23.5,18,23.5z"/>
	<rect x="11" y="23.4" class="st10" width="7.1" height="0.7"/>
	<path class="st17" d="M17,27.8h-5.1c-0.5,0-0.9-0.4-0.9-0.9v-2h7.1v1.8C18.1,27.3,17.6,27.8,17,27.8z"/>
	<rect x="11" y="24.1" class="st18" width="7.1" height="0.8"/>
</g>
</svg>
