<?xml version="1.0" encoding="utf-8"?>
<!-- Generator: Adobe Illustrator 21.0.0, SVG Export Plug-In . SVG Version: 6.00 Build 0)  -->
<svg version="1.1" xmlns="http://www.w3.org/2000/svg" xmlns:xlink="http://www.w3.org/1999/xlink" x="0px" y="0px"
	 viewBox="0 0 20 20" style="enable-background:new 0 0 20 20;" xml:space="preserve">
<style type="text/css">
	.st0{fill:#58CADD;}
	.st1{fill:url(#SVGID_1_);}
	.st2{opacity:0.5;fill:#70706D;}
	.st3{fill:url(#SVGID_2_);}
	.st4{fill:#FFFFFF;}
	.st5{fill:#E5E5E5;}
	.st6{fill:url(#SVGID_3_);}
	.st7{opacity:0.21;fill:url(#SVGID_4_);}
	.st8{opacity:0.21;fill:url(#SVGID_5_);}
	.st9{opacity:0.21;fill:url(#SVGID_6_);}
	.st10{opacity:0.21;fill:url(#SVGID_7_);}
	.st11{fill:url(#SVGID_8_);}
	.st12{opacity:0.21;fill:#232830;}
	.st13{fill:url(#SVGID_9_);}
	.st14{fill:url(#SVGID_10_);}
	.st15{fill:url(#SVGID_11_);}
	.st16{fill:url(#SVGID_12_);}
	.st17{clip-path:url(#SVGID_14_);fill:url(#SVGID_15_);}
	.st18{fill:url(#SVGID_16_);}
	.st19{fill:url(#SVGID_17_);}
	.st20{fill:url(#SVGID_18_);}
	.st21{opacity:0.21;fill:url(#SVGID_19_);}
	.st22{opacity:0.21;fill:url(#SVGID_20_);}
	.st23{opacity:0.21;fill:url(#SVGID_21_);}
	.st24{opacity:0.21;fill:url(#SVGID_22_);}
	.st25{fill:url(#SVGID_23_);}
	.st26{fill:#232830;}
	.st27{fill:url(#SVGID_24_);}
	.st28{fill:url(#SVGID_25_);}
	.st29{display:none;}
	.st30{display:inline;opacity:0.14;fill:url(#SVGID_26_);}
	.st31{display:inline;fill:#FFFFFF;}
	.st32{display:inline;fill:#E5E5E5;}
	.st33{display:inline;fill:url(#SVGID_27_);}
	.st34{display:inline;opacity:0.21;fill:url(#SVGID_28_);}
	.st35{display:inline;opacity:0.21;fill:url(#SVGID_29_);}
	.st36{display:inline;opacity:0.21;fill:url(#SVGID_30_);}
	.st37{display:inline;opacity:0.21;fill:url(#SVGID_31_);}
	.st38{display:inline;fill:url(#SVGID_32_);}
	.st39{display:inline;opacity:0.21;fill:#232830;}
	.st40{display:inline;fill:#5CE8CF;}
	.st41{display:inline;fill:url(#SVGID_33_);}
	.st42{display:inline;fill:url(#SVGID_34_);}
	.st43{display:inline;opacity:0.14;fill:url(#SVGID_35_);}
	.st44{display:inline;}
	.st45{fill:url(#SVGID_36_);}
	.st46{fill:url(#SVGID_37_);}
	.st47{fill:url(#SVGID_38_);}
	.st48{fill:url(#SVGID_39_);}
	.st49{display:inline;fill:url(#SVGID_40_);}
	.st50{display:inline;fill:url(#SVGID_41_);}
	.st51{display:inline;fill:url(#SVGID_42_);stroke:#B4EAF9;stroke-width:0.3036;stroke-miterlimit:10;}
	.st52{fill:#C6C6C6;}
	.st53{fill:#060707;}
	.st54{display:inline;opacity:0.21;fill:url(#SVGID_43_);}
	.st55{display:inline;fill:url(#SVGID_44_);}
	.st56{display:inline;fill:#00AEDF;}
	.st57{display:inline;fill:url(#SVGID_45_);}
	.st58{display:inline;fill:#232830;}
	.st59{display:inline;fill:#F27221;}
	.st60{display:inline;fill:url(#SVGID_46_);}
	.st61{display:inline;fill:#EDAC88;}
	.st62{display:inline;fill:url(#SVGID_47_);}
	.st63{fill:url(#SVGID_48_);}
	.st64{fill:url(#SVGID_49_);}
	.st65{display:inline;fill:url(#SVGID_50_);}
	.st66{display:inline;opacity:0.21;fill:url(#SVGID_51_);}
	.st67{display:inline;opacity:0.21;fill:url(#SVGID_52_);}
	.st68{display:inline;opacity:0.21;fill:url(#SVGID_53_);}
	.st69{display:inline;opacity:0.21;fill:url(#SVGID_54_);}
	.st70{display:inline;fill:url(#SVGID_55_);}
	.st71{display:inline;fill:url(#SVGID_56_);}
	.st72{display:inline;fill:url(#SVGID_57_);}
</style>
<g id="Layer_1">
</g>
<g id="Layer_2">
	<g>
		<path class="st0" d="M15.7,8.3c-0.8,0.4-1.4,1.3-1.4,2.3v0.9c0,0.4,0.1,0.7,0.2,1c0,0,0.1-0.1,0.1-0.1
			C15.5,10.9,15.7,9.6,15.7,8.3z"/>
		<radialGradient id="SVGID_1_" cx="16.8757" cy="10.9621" r="2.6849" gradientUnits="userSpaceOnUse">
			<stop  offset="0" style="stop-color:#FFFFFF"/>
			<stop  offset="1" style="stop-color:#45AFE8"/>
		</radialGradient>
		<path class="st1" d="M16.8,8c-0.4,0-0.8,0.1-1.1,0.3c0.1,1.3-0.2,2.7-1.1,4c0,0-0.1,0.1-0.1,0.1c0.4,0.9,1.3,1.5,2.3,1.5
			c1.4,0,2.5-1.1,2.5-2.5v-0.9C19.3,9.1,18.2,8,16.8,8z"/>
		<path class="st2" d="M18.2,8.5c0.4,0.5,0.7,1.1,0.7,1.7v0.9c0,1.4-1.1,2.5-2.5,2.5c-0.5,0-1.1-0.2-1.5-0.5
			c0.5,0.5,1.1,0.8,1.8,0.8c1.4,0,2.5-1.1,2.5-2.5v-0.9C19.3,9.7,18.9,9,18.2,8.5z"/>
		<radialGradient id="SVGID_2_" cx="3.2361" cy="10.9621" r="2.7356" gradientUnits="userSpaceOnUse">
			<stop  offset="0" style="stop-color:#FFFFFF"/>
			<stop  offset="1" style="stop-color:#45AFE8"/>
		</radialGradient>
		<path class="st3" d="M5.8,11.4v-0.9C5.8,9.1,4.6,8,3.2,8c-1.4,0-2.5,1.1-2.5,2.5v0.9c0,1.4,1.1,2.5,2.5,2.5
			C4.6,13.9,5.8,12.8,5.8,11.4z"/>
		<path class="st2" d="M5.8,11.4v-0.9c0-0.8-0.4-1.6-1-2c0.4,0.5,0.7,1.1,0.7,1.7v0.9c0,1.4-1.1,2.5-2.5,2.5c-0.5,0-1.1-0.2-1.5-0.5
			c0.5,0.5,1.1,0.8,1.8,0.8C4.6,13.9,5.8,12.8,5.8,11.4z"/>
	</g>
	<path class="st4" d="M14.5,12.6c1.7-2.5,1.2-5,0.4-7.5c-1.3-1.2-3-1.9-4.9-1.9c-4.1,0-7.4,3.3-7.4,7.4c0,0.1,0,0.2,0,0.3
		c0,0.1,0,0.2,0,0.3v1.1c0,2,3,3.6,5,3.6h2.2C11.6,15.4,13.3,14.4,14.5,12.6z"/>
	<path class="st5" d="M17.3,10.6c0-2.2-1-4.1-2.5-5.5c0.8,2.5,1.3,5-0.4,7.5c-1.1,1.8-2.8,2.8-4.7,3.3h2.8c2,0,4.8-1.6,4.8-3.6v-1.1
		c0-0.1,0-0.2,0-0.3C17.3,10.8,17.3,10.7,17.3,10.6z"/>
	<path class="st4" d="M17.3,10.6c0-2.2-1-4.1-2.5-5.5c0.8,2.5,1.3,5-0.4,7.5c-1.1,1.8-2.8,2.8-4.7,3.3h2.8c2,0,4.8-1.6,4.8-3.6v-1.1
		c0-0.1,0-0.2,0-0.3C17.3,10.8,17.3,10.7,17.3,10.6z"/>
	<path class="st5" d="M17.1,11c0-1.8-0.8-3.4-2-4.5c0.7,2,1.1,4.1-0.3,6.1c-0.9,1.5-2.3,2.3-3.9,2.7h2.3c1.6,0,3.9-1.3,3.9-2.9v-0.9
		c0-0.1,0-0.2,0-0.3C17.1,11.2,17.1,11.1,17.1,11z"/>
	<radialGradient id="SVGID_3_" cx="6.0177" cy="8.3493" r="0" gradientUnits="userSpaceOnUse">
		<stop  offset="0" style="stop-color:#3BB0D6"/>
		<stop  offset="1.843440e-02" style="stop-color:#3AAFD5"/>
		<stop  offset="1" style="stop-color:#0B8FBA"/>
	</radialGradient>
	<path class="st6" d="M6,8.3"/>
	<linearGradient id="SVGID_4_" gradientUnits="userSpaceOnUse" x1="10.979" y1="8.3611" x2="9.3584" y2="12.184">
		<stop  offset="0" style="stop-color:#FFFFFF"/>
		<stop  offset="0.866" style="stop-color:#FFFFFF;stop-opacity:0.134"/>
		<stop  offset="1" style="stop-color:#FFFFFF;stop-opacity:0"/>
	</linearGradient>
	<path class="st7" d="M11.4,8.4l-0.1,0.1v0L11,9.3l-0.1,0.1l-0.8,1.7L10,11.4c-0.1,0-0.2,0-0.3,0c-0.2,0-0.3,0-0.5,0l0.3-0.6
		l0.5-1.2l0.1-0.2l0.3-0.5l0.1-0.2l0-0.1c0.1,0,0.2,0,0.2,0c0,0,0.1,0,0.1,0c0,0,0,0,0,0C11.1,8.4,11.2,8.4,11.4,8.4z"/>
	<linearGradient id="SVGID_5_" gradientUnits="userSpaceOnUse" x1="12.1978" y1="8.1959" x2="11.0163" y2="10.9831">
		<stop  offset="0" style="stop-color:#FFFFFF"/>
		<stop  offset="0.866" style="stop-color:#FFFFFF;stop-opacity:0.134"/>
		<stop  offset="1" style="stop-color:#FFFFFF;stop-opacity:0"/>
	</linearGradient>
	<path class="st8" d="M12.4,8.2l-0.9,2.3L11,10.3l0.8-2C12.1,8.3,12.3,8.2,12.4,8.2z"/>
	<linearGradient id="SVGID_6_" gradientUnits="userSpaceOnUse" x1="14.6752" y1="8.7728" x2="13.7627" y2="10.9253">
		<stop  offset="0" style="stop-color:#FFFFFF"/>
		<stop  offset="0.866" style="stop-color:#FFFFFF;stop-opacity:0.134"/>
		<stop  offset="1" style="stop-color:#FFFFFF;stop-opacity:0"/>
	</linearGradient>
	<path class="st9" d="M14.8,8.8l-0.7,1.8l-0.3-0.2l0.6-1.6C14.6,8.8,14.7,8.8,14.8,8.8z"/>
	<linearGradient id="SVGID_7_" gradientUnits="userSpaceOnUse" x1="5.934" y1="7.9995" x2="5.0864" y2="9.9991">
		<stop  offset="0" style="stop-color:#FFFFFF"/>
		<stop  offset="0.866" style="stop-color:#FFFFFF;stop-opacity:0.134"/>
		<stop  offset="1" style="stop-color:#FFFFFF;stop-opacity:0"/>
	</linearGradient>
	<path class="st10" d="M6.1,8L5.4,9.7L5.1,9.5l0.6-1.5C5.8,8.1,6,8,6.1,8z"/>
	<radialGradient id="SVGID_8_" cx="10.1436" cy="13.4068" r="1.951" fx="9.9544" fy="13.44" gradientUnits="userSpaceOnUse">
		<stop  offset="0" style="stop-color:#3BB0D6"/>
		<stop  offset="1.843440e-02" style="stop-color:#3AAFD5"/>
		<stop  offset="1" style="stop-color:#0B8FBA"/>
	</radialGradient>
	<path class="st11" d="M8,12.4c0.2,0.9,1,1.5,1.9,1.5c0.9,0,1.7-0.6,1.9-1.5H8z"/>
	<path class="st12" d="M13.9,11.1H6.2C5.6,11.1,5,10.6,5,9.9V8.1c0-0.7,0.5-1.2,1.2-1.2h7.6c0.7,0,1.2,0.5,1.2,1.2v1.8
		C15.1,10.6,14.6,11.1,13.9,11.1z"/>
	<radialGradient id="SVGID_9_" cx="9.7893" cy="8.7045" r="3.8562" gradientUnits="userSpaceOnUse">
		<stop  offset="0" style="stop-color:#FFFFFF"/>
		<stop  offset="8.480710e-02" style="stop-color:#E5F4F5"/>
		<stop  offset="0.3362" style="stop-color:#9FD7D8"/>
		<stop  offset="0.5624" style="stop-color:#66BFC2"/>
		<stop  offset="0.7553" style="stop-color:#3EAEB2"/>
		<stop  offset="0.9075" style="stop-color:#25A4A8"/>
		<stop  offset="1" style="stop-color:#1CA0A4"/>
	</radialGradient>
	<path class="st13" d="M13.6,10.8H6c-0.7,0-1.2-0.5-1.2-1.2V7.8c0-0.7,0.5-1.2,1.2-1.2h7.6c0.7,0,1.2,0.5,1.2,1.2v1.8
		C14.8,10.3,14.3,10.8,13.6,10.8z"/>
	<radialGradient id="SVGID_10_" cx="7.1493" cy="8.6353" r="1.0377" gradientUnits="userSpaceOnUse">
		<stop  offset="0" style="stop-color:#FFFFFF"/>
		<stop  offset="1" style="stop-color:#45AFE8"/>
	</radialGradient>
	<path class="st14" d="M7.1,7.6c-0.6,0-1,0.5-1,1c0,0.6,0.5,1,1,1s1-0.5,1-1C8.2,8.1,7.7,7.6,7.1,7.6z M7.1,9.3
		C6.8,9.3,6.4,9,6.4,8.6c0-0.4,0.3-0.7,0.7-0.7c0.4,0,0.7,0.3,0.7,0.7C7.9,9,7.5,9.3,7.1,9.3z"/>
	<radialGradient id="SVGID_11_" cx="12.3666" cy="8.5205" r="1.0377" gradientUnits="userSpaceOnUse">
		<stop  offset="0" style="stop-color:#FFFFFF"/>
		<stop  offset="1" style="stop-color:#45AFE8"/>
	</radialGradient>
	<path class="st15" d="M12.4,7.5c-0.6,0-1,0.5-1,1s0.5,1,1,1c0.6,0,1-0.5,1-1S12.9,7.5,12.4,7.5z M12.4,9.2c-0.4,0-0.7-0.3-0.7-0.7
		c0-0.4,0.3-0.7,0.7-0.7c0.4,0,0.7,0.3,0.7,0.7C13.1,8.9,12.8,9.2,12.4,9.2z"/>
	
		<radialGradient id="SVGID_12_" cx="10.6578" cy="5.0926" r="0.7536" gradientTransform="matrix(1 0 0 0.8132 0 1.9283)" gradientUnits="userSpaceOnUse">
		<stop  offset="0" style="stop-color:#FFFFFF"/>
		<stop  offset="1" style="stop-color:#45AFE8"/>
	</radialGradient>
	<path class="st16" d="M10.7,6.9L10.7,6.9c-0.3,0-0.5-0.2-0.5-0.5V5.7c0-0.3,0.2-0.5,0.5-0.5l0,0c0.3,0,0.5,0.2,0.5,0.5v0.6
		C11.1,6.6,10.9,6.9,10.7,6.9z"/>
</g>
<g id="Layer_6">
	<g>
		<defs>
			<circle id="SVGID_13_" cx="10" cy="10" r="9.4"/>
		</defs>
		<clipPath id="SVGID_14_">
			<use xlink:href="#SVGID_13_"  style="overflow:visible;"/>
		</clipPath>
		<radialGradient id="SVGID_15_" cx="10" cy="10" r="10" gradientUnits="userSpaceOnUse">
			<stop  offset="0" style="stop-color:#FFFFFF"/>
			<stop  offset="8.480710e-02" style="stop-color:#E5F4F5"/>
			<stop  offset="0.3362" style="stop-color:#9FD7D8"/>
			<stop  offset="0.5624" style="stop-color:#66BFC2"/>
			<stop  offset="0.7553" style="stop-color:#3EAEB2"/>
			<stop  offset="0.9075" style="stop-color:#25A4A8"/>
			<stop  offset="1" style="stop-color:#1CA0A4"/>
		</radialGradient>
		<rect class="st17" width="20" height="20"/>
	</g>
</g>
<g id="Layer_5">
	<g>
		<path class="st0" d="M15,9c-0.7,0.4-1.3,1.1-1.3,2v0.8c0,0.3,0.1,0.6,0.2,0.9c0,0,0.1-0.1,0.1-0.1C14.9,11.4,15.1,10.2,15,9z"/>
		<radialGradient id="SVGID_16_" cx="16.1139" cy="11.4413" r="2.3875" gradientUnits="userSpaceOnUse">
			<stop  offset="0" style="stop-color:#FFFFFF"/>
			<stop  offset="1" style="stop-color:#45AFE8"/>
		</radialGradient>
		<path class="st18" d="M16,8.8c-0.3,0-0.7,0.1-1,0.2c0.1,1.2-0.2,2.4-1,3.6c0,0-0.1,0.1-0.1,0.1c0.4,0.8,1.1,1.3,2,1.3
			c1.2,0,2.2-1,2.2-2.2v-0.8C18.3,9.8,17.2,8.8,16,8.8z"/>
		<path class="st2" d="M17.3,9.2c0.4,0.4,0.6,0.9,0.6,1.5v0.8c0,1.2-1,2.2-2.2,2.2c-0.5,0-0.9-0.2-1.3-0.4c0.4,0.4,1,0.7,1.6,0.7
			c1.2,0,2.2-1,2.2-2.2v-0.8C18.3,10.3,17.9,9.7,17.3,9.2z"/>
		<radialGradient id="SVGID_17_" cx="3.9855" cy="11.4413" r="2.4325" gradientUnits="userSpaceOnUse">
			<stop  offset="0" style="stop-color:#FFFFFF"/>
			<stop  offset="1" style="stop-color:#45AFE8"/>
		</radialGradient>
		<path class="st19" d="M6.2,11.8v-0.8c0-1.2-1-2.2-2.2-2.2c-1.2,0-2.2,1-2.2,2.2v0.8c0,1.2,1,2.2,2.2,2.2
			C5.2,14.1,6.2,13.1,6.2,11.8z"/>
		<path class="st2" d="M6.2,11.8v-0.8c0-0.7-0.4-1.4-0.9-1.8c0.4,0.4,0.6,0.9,0.6,1.5v0.8c0,1.2-1,2.2-2.2,2.2
			c-0.5,0-0.9-0.2-1.3-0.4c0.4,0.4,1,0.7,1.6,0.7C5.2,14.1,6.2,13.1,6.2,11.8z"/>
	</g>
	<path class="st4" d="M14,12.9c1.5-2.2,1-4.5,0.3-6.7c-1.2-1-2.7-1.7-4.4-1.7c-3.6,0-6.6,2.9-6.6,6.6c0,0.1,0,0.2,0,0.3
		c0,0.1,0,0.2,0,0.3v1c0,1.8,2.7,3.2,4.4,3.2h2C11.5,15.4,12.9,14.5,14,12.9z"/>
	<path class="st5" d="M16.5,11.1c0-1.9-0.8-3.7-2.2-4.9c0.7,2.2,1.2,4.5-0.3,6.7c-1,1.6-2.5,2.5-4.2,2.9h2.5c1.8,0,4.2-1.4,4.2-3.2
		v-1c0-0.1,0-0.2,0-0.3C16.5,11.3,16.5,11.2,16.5,11.1z"/>
	<path class="st4" d="M16.5,11.1c0-1.9-0.8-3.7-2.2-4.9c0.7,2.2,1.2,4.5-0.3,6.7c-1,1.6-2.5,2.5-4.2,2.9h2.5c1.8,0,4.2-1.4,4.2-3.2
		v-1c0-0.1,0-0.2,0-0.3C16.5,11.3,16.5,11.2,16.5,11.1z"/>
	<path class="st5" d="M16.3,11.5c0-1.6-0.7-3-1.8-4c0.6,1.8,0.9,3.6-0.3,5.5c-0.8,1.3-2,2-3.4,2.4h2c1.4,0,3.5-1.2,3.5-2.6V12
		c0-0.1,0-0.2,0-0.2C16.3,11.6,16.3,11.6,16.3,11.5z"/>
	<radialGradient id="SVGID_18_" cx="6.4589" cy="9.1181" r="0" gradientUnits="userSpaceOnUse">
		<stop  offset="0" style="stop-color:#3BB0D6"/>
		<stop  offset="1.843440e-02" style="stop-color:#3AAFD5"/>
		<stop  offset="1" style="stop-color:#0B8FBA"/>
	</radialGradient>
	<path class="st20" d="M6.5,9.1L6.5,9.1z"/>
	<linearGradient id="SVGID_19_" gradientUnits="userSpaceOnUse" x1="10.8705" y1="9.1286" x2="9.4295" y2="12.5279">
		<stop  offset="0" style="stop-color:#FFFFFF"/>
		<stop  offset="0.866" style="stop-color:#FFFFFF;stop-opacity:0.134"/>
		<stop  offset="1" style="stop-color:#FFFFFF;stop-opacity:0"/>
	</linearGradient>
	<path class="st21" d="M11.2,9.2l-0.1,0.1v0L10.9,10l-0.1,0.1l-0.7,1.5L10,11.8c-0.1,0-0.2,0-0.2,0c-0.1,0-0.3,0-0.4,0l0.2-0.5
		l0.5-1.1l0.1-0.2l0.2-0.5l0.1-0.2l0-0.1c0.1,0,0.1,0,0.2,0c0,0,0.1,0,0.1,0c0,0,0,0,0,0C11,9.2,11.1,9.2,11.2,9.2z"/>
	<linearGradient id="SVGID_20_" gradientUnits="userSpaceOnUse" x1="11.9543" y1="8.9817" x2="10.9037" y2="11.46">
		<stop  offset="0" style="stop-color:#FFFFFF"/>
		<stop  offset="0.866" style="stop-color:#FFFFFF;stop-opacity:0.134"/>
		<stop  offset="1" style="stop-color:#FFFFFF;stop-opacity:0"/>
	</linearGradient>
	<path class="st22" d="M12.2,9l-0.8,2.1l-0.4-0.2l0.7-1.8C11.8,9,12,9,12.2,9z"/>
	<linearGradient id="SVGID_21_" gradientUnits="userSpaceOnUse" x1="14.1572" y1="9.4946" x2="13.3458" y2="11.4086">
		<stop  offset="0" style="stop-color:#FFFFFF"/>
		<stop  offset="0.866" style="stop-color:#FFFFFF;stop-opacity:0.134"/>
		<stop  offset="1" style="stop-color:#FFFFFF;stop-opacity:0"/>
	</linearGradient>
	<path class="st23" d="M14.3,9.5l-0.7,1.6L13.4,11l0.6-1.4C14.1,9.5,14.2,9.5,14.3,9.5z"/>
	<linearGradient id="SVGID_22_" gradientUnits="userSpaceOnUse" x1="6.3845" y1="8.807" x2="5.6308" y2="10.585">
		<stop  offset="0" style="stop-color:#FFFFFF"/>
		<stop  offset="0.866" style="stop-color:#FFFFFF;stop-opacity:0.134"/>
		<stop  offset="1" style="stop-color:#FFFFFF;stop-opacity:0"/>
	</linearGradient>
	<path class="st24" d="M6.5,8.8l-0.6,1.5l-0.3-0.1l0.5-1.3C6.3,8.9,6.4,8.8,6.5,8.8z"/>
	<radialGradient id="SVGID_23_" cx="10.1277" cy="13.6151" r="1.7349" fx="9.9594" fy="13.6447" gradientUnits="userSpaceOnUse">
		<stop  offset="0" style="stop-color:#3BB0D6"/>
		<stop  offset="1.843440e-02" style="stop-color:#3AAFD5"/>
		<stop  offset="1" style="stop-color:#0B8FBA"/>
	</radialGradient>
	<path class="st25" d="M8.2,12.7c0.2,0.8,0.9,1.3,1.7,1.3c0.8,0,1.5-0.6,1.7-1.3H8.2z"/>
	<path class="st12" d="M13.3,11.6H6.8c-0.7,0-1.2-0.5-1.2-1.2V9c0-0.7,0.5-1.2,1.2-1.2h6.5c0.7,0,1.2,0.5,1.2,1.2v1.4
		C14.5,11,14,11.6,13.3,11.6z"/>
	<path class="st26" d="M13.1,11.3H6.5c-0.7,0-1.2-0.5-1.2-1.2V8.7c0-0.7,0.5-1.2,1.2-1.2h6.5c0.7,0,1.2,0.5,1.2,1.2v1.4
		C14.3,10.8,13.7,11.3,13.1,11.3z"/>
	<radialGradient id="SVGID_24_" cx="7.4652" cy="9.3723" r="0.9228" gradientUnits="userSpaceOnUse">
		<stop  offset="0" style="stop-color:#FFFFFF"/>
		<stop  offset="0.192" style="stop-color:#FCFEFE"/>
		<stop  offset="0.3308" style="stop-color:#F3FAFA"/>
		<stop  offset="0.453" style="stop-color:#E3F3F4"/>
		<stop  offset="0.5654" style="stop-color:#CDEAEB"/>
		<stop  offset="0.6713" style="stop-color:#B0DEDF"/>
		<stop  offset="0.7723" style="stop-color:#8CCFD1"/>
		<stop  offset="0.8694" style="stop-color:#62BDC0"/>
		<stop  offset="0.9611" style="stop-color:#33A9AD"/>
		<stop  offset="1" style="stop-color:#1CA0A4"/>
	</radialGradient>
	<path class="st27" d="M7.5,8.4C7,8.4,6.5,8.9,6.5,9.4s0.4,0.9,0.9,0.9s0.9-0.4,0.9-0.9S8,8.4,7.5,8.4z M7.5,10
		c-0.3,0-0.6-0.3-0.6-0.6c0-0.4,0.3-0.6,0.6-0.6c0.4,0,0.6,0.3,0.6,0.6C8.1,9.7,7.8,10,7.5,10z"/>
	<radialGradient id="SVGID_25_" cx="12.1044" cy="9.2703" r="0.9228" gradientUnits="userSpaceOnUse">
		<stop  offset="0" style="stop-color:#FFFFFF"/>
		<stop  offset="0.192" style="stop-color:#FCFEFE"/>
		<stop  offset="0.3308" style="stop-color:#F3FAFA"/>
		<stop  offset="0.453" style="stop-color:#E3F3F4"/>
		<stop  offset="0.5654" style="stop-color:#CDEAEB"/>
		<stop  offset="0.6713" style="stop-color:#B0DEDF"/>
		<stop  offset="0.7723" style="stop-color:#8CCFD1"/>
		<stop  offset="0.8694" style="stop-color:#62BDC0"/>
		<stop  offset="0.9611" style="stop-color:#33A9AD"/>
		<stop  offset="1" style="stop-color:#1CA0A4"/>
	</radialGradient>
	<path class="st28" d="M12.1,8.3c-0.5,0-0.9,0.4-0.9,0.9s0.4,0.9,0.9,0.9S13,9.8,13,9.3S12.6,8.3,12.1,8.3z M12.1,9.9
		c-0.3,0-0.6-0.3-0.6-0.6c0-0.4,0.3-0.6,0.6-0.6c0.4,0,0.6,0.3,0.6,0.6C12.7,9.6,12.5,9.9,12.1,9.9z"/>
</g>
<g id="Layer_3" class="st29">
	<linearGradient id="SVGID_26_" gradientUnits="userSpaceOnUse" x1="-9.8704" y1="7.0262" x2="-12.8233" y2="13.9921">
		<stop  offset="0" style="stop-color:#FFFFFF"/>
		<stop  offset="0.866" style="stop-color:#FFFFFF;stop-opacity:0.134"/>
		<stop  offset="1" style="stop-color:#FFFFFF;stop-opacity:0"/>
	</linearGradient>
	<path class="st30" d="M-9.6,7l-0.1,0.3v0l-0.5,1.5L-10.3,9l-1.1,3.3l-0.1,0.4c-0.1,0-0.3,0-0.4,0c-0.2,0-0.4-0.1-0.6-0.1l0.4-1.1
		l0.7-2.3l0.1-0.4l0.4-1.1l0.1-0.4l0-0.2c0.1,0,0.2,0,0.3,0c0,0,0.1,0,0.1,0c0,0,0,0,0,0C-10,7-9.8,7-9.6,7z"/>
	<path class="st31" d="M14.5,13.5c1.7-2.5,1.2-5,0.4-7.5C13.6,4.7,11.8,4,9.9,4c-4.1,0-7.4,3.3-7.4,7.4c0,0.1,0,0.2,0,0.3
		c0,0.1,0,0.2,0,0.3v1.1c0,2,3,3.6,5,3.6h2.2C11.7,16.2,13.3,15.3,14.5,13.5z"/>
	<path class="st32" d="M17.3,11.4c0-2.2-1-4.1-2.5-5.5c0.8,2.5,1.3,5-0.4,7.5c-1.1,1.8-2.8,2.8-4.7,3.3h2.8c2,0,4.8-1.6,4.8-3.6
		v-1.1c0-0.1,0-0.2,0-0.3C17.3,11.6,17.3,11.5,17.3,11.4z"/>
	<path class="st31" d="M17.3,11.4c0-2.2-1-4.1-2.5-5.5c0.8,2.5,1.3,5-0.4,7.5c-1.1,1.8-2.8,2.8-4.7,3.3h2.8c2,0,4.8-1.6,4.8-3.6
		v-1.1c0-0.1,0-0.2,0-0.3C17.3,11.6,17.3,11.5,17.3,11.4z"/>
	<path class="st32" d="M17.1,11.9c0-1.8-0.8-3.4-2-4.5c0.7,2,1.1,4.1-0.3,6.1c-0.9,1.5-2.3,2.3-3.9,2.7h2.3c1.6,0,3.9-1.3,3.9-2.9
		v-0.9c0-0.1,0-0.2,0-0.3C17.1,12.1,17.1,12,17.1,11.9z"/>
	<radialGradient id="SVGID_27_" cx="6.0522" cy="9.2135" r="0" gradientUnits="userSpaceOnUse">
		<stop  offset="0" style="stop-color:#3BB0D6"/>
		<stop  offset="1.843440e-02" style="stop-color:#3AAFD5"/>
		<stop  offset="1" style="stop-color:#0B8FBA"/>
	</radialGradient>
	<path class="st33" d="M6.1,9.2"/>
	<linearGradient id="SVGID_28_" gradientUnits="userSpaceOnUse" x1="11.0135" y1="9.2254" x2="9.393" y2="13.0482">
		<stop  offset="0" style="stop-color:#FFFFFF"/>
		<stop  offset="0.866" style="stop-color:#FFFFFF;stop-opacity:0.134"/>
		<stop  offset="1" style="stop-color:#FFFFFF;stop-opacity:0"/>
	</linearGradient>
	<path class="st34" d="M11.4,9.3l-0.1,0.1v0L11,10.2l-0.1,0.1L10.2,12l-0.1,0.2c-0.1,0-0.2,0-0.3,0c-0.2,0-0.3,0-0.5,0l0.3-0.6
		l0.5-1.2l0.1-0.2l0.3-0.5l0.1-0.2l0-0.1c0.1,0,0.2,0,0.2,0c0,0,0.1,0,0.1,0c0,0,0,0,0,0C11.1,9.3,11.3,9.3,11.4,9.3z"/>
	<linearGradient id="SVGID_29_" gradientUnits="userSpaceOnUse" x1="12.2324" y1="9.0601" x2="11.0508" y2="11.8473">
		<stop  offset="0" style="stop-color:#FFFFFF"/>
		<stop  offset="0.866" style="stop-color:#FFFFFF;stop-opacity:0.134"/>
		<stop  offset="1" style="stop-color:#FFFFFF;stop-opacity:0"/>
	</linearGradient>
	<path class="st35" d="M12.5,9.1l-0.9,2.3l-0.4-0.2l0.8-2C12.1,9.1,12.3,9.1,12.5,9.1z"/>
	<linearGradient id="SVGID_30_" gradientUnits="userSpaceOnUse" x1="14.7097" y1="9.637" x2="13.7972" y2="11.7895">
		<stop  offset="0" style="stop-color:#FFFFFF"/>
		<stop  offset="0.866" style="stop-color:#FFFFFF;stop-opacity:0.134"/>
		<stop  offset="1" style="stop-color:#FFFFFF;stop-opacity:0"/>
	</linearGradient>
	<path class="st36" d="M14.9,9.7l-0.7,1.8l-0.3-0.2l0.6-1.6C14.6,9.7,14.8,9.7,14.9,9.7z"/>
	<linearGradient id="SVGID_31_" gradientUnits="userSpaceOnUse" x1="5.9686" y1="8.8637" x2="5.1209" y2="10.8633">
		<stop  offset="0" style="stop-color:#FFFFFF"/>
		<stop  offset="0.866" style="stop-color:#FFFFFF;stop-opacity:0.134"/>
		<stop  offset="1" style="stop-color:#FFFFFF;stop-opacity:0"/>
	</linearGradient>
	<path class="st37" d="M6.1,8.9l-0.7,1.7l-0.3-0.2l0.6-1.5C5.9,8.9,6,8.9,6.1,8.9z"/>
	<radialGradient id="SVGID_32_" cx="10.1782" cy="14.271" r="1.951" fx="9.9889" fy="14.3042" gradientUnits="userSpaceOnUse">
		<stop  offset="0" style="stop-color:#3BB0D6"/>
		<stop  offset="1.843440e-02" style="stop-color:#3AAFD5"/>
		<stop  offset="1" style="stop-color:#0B8FBA"/>
	</radialGradient>
	<path class="st38" d="M8,13.3c0.2,0.9,1,1.5,1.9,1.5c0.9,0,1.7-0.6,1.9-1.5H8z"/>
	<path class="st39" d="M13.8,12.7H6.1c-0.7,0-1.2-0.5-1.2-1.2V9.6c0-0.7,0.5-1.2,1.2-1.2h7.6C14.4,8.4,15,9,15,9.6v1.8
		C15,12.1,14.4,12.7,13.8,12.7z"/>
	<path class="st40" d="M13.6,12.4H5.9c-0.7,0-1.2-0.5-1.2-1.2V9.4c0-0.7,0.5-1.2,1.2-1.2h7.6c0.7,0,1.2,0.5,1.2,1.2v1.8
		C14.8,11.9,14.2,12.4,13.6,12.4z"/>
	<radialGradient id="SVGID_33_" cx="7.1112" cy="10.2513" r="1.0377" gradientUnits="userSpaceOnUse">
		<stop  offset="0" style="stop-color:#FFFFFF"/>
		<stop  offset="1" style="stop-color:#45AFE8"/>
	</radialGradient>
	<path class="st41" d="M7.1,9.2c-0.6,0-1,0.5-1,1s0.5,1,1,1s1-0.5,1-1S7.7,9.2,7.1,9.2z M7.1,11c-0.4,0-0.7-0.3-0.7-0.7
		c0-0.4,0.3-0.7,0.7-0.7c0.4,0,0.7,0.3,0.7,0.7C7.8,10.6,7.5,11,7.1,11z"/>
	<radialGradient id="SVGID_34_" cx="12.3506" cy="10.2669" r="1.0377" gradientUnits="userSpaceOnUse">
		<stop  offset="0" style="stop-color:#FFFFFF"/>
		<stop  offset="1" style="stop-color:#45AFE8"/>
	</radialGradient>
	<path class="st42" d="M12.4,9.2c-0.6,0-1,0.5-1,1c0,0.6,0.5,1,1,1c0.6,0,1-0.5,1-1C13.4,9.7,12.9,9.2,12.4,9.2z M12.4,11
		c-0.4,0-0.7-0.3-0.7-0.7c0-0.4,0.3-0.7,0.7-0.7c0.4,0,0.7,0.3,0.7,0.7C13.1,10.7,12.7,11,12.4,11z"/>
	<linearGradient id="SVGID_35_" gradientUnits="userSpaceOnUse" x1="10.6296" y1="7.0262" x2="7.6767" y2="13.9921">
		<stop  offset="0" style="stop-color:#FFFFFF"/>
		<stop  offset="0.866" style="stop-color:#FFFFFF;stop-opacity:0.134"/>
		<stop  offset="1" style="stop-color:#FFFFFF;stop-opacity:0"/>
	</linearGradient>
	<path class="st43" d="M10.9,7l-0.1,0.3v0l-0.5,1.5L10.2,9l-1.1,3.3L9,12.7c-0.1,0-0.3,0-0.4,0c-0.2,0-0.4-0.1-0.6-0.1l0.4-1.1
		l0.7-2.3l0.1-0.4l0.4-1.1l0.1-0.4l0-0.2c0.1,0,0.2,0,0.3,0c0,0,0.1,0,0.1,0c0,0,0,0,0,0C10.5,7,10.7,7,10.9,7z"/>
</g>
<g id="Layer_4" class="st29">
	<g class="st44">
		
			<linearGradient id="SVGID_36_" gradientUnits="userSpaceOnUse" x1="27.2467" y1="13.9382" x2="30.684" y2="13.9382" gradientTransform="matrix(2.772386e-02 0.9996 -0.9996 2.772386e-02 31.7632 -18.0856)">
			<stop  offset="0.2896" style="stop-color:#000000"/>
			<stop  offset="0.2951" style="stop-color:#151515;stop-opacity:0.9923"/>
			<stop  offset="0.3105" style="stop-color:#4B4B4B;stop-opacity:0.9707"/>
			<stop  offset="0.3265" style="stop-color:#7B7B7B;stop-opacity:0.9483"/>
			<stop  offset="0.3427" style="stop-color:#A4A4A4;stop-opacity:0.9256"/>
			<stop  offset="0.3592" style="stop-color:#C5C5C5;stop-opacity:0.9025"/>
			<stop  offset="0.376" style="stop-color:#DEDEDE;stop-opacity:0.8789"/>
			<stop  offset="0.3935" style="stop-color:#F1F1F1;stop-opacity:0.8545"/>
			<stop  offset="0.4117" style="stop-color:#FBFBFB;stop-opacity:0.8289"/>
			<stop  offset="0.4323" style="stop-color:#FFFFFF;stop-opacity:0.8"/>
			<stop  offset="0.437" style="stop-color:#DDDDDD;stop-opacity:0.8078"/>
			<stop  offset="0.4441" style="stop-color:#AFAFAF;stop-opacity:0.8198"/>
			<stop  offset="0.452" style="stop-color:#858585;stop-opacity:0.833"/>
			<stop  offset="0.4603" style="stop-color:#616161;stop-opacity:0.8471"/>
			<stop  offset="0.4693" style="stop-color:#434343;stop-opacity:0.8622"/>
			<stop  offset="0.4791" style="stop-color:#2A2A2A;stop-opacity:0.8787"/>
			<stop  offset="0.4901" style="stop-color:#171717;stop-opacity:0.8972"/>
			<stop  offset="0.5029" style="stop-color:#0A0A0A;stop-opacity:0.9188"/>
			<stop  offset="0.5193" style="stop-color:#020202;stop-opacity:0.9463"/>
			<stop  offset="0.5512" style="stop-color:#000000"/>
		</linearGradient>
		<path class="st45" d="M19.4,12.8L19.4,12.8L19.4,12.8C19.4,12.8,19.4,12.8,19.4,12.8c0-0.1,0-0.1,0-0.1l0-3c0,0,0,0,0-0.1
			c0-0.1-0.3-0.2-0.7-0.2c-0.4,0-0.7,0.1-0.7,0.2c0,0,0,0,0,0c-0.1,0.2-0.2,0.8-0.2,1.5c0,0.9,0.2,1.6,0.4,1.6
			c0.1,0.1,0.3,0.1,0.6,0.1C19.1,13,19.3,12.9,19.4,12.8z"/>
		
			<linearGradient id="SVGID_37_" gradientUnits="userSpaceOnUse" x1="28.9963" y1="13.6905" x2="28.9818" y2="13.015" gradientTransform="matrix(2.772386e-02 0.9996 -0.9996 2.772386e-02 31.7632 -18.0856)">
			<stop  offset="0.151" style="stop-color:#000000"/>
			<stop  offset="0.3762" style="stop-color:#FFFFFF;stop-opacity:0.4"/>
			<stop  offset="0.6403" style="stop-color:#000000"/>
		</linearGradient>
		<path class="st46" d="M19,11.3c0-0.9,0.1-1.7,0.3-1.7c0.2,0,0.4,0.7,0.4,1.6s-0.1,1.7-0.3,1.7C19.2,12.9,19,12.2,19,11.3z"/>
	</g>
	<g class="st44">
		
			<linearGradient id="SVGID_38_" gradientUnits="userSpaceOnUse" x1="26.9227" y1="25.5476" x2="30.36" y2="25.5476" gradientTransform="matrix(-2.772386e-02 0.9996 0.9996 2.772386e-02 -22.6905 -18.0856)">
			<stop  offset="0.2896" style="stop-color:#000000"/>
			<stop  offset="0.2951" style="stop-color:#151515;stop-opacity:0.9923"/>
			<stop  offset="0.3105" style="stop-color:#4B4B4B;stop-opacity:0.9707"/>
			<stop  offset="0.3265" style="stop-color:#7B7B7B;stop-opacity:0.9483"/>
			<stop  offset="0.3427" style="stop-color:#A4A4A4;stop-opacity:0.9256"/>
			<stop  offset="0.3592" style="stop-color:#C5C5C5;stop-opacity:0.9025"/>
			<stop  offset="0.376" style="stop-color:#DEDEDE;stop-opacity:0.8789"/>
			<stop  offset="0.3935" style="stop-color:#F1F1F1;stop-opacity:0.8545"/>
			<stop  offset="0.4117" style="stop-color:#FBFBFB;stop-opacity:0.8289"/>
			<stop  offset="0.4323" style="stop-color:#FFFFFF;stop-opacity:0.8"/>
			<stop  offset="0.437" style="stop-color:#DDDDDD;stop-opacity:0.8078"/>
			<stop  offset="0.4441" style="stop-color:#AFAFAF;stop-opacity:0.8198"/>
			<stop  offset="0.452" style="stop-color:#858585;stop-opacity:0.833"/>
			<stop  offset="0.4603" style="stop-color:#616161;stop-opacity:0.8471"/>
			<stop  offset="0.4693" style="stop-color:#434343;stop-opacity:0.8622"/>
			<stop  offset="0.4791" style="stop-color:#2A2A2A;stop-opacity:0.8787"/>
			<stop  offset="0.4901" style="stop-color:#171717;stop-opacity:0.8972"/>
			<stop  offset="0.5029" style="stop-color:#0A0A0A;stop-opacity:0.9188"/>
			<stop  offset="0.5193" style="stop-color:#020202;stop-opacity:0.9463"/>
			<stop  offset="0.5512" style="stop-color:#000000"/>
		</linearGradient>
		<path class="st47" d="M1.3,12.8L1.3,12.8L1.3,12.8C1.2,12.8,1.2,12.8,1.3,12.8c0-0.1,0-0.1,0-0.1l0-3c0,0,0,0,0-0.1
			c0-0.1,0.3-0.2,0.7-0.2s0.7,0.1,0.7,0.2c0,0,0,0,0,0c0.1,0.2,0.2,0.8,0.2,1.5c0,0.9-0.2,1.6-0.4,1.6C2.4,12.9,2.2,13,1.9,13
			C1.6,13,1.4,12.9,1.3,12.8z"/>
		
			<linearGradient id="SVGID_39_" gradientUnits="userSpaceOnUse" x1="28.6723" y1="25.2999" x2="28.6578" y2="24.6244" gradientTransform="matrix(-2.772386e-02 0.9996 0.9996 2.772386e-02 -22.6905 -18.0856)">
			<stop  offset="0.151" style="stop-color:#000000"/>
			<stop  offset="0.3762" style="stop-color:#FFFFFF;stop-opacity:0.4"/>
			<stop  offset="0.6403" style="stop-color:#000000"/>
		</linearGradient>
		<path class="st48" d="M1.7,11.3c0-0.9-0.1-1.7-0.3-1.7c-0.2,0-0.4,0.7-0.4,1.6s0.1,1.7,0.3,1.7C1.5,12.9,1.6,12.2,1.7,11.3z"/>
	</g>
	<path class="st31" d="M15.3,13c1.8-2.7,1.3-5.5,0.4-8.2c-1.4-1.3-3.3-2.1-5.4-2.1c-4.4,0-8,3.6-8,8c0,0.1,0,0.2,0,0.4
		c0,0.1,0,0.2,0,0.4v1.2c0,2.2,3.3,3.9,5.4,3.9h2.4C12.2,16.1,14,15,15.3,13z"/>
	<path class="st32" d="M18.3,10.8c0-2.4-1-4.5-2.7-6c0.9,2.7,1.4,5.5-0.4,8.2c-1.2,2-3.1,3-5.2,3.6h3c2.2,0,5.2-1.8,5.2-3.9v-1.2
		c0-0.1,0-0.2,0-0.4C18.3,11.1,18.3,10.9,18.3,10.8z"/>
	<path class="st31" d="M18.3,10.8c0-2.4-1-4.5-2.7-6c0.9,2.7,1.4,5.5-0.4,8.2c-1.2,2-3.1,3-5.2,3.6h3c2.2,0,5.2-1.8,5.2-3.9v-1.2
		c0-0.1,0-0.2,0-0.4C18.3,11.1,18.3,10.9,18.3,10.8z"/>
	
		<radialGradient id="SVGID_40_" cx="2.477" cy="8.9231" r="2.452" gradientTransform="matrix(0.9262 0.3771 -0.4135 1.0156 10.9063 -0.3295)" gradientUnits="userSpaceOnUse">
		<stop  offset="0" style="stop-color:#FFFFFF"/>
		<stop  offset="1" style="stop-color:#45AFE8"/>
	</radialGradient>
	<polygon class="st49" points="8.9,10.5 9.4,10.7 10.1,8.9 9.6,8.7 	"/>
	<path class="st32" d="M18.2,11.3c0-1.9-0.8-3.7-2.2-4.9c0.7,2.2,1.2,4.5-0.3,6.7c-1,1.6-2.5,2.5-4.2,2.9h2.5c1.8,0,4.2-1.4,4.2-3.2
		v-1c0-0.1,0-0.2,0-0.3C18.1,11.5,18.2,11.4,18.2,11.3z"/>
	<radialGradient id="SVGID_41_" cx="6.0801" cy="8.4229" r="0" gradientUnits="userSpaceOnUse">
		<stop  offset="0" style="stop-color:#3BB0D6"/>
		<stop  offset="1.843440e-02" style="stop-color:#3AAFD5"/>
		<stop  offset="1" style="stop-color:#0B8FBA"/>
	</radialGradient>
	<path class="st50" d="M6.1,8.4"/>
	
		<radialGradient id="SVGID_42_" cx="9.5197" cy="10.6986" r="5.465" fx="8.9896" fy="10.7918" gradientTransform="matrix(0.9956 9.389581e-02 -9.389581e-02 0.9956 2.1421 -1.055)" gradientUnits="userSpaceOnUse">
		<stop  offset="0" style="stop-color:#3BB0D6"/>
		<stop  offset="1.843440e-02" style="stop-color:#3AAFD5"/>
		<stop  offset="1" style="stop-color:#0B8FBA"/>
	</radialGradient>
	<path class="st51" d="M15,10.5L15,10.5c0,0-3.2,2.8-9.5,0.3c0,0,0,0,0,0s0,0,0,0c0,0,0,0,0,0l0,0c-0.6-0.2-0.9-1-0.7-1.6
		c0.2-0.6,0.7-1,1.3-1l0,0c0,0,0,0,0,0c0.1,0,0.2,0,0.2,0c0,0,0,0,0.1,0c0.1,0,0.2,0,0.3,0.1c0.1,0,0.3,0.1,0.5,0.1
		C8,8.6,9.1,8.7,10.4,8.7c0.1,0,0.2,0,0.3,0l0,0c0.1,0,0.2,0,0.3,0c0.3,0,0.6,0,0.9-0.1c0.7-0.1,1.3-0.2,2-0.4
		c0.1,0,0.2-0.1,0.3-0.1c0.7-0.1,1.3,0.4,1.4,1.1C15.7,9.7,15.4,10.3,15,10.5z"/>
	<g class="st44">
		<ellipse transform="matrix(0.2099 -0.9777 0.9777 0.2099 -3.7511 15.3067)" class="st52" cx="7.6" cy="10" rx="1.1" ry="1.1"/>
		<ellipse transform="matrix(0.2099 -0.9777 0.9777 0.2099 -3.8484 15.1143)" class="st53" cx="7.4" cy="9.9" rx="1.1" ry="1.1"/>
		<ellipse transform="matrix(0.8957 -0.4446 0.4446 0.8957 -3.4419 4.5019)" class="st4" cx="7.9" cy="9.6" rx="0.3" ry="0.3"/>
	</g>
	<g class="st44">
		<ellipse transform="matrix(0.4788 -0.8779 0.8779 0.4788 -1.9022 16.7545)" class="st52" cx="13.2" cy="10" rx="1.1" ry="1.1"/>
		<ellipse transform="matrix(0.4788 -0.8779 0.8779 0.4788 -1.9086 16.5795)" class="st53" cx="13" cy="9.9" rx="1.1" ry="1.1"/>
		<ellipse transform="matrix(0.9851 -0.172 0.172 0.9851 -1.4653 2.4737)" class="st4" cx="13.5" cy="9.7" rx="0.3" ry="0.3"/>
	</g>
	<linearGradient id="SVGID_43_" gradientUnits="userSpaceOnUse" x1="11.4816" y1="8.4357" x2="9.7172" y2="12.5977">
		<stop  offset="0" style="stop-color:#FFFFFF"/>
		<stop  offset="0.866" style="stop-color:#FFFFFF;stop-opacity:0.134"/>
		<stop  offset="1" style="stop-color:#FFFFFF;stop-opacity:0"/>
	</linearGradient>
	<path class="st54" d="M11.9,8.5l-0.1,0.2v0l-0.4,0.8l-0.1,0.1l-0.8,1.8l-0.1,0.2c-0.1,0-0.2,0-0.3,0c-0.2,0-0.3,0-0.5,0L10,11
		l0.6-1.3l0.1-0.2l0.3-0.6L11,8.6l0-0.1c0.1,0,0.2,0,0.3,0c0,0,0.1,0,0.1,0c0,0,0,0,0,0C11.6,8.5,11.8,8.5,11.9,8.5z"/>
	<radialGradient id="SVGID_44_" cx="10.7236" cy="15.1502" r="2.1241" fx="10.5176" fy="15.1864" gradientUnits="userSpaceOnUse">
		<stop  offset="0" style="stop-color:#3BB0D6"/>
		<stop  offset="1.843440e-02" style="stop-color:#3AAFD5"/>
		<stop  offset="1" style="stop-color:#0B8FBA"/>
	</radialGradient>
	<path class="st55" d="M8.4,14.1c0.2,0.9,1.1,1.6,2.1,1.6c1,0,1.9-0.7,2.1-1.6H8.4z"/>
	<rect x="21.4" y="6.7" class="st56" width="1.6" height="1.9"/>
	<radialGradient id="SVGID_45_" cx="24.4478" cy="11.7436" r="0.4967" gradientUnits="userSpaceOnUse">
		<stop  offset="0" style="stop-color:#FFFFFF"/>
		<stop  offset="1" style="stop-color:#45AFE8"/>
	</radialGradient>
	<path class="st57" d="M24.4,12.4L24.4,12.4c-0.2,0-0.3-0.1-0.3-0.3v-0.6c0-0.2,0.1-0.3,0.3-0.3l0,0c0.2,0,0.3,0.1,0.3,0.3V12
		C24.8,12.2,24.6,12.4,24.4,12.4z"/>
	<path class="st58" d="M29.2,4.4h-6.5c-0.7,0-1.2-0.5-1.2-1.2V1.8c0-0.7,0.5-1.2,1.2-1.2h6.5c0.7,0,1.2,0.5,1.2,1.2v1.4
		C30.4,3.8,29.9,4.4,29.2,4.4z"/>
	<path class="st59" d="M25.4,1.6c-0.5,0-0.9,0.4-0.9,0.9s0.4,0.9,0.9,0.9s0.9-0.4,0.9-0.9S25.9,1.6,25.4,1.6z M25.4,3.1
		c-0.3,0-0.6-0.3-0.6-0.6c0-0.4,0.3-0.6,0.6-0.6c0.4,0,0.6,0.3,0.6,0.6C26,2.8,25.7,3.1,25.4,3.1z"/>
	<linearGradient id="SVGID_46_" gradientUnits="userSpaceOnUse" x1="21.9061" y1="2.6588" x2="23.7516" y2="2.6588">
		<stop  offset="0" style="stop-color:#FEF4EE"/>
		<stop  offset="7.121146e-03" style="stop-color:#FEEFE7"/>
		<stop  offset="5.248898e-02" style="stop-color:#FBD5BE"/>
		<stop  offset="0.1035" style="stop-color:#F9BD98"/>
		<stop  offset="0.1589" style="stop-color:#F7A978"/>
		<stop  offset="0.2203" style="stop-color:#F5985C"/>
		<stop  offset="0.2895" style="stop-color:#F48A46"/>
		<stop  offset="0.3704" style="stop-color:#F37F35"/>
		<stop  offset="0.4704" style="stop-color:#F3772A"/>
		<stop  offset="0.6107" style="stop-color:#F27323"/>
		<stop  offset="1" style="stop-color:#F27221"/>
	</linearGradient>
	<path class="st60" d="M22.8,1.7c-0.5,0-0.9,0.4-0.9,0.9s0.4,0.9,0.9,0.9c0.5,0,0.9-0.4,0.9-0.9S23.3,1.7,22.8,1.7z M22.8,3.3
		c-0.3,0-0.6-0.3-0.6-0.6c0-0.4,0.3-0.6,0.6-0.6c0.4,0,0.6,0.3,0.6,0.6C23.5,3,23.2,3.3,22.8,3.3z"/>
	<path class="st61" d="M25.4,1.7c-0.4,0-0.8,0.3-0.8,0.8s0.3,0.8,0.8,0.8s0.8-0.3,0.8-0.8S25.8,1.7,25.4,1.7z M25.4,3
		c-0.3,0-0.5-0.2-0.5-0.5c0-0.3,0.2-0.5,0.5-0.5c0.3,0,0.5,0.2,0.5,0.5C25.9,2.8,25.7,3,25.4,3z"/>
	<linearGradient id="SVGID_47_" gradientUnits="userSpaceOnUse" x1="24" y1="13.8177" x2="24.7188" y2="13.8177">
		<stop  offset="0" style="stop-color:#FEF4EE"/>
		<stop  offset="0.1151" style="stop-color:#FDEADE"/>
		<stop  offset="0.3387" style="stop-color:#FBD0B6"/>
		<stop  offset="0.6485" style="stop-color:#F7A674"/>
		<stop  offset="1" style="stop-color:#F27221"/>
	</linearGradient>
	<rect x="24" y="12.7" class="st62" width="0.7" height="2.2"/>
</g>
<g id="Layer_7" class="st29">
	<g class="st44">
		<path class="st0" d="M-11.7,9.1c-0.8,0.4-1.4,1.3-1.4,2.3v0.9c0,0.4,0.1,0.7,0.2,1c0,0,0.1-0.1,0.1-0.1
			C-11.9,11.8-11.6,10.4-11.7,9.1z"/>
		<radialGradient id="SVGID_48_" cx="-10.4681" cy="11.7879" r="2.6849" gradientUnits="userSpaceOnUse">
			<stop  offset="0" style="stop-color:#FFFFFF"/>
			<stop  offset="1" style="stop-color:#45AFE8"/>
		</radialGradient>
		<path class="st63" d="M-10.6,8.8c-0.4,0-0.8,0.1-1.1,0.3c0.1,1.3-0.2,2.7-1.1,4c0,0-0.1,0.1-0.1,0.1c0.4,0.9,1.3,1.5,2.3,1.5
			c1.4,0,2.5-1.1,2.5-2.5v-0.9C-8.1,10-9.2,8.8-10.6,8.8z"/>
		<path class="st2" d="M-9.1,9.3c0.4,0.5,0.7,1.1,0.7,1.7v0.9c0,1.4-1.1,2.5-2.5,2.5c-0.5,0-1.1-0.2-1.5-0.5
			c0.5,0.5,1.1,0.8,1.8,0.8c1.4,0,2.5-1.1,2.5-2.5v-0.9C-8.1,10.5-8.5,9.8-9.1,9.3z"/>
		<radialGradient id="SVGID_49_" cx="-24.1077" cy="11.7879" r="2.7356" gradientUnits="userSpaceOnUse">
			<stop  offset="0" style="stop-color:#FFFFFF"/>
			<stop  offset="1" style="stop-color:#45AFE8"/>
		</radialGradient>
		<path class="st64" d="M-21.6,12.2v-0.9c0-1.4-1.1-2.5-2.5-2.5c-1.4,0-2.5,1.1-2.5,2.5v0.9c0,1.4,1.1,2.5,2.5,2.5
			C-22.7,14.7-21.6,13.6-21.6,12.2z"/>
		<path class="st2" d="M-21.6,12.2v-0.9c0-0.8-0.4-1.6-1-2c0.4,0.5,0.7,1.1,0.7,1.7v0.9c0,1.4-1.1,2.5-2.5,2.5
			c-0.5,0-1.1-0.2-1.5-0.5c0.5,0.5,1.1,0.8,1.8,0.8C-22.7,14.7-21.6,13.6-21.6,12.2z"/>
	</g>
	<path class="st31" d="M-12.9,13.4c1.7-2.5,1.2-5,0.4-7.5c-1.3-1.2-3-1.9-4.9-1.9c-4.1,0-7.4,3.3-7.4,7.4c0,0.1,0,0.2,0,0.3
		c0,0.1,0,0.2,0,0.3v1.1c0,2,3,3.6,5,3.6h2.2C-15.7,16.2-14,15.2-12.9,13.4z"/>
	<path class="st32" d="M-10.1,11.4c0-2.2-1-4.1-2.5-5.5c0.8,2.5,1.3,5-0.4,7.5c-1.1,1.8-2.8,2.8-4.7,3.3h2.8c2,0,4.8-1.6,4.8-3.6V12
		c0-0.1,0-0.2,0-0.3C-10.1,11.6-10.1,11.5-10.1,11.4z"/>
	<path class="st31" d="M-10.1,11.4c0-2.2-1-4.1-2.5-5.5c0.8,2.5,1.3,5-0.4,7.5c-1.1,1.8-2.8,2.8-4.7,3.3h2.8c2,0,4.8-1.6,4.8-3.6V12
		c0-0.1,0-0.2,0-0.3C-10.1,11.6-10.1,11.5-10.1,11.4z"/>
	<path class="st32" d="M-10.2,11.8c0-1.8-0.8-3.4-2-4.5c0.7,2,1.1,4.1-0.3,6.1c-0.9,1.5-2.3,2.3-3.9,2.7h2.3c1.6,0,3.9-1.3,3.9-2.9
		v-0.9c0-0.1,0-0.2,0-0.3C-10.2,12-10.2,11.9-10.2,11.8z"/>
	<radialGradient id="SVGID_50_" cx="-21.3261" cy="9.1751" r="0" gradientUnits="userSpaceOnUse">
		<stop  offset="0" style="stop-color:#3BB0D6"/>
		<stop  offset="1.843440e-02" style="stop-color:#3AAFD5"/>
		<stop  offset="1" style="stop-color:#0B8FBA"/>
	</radialGradient>
	<path class="st65" d="M-21.3,9.2"/>
	<linearGradient id="SVGID_51_" gradientUnits="userSpaceOnUse" x1="-16.3647" y1="9.1869" x2="-17.9853" y2="13.0098">
		<stop  offset="0" style="stop-color:#FFFFFF"/>
		<stop  offset="0.866" style="stop-color:#FFFFFF;stop-opacity:0.134"/>
		<stop  offset="1" style="stop-color:#FFFFFF;stop-opacity:0"/>
	</linearGradient>
	<path class="st66" d="M-16,9.3L-16,9.4v0l-0.3,0.8l-0.1,0.1l-0.8,1.7l-0.1,0.2c-0.1,0-0.2,0-0.3,0c-0.2,0-0.3,0-0.5,0l0.3-0.6
		l0.5-1.2l0.1-0.2l0.3-0.5l0.1-0.2l0-0.1c0.1,0,0.2,0,0.2,0c0,0,0.1,0,0.1,0c0,0,0,0,0,0C-16.3,9.3-16.1,9.3-16,9.3z"/>
	<linearGradient id="SVGID_52_" gradientUnits="userSpaceOnUse" x1="-15.1459" y1="9.0217" x2="-16.3275" y2="11.8089">
		<stop  offset="0" style="stop-color:#FFFFFF"/>
		<stop  offset="0.866" style="stop-color:#FFFFFF;stop-opacity:0.134"/>
		<stop  offset="1" style="stop-color:#FFFFFF;stop-opacity:0"/>
	</linearGradient>
	<path class="st67" d="M-14.9,9l-0.9,2.3l-0.4-0.2l0.8-2C-15.3,9.1-15.1,9.1-14.9,9z"/>
	<linearGradient id="SVGID_53_" gradientUnits="userSpaceOnUse" x1="-12.6686" y1="9.5986" x2="-13.5811" y2="11.7511">
		<stop  offset="0" style="stop-color:#FFFFFF"/>
		<stop  offset="0.866" style="stop-color:#FFFFFF;stop-opacity:0.134"/>
		<stop  offset="1" style="stop-color:#FFFFFF;stop-opacity:0"/>
	</linearGradient>
	<path class="st68" d="M-12.5,9.6l-0.7,1.8l-0.3-0.2l0.6-1.6C-12.8,9.7-12.6,9.6-12.5,9.6z"/>
	<linearGradient id="SVGID_54_" gradientUnits="userSpaceOnUse" x1="-21.4097" y1="8.8253" x2="-22.2574" y2="10.8249">
		<stop  offset="0" style="stop-color:#FFFFFF"/>
		<stop  offset="0.866" style="stop-color:#FFFFFF;stop-opacity:0.134"/>
		<stop  offset="1" style="stop-color:#FFFFFF;stop-opacity:0"/>
	</linearGradient>
	<path class="st69" d="M-21.2,8.8l-0.7,1.7l-0.3-0.2l0.6-1.5C-21.5,8.9-21.4,8.9-21.2,8.8z"/>
	<radialGradient id="SVGID_55_" cx="-17.2001" cy="14.2326" r="1.951" fx="-17.3894" fy="14.2658" gradientUnits="userSpaceOnUse">
		<stop  offset="0" style="stop-color:#3BB0D6"/>
		<stop  offset="1.843440e-02" style="stop-color:#3AAFD5"/>
		<stop  offset="1" style="stop-color:#0B8FBA"/>
	</radialGradient>
	<path class="st70" d="M-19.4,13.2c0.2,0.9,1,1.5,1.9,1.5c0.9,0,1.7-0.6,1.9-1.5H-19.4z"/>
	<path class="st39" d="M-13.4,12h-7.6c-0.7,0-1.2-0.5-1.2-1.2V8.9c0-0.7,0.5-1.2,1.2-1.2h7.6c0.7,0,1.2,0.5,1.2,1.2v1.8
		C-12.2,11.4-12.8,12-13.4,12z"/>
	<path class="st58" d="M-13.8,11.7h-7.6c-0.7,0-1.2-0.5-1.2-1.2V8.7c0-0.7,0.5-1.2,1.2-1.2h7.6c0.7,0,1.2,0.5,1.2,1.2v1.8
		C-12.6,11.2-13.1,11.7-13.8,11.7z"/>
	<radialGradient id="SVGID_56_" cx="-20.2671" cy="9.5465" r="1.0377" gradientUnits="userSpaceOnUse">
		<stop  offset="0" style="stop-color:#FFFFFF"/>
		<stop  offset="0.192" style="stop-color:#FCFEFE"/>
		<stop  offset="0.3308" style="stop-color:#F3FAFA"/>
		<stop  offset="0.453" style="stop-color:#E3F3F4"/>
		<stop  offset="0.5654" style="stop-color:#CDEAEB"/>
		<stop  offset="0.6713" style="stop-color:#B0DEDF"/>
		<stop  offset="0.7723" style="stop-color:#8CCFD1"/>
		<stop  offset="0.8694" style="stop-color:#62BDC0"/>
		<stop  offset="0.9611" style="stop-color:#33A9AD"/>
		<stop  offset="1" style="stop-color:#1CA0A4"/>
	</radialGradient>
	<path class="st71" d="M-20.3,8.5c-0.6,0-1,0.5-1,1c0,0.6,0.5,1,1,1s1-0.5,1-1C-19.2,9-19.7,8.5-20.3,8.5z M-20.3,10.3
		c-0.4,0-0.7-0.3-0.7-0.7c0-0.4,0.3-0.7,0.7-0.7c0.4,0,0.7,0.3,0.7,0.7C-19.6,9.9-19.9,10.3-20.3,10.3z"/>
	<radialGradient id="SVGID_57_" cx="-15.4658" cy="9.5098" r="1.0377" gradientUnits="userSpaceOnUse">
		<stop  offset="0" style="stop-color:#FFFFFF"/>
		<stop  offset="0.192" style="stop-color:#FCFEFE"/>
		<stop  offset="0.3308" style="stop-color:#F3FAFA"/>
		<stop  offset="0.453" style="stop-color:#E3F3F4"/>
		<stop  offset="0.5654" style="stop-color:#CDEAEB"/>
		<stop  offset="0.6713" style="stop-color:#B0DEDF"/>
		<stop  offset="0.7723" style="stop-color:#8CCFD1"/>
		<stop  offset="0.8694" style="stop-color:#62BDC0"/>
		<stop  offset="0.9611" style="stop-color:#33A9AD"/>
		<stop  offset="1" style="stop-color:#1CA0A4"/>
	</radialGradient>
	<path class="st72" d="M-15.5,8.5c-0.6,0-1,0.5-1,1c0,0.6,0.5,1,1,1c0.6,0,1-0.5,1-1C-14.4,8.9-14.9,8.5-15.5,8.5z M-15.5,10.2
		c-0.4,0-0.7-0.3-0.7-0.7c0-0.4,0.3-0.7,0.7-0.7c0.4,0,0.7,0.3,0.7,0.7C-14.8,9.9-15.1,10.2-15.5,10.2z"/>
</g>
</svg>
