<?xml version="1.0" encoding="utf-8"?>
<!-- Generator: Adobe Illustrator 21.0.0, SVG Export Plug-In . SVG Version: 6.00 Build 0)  -->
<svg version="1.1" xmlns="http://www.w3.org/2000/svg" xmlns:xlink="http://www.w3.org/1999/xlink" x="0px" y="0px"
	 viewBox="0 0 20 20" style="enable-background:new 0 0 20 20;" xml:space="preserve">
<style type="text/css">
	.st0{display:none;}
	.st1{display:inline;}
	.st2{fill:#58CADD;}
	.st3{fill:#067884;}
	.st4{fill:url(#SVGID_1_);}
	.st5{fill:url(#SVGID_2_);}
	.st6{opacity:0.5;fill:#70706D;}
	.st7{display:inline;fill:url(#SVGID_3_);}
	.st8{fill:url(#SVGID_4_);}
	.st9{fill:#00AEDF;}
	.st10{fill:url(#SVGID_5_);}
	.st11{display:inline;fill:url(#SVGID_6_);}
	.st12{display:inline;fill:url(#SVGID_7_);}
	.st13{display:inline;fill:#232830;}
	.st14{fill:url(#SVGID_8_);}
	.st15{fill:url(#SVGID_9_);}
	.st16{display:inline;opacity:0.21;fill:url(#SVGID_10_);}
	.st17{fill:url(#SVGID_11_);}
	.st18{fill:url(#SVGID_12_);}
	.st19{fill:url(#SVGID_13_);}
	.st20{fill:url(#SVGID_14_);}
	.st21{display:inline;fill:url(#SVGID_15_);}
	.st22{display:inline;fill:#067884;}
	.st23{display:inline;fill:#58CADD;}
	.st24{display:inline;fill:#1CA0A4;}
	.st25{display:inline;fill:#00A0A2;}
	.st26{display:inline;fill:#00AEDF;}
	.st27{display:inline;fill:#F27221;}
	.st28{display:inline;opacity:0.59;fill:#FFFFFF;}
	.st29{clip-path:url(#SVGID_17_);fill:url(#SVGID_18_);}
	.st30{fill:url(#SVGID_19_);}
	.st31{opacity:0.5;fill:url(#SVGID_20_);}
	.st32{fill:url(#SVGID_21_);}
	.st33{fill:#E5E5E5;}
	.st34{fill:url(#SVGID_22_);}
	.st35{fill:url(#SVGID_23_);}
	.st36{opacity:0.21;fill:url(#SVGID_24_);}
	.st37{opacity:0.21;fill:url(#SVGID_25_);}
	.st38{opacity:0.21;fill:url(#SVGID_26_);}
	.st39{opacity:0.21;fill:url(#SVGID_27_);}
	.st40{fill:#F9D45A;}
	.st41{fill:#232830;}
	.st42{fill:#F27221;}
	.st43{display:inline;fill:none;}
</style>
<g id="Layer_8">
</g>
<g id="Layer_2" class="st0">
	<g class="st1">
		<path class="st2" d="M27.1,11.7L27.1,11.7L27.1,11.7C27.1,11.8,27.1,11.8,27.1,11.7C27.1,11.8,27.1,11.8,27.1,11.7l0.3,2.7
			c0,0,0,0,0,0c0,0.1-0.3,0.2-0.6,0.2c-0.3,0-0.6,0-0.6-0.1c0,0,0,0,0,0c-0.1-0.2-0.3-0.7-0.3-1.3c-0.1-0.8,0-1.4,0.2-1.4
			c0.1-0.1,0.3-0.1,0.5-0.1C26.8,11.6,27,11.7,27.1,11.7z"/>
		
			<ellipse transform="matrix(0.9958 -9.138993e-02 9.138993e-02 0.9958 -1.0846 2.5375)" class="st3" cx="27.2" cy="13.1" rx="0.3" ry="1.4"/>
	</g>
	<g class="st1">
		
			<linearGradient id="SVGID_1_" gradientUnits="userSpaceOnUse" x1="41.8063" y1="52.8585" x2="44.6238" y2="52.8585" gradientTransform="matrix(-7.761907e-03 1 1 7.761907e-03 -26.0431 -17.7278)">
			<stop  offset="0.2896" style="stop-color:#000000"/>
			<stop  offset="0.2951" style="stop-color:#151515;stop-opacity:0.9923"/>
			<stop  offset="0.3105" style="stop-color:#4B4B4B;stop-opacity:0.9707"/>
			<stop  offset="0.3265" style="stop-color:#7B7B7B;stop-opacity:0.9483"/>
			<stop  offset="0.3427" style="stop-color:#A4A4A4;stop-opacity:0.9256"/>
			<stop  offset="0.3592" style="stop-color:#C5C5C5;stop-opacity:0.9025"/>
			<stop  offset="0.376" style="stop-color:#DEDEDE;stop-opacity:0.8789"/>
			<stop  offset="0.3935" style="stop-color:#F1F1F1;stop-opacity:0.8545"/>
			<stop  offset="0.4117" style="stop-color:#FBFBFB;stop-opacity:0.8289"/>
			<stop  offset="0.4323" style="stop-color:#FFFFFF;stop-opacity:0.8"/>
			<stop  offset="0.437" style="stop-color:#DDDDDD;stop-opacity:0.8078"/>
			<stop  offset="0.4441" style="stop-color:#AFAFAF;stop-opacity:0.8198"/>
			<stop  offset="0.452" style="stop-color:#858585;stop-opacity:0.833"/>
			<stop  offset="0.4603" style="stop-color:#616161;stop-opacity:0.8471"/>
			<stop  offset="0.4693" style="stop-color:#434343;stop-opacity:0.8622"/>
			<stop  offset="0.4791" style="stop-color:#2A2A2A;stop-opacity:0.8787"/>
			<stop  offset="0.4901" style="stop-color:#171717;stop-opacity:0.8972"/>
			<stop  offset="0.5029" style="stop-color:#0A0A0A;stop-opacity:0.9188"/>
			<stop  offset="0.5193" style="stop-color:#020202;stop-opacity:0.9463"/>
			<stop  offset="0.5512" style="stop-color:#000000"/>
		</linearGradient>
		<path class="st4" d="M25.9,27.2L25.9,27.2L25.9,27.2C25.8,27.2,25.8,27.2,25.9,27.2C25.8,27.1,25.8,27.1,25.9,27.2l0-2.5
			c0,0,0,0,0,0c0-0.1,0.3-0.2,0.6-0.2c0.3,0,0.6,0.1,0.6,0.2c0,0,0,0,0,0c0.1,0.2,0.2,0.7,0.2,1.3c0,0.7-0.1,1.3-0.3,1.3
			c-0.1,0-0.3,0.1-0.5,0.1C26.1,27.3,25.9,27.3,25.9,27.2z"/>
		
			<linearGradient id="SVGID_2_" gradientUnits="userSpaceOnUse" x1="43.2405" y1="52.6555" x2="43.2285" y2="52.1018" gradientTransform="matrix(-7.761907e-03 1 1 7.761907e-03 -26.0431 -17.7278)">
			<stop  offset="0.151" style="stop-color:#000000"/>
			<stop  offset="0.3762" style="stop-color:#FFFFFF;stop-opacity:0.4"/>
			<stop  offset="0.6403" style="stop-color:#000000"/>
		</linearGradient>
		<path class="st5" d="M26.2,25.9c0-0.7-0.1-1.4-0.3-1.4c-0.2,0-0.3,0.6-0.3,1.4s0.1,1.4,0.3,1.4C26,27.3,26.2,26.7,26.2,25.9z"/>
	</g>
</g>
<g id="tai" class="st0">
	<g class="st1">
		<g>
			<path class="st2" d="M12.4,24c-0.5,0.3-0.9,0.8-0.9,1.4v0.5c0,0.2,0.1,0.5,0.1,0.6c0,0,0-0.1,0.1-0.1
				C12.2,25.6,12.4,24.8,12.4,24z"/>
			<path class="st2" d="M13,23.8c-0.2,0-0.5,0.1-0.7,0.2c0,0.8-0.1,1.7-0.7,2.5c0,0,0,0.1-0.1,0.1c0.2,0.5,0.8,0.9,1.4,0.9
				c0.9,0,1.6-0.7,1.6-1.6v-0.5C14.6,24.5,13.9,23.8,13,23.8z"/>
			<path class="st6" d="M14,24.1c0.3,0.3,0.4,0.7,0.4,1.1v0.5c0,0.9-0.7,1.6-1.6,1.6c-0.3,0-0.7-0.1-0.9-0.3
				c0.3,0.3,0.7,0.5,1.1,0.5c0.9,0,1.6-0.7,1.6-1.6v-0.5C14.6,24.8,14.4,24.4,14,24.1z"/>
		</g>
		<g>
			<path class="st2" d="M6.1,25.9v-0.5c0-0.9-0.7-1.6-1.6-1.6c-0.9,0-1.6,0.7-1.6,1.6v0.5c0,0.9,0.7,1.6,1.6,1.6
				C5.4,27.5,6.1,26.8,6.1,25.9z"/>
			<path class="st6" d="M6.1,25.9v-0.5c0-0.5-0.3-1-0.7-1.3c0.3,0.3,0.4,0.7,0.4,1.1v0.5c0,0.9-0.7,1.6-1.6,1.6
				c-0.3,0-0.7-0.1-0.9-0.3c0.3,0.3,0.7,0.5,1.1,0.5C5.4,27.5,6.1,26.8,6.1,25.9z"/>
		</g>
	</g>
	<g class="st1">
		<g>
			<path class="st2" d="M14.2-6.2c-0.5,0.3-0.9,0.8-0.9,1.4v0.5c0,0.2,0.1,0.5,0.1,0.6c0,0,0-0.1,0.1-0.1
				C14.1-4.5,14.2-5.4,14.2-6.2z"/>
			<path class="st2" d="M14.9-6.4c-0.2,0-0.5,0.1-0.7,0.2c0,0.8-0.1,1.7-0.7,2.5c0,0,0,0.1-0.1,0.1c0.2,0.5,0.8,0.9,1.4,0.9
				c0.9,0,1.6-0.7,1.6-1.6v-0.5C16.5-5.7,15.8-6.4,14.9-6.4z"/>
			<path class="st6" d="M15.8-6.1c0.3,0.3,0.4,0.7,0.4,1.1v0.5c0,0.9-0.7,1.6-1.6,1.6c-0.3,0-0.7-0.1-0.9-0.3
				c0.3,0.3,0.7,0.5,1.1,0.5c0.9,0,1.6-0.7,1.6-1.6v-0.5C16.5-5.3,16.2-5.8,15.8-6.1z"/>
		</g>
		<g>
			<path class="st2" d="M8-4.3v-0.5c0-0.9-0.7-1.6-1.6-1.6c-0.9,0-1.6,0.7-1.6,1.6v0.5c0,0.9,0.7,1.6,1.6,1.6C7.2-2.7,8-3.4,8-4.3z"
				/>
			<path class="st6" d="M8-4.3v-0.5c0-0.5-0.3-1-0.7-1.3C7.6-5.8,7.7-5.4,7.7-5v0.5c0,0.9-0.7,1.6-1.6,1.6C5.8-2.9,5.5-3,5.2-3.2
				c0.3,0.3,0.7,0.5,1.1,0.5C7.2-2.7,8-3.4,8-4.3z"/>
		</g>
	</g>
</g>
<g id="mat" class="st0">
</g>
<g id="Layer_1" class="st0">
</g>
<g id="Layer_7" class="st0">
</g>
<g id="mat-mieng" class="st0">
	
		<radialGradient id="SVGID_3_" cx="-6.8696" cy="0.837" r="3.9822" fx="-7.2559" fy="0.9049" gradientTransform="matrix(0.9956 9.389581e-02 -9.389581e-02 0.9956 2.1421 -1.055)" gradientUnits="userSpaceOnUse">
		<stop  offset="0" style="stop-color:#3BB0D6"/>
		<stop  offset="1.843440e-02" style="stop-color:#3AAFD5"/>
		<stop  offset="1" style="stop-color:#0B8FBA"/>
	</radialGradient>
	<path class="st7" d="M-1.8-0.9L-1.8-0.9c-0.4,0.3-1,0.6-1.7,0.8c-2.3,0.6-4.3-0.2-5.1-0.5c0,0,0,0,0,0s0,0,0,0c0,0,0,0,0,0l0,0
		C-9-0.8-9.2-1.3-9.1-1.8c0.1-0.4,0.5-0.7,0.9-0.7l0,0c0,0,0,0,0,0c0.1,0,0.1,0,0.2,0c0,0,0,0,0,0c0.1,0,0.1,0,0.2,0.1
		c0.1,0,0.2,0,0.3,0.1C-6.8-2.3-6-2.2-5-2.2c0.1,0,0.1,0,0.2,0l0,0c0.1,0,0.1,0,0.2,0c0.2,0,0.4,0,0.6-0.1c0.5-0.1,0.9-0.2,1.4-0.3
		c0,0,0.1,0,0.2-0.1c0.1,0,0.4-0.1,0.6,0c0.3,0.1,0.6,0.4,0.6,0.7C-1.1-1.5-1.4-1-1.8-0.9z"/>
	<g class="st1">
		<radialGradient id="SVGID_4_" cx="20.9638" cy="13.4283" r="0.5376" gradientUnits="userSpaceOnUse">
			<stop  offset="0" style="stop-color:#FFFFFF"/>
			<stop  offset="1" style="stop-color:#1CA0A4"/>
		</radialGradient>
		<path class="st8" d="M21.5,13.4c0,0.3-0.2,0.6-0.5,0.6c-0.3,0-0.5-0.3-0.5-0.6s0.2-0.6,0.5-0.6C21.3,12.9,21.5,13.1,21.5,13.4z"/>
	</g>
	<g class="st1">
		<path class="st9" d="M-3.4,16.8c0,0.8-0.6,1.5-1.3,1.5S-6,17.6-6,16.8c0-0.7,0.6-1.5,1.3-1.5S-3.4,16-3.4,16.8z"/>
	</g>
	<g class="st1">
		
			<radialGradient id="SVGID_5_" cx="23.2011" cy="-18.1868" r="0.8994" gradientTransform="matrix(0.8998 1.819776e-02 1.673183e-02 -0.8273 -22.2565 -4.6292)" gradientUnits="userSpaceOnUse">
			<stop  offset="0" style="stop-color:#FFFFFF"/>
			<stop  offset="1" style="stop-color:#45AFE8"/>
		</radialGradient>
		<path class="st10" d="M-1,10.8c0,0.5-0.3,0.8-0.7,0.8s-0.7-0.4-0.7-0.8c0-0.4,0.3-0.8,0.7-0.8S-1,10.4-1,10.8z"/>
	</g>
	<radialGradient id="SVGID_6_" cx="24.0282" cy="19.5625" r="1.5002" gradientUnits="userSpaceOnUse">
		<stop  offset="0" style="stop-color:#FFFFFF"/>
		<stop  offset="1" style="stop-color:#1CA0A4"/>
	</radialGradient>
	<path class="st11" d="M24,21.4L24,21.4c-0.5,0-1-0.4-1-1v-1.8c0-0.5,0.4-1,1-1h0c0.5,0,1,0.4,1,1v1.8C25,21,24.6,21.4,24,21.4z"/>
	<radialGradient id="SVGID_7_" cx="29.2636" cy="19.6667" r="1.0806" gradientUnits="userSpaceOnUse">
		<stop  offset="0" style="stop-color:#FFFFFF"/>
		<stop  offset="1" style="stop-color:#1CA0A4"/>
	</radialGradient>
	<path class="st12" d="M28.3,18.5c0,0,1.2,0.7,0.3,2.4h1c0,0,1.2-1.2,0-2.4H28.3z"/>
	<ellipse class="st13" cx="28" cy="-1.9" rx="6.7" ry="2.2"/>
	<g class="st1">
		
			<radialGradient id="SVGID_8_" cx="52.7523" cy="-2.065" r="1.1222" gradientTransform="matrix(0.8998 1.819776e-02 1.673183e-02 -0.8273 -22.2565 -4.6292)" gradientUnits="userSpaceOnUse">
			<stop  offset="0" style="stop-color:#FFFFFF"/>
			<stop  offset="1" style="stop-color:#45AFE8"/>
		</radialGradient>
		<path class="st14" d="M26.1-2c0,0.6-0.4,1-0.9,1c-0.5,0-0.9-0.5-0.9-1s0.4-1,0.9-1C25.7-3,26.1-2.5,26.1-2z"/>
	</g>
	<g class="st1">
		
			<radialGradient id="SVGID_9_" cx="59.1114" cy="-1.9252" r="1.1222" gradientTransform="matrix(0.8998 1.819776e-02 1.673183e-02 -0.8273 -22.2565 -4.6292)" gradientUnits="userSpaceOnUse">
			<stop  offset="0" style="stop-color:#FFFFFF"/>
			<stop  offset="1" style="stop-color:#45AFE8"/>
		</radialGradient>
		<path class="st15" d="M31.8-2c0,0.6-0.4,1-0.9,1c-0.5,0-0.9-0.5-0.9-1s0.4-1,0.9-1C31.4-3,31.8-2.5,31.8-2z"/>
	</g>
</g>
<g id="Layer_6" class="st0">
	<linearGradient id="SVGID_10_" gradientUnits="userSpaceOnUse" x1="23.4104" y1="14.134" x2="22.4529" y2="16.3927">
		<stop  offset="0" style="stop-color:#FFFFFF"/>
		<stop  offset="0.866" style="stop-color:#FFFFFF;stop-opacity:0.134"/>
		<stop  offset="1" style="stop-color:#FFFFFF;stop-opacity:0"/>
	</linearGradient>
	<path class="st16" d="M23.7,14.2L22.8,16l-0.4-0.2l0.8-1.7c0,0,0.1,0,0.1,0C23.4,14.2,23.5,14.2,23.7,14.2z"/>
	<g class="st1">
		
			<linearGradient id="SVGID_11_" gradientUnits="userSpaceOnUse" x1="23.6958" y1="7.2278" x2="25.6805" y2="7.2278" gradientTransform="matrix(2.772386e-02 0.9996 -0.9996 2.772386e-02 31.7632 -18.0856)">
			<stop  offset="0.2896" style="stop-color:#000000"/>
			<stop  offset="0.2951" style="stop-color:#151515;stop-opacity:0.9691"/>
			<stop  offset="0.3105" style="stop-color:#4B4B4B;stop-opacity:0.8828"/>
			<stop  offset="0.3265" style="stop-color:#7B7B7B;stop-opacity:0.7933"/>
			<stop  offset="0.3427" style="stop-color:#A4A4A4;stop-opacity:0.7025"/>
			<stop  offset="0.3592" style="stop-color:#C5C5C5;stop-opacity:0.6101"/>
			<stop  offset="0.376" style="stop-color:#DEDEDE;stop-opacity:0.5155"/>
			<stop  offset="0.3935" style="stop-color:#F1F1F1;stop-opacity:0.4179"/>
			<stop  offset="0.4117" style="stop-color:#FBFBFB;stop-opacity:0.3155"/>
			<stop  offset="0.4323" style="stop-color:#FFFFFF;stop-opacity:0.2"/>
			<stop  offset="0.437" style="stop-color:#DDDDDD;stop-opacity:0.2311"/>
			<stop  offset="0.4441" style="stop-color:#AFAFAF;stop-opacity:0.2794"/>
			<stop  offset="0.452" style="stop-color:#858585;stop-opacity:0.3322"/>
			<stop  offset="0.4603" style="stop-color:#616161;stop-opacity:0.3883"/>
			<stop  offset="0.4693" style="stop-color:#434343;stop-opacity:0.4487"/>
			<stop  offset="0.4791" style="stop-color:#2A2A2A;stop-opacity:0.5148"/>
			<stop  offset="0.4901" style="stop-color:#171717;stop-opacity:0.5888"/>
			<stop  offset="0.5029" style="stop-color:#0A0A0A;stop-opacity:0.6751"/>
			<stop  offset="0.5193" style="stop-color:#020202;stop-opacity:0.7852"/>
			<stop  offset="0.5512" style="stop-color:#000000"/>
		</linearGradient>
		<path class="st17" d="M25.7,7.7L25.7,7.7L25.7,7.7C25.7,7.7,25.7,7.7,25.7,7.7C25.7,7.7,25.7,7.6,25.7,7.7l0-1.8c0,0,0,0,0,0
			c0-0.1-0.2-0.1-0.4-0.1c-0.2,0-0.4,0.1-0.4,0.1c0,0,0,0,0,0c-0.1,0.1-0.1,0.5-0.1,0.9c0,0.5,0.1,0.9,0.2,0.9c0.1,0,0.2,0.1,0.3,0
			C25.5,7.8,25.6,7.7,25.7,7.7z"/>
		
			<linearGradient id="SVGID_12_" gradientUnits="userSpaceOnUse" x1="24.7072" y1="7.1387" x2="24.6988" y2="6.7487" gradientTransform="matrix(2.772386e-02 0.9996 -0.9996 2.772386e-02 31.7632 -18.0856)">
			<stop  offset="0.151" style="stop-color:#000000"/>
			<stop  offset="0.3762" style="stop-color:#FFFFFF;stop-opacity:0.4"/>
			<stop  offset="0.6403" style="stop-color:#000000"/>
		</linearGradient>
		<path class="st18" d="M25.5,6.8c0-0.5,0.1-1,0.2-1c0.1,0,0.2,0.4,0.2,1c0,0.5-0.1,1-0.2,1C25.6,7.7,25.5,7.3,25.5,6.8z"/>
	</g>
	<g class="st1">
		
			<linearGradient id="SVGID_13_" gradientUnits="userSpaceOnUse" x1="31.7504" y1="3.8234" x2="34.5679" y2="3.8234" gradientTransform="matrix(7.761907e-03 1 -1 7.761907e-03 32.8623 -17.7278)">
			<stop  offset="0.2896" style="stop-color:#000000"/>
			<stop  offset="0.2951" style="stop-color:#151515;stop-opacity:0.9923"/>
			<stop  offset="0.3105" style="stop-color:#4B4B4B;stop-opacity:0.9707"/>
			<stop  offset="0.3265" style="stop-color:#7B7B7B;stop-opacity:0.9483"/>
			<stop  offset="0.3427" style="stop-color:#A4A4A4;stop-opacity:0.9256"/>
			<stop  offset="0.3592" style="stop-color:#C5C5C5;stop-opacity:0.9025"/>
			<stop  offset="0.376" style="stop-color:#DEDEDE;stop-opacity:0.8789"/>
			<stop  offset="0.3935" style="stop-color:#F1F1F1;stop-opacity:0.8545"/>
			<stop  offset="0.4117" style="stop-color:#FBFBFB;stop-opacity:0.8289"/>
			<stop  offset="0.4323" style="stop-color:#FFFFFF;stop-opacity:0.8"/>
			<stop  offset="0.437" style="stop-color:#DDDDDD;stop-opacity:0.8078"/>
			<stop  offset="0.4441" style="stop-color:#AFAFAF;stop-opacity:0.8198"/>
			<stop  offset="0.452" style="stop-color:#858585;stop-opacity:0.833"/>
			<stop  offset="0.4603" style="stop-color:#616161;stop-opacity:0.8471"/>
			<stop  offset="0.4693" style="stop-color:#434343;stop-opacity:0.8622"/>
			<stop  offset="0.4791" style="stop-color:#2A2A2A;stop-opacity:0.8787"/>
			<stop  offset="0.4901" style="stop-color:#171717;stop-opacity:0.8972"/>
			<stop  offset="0.5029" style="stop-color:#0A0A0A;stop-opacity:0.9188"/>
			<stop  offset="0.5193" style="stop-color:#020202;stop-opacity:0.9463"/>
			<stop  offset="0.5512" style="stop-color:#000000"/>
		</linearGradient>
		<path class="st19" d="M29.9,16.8L29.9,16.8L29.9,16.8C29.9,16.7,29.9,16.7,29.9,16.8C29.9,16.7,29.9,16.7,29.9,16.8l0-2.5
			c0,0,0,0,0,0c0-0.1-0.3-0.2-0.6-0.2c-0.3,0-0.6,0.1-0.6,0.2c0,0,0,0,0,0c-0.1,0.2-0.2,0.7-0.2,1.3c0,0.7,0.1,1.3,0.3,1.3
			c0.1,0,0.3,0.1,0.5,0.1C29.6,16.9,29.8,16.8,29.9,16.8z"/>
		
			<linearGradient id="SVGID_14_" gradientUnits="userSpaceOnUse" x1="33.1846" y1="3.6204" x2="33.1727" y2="3.0666" gradientTransform="matrix(7.761907e-03 1 -1 7.761907e-03 32.8623 -17.7278)">
			<stop  offset="0.151" style="stop-color:#000000"/>
			<stop  offset="0.3762" style="stop-color:#FFFFFF;stop-opacity:0.4"/>
			<stop  offset="0.6403" style="stop-color:#000000"/>
		</linearGradient>
		<path class="st20" d="M29.6,15.5c0-0.7,0.1-1.4,0.3-1.4s0.3,0.6,0.3,1.4c0,0.7-0.1,1.4-0.3,1.4C29.7,16.8,29.6,16.2,29.6,15.5z"/>
	</g>
	<linearGradient id="SVGID_15_" gradientUnits="userSpaceOnUse" x1="24.1596" y1="11.3466" x2="24.1217" y2="9.5433">
		<stop  offset="0.3237" style="stop-color:#000000"/>
		<stop  offset="0.3294" style="stop-color:#292929;stop-opacity:0.9956"/>
		<stop  offset="0.3365" style="stop-color:#555555;stop-opacity:0.9901"/>
		<stop  offset="0.3444" style="stop-color:#7E7E7E;stop-opacity:0.9839"/>
		<stop  offset="0.3529" style="stop-color:#A1A1A1;stop-opacity:0.9774"/>
		<stop  offset="0.362" style="stop-color:#BEBEBE;stop-opacity:0.9703"/>
		<stop  offset="0.3721" style="stop-color:#D6D6D6;stop-opacity:0.9624"/>
		<stop  offset="0.3836" style="stop-color:#E8E8E8;stop-opacity:0.9536"/>
		<stop  offset="0.3971" style="stop-color:#F5F5F5;stop-opacity:0.943"/>
		<stop  offset="0.4149" style="stop-color:#FDFDFD;stop-opacity:0.9293"/>
		<stop  offset="0.4526" style="stop-color:#FFFFFF;stop-opacity:0.9"/>
		<stop  offset="0.4748" style="stop-color:#D2D2D2;stop-opacity:0.9097"/>
		<stop  offset="0.5057" style="stop-color:#9B9B9B;stop-opacity:0.9231"/>
		<stop  offset="0.5368" style="stop-color:#6C6C6C;stop-opacity:0.9367"/>
		<stop  offset="0.5675" style="stop-color:#454545;stop-opacity:0.95"/>
		<stop  offset="0.5976" style="stop-color:#272727;stop-opacity:0.9631"/>
		<stop  offset="0.6272" style="stop-color:#111111;stop-opacity:0.976"/>
		<stop  offset="0.6557" style="stop-color:#040404;stop-opacity:0.9884"/>
		<stop  offset="0.6823" style="stop-color:#000000"/>
	</linearGradient>
	<path class="st21" d="M24.8,9.6L24.8,9.6L24.8,9.6C24.9,9.6,24.9,9.6,24.8,9.6C24.9,9.6,24.9,9.7,24.8,9.6l-0.1,2.7c0,0,0,0,0,0
		c0,0.1-0.3,0.2-0.6,0.1c-0.3,0-0.6-0.1-0.6-0.2c0,0,0,0,0,0c-0.1-0.2-0.2-0.7-0.2-1.3c0-0.8,0.2-1.4,0.3-1.4c0.1,0,0.3-0.1,0.5-0.1
		C24.6,9.4,24.8,9.5,24.8,9.6z"/>
	
		<ellipse transform="matrix(3.933723e-02 -0.9992 0.9992 3.933723e-02 12.8412 35.2399)" class="st22" cx="24.7" cy="10.9" rx="1.4" ry="0.3"/>
	<polygon class="st23" points="22.4,6.9 20.9,4.3 23.9,4.3 	"/>
	<polygon class="st24" points="22.4,5.9 21.5,4.4 23.3,4.4 	"/>
	<rect x="30.5" y="8.4" class="st25" width="1.3" height="4.4"/>
	
		<rect x="24.3" y="19.1" transform="matrix(-0.9996 2.865310e-02 -2.865310e-02 -0.9996 50.4686 41.8549)" class="st26" width="1.3" height="4.4"/>
	<rect x="27.7" y="8.1" class="st27" width="1.3" height="4.4"/>
	<circle class="st28" cx="15.9" cy="23.8" r="0.4"/>
</g>
<g id="Layer_10" class="st0">
	<g class="st1">
		<defs>
			<circle id="SVGID_16_" cx="10" cy="10" r="10"/>
		</defs>
		<clipPath id="SVGID_17_">
			<use xlink:href="#SVGID_16_"  style="overflow:visible;"/>
		</clipPath>
		<radialGradient id="SVGID_18_" cx="10.5" cy="-1.0833" r="7.1765" gradientUnits="userSpaceOnUse">
			<stop  offset="0" style="stop-color:#FFFFFF"/>
			<stop  offset="8.480710e-02" style="stop-color:#E5F4F5"/>
			<stop  offset="0.3362" style="stop-color:#9FD7D8"/>
			<stop  offset="0.5624" style="stop-color:#66BFC2"/>
			<stop  offset="0.7553" style="stop-color:#3EAEB2"/>
			<stop  offset="0.9075" style="stop-color:#25A4A8"/>
			<stop  offset="1" style="stop-color:#1CA0A4"/>
		</radialGradient>
		<rect x="-0.6" y="-0.6" class="st29" width="21.2" height="21.2"/>
	</g>
</g>
<g id="Layer_9">
	<path class="st2" d="M15.9,8.2c-0.9,0.4-1.5,1.3-1.5,2.4v0.9c0,0.4,0.1,0.7,0.2,1.1c0,0,0.1-0.1,0.1-0.1C15.7,11,16,9.6,15.9,8.2z"
		/>
	<radialGradient id="SVGID_19_" cx="16.713" cy="10.9972" r="2.8095" gradientUnits="userSpaceOnUse">
		<stop  offset="0" style="stop-color:#FFFFFF"/>
		<stop  offset="1.128078e-03" style="stop-color:#FEFEFF"/>
		<stop  offset="4.193568e-02" style="stop-color:#D0E9F4"/>
		<stop  offset="8.568454e-02" style="stop-color:#A7D6EA"/>
		<stop  offset="0.1349" style="stop-color:#81C4E2"/>
		<stop  offset="0.1885" style="stop-color:#61B5DA"/>
		<stop  offset="0.2477" style="stop-color:#45A9D4"/>
		<stop  offset="0.3145" style="stop-color:#2F9ECF"/>
		<stop  offset="0.3926" style="stop-color:#1E97CB"/>
		<stop  offset="0.489" style="stop-color:#1391C8"/>
		<stop  offset="0.6244" style="stop-color:#0C8EC6"/>
		<stop  offset="1" style="stop-color:#0A8DC6"/>
	</radialGradient>
	<path class="st30" d="M17.1,7.9c-0.4,0-0.8,0.1-1.1,0.3c0.1,1.4-0.2,2.8-1.2,4.2c0,0-0.1,0.1-0.1,0.1c0.4,0.9,1.3,1.6,2.4,1.6
		c1.5,0,2.6-1.2,2.6-2.6v-0.9C19.7,9.1,18.5,7.9,17.1,7.9z"/>
	<radialGradient id="SVGID_20_" cx="15.2856" cy="11.1631" r="3.1498" fx="17.8128" fy="10.8273" gradientUnits="userSpaceOnUse">
		<stop  offset="3.630403e-02" style="stop-color:#FFFFFF"/>
		<stop  offset="3.739116e-02" style="stop-color:#FEFEFF"/>
		<stop  offset="7.671727e-02" style="stop-color:#D0E9F4"/>
		<stop  offset="0.1189" style="stop-color:#A7D6EA"/>
		<stop  offset="0.1663" style="stop-color:#81C4E2"/>
		<stop  offset="0.218" style="stop-color:#61B5DA"/>
		<stop  offset="0.275" style="stop-color:#45A9D4"/>
		<stop  offset="0.3394" style="stop-color:#2F9ECF"/>
		<stop  offset="0.4146" style="stop-color:#1E97CB"/>
		<stop  offset="0.5076" style="stop-color:#1391C8"/>
		<stop  offset="0.638" style="stop-color:#0C8EC6"/>
		<stop  offset="1" style="stop-color:#0A8DC6"/>
	</radialGradient>
	<path class="st31" d="M18.6,8.4c0.4,0.5,0.7,1.1,0.7,1.8v0.9c0,1.5-1.2,2.6-2.6,2.6c-0.6,0-1.1-0.2-1.5-0.5
		c0.5,0.5,1.2,0.8,1.9,0.8c1.5,0,2.6-1.2,2.6-2.6v-0.9C19.7,9.7,19.3,8.9,18.6,8.4z"/>
	<radialGradient id="SVGID_21_" cx="3.3459" cy="11.0364" r="2.8625" gradientUnits="userSpaceOnUse">
		<stop  offset="3.630403e-02" style="stop-color:#FFFFFF"/>
		<stop  offset="3.739116e-02" style="stop-color:#FEFEFF"/>
		<stop  offset="7.671727e-02" style="stop-color:#D0E9F4"/>
		<stop  offset="0.1189" style="stop-color:#A7D6EA"/>
		<stop  offset="0.1663" style="stop-color:#81C4E2"/>
		<stop  offset="0.218" style="stop-color:#61B5DA"/>
		<stop  offset="0.275" style="stop-color:#45A9D4"/>
		<stop  offset="0.3394" style="stop-color:#2F9ECF"/>
		<stop  offset="0.4146" style="stop-color:#1E97CB"/>
		<stop  offset="0.5076" style="stop-color:#1391C8"/>
		<stop  offset="0.638" style="stop-color:#0C8EC6"/>
		<stop  offset="1" style="stop-color:#0A8DC6"/>
	</radialGradient>
	<path class="st32" d="M5.6,11.4v-0.9c0-1.5-1.2-2.6-2.6-2.6c-1.5,0-2.6,1.2-2.6,2.6v0.9c0,1.5,1.2,2.6,2.6,2.6
		C4.4,14.1,5.6,12.9,5.6,11.4z"/>
	<path class="st6" d="M5.6,11.4v-0.9c0-0.9-0.4-1.7-1.1-2.1c0.4,0.5,0.7,1.1,0.7,1.8v0.9c0,1.5-1.2,2.6-2.6,2.6
		c-0.6,0-1.1-0.2-1.5-0.5c0.5,0.5,1.2,0.8,1.9,0.8C4.4,14.1,5.6,12.9,5.6,11.4z"/>
	<path class="st33" d="M17.6,10.6c0-2.3-1-4.3-2.6-5.7c0.8,2.6,1.4,5.3-0.4,7.9c-1.2,1.9-3,2.9-5,3.4h2.9c2.1,0,5-1.7,5-3.8v-1.1
		c0-0.1,0-0.2,0-0.4C17.6,10.8,17.6,10.7,17.6,10.6z"/>
	<radialGradient id="SVGID_22_" cx="10.1675" cy="0.9889" r="7.7217" fx="9.7834" fy="0.9553" gradientUnits="userSpaceOnUse">
		<stop  offset="0" style="stop-color:#FFFFFF"/>
		<stop  offset="0.9109" style="stop-color:#1CA0A4"/>
	</radialGradient>
	<path class="st34" d="M17.6,10.6c0-2.3-1-4.3-2.6-5.7c-1.4-1.2-3.2-2-5.2-2c-4.3,0-7.8,3.5-7.8,7.7c0,0.1,0,0.2,0,0.3
		c0,0.1,0,0.2,0,0.3l0.1,1.3c0,2.1,3.1,3.6,5.2,3.6h2.3h2.9c2.1,0,5-1.7,5-3.8v-1.1c0-0.1,0-0.2,0-0.3
		C17.6,10.8,17.6,10.7,17.6,10.6z"/>
	<radialGradient id="SVGID_23_" cx="5.833" cy="8.2633" r="0" gradientUnits="userSpaceOnUse">
		<stop  offset="0" style="stop-color:#3BB0D6"/>
		<stop  offset="1.843440e-02" style="stop-color:#3AAFD5"/>
		<stop  offset="1" style="stop-color:#0B8FBA"/>
	</radialGradient>
	<path class="st35" d="M5.8,8.3"/>
	<linearGradient id="SVGID_24_" gradientUnits="userSpaceOnUse" x1="11.0244" y1="8.2756" x2="9.3287" y2="12.2758">
		<stop  offset="0" style="stop-color:#FFFFFF"/>
		<stop  offset="0.866" style="stop-color:#FFFFFF;stop-opacity:0.134"/>
		<stop  offset="1" style="stop-color:#FFFFFF;stop-opacity:0"/>
	</linearGradient>
	<path class="st36" d="M11.4,8.3l-0.1,0.2v0L11,9.3l-0.1,0.1l-0.8,1.8L10,11.4c-0.1,0-0.2,0-0.3,0c-0.2,0-0.3,0-0.5,0l0.3-0.6
		l0.6-1.2l0.1-0.2l0.3-0.6l0.1-0.2l0-0.1c0.1,0,0.2,0,0.2,0c0,0,0.1,0,0.1,0c0,0,0,0,0,0C11.1,8.4,11.3,8.4,11.4,8.3z"/>
	<linearGradient id="SVGID_25_" gradientUnits="userSpaceOnUse" x1="12.2998" y1="8.1028" x2="11.0634" y2="11.0192">
		<stop  offset="0" style="stop-color:#FFFFFF"/>
		<stop  offset="0.866" style="stop-color:#FFFFFF;stop-opacity:0.134"/>
		<stop  offset="1" style="stop-color:#FFFFFF;stop-opacity:0"/>
	</linearGradient>
	<path class="st37" d="M12.5,8.1l-1,2.4l-0.5-0.2L12,8.2C12.2,8.2,12.4,8.2,12.5,8.1z"/>
	<linearGradient id="SVGID_26_" gradientUnits="userSpaceOnUse" x1="14.892" y1="8.7063" x2="13.9372" y2="10.9587">
		<stop  offset="0" style="stop-color:#FFFFFF"/>
		<stop  offset="0.866" style="stop-color:#FFFFFF;stop-opacity:0.134"/>
		<stop  offset="1" style="stop-color:#FFFFFF;stop-opacity:0"/>
	</linearGradient>
	<path class="st38" d="M15.1,8.7l-0.8,1.9L14,10.4l0.7-1.6C14.8,8.8,14.9,8.7,15.1,8.7z"/>
	<linearGradient id="SVGID_27_" gradientUnits="userSpaceOnUse" x1="5.7454" y1="7.8972" x2="4.8585" y2="9.9895">
		<stop  offset="0" style="stop-color:#FFFFFF"/>
		<stop  offset="0.866" style="stop-color:#FFFFFF;stop-opacity:0.134"/>
		<stop  offset="1" style="stop-color:#FFFFFF;stop-opacity:0"/>
	</linearGradient>
	<path class="st39" d="M5.9,7.9L5.2,9.7L4.9,9.5L5.5,8C5.6,8,5.8,7.9,5.9,7.9z"/>
	<path class="st40" d="M7.9,12.5c0.2,0.9,1.1,1.6,2,1.6c1,0,1.8-0.7,2-1.6H7.9z"/>
	<path class="st41" d="M13.8,11.6H5.6c-0.7,0-1.2-0.5-1.2-1.2v-2c0-0.7,0.5-1.2,1.2-1.2h8.1c0.7,0,1.2,0.5,1.2,1.2v2
		C15,11.1,14.4,11.6,13.8,11.6z"/>
	<path class="st42" d="M6.9,8.3c-0.6,0-1.1,0.5-1.1,1.1s0.5,1.1,1.1,1.1S8,9.9,8,9.3S7.5,8.3,6.9,8.3z M6.9,10.1
		c-0.4,0-0.7-0.3-0.7-0.7c0-0.4,0.3-0.7,0.7-0.7c0.4,0,0.7,0.3,0.7,0.7C7.7,9.8,7.4,10.1,6.9,10.1z"/>
	<path class="st42" d="M6.9,8.3c-0.6,0-1.1,0.5-1.1,1.1s0.5,1.1,1.1,1.1S8,9.9,8,9.3S7.5,8.3,6.9,8.3z M6.9,10
		c-0.4,0-0.6-0.3-0.6-0.6c0-0.4,0.3-0.6,0.6-0.6c0.4,0,0.6,0.3,0.6,0.6C7.6,9.7,7.3,10,6.9,10z"/>
	<path class="st42" d="M12.7,8.3c-0.6,0-1.1,0.5-1.1,1.1s0.5,1.1,1.1,1.1s1.1-0.5,1.1-1.1S13.3,8.3,12.7,8.3z M12.7,10
		c-0.4,0-0.6-0.3-0.6-0.6c0-0.4,0.3-0.6,0.6-0.6c0.4,0,0.6,0.3,0.6,0.6C13.3,9.7,13.1,10,12.7,10z"/>
</g>
<g id="Layer_11" class="st0">
	<circle class="st43" cx="-26" cy="-4.8" r="10"/>
</g>
</svg>
