<?xml version="1.0" encoding="utf-8"?>
<!-- Generator: Adobe Illustrator 21.0.0, SVG Export Plug-In . SVG Version: 6.00 Build 0)  -->
<svg version="1.1" xmlns="http://www.w3.org/2000/svg" xmlns:xlink="http://www.w3.org/1999/xlink" x="0px" y="0px"
	 viewBox="0 0 20 20" style="enable-background:new 0 0 20 20;" xml:space="preserve">
<style type="text/css">
	.st0{fill:url(#SVGID_1_);}
	.st1{fill:#58CADD;}
	.st2{fill:url(#SVGID_2_);}
	.st3{opacity:0.5;fill:#70706D;}
	.st4{fill:url(#SVGID_3_);}
	.st5{fill:#FFFFFF;}
	.st6{fill:#E5E5E5;}
	.st7{fill:url(#SVGID_4_);}
	.st8{opacity:0.21;fill:url(#SVGID_5_);}
	.st9{opacity:0.21;fill:url(#SVGID_6_);}
	.st10{opacity:0.21;fill:url(#SVGID_7_);}
	.st11{opacity:0.21;fill:url(#SVGID_8_);}
	.st12{fill:url(#SVGID_9_);}
	.st13{opacity:0.21;fill:#232830;}
	.st14{fill:#232830;}
	.st15{fill:url(#SVGID_10_);}
	.st16{fill:url(#SVGID_11_);}
	.st17{display:none;}
	.st18{display:inline;opacity:0.14;fill:url(#SVGID_12_);}
	.st19{display:inline;}
	.st20{fill:url(#SVGID_13_);}
	.st21{fill:url(#SVGID_14_);}
	.st22{display:inline;fill:#FFFFFF;}
	.st23{display:inline;fill:#E5E5E5;}
	.st24{display:inline;fill:url(#SVGID_15_);}
	.st25{display:inline;opacity:0.21;fill:url(#SVGID_16_);}
	.st26{display:inline;opacity:0.21;fill:url(#SVGID_17_);}
	.st27{display:inline;opacity:0.21;fill:url(#SVGID_18_);}
	.st28{display:inline;opacity:0.21;fill:url(#SVGID_19_);}
	.st29{display:inline;fill:url(#SVGID_20_);}
	.st30{display:inline;opacity:0.21;fill:#232830;}
	.st31{display:inline;fill:#5CE8CF;}
	.st32{display:inline;fill:url(#SVGID_21_);}
	.st33{display:inline;fill:url(#SVGID_22_);}
	.st34{display:inline;opacity:0.14;fill:url(#SVGID_23_);}
</style>
<g id="Layer_1">
	<radialGradient id="SVGID_1_" cx="10" cy="10" r="10" gradientUnits="userSpaceOnUse">
		<stop  offset="0" style="stop-color:#FFFFFF"/>
		<stop  offset="8.480710e-02" style="stop-color:#E5F4F5"/>
		<stop  offset="0.3362" style="stop-color:#9FD7D8"/>
		<stop  offset="0.5624" style="stop-color:#66BFC2"/>
		<stop  offset="0.7553" style="stop-color:#3EAEB2"/>
		<stop  offset="0.9075" style="stop-color:#25A4A8"/>
		<stop  offset="1" style="stop-color:#1CA0A4"/>
	</radialGradient>
	<rect class="st0" width="20" height="20"/>
</g>
<g id="Layer_2">
	<g>
		<path class="st1" d="M15.7,8.3c-0.8,0.4-1.4,1.3-1.4,2.3v0.9c0,0.4,0.1,0.7,0.2,1c0,0,0.1-0.1,0.1-0.1
			C15.5,10.9,15.7,9.6,15.7,8.3z"/>
		<radialGradient id="SVGID_2_" cx="16.8757" cy="10.9621" r="2.6849" gradientUnits="userSpaceOnUse">
			<stop  offset="0" style="stop-color:#FFFFFF"/>
			<stop  offset="1" style="stop-color:#45AFE8"/>
		</radialGradient>
		<path class="st2" d="M16.8,8c-0.4,0-0.8,0.1-1.1,0.3c0.1,1.3-0.2,2.7-1.1,4c0,0-0.1,0.1-0.1,0.1c0.4,0.9,1.3,1.5,2.3,1.5
			c1.4,0,2.5-1.1,2.5-2.5v-0.9C19.3,9.1,18.2,8,16.8,8z"/>
		<path class="st3" d="M18.2,8.5c0.4,0.5,0.7,1.1,0.7,1.7v0.9c0,1.4-1.1,2.5-2.5,2.5c-0.5,0-1.1-0.2-1.5-0.5
			c0.5,0.5,1.1,0.8,1.8,0.8c1.4,0,2.5-1.1,2.5-2.5v-0.9C19.3,9.7,18.9,9,18.2,8.5z"/>
		<radialGradient id="SVGID_3_" cx="3.2361" cy="10.9621" r="2.7356" gradientUnits="userSpaceOnUse">
			<stop  offset="0" style="stop-color:#FFFFFF"/>
			<stop  offset="1" style="stop-color:#45AFE8"/>
		</radialGradient>
		<path class="st4" d="M5.8,11.4v-0.9C5.8,9.1,4.6,8,3.2,8c-1.4,0-2.5,1.1-2.5,2.5v0.9c0,1.4,1.1,2.5,2.5,2.5
			C4.6,13.9,5.8,12.8,5.8,11.4z"/>
		<path class="st3" d="M5.8,11.4v-0.9c0-0.8-0.4-1.6-1-2c0.4,0.5,0.7,1.1,0.7,1.7v0.9c0,1.4-1.1,2.5-2.5,2.5c-0.5,0-1.1-0.2-1.5-0.5
			c0.5,0.5,1.1,0.8,1.8,0.8C4.6,13.9,5.8,12.8,5.8,11.4z"/>
	</g>
	<path class="st5" d="M14.5,12.6c1.7-2.5,1.2-5,0.4-7.5c-1.3-1.2-3-1.9-4.9-1.9c-4.1,0-7.4,3.3-7.4,7.4c0,0.1,0,0.2,0,0.3
		c0,0.1,0,0.2,0,0.3v1.1c0,2,3,3.6,5,3.6h2.2C11.6,15.4,13.3,14.4,14.5,12.6z"/>
	<path class="st6" d="M17.3,10.6c0-2.2-1-4.1-2.5-5.5c0.8,2.5,1.3,5-0.4,7.5c-1.1,1.8-2.8,2.8-4.7,3.3h2.8c2,0,4.8-1.6,4.8-3.6v-1.1
		c0-0.1,0-0.2,0-0.3C17.3,10.8,17.3,10.7,17.3,10.6z"/>
	<path class="st5" d="M17.3,10.6c0-2.2-1-4.1-2.5-5.5c0.8,2.5,1.3,5-0.4,7.5c-1.1,1.8-2.8,2.8-4.7,3.3h2.8c2,0,4.8-1.6,4.8-3.6v-1.1
		c0-0.1,0-0.2,0-0.3C17.3,10.8,17.3,10.7,17.3,10.6z"/>
	<path class="st6" d="M17.1,11c0-1.8-0.8-3.4-2-4.5c0.7,2,1.1,4.1-0.3,6.1c-0.9,1.5-2.3,2.3-3.9,2.7h2.3c1.6,0,3.9-1.3,3.9-2.9v-0.9
		c0-0.1,0-0.2,0-0.3C17.1,11.2,17.1,11.1,17.1,11z"/>
	<radialGradient id="SVGID_4_" cx="6.0177" cy="8.3493" r="0" gradientUnits="userSpaceOnUse">
		<stop  offset="0" style="stop-color:#3BB0D6"/>
		<stop  offset="1.843440e-02" style="stop-color:#3AAFD5"/>
		<stop  offset="1" style="stop-color:#0B8FBA"/>
	</radialGradient>
	<path class="st7" d="M6,8.3"/>
	<linearGradient id="SVGID_5_" gradientUnits="userSpaceOnUse" x1="10.979" y1="8.3611" x2="9.3584" y2="12.184">
		<stop  offset="0" style="stop-color:#FFFFFF"/>
		<stop  offset="0.866" style="stop-color:#FFFFFF;stop-opacity:0.134"/>
		<stop  offset="1" style="stop-color:#FFFFFF;stop-opacity:0"/>
	</linearGradient>
	<path class="st8" d="M11.4,8.4l-0.1,0.1v0L11,9.3l-0.1,0.1l-0.8,1.7L10,11.4c-0.1,0-0.2,0-0.3,0c-0.2,0-0.3,0-0.5,0l0.3-0.6
		l0.5-1.2l0.1-0.2l0.3-0.5l0.1-0.2l0-0.1c0.1,0,0.2,0,0.2,0c0,0,0.1,0,0.1,0c0,0,0,0,0,0C11.1,8.4,11.2,8.4,11.4,8.4z"/>
	<linearGradient id="SVGID_6_" gradientUnits="userSpaceOnUse" x1="12.1978" y1="8.1959" x2="11.0163" y2="10.9831">
		<stop  offset="0" style="stop-color:#FFFFFF"/>
		<stop  offset="0.866" style="stop-color:#FFFFFF;stop-opacity:0.134"/>
		<stop  offset="1" style="stop-color:#FFFFFF;stop-opacity:0"/>
	</linearGradient>
	<path class="st9" d="M12.4,8.2l-0.9,2.3L11,10.3l0.8-2C12.1,8.3,12.3,8.2,12.4,8.2z"/>
	<linearGradient id="SVGID_7_" gradientUnits="userSpaceOnUse" x1="14.6752" y1="8.7728" x2="13.7627" y2="10.9253">
		<stop  offset="0" style="stop-color:#FFFFFF"/>
		<stop  offset="0.866" style="stop-color:#FFFFFF;stop-opacity:0.134"/>
		<stop  offset="1" style="stop-color:#FFFFFF;stop-opacity:0"/>
	</linearGradient>
	<path class="st10" d="M14.8,8.8l-0.7,1.8l-0.3-0.2l0.6-1.6C14.6,8.8,14.7,8.8,14.8,8.8z"/>
	<linearGradient id="SVGID_8_" gradientUnits="userSpaceOnUse" x1="5.934" y1="7.9995" x2="5.0864" y2="9.9991">
		<stop  offset="0" style="stop-color:#FFFFFF"/>
		<stop  offset="0.866" style="stop-color:#FFFFFF;stop-opacity:0.134"/>
		<stop  offset="1" style="stop-color:#FFFFFF;stop-opacity:0"/>
	</linearGradient>
	<path class="st11" d="M6.1,8L5.4,9.7L5.1,9.5l0.6-1.5C5.8,8.1,6,8,6.1,8z"/>
	<radialGradient id="SVGID_9_" cx="10.1436" cy="13.4068" r="1.951" fx="9.9544" fy="13.44" gradientUnits="userSpaceOnUse">
		<stop  offset="0" style="stop-color:#3BB0D6"/>
		<stop  offset="1.843440e-02" style="stop-color:#3AAFD5"/>
		<stop  offset="1" style="stop-color:#0B8FBA"/>
	</radialGradient>
	<path class="st12" d="M8,12.4c0.2,0.9,1,1.5,1.9,1.5c0.9,0,1.7-0.6,1.9-1.5H8z"/>
	<path class="st13" d="M13.8,11.8H6.1c-0.7,0-1.2-0.5-1.2-1.2V8.8c0-0.7,0.5-1.2,1.2-1.2h7.6c0.7,0,1.2,0.5,1.2,1.2v1.8
		C15,11.3,14.4,11.8,13.8,11.8z"/>
	<path class="st14" d="M13.5,11.6H5.9c-0.7,0-1.2-0.5-1.2-1.2V8.5c0-0.7,0.5-1.2,1.2-1.2h7.6c0.7,0,1.2,0.5,1.2,1.2v1.8
		C14.7,11,14.2,11.6,13.5,11.6z"/>
	<radialGradient id="SVGID_10_" cx="7.0767" cy="9.3871" r="1.0377" gradientUnits="userSpaceOnUse">
		<stop  offset="0" style="stop-color:#FFFFFF"/>
		<stop  offset="1" style="stop-color:#45AFE8"/>
	</radialGradient>
	<path class="st15" d="M7.1,8.3c-0.6,0-1,0.5-1,1c0,0.6,0.5,1,1,1s1-0.5,1-1C8.1,8.8,7.6,8.3,7.1,8.3z M7.1,10.1
		c-0.4,0-0.7-0.3-0.7-0.7c0-0.4,0.3-0.7,0.7-0.7c0.4,0,0.7,0.3,0.7,0.7C7.8,9.8,7.5,10.1,7.1,10.1z"/>
	<radialGradient id="SVGID_11_" cx="12.3666" cy="9.4563" r="1.0377" gradientUnits="userSpaceOnUse">
		<stop  offset="0" style="stop-color:#FFFFFF"/>
		<stop  offset="1" style="stop-color:#45AFE8"/>
	</radialGradient>
	<path class="st16" d="M12.4,8.4c-0.6,0-1,0.5-1,1c0,0.6,0.5,1,1,1c0.6,0,1-0.5,1-1C13.4,8.9,12.9,8.4,12.4,8.4z M12.4,10.2
		c-0.4,0-0.7-0.3-0.7-0.7c0-0.4,0.3-0.7,0.7-0.7c0.4,0,0.7,0.3,0.7,0.7C13.1,9.8,12.8,10.2,12.4,10.2z"/>
</g>
<g id="Layer_3" class="st17">
	<linearGradient id="SVGID_12_" gradientUnits="userSpaceOnUse" x1="-9.8704" y1="7.0262" x2="-12.8233" y2="13.9921">
		<stop  offset="0" style="stop-color:#FFFFFF"/>
		<stop  offset="0.866" style="stop-color:#FFFFFF;stop-opacity:0.134"/>
		<stop  offset="1" style="stop-color:#FFFFFF;stop-opacity:0"/>
	</linearGradient>
	<path class="st18" d="M-9.6,7l-0.1,0.3v0l-0.5,1.5L-10.3,9l-1.1,3.3l-0.1,0.4c-0.1,0-0.3,0-0.4,0c-0.2,0-0.4-0.1-0.6-0.1l0.4-1.1
		l0.7-2.3l0.1-0.4l0.4-1.1l0.1-0.4l0-0.2c0.1,0,0.2,0,0.3,0c0,0,0.1,0,0.1,0c0,0,0,0,0,0C-10,7-9.8,7-9.6,7z"/>
	<g class="st19">
		<path class="st1" d="M15.7,9.1c-0.8,0.4-1.4,1.3-1.4,2.3v0.9c0,0.4,0.1,0.7,0.2,1c0,0,0.1-0.1,0.1-0.1
			C15.5,11.8,15.8,10.5,15.7,9.1z"/>
		<radialGradient id="SVGID_13_" cx="16.9102" cy="11.8263" r="2.6849" gradientUnits="userSpaceOnUse">
			<stop  offset="0" style="stop-color:#FFFFFF"/>
			<stop  offset="1" style="stop-color:#45AFE8"/>
		</radialGradient>
		<path class="st20" d="M16.8,8.9c-0.4,0-0.8,0.1-1.1,0.3c0.1,1.3-0.2,2.7-1.1,4c0,0-0.1,0.1-0.1,0.1c0.4,0.9,1.3,1.5,2.3,1.5
			c1.4,0,2.5-1.1,2.5-2.5v-0.9C19.3,10,18.2,8.9,16.8,8.9z"/>
		<path class="st3" d="M18.3,9.4c0.4,0.5,0.7,1.1,0.7,1.7v0.9c0,1.4-1.1,2.5-2.5,2.5c-0.5,0-1.1-0.2-1.5-0.5
			c0.5,0.5,1.1,0.8,1.8,0.8c1.4,0,2.5-1.1,2.5-2.5v-0.9C19.3,10.6,18.9,9.8,18.3,9.4z"/>
		<radialGradient id="SVGID_14_" cx="3.2706" cy="11.8263" r="2.7356" gradientUnits="userSpaceOnUse">
			<stop  offset="0" style="stop-color:#FFFFFF"/>
			<stop  offset="1" style="stop-color:#45AFE8"/>
		</radialGradient>
		<path class="st21" d="M5.8,12.3v-0.9c0-1.4-1.1-2.5-2.5-2.5c-1.4,0-2.5,1.1-2.5,2.5v0.9c0,1.4,1.1,2.5,2.5,2.5
			C4.7,14.8,5.8,13.6,5.8,12.3z"/>
		<path class="st3" d="M5.8,12.3v-0.9c0-0.8-0.4-1.6-1-2c0.4,0.5,0.7,1.1,0.7,1.7v0.9c0,1.4-1.1,2.5-2.5,2.5c-0.5,0-1.1-0.2-1.5-0.5
			c0.5,0.5,1.1,0.8,1.8,0.8C4.7,14.8,5.8,13.6,5.8,12.3z"/>
	</g>
	<path class="st22" d="M14.5,13.5c1.7-2.5,1.2-5,0.4-7.5C13.6,4.7,11.8,4,9.9,4c-4.1,0-7.4,3.3-7.4,7.4c0,0.1,0,0.2,0,0.3
		c0,0.1,0,0.2,0,0.3v1.1c0,2,3,3.6,5,3.6h2.2C11.7,16.2,13.3,15.3,14.5,13.5z"/>
	<path class="st23" d="M17.3,11.4c0-2.2-1-4.1-2.5-5.5c0.8,2.5,1.3,5-0.4,7.5c-1.1,1.8-2.8,2.8-4.7,3.3h2.8c2,0,4.8-1.6,4.8-3.6
		v-1.1c0-0.1,0-0.2,0-0.3C17.3,11.6,17.3,11.5,17.3,11.4z"/>
	<path class="st22" d="M17.3,11.4c0-2.2-1-4.1-2.5-5.5c0.8,2.5,1.3,5-0.4,7.5c-1.1,1.8-2.8,2.8-4.7,3.3h2.8c2,0,4.8-1.6,4.8-3.6
		v-1.1c0-0.1,0-0.2,0-0.3C17.3,11.6,17.3,11.5,17.3,11.4z"/>
	<path class="st23" d="M17.1,11.9c0-1.8-0.8-3.4-2-4.5c0.7,2,1.1,4.1-0.3,6.1c-0.9,1.5-2.3,2.3-3.9,2.7h2.3c1.6,0,3.9-1.3,3.9-2.9
		v-0.9c0-0.1,0-0.2,0-0.3C17.1,12.1,17.1,12,17.1,11.9z"/>
	<radialGradient id="SVGID_15_" cx="6.0522" cy="9.2135" r="0" gradientUnits="userSpaceOnUse">
		<stop  offset="0" style="stop-color:#3BB0D6"/>
		<stop  offset="1.843440e-02" style="stop-color:#3AAFD5"/>
		<stop  offset="1" style="stop-color:#0B8FBA"/>
	</radialGradient>
	<path class="st24" d="M6.1,9.2"/>
	<linearGradient id="SVGID_16_" gradientUnits="userSpaceOnUse" x1="11.0135" y1="9.2254" x2="9.393" y2="13.0482">
		<stop  offset="0" style="stop-color:#FFFFFF"/>
		<stop  offset="0.866" style="stop-color:#FFFFFF;stop-opacity:0.134"/>
		<stop  offset="1" style="stop-color:#FFFFFF;stop-opacity:0"/>
	</linearGradient>
	<path class="st25" d="M11.4,9.3l-0.1,0.1v0L11,10.2l-0.1,0.1L10.2,12l-0.1,0.2c-0.1,0-0.2,0-0.3,0c-0.2,0-0.3,0-0.5,0l0.3-0.6
		l0.5-1.2l0.1-0.2l0.3-0.5l0.1-0.2l0-0.1c0.1,0,0.2,0,0.2,0c0,0,0.1,0,0.1,0c0,0,0,0,0,0C11.1,9.3,11.3,9.3,11.4,9.3z"/>
	<linearGradient id="SVGID_17_" gradientUnits="userSpaceOnUse" x1="12.2324" y1="9.0601" x2="11.0508" y2="11.8473">
		<stop  offset="0" style="stop-color:#FFFFFF"/>
		<stop  offset="0.866" style="stop-color:#FFFFFF;stop-opacity:0.134"/>
		<stop  offset="1" style="stop-color:#FFFFFF;stop-opacity:0"/>
	</linearGradient>
	<path class="st26" d="M12.5,9.1l-0.9,2.3l-0.4-0.2l0.8-2C12.1,9.1,12.3,9.1,12.5,9.1z"/>
	<linearGradient id="SVGID_18_" gradientUnits="userSpaceOnUse" x1="14.7097" y1="9.637" x2="13.7972" y2="11.7895">
		<stop  offset="0" style="stop-color:#FFFFFF"/>
		<stop  offset="0.866" style="stop-color:#FFFFFF;stop-opacity:0.134"/>
		<stop  offset="1" style="stop-color:#FFFFFF;stop-opacity:0"/>
	</linearGradient>
	<path class="st27" d="M14.9,9.7l-0.7,1.8l-0.3-0.2l0.6-1.6C14.6,9.7,14.8,9.7,14.9,9.7z"/>
	<linearGradient id="SVGID_19_" gradientUnits="userSpaceOnUse" x1="5.9686" y1="8.8637" x2="5.1209" y2="10.8633">
		<stop  offset="0" style="stop-color:#FFFFFF"/>
		<stop  offset="0.866" style="stop-color:#FFFFFF;stop-opacity:0.134"/>
		<stop  offset="1" style="stop-color:#FFFFFF;stop-opacity:0"/>
	</linearGradient>
	<path class="st28" d="M6.1,8.9l-0.7,1.7l-0.3-0.2l0.6-1.5C5.9,8.9,6,8.9,6.1,8.9z"/>
	<radialGradient id="SVGID_20_" cx="10.1782" cy="14.271" r="1.951" fx="9.9889" fy="14.3042" gradientUnits="userSpaceOnUse">
		<stop  offset="0" style="stop-color:#3BB0D6"/>
		<stop  offset="1.843440e-02" style="stop-color:#3AAFD5"/>
		<stop  offset="1" style="stop-color:#0B8FBA"/>
	</radialGradient>
	<path class="st29" d="M8,13.3c0.2,0.9,1,1.5,1.9,1.5c0.9,0,1.7-0.6,1.9-1.5H8z"/>
	<path class="st30" d="M13.8,12.7H6.1c-0.7,0-1.2-0.5-1.2-1.2V9.6c0-0.7,0.5-1.2,1.2-1.2h7.6C14.4,8.4,15,9,15,9.6v1.8
		C15,12.1,14.4,12.7,13.8,12.7z"/>
	<path class="st31" d="M13.6,12.4H5.9c-0.7,0-1.2-0.5-1.2-1.2V9.4c0-0.7,0.5-1.2,1.2-1.2h7.6c0.7,0,1.2,0.5,1.2,1.2v1.8
		C14.8,11.9,14.2,12.4,13.6,12.4z"/>
	<radialGradient id="SVGID_21_" cx="7.1112" cy="10.2513" r="1.0377" gradientUnits="userSpaceOnUse">
		<stop  offset="0" style="stop-color:#FFFFFF"/>
		<stop  offset="1" style="stop-color:#45AFE8"/>
	</radialGradient>
	<path class="st32" d="M7.1,9.2c-0.6,0-1,0.5-1,1s0.5,1,1,1s1-0.5,1-1S7.7,9.2,7.1,9.2z M7.1,11c-0.4,0-0.7-0.3-0.7-0.7
		c0-0.4,0.3-0.7,0.7-0.7c0.4,0,0.7,0.3,0.7,0.7C7.8,10.6,7.5,11,7.1,11z"/>
	<radialGradient id="SVGID_22_" cx="12.3506" cy="10.2669" r="1.0377" gradientUnits="userSpaceOnUse">
		<stop  offset="0" style="stop-color:#FFFFFF"/>
		<stop  offset="1" style="stop-color:#45AFE8"/>
	</radialGradient>
	<path class="st33" d="M12.4,9.2c-0.6,0-1,0.5-1,1c0,0.6,0.5,1,1,1c0.6,0,1-0.5,1-1C13.4,9.7,12.9,9.2,12.4,9.2z M12.4,11
		c-0.4,0-0.7-0.3-0.7-0.7c0-0.4,0.3-0.7,0.7-0.7c0.4,0,0.7,0.3,0.7,0.7C13.1,10.7,12.7,11,12.4,11z"/>
	<linearGradient id="SVGID_23_" gradientUnits="userSpaceOnUse" x1="10.6296" y1="7.0262" x2="7.6767" y2="13.9921">
		<stop  offset="0" style="stop-color:#FFFFFF"/>
		<stop  offset="0.866" style="stop-color:#FFFFFF;stop-opacity:0.134"/>
		<stop  offset="1" style="stop-color:#FFFFFF;stop-opacity:0"/>
	</linearGradient>
	<path class="st34" d="M10.9,7l-0.1,0.3v0l-0.5,1.5L10.2,9l-1.1,3.3L9,12.7c-0.1,0-0.3,0-0.4,0c-0.2,0-0.4-0.1-0.6-0.1l0.4-1.1
		l0.7-2.3l0.1-0.4l0.4-1.1l0.1-0.4l0-0.2c0.1,0,0.2,0,0.3,0c0,0,0.1,0,0.1,0c0,0,0,0,0,0C10.5,7,10.7,7,10.9,7z"/>
</g>
</svg>
