<?xml version="1.0" encoding="utf-8"?>
<!-- Generator: Adobe Illustrator 21.0.0, SVG Export Plug-In . SVG Version: 6.00 Build 0)  -->
<svg version="1.1" xmlns="http://www.w3.org/2000/svg" xmlns:xlink="http://www.w3.org/1999/xlink" x="0px" y="0px"
	 viewBox="0 0 1060.5 260.2" style="enable-background:new 0 0 1060.5 260.2;" xml:space="preserve">
<style type="text/css">
	.st0{display:none;}
	.st1{display:inline;}
	.st2{fill:url(#SVGID_1_);}
	.st3{opacity:5.000000e-02;fill:url(#SVGID_2_);enable-background:new    ;}
	.st4{opacity:0.1;fill:url(#SVGID_3_);enable-background:new    ;}
	.st5{opacity:0.1;fill:url(#SVGID_4_);enable-background:new    ;}
	.st6{fill:url(#SVGID_5_);}
	.st7{opacity:5.000000e-02;fill:url(#SVGID_6_);enable-background:new    ;}
	.st8{opacity:0.1;fill:url(#SVGID_7_);enable-background:new    ;}
	.st9{opacity:0.1;fill:url(#SVGID_8_);enable-background:new    ;}
	.st10{fill:none;}
	.st11{clip-path:url(#SVGID_10_);}
	.st12{fill:url(#Path_195_1_);}
	.st13{fill:url(#Path_196_1_);}
	.st14{fill:url(#Path_197_1_);}
	.st15{fill:url(#Path_198_1_);}
	.st16{display:inline;fill:#00AEDF;}
	.st17{display:inline;fill:url(#SVGID_11_);}
	.st18{display:inline;fill:url(#SVGID_12_);}
	.st19{display:inline;fill:url(#SVGID_13_);}
	.st20{fill:url(#SVGID_14_);}
	.st21{opacity:5.000000e-02;fill:url(#SVGID_15_);enable-background:new    ;}
	.st22{opacity:0.1;fill:url(#SVGID_16_);enable-background:new    ;}
	.st23{opacity:0.1;fill:url(#SVGID_17_);enable-background:new    ;}
	.st24{fill:url(#SVGID_18_);}
	.st25{opacity:5.000000e-02;fill:url(#SVGID_19_);enable-background:new    ;}
	.st26{opacity:0.1;fill:url(#SVGID_20_);enable-background:new    ;}
	.st27{opacity:0.1;fill:url(#SVGID_21_);enable-background:new    ;}
</style>
<g id="Layer_3_1_" class="st0">
	<g id="Layer_6" class="st1">
		<g>
			
				<linearGradient id="SVGID_1_" gradientUnits="userSpaceOnUse" x1="719.8581" y1="174.038" x2="561.1913" y2="-113.962" gradientTransform="matrix(1 0 0 -1 0 262)">
				<stop  offset="0" style="stop-color:#FFFFFF"/>
				<stop  offset="9.400000e-02" style="stop-color:#F7FCFB"/>
				<stop  offset="0.233" style="stop-color:#E3F4F0"/>
				<stop  offset="0.4" style="stop-color:#C2E6DF"/>
				<stop  offset="0.589" style="stop-color:#94D4C7"/>
				<stop  offset="0.794" style="stop-color:#5ABDA9"/>
				<stop  offset="1" style="stop-color:#19A387"/>
			</linearGradient>
			<path class="st2" d="M752.8,132.2c-0.8,2.5-0.1,4.4,1.4,6.1c4.2-7.8,7.7-14.6,7.8-16.6c0.3-4.7-18.1-4.5-25.6,8.4
				c-1.7,3-4.6,6.8-7,9.8c-2.4,4.8-5.5,9.3-8.6,13.7c-3.8,5.4-7.7,10.8-11.6,16.1c-3.8,5.2-8.6,9.5-13,14.1
				c-4.5,4.6-8.7,9.6-13.8,13.5c-0.5,0.4-1-0.4-0.6-0.8c0.8-0.7,1.5-1.4,2.3-2.1l0,0c4.1-4,7.9-8.2,11.9-12.3c0.5-0.5,0.9-1,1.4-1.4
				l0.7-0.7c1.2-1.2,2.4-2.3,3.5-3.5l0,0c0.3-0.3,0.5-0.5,0.8-0.8c0.5-0.5,0.9-1,1.4-1.4l0,0c0.5-0.6,1-1.1,1.6-1.7
				c1.2-1.4,2.3-2.8,3.4-4.3c5.5-7.7,11-15.3,16.2-23.1c0-0.6,0.1-2.1,0.1-4.2c0.2-6.2,0.5-17.3,0.5-22.7c0-1.9,0.1-4.7,0.2-7.7
				c-5.1-2.5-5.7-12.8-4.3-17.3c0.1-0.4,0.8-0.4,0.8,0.1c-0.1,5.2-0.6,12,3.5,15.8c0.3-9,0.5-19.8-0.8-21.1c-1.2-1.1-6.1-1-10.3,2.5
				c-2.3,2-4.4,5-5.4,9.5c-2.7,11.8-4.4,25-5.6,31.7c0.4,7.7-0.5,15.8-1.4,23.4c-0.4,3.1-0.6,6.7-2.2,9.5c-1.5,2.6-3.6,4.6-6,6.5
				c-0.7,0.5-1.6-0.4-1-1c2.5-2.1,5.5-4.3,6.5-7.6c1.2-3.8,1.5-7.9,1.9-11.9c0.5-5.1,0.9-10.1,1.1-15.2c-0.3-2.1-1.6-10.4-2.8-18.3
				l0,0c-0.1-0.8-0.2-1.5-0.3-2.2c-1.2-0.9-2.1-2.4-2.6-3.5c-1.3-2.3-3.1-5.7-2.4-8.4c0.1-0.6,1-0.4,1,0.1c0.1,2.3,1,4.6,2,6.6
				c0.4,0.8,1,2,1.8,3.1c-0.7-4.6-1.2-8.6-1.5-10.5c-0.7-6.3-1.3-6.1-3.4-5.9c-0.2,0-0.3,0-0.6,0.1c-1.1,0.3-3,1-4.9,2.5
				c0,0,0,0-0.1,0c-3.1,2.5-6.3,7-6.3,14.5c-0.1,3.8,0.1,6.6,0.1,6.6h-0.1c1.3,7.9,1.3,15.9,1.4,23.9c0.1,6.7,0.3,14.6-4.4,19.9
				c-0.6,0.7-1.7-0.3-1-1c4.9-5.5,4.3-14.4,4.1-21.3c-0.2-7.2-0.7-14.3-1.1-21.4c-1.4,0.2-3.8,1.2-6.1,4.6c-3.4,5.3-4.6,21-3.8,29.4
				c0.9,9.1-2.4,14-4,15.9c-0.5,0.5-0.8,0.8-0.9,0.9c3.9-2.2,8.1-3.7,12.6-3.8h0.1c0.5,0,1,0,1.4,0l0,0c0.3,0,0.5,0,0.8,0.1l0,0h0.1
				c3.3,0.3,7.2,1.9,8.9,4.8l0,0l0,0c0.7,1.3,1.1,2.7,0.7,4.5c-0.5,6.2-5.6,11.5-9.3,16.2c-1.4,1.7-2.9,3.5-4.3,5.2
				c-1.6,2-3.2,4-4.6,6.1c-2.1,3.2-3.8,6.7-5.9,9.9c-4.6,6.9-10.4,13.6-16.2,19.5c-2.8,2.9-4.9,5.9-6.8,9.5
				c-1.5,2.8-2.9,5.6-5.3,7.8c-0.4,0.4-0.9-0.2-0.6-0.6c2.4-2.9,4-6.2,5.8-9.5c1.7-3.1,3.6-5.5,6-8c2.9-3.1,5.7-6.4,8.3-9.7
				c2.6-3.1,5.5-6.2,7.6-9.6c3.9-6.2,7.3-12.4,12-18.1c2.3-2.8,4.4-5.7,6.6-8.5c0-0.1,0.1-0.1,0.1-0.2c0.1-0.1,0.2-0.2,0.2-0.3
				c1-1.3,2-2.6,2.8-4c0,0,0,0,0-0.1c1.1-1.8,1.8-3.7,2.1-5.8c0-0.3,0.2-0.5,0.4-0.6c-0.6-2.4-1.6-4.5-4.1-5.7
				c-2.7-1.3-5.9-1.7-8.8-1.5c-0.2,0-0.3,0-0.5,0l0,0c-3.5,4-7,8.1-9.3,13c-0.3,0.7-1.4,0.1-1-0.6c2.2-4.6,5.4-8.6,9-12.2
				c-4.4,0.7-8.3,2.9-12.1,5.3c-5.1,5.4-14.5,15.6-19.3,22.3c-2.3,3.1-5.1,5.9-8.1,8.6c-0.9,1-1.9,2-2.7,3c-2.6,3.2-5.5,6-8.4,8.9
				c-4.7,4.5-10,10.5-16.6,12c-0.4,0.1-0.6-0.4-0.5-0.6l0,0c0-0.1,0.1-0.1,0.2-0.2c6.8-2.7,12-8.2,17.2-13.1
				c1.3-1.2,6.8-7.4,10.7-11.8c1.9-2.1,3.4-3.8,4-4.5c-0.6,0.4-1.3,1-2.1,1.6c-5.7,4.6-16.8,13.9-19.8,16.3c-7.2,5.6-22.4,8-40.2,24
				c-7.6,6.8-13.6,13.1-17.6,19.8h102.3c9.1-7.5,18.6-15.9,20.7-19.5c3.8-6.6,9.7-17.5,12.2-20.3s26.9-23.8,30.3-27.2
				s10-18.4,13.8-27.2c2.1-4.9,8.8-16.7,14.3-27c-4.8-4.1-1.3-9.3,2.2-13.8c0.3-0.4,0.9,0.1,0.7,0.5
				C755.3,127.8,753.5,129.8,752.8,132.2z M667.4,182.7c1.3,3.2,4.7,7.8,8.5,7.9c0.5,0,0.6,0.7,0.1,0.8c-2.1,0.7-4.3-1.3-5.6-2.8
				c-1.5-1.7-2.9-3.6-3.6-5.9C666.7,182.5,667.2,182.3,667.4,182.7z"/>
			
				<linearGradient id="SVGID_2_" gradientUnits="userSpaceOnUse" x1="725.1606" y1="171.1168" x2="566.4938" y2="-116.8832" gradientTransform="matrix(1 0 0 -1 0 262)">
				<stop  offset="0" style="stop-color:#FFFFFF"/>
				<stop  offset="9.400000e-02" style="stop-color:#F7FCFB"/>
				<stop  offset="0.233" style="stop-color:#E3F4F0"/>
				<stop  offset="0.4" style="stop-color:#C2E6DF"/>
				<stop  offset="0.589" style="stop-color:#94D4C7"/>
				<stop  offset="0.794" style="stop-color:#5ABDA9"/>
				<stop  offset="1" style="stop-color:#19A387"/>
			</linearGradient>
			<path class="st3" d="M656.2,260.2h-59.7c9.2-8.7,19.9-19,25.2-26.1c9.4-12.5,23.1-5,14.4,11.3c-8.8,16.3-3.1,11.3,10,3.1
				c13.1-8.1,30.6-31.3,37.5-25C689.5,229,670.3,248.9,656.2,260.2z"/>
			
				<linearGradient id="SVGID_3_" gradientUnits="userSpaceOnUse" x1="721.5151" y1="173.1252" x2="562.8484" y2="-114.8748" gradientTransform="matrix(1 0 0 -1 0 262)">
				<stop  offset="0" style="stop-color:#FFFFFF"/>
				<stop  offset="9.400000e-02" style="stop-color:#F7FCFB"/>
				<stop  offset="0.233" style="stop-color:#E3F4F0"/>
				<stop  offset="0.4" style="stop-color:#C2E6DF"/>
				<stop  offset="0.589" style="stop-color:#94D4C7"/>
				<stop  offset="0.794" style="stop-color:#5ABDA9"/>
				<stop  offset="1" style="stop-color:#19A387"/>
			</linearGradient>
			<path class="st4" d="M725.4,140.4c-1.9,1.5-3.7,3.2-5.4,4.9c0.3-2.4,0.5-4.9,0.6-7.4c0.3-6.2,0.5-12.5,0.4-18.8
				c-0.1-3.6-0.3-7.1-0.7-10.7c-0.2-3.3-0.6-7-1.7-10.1c-0.5-1.9-1.2-3.8-2.2-5.5c-0.2-0.4-0.3-0.9-0.5-1.3c-0.6-1.5-3.3-2-3.6,0
				c0,0.2-0.1,0.4-0.1,0.6c-0.6,0.8-1.1,1.7-1.6,2.6c-1.1-0.5-2.7,0.2-2.8,1.7c-0.2,3.6-0.5,7.3-0.8,11c-1.1-0.6-2.8-0.1-2.9,1.5
				c-0.2,2.3-0.4,4.5-0.7,6.7c0-0.4,0-0.7,0-1.1c0.1-2.4-3.7-2.4-3.8,0c-0.3,7.7-0.3,15.5-1,23.1c-1.5,4.5-4,9.7-8,11.9
				c-0.1-11.1-1.1-22.1-2.4-33.1c1-8.2,3-16.2,6.7-23.9c1-2.2-2.2-4.1-3.2-1.9c-1.3,2.7-2.4,5.5-3.4,8.3c0.7-3.5,1.5-6.9,2.4-10.3
				c0.5-2-2.5-3.4-3.4-1.4c-1.8,3.9-3.2,7.9-4.3,12c-0.2,0.1-0.3,0.3-0.4,0.5c-1.7,3.7-2.7,7.5-3.4,11.5c-1.1-0.9-3.2-0.5-3.1,1.3
				c0.1,1.4,0.2,2.9,0.3,4.3c-0.3,1.1-0.6,2.2-0.7,3.3c-0.9-0.7-2.5-0.5-2.9,0.9c-1.5,5-2.7,9.9-3.5,15c-1.7,3.6-1.5,7.6-1.2,11.7
				c-0.3,0.3-0.6,0.7-0.6,1.3c-0.1,1.5-0.2,3.7-0.2,6c0,1.1-0.1,2.2-0.1,3.3c-0.5,2.6-1.2,5.1-2.3,7.6c-0.1,0.1-0.2,0.2-0.3,0.3
				c-0.6,0.5-0.7,1.2-0.5,1.8c-0.1,1.2,1,2.5,2.3,2c2.1-0.7,4.1-1.6,6-2.8c1.1,0.3,2.4,0.2,4-0.3c0.1,0,0.1-0.1,0.2-0.1
				c1.3,0.1,2.5,0.1,3.7,0.2c0.2,0,0.4,0,0.6-0.1c3.2,1.4,6.3,3.5,9.4,5c0.2,0.9,0.2,1.9,0.3,2.8c-0.1,1-0.2,2.1-0.2,3.1
				c-1.7,3-3.8,5.8-5.8,8.6c-1.3,1.7-2.5,3.3-3.6,5.1c-0.8,0.9-1.5,1.8-2,3c-0.1,0.2-0.1,0.3-0.1,0.5c-0.4,0.4-0.8,0.8-1.3,1.2
				c-1.2,1.1,0.6,2.9,1.8,1.8c0.6-0.6,1.3-1.1,1.9-1.7c0.1-0.1,0.2-0.1,0.3-0.2l0.2-0.2c5.5-4.5,11.7-8.4,15.3-14.7
				c0.2-0.3,0.2-0.6,0.1-0.9c0.2-0.2,0.4-0.3,0.6-0.5c0.5,0.2,1.1,0.1,1.5-0.5c0.9-1.3,1.8-2.6,2.8-3.8c0.4,0,0.8-0.2,1-0.6
				c0.6-1,1.2-1.9,1.8-2.9c0.6,0.5,1.5,0.5,1.9-0.3c1-2,2.2-3.7,3.6-5.3c0.2,0,0.4-0.2,0.6-0.3c0.9-1,1.6-2.1,2.5-3.1
				c0.3-0.3,0.4-0.7,0.3-1.1c0.7-1.1,1.3-2.3,1.9-3.4c4.5-5.2,8.3-10.9,11.8-16.7C728.2,140.7,726.5,139.6,725.4,140.4z"/>
			
				<linearGradient id="SVGID_4_" gradientUnits="userSpaceOnUse" x1="686.6375" y1="192.3402" x2="527.9708" y2="-95.6598" gradientTransform="matrix(1 0 0 -1 0 262)">
				<stop  offset="0" style="stop-color:#FFFFFF"/>
				<stop  offset="9.400000e-02" style="stop-color:#F7FCFB"/>
				<stop  offset="0.233" style="stop-color:#E3F4F0"/>
				<stop  offset="0.4" style="stop-color:#C2E6DF"/>
				<stop  offset="0.589" style="stop-color:#94D4C7"/>
				<stop  offset="0.794" style="stop-color:#5ABDA9"/>
				<stop  offset="1" style="stop-color:#19A387"/>
			</linearGradient>
			<path class="st5" d="M641.8,195.3c-1.4,1.5-2.7,3.1-3.9,4.8c-0.7,0.9-1.3,1.9-1.9,2.8c-1.2,1.8-2.4,3.7-3.7,5.5
				c-2.8,3.7-6.3,6.9-10.1,9.6c0,0.2-0.1,0.3-0.3,0.5c-4.1,4.1-8.4,8.2-14,9.5l0,0c-0.7,0.2-1.5,0.3-2.3,0.4c-0.1,0-0.2,0-0.2,0
				c-9.9,5.8-19.7,11.7-28,19.6c-0.4,0.4-0.8,0.4-1.2,0.3c-3.8,3.6-7.4,7.6-10.6,11.8h-8.4c7.7-11.5,18.1-21.2,29.5-29.2
				c9.1-6.3,19.2-10.6,28.5-16.5c4.7-3,9.3-6.5,12.4-11.2c3-4.4,5.7-9,9.4-12.9C640,187.3,644.8,192.1,641.8,195.3z"/>
		</g>
		<g>
			
				<linearGradient id="SVGID_5_" gradientUnits="userSpaceOnUse" x1="391.4977" y1="155.4019" x2="465.4977" y2="-67.2647" gradientTransform="matrix(1 0 0 -1 0 262)">
				<stop  offset="0" style="stop-color:#FFFFFF"/>
				<stop  offset="9.400000e-02" style="stop-color:#F7FCFB"/>
				<stop  offset="0.233" style="stop-color:#E3F4F0"/>
				<stop  offset="0.4" style="stop-color:#C2E6DF"/>
				<stop  offset="0.589" style="stop-color:#94D4C7"/>
				<stop  offset="0.794" style="stop-color:#5ABDA9"/>
				<stop  offset="1" style="stop-color:#19A387"/>
			</linearGradient>
			<path class="st6" d="M502.8,240.4c-17.8-15.9-33-18.3-40.2-24c-3-2.3-14-11.6-19.8-16.3l0,0c-0.8-0.7-1.5-1.2-2.1-1.6
				c0.6,0.6,2.1,2.4,4,4.5c4,4.4,9.4,10.6,10.7,11.8c5.2,5,10.4,10.4,17.2,13.1c0.1,0,0.2,0.1,0.2,0.2c0.2,0.3,0,0.8-0.4,0.7
				c-6.6-1.5-11.9-7.5-16.6-12c-2.9-2.8-5.8-5.7-8.4-8.9c-0.8-1-1.8-2-2.7-3c-3-2.6-5.8-5.5-8.1-8.6c-4.8-6.6-14.2-16.8-19.3-22.3
				c-3.8-2.4-7.7-4.6-12.1-5.3c3.6,3.6,6.8,7.6,9,12.2c0.3,0.7-0.7,1.3-1,0.6c-2.3-4.9-5.8-9-9.3-13l0,0c-0.1,0-0.3,0-0.4,0
				c-3-0.2-6.1,0.3-8.8,1.5c-2.5,1.2-3.5,3.2-4.1,5.7c0.2,0.1,0.4,0.3,0.4,0.6c0.2,2.2,1,4.1,2.1,5.9c0,0.1,0.1,0.2,0.2,0.3
				c0.8,1.3,1.7,2.5,2.7,3.8c0.1,0.1,0.2,0.2,0.2,0.3s0.1,0.1,0.1,0.2c2.2,2.8,4.3,5.8,6.6,8.5c4.7,5.7,8.1,11.9,12,18.1
				c2.2,3.4,5.1,6.5,7.6,9.6c2.7,3.3,5.4,6.6,8.3,9.7c2.4,2.6,4.4,4.9,6,8c1.8,3.3,3.4,6.6,5.8,9.5c0.3,0.4-0.2,1-0.6,0.6
				c-2.4-2.2-3.8-5-5.3-7.8c-1.9-3.6-3.9-6.6-6.7-9.5c-5.7-6-11.6-12.6-16.2-19.5c-2.1-3.2-3.8-6.7-5.9-9.9c-1.4-2.1-3-4.1-4.6-6.1
				c-1.4-1.7-2.9-3.5-4.3-5.2c-3.7-4.7-8.9-10-9.3-16.2c-0.3-1.7,0-3.2,0.7-4.5l0,0l0,0c1.7-2.8,5.6-4.4,8.9-4.8h0.1
				c0.3,0,0.6,0,0.8-0.1l0,0c0.5,0,1,0,1.5,0l0,0c4.5,0.1,8.7,1.6,12.6,3.8c-0.1-0.1-0.4-0.4-0.9-0.9c-1.7-1.9-4.9-6.8-4-15.9
				c0.8-8.4-0.3-24.1-3.8-29.4c-2.3-3.5-4.7-4.4-6.1-4.6c-0.5,7.1-1,14.2-1.1,21.4c-0.2,6.8-0.8,15.8,4.1,21.3c0.6,0.7-0.4,1.7-1,1
				c-4.7-5.3-4.5-13.2-4.4-19.9c0.1-8,0.1-16,1.4-23.9c-0.1,0-0.1,0-0.1,0s0.2-2.7,0.1-6.6c0-7.5-3.2-12-6.3-14.5c0,0,0,0-0.1,0
				c-1.9-1.5-3.8-2.3-4.9-2.5c-0.2-0.1-0.4-0.1-0.6-0.1c-2.2-0.2-2.7-0.3-3.4,5.9c-0.2,2-0.8,5.9-1.5,10.5c0.8-1,1.3-2.2,1.8-3.1
				c1-2,1.9-4.3,2-6.6c0-0.6,0.9-0.7,1-0.1c0.6,2.7-1.2,6.1-2.4,8.4c-0.6,1.1-1.5,2.6-2.6,3.5c-0.1,0.7-0.2,1.5-0.3,2.2l0,0
				c-1.2,7.9-2.5,16.3-2.8,18.3c0.3,5.1,0.6,10.1,1.1,15.2c0.4,4,0.7,8.1,1.9,11.9c1,3.3,3.9,5.5,6.5,7.6c0.7,0.6-0.3,1.5-1,1
				c-2.3-1.9-4.5-3.9-6-6.5c-1.6-2.8-1.8-6.4-2.2-9.5c-0.9-7.5-1.8-15.7-1.4-23.4c-1.2-6.7-2.9-19.9-5.6-31.7
				c-1-4.5-3.1-7.5-5.4-9.5C362,87,357,86.9,355.8,88c-1.3,1.3-1,12.1-0.8,21.1c4.1-3.8,3.6-10.6,3.5-15.8c0-0.5,0.7-0.5,0.8-0.1
				c1.3,4.4,0.8,14.8-4.3,17.3c0.1,3,0.2,5.8,0.2,7.7c0,5.5,0.3,16.5,0.5,22.7c0.1,2.1,0.1,3.6,0.1,4.2c5.2,7.8,10.8,15.4,16.2,23.1
				c1,1.5,2.2,2.9,3.4,4.3c0.5,0.6,1,1.2,1.5,1.7l0,0c0.5,0.5,0.9,1,1.4,1.5c0.2,0.3,0.5,0.5,0.8,0.8l0,0c1.2,1.2,2.4,2.4,3.6,3.6
				c0.2,0.2,0.4,0.4,0.7,0.7c0.5,0.5,0.9,1,1.4,1.4c4,4.1,7.8,8.2,11.8,12.2l0,0c0.8,0.7,1.5,1.5,2.3,2.2c0.4,0.4-0.2,1.2-0.6,0.8
				c-5.1-3.9-9.3-9-13.8-13.5c-4.5-4.6-9.2-8.9-13-14.1c-3.9-5.3-7.8-10.7-11.6-16.1c-3.1-4.4-6.2-8.9-8.6-13.7
				c-2.5-3.1-5.3-6.9-7-9.8c-7.5-13-26-13.1-25.6-8.4c0.1,2,3.6,8.8,7.8,16.6c1.5-1.7,2.3-3.6,1.4-6.1c-0.8-2.3-2.5-4.3-3.8-6.4
				c-0.3-0.4,0.4-0.9,0.7-0.5c3.4,4.4,7,9.6,2.2,13.8c5.5,10.3,12.2,22.1,14.3,27c3.8,8.8,10.3,23.8,13.8,27.2
				c3.4,3.4,27.8,24.4,30.3,27.2s8.4,13.8,12.2,20.3c2.1,3.6,11.6,12,20.7,19.5h102.3C516.4,253.5,510.5,247.2,502.8,240.4z
				 M413.9,182.8c-0.7,2.2-2.1,4.1-3.6,5.9c-1.3,1.5-3.4,3.4-5.6,2.8c-0.5-0.1-0.4-0.8,0.1-0.8c3.8-0.2,7.1-4.7,8.5-7.9
				C413.5,182.3,414,182.5,413.9,182.8z"/>
			
				<linearGradient id="SVGID_6_" gradientUnits="userSpaceOnUse" x1="394.1881" y1="156.296" x2="468.1881" y2="-66.3706" gradientTransform="matrix(1 0 0 -1 0 262)">
				<stop  offset="0" style="stop-color:#FFFFFF"/>
				<stop  offset="9.400000e-02" style="stop-color:#F7FCFB"/>
				<stop  offset="0.233" style="stop-color:#E3F4F0"/>
				<stop  offset="0.4" style="stop-color:#C2E6DF"/>
				<stop  offset="0.589" style="stop-color:#94D4C7"/>
				<stop  offset="0.794" style="stop-color:#5ABDA9"/>
				<stop  offset="1" style="stop-color:#19A387"/>
			</linearGradient>
			<path class="st7" d="M484.2,260.2h-59.7c-14.1-11.3-33.4-31.2-27.4-36.7c6.9-6.3,24.4,16.9,37.5,25c13.1,8.1,18.8,13.1,10-3.1
				s5-23.8,14.4-11.3C464.4,241.2,475.1,251.5,484.2,260.2z"/>
			
				<linearGradient id="SVGID_7_" gradientUnits="userSpaceOnUse" x1="374.1187" y1="149.6263" x2="448.1187" y2="-73.0404" gradientTransform="matrix(1 0 0 -1 0 262)">
				<stop  offset="0" style="stop-color:#FFFFFF"/>
				<stop  offset="9.400000e-02" style="stop-color:#F7FCFB"/>
				<stop  offset="0.233" style="stop-color:#E3F4F0"/>
				<stop  offset="0.4" style="stop-color:#C2E6DF"/>
				<stop  offset="0.589" style="stop-color:#94D4C7"/>
				<stop  offset="0.794" style="stop-color:#5ABDA9"/>
				<stop  offset="1" style="stop-color:#19A387"/>
			</linearGradient>
			<path class="st8" d="M355.2,140.4c1.9,1.5,3.7,3.2,5.4,4.9c-0.3-2.4-0.5-4.9-0.6-7.4c-0.3-6.2-0.5-12.5-0.4-18.8
				c0.1-3.6,0.3-7.1,0.7-10.7c0.2-3.3,0.6-7,1.7-10.1c0.5-1.9,1.2-3.8,2.2-5.5c0.2-0.4,0.3-0.9,0.5-1.3c0.6-1.5,3.3-2,3.6,0
				c0,0.2,0.1,0.4,0.1,0.6c0.6,0.8,1.1,1.7,1.6,2.6c1.1-0.5,2.7,0.2,2.8,1.7c0.2,3.6,0.5,7.3,0.8,11c1.1-0.6,2.8-0.1,2.9,1.5
				c0.2,2.3,0.4,4.5,0.7,6.7c0-0.4,0-0.7,0-1.1c-0.1-2.4,3.7-2.4,3.8,0c0.3,7.7,0.3,15.5,1,23.1c1.5,4.5,4,9.7,8,11.9
				c0.1-11.1,1.1-22.1,2.4-33.1c-1-8.2-3-16.2-6.7-23.9c-1-2.2,2.2-4.1,3.2-1.9c1.3,2.7,2.4,5.5,3.4,8.3c-0.7-3.5-1.5-6.9-2.4-10.3
				c-0.5-2,2.5-3.4,3.4-1.4c1.8,3.9,3.2,7.9,4.3,12c0.2,0.1,0.3,0.3,0.4,0.5c1.7,3.7,2.7,7.5,3.4,11.5c1.1-0.9,3.2-0.5,3.1,1.3
				c-0.1,1.4-0.2,2.9-0.3,4.3c0.3,1.1,0.6,2.2,0.7,3.3c0.9-0.7,2.5-0.5,2.9,0.9c1.5,5,2.7,9.9,3.5,15c1.7,3.6,1.5,7.6,1.2,11.7
				c0.3,0.3,0.6,0.7,0.6,1.3c0.1,1.5,0.2,3.7,0.2,6c0,1.1,0.1,2.2,0.1,3.3c0.5,2.6,1.2,5.1,2.3,7.6c0.1,0.1,0.2,0.2,0.3,0.3
				c0.6,0.5,0.7,1.2,0.5,1.8c0.1,1.2-1,2.5-2.3,2c-2.1-0.7-4.1-1.6-6-2.8c-1.1,0.3-2.4,0.2-4-0.3c-0.1,0-0.1-0.1-0.2-0.1
				c-1.3,0.1-2.5,0.1-3.7,0.2c-0.2,0-0.4,0-0.6-0.1c-3.2,1.4-6.3,3.5-9.4,5c-0.2,0.9-0.2,1.9-0.3,2.8c0.1,1,0.2,2.1,0.2,3.1
				c1.7,3,3.8,5.8,5.8,8.6c1.3,1.7,2.5,3.3,3.6,5.1c0.8,0.9,1.5,1.8,2,3c0.1,0.2,0.1,0.3,0.1,0.5c0.4,0.4,0.8,0.8,1.3,1.2
				c1.2,1.1-0.6,2.9-1.8,1.8c-0.6-0.6-1.3-1.1-1.9-1.7c-0.1-0.1-0.2-0.1-0.3-0.2l-0.2-0.2c-5.5-4.5-11.7-8.4-15.3-14.7
				c-0.2-0.3-0.2-0.6-0.1-0.9c-0.2-0.2-0.4-0.3-0.6-0.5c-0.5,0.2-1.1,0.1-1.5-0.5c-0.9-1.3-1.8-2.6-2.8-3.8c-0.4,0-0.8-0.2-1-0.6
				c-0.6-1-1.2-1.9-1.8-2.9c-0.6,0.5-1.5,0.5-1.9-0.3c-1-2-2.2-3.7-3.6-5.3c-0.2,0-0.4-0.2-0.6-0.3c-0.9-1-1.6-2.1-2.5-3.1
				c-0.3-0.3-0.4-0.7-0.3-1.1c-0.7-1.1-1.3-2.3-1.9-3.4c-4.5-5.2-8.3-10.9-11.8-16.7C352.5,140.7,354.2,139.6,355.2,140.4z"/>
			
				<linearGradient id="SVGID_8_" gradientUnits="userSpaceOnUse" x1="435.9029" y1="170.1593" x2="509.9029" y2="-52.5073" gradientTransform="matrix(1 0 0 -1 0 262)">
				<stop  offset="0" style="stop-color:#FFFFFF"/>
				<stop  offset="9.400000e-02" style="stop-color:#F7FCFB"/>
				<stop  offset="0.233" style="stop-color:#E3F4F0"/>
				<stop  offset="0.4" style="stop-color:#C2E6DF"/>
				<stop  offset="0.589" style="stop-color:#94D4C7"/>
				<stop  offset="0.794" style="stop-color:#5ABDA9"/>
				<stop  offset="1" style="stop-color:#19A387"/>
			</linearGradient>
			<path class="st9" d="M520.5,260.2h3.1c-7.7-11.5-18.1-21.2-29.5-29.2c-9.1-6.3-19.2-10.6-28.5-16.5c-4.7-3-9.3-6.6-12.4-11.2
				c-3-4.4-5.7-9-9.4-12.9c-3.1-3.2-7.9,1.7-4.9,4.9c1.5,1.5,2.7,3.1,3.9,4.8l0,0c0.6,0.9,1.3,1.9,1.9,2.8c1.2,1.8,2.4,3.7,3.7,5.4
				c2.8,3.7,6.3,6.9,10.1,9.6c0.1,0.2,0.1,0.3,0.3,0.5c4.1,4.1,8.4,8.2,14,9.6c0.7,0.2,1.5,0.3,2.3,0.4c0.1,0,0.2,0,0.2,0
				c9.9,5.8,19.7,11.7,28,19.6c0.4,0.4,0.9,0.4,1.2,0.3c3.8,3.7,7.4,7.6,10.6,11.8L520.5,260.2L520.5,260.2z"/>
		</g>
	</g>
</g>
<g id="Layer_1">
	<g id="Layer_4">
		<line class="st10" x1="520.5" y1="260.2" x2="515.2" y2="260.2"/>
	</g>
	<g id="Layer_1_1_" class="st0">
		<g class="st1">
			<g>
				<defs>
					<rect id="SVGID_9_" x="-186.1" y="-483.8" width="1060.5" height="260.2"/>
				</defs>
				<clipPath id="SVGID_10_">
					<use xlink:href="#SVGID_9_"  style="overflow:visible;"/>
				</clipPath>
				<g id="Group_165" transform="translate(-186.127 -483.781)" class="st11">
					<g id="Group_164">
						
							<linearGradient id="Path_195_1_" gradientUnits="userSpaceOnUse" x1="953.0996" y1="-2.623151e-02" x2="953.0996" y2="1.0617" gradientTransform="matrix(351.731 0 0 366.905 -334329.75 433.9235)">
							<stop  offset="0" style="stop-color:#FFFFFF"/>
							<stop  offset="9.400000e-02" style="stop-color:#F7FCFB"/>
							<stop  offset="0.233" style="stop-color:#E3F4F0"/>
							<stop  offset="0.4" style="stop-color:#C2E6DF"/>
							<stop  offset="0.589" style="stop-color:#94D4C7"/>
							<stop  offset="0.794" style="stop-color:#5ABDA9"/>
							<stop  offset="1" style="stop-color:#19A387"/>
						</linearGradient>
						<path id="Path_195" class="st12" d="M882.6,660.8l99.7,136.7l0.2,77.3h98.3l-0.2-109.4L943.2,577.1L729,507.9v103.3
							L882.6,660.8z"/>
						
							<linearGradient id="Path_196_1_" gradientUnits="userSpaceOnUse" x1="953.1005" y1="-2.554047e-02" x2="953.1005" y2="1.0614" gradientTransform="matrix(351.994 0 0 367.278 -334946.5938 433.5271)">
							<stop  offset="0" style="stop-color:#FFFFFF"/>
							<stop  offset="9.400000e-02" style="stop-color:#F7FCFB"/>
							<stop  offset="0.233" style="stop-color:#E3F4F0"/>
							<stop  offset="0.4" style="stop-color:#C2E6DF"/>
							<stop  offset="0.589" style="stop-color:#94D4C7"/>
							<stop  offset="0.794" style="stop-color:#5ABDA9"/>
							<stop  offset="1" style="stop-color:#19A387"/>
						</linearGradient>
						<path id="Path_196" class="st13" d="M500,577.8L363.1,766.6l0.2,108.3h98.3l-0.2-76.5l99.4-137L715,611V507.5L500,577.8z"/>
						
							<linearGradient id="Path_197_1_" gradientUnits="userSpaceOnUse" x1="953.0992" y1="-1.0684" x2="953.0992" y2="1.965841e-02" gradientTransform="matrix(351.74 0 0 366.936 -334703.9688 816.1214)">
							<stop  offset="0" style="stop-color:#FFFFFF"/>
							<stop  offset="9.400000e-02" style="stop-color:#F7FCFB"/>
							<stop  offset="0.233" style="stop-color:#E3F4F0"/>
							<stop  offset="0.4" style="stop-color:#C2E6DF"/>
							<stop  offset="0.589" style="stop-color:#94D4C7"/>
							<stop  offset="0.794" style="stop-color:#5ABDA9"/>
							<stop  offset="1" style="stop-color:#19A387"/>
						</linearGradient>
						<path id="Path_197" class="st14" d="M561.4,1104.2l-99.7-136.7l-0.1-77.4h-98.3l0.2,109.4l137.3,188.3L715,1257v-103.3
							L561.4,1104.2z"/>
						
							<linearGradient id="Path_198_1_" gradientUnits="userSpaceOnUse" x1="953.1006" y1="-1.0666" x2="953.1006" y2="1.942325e-02" gradientTransform="matrix(351.9891 0 0 367.348 -334576.0313 816.188)">
							<stop  offset="0" style="stop-color:#FFFFFF"/>
							<stop  offset="9.400000e-02" style="stop-color:#F7FCFB"/>
							<stop  offset="0.233" style="stop-color:#E3F4F0"/>
							<stop  offset="0.4" style="stop-color:#C2E6DF"/>
							<stop  offset="0.589" style="stop-color:#94D4C7"/>
							<stop  offset="0.794" style="stop-color:#5ABDA9"/>
							<stop  offset="1" style="stop-color:#19A387"/>
						</linearGradient>
						<path id="Path_198" class="st15" d="M944.2,1187.2L1081,998.5l-0.2-108.3h-98.3l0.2,76.6l-99.3,136.9L729,1154.1v103.4
							L944.2,1187.2z"/>
					</g>
				</g>
			</g>
		</g>
	</g>
	<g id="Layer_2" class="st0">
		<path class="st16" d="M608,162.4c-14.2-20.7-33-38-55-50.3c-3.7-2.1-7.5-4-11.4-5.8c-1.3-0.6-2.6-1.1-3.9-1.7
			c-1.7-0.7-3.4-1.5-5.2-2.1c-3.5-1.3-7-2.6-10.6-3.7c-2.2-0.7-4.4-1.3-6.7-1.9l0,0c-6.8-1.8-13.7-3.1-20.8-4l-181.9-1.3h-0.9l0,0
			l0.7,168.7h67.4c0-0.5-0.1-0.9-0.1-1.4c-0.1-1.7-0.1-3.4-0.1-5c0-2.1,0.1-4.2,0.2-6.3h-0.2V156h97.9c7.9,0,15.6,0.9,23,2.7
			c8.2,2,15.9,5,23.2,8.8c1.7,0.9,3.3,1.8,4.9,2.8c3.9,2.4,7.6,5.1,11.1,8l0,0c1.2,1,2.4,2,3.5,3.1c2.9,2.6,5.6,5.5,8.2,8.4
			c0.8,0.9,1.5,1.8,2.3,2.7c0.7,0.9,1.5,1.8,2.2,2.8l0.1,0.1c0.5,0.6,0.9,1.2,1.4,1.9c0.3,0.5,0.7,0.9,1,1.4c1,1.4,1.9,2.9,2.8,4.4
			l0,0c0.6,0.9,1.1,1.9,1.6,2.8c0.5,0.9,1,1.9,1.5,2.8c0.5,1,1,2,1.5,2.9c0.8,1.6,1.5,3.2,2.2,4.9c1.5,3.6,2.8,7.3,3.8,11.1
			c0.4,1.6,0.8,3.1,1.2,4.7c0.2,1.1,0.5,2.1,0.7,3.2c1.1,5.9,1.7,12,1.7,18.3c0,2.2-0.1,4.3-0.2,6.4h60.8v-19.4
			C633.3,211.8,623.5,185,608,162.4z"/>
		
			<linearGradient id="SVGID_11_" gradientUnits="userSpaceOnUse" x1="534.5277" y1="180.206" x2="767.3691" y2="-45.7567" gradientTransform="matrix(1 0 0 -1 0 262)">
			<stop  offset="0" style="stop-color:#FFFFFF"/>
			<stop  offset="9.400000e-02" style="stop-color:#F7FCFB"/>
			<stop  offset="0.233" style="stop-color:#E3F4F0"/>
			<stop  offset="0.4" style="stop-color:#C2E6DF"/>
			<stop  offset="0.589" style="stop-color:#94D4C7"/>
			<stop  offset="0.794" style="stop-color:#5ABDA9"/>
			<stop  offset="1" style="stop-color:#19A387"/>
		</linearGradient>
		<path class="st17" d="M619.2,92.4c-23.9,1.8-46.3,8.7-66.2,19.7l0,0c-15,8.3-28.6,19-40.3,31.4c-4.4,4.8-8.6,9.8-12.4,15.1l0,0
			c-19.5,26.8-31.1,59.8-31.1,95.5c0,2.1,0,4.1,0.1,6.1h64.3c0-0.9,0-1.9,0-2.8c0-23.6,8.3-45.2,22.2-62.1
			c13.2-16.1,31.4-27.8,52.2-33l0,0c7.5-1.8,15.4-2.8,23.5-2.8c2.1,0,4.2,0.1,6.3,0.2v-0.2h91.6v97.9c0,0.9,0,1.9,0,2.8h63.2
			l1.2-168.5L619.2,92.4z"/>
		
			<linearGradient id="SVGID_12_" gradientUnits="userSpaceOnUse" x1="177.0452" y1="246.0719" x2="723.6331" y2="-117.5595" gradientTransform="matrix(1 0 0 -1 0 262)">
			<stop  offset="0" style="stop-color:#FFFFFF"/>
			<stop  offset="9.400000e-02" style="stop-color:#F7FCFB"/>
			<stop  offset="0.233" style="stop-color:#E3F4F0"/>
			<stop  offset="0.4" style="stop-color:#C2E6DF"/>
			<stop  offset="0.589" style="stop-color:#94D4C7"/>
			<stop  offset="0.794" style="stop-color:#5ABDA9"/>
			<stop  offset="1" style="stop-color:#19A387"/>
		</linearGradient>
		<path class="st18" d="M608,162.4c-14.1-20.7-33-38-55-50.3c-3.7-2.1-7.5-4-11.5-5.8c-1.3-0.6-2.6-1.1-3.9-1.7
			c-1.7-0.7-3.4-1.5-5.2-2.1c-3.5-1.3-7-2.6-10.6-3.7c-2.2-0.7-4.4-1.3-6.7-1.9l0,0c-6.8-1.8-13.7-3.1-20.8-4l-182-1.3h-0.9
			l0.7,168.7h67.4c0-0.5-0.1-0.9-0.1-1.4c-0.1-1.7-0.1-3.3-0.1-5c0-2.1,0.1-4.2,0.2-6.3h-0.2V156h97.9c7.9,0,15.6,0.9,23,2.7
			c8.2,2,15.9,5,23.1,8.8c1.7,0.9,3.3,1.8,4.9,2.8c3.9,2.4,7.6,5.1,11.1,8l0,0c1.2,1,2.4,2,3.5,3.1c2.9,2.6,5.6,5.5,8.2,8.4
			c0.8,0.9,1.5,1.8,2.3,2.7c0.7,0.9,1.5,1.8,2.2,2.8l0.1,0.1c0.5,0.6,0.9,1.2,1.4,1.9c0.3,0.5,0.7,0.9,1,1.4c1,1.4,1.9,2.9,2.8,4.4
			l0,0c0.6,0.9,1.1,1.9,1.6,2.8c0.5,0.9,1,1.9,1.5,2.8c0.5,1,1,2,1.5,2.9c0.8,1.6,1.5,3.2,2.2,4.9c1.5,3.6,2.8,7.3,3.8,11.1
			c0.4,1.6,0.8,3.1,1.2,4.7c0.2,1.1,0.5,2.1,0.7,3.2c1.1,5.9,1.7,12,1.7,18.3c0,2.2-0.1,4.3-0.2,6.4h60.8v-19.4
			C633.4,211.8,623.5,185,608,162.4z"/>
	</g>
	<g id="Layer_5" class="st0">
		
			<linearGradient id="SVGID_13_" gradientUnits="userSpaceOnUse" x1="777.5505" y1="360.1709" x2="521.2587" y2="237.3048" gradientTransform="matrix(0.5497 -0.8353 -0.8353 -0.5497 440.56 888.6875)">
			<stop  offset="0" style="stop-color:#FFFFFF"/>
			<stop  offset="9.400000e-02" style="stop-color:#F7FCFB"/>
			<stop  offset="0.233" style="stop-color:#E3F4F0"/>
			<stop  offset="0.4" style="stop-color:#C2E6DF"/>
			<stop  offset="0.589" style="stop-color:#94D4C7"/>
			<stop  offset="0.794" style="stop-color:#5ABDA9"/>
			<stop  offset="1" style="stop-color:#19A387"/>
		</linearGradient>
		<path class="st19" d="M673.5,311.7L668.4,163c-6.8-59.4-60.9-108.4-123.5-111.6L523.8,52C456,59.2,404.1,117.6,406,186.9
			c1,34.8,15.3,66,37.9,89s53.5,37.6,87.7,39.2L673.5,311.7z M619.7,258l-74.5,2v-0.2c-1.7,0.2-3.4,0.3-5.1,0.3
			c-44,1.2-80.6-33.5-81.8-77.4c-1.2-44,33.5-80.6,77.4-81.8c44-1.2,80.6,33.5,81.8,77.4L619.7,258z"/>
	</g>
	<g id="Layer_3">
	</g>
	<g id="Layer_6_1_">
		<g>
			
				<linearGradient id="SVGID_14_" gradientUnits="userSpaceOnUse" x1="647.2589" y1="476.4908" x2="681.2589" y2="-519.5092" gradientTransform="matrix(1 0 0 -1 0 262)">
				<stop  offset="0" style="stop-color:#FFFFFF"/>
				<stop  offset="9.400000e-02" style="stop-color:#F7FCFB"/>
				<stop  offset="0.233" style="stop-color:#E3F4F0"/>
				<stop  offset="0.4" style="stop-color:#C2E6DF"/>
				<stop  offset="0.589" style="stop-color:#94D4C7"/>
				<stop  offset="0.794" style="stop-color:#5ABDA9"/>
				<stop  offset="1" style="stop-color:#19A387"/>
			</linearGradient>
			<path class="st20" d="M752.8,132.2c-0.8,2.5-0.1,4.4,1.4,6.1c4.2-7.8,7.7-14.6,7.8-16.6c0.3-4.7-18.1-4.5-25.6,8.4
				c-1.7,3-4.6,6.8-7,9.8c-2.4,4.8-5.5,9.3-8.6,13.7c-3.8,5.4-7.7,10.8-11.6,16.1c-3.8,5.2-8.6,9.5-13,14.1
				c-4.5,4.6-8.7,9.6-13.8,13.5c-0.5,0.4-1-0.4-0.6-0.8c0.8-0.7,1.5-1.4,2.3-2.1l0,0c4.1-4,7.9-8.2,11.9-12.3c0.5-0.5,0.9-1,1.4-1.4
				l0.7-0.7c1.2-1.2,2.4-2.3,3.5-3.5l0,0c0.3-0.3,0.5-0.5,0.8-0.8c0.5-0.5,0.9-1,1.4-1.4l0,0c0.5-0.6,1-1.1,1.6-1.7
				c1.2-1.4,2.3-2.8,3.4-4.3c5.5-7.7,11-15.3,16.2-23.1c0-0.6,0.1-2.1,0.1-4.2c0.2-6.2,0.5-17.3,0.5-22.7c0-1.9,0.1-4.7,0.2-7.7
				c-5.1-2.5-5.7-12.8-4.3-17.3c0.1-0.4,0.8-0.4,0.8,0.1c-0.1,5.2-0.6,12,3.5,15.8c0.3-9,0.5-19.8-0.8-21.1c-1.2-1.1-6.1-1-10.3,2.5
				c-2.3,2-4.4,5-5.4,9.5c-2.7,11.8-4.4,25-5.6,31.7c0.4,7.7-0.5,15.8-1.4,23.4c-0.4,3.1-0.6,6.7-2.2,9.5c-1.5,2.6-3.6,4.6-6,6.5
				c-0.7,0.5-1.6-0.4-1-1c2.5-2.1,5.5-4.3,6.5-7.6c1.2-3.8,1.5-7.9,1.9-11.9c0.5-5.1,0.9-10.1,1.1-15.2c-0.3-2.1-1.6-10.4-2.8-18.3
				l0,0c-0.1-0.8-0.2-1.5-0.3-2.2c-1.2-0.9-2.1-2.4-2.6-3.5c-1.3-2.3-3.1-5.7-2.4-8.4c0.1-0.6,1-0.4,1,0.1c0.1,2.3,1,4.6,2,6.6
				c0.4,0.8,1,2,1.8,3.1c-0.7-4.6-1.2-8.6-1.5-10.5c-0.7-6.3-1.3-6.1-3.4-5.9c-0.2,0-0.3,0-0.6,0.1c-1.1,0.3-3,1-4.9,2.5
				c0,0,0,0-0.1,0c-3.1,2.5-6.3,7-6.3,14.5c-0.1,3.8,0.1,6.6,0.1,6.6h-0.1c1.3,7.9,1.3,15.9,1.4,23.9c0.1,6.7,0.3,14.6-4.4,19.9
				c-0.6,0.7-1.7-0.3-1-1c4.9-5.5,4.3-14.4,4.1-21.3c-0.2-7.2-0.7-14.3-1.1-21.4c-1.4,0.2-3.8,1.2-6.1,4.6c-3.4,5.3-4.6,21-3.8,29.4
				c0.9,9.1-2.4,14-4,15.9c-0.5,0.5-0.8,0.8-0.9,0.9c3.9-2.2,8.1-3.7,12.6-3.8h0.1c0.5,0,1,0,1.4,0l0,0c0.3,0,0.5,0,0.8,0.1l0,0h0.1
				c3.3,0.3,7.2,1.9,8.9,4.8l0,0l0,0c0.7,1.3,1.1,2.7,0.7,4.5c-0.5,6.2-5.6,11.5-9.3,16.2c-1.4,1.7-2.9,3.5-4.3,5.2
				c-1.6,2-3.2,4-4.6,6.1c-2.1,3.2-3.8,6.7-5.9,9.9c-4.6,6.9-10.4,13.6-16.2,19.5c-2.8,2.9-4.9,5.9-6.8,9.5
				c-1.5,2.8-2.9,5.6-5.3,7.8c-0.4,0.4-0.9-0.2-0.6-0.6c2.4-2.9,4-6.2,5.8-9.5c1.7-3.1,3.6-5.5,6-8c2.9-3.1,5.7-6.4,8.3-9.7
				c2.6-3.1,5.5-6.2,7.6-9.6c3.9-6.2,7.3-12.4,12-18.1c2.3-2.8,4.4-5.7,6.6-8.5c0-0.1,0.1-0.1,0.1-0.2c0.1-0.1,0.2-0.2,0.2-0.3
				c1-1.3,2-2.6,2.8-4c0,0,0,0,0-0.1c1.1-1.8,1.8-3.7,2.1-5.8c0-0.3,0.2-0.5,0.4-0.6c-0.6-2.4-1.6-4.5-4.1-5.7
				c-2.7-1.3-5.9-1.7-8.8-1.5c-0.2,0-0.3,0-0.5,0l0,0c-3.5,4-7,8.1-9.3,13c-0.3,0.7-1.4,0.1-1-0.6c2.2-4.6,5.4-8.6,9-12.2
				c-4.4,0.7-8.3,2.9-12.1,5.3c-5.1,5.4-14.5,15.6-19.3,22.3c-2.3,3.1-5.1,5.9-8.1,8.6c-0.9,1-1.9,2-2.7,3c-2.6,3.2-5.5,6-8.4,8.9
				c-4.7,4.5-10,10.5-16.6,12c-0.4,0.1-0.6-0.4-0.5-0.6l0,0c0-0.1,0.1-0.1,0.2-0.2c6.8-2.7,12-8.2,17.2-13.1
				c1.3-1.2,6.8-7.4,10.7-11.8c1.9-2.1,3.4-3.8,4-4.5c-0.6,0.4-1.3,1-2.1,1.6c-5.7,4.6-16.8,13.9-19.8,16.3c-7.2,5.6-22.4,8-40.2,24
				c-7.6,6.8-13.6,13.1-17.6,19.8h102.3c9.1-7.5,18.6-15.9,20.7-19.5c3.8-6.6,9.7-17.5,12.2-20.3s26.9-23.8,30.3-27.2
				s10-18.4,13.8-27.2c2.1-4.9,8.8-16.7,14.3-27c-4.8-4.1-1.3-9.3,2.2-13.8c0.3-0.4,0.9,0.1,0.7,0.5
				C755.3,127.8,753.5,129.8,752.8,132.2z M667.4,182.7c1.3,3.2,4.7,7.8,8.5,7.9c0.5,0,0.6,0.7,0.1,0.8c-2.1,0.7-4.3-1.3-5.6-2.8
				c-1.5-1.7-2.9-3.6-3.6-5.9C666.7,182.5,667.2,182.3,667.4,182.7z"/>
			
				<linearGradient id="SVGID_15_" gradientUnits="userSpaceOnUse" x1="625.0002" y1="475.7309" x2="659.0002" y2="-520.269" gradientTransform="matrix(1 0 0 -1 0 262)">
				<stop  offset="0" style="stop-color:#FFFFFF"/>
				<stop  offset="9.400000e-02" style="stop-color:#F7FCFB"/>
				<stop  offset="0.233" style="stop-color:#E3F4F0"/>
				<stop  offset="0.4" style="stop-color:#C2E6DF"/>
				<stop  offset="0.589" style="stop-color:#94D4C7"/>
				<stop  offset="0.794" style="stop-color:#5ABDA9"/>
				<stop  offset="1" style="stop-color:#19A387"/>
			</linearGradient>
			<path class="st21" d="M656.2,260.2h-59.7c9.2-8.7,19.9-19,25.2-26.1c9.4-12.5,23.1-5,14.4,11.3c-8.8,16.3-3.1,11.3,10,3.1
				c13.1-8.1,30.6-31.3,37.5-25C689.5,229,670.3,248.9,656.2,260.2z"/>
			
				<linearGradient id="SVGID_16_" gradientUnits="userSpaceOnUse" x1="683.202" y1="477.7177" x2="717.202" y2="-518.2823" gradientTransform="matrix(1 0 0 -1 0 262)">
				<stop  offset="0" style="stop-color:#FFFFFF"/>
				<stop  offset="9.400000e-02" style="stop-color:#F7FCFB"/>
				<stop  offset="0.233" style="stop-color:#E3F4F0"/>
				<stop  offset="0.4" style="stop-color:#C2E6DF"/>
				<stop  offset="0.589" style="stop-color:#94D4C7"/>
				<stop  offset="0.794" style="stop-color:#5ABDA9"/>
				<stop  offset="1" style="stop-color:#19A387"/>
			</linearGradient>
			<path class="st22" d="M725.4,140.4c-1.9,1.5-3.7,3.2-5.4,4.9c0.3-2.4,0.5-4.9,0.6-7.4c0.3-6.2,0.5-12.5,0.4-18.8
				c-0.1-3.6-0.3-7.1-0.7-10.7c-0.2-3.3-0.6-7-1.7-10.1c-0.5-1.9-1.2-3.8-2.2-5.5c-0.2-0.4-0.3-0.9-0.5-1.3c-0.6-1.5-3.3-2-3.6,0
				c0,0.2-0.1,0.4-0.1,0.6c-0.6,0.8-1.1,1.7-1.6,2.6c-1.1-0.5-2.7,0.2-2.8,1.7c-0.2,3.6-0.5,7.3-0.8,11c-1.1-0.6-2.8-0.1-2.9,1.5
				c-0.2,2.3-0.4,4.5-0.7,6.7c0-0.4,0-0.7,0-1.1c0.1-2.4-3.7-2.4-3.8,0c-0.3,7.7-0.3,15.5-1,23.1c-1.5,4.5-4,9.7-8,11.9
				c-0.1-11.1-1.1-22.1-2.4-33.1c1-8.2,3-16.2,6.7-23.9c1-2.2-2.2-4.1-3.2-1.9c-1.3,2.7-2.4,5.5-3.4,8.3c0.7-3.5,1.5-6.9,2.4-10.3
				c0.5-2-2.5-3.4-3.4-1.4c-1.8,3.9-3.2,7.9-4.3,12c-0.2,0.1-0.3,0.3-0.4,0.5c-1.7,3.7-2.7,7.5-3.4,11.5c-1.1-0.9-3.2-0.5-3.1,1.3
				c0.1,1.4,0.2,2.9,0.3,4.3c-0.3,1.1-0.6,2.2-0.7,3.3c-0.9-0.7-2.5-0.5-2.9,0.9c-1.5,5-2.7,9.9-3.5,15c-1.7,3.6-1.5,7.6-1.2,11.7
				c-0.3,0.3-0.6,0.7-0.6,1.3c-0.1,1.5-0.2,3.7-0.2,6c0,1.1-0.1,2.2-0.1,3.3c-0.5,2.6-1.2,5.1-2.3,7.6c-0.1,0.1-0.2,0.2-0.3,0.3
				c-0.6,0.5-0.7,1.2-0.5,1.8c-0.1,1.2,1,2.5,2.3,2c2.1-0.7,4.1-1.6,6-2.8c1.1,0.3,2.4,0.2,4-0.3c0.1,0,0.1-0.1,0.2-0.1
				c1.3,0.1,2.5,0.1,3.7,0.2c0.2,0,0.4,0,0.6-0.1c3.2,1.4,6.3,3.5,9.4,5c0.2,0.9,0.2,1.9,0.3,2.8c-0.1,1-0.2,2.1-0.2,3.1
				c-1.7,3-3.8,5.8-5.8,8.6c-1.3,1.7-2.5,3.3-3.6,5.1c-0.8,0.9-1.5,1.8-2,3c-0.1,0.2-0.1,0.3-0.1,0.5c-0.4,0.4-0.8,0.8-1.3,1.2
				c-1.2,1.1,0.6,2.9,1.8,1.8c0.6-0.6,1.3-1.1,1.9-1.7c0.1-0.1,0.2-0.1,0.3-0.2l0.2-0.2c5.5-4.5,11.7-8.4,15.3-14.7
				c0.2-0.3,0.2-0.6,0.1-0.9c0.2-0.2,0.4-0.3,0.6-0.5c0.5,0.2,1.1,0.1,1.5-0.5c0.9-1.3,1.8-2.6,2.8-3.8c0.4,0,0.8-0.2,1-0.6
				c0.6-1,1.2-1.9,1.8-2.9c0.6,0.5,1.5,0.5,1.9-0.3c1-2,2.2-3.7,3.6-5.3c0.2,0,0.4-0.2,0.6-0.3c0.9-1,1.6-2.1,2.5-3.1
				c0.3-0.3,0.4-0.7,0.3-1.1c0.7-1.1,1.3-2.3,1.9-3.4c4.5-5.2,8.3-10.9,11.8-16.7C728.2,140.7,726.5,139.6,725.4,140.4z"/>
			
				<linearGradient id="SVGID_17_" gradientUnits="userSpaceOnUse" x1="584.9923" y1="474.3652" x2="618.9923" y2="-521.6348" gradientTransform="matrix(1 0 0 -1 0 262)">
				<stop  offset="0" style="stop-color:#FFFFFF"/>
				<stop  offset="9.400000e-02" style="stop-color:#F7FCFB"/>
				<stop  offset="0.233" style="stop-color:#E3F4F0"/>
				<stop  offset="0.4" style="stop-color:#C2E6DF"/>
				<stop  offset="0.589" style="stop-color:#94D4C7"/>
				<stop  offset="0.794" style="stop-color:#5ABDA9"/>
				<stop  offset="1" style="stop-color:#19A387"/>
			</linearGradient>
			<path class="st23" d="M641.8,195.3c-1.4,1.5-2.7,3.1-3.9,4.8c-0.7,0.9-1.3,1.9-1.9,2.8c-1.2,1.8-2.4,3.7-3.7,5.5
				c-2.8,3.7-6.3,6.9-10.1,9.6c0,0.2-0.1,0.3-0.3,0.5c-4.1,4.1-8.4,8.2-14,9.5l0,0c-0.7,0.2-1.5,0.3-2.3,0.4c-0.1,0-0.2,0-0.2,0
				c-9.9,5.8-19.7,11.7-28,19.6c-0.4,0.4-0.8,0.4-1.2,0.3c-3.8,3.6-7.4,7.6-10.6,11.8h-8.4c7.7-11.5,18.1-21.2,29.5-29.2
				c9.1-6.3,19.2-10.6,28.5-16.5c4.7-3,9.3-6.5,12.4-11.2c3-4.4,5.7-9,9.4-12.9C640,187.3,644.8,192.1,641.8,195.3z"/>
		</g>
		<g>
			
				<linearGradient id="SVGID_18_" gradientUnits="userSpaceOnUse" x1="406.0844" y1="468.2579" x2="440.0844" y2="-527.7421" gradientTransform="matrix(1 0 0 -1 0 262)">
				<stop  offset="0" style="stop-color:#FFFFFF"/>
				<stop  offset="9.400000e-02" style="stop-color:#F7FCFB"/>
				<stop  offset="0.233" style="stop-color:#E3F4F0"/>
				<stop  offset="0.4" style="stop-color:#C2E6DF"/>
				<stop  offset="0.589" style="stop-color:#94D4C7"/>
				<stop  offset="0.794" style="stop-color:#5ABDA9"/>
				<stop  offset="1" style="stop-color:#19A387"/>
			</linearGradient>
			<path class="st24" d="M502.8,240.4c-17.8-15.9-33-18.3-40.2-24c-3-2.3-14-11.6-19.8-16.3l0,0c-0.8-0.7-1.5-1.2-2.1-1.6
				c0.6,0.6,2.1,2.4,4,4.5c4,4.4,9.4,10.6,10.7,11.8c5.2,5,10.4,10.4,17.2,13.1c0.1,0,0.2,0.1,0.2,0.2c0.2,0.3,0,0.8-0.4,0.7
				c-6.6-1.5-11.9-7.5-16.6-12c-2.9-2.8-5.8-5.7-8.4-8.9c-0.8-1-1.8-2-2.7-3c-3-2.6-5.8-5.5-8.1-8.6c-4.8-6.6-14.2-16.8-19.3-22.3
				c-3.8-2.4-7.7-4.6-12.1-5.3c3.6,3.6,6.8,7.6,9,12.2c0.3,0.7-0.7,1.3-1,0.6c-2.3-4.9-5.8-9-9.3-13l0,0c-0.1,0-0.3,0-0.4,0
				c-3-0.2-6.1,0.3-8.8,1.5c-2.5,1.2-3.5,3.2-4.1,5.7c0.2,0.1,0.4,0.3,0.4,0.6c0.2,2.2,1,4.1,2.1,5.9c0,0.1,0.1,0.2,0.2,0.3
				c0.8,1.3,1.7,2.5,2.7,3.8c0.1,0.1,0.2,0.2,0.2,0.3s0.1,0.1,0.1,0.2c2.2,2.8,4.3,5.8,6.6,8.5c4.7,5.7,8.1,11.9,12,18.1
				c2.2,3.4,5.1,6.5,7.6,9.6c2.7,3.3,5.4,6.6,8.3,9.7c2.4,2.6,4.4,4.9,6,8c1.8,3.3,3.4,6.6,5.8,9.5c0.3,0.4-0.2,1-0.6,0.6
				c-2.4-2.2-3.8-5-5.3-7.8c-1.9-3.6-3.9-6.6-6.7-9.5c-5.7-6-11.6-12.6-16.2-19.5c-2.1-3.2-3.8-6.7-5.9-9.9c-1.4-2.1-3-4.1-4.6-6.1
				c-1.4-1.7-2.9-3.5-4.3-5.2c-3.7-4.7-8.9-10-9.3-16.2c-0.3-1.7,0-3.2,0.7-4.5l0,0l0,0c1.7-2.8,5.6-4.4,8.9-4.8h0.1
				c0.3,0,0.6,0,0.8-0.1l0,0c0.5,0,1,0,1.5,0l0,0c4.5,0.1,8.7,1.6,12.6,3.8c-0.1-0.1-0.4-0.4-0.9-0.9c-1.7-1.9-4.9-6.8-4-15.9
				c0.8-8.4-0.3-24.1-3.8-29.4c-2.3-3.5-4.7-4.4-6.1-4.6c-0.5,7.1-1,14.2-1.1,21.4c-0.2,6.8-0.8,15.8,4.1,21.3c0.6,0.7-0.4,1.7-1,1
				c-4.7-5.3-4.5-13.2-4.4-19.9c0.1-8,0.1-16,1.4-23.9c-0.1,0-0.1,0-0.1,0s0.2-2.7,0.1-6.6c0-7.5-3.2-12-6.3-14.5c0,0,0,0-0.1,0
				c-1.9-1.5-3.8-2.3-4.9-2.5c-0.2-0.1-0.4-0.1-0.6-0.1c-2.2-0.2-2.7-0.3-3.4,5.9c-0.2,2-0.8,5.9-1.5,10.5c0.8-1,1.3-2.2,1.8-3.1
				c1-2,1.9-4.3,2-6.6c0-0.6,0.9-0.7,1-0.1c0.6,2.7-1.2,6.1-2.4,8.4c-0.6,1.1-1.5,2.6-2.6,3.5c-0.1,0.7-0.2,1.5-0.3,2.2l0,0
				c-1.2,7.9-2.5,16.3-2.8,18.3c0.3,5.1,0.6,10.1,1.1,15.2c0.4,4,0.7,8.1,1.9,11.9c1,3.3,3.9,5.5,6.5,7.6c0.7,0.6-0.3,1.5-1,1
				c-2.3-1.9-4.5-3.9-6-6.5c-1.6-2.8-1.8-6.4-2.2-9.5c-0.9-7.5-1.8-15.7-1.4-23.4c-1.2-6.7-2.9-19.9-5.6-31.7
				c-1-4.5-3.1-7.5-5.4-9.5C362,87,357,86.9,355.8,88c-1.3,1.3-1,12.1-0.8,21.1c4.1-3.8,3.6-10.6,3.5-15.8c0-0.5,0.7-0.5,0.8-0.1
				c1.3,4.4,0.8,14.8-4.3,17.3c0.1,3,0.2,5.8,0.2,7.7c0,5.5,0.3,16.5,0.5,22.7c0.1,2.1,0.1,3.6,0.1,4.2c5.2,7.8,10.8,15.4,16.2,23.1
				c1,1.5,2.2,2.9,3.4,4.3c0.5,0.6,1,1.2,1.5,1.7l0,0c0.5,0.5,0.9,1,1.4,1.5c0.2,0.3,0.5,0.5,0.8,0.8l0,0c1.2,1.2,2.4,2.4,3.6,3.6
				c0.2,0.2,0.4,0.4,0.7,0.7c0.5,0.5,0.9,1,1.4,1.4c4,4.1,7.8,8.2,11.8,12.2l0,0c0.8,0.7,1.5,1.5,2.3,2.2c0.4,0.4-0.2,1.2-0.6,0.8
				c-5.1-3.9-9.3-9-13.8-13.5c-4.5-4.6-9.2-8.9-13-14.1c-3.9-5.3-7.8-10.7-11.6-16.1c-3.1-4.4-6.2-8.9-8.6-13.7
				c-2.5-3.1-5.3-6.9-7-9.8c-7.5-13-26-13.1-25.6-8.4c0.1,2,3.6,8.8,7.8,16.6c1.5-1.7,2.3-3.6,1.4-6.1c-0.8-2.3-2.5-4.3-3.8-6.4
				c-0.3-0.4,0.4-0.9,0.7-0.5c3.4,4.4,7,9.6,2.2,13.8c5.5,10.3,12.2,22.1,14.3,27c3.8,8.8,10.3,23.8,13.8,27.2
				c3.4,3.4,27.8,24.4,30.3,27.2s8.4,13.8,12.2,20.3c2.1,3.6,11.6,12,20.7,19.5h102.3C516.4,253.5,510.5,247.2,502.8,240.4z
				 M413.9,182.8c-0.7,2.2-2.1,4.1-3.6,5.9c-1.3,1.5-3.4,3.4-5.6,2.8c-0.5-0.1-0.4-0.8,0.1-0.8c3.8-0.2,7.1-4.7,8.5-7.9
				C413.5,182.3,414,182.5,413.9,182.8z"/>
			
				<linearGradient id="SVGID_19_" gradientUnits="userSpaceOnUse" x1="424.72" y1="468.894" x2="458.72" y2="-527.106" gradientTransform="matrix(1 0 0 -1 0 262)">
				<stop  offset="0" style="stop-color:#FFFFFF"/>
				<stop  offset="9.400000e-02" style="stop-color:#F7FCFB"/>
				<stop  offset="0.233" style="stop-color:#E3F4F0"/>
				<stop  offset="0.4" style="stop-color:#C2E6DF"/>
				<stop  offset="0.589" style="stop-color:#94D4C7"/>
				<stop  offset="0.794" style="stop-color:#5ABDA9"/>
				<stop  offset="1" style="stop-color:#19A387"/>
			</linearGradient>
			<path class="st25" d="M484.2,260.2h-59.7c-14.1-11.3-33.4-31.2-27.4-36.7c6.9-6.3,24.4,16.9,37.5,25c13.1,8.1,18.8,13.1,10-3.1
				s5-23.8,14.4-11.3C464.4,241.2,475.1,251.5,484.2,260.2z"/>
			
				<linearGradient id="SVGID_20_" gradientUnits="userSpaceOnUse" x1="372.5126" y1="467.1119" x2="406.5126" y2="-528.8881" gradientTransform="matrix(1 0 0 -1 0 262)">
				<stop  offset="0" style="stop-color:#FFFFFF"/>
				<stop  offset="9.400000e-02" style="stop-color:#F7FCFB"/>
				<stop  offset="0.233" style="stop-color:#E3F4F0"/>
				<stop  offset="0.4" style="stop-color:#C2E6DF"/>
				<stop  offset="0.589" style="stop-color:#94D4C7"/>
				<stop  offset="0.794" style="stop-color:#5ABDA9"/>
				<stop  offset="1" style="stop-color:#19A387"/>
			</linearGradient>
			<path class="st26" d="M355.2,140.4c1.9,1.5,3.7,3.2,5.4,4.9c-0.3-2.4-0.5-4.9-0.6-7.4c-0.3-6.2-0.5-12.5-0.4-18.8
				c0.1-3.6,0.3-7.1,0.7-10.7c0.2-3.3,0.6-7,1.7-10.1c0.5-1.9,1.2-3.8,2.2-5.5c0.2-0.4,0.3-0.9,0.5-1.3c0.6-1.5,3.3-2,3.6,0
				c0,0.2,0.1,0.4,0.1,0.6c0.6,0.8,1.1,1.7,1.6,2.6c1.1-0.5,2.7,0.2,2.8,1.7c0.2,3.6,0.5,7.3,0.8,11c1.1-0.6,2.8-0.1,2.9,1.5
				c0.2,2.3,0.4,4.5,0.7,6.7c0-0.4,0-0.7,0-1.1c-0.1-2.4,3.7-2.4,3.8,0c0.3,7.7,0.3,15.5,1,23.1c1.5,4.5,4,9.7,8,11.9
				c0.1-11.1,1.1-22.1,2.4-33.1c-1-8.2-3-16.2-6.7-23.9c-1-2.2,2.2-4.1,3.2-1.9c1.3,2.7,2.4,5.5,3.4,8.3c-0.7-3.5-1.5-6.9-2.4-10.3
				c-0.5-2,2.5-3.4,3.4-1.4c1.8,3.9,3.2,7.9,4.3,12c0.2,0.1,0.3,0.3,0.4,0.5c1.7,3.7,2.7,7.5,3.4,11.5c1.1-0.9,3.2-0.5,3.1,1.3
				c-0.1,1.4-0.2,2.9-0.3,4.3c0.3,1.1,0.6,2.2,0.7,3.3c0.9-0.7,2.5-0.5,2.9,0.9c1.5,5,2.7,9.9,3.5,15c1.7,3.6,1.5,7.6,1.2,11.7
				c0.3,0.3,0.6,0.7,0.6,1.3c0.1,1.5,0.2,3.7,0.2,6c0,1.1,0.1,2.2,0.1,3.3c0.5,2.6,1.2,5.1,2.3,7.6c0.1,0.1,0.2,0.2,0.3,0.3
				c0.6,0.5,0.7,1.2,0.5,1.8c0.1,1.2-1,2.5-2.3,2c-2.1-0.7-4.1-1.6-6-2.8c-1.1,0.3-2.4,0.2-4-0.3c-0.1,0-0.1-0.1-0.2-0.1
				c-1.3,0.1-2.5,0.1-3.7,0.2c-0.2,0-0.4,0-0.6-0.1c-3.2,1.4-6.3,3.5-9.4,5c-0.2,0.9-0.2,1.9-0.3,2.8c0.1,1,0.2,2.1,0.2,3.1
				c1.7,3,3.8,5.8,5.8,8.6c1.3,1.7,2.5,3.3,3.6,5.1c0.8,0.9,1.5,1.8,2,3c0.1,0.2,0.1,0.3,0.1,0.5c0.4,0.4,0.8,0.8,1.3,1.2
				c1.2,1.1-0.6,2.9-1.8,1.8c-0.6-0.6-1.3-1.1-1.9-1.7c-0.1-0.1-0.2-0.1-0.3-0.2l-0.2-0.2c-5.5-4.5-11.7-8.4-15.3-14.7
				c-0.2-0.3-0.2-0.6-0.1-0.9c-0.2-0.2-0.4-0.3-0.6-0.5c-0.5,0.2-1.1,0.1-1.5-0.5c-0.9-1.3-1.8-2.6-2.8-3.8c-0.4,0-0.8-0.2-1-0.6
				c-0.6-1-1.2-1.9-1.8-2.9c-0.6,0.5-1.5,0.5-1.9-0.3c-1-2-2.2-3.7-3.6-5.3c-0.2,0-0.4-0.2-0.6-0.3c-0.9-1-1.6-2.1-2.5-3.1
				c-0.3-0.3-0.4-0.7-0.3-1.1c-0.7-1.1-1.3-2.3-1.9-3.4c-4.5-5.2-8.3-10.9-11.8-16.7C352.5,140.7,354.2,139.6,355.2,140.4z"/>
			
				<linearGradient id="SVGID_21_" gradientUnits="userSpaceOnUse" x1="465.9283" y1="470.3008" x2="499.9283" y2="-525.6992" gradientTransform="matrix(1 0 0 -1 0 262)">
				<stop  offset="0" style="stop-color:#FFFFFF"/>
				<stop  offset="9.400000e-02" style="stop-color:#F7FCFB"/>
				<stop  offset="0.233" style="stop-color:#E3F4F0"/>
				<stop  offset="0.4" style="stop-color:#C2E6DF"/>
				<stop  offset="0.589" style="stop-color:#94D4C7"/>
				<stop  offset="0.794" style="stop-color:#5ABDA9"/>
				<stop  offset="1" style="stop-color:#19A387"/>
			</linearGradient>
			<path class="st27" d="M520.5,260.2h3.1c-7.7-11.5-18.1-21.2-29.5-29.2c-9.1-6.3-19.2-10.6-28.5-16.5c-4.7-3-9.3-6.6-12.4-11.2
				c-3-4.4-5.7-9-9.4-12.9c-3.1-3.2-7.9,1.7-4.9,4.9c1.5,1.5,2.7,3.1,3.9,4.8l0,0c0.6,0.9,1.3,1.9,1.9,2.8c1.2,1.8,2.4,3.7,3.7,5.4
				c2.8,3.7,6.3,6.9,10.1,9.6c0.1,0.2,0.1,0.3,0.3,0.5c4.1,4.1,8.4,8.2,14,9.6c0.7,0.2,1.5,0.3,2.3,0.4c0.1,0,0.2,0,0.2,0
				c9.9,5.8,19.7,11.7,28,19.6c0.4,0.4,0.9,0.4,1.2,0.3c3.8,3.7,7.4,7.6,10.6,11.8L520.5,260.2L520.5,260.2z"/>
		</g>
	</g>
</g>
<g id="Layer_2_1_">
</g>
</svg>
