<?xml version="1.0" encoding="utf-8"?>
<!-- Generator: Adobe Illustrator 21.0.0, SVG Export Plug-In . SVG Version: 6.00 Build 0)  -->
<svg version="1.1" id="Layer_1" xmlns="http://www.w3.org/2000/svg" xmlns:xlink="http://www.w3.org/1999/xlink" x="0px" y="0px"
	 viewBox="0 0 131 131" style="enable-background:new 0 0 131 131;" xml:space="preserve">
<style type="text/css">
	.st0{fill:#003366;}
	.st1{fill:#52D1CA;}
	.st2{opacity:0.9;fill:#00A0A2;}
	.st3{opacity:0.8;fill:url(#SVGID_1_);}
	.st4{fill:#1D302F;}
	.st5{fill:#B7BDBE;}
	.st6{fill:#F1F0F0;}
	.st7{fill:#F1F0F0;stroke:#454C4C;stroke-width:0.5;stroke-miterlimit:10;}
	.st8{fill:#E0DDE1;}
	.st9{fill:#D6D8D8;}
	.st10{opacity:0.31;fill:#054C4C;}
	.st11{fill:#E7E7E7;}
	.st12{fill:#054C4C;}
	.st13{opacity:0.3;fill:#077E9E;}
	.st14{opacity:0.8;fill:url(#SVGID_2_);}
	.st15{opacity:0.79;}
	.st16{fill:#FFFFFF;}
	.st17{fill:none;stroke:#FFFFFF;stroke-width:0.5;stroke-miterlimit:10;}
</style>
<g>
	<ellipse class="st0" cx="67.3" cy="97.5" rx="50.2" ry="28.3"/>
	<ellipse class="st1" cx="67.3" cy="93.3" rx="50.2" ry="28.3"/>
	<ellipse class="st2" cx="67.4" cy="89.1" rx="39.2" ry="19.9"/>
	<linearGradient id="SVGID_1_" gradientUnits="userSpaceOnUse" x1="114.3064" y1="43.5377" x2="77.754" y2="45.753">
		<stop  offset="0" style="stop-color:#00A0A2"/>
		<stop  offset="0.216" style="stop-color:#3DB7B8;stop-opacity:0.784"/>
		<stop  offset="0.6041" style="stop-color:#A4DDDE;stop-opacity:0.3959"/>
		<stop  offset="0.8737" style="stop-color:#E6F6F6;stop-opacity:0.1263"/>
		<stop  offset="1" style="stop-color:#FFFFFF;stop-opacity:0"/>
	</linearGradient>
	<path class="st3" d="M28.2,88.9c0-9.2,17.5-20,39.2-20s39.2,10.8,39.2,20V18.3c0-9.2-17.5-16.6-39.2-16.6S28.2,9.1,28.2,18.3V88.9z
		"/>
	<g>
		<g>
			<polygon class="st4" points="39,67.9 48.2,64.6 49.9,66.3 40.7,69.6 			"/>
			<circle class="st5" cx="52.8" cy="64.2" r="5"/>
			<circle class="st6" cx="53.5" cy="63.5" r="4.8"/>
			<g>
				<path class="st6" d="M38.6,65c0,0-10.9,0-8.4,5.9c0,0,3.4,5,7.6,5c0,0,3.4-0.8,0.8-4.2c0,0,4.2-0.8,4.2-2.5S41.1,65,38.6,65z"/>
				<path class="st7" d="M36.9,68.4c0,0-13.4,3.4-12.6,5s4.2,0.8,11.8-1.7"/>
				<path class="st7" d="M34.4,66.7c0,0-2.1-0.1-1.9,2.5"/>
			</g>
		</g>
		<g>
			<path class="st8" d="M71.3,95.2c-1.6,1.1-3.2,1.6-4.6,1.6c-20.1-29.9,8.8-35.1,8.8-35.1C95.5,76.9,71.3,95.2,71.3,95.2z"/>
			<path class="st9" d="M66.7,96.8c-5.9-0.1-9.6-8.3-9.6-8.3c-11.8-21.8,4.2-29.4,4.2-29.4c9.2-1.7,14.2,2.6,14.2,2.6
				S46.5,66.9,66.7,96.8z"/>
		</g>
		<g>
			<polygon class="st4" points="81,77.2 85.1,87.2 88.5,87.2 83.4,77.2 			"/>
			<path class="st6" d="M84.5,89.1l-0.2,0.6v2.7c0,2.2,2.3,3.5,4.2,2.4h0l-0.7,5.7c-0.1,0.4,0.4,0.7,0.8,0.5l0,0
				c3.1-1.7,4.9-5,4.9-8.5v-0.2c0-1.7-0.6-3.2-1.8-4.3c0,0,0,0-0.1-0.1c-1-1-2.3-1.4-3.7-1.2l-1,0.2C85.9,87.1,84.9,88,84.5,89.1z"
				/>
			<circle class="st5" cx="80.5" cy="72.6" r="5"/>
			<circle class="st6" cx="81.4" cy="72.6" r="5"/>
		</g>
		<path class="st10" d="M75.5,61.7l-6.3,2c0,0-12.2-1.7-15.7,4.6c0,0,2.3-5.3,5.7-7.9C62.5,57.9,75.5,61.7,75.5,61.7z"/>
		<g>
			<path class="st6" d="M81.7,37.5c-1.8-0.7-3.8-1.1-5.8-1.1c-5.8,0-10.9,3-13.8,7.6c-4.2-0.8-7-2.3-8.7-3.8c2.6-5.7,8.3-9.7,15-9.7
				C73.9,30.6,78.8,33.3,81.7,37.5z"/>
			<path class="st11" d="M84.7,47c0,2.3-0.5,4.4-1.3,6.4c-1.8,4.2-5.3,7.5-9.7,9c-1.7,0.6-3.5,0.9-5.4,0.9c-2.1,0-4-0.4-5.8-1.1
				c-4.4-1.7-7.9-5.2-9.5-9.6c5.9,4.1,13.5,4.1,17.3,3.8c1.5-0.1,2.9-0.8,3.8-2c1.2-1.5,1.8-2.8,2-3.9c0.3-1.6-0.1-2.9-0.7-3.8
				c-1-1.5-2.9-2.2-4.7-2.1c-3.4,0.2-6.3,0-8.6-0.5c2.9-4.6,8-7.6,13.8-7.6c2,0,4,0.4,5.8,1.1C83.6,40.2,84.7,43.5,84.7,47z"/>
			<path class="st12" d="M74.1,54.5c-0.9,1.2-2.3,1.9-3.8,2c-3.8,0.3-11.4,0.3-17.3-3.8c-0.6-1.8-1-3.7-1-5.7c0-2.4,0.5-4.6,1.4-6.7
				c2.7,2.3,7.8,4.8,17.3,4.3c1.8-0.1,3.7,0.6,4.7,2.1C76.6,48.3,77,50.8,74.1,54.5z"/>
		</g>
	</g>
	<path class="st13" d="M15.5,52c0,0,0,14.3,29.4,22.7V104c-29.4-8.4-28.5-22.7-28.5-22.7L15.5,52z"/>
	<linearGradient id="SVGID_2_" gradientUnits="userSpaceOnUse" x1="66.4603" y1="119.0093" x2="67.425" y2="50.7557">
		<stop  offset="0" style="stop-color:#00A0A2"/>
		<stop  offset="0.216" style="stop-color:#3DB7B8;stop-opacity:0.784"/>
		<stop  offset="0.6041" style="stop-color:#A4DDDE;stop-opacity:0.3959"/>
		<stop  offset="0.8737" style="stop-color:#E6F6F6;stop-opacity:0.1263"/>
		<stop  offset="1" style="stop-color:#FFFFFF;stop-opacity:0"/>
	</linearGradient>
	<path class="st14" d="M28.2,90.8c0,11,17.5,19.9,39.2,19.9s39.2-8.9,39.2-19.9V17c0,11-17.5,19.9-39.2,19.9S28.2,28,28.2,17V90.8z"
		/>
	<g class="st15">
		<ellipse class="st16" cx="25.6" cy="78.4" rx="2.5" ry="3.8"/>
		<ellipse class="st17" cx="25.6" cy="78.4" rx="5" ry="7.6"/>
	</g>
</g>
</svg>
