<?xml version="1.0" encoding="utf-8"?>
<!-- Generator: Adobe Illustrator 21.0.0, SVG Export Plug-In . SVG Version: 6.00 Build 0)  -->
<svg version="1.1" id="Layer_1" xmlns="http://www.w3.org/2000/svg" xmlns:xlink="http://www.w3.org/1999/xlink" x="0px" y="0px"
	 viewBox="0 0 446 171" style="enable-background:new 0 0 446 171;" xml:space="preserve">
<style type="text/css">
	.st0{fill:#00AEDF;}
	.st1{fill:#F27221;}
	.st2{fill:none;}
	.st3{fill:#0FADDB;}
	.st4{fill:#0DACDB;}
	.st5{fill:#FF7A01;}
	.st6{fill:#545454;}
</style>
<g>
	<path class="st0" d="M11.8,63.6c0.4,5.9,3.1,11.2,7.2,15.1c4.1,3.8,9.6,6.2,15.6,6.2c12.1,0,22-9.3,22.9-21.1V60
		c-0.9-10.9-9.6-20-20-20.9l-25.9-0.2L11.8,63.6z M35.2,48C42.8,48,49,54.2,49,61.8c0,7.7-6.2,13.9-13.9,13.9
		c-7.6,0-13.9-6.2-13.9-13.9c0-0.3,0-0.6,0-0.9h0V48H35.2z"/>
	<path class="st1" d="M11.9,81.2l-0.2,25.9l24.7-0.1c5.9-0.4,11.2-3.1,15.1-7.2c3.8-4.1,6.2-9.6,6.2-15.6c0-12.1-9.3-22-21.1-22.9
		h-3.7C21.9,62.1,13.2,70.5,11.9,81.2z M48.5,83.6c0,7.7-6.2,13.9-13.9,13.9c-0.3,0-0.6,0-0.9,0v0h-13V83.6
		c0-7.6,6.2-13.9,13.9-13.9C42.3,69.8,48.5,76,48.5,83.6z"/>
	<path class="st0" d="M35.2,48c1.1,0,2.1,0.1,3.1,0.4v-9.2c-0.2,0-0.4-0.1-0.7-0.1l-25.9-0.2l0.1,24.7c0.4,5.9,3.1,11.2,7.2,15.1
		c4.1,3.8,9.6,6.2,15.6,6.2c1.2,0,2.4-0.1,3.6-0.3v-9.2c-1,0.2-2,0.4-3.1,0.4c-7.6,0-13.9-6.2-13.9-13.9c0-0.3,0-0.6,0-0.9h0V48
		H35.2z"/>
</g>
<path class="st2" d="M306.8,84.6"/>
<path class="st3" d="M109.6,39h-37v66.8h37c0,0,6-3.6,0-7.3h-29V74.2h22c0,0,4-3.3,0-7.3h-22V46.3h29C109.6,46.3,114,41.9,109.6,39z
	"/>
<path class="st4" d="M167,53.1c0,0-2-15.5-21-14.8c0,0-20.4-0.7-18.3,19.4c0,0-0.5,13.3,21.9,18.1c0,0,22.2,6,7.5,22
	c0,0-15.1,11.2-24.4-11.1c0,0-8-0.4-5.1,7.6c0,0,4.2,12.1,22.4,13.3c0,0,22-0.5,18.8-24.4c0,0,0.4-10.1-26.8-18.3
	c0,0-16.2-6.2-1.6-19.2c0,0,13.3-7.6,20.1,10.5C160.4,56.3,164.7,60,167,53.1z"/>
<path class="st4" d="M209.1,46.3h17.2c0,0,3.8-3.5,0-7.3h-43c0,0-4.8,4.4,0.7,7.3h16.5l0.9,56.5c0,0,0.4,3,6.9,3L209.1,46.3z"/>
<path class="st5" d="M252.2,39c0,0,7.5,0.3,7.5,3.2V99h26.8c0,0,2.1-0.2,2.5,6.9h-36.8V39z"/>
<path class="st5" d="M305.5,39v62.8c0,0,0.7,4.1,8.4,4.1V42.4C313.9,42.4,314.6,39,305.5,39z"/>
<path class="st5" d="M337.7,39h36.1c0,0,2.3,1.1,2.1,6.8h-30.2l-0.9,21.9h23.3c0,0,6.6,2.5,0.4,6.6h-22.6l-0.2,31.6
	c0,0-8.5,0.7-8-4.3V39z"/>
<path class="st5" d="M392.2,39h37.1c0,0,3.3,0.7,2.7,6.5h-31.6v22h22c0,0,4.2,2.7,0,6.8h-22.1v24.3h31.4c0,0,1.6,7.3-2.8,7.3h-36.5
	V39z"/>
<path class="st4" d="M315.7,28.3c-0.4-2.7-2.6-4.7-5.3-4.9l-6.4,0.4l0.4,6.1c0.2,1.5,1,2.7,2,3.6c1.1,0.9,2.5,1.4,4,1.3
	c3-0.2,5.3-2.7,5.3-5.6L315.7,28.3z M307.2,25.9c-0.2,0.2-0.5,0.4-0.7,0.6l0-0.6L307.2,25.9z"/>
<rect x="11.7" y="136.1" class="st6" width="70.5" height="6.4"/>
<rect x="361.3" y="136.6" class="st6" width="70.7" height="6"/>
<g>
	<path class="st6" d="M106.3,146.6h-2.6l-7.1-13.4l-0.1,0v13.4h-2.5v-18.2h2.5l7.1,13.4l0.1,0v-13.4h2.6V146.6z"/>
	<path class="st6" d="M109,139.7c0-2,0.5-3.7,1.4-4.9s2.3-1.9,3.9-1.9c0.8,0,1.5,0.1,2.1,0.4c0.6,0.3,1.2,0.7,1.6,1.3
		c0.5-0.2,0.9-0.6,1.2-1.2c0.3-0.6,0.4-1.3,0.4-2.2h2c0,1.2-0.2,2.2-0.7,3c-0.5,0.8-1.2,1.3-2,1.7c0.3,0.6,0.4,1.2,0.6,1.8
		s0.2,1.3,0.2,2.1v0.3c0,2-0.5,3.7-1.4,4.9c-1,1.3-2.3,1.9-3.9,1.9c-1.7,0-3-0.6-3.9-1.9s-1.4-2.9-1.4-4.9V139.7z M111.5,140.1
		c0,1.4,0.2,2.6,0.7,3.5c0.5,0.9,1.2,1.4,2.1,1.4c0.9,0,1.6-0.5,2.1-1.4s0.7-2.1,0.7-3.5v-0.3c0-1.4-0.2-2.6-0.7-3.5
		s-1.2-1.4-2.1-1.4s-1.6,0.5-2.1,1.4s-0.7,2.1-0.7,3.5V140.1z"/>
	<path class="st6" d="M125,129.6h-2.6v-2.4h2.6V129.6z M125,146.6h-2.6v-13.5h2.6V146.6z"/>
	<path class="st6" d="M138.5,145c0.6,0,1.1-0.2,1.6-0.7c0.4-0.5,0.6-1.1,0.6-2h2.3l0,0.1c0,1.3-0.4,2.4-1.3,3.2
		c-0.9,0.9-2,1.3-3.2,1.3c-1.7,0-3-0.6-3.9-1.9c-0.9-1.3-1.4-2.9-1.4-4.9v-0.5c0-2,0.5-3.6,1.4-4.9c0.9-1.3,2.2-1.9,3.9-1.9
		c1.4,0,2.4,0.5,3.3,1.4c0.8,0.9,1.3,2.1,1.2,3.6l0,0.1h-2.3c0-0.9-0.2-1.6-0.6-2.2c-0.4-0.6-0.9-0.8-1.6-0.8c-1,0-1.6,0.5-2.1,1.4
		s-0.6,2.1-0.6,3.5v0.5c0,1.4,0.2,2.6,0.6,3.5S137.5,145,138.5,145z"/>
	<path class="st6" d="M152.6,144.7c-0.4,0.7-0.8,1.3-1.4,1.7c-0.6,0.4-1.2,0.6-2,0.6c-1.2,0-2.2-0.5-2.9-1.4c-0.7-1-1.1-2.4-1.1-4.5
		v-7.9h2.6v7.9c0,1.5,0.2,2.5,0.5,3c0.3,0.6,0.8,0.9,1.5,0.9c0.6,0,1.2-0.1,1.6-0.4c0.4-0.3,0.8-0.7,1-1.3v-10.1h2.6v13.5h-2.2
		L152.6,144.7z"/>
	<path class="st6" d="M157.4,139.7c0-2,0.5-3.7,1.4-4.9c1-1.3,2.3-1.9,3.9-1.9c1.7,0,3,0.6,3.9,1.9s1.4,2.9,1.4,4.9v0.3
		c0,2-0.5,3.7-1.4,4.9c-1,1.3-2.3,1.9-3.9,1.9c-1.7,0-3-0.6-3.9-1.9c-1-1.3-1.4-2.9-1.4-4.9V139.7z M166.4,130.4v0.3h-2.1l-1.6-1.9
		l-1.6,1.9h-2v-0.3l2.8-2.9h1.5L166.4,130.4z M160,140.1c0,1.4,0.2,2.6,0.7,3.5c0.5,0.9,1.2,1.4,2.1,1.4c0.9,0,1.6-0.5,2.1-1.4
		s0.7-2.1,0.7-3.5v-0.3c0-1.4-0.2-2.6-0.7-3.5s-1.2-1.4-2.1-1.4s-1.6,0.5-2.1,1.4s-0.7,2.1-0.7,3.5V140.1z M164.2,150.9h-2.9v-2.5
		h2.9V150.9z"/>
	<path class="st6" d="M175.3,145c0.6,0,1.1-0.2,1.6-0.7c0.4-0.5,0.6-1.1,0.6-2h2.3l0,0.1c0,1.3-0.4,2.4-1.3,3.2
		c-0.9,0.9-2,1.3-3.2,1.3c-1.7,0-3-0.6-3.9-1.9c-0.9-1.3-1.4-2.9-1.4-4.9v-0.5c0-2,0.5-3.6,1.4-4.9c0.9-1.3,2.2-1.9,3.9-1.9
		c1.4,0,2.4,0.5,3.3,1.4c0.8,0.9,1.3,2.1,1.2,3.6l0,0.1h-2.3c0-0.9-0.2-1.6-0.6-2.2c-0.4-0.6-0.9-0.8-1.6-0.8c-1,0-1.6,0.5-2.1,1.4
		s-0.6,2.1-0.6,3.5v0.5c0,1.4,0.2,2.6,0.6,3.5S174.3,145,175.3,145z"/>
	<path class="st6" d="M194.2,143.2c0-0.5-0.2-1-0.5-1.3c-0.4-0.4-1-0.8-2-1.2c-1.4-0.5-2.4-1.1-3.1-1.7s-1-1.4-1-2.4
		c0-1,0.4-1.9,1.3-2.7c0.8-0.7,1.9-1.1,3.3-1.1c1.4,0,2.5,0.4,3.4,1.2c0.9,0.8,1.3,1.8,1.2,2.9l0,0.1h-2.5c0-0.6-0.2-1.2-0.6-1.7
		s-0.9-0.7-1.5-0.7s-1.2,0.2-1.5,0.5c-0.4,0.4-0.5,0.8-0.5,1.3c0,0.5,0.2,0.9,0.5,1.2c0.3,0.3,1,0.7,2,1.1c1.4,0.5,2.5,1.1,3.2,1.7
		c0.7,0.7,1.1,1.5,1.1,2.5c0,1.1-0.4,2-1.3,2.7c-0.9,0.7-2,1.1-3.4,1.1c-1.5,0-2.7-0.4-3.6-1.3s-1.3-1.8-1.2-3l0-0.1h2.4
		c0,0.9,0.3,1.5,0.7,1.9c0.5,0.4,1,0.6,1.7,0.6c0.7,0,1.2-0.2,1.6-0.5C194,144.2,194.2,143.8,194.2,143.2z"/>
	<path class="st6" d="M198.5,139.7c0-2,0.5-3.7,1.4-4.9s2.3-1.9,3.9-1.9c1.7,0,3,0.6,3.9,1.9c1,1.3,1.4,2.9,1.4,4.9v0.3
		c0,2-0.5,3.7-1.4,4.9c-1,1.3-2.3,1.9-3.9,1.9c-1.7,0-3-0.6-3.9-1.9s-1.4-2.9-1.4-4.9V139.7z M202.8,127.6h2.1l3.1,3.1l0,0.1h-2.4
		l-1.7-2l-1.7,2h-2.4l0-0.1L202.8,127.6z M201.1,140.1c0,1.4,0.2,2.6,0.7,3.5c0.5,0.9,1.2,1.4,2.1,1.4c0.9,0,1.6-0.5,2.1-1.4
		s0.7-2.1,0.7-3.5v-0.3c0-1.4-0.2-2.6-0.7-3.5s-1.2-1.4-2.1-1.4s-1.6,0.5-2.1,1.4s-0.7,2.1-0.7,3.5V140.1z M200.2,125.9l2.5,0.2
		l-2.4,3l-1.8-0.1L200.2,125.9z"/>
	<path class="st6" d="M213.9,133.1l0.2,2c0.4-0.7,0.9-1.3,1.5-1.7c0.6-0.4,1.2-0.6,2-0.6c1.2,0,2.1,0.4,2.8,1.3s1,2.3,1,4.1v8.3
		h-2.5v-8.3c0-1.3-0.2-2.2-0.5-2.7c-0.4-0.5-0.9-0.8-1.6-0.8c-0.6,0-1.1,0.2-1.5,0.5c-0.4,0.3-0.8,0.7-1,1.3v10.1h-2.6v-13.5H213.9z
		"/>
	<path class="st6" d="M223.8,140c0-2.2,0.4-3.9,1.2-5.2c0.8-1.3,1.9-2,3.4-2c0.7,0,1.3,0.2,1.9,0.5c0.5,0.3,1,0.8,1.4,1.4l0.2-1.7
		h2.1v13.6c0,1.7-0.5,3.1-1.4,4s-2.2,1.4-3.9,1.4c-0.6,0-1.2-0.1-1.8-0.3s-1.2-0.4-1.8-0.7l0.4-1.9c0.5,0.3,1,0.5,1.5,0.6
		c0.5,0.1,1.1,0.2,1.7,0.2c1,0,1.7-0.3,2.1-0.8c0.5-0.6,0.7-1.4,0.7-2.6v-1.3c-0.4,0.5-0.8,0.9-1.3,1.2c-0.5,0.3-1.1,0.4-1.7,0.4
		c-1.4,0-2.5-0.6-3.3-1.8c-0.8-1.2-1.2-2.8-1.2-4.8V140z M226.4,140.3c0,1.4,0.2,2.6,0.6,3.4c0.4,0.8,1.1,1.3,2,1.3
		c0.6,0,1-0.1,1.4-0.4c0.4-0.3,0.7-0.7,1-1.2v-6.7c-0.2-0.6-0.6-1-1-1.3c-0.4-0.3-0.9-0.5-1.4-0.5c-0.9,0-1.6,0.5-2,1.4
		c-0.4,1-0.6,2.2-0.6,3.8V140.3z"/>
	<path class="st6" d="M245.7,129.7v3.4h2.1v1.8h-2.1v8.1c0,0.7,0.1,1.2,0.3,1.5c0.2,0.3,0.5,0.4,0.8,0.4c0.1,0,0.3,0,0.4,0
		c0.1,0,0.3-0.1,0.4-0.1l0.3,1.8c-0.2,0.1-0.5,0.2-0.8,0.3c-0.3,0.1-0.6,0.1-0.9,0.1c-1,0-1.7-0.3-2.3-0.9c-0.5-0.6-0.8-1.6-0.8-3
		v-8.1h-1.8v-1.8h1.8v-3.4H245.7z"/>
	<path class="st6" d="M249.6,139.7c0-2,0.5-3.7,1.4-4.9c1-1.3,2.3-1.9,3.9-1.9c1.7,0,3,0.6,3.9,1.9c1,1.3,1.4,2.9,1.4,4.9v0.3
		c0,2-0.5,3.7-1.4,4.9s-2.3,1.9-3.9,1.9c-1.7,0-3-0.6-3.9-1.9c-1-1.3-1.4-2.9-1.4-4.9V139.7z M253.9,127.6h2.1l3.1,3.1l0,0.1h-2.4
		l-1.7-2l-1.7,2h-2.4l0-0.1L253.9,127.6z M252.2,140.1c0,1.4,0.2,2.6,0.7,3.5c0.5,0.9,1.2,1.4,2.1,1.4c0.9,0,1.6-0.5,2.1-1.4
		c0.5-0.9,0.7-2.1,0.7-3.5v-0.3c0-1.4-0.2-2.6-0.7-3.5s-1.2-1.4-2.1-1.4s-1.6,0.5-2.1,1.4s-0.7,2.1-0.7,3.5V140.1z M251.2,125.9h2.5
		l-2.2,3.1h-1.8L251.2,125.9z"/>
	<path class="st6" d="M266,129.7v3.4h2.1v1.8H266v8.1c0,0.7,0.1,1.2,0.3,1.5c0.2,0.3,0.5,0.4,0.8,0.4c0.1,0,0.3,0,0.4,0
		c0.1,0,0.3-0.1,0.4-0.1l0.3,1.8c-0.2,0.1-0.5,0.2-0.8,0.3c-0.3,0.1-0.6,0.1-0.9,0.1c-1,0-1.7-0.3-2.3-0.9c-0.5-0.6-0.8-1.6-0.8-3
		v-8.1h-1.8v-1.8h1.8v-3.4H266z"/>
	<path class="st6" d="M287.5,131.2h-1.8v15.5h-2.1l-0.3-1.6c-0.4,0.6-0.8,1.1-1.4,1.4c-0.5,0.3-1.2,0.5-1.9,0.5
		c-1.4,0-2.5-0.6-3.3-1.8s-1.2-2.8-1.2-4.8V140c0-2.2,0.4-3.9,1.2-5.2c0.8-1.3,1.9-2,3.3-2c0.6,0,1.2,0.1,1.7,0.4
		c0.5,0.3,0.9,0.7,1.3,1.2v-3.4h-2.7v-1.8h2.7v-2.3h2.5v2.3h1.8V131.2z M278.1,140.3c0,1.4,0.2,2.5,0.6,3.4c0.4,0.8,1.1,1.3,2,1.3
		c0.6,0,1-0.2,1.4-0.5c0.4-0.3,0.7-0.7,1-1.3v-6.6c-0.3-0.6-0.6-1-1-1.3s-0.9-0.5-1.4-0.5c-0.9,0-1.6,0.5-2,1.4
		c-0.4,1-0.6,2.2-0.6,3.8V140.3z"/>
	<path class="st6" d="M293.5,146.9c-1.7,0-3-0.6-4-1.9c-1-1.2-1.4-2.8-1.4-4.8v-0.6c0-2,0.5-3.6,1.4-4.9s2.2-1.9,3.7-1.9
		c1.5,0,2.7,0.5,3.5,1.6c0.8,1.1,1.2,2.6,1.2,4.4v1.4h-7.3c0,1.4,0.2,2.5,0.7,3.4c0.5,0.9,1.3,1.3,2.3,1.3c0.7,0,1.3-0.1,1.9-0.3
		c0.5-0.2,1-0.5,1.5-1l0.8,1.6c-0.5,0.5-1,0.9-1.8,1.2C295.3,146.7,294.5,146.9,293.5,146.9z M293.3,134.8c-0.7,0-1.3,0.3-1.8,1
		c-0.4,0.7-0.7,1.6-0.8,2.7h4.8v-0.3c0-1-0.2-1.8-0.5-2.5C294.6,135.1,294.1,134.8,293.3,134.8z M294.8,150.8H292v-2.5h2.9V150.8z"
		/>
	<path class="st6" d="M310.5,140.3c0,2-0.4,3.6-1.2,4.8s-1.9,1.8-3.3,1.8c-0.7,0-1.3-0.1-1.8-0.4c-0.5-0.3-0.9-0.6-1.3-1.2v6.5h-2.6
		v-18.7h2.2l0.2,1.6c0.4-0.6,0.8-1.1,1.4-1.4c0.5-0.3,1.2-0.5,1.9-0.5c1.4,0,2.5,0.7,3.3,2s1.2,3,1.2,5.2V140.3z M307.9,140
		c0-1.5-0.2-2.8-0.7-3.8s-1.1-1.5-2-1.5c-0.6,0-1,0.2-1.4,0.5c-0.4,0.3-0.7,0.7-0.9,1.3v6.8c0.2,0.5,0.5,0.9,0.9,1.2
		s0.9,0.4,1.5,0.4c0.9,0,1.6-0.4,2-1.3s0.7-2,0.7-3.4V140z"/>
	<path class="st6" d="M321.1,134.9c0.4-0.7,0.9-1.2,1.4-1.5s1.2-0.5,1.9-0.5c1.2,0,2.2,0.5,2.9,1.4c0.7,0.9,1,2.3,1,4.2v8.3h-2.6
		v-8.3c0-1.2-0.2-2.1-0.5-2.7s-0.9-0.8-1.6-0.8c-0.6,0-1.1,0.1-1.5,0.4s-0.8,0.7-1,1.2v10.2h-2.6v-19.5h2.6V134.9z"/>
	<path class="st6" d="M330.6,139.7c0-2,0.5-3.7,1.4-4.9c1-1.3,2.3-1.9,3.9-1.9c0.8,0,1.5,0.1,2.1,0.4c0.6,0.3,1.2,0.7,1.6,1.3
		c0.5-0.2,0.9-0.6,1.2-1.2c0.3-0.6,0.4-1.3,0.4-2.2h2c0,1.2-0.2,2.2-0.7,3c-0.5,0.8-1.2,1.3-2,1.7c0.3,0.6,0.4,1.2,0.6,1.8
		s0.2,1.3,0.2,2.1v0.3c0,2-0.5,3.7-1.4,4.9s-2.3,1.9-3.9,1.9c-1.7,0-3-0.6-3.9-1.9c-1-1.3-1.4-2.9-1.4-4.9V139.7z M333.2,140.1
		c0,1.4,0.2,2.6,0.7,3.5c0.5,0.9,1.2,1.4,2.1,1.4c0.9,0,1.6-0.5,2.1-1.4c0.5-0.9,0.7-2.1,0.7-3.5v-0.3c0-1.4-0.2-2.6-0.7-3.5
		s-1.2-1.4-2.1-1.4s-1.6,0.5-2.1,1.4c-0.5,0.9-0.7,2.1-0.7,3.5V140.1z"/>
	<path class="st6" d="M346.3,133.1l0.1,2c0.4-0.7,0.9-1.3,1.5-1.7c0.6-0.4,1.2-0.6,2-0.6c1.2,0,2.1,0.4,2.8,1.3c0.7,0.9,1,2.3,1,4.1
		v8.3h-2.5v-8.3c0-1.3-0.2-2.2-0.5-2.7c-0.4-0.5-0.9-0.8-1.6-0.8c-0.6,0-1.1,0.2-1.5,0.5c-0.4,0.3-0.8,0.7-1,1.3v10.1H344v-13.5
		H346.3z"/>
</g>
</svg>
